<?xml version="1.0" encoding="UTF-8"?>
<svg xmlns="http://www.w3.org/2000/svg" xmlns:xlink="http://www.w3.org/1999/xlink" width="128" height="128" viewBox="0 0 128 128" version="1.1">
<g id="surface1">
<path style=" stroke:none;fill-rule:nonzero;fill:rgb(9.411765%,9.803922%,13.333334%);fill-opacity:1;" d="M -0.125 0.125 C -0.125 0.125 -0.125 -0.125 -0.125 -0.125 C -0.125 -0.125 127.875 -0.125 127.875 -0.125 C 127.875 -0.125 127.875 0.125 127.875 0.125 Z M -0.125 0.125 "/>
<path style=" stroke:none;fill-rule:nonzero;fill:rgb(98.039216%,99.215686%,99.607843%);fill-opacity:1;" d="M 96.625 51.25 C 96.609375 51.164062 96.511719 50.714844 96.5 50.6875 C 95.980469 49.628906 93.132812 47.625 92.625 46.8125 C 92.230469 46.183594 92 45.054688 92.125 44.3125 C 92.238281 43.628906 94.933594 41.019531 92.5625 42 C 90.867188 42.703125 90.425781 46.621094 90.75 48.1875 C 90.890625 48.859375 93.914062 54.648438 94.375 55.1875 C 94.738281 55.613281 94.523438 55.03125 94.75 55 C 96.40625 59.980469 96.609375 64.316406 95.25 69.4375 C 95.101562 70 94.789062 71.082031 94.375 71.5 C 94.4375 71.234375 94.808594 70.035156 94.75 69.9375 C 94.675781 69.8125 94.332031 70.136719 94.3125 70.125 C 93.976562 69.957031 93.683594 69.179688 93 69.8125 C 92.769531 70.027344 91.804688 73.394531 91.5 74.0625 C 88.660156 80.292969 83.632812 83.574219 78.8125 87.875 C 73.996094 92.171875 75.566406 92.722656 74.125 98.1875 C 73.304688 101.300781 72.40625 98.929688 71.1875 98 C 66.4375 94.367188 61.054688 94.511719 56.4375 98.25 C 55.355469 99.125 54.441406 101.492188 53.375 98.6875 C 52.863281 97.34375 53.179688 93.65625 52.875 92.0625 C 52.332031 89.222656 45.15625 85.125 42.9375 83.125 C 38.832031 79.425781 35.945312 74.605469 34.5625 69.25 C 34.332031 69.238281 34.300781 72.050781 33.25 71.875 C 30.882812 65.179688 30.847656 57.527344 34.625 51.375 C 34.46875 51.753906 34.453125 52.238281 34.125 52.5625 C 34.046875 52.871094 34.546875 52.515625 34.5625 52.5 C 35.355469 51.828125 37.203125 47.769531 37.25 46.6875 C 37.292969 45.679688 36.199219 42.074219 35.1875 41.875 C 34.855469 41.808594 34.691406 42.648438 34.75 42.9375 C 34.933594 43.835938 35.863281 44.429688 35.625 45.8125 C 35.441406 46.878906 32.246094 50.015625 31.25 50.8125 C 31.371094 51.03125 31.128906 51.347656 31.125 51.375 C 29.351562 33.832031 45.292969 20.492188 61.8125 19.625 C 79.847656 18.679688 98.398438 31.867188 96.625 51.25 Z M 37.3125 58.375 C 33.0625 59.070312 34.171875 65.636719 35.25 68.4375 C 37.921875 75.378906 45.757812 80.625 53.0625 81.25 C 58.726562 81.734375 60.75 81.226562 58.75 75.3125 C 56.191406 67.753906 46.011719 56.953125 37.3125 58.375 Z M 88.4375 58.375 C 81.21875 58.789062 73.792969 65.59375 70.5 71.6875 C 69.285156 73.941406 66.179688 80.695312 70.4375 81.25 C 79.597656 82.445312 89.425781 76.460938 92.75 67.9375 C 94.390625 63.734375 94.292969 58.039062 88.4375 58.375 Z M 61.5625 86.625 C 60.265625 86.808594 59.554688 90.09375 61.6875 89.75 C 62.6875 89.589844 62.835938 86.445312 61.5625 86.625 Z M 65.8125 86.625 C 64.996094 86.800781 64.964844 89.519531 65.8125 89.75 C 68.210938 90.402344 67.644531 86.230469 65.8125 86.625 Z M 65.8125 86.625 "/>
<path style=" stroke:none;fill-rule:nonzero;fill:rgb(89.803922%,89.803922%,85.882354%);fill-opacity:1;" d="M 34.625 51.375 C 35.355469 49.59375 36.722656 47.996094 36.3125 45.875 C 35.695312 49.234375 32.726562 51.242188 31.75 54.4375 C 31.539062 54.628906 31.5625 54.488281 31.5 54.3125 C 31.367188 53.945312 31.058594 51.734375 31.125 51.375 C 31.128906 51.347656 31.371094 51.03125 31.25 50.8125 C 32.246094 50.015625 35.441406 46.878906 35.625 45.8125 C 35.863281 44.429688 34.933594 43.835938 34.75 42.9375 C 34.691406 42.648438 34.855469 41.808594 35.1875 41.875 C 36.199219 42.074219 37.292969 45.679688 37.25 46.6875 C 37.203125 47.769531 35.355469 51.828125 34.5625 52.5 C 34.546875 52.515625 34.046875 52.871094 34.125 52.5625 C 34.453125 52.238281 34.46875 51.753906 34.625 51.375 Z M 34.625 51.375 "/>
<path style=" stroke:none;fill-rule:nonzero;fill:rgb(90.196079%,89.411765%,85.490197%);fill-opacity:1;" d="M 96.625 51.25 C 96.765625 52.03125 96.433594 53.855469 96 54.5625 C 94.761719 51.339844 91.898438 48.949219 91.375 45.4375 C 91.472656 48.871094 93.652344 51.699219 94.75 55 C 94.523438 55.03125 94.738281 55.613281 94.375 55.1875 C 93.914062 54.648438 90.890625 48.859375 90.75 48.1875 C 90.425781 46.621094 90.867188 42.703125 92.5625 42 C 94.933594 41.019531 92.238281 43.628906 92.125 44.3125 C 92 45.054688 92.230469 46.183594 92.625 46.8125 C 93.132812 47.625 95.980469 49.628906 96.5 50.6875 C 96.511719 50.714844 96.609375 51.164062 96.625 51.25 Z M 96.625 51.25 "/>
<path style=" stroke:none;fill-rule:nonzero;fill:rgb(87.843138%,89.019608%,85.882354%);fill-opacity:1;" d="M 37.3125 58.375 C 46.011719 56.953125 56.191406 67.753906 58.75 75.3125 C 60.75 81.226562 58.726562 81.734375 53.0625 81.25 C 45.757812 80.625 37.921875 75.378906 35.25 68.4375 C 34.171875 65.636719 33.0625 59.070312 37.3125 58.375 Z M 37.3125 59.25 C 33.65625 59.878906 34.789062 65.660156 35.75 68.0625 C 38.464844 74.839844 45.828125 79.921875 53.0625 80.5 C 59.425781 81.007812 60.09375 79.707031 57.5 74.1875 C 54.636719 68.09375 44.636719 57.988281 37.3125 59.25 Z M 37.3125 59.25 "/>
<path style=" stroke:none;fill-rule:nonzero;fill:rgb(88.235295%,89.411765%,86.274511%);fill-opacity:1;" d="M 88.4375 58.375 C 94.292969 58.039062 94.390625 63.734375 92.75 67.9375 C 89.425781 76.460938 79.597656 82.445312 70.4375 81.25 C 66.179688 80.695312 69.285156 73.941406 70.5 71.6875 C 73.792969 65.59375 81.21875 58.789062 88.4375 58.375 Z M 88.5625 59.25 C 81.191406 59.808594 71.503906 69.328125 69.375 76.1875 C 68.761719 78.164062 68.140625 80.152344 70.8125 80.5 C 79.128906 81.589844 88.539062 76.058594 91.875 68.4375 C 93.476562 64.777344 94.296875 58.816406 88.5625 59.25 Z M 88.5625 59.25 "/>
<path style=" stroke:none;fill-rule:nonzero;fill:rgb(86.274511%,89.019608%,86.666667%);fill-opacity:1;" d="M 94.375 71.5 C 92.945312 77.441406 87.9375 82.390625 83.5 86.25 C 83.5 86.25 89.1875 80.125 89.1875 80.125 C 87.339844 81.707031 85.5625 83.457031 83.6875 85 C 81.179688 87.0625 76.6875 89.652344 75.625 92.8125 C 74.5625 95.980469 75.335938 99.535156 72.625 102.0625 C 72.625 102.0625 73.625 101.9375 73.625 101.9375 C 72.582031 102.820312 71.550781 104.5625 70 104.375 C 69.96875 104.371094 69.59375 104.125 69.375 104.25 C 70.304688 103.433594 71.894531 102.488281 71.125 101.0625 C 70.699219 100.273438 67.097656 98.230469 66.1875 98 C 63.34375 97.28125 60.433594 98.464844 58.0625 100 C 56.953125 100.71875 55.898438 101.433594 56.625 102.875 C 56.511719 102.8125 55.683594 102.390625 55.625 102.375 C 54.800781 101.238281 52.828125 99.257812 52.5 97.9375 C 52.152344 96.546875 52.53125 94.75 52.25 93.3125 C 51.601562 90.011719 45.070312 86.761719 43.1875 84 C 43.1875 84 38.125 80.25 38.125 80.25 C 36.109375 77.699219 34.34375 74.96875 33.25 71.875 C 34.300781 72.050781 34.332031 69.238281 34.5625 69.25 C 35.945312 74.605469 38.832031 79.425781 42.9375 83.125 C 45.15625 85.125 52.332031 89.222656 52.875 92.0625 C 53.179688 93.65625 52.863281 97.34375 53.375 98.6875 C 54.441406 101.492188 55.355469 99.125 56.4375 98.25 C 61.054688 94.511719 66.4375 94.367188 71.1875 98 C 72.40625 98.929688 73.304688 101.300781 74.125 98.1875 C 75.566406 92.722656 73.996094 92.171875 78.8125 87.875 C 83.632812 83.574219 88.660156 80.292969 91.5 74.0625 C 91.804688 73.394531 92.769531 70.027344 93 69.8125 C 93.683594 69.179688 93.976562 69.957031 94.3125 70.125 C 94.332031 70.136719 94.675781 69.8125 94.75 69.9375 C 94.808594 70.035156 94.4375 71.234375 94.375 71.5 Z M 62.6875 96.125 C 61.378906 96.261719 58.898438 97.164062 58.1875 98.375 C 61.988281 96.21875 66.910156 96.664062 70.625 98.8125 C 68.480469 96.859375 65.585938 95.824219 62.6875 96.125 Z M 62.6875 96.125 "/>
<path style=" stroke:none;fill-rule:nonzero;fill:rgb(70.980394%,76.078433%,74.901962%);fill-opacity:1;" d="M 55.625 102.375 C 55.609375 102.371094 55.503906 102.582031 55.3125 102.25 C 54.742188 102.703125 55.039062 102.855469 55.4375 103.25 C 55.976562 103.785156 60.785156 107.105469 61.375 107.25 C 61.597656 108.292969 60.484375 106.792969 60.25 107.5 C 56.90625 106.269531 52.339844 100.699219 50.125 97.8125 C 48.027344 95.074219 46.175781 92.117188 44.6875 89 C 47.800781 89.894531 50.765625 91.742188 51.5625 95.125 C 51.605469 92.660156 49.90625 90.800781 48.1875 89.25 C 44.488281 85.910156 41.441406 84.441406 38.125 80.25 C 38.125 80.25 43.1875 84 43.1875 84 C 45.070312 86.761719 51.601562 90.011719 52.25 93.3125 C 52.53125 94.75 52.152344 96.546875 52.5 97.9375 C 52.828125 99.257812 54.800781 101.238281 55.625 102.375 Z M 55.625 102.375 "/>
<path style=" stroke:none;fill-rule:nonzero;fill:rgb(75.294119%,76.078433%,72.941178%);fill-opacity:1;" d="M 83.5 86.25 C 80.535156 88.828125 76.21875 90.929688 75.9375 95.375 C 76.847656 92.429688 78.417969 90.957031 81.1875 89.75 C 81.371094 89.667969 83.109375 88.832031 83.125 89.1875 C 81.273438 92.414062 79.308594 95.632812 77 98.5625 C 72.855469 103.824219 67.777344 110.265625 60.25 107.5 C 60.484375 106.792969 61.597656 108.292969 61.375 107.25 C 64.582031 108.027344 67.917969 106.851562 70 104.375 C 71.550781 104.5625 72.582031 102.820312 73.625 101.9375 C 73.625 101.9375 72.625 102.0625 72.625 102.0625 C 75.335938 99.535156 74.5625 95.980469 75.625 92.8125 C 76.6875 89.652344 81.179688 87.0625 83.6875 85 C 85.5625 83.457031 87.339844 81.707031 89.1875 80.125 Z M 83.5 86.25 "/>
<path style=" stroke:none;fill-rule:nonzero;fill:rgb(90.196079%,98.823529%,99.215686%);fill-opacity:1;" d="M 69.375 104.25 C 67.125 106.222656 64.921875 107.125 61.8125 106.5 C 60.757812 106.289062 57.789062 103.535156 56.625 102.875 C 55.898438 101.433594 56.953125 100.71875 58.0625 100 C 60.433594 98.464844 63.34375 97.28125 66.1875 98 C 67.097656 98.230469 70.699219 100.273438 71.125 101.0625 C 71.894531 102.488281 70.304688 103.433594 69.375 104.25 Z M 69.375 104.25 "/>
<path style=" stroke:none;fill-rule:nonzero;fill:rgb(76.47059%,83.137256%,81.568629%);fill-opacity:1;" d="M 55.625 102.375 C 55.683594 102.390625 56.511719 102.8125 56.625 102.875 C 57.789062 103.535156 60.757812 106.289062 61.8125 106.5 C 64.921875 107.125 67.125 106.222656 69.375 104.25 C 69.59375 104.125 69.96875 104.371094 70 104.375 C 67.917969 106.851562 64.582031 108.027344 61.375 107.25 C 60.785156 107.105469 55.976562 103.785156 55.4375 103.25 C 55.039062 102.855469 54.742188 102.703125 55.3125 102.25 C 55.503906 102.582031 55.609375 102.371094 55.625 102.375 Z M 55.625 102.375 "/>
</g>
</svg>
