<?xml version="1.0" encoding="UTF-8"?>
<svg xmlns="http://www.w3.org/2000/svg" xmlns:xlink="http://www.w3.org/1999/xlink" width="128" height="128" viewBox="0 0 128 128" version="1.1">
<g id="surface1">
<path style=" stroke:none;fill-rule:nonzero;fill:rgb(99.607843%,99.607843%,99.607843%);fill-opacity:1;" d="M 88.125 90.375 C 74.128906 94.078125 56.699219 94.191406 42.5625 91.125 C 34.183594 89.308594 27.3125 86.238281 24.25 77.5625 C 22.820312 73.511719 23.417969 71.035156 23 67.125 C 25.085938 49.058594 42.65625 36.007812 60.0625 34.625 C 72.875 33.605469 86.519531 38.332031 95.375 47.6875 C 108.535156 61.589844 109.550781 84.707031 88.125 90.375 Z M 63.9375 38.25 C 63.21875 40.753906 62.285156 43.257812 61.75 45.8125 C 61.160156 48.628906 60.1875 54.855469 61.125 57.3125 C 61.144531 57.367188 61.921875 57.660156 61.75 58.1875 C 61.679688 58.40625 61.351562 57.949219 61.375 58.3125 C 61.386719 58.511719 61.746094 58.660156 61.75 58.6875 C 62.105469 61.722656 61.625 65.828125 62 68.5625 C 62.246094 70.355469 63.296875 72.382812 63.8125 74.125 C 66.019531 69.269531 66.921875 63.273438 67.125 57.9375 C 67.386719 51.019531 65.953125 44.785156 63.9375 38.25 Z M 58.6875 38.5 C 58.382812 38.53125 53.769531 40.902344 53.1875 41.25 C 46.226562 45.378906 40.511719 52.757812 41.3125 61.25 C 47.398438 53.828125 51.976562 45.238281 59 38.5625 C 58.949219 38.46875 58.789062 38.488281 58.6875 38.5 Z M 86.125 60.875 C 86.199219 60.941406 86.273438 61.28125 86.5 61.0625 C 86.351562 59.578125 86.898438 57.367188 85.875 56.25 C 85.546875 52.710938 84.644531 52.8125 83.25 49.9375 C 83.160156 49.75 83.621094 49.421875 82.9375 48.875 C 82.828125 48.785156 82.707031 49.066406 82.5625 49 C 82.355469 48.902344 82.703125 48.652344 82.625 48.5625 C 81.394531 47.109375 80.054688 45.773438 78.625 44.5625 C 78.625 44.5625 79.625 44.9375 79.625 44.9375 C 76.984375 42.476562 73.507812 40.421875 70.1875 39 C 69.96875 38.90625 69.054688 38.429688 68.875 38.6875 C 71.367188 41.1875 73.710938 43.894531 75.875 46.6875 C 78.730469 50.367188 83.054688 58.214844 86.125 60.875 Z M 79.75 82 C 79.742188 81.988281 80.027344 81.957031 79.8125 81.75 C 79.675781 81.621094 77.898438 81.230469 78.125 80.8125 C 78.125 80.8125 80.125 80.8125 80.125 80.8125 C 80.125 80.8125 79 80.3125 79 80.3125 C 79.257812 80.136719 79.695312 80.148438 79.3125 79.875 C 78.421875 79.175781 77.796875 79.859375 77.5625 79.875 C 77.453125 79.882812 77.21875 79.582031 76.8125 79.625 C 76.679688 79.640625 76.609375 79.992188 76.5625 80 C 76.460938 80.011719 76.28125 79.671875 75.6875 79.75 C 75.40625 79.789062 74.980469 80.242188 74.9375 80.25 C 74.703125 80.289062 74.4375 80.054688 74.0625 80.125 C 73.988281 80.140625 73.757812 80.488281 73.6875 80.5 C 73.648438 80.507812 73.488281 80.207031 73.0625 80.25 C 73 80.257812 72.75 80.617188 72.6875 80.625 C 72.601562 80.632812 72.648438 80.367188 72.5625 80.375 C 72.09375 80.425781 71.851562 80.621094 71.8125 80.625 C 71.59375 80.648438 71.015625 80.332031 70.5625 80.375 C 70.429688 80.386719 70.359375 80.746094 70.3125 80.75 C 70.039062 80.773438 70.15625 80.492188 70.0625 80.5 C 69.847656 80.519531 69.554688 80.867188 69.4375 80.875 C 69.402344 80.878906 69.226562 80.585938 68.8125 80.625 C 68.75 80.628906 68.496094 80.996094 68.4375 81 C 68.410156 81 68.316406 80.734375 67.9375 80.75 C 67.898438 80.75 67.347656 81.125 67.3125 81.125 C 67.28125 81.125 66.914062 80.746094 66.8125 80.75 C 66.277344 80.765625 65.863281 81 65.8125 81 C 65.363281 81.007812 64.054688 80.75 63.5625 80.75 C 63.511719 80.75 63.242188 81.125 63.1875 81.125 C 63.160156 81.125 62.714844 80.875 62.6875 80.875 C 61.890625 80.875 61.710938 80.769531 61.1875 80.75 C 60.664062 80.730469 60.535156 81.140625 59.9375 80.75 C 59.9375 80.75 60.5625 81.5 60.5625 81.5 C 60.5625 81.5 59.25 81.1875 59.25 81.1875 C 59.25 81.1875 60.5 81.9375 60.5 81.9375 C 59.667969 81.847656 59.777344 82.398438 58.8125 82 C 59.320312 81.957031 58.738281 82.855469 58.6875 82.875 C 58.527344 82.9375 56.835938 82.003906 56.6875 82 C 56.164062 81.988281 56.351562 82.347656 56.0625 82.375 C 55.980469 82.382812 54.773438 81.675781 54.5625 81.625 C 54.214844 81.542969 54.152344 81.960938 53.8125 81.875 C 53.332031 81.753906 52.472656 80.875 51.9375 81.25 C 54.132812 81.886719 52.523438 81.84375 52.5 81.9375 C 52.496094 81.957031 52.796875 82.246094 52.5625 82.375 C 52.441406 82.441406 51.660156 81.878906 51.5625 81.875 C 51.066406 81.863281 51.121094 82.253906 51.0625 82.25 C 50.652344 82.210938 48.929688 81.179688 48.3125 81 C 47.882812 80.875 47.746094 81.347656 47.4375 81.25 C 45.984375 80.789062 43.671875 79.28125 42.3125 79 C 42.136719 78.964844 40.265625 79.539062 41.4375 78.625 C 40.460938 77.921875 39.855469 78.257812 38.9375 78 C 39.785156 77.863281 38.40625 77.0625 38.1875 77 C 37.855469 76.90625 37.753906 77.316406 37.5625 77.25 C 37.183594 77.117188 32.792969 73.972656 32.875 73.6875 C 32.929688 73.503906 33.734375 73.738281 32.4375 72.75 C 32.4375 72.75 32.4375 73.375 32.4375 73.375 C 32.4375 73.375 31.1875 72.25 31.1875 72.25 C 31.1875 72.25 32 73.1875 32 73.1875 C 31.230469 73.972656 31.300781 73.3125 30.9375 73.25 C 30.910156 73.246094 30.589844 73.539062 30.4375 73.5 C 30.40625 73.492188 30.253906 73.074219 30.0625 73 C 29.898438 72.9375 29.714844 73.265625 29.6875 73.25 C 29.460938 73.125 29.144531 72.089844 28.75 72.1875 C 29.429688 72.730469 29.441406 74.523438 30.375 74.0625 C 30.25 74.398438 30.617188 75.292969 29.9375 75.125 C 29.550781 75.027344 29.777344 74.355469 29.75 74.3125 C 29.242188 73.507812 28.730469 73.648438 28.625 73.5625 C 28.578125 73.523438 28.335938 72.890625 28 72.5 C 27.984375 72.480469 27.757812 72.660156 27.5 72.3125 C 27.472656 72.273438 27.121094 71.484375 27.125 71.4375 C 27.136719 71.171875 27.578125 71.847656 27.625 71.4375 C 27.746094 70.386719 26.992188 70.664062 26.9375 70.625 C 26.832031 70.550781 26.933594 70.230469 26.6875 70.125 C 25.808594 69.753906 25.644531 70.847656 25.5 68.8125 C 25.246094 73.042969 26.179688 77.160156 28.75 80.5625 C 30.300781 82.617188 35.988281 87.46875 38.4375 87.875 C 39.011719 87.96875 39.03125 87.546875 39.3125 87.625 C 40.359375 87.914062 41.660156 88.664062 42.6875 88.875 C 43.132812 88.964844 43.109375 88.519531 43.6875 88.625 C 43.96875 88.675781 45.65625 89.367188 45.9375 89.375 C 46.542969 89.394531 46.910156 88.847656 47.5625 88.875 C 49.535156 88.953125 51.066406 91.085938 52.8125 90.625 C 53.191406 90.523438 53.625 89.910156 53.8125 89.875 C 53.914062 89.855469 54.507812 90.125 54.5625 90.125 C 56.035156 90.160156 57.367188 90.339844 58.9375 90.375 C 58.996094 90.375 60.003906 89.996094 60.0625 90 C 60.628906 90.054688 61.578125 90.980469 62.3125 90.875 C 62.3125 90.875 60.625 90.0625 60.625 90.0625 C 60.792969 90.007812 61.75 89.742188 61.8125 89.75 C 62.011719 89.78125 62.789062 90.367188 63.0625 90.375 C 63.382812 90.386719 63.382812 89.996094 63.4375 90 C 63.664062 90.019531 64.136719 90.359375 64.3125 90.375 C 64.582031 90.398438 64.40625 90.03125 64.8125 90.125 C 65.183594 90.207031 66.144531 90.859375 66.3125 90.875 C 66.402344 90.882812 67.15625 90.65625 67.1875 90.625 C 67.289062 90.515625 66.753906 90.363281 67.0625 90.25 C 67.34375 90.144531 68.320312 90.832031 68.5625 90.875 C 68.734375 90.90625 68.835938 90.59375 69.3125 90.625 C 69.390625 90.628906 69.960938 91.070312 70.0625 91 C 70.195312 90.910156 70.027344 90.484375 70.3125 90.375 C 70.433594 90.328125 71.226562 90.851562 71.4375 90.875 C 71.800781 90.914062 71.890625 90.625 71.9375 90.625 C 72.152344 90.628906 72.363281 90.882812 72.5625 90.875 C 72.621094 90.875 72.875 90.507812 72.9375 90.5 C 73.097656 90.484375 73.527344 90.878906 73.5625 90.875 C 73.636719 90.867188 74.273438 89.980469 74.6875 89.875 C 74.839844 89.835938 75.160156 90.128906 75.1875 90.125 C 76.160156 89.949219 77.03125 89.671875 78.0625 90 C 78.378906 89.898438 78.996094 89.019531 79.0625 89 C 79.296875 88.925781 79.242188 89.265625 79.3125 89.25 C 79.609375 89.179688 79.726562 88.894531 79.8125 88.875 C 79.847656 88.867188 79.984375 89.191406 80.3125 89.125 C 80.460938 89.09375 81.484375 88.589844 81.8125 88.5 C 81.84375 88.492188 82.007812 88.832031 82.3125 88.75 C 82.511719 88.695312 82.839844 88.167969 82.9375 88.125 C 83.082031 88.058594 83.171875 88.320312 83.3125 88.25 C 83.824219 87.996094 84.808594 87.042969 85.4375 86.625 C 85.523438 86.566406 86.835938 86.078125 87.1875 85.75 C 87.71875 85.253906 88.273438 84.445312 87.8125 84 C 87.347656 84.980469 86.464844 83.128906 85.6875 83.125 C 85.609375 83.125 85.417969 83.53125 85.1875 83.5 C 85.023438 83.476562 83.996094 82.789062 83.875 83.0625 C 83.839844 83.140625 84.636719 83.207031 84.1875 83.5 C 84.1875 83.5 83.5 83.3125 83.5 83.3125 C 83.5 83.3125 83.6875 83.75 83.6875 83.75 C 83.25 83.28125 82.621094 83.769531 82.5625 83.75 C 82.210938 83.628906 82.632812 82.976562 81.9375 83.125 C 81.777344 83.160156 82.097656 83.859375 82.0625 83.875 C 81.96875 83.914062 81.03125 83.890625 80.6875 84.125 Z M 79.75 82 "/>
<path style=" stroke:none;fill-rule:nonzero;fill:rgb(63.137257%,64.705884%,63.529414%);fill-opacity:1;" d="M 82.9375 49.25 C 82.9375 49.25 83.0625 49.375 83.0625 49.375 C 83.0625 49.375 83.0625 49.5 83.0625 49.5 C 83.0625 49.5 82.9375 49.5 82.9375 49.5 Z M 82.9375 49.25 "/>
<path style=" stroke:none;fill-rule:nonzero;fill:rgb(63.529414%,65.882355%,61.176473%);fill-opacity:1;" d="M 86.125 60.875 C 86.125 60.875 86 58.6875 86 58.6875 C 86.308594 58.707031 85.933594 57.554688 85.75 57.3125 C 86.238281 57 85.90625 56.597656 85.875 56.25 C 86.898438 57.367188 86.351562 59.578125 86.5 61.0625 C 86.273438 61.28125 86.199219 60.941406 86.125 60.875 Z M 86.125 60.875 "/>
<path style=" stroke:none;fill-rule:nonzero;fill:rgb(88.235295%,88.235295%,92.156863%);fill-opacity:1;" d="M 28 72.5 C 28.410156 73.113281 28.695312 74.429688 29.125 74.9375 C 29.625 75.527344 30.765625 74.996094 30.9375 76.125 C 30.9375 76.125 30.75 75.1875 30.75 75.1875 C 31.289062 75.730469 31.515625 75.234375 31.5625 75.25 C 31.675781 75.289062 32.722656 76.359375 32.75 76.4375 C 32.757812 76.464844 32.355469 76.902344 32.5625 77 C 32.800781 77.113281 33.152344 76.625 33.1875 76.625 C 33.308594 76.621094 34.921875 78.09375 35.0625 78.125 C 35.496094 78.214844 35.429688 77.730469 36.4375 78.25 C 37.683594 78.890625 36.925781 78.9375 37 79.1875 C 37.175781 79.769531 37.882812 79.238281 37.9375 79.25 C 38.292969 79.320312 38.539062 79.550781 39.0625 79.625 C 39.128906 79.632812 39.472656 79.128906 40.25 79.8125 C 40.347656 79.898438 39.988281 80.09375 40.1875 80.25 C 40.726562 80.667969 43.34375 81.792969 44.0625 82 C 44.390625 82.09375 44.46875 81.667969 44.8125 81.75 C 45.253906 81.855469 46.140625 82.511719 46.6875 82.625 C 46.6875 82.625 43.9375 81.25 43.9375 81.25 C 43.539062 80.554688 45.472656 81.605469 45.5625 81.625 C 46.019531 81.71875 46.121094 81.332031 46.3125 81.375 C 46.808594 81.488281 47.683594 82.125 48.1875 82.25 C 48.484375 82.324219 48.78125 81.917969 49.0625 82 C 50.011719 82.273438 51.378906 83.445312 52.3125 83.375 C 52.3125 83.375 51.625 83.0625 51.625 83.0625 C 52.164062 82.546875 52.660156 83.308594 53.0625 83.375 C 53.371094 83.425781 53.65625 83.082031 53.8125 83.125 C 54.449219 83.296875 55.273438 84.117188 56.0625 84.125 C 56.0625 84.125 53.25 82.6875 53.25 82.6875 C 53.894531 82.226562 54.683594 83.214844 55.4375 83.25 C 55.472656 82.996094 53.410156 82.488281 54.0625 82.125 C 54.167969 82.066406 54.726562 82.523438 55.0625 82.5 C 55.199219 82.492188 54.976562 82.183594 55.3125 82.125 C 55.421875 82.105469 56.949219 82.921875 57.3125 83 C 57.664062 83.074219 57.71875 82.710938 57.9375 82.75 C 58.210938 82.800781 58.777344 83.222656 58.9375 83.25 C 59.414062 83.335938 59.453125 82.945312 59.8125 83 C 60.019531 83.03125 60.464844 83.425781 60.9375 83.5 C 60.964844 83.503906 61.273438 83.222656 61.4375 83.25 C 61.660156 83.289062 62.375 83.984375 62.5625 83.625 C 62.5625 83.625 61.625 83.1875 61.625 83.1875 C 62.042969 83.226562 62.746094 82.757812 62.8125 82.75 C 62.890625 82.742188 64.070312 83.496094 64.1875 83.5 C 64.839844 83.515625 64.253906 82.890625 65.5 83.4375 C 65.515625 83.445312 65.230469 83.632812 65.4375 83.75 C 65.488281 83.777344 66.3125 83.632812 66.5625 83.875 C 66.5625 83.875 65.375 82.9375 65.375 82.9375 C 66.210938 82.855469 66.84375 83.792969 67.0625 82.625 C 67.9375 83.371094 68.078125 82.609375 68.3125 82.625 C 68.40625 82.632812 69.808594 83.574219 69.875 83.1875 C 68.117188 82.011719 70.449219 83.125 70.5625 83.125 C 71.074219 83.132812 70.988281 82.757812 71.0625 82.75 C 71.253906 82.730469 71.484375 83.03125 71.8125 83 C 71.945312 82.988281 72.015625 82.628906 72.0625 82.625 C 72.394531 82.597656 72.871094 82.996094 73.0625 83 C 73.53125 83.007812 73.875 82.601562 74.5625 83 C 74.65625 82.828125 72.984375 82.429688 73.5625 82.125 C 74.332031 82.707031 74.5 82.007812 74.5625 82 C 74.652344 81.984375 75.628906 81.867188 75.6875 81.875 C 76.308594 81.941406 77.675781 82.988281 78.4375 83 C 78.4375 83 77.125 82.3125 77.125 82.3125 C 78.765625 82.074219 77.457031 82.132812 77.5 81.9375 C 77.511719 81.882812 78.464844 81.78125 77.375 81.3125 C 78.179688 80.828125 78.960938 81.832031 79.75 82 C 79.75 82 80.6875 84.125 80.6875 84.125 C 81.03125 83.890625 81.96875 83.914062 82.0625 83.875 C 82.097656 83.859375 81.777344 83.160156 81.9375 83.125 C 82.632812 82.976562 82.210938 83.628906 82.5625 83.75 C 82.621094 83.769531 83.25 83.28125 83.6875 83.75 C 83.6875 83.75 83.5 83.3125 83.5 83.3125 C 83.5 83.3125 84.1875 83.5 84.1875 83.5 C 84.636719 83.207031 83.839844 83.140625 83.875 83.0625 C 83.996094 82.789062 85.023438 83.476562 85.1875 83.5 C 85.417969 83.53125 85.609375 83.125 85.6875 83.125 C 86.464844 83.128906 87.347656 84.980469 87.8125 84 C 88.273438 84.445312 87.71875 85.253906 87.1875 85.75 C 86.835938 86.078125 85.523438 86.566406 85.4375 86.625 C 84.808594 87.042969 83.824219 87.996094 83.3125 88.25 C 83.171875 88.320312 83.082031 88.058594 82.9375 88.125 C 82.839844 88.167969 82.511719 88.695312 82.3125 88.75 C 82.007812 88.832031 81.84375 88.492188 81.8125 88.5 C 81.484375 88.589844 80.460938 89.09375 80.3125 89.125 C 79.984375 89.191406 79.847656 88.867188 79.8125 88.875 C 79.726562 88.894531 79.609375 89.179688 79.3125 89.25 C 79.242188 89.265625 79.296875 88.925781 79.0625 89 C 78.996094 89.019531 78.378906 89.898438 78.0625 90 C 77.03125 89.671875 76.160156 89.949219 75.1875 90.125 C 75.160156 90.128906 74.839844 89.835938 74.6875 89.875 C 74.273438 89.980469 73.636719 90.867188 73.5625 90.875 C 73.527344 90.878906 73.097656 90.484375 72.9375 90.5 C 72.875 90.507812 72.621094 90.875 72.5625 90.875 C 72.363281 90.882812 72.152344 90.628906 71.9375 90.625 C 71.890625 90.625 71.800781 90.914062 71.4375 90.875 C 71.226562 90.851562 70.433594 90.328125 70.3125 90.375 C 70.027344 90.484375 70.195312 90.910156 70.0625 91 C 69.960938 91.070312 69.390625 90.628906 69.3125 90.625 C 68.835938 90.59375 68.734375 90.90625 68.5625 90.875 C 68.320312 90.832031 67.34375 90.144531 67.0625 90.25 C 66.753906 90.363281 67.289062 90.515625 67.1875 90.625 C 67.15625 90.65625 66.402344 90.882812 66.3125 90.875 C 66.144531 90.859375 65.183594 90.207031 64.8125 90.125 C 64.40625 90.03125 64.582031 90.398438 64.3125 90.375 C 64.136719 90.359375 63.664062 90.019531 63.4375 90 C 63.382812 89.996094 63.382812 90.386719 63.0625 90.375 C 62.789062 90.367188 62.011719 89.78125 61.8125 89.75 C 61.75 89.742188 60.792969 90.007812 60.625 90.0625 C 60.625 90.0625 62.3125 90.875 62.3125 90.875 C 61.578125 90.980469 60.628906 90.054688 60.0625 90 C 60.003906 89.996094 58.996094 90.375 58.9375 90.375 C 57.367188 90.339844 56.035156 90.160156 54.5625 90.125 C 54.507812 90.125 53.914062 89.855469 53.8125 89.875 C 53.625 89.910156 53.191406 90.523438 52.8125 90.625 C 51.066406 91.085938 49.535156 88.953125 47.5625 88.875 C 46.910156 88.847656 46.542969 89.394531 45.9375 89.375 C 45.65625 89.367188 43.96875 88.675781 43.6875 88.625 C 43.109375 88.519531 43.132812 88.964844 42.6875 88.875 C 41.660156 88.664062 40.359375 87.914062 39.3125 87.625 C 39.03125 87.546875 39.011719 87.96875 38.4375 87.875 C 35.988281 87.46875 30.300781 82.617188 28.75 80.5625 C 26.179688 77.160156 25.246094 73.042969 25.5 68.8125 C 25.644531 70.847656 25.808594 69.753906 26.6875 70.125 C 26.933594 70.230469 26.832031 70.550781 26.9375 70.625 C 26.992188 70.664062 27.746094 70.386719 27.625 71.4375 C 27.578125 71.847656 27.136719 71.171875 27.125 71.4375 C 27.121094 71.484375 27.472656 72.273438 27.5 72.3125 C 27.757812 72.660156 27.984375 72.480469 28 72.5 Z M 78.9375 84.625 C 78.902344 84.640625 78.601562 85.242188 78.625 85.3125 C 78.625 85.3125 79.1875 85.75 79.1875 85.75 C 78.929688 85.777344 78.003906 85.234375 77.9375 85.25 C 77.679688 85.316406 77.878906 85.699219 77.5625 85.75 C 77.511719 85.757812 76.734375 85.238281 76.6875 85.25 C 76.460938 85.3125 76.535156 85.707031 76.4375 85.75 C 76.355469 85.789062 75.636719 85.367188 75.5625 85.375 C 75.210938 85.410156 75.253906 85.75 75.1875 85.75 C 74.8125 85.757812 74.726562 85.5 74.6875 85.5 C 74.210938 85.507812 74.304688 85.722656 73.8125 85.75 C 73.765625 85.753906 73.542969 85.402344 72.9375 85.5 C 72.894531 85.507812 72.269531 85.992188 72.1875 86 C 71.902344 86.027344 71.605469 85.960938 71.1875 86 C 70.808594 86.035156 70.558594 85.847656 70.3125 85.875 C 70.195312 85.886719 70.304688 86.238281 70.1875 86.25 C 69 86.351562 67.308594 86.125 66.0625 86.125 C 65.921875 86.125 66 86.492188 65.5625 86.5 C 65.4375 86.503906 62.894531 85.265625 64.8125 86.75 C 63.820312 86.289062 63.058594 86.753906 62.1875 86 C 62.1875 86 61.875 86.0625 61.875 86.0625 C 61.875 86.0625 62.375 86.4375 62.375 86.4375 C 62.011719 86.914062 60.859375 85.789062 60.4375 85.875 C 60.4375 85.875 60.3125 86.125 60.3125 86.125 C 60.3125 86.125 62.9375 87.625 62.9375 87.625 C 62.359375 87.5625 60.003906 85.953125 59.6875 86 C 59.621094 86.007812 59.203125 86.5625 59.125 86.6875 C 59.171875 86.773438 60.398438 87.585938 60.5625 87.25 C 60.5625 87.25 60.0625 87.5 60.0625 87.5 C 59.554688 87.214844 58.292969 86.363281 57.8125 86.25 C 57.425781 86.160156 57.503906 86.507812 57.4375 86.5 C 56.875 86.414062 56.53125 86.160156 56.3125 86.125 C 55.941406 86.066406 55.929688 86.433594 55.5625 86.375 C 54.925781 86.269531 54.222656 85.347656 53.5625 86 C 53.125 86.433594 53.648438 86.382812 53.625 86.4375 C 53.496094 86.726562 52.800781 86.132812 52.6875 86.125 C 52.585938 86.117188 51.179688 86.453125 50.8125 86.375 C 50.558594 86.320312 49.339844 85.417969 49.0625 85.375 C 48.875 85.347656 47.675781 85.765625 47.1875 85.75 C 47.070312 85.746094 45.945312 85.648438 45.6875 85.625 C 45.488281 85.605469 45.097656 85.25 45.0625 85.25 C 43.757812 85.183594 43.484375 85.976562 43.125 87.1875 C 43.519531 87.390625 47.808594 89.480469 47 87.9375 C 47 87.9375 46.1875 87.375 46.1875 87.375 C 46.953125 88.03125 47.9375 87.726562 48.8125 88 C 48.917969 88.035156 50.75 89.445312 50.75 88.6875 C 50.65625 88.421875 49.417969 88.398438 49.8125 88 C 50.816406 88.867188 52.25 88.484375 53.4375 88.625 C 53.761719 88.664062 54.496094 89.085938 54.9375 89.125 C 55.625 89.183594 57.09375 88.976562 57.8125 89 C 58.503906 89.023438 58.910156 88.984375 59.5625 89 C 59.605469 89 60.199219 89.371094 60.3125 89.375 C 60.378906 89.375 61.480469 89 61.5625 89 C 62.621094 89.011719 63.988281 89 64.8125 89.375 C 65.167969 88.765625 66.503906 89.25 67.0625 89.25 C 67.113281 89.25 67.386719 88.875 67.4375 88.875 C 67.480469 88.875 68.078125 89.25 68.1875 89.25 C 68.226562 89.25 68.394531 89 68.9375 89 C 68.984375 89 69.140625 89.25 69.1875 89.25 C 69.261719 89.25 69.382812 88.871094 69.8125 88.875 C 69.984375 88.878906 70.640625 89.246094 70.6875 89.25 C 70.917969 89.261719 70.917969 88.988281 71.3125 89 C 71.367188 89 71.902344 89.386719 71.9375 89.375 C 72.011719 89.351562 72.109375 88.902344 72.1875 88.875 C 72.234375 88.859375 72.894531 89.25 72.9375 89.25 C 73.277344 89.257812 73.824219 88.628906 74.4375 89.5 C 74.4375 89.5 74.4375 89 74.4375 89 C 75.085938 89.308594 75.59375 88.957031 76.3125 88.875 C 76.804688 88.816406 79.128906 88.710938 79.6875 88.5 C 79.753906 88.476562 80.835938 87.871094 80.875 87.8125 C 81.15625 87.382812 80.621094 87.109375 80.625 87.0625 C 80.632812 86.957031 81.722656 85.519531 82 85.5625 C 82.027344 85.472656 80.636719 84.664062 80.4375 84.625 C 80.398438 84.617188 80.140625 84.859375 79.6875 84.875 C 79.644531 84.875 79.25 84.503906 78.9375 84.625 Z M 78.9375 84.625 "/>
<path style=" stroke:none;fill-rule:nonzero;fill:rgb(94.117647%,94.509804%,98.039216%);fill-opacity:1;" d="M 79.75 82 C 78.960938 81.832031 78.179688 80.828125 77.375 81.3125 C 78.464844 81.78125 77.511719 81.882812 77.5 81.9375 C 77.457031 82.132812 78.765625 82.074219 77.125 82.3125 C 77.125 82.3125 78.4375 83 78.4375 83 C 77.675781 82.988281 76.308594 81.941406 75.6875 81.875 C 75.628906 81.867188 74.652344 81.984375 74.5625 82 C 74.5 82.007812 74.332031 82.707031 73.5625 82.125 C 72.984375 82.429688 74.65625 82.828125 74.5625 83 C 73.875 82.601562 73.53125 83.007812 73.0625 83 C 72.871094 82.996094 72.394531 82.597656 72.0625 82.625 C 72.015625 82.628906 71.945312 82.988281 71.8125 83 C 71.484375 83.03125 71.253906 82.730469 71.0625 82.75 C 70.988281 82.757812 71.074219 83.132812 70.5625 83.125 C 70.449219 83.125 68.117188 82.011719 69.875 83.1875 C 69.808594 83.574219 68.40625 82.632812 68.3125 82.625 C 68.078125 82.609375 67.9375 83.371094 67.0625 82.625 C 66.84375 83.792969 66.210938 82.855469 65.375 82.9375 C 65.375 82.9375 66.5625 83.875 66.5625 83.875 C 66.3125 83.632812 65.488281 83.777344 65.4375 83.75 C 65.230469 83.632812 65.515625 83.445312 65.5 83.4375 C 64.253906 82.890625 64.839844 83.515625 64.1875 83.5 C 64.070312 83.496094 62.890625 82.742188 62.8125 82.75 C 62.746094 82.757812 62.042969 83.226562 61.625 83.1875 C 61.625 83.1875 62.5625 83.625 62.5625 83.625 C 62.375 83.984375 61.660156 83.289062 61.4375 83.25 C 61.273438 83.222656 60.964844 83.503906 60.9375 83.5 C 60.464844 83.425781 60.019531 83.03125 59.8125 83 C 59.453125 82.945312 59.414062 83.335938 58.9375 83.25 C 58.777344 83.222656 58.210938 82.800781 57.9375 82.75 C 57.71875 82.710938 57.664062 83.074219 57.3125 83 C 56.949219 82.921875 55.421875 82.105469 55.3125 82.125 C 54.976562 82.183594 55.199219 82.492188 55.0625 82.5 C 54.726562 82.523438 54.167969 82.066406 54.0625 82.125 C 53.410156 82.488281 55.472656 82.996094 55.4375 83.25 C 54.683594 83.214844 53.894531 82.226562 53.25 82.6875 C 53.25 82.6875 56.0625 84.125 56.0625 84.125 C 55.273438 84.117188 54.449219 83.296875 53.8125 83.125 C 53.65625 83.082031 53.371094 83.425781 53.0625 83.375 C 52.660156 83.308594 52.164062 82.546875 51.625 83.0625 C 51.625 83.0625 52.3125 83.375 52.3125 83.375 C 51.378906 83.445312 50.011719 82.273438 49.0625 82 C 48.78125 81.917969 48.484375 82.324219 48.1875 82.25 C 47.683594 82.125 46.808594 81.488281 46.3125 81.375 C 46.121094 81.332031 46.019531 81.71875 45.5625 81.625 C 45.472656 81.605469 43.539062 80.554688 43.9375 81.25 C 43.9375 81.25 46.6875 82.625 46.6875 82.625 C 46.140625 82.511719 45.253906 81.855469 44.8125 81.75 C 44.46875 81.667969 44.390625 82.09375 44.0625 82 C 43.34375 81.792969 40.726562 80.667969 40.1875 80.25 C 39.988281 80.09375 40.347656 79.898438 40.25 79.8125 C 39.472656 79.128906 39.128906 79.632812 39.0625 79.625 C 38.539062 79.550781 38.292969 79.320312 37.9375 79.25 C 37.882812 79.238281 37.175781 79.769531 37 79.1875 C 36.925781 78.9375 37.683594 78.890625 36.4375 78.25 C 35.429688 77.730469 35.496094 78.214844 35.0625 78.125 C 34.921875 78.09375 33.308594 76.621094 33.1875 76.625 C 33.152344 76.625 32.800781 77.113281 32.5625 77 C 32.355469 76.902344 32.757812 76.464844 32.75 76.4375 C 32.722656 76.359375 31.675781 75.289062 31.5625 75.25 C 31.515625 75.234375 31.289062 75.730469 30.75 75.1875 C 30.75 75.1875 30.9375 76.125 30.9375 76.125 C 30.765625 74.996094 29.625 75.527344 29.125 74.9375 C 28.695312 74.429688 28.410156 73.113281 28 72.5 C 28.335938 72.890625 28.578125 73.523438 28.625 73.5625 C 28.730469 73.648438 29.242188 73.507812 29.75 74.3125 C 29.777344 74.355469 29.550781 75.027344 29.9375 75.125 C 30.617188 75.292969 30.25 74.398438 30.375 74.0625 C 29.441406 74.523438 29.429688 72.730469 28.75 72.1875 C 29.144531 72.089844 29.460938 73.125 29.6875 73.25 C 29.714844 73.265625 29.898438 72.9375 30.0625 73 C 30.253906 73.074219 30.40625 73.492188 30.4375 73.5 C 30.589844 73.539062 30.910156 73.246094 30.9375 73.25 C 31.300781 73.3125 31.230469 73.972656 32 73.1875 C 32 73.1875 31.1875 72.25 31.1875 72.25 C 31.1875 72.25 32.4375 73.375 32.4375 73.375 C 32.4375 73.375 32.4375 72.75 32.4375 72.75 C 33.734375 73.738281 32.929688 73.503906 32.875 73.6875 C 32.792969 73.972656 37.183594 77.117188 37.5625 77.25 C 37.753906 77.316406 37.855469 76.90625 38.1875 77 C 38.40625 77.0625 39.785156 77.863281 38.9375 78 C 39.855469 78.257812 40.460938 77.921875 41.4375 78.625 C 40.265625 79.539062 42.136719 78.964844 42.3125 79 C 43.671875 79.28125 45.984375 80.789062 47.4375 81.25 C 47.746094 81.347656 47.882812 80.875 48.3125 81 C 48.929688 81.179688 50.652344 82.210938 51.0625 82.25 C 51.121094 82.253906 51.066406 81.863281 51.5625 81.875 C 51.660156 81.878906 52.441406 82.441406 52.5625 82.375 C 52.796875 82.246094 52.496094 81.957031 52.5 81.9375 C 52.523438 81.84375 54.132812 81.886719 51.9375 81.25 C 52.472656 80.875 53.332031 81.753906 53.8125 81.875 C 54.152344 81.960938 54.214844 81.542969 54.5625 81.625 C 54.773438 81.675781 55.980469 82.382812 56.0625 82.375 C 56.351562 82.347656 56.164062 81.988281 56.6875 82 C 56.835938 82.003906 58.527344 82.9375 58.6875 82.875 C 58.738281 82.855469 59.320312 81.957031 58.8125 82 C 59.777344 82.398438 59.667969 81.847656 60.5 81.9375 C 60.5 81.9375 59.25 81.1875 59.25 81.1875 C 59.25 81.1875 60.5625 81.5 60.5625 81.5 C 60.5625 81.5 59.9375 80.75 59.9375 80.75 C 60.535156 81.140625 60.664062 80.730469 61.1875 80.75 C 61.710938 80.769531 61.890625 80.875 62.6875 80.875 C 62.714844 80.875 63.160156 81.125 63.1875 81.125 C 63.242188 81.125 63.511719 80.75 63.5625 80.75 C 64.054688 80.75 65.363281 81.007812 65.8125 81 C 65.863281 81 66.277344 80.765625 66.8125 80.75 C 66.914062 80.746094 67.28125 81.125 67.3125 81.125 C 67.347656 81.125 67.898438 80.75 67.9375 80.75 C 68.316406 80.734375 68.410156 81 68.4375 81 C 68.496094 80.996094 68.75 80.628906 68.8125 80.625 C 69.226562 80.585938 69.402344 80.878906 69.4375 80.875 C 69.554688 80.867188 69.847656 80.519531 70.0625 80.5 C 70.15625 80.492188 70.039062 80.773438 70.3125 80.75 C 70.359375 80.746094 70.429688 80.386719 70.5625 80.375 C 71.015625 80.332031 71.59375 80.648438 71.8125 80.625 C 71.851562 80.621094 72.09375 80.425781 72.5625 80.375 C 72.648438 80.367188 72.601562 80.632812 72.6875 80.625 C 72.75 80.617188 73 80.257812 73.0625 80.25 C 73.488281 80.207031 73.648438 80.507812 73.6875 80.5 C 73.757812 80.488281 73.988281 80.140625 74.0625 80.125 C 74.4375 80.054688 74.703125 80.289062 74.9375 80.25 C 74.980469 80.242188 75.40625 79.789062 75.6875 79.75 C 76.28125 79.671875 76.460938 80.011719 76.5625 80 C 76.609375 79.992188 76.679688 79.640625 76.8125 79.625 C 77.21875 79.582031 77.453125 79.882812 77.5625 79.875 C 77.796875 79.859375 78.421875 79.175781 79.3125 79.875 C 79.695312 80.148438 79.257812 80.136719 79 80.3125 C 79 80.3125 80.125 80.8125 80.125 80.8125 C 80.125 80.8125 78.125 80.8125 78.125 80.8125 C 77.898438 81.230469 79.675781 81.621094 79.8125 81.75 C 80.027344 81.957031 79.742188 81.988281 79.75 82 Z M 79.75 82 "/>
<path style=" stroke:none;fill-rule:nonzero;fill:rgb(78.039217%,78.431374%,85.490197%);fill-opacity:1;" d="M 78.9375 84.625 C 79.25 84.503906 79.644531 84.875 79.6875 84.875 C 80.140625 84.859375 80.398438 84.617188 80.4375 84.625 C 80.636719 84.664062 82.027344 85.472656 82 85.5625 C 81.722656 85.519531 80.632812 86.957031 80.625 87.0625 C 80.621094 87.109375 81.15625 87.382812 80.875 87.8125 C 80.835938 87.871094 79.753906 88.476562 79.6875 88.5 C 79.128906 88.710938 76.804688 88.816406 76.3125 88.875 C 75.59375 88.957031 75.085938 89.308594 74.4375 89 C 74.4375 89 74.4375 89.5 74.4375 89.5 C 73.824219 88.628906 73.277344 89.257812 72.9375 89.25 C 72.894531 89.25 72.234375 88.859375 72.1875 88.875 C 72.109375 88.902344 72.011719 89.351562 71.9375 89.375 C 71.902344 89.386719 71.367188 89 71.3125 89 C 70.917969 88.988281 70.917969 89.261719 70.6875 89.25 C 70.640625 89.246094 69.984375 88.878906 69.8125 88.875 C 69.382812 88.871094 69.261719 89.25 69.1875 89.25 C 69.140625 89.25 68.984375 89 68.9375 89 C 68.394531 89 68.226562 89.25 68.1875 89.25 C 68.078125 89.25 67.480469 88.875 67.4375 88.875 C 67.386719 88.875 67.113281 89.25 67.0625 89.25 C 66.503906 89.25 65.167969 88.765625 64.8125 89.375 C 63.988281 89 62.621094 89.011719 61.5625 89 C 61.480469 89 60.378906 89.375 60.3125 89.375 C 60.199219 89.371094 59.605469 89 59.5625 89 C 58.910156 88.984375 58.503906 89.023438 57.8125 89 C 57.09375 88.976562 55.625 89.183594 54.9375 89.125 C 54.496094 89.085938 53.761719 88.664062 53.4375 88.625 C 52.25 88.484375 50.816406 88.867188 49.8125 88 C 49.417969 88.398438 50.65625 88.421875 50.75 88.6875 C 50.75 89.445312 48.917969 88.035156 48.8125 88 C 47.9375 87.726562 46.953125 88.03125 46.1875 87.375 C 46.1875 87.375 47 87.9375 47 87.9375 C 47.808594 89.480469 43.519531 87.390625 43.125 87.1875 C 43.484375 85.976562 43.757812 85.183594 45.0625 85.25 C 45.097656 85.25 45.488281 85.605469 45.6875 85.625 C 45.945312 85.648438 47.070312 85.746094 47.1875 85.75 C 47.675781 85.765625 48.875 85.347656 49.0625 85.375 C 49.339844 85.417969 50.558594 86.320312 50.8125 86.375 C 51.179688 86.453125 52.585938 86.117188 52.6875 86.125 C 52.800781 86.132812 53.496094 86.726562 53.625 86.4375 C 53.648438 86.382812 53.125 86.433594 53.5625 86 C 54.222656 85.347656 54.925781 86.269531 55.5625 86.375 C 55.929688 86.433594 55.941406 86.066406 56.3125 86.125 C 56.53125 86.160156 56.875 86.414062 57.4375 86.5 C 57.503906 86.507812 57.425781 86.160156 57.8125 86.25 C 58.292969 86.363281 59.554688 87.214844 60.0625 87.5 C 60.0625 87.5 60.5625 87.25 60.5625 87.25 C 60.398438 87.585938 59.171875 86.773438 59.125 86.6875 C 59.203125 86.5625 59.621094 86.007812 59.6875 86 C 60.003906 85.953125 62.359375 87.5625 62.9375 87.625 C 62.9375 87.625 60.3125 86.125 60.3125 86.125 C 60.3125 86.125 60.4375 85.875 60.4375 85.875 C 60.859375 85.789062 62.011719 86.914062 62.375 86.4375 C 62.375 86.4375 61.875 86.0625 61.875 86.0625 C 61.875 86.0625 62.1875 86 62.1875 86 C 63.058594 86.753906 63.820312 86.289062 64.8125 86.75 C 62.894531 85.265625 65.4375 86.503906 65.5625 86.5 C 66 86.492188 65.921875 86.125 66.0625 86.125 C 67.308594 86.125 69 86.351562 70.1875 86.25 C 70.304688 86.238281 70.195312 85.886719 70.3125 85.875 C 70.558594 85.847656 70.808594 86.035156 71.1875 86 C 71.605469 85.960938 71.902344 86.027344 72.1875 86 C 72.269531 85.992188 72.894531 85.507812 72.9375 85.5 C 73.542969 85.402344 73.765625 85.753906 73.8125 85.75 C 74.304688 85.722656 74.210938 85.507812 74.6875 85.5 C 74.726562 85.5 74.8125 85.757812 75.1875 85.75 C 75.253906 85.75 75.210938 85.410156 75.5625 85.375 C 75.636719 85.367188 76.355469 85.789062 76.4375 85.75 C 76.535156 85.707031 76.460938 85.3125 76.6875 85.25 C 76.734375 85.238281 77.511719 85.757812 77.5625 85.75 C 77.878906 85.699219 77.679688 85.316406 77.9375 85.25 C 78.003906 85.234375 78.929688 85.777344 79.1875 85.75 C 79.1875 85.75 78.625 85.3125 78.625 85.3125 C 78.601562 85.242188 78.902344 84.640625 78.9375 84.625 Z M 78.9375 84.625 "/>
</g>
</svg>
