<?xml version="1.0" encoding="UTF-8"?>
<svg xmlns="http://www.w3.org/2000/svg" xmlns:xlink="http://www.w3.org/1999/xlink" width="128" height="128" viewBox="0 0 128 128" version="1.1">
<g id="surface1">
<path style=" stroke:none;fill-rule:nonzero;fill:rgb(99.607843%,99.607843%,99.607843%);fill-opacity:1;" d="M 65.5 42 C 65.5 42 65.3125 42 65.3125 42 C 65.066406 41.980469 65.066406 42.144531 65.3125 42.125 C 65.3125 42.125 65.5 42 65.5 42 C 65.917969 42.03125 66.113281 41.640625 66.3125 42.25 C 67.082031 42.335938 68.023438 42.105469 68.6875 42.25 C 68.808594 42.277344 68.691406 42.597656 68.8125 42.625 C 69.0625 42.675781 69.445312 42.570312 69.6875 42.625 C 69.769531 42.644531 70.511719 43.113281 70.5625 43.125 C 70.828125 43.191406 71.867188 42.703125 71.9375 43.5 C 71.9375 43.5 72.5625 43.25 72.5625 43.25 C 74.679688 44.445312 76.945312 44.972656 78.9375 46.25 C 80.929688 46.957031 83.09375 48.457031 85.0625 49.75 C 85.140625 49.800781 85.488281 49.699219 85.5625 49.75 C 87.660156 51.144531 90.164062 53.355469 92.3125 55 C 92.65625 55.265625 92.914062 55.105469 92.9375 55.125 C 93.34375 55.4375 94.027344 55.925781 94.4375 56.25 C 94.804688 56.539062 95.40625 57.417969 95.8125 57.75 C 97.65625 59.25 99.339844 60.746094 101.0625 62.25 C 101.769531 62.867188 103.085938 62.828125 102.5 64.3125 C 97.910156 68.296875 93.082031 72.542969 88.0625 76 C 81.304688 80.65625 71.980469 85.796875 63.5625 85.5 C 52.195312 85.101562 42.589844 77.945312 33.8125 71.5 C 33.8125 71.5 25.25 64.3125 25.25 64.3125 C 25.25 64.3125 25.125 63.3125 25.125 63.3125 C 25.125 63.3125 32.3125 57 32.3125 57 C 32.3125 57 32.5625 57.125 32.5625 57.125 C 33.703125 56.003906 34.191406 55.675781 35 55.1875 C 35.203125 54.652344 35.597656 54.839844 36.0625 54.5 C 36.445312 54.21875 36.570312 53.710938 36.6875 53.625 C 36.972656 53.417969 38.472656 52.613281 38.8125 52.375 C 43.4375 49.167969 49.652344 44.90625 55.4375 43.25 C 55.464844 43.242188 55.660156 43.507812 55.6875 43.5 C 55.980469 43.417969 56.628906 42.890625 56.6875 42.875 C 57.019531 42.792969 57.832031 42.945312 58.1875 42.875 C 58.539062 42.804688 58.769531 42.382812 58.8125 42.375 C 58.894531 42.359375 58.804688 42.671875 59.0625 42.625 C 59.164062 42.605469 59.085938 42.390625 59.1875 42.375 C 59.550781 42.316406 60.464844 42.433594 60.9375 42.375 C 62.5625 42.175781 63.992188 41.890625 65.5 42 Z M 73.875 71.375 C 74.292969 70.773438 74.476562 70.855469 74.5 70.8125 C 74.632812 70.582031 74.363281 70.335938 74.375 70.3125 C 74.558594 69.96875 74.828125 69.707031 75.125 69.0625 C 75.195312 68.910156 75.308594 69.21875 75.375 69.0625 C 75.429688 68.941406 75.160156 68.785156 75.25 68.5625 C 75.609375 67.667969 76.136719 67.039062 76.25 66.3125 C 76.417969 65.246094 76.304688 60.773438 75.75 59.9375 C 75.007812 58.824219 73.777344 60.0625 72.9375 60.375 C 72.277344 60.621094 72.351562 60.238281 72.3125 60.25 C 72.058594 60.335938 71.757812 60.851562 71.3125 61 C 70.699219 61.203125 70.042969 61.308594 69.4375 61.5 C 68.929688 61.660156 67.996094 61.773438 67.4375 61.875 C 67.4375 61.875 67.5625 62.125 67.5625 62.125 C 67.160156 62.292969 66.167969 62.175781 65.8125 61.875 C 65.394531 61.519531 65.144531 60.632812 65 59.9375 C 65.785156 60.015625 65.109375 59.609375 65.125 59.5625 C 65.394531 58.753906 66.121094 57.417969 66.5 56.5625 C 66.566406 56.410156 66.683594 56.71875 66.75 56.5625 C 66.96875 56.046875 66.613281 56.09375 66.625 56.0625 C 66.796875 55.648438 66.96875 55.894531 67 55.8125 C 67.050781 55.683594 67.003906 55.273438 67.125 54.9375 C 67.285156 54.488281 68.035156 53.59375 67.75 52.875 C 67.792969 52.808594 67.941406 53.089844 68 52.9375 C 68.3125 52.109375 67.4375 51.996094 67.1875 51.375 C 65.328125 51.621094 62.835938 51.074219 61.0625 51.25 C 61.035156 51.253906 60.929688 51.554688 60.6875 51.625 C 60.65625 51.632812 60.757812 51.335938 60.1875 51.5 C 60.152344 51.507812 60.179688 51.816406 59.6875 52 C 59.378906 52.117188 59.179688 51.523438 58.9375 52.25 C 58.9375 52.25 56.9375 53 56.9375 53 C 55.589844 54.347656 53.460938 55.738281 52.5 57.8125 C 52.351562 58.132812 52.511719 58.410156 52.5 58.4375 C 52.414062 58.621094 52.15625 58.617188 52.125 58.6875 C 52.089844 58.765625 52.4375 58.585938 52.25 59.0625 C 52.132812 59.367188 51.917969 59.082031 51.875 59.1875 C 51.667969 59.679688 51.417969 60.675781 51.625 61.1875 C 50.796875 61.109375 51.523438 61.542969 51.5 61.6875 C 51.476562 61.832031 51.128906 62.386719 51.125 62.4375 C 50.988281 63.960938 51.511719 65.753906 51.375 67.3125 C 51.820312 67.46875 51.730469 68.433594 51.875 68.8125 C 51.902344 68.878906 52.179688 68.886719 52.25 69.0625 C 52.277344 69.128906 51.96875 69.121094 52 69.1875 C 52.28125 69.789062 52.675781 69.964844 53 70.4375 C 53 70.4375 52.75 70.5625 52.75 70.5625 C 53.800781 71.894531 55.144531 73.070312 56.6875 74.25 C 56.976562 74.472656 56.644531 74.550781 56.9375 74.75 C 56.988281 74.785156 57.222656 74.546875 57.5625 74.75 C 57.96875 74.992188 57.488281 75.03125 57.5 75.0625 C 57.6875 75.503906 57.867188 74.917969 58.1875 75.125 C 58.578125 75.378906 58.109375 75.421875 58.125 75.4375 C 58.570312 75.851562 58.773438 75.367188 58.8125 75.375 C 59.71875 75.554688 61.222656 76.472656 62.1875 76.625 C 64.160156 76.933594 67.550781 76.425781 69.3125 75.5 C 69.433594 75.4375 69.773438 74.773438 69.8125 74.75 C 69.828125 74.738281 70.015625 74.988281 70.1875 74.875 C 70.5625 74.628906 70.347656 74.527344 70.5625 74.375 C 70.582031 74.359375 70.742188 74.617188 71.0625 74.375 C 71.511719 74.039062 71.203125 73.851562 71.25 73.8125 C 72.167969 73.097656 73.300781 72.566406 74 71.5625 C 74.105469 71.410156 73.867188 71.382812 73.875 71.375 Z M 80.4375 56.875 C 80.6875 59.542969 81.828125 62.007812 81.625 64.8125 C 81.53125 66.097656 80.847656 68.972656 80.5 70.3125 C 80.488281 70.363281 79.820312 70.390625 80.1875 71.125 C 80.1875 71.125 85.0625 68 85.0625 68 C 85.0625 68 89.375 64.0625 89.375 64.0625 C 89.503906 63.472656 86.90625 61.476562 86.3125 61 C 84.460938 59.507812 82.390625 58.230469 80.4375 56.875 Z M 47.0625 57 C 43.902344 59.070312 40.613281 61.03125 38.125 63.9375 C 40.910156 66.644531 43.886719 69.132812 47.3125 71 C 47.515625 70.882812 46.328125 66.941406 46.25 66.4375 C 45.960938 64.566406 46.109375 62.070312 46.5 60.0625 C 46.609375 59.507812 47.363281 57.921875 47.375 57.4375 C 47.375 57.40625 47.085938 57.257812 47.375 57.0625 Z M 47.0625 57 "/>
<path style=" stroke:none;fill-rule:nonzero;fill:rgb(9.803922%,9.411765%,10.196079%);fill-opacity:1;" d="M 65.5 42 C 65.5 42 65.3125 42.125 65.3125 42.125 C 65.066406 42.144531 65.066406 41.980469 65.3125 42 Z M 65.5 42 "/>
<path style=" stroke:none;fill-rule:nonzero;fill:rgb(99.607843%,99.607843%,99.607843%);fill-opacity:1;" d="M 73.875 71.375 C 73.875 71.375 73.75 71.5625 73.75 71.5625 C 73.75 71.5625 73.625 71.5625 73.625 71.5625 C 73.625 71.5625 73.6875 71.375 73.6875 71.375 Z M 73.875 71.375 "/>
</g>
</svg>
