<?xml version="1.0" encoding="UTF-8"?>
<svg xmlns="http://www.w3.org/2000/svg" xmlns:xlink="http://www.w3.org/1999/xlink" width="128" height="128" viewBox="0 0 128 128" version="1.1">
<g id="surface1">
<path style=" stroke:none;fill-rule:nonzero;fill:rgb(98.823529%,98.823529%,98.823529%);fill-opacity:1;" d="M 99.625 57.25 C 99.625 57.25 28.1875 57.375 28.1875 57.375 C 24.519531 55.695312 26.953125 49.796875 28.625 47.3125 C 33.195312 40.519531 43.609375 36.121094 51.375 34.5 C 65.71875 31.507812 91.445312 34.019531 99.75 48.0625 C 100.957031 50.105469 103.097656 56.429688 99.625 57.25 Z M 99.625 57.25 "/>
<path style=" stroke:none;fill-rule:nonzero;fill:rgb(9.803922%,9.019608%,10.196079%);fill-opacity:1;" d="M 28.6875 57.875 C 28.816406 57.84375 29.292969 57.792969 29.25 58.0625 C 29.25 58.0625 28.4375 58.125 28.4375 58.125 C 28.304688 58.0625 28.671875 57.878906 28.6875 57.875 Z M 28.6875 57.875 "/>
<path style=" stroke:none;fill-rule:nonzero;fill:rgb(97.647059%,97.647059%,97.647059%);fill-opacity:1;" d="M 63.5 72.375 C 62.625 72.015625 61.738281 71.710938 60.8125 71.5 C 61.597656 70.6875 59.558594 70.851562 59.6875 70.375 C 58.8125 70.828125 57.96875 70.1875 57.0625 70.125 C 49.335938 69.585938 32 77.824219 26.625 71.4375 C 26.574219 71.375 26.5 70.121094 25.75 70.5 C 24.171875 67.234375 25.386719 63.425781 28.625 61.75 C 34.035156 58.953125 35.65625 63.542969 39.9375 64 C 44.855469 64.527344 51.054688 61.078125 56.9375 61.25 C 63.273438 61.4375 66.621094 65.226562 73.4375 65.125 C 80.40625 65.023438 97.082031 56.992188 101.75 64.1875 C 104.882812 69.015625 100.542969 75.078125 95.0625 74.625 C 92.695312 74.429688 91.863281 72.539062 90.1875 72 C 86.082031 70.679688 79.792969 74.019531 75.4375 74.375 C 70.859375 74.746094 67.621094 74.066406 63.5 72.375 Z M 63.5 72.375 "/>
<path style=" stroke:none;fill-rule:nonzero;fill:rgb(8.235294%,9.019608%,6.27451%);fill-opacity:1;" d="M 33.625 78.375 C 55.128906 78.320312 77.25 77.753906 98.6875 78.375 C 98.914062 78.382812 99.304688 78.25 99.25 78.625 C 98.027344 78.433594 95.96875 78.648438 94.625 78.625 C 73.839844 78.246094 51.605469 77.960938 30.875 78.625 C 31.464844 78.171875 32.847656 78.378906 33.625 78.375 Z M 33.625 78.375 "/>
<path style=" stroke:none;fill-rule:nonzero;fill:rgb(98.823529%,98.823529%,98.823529%);fill-opacity:1;" d="M 30.875 78.625 C 51.605469 77.960938 73.839844 78.246094 94.625 78.625 C 94.570312 79 94.957031 78.867188 95.1875 78.875 C 96.644531 78.925781 98.5625 78.730469 99.6875 79.25 C 100.03125 79.410156 100.675781 80.214844 100.75 80.5625 C 101.375 83.535156 100.777344 89.792969 98.0625 91.75 C 93.785156 94.835938 77.671875 93.242188 72.0625 93.25 C 71.613281 93.25 71.777344 93.5 71.6875 93.5 C 71.59375 93.5 71.65625 93.25 71.5625 93.25 C 71.113281 93.25 71.277344 93.5 71.1875 93.5 C 58.601562 93.515625 46.007812 93.570312 33.4375 93.375 C 33.355469 92.757812 32.332031 92.863281 31.8125 92.625 C 28.246094 91.003906 27.746094 89.53125 27.125 85.9375 C 27.078125 85.667969 26.761719 85.894531 26.75 85.8125 C 26.503906 84.101562 27.136719 81.859375 26.5 80.25 C 27.097656 78.226562 29.3125 78.675781 30.875 78.625 Z M 30.875 78.625 "/>
<path style=" stroke:none;fill-rule:nonzero;fill:rgb(78.823531%,76.078433%,82.352942%);fill-opacity:1;" d="M 99.25 78.625 C 100.234375 78.777344 101.132812 79.539062 101.375 80.5 C 100.773438 82.511719 101.335938 84.953125 101.125 87.0625 C 101.113281 87.1875 100.660156 89.015625 100.625 89.125 C 99.410156 91.289062 97.328125 92.933594 94.9375 93.625 C 74.367188 94.039062 53.628906 94.042969 33.0625 93.625 C 30.644531 92.949219 28.785156 91.847656 27.6875 89.5 C 27.6875 89.5 27.75 90.375 27.75 90.375 C 26.464844 88.214844 25.800781 82.628906 26.5 80.25 C 27.136719 81.859375 26.503906 84.101562 26.75 85.8125 C 26.761719 85.894531 27.078125 85.667969 27.125 85.9375 C 27.746094 89.53125 28.246094 91.003906 31.8125 92.625 C 32.332031 92.863281 33.355469 92.757812 33.4375 93.375 C 46.007812 93.570312 58.601562 93.515625 71.1875 93.5 C 71.277344 93.5 71.113281 93.25 71.5625 93.25 C 71.65625 93.25 71.59375 93.5 71.6875 93.5 C 71.777344 93.5 71.613281 93.25 72.0625 93.25 C 77.671875 93.242188 93.785156 94.835938 98.0625 91.75 C 100.777344 89.792969 101.375 83.535156 100.75 80.5625 C 100.675781 80.214844 100.03125 79.410156 99.6875 79.25 C 98.5625 78.730469 96.644531 78.925781 95.1875 78.875 C 94.957031 78.867188 94.570312 79 94.625 78.625 C 95.96875 78.648438 98.027344 78.433594 99.25 78.625 Z M 99.25 78.625 "/>
<path style=" stroke:none;fill-rule:nonzero;fill:rgb(47.843137%,47.058824%,53.333336%);fill-opacity:1;" d="M 101.25 87.75 C 101.09375 88.441406 100.933594 88.574219 100.625 89.125 C 100.660156 89.015625 101.113281 87.1875 101.125 87.0625 C 101.335938 84.953125 100.773438 82.511719 101.375 80.5 C 101.707031 81.820312 101.5625 86.375 101.25 87.75 Z M 101.25 87.75 "/>
<path style=" stroke:none;fill-rule:nonzero;fill:rgb(47.843137%,47.058824%,53.333336%);fill-opacity:1;" d="M 100.625 89.125 C 100.164062 90.605469 99.171875 91.984375 97.875 92.875 C 96.433594 93.867188 94.824219 94.199219 93.125 94.375 C 87.257812 94.976562 80.136719 94.472656 74.125 94.5 C 62.015625 94.554688 46.675781 95.554688 34.9375 94.5 C 33.03125 94.328125 30.859375 93.601562 29.375 92.375 C 28.683594 91.804688 28.207031 91.140625 27.75 90.375 C 27.75 90.375 27.6875 89.5 27.6875 89.5 C 28.785156 91.847656 30.644531 92.949219 33.0625 93.625 C 53.628906 94.042969 74.367188 94.039062 94.9375 93.625 C 97.328125 92.933594 99.410156 91.289062 100.625 89.125 Z M 100.625 89.125 "/>
<path style=" stroke:none;fill-rule:nonzero;fill:rgb(20.784314%,21.176471%,27.058825%);fill-opacity:1;" d="M 74.125 94.5 C 75.171875 94.851562 76.386719 94.457031 77.4375 94.625 C 77.921875 94.703125 77.644531 94.605469 77.625 95 C 72.253906 95.015625 66.871094 95.011719 61.5 95 C 58.335938 94.992188 55.164062 95.015625 52 95 C 46.804688 94.976562 41.269531 95.257812 36.125 95 C 33.921875 94.890625 31.929688 94.738281 30.0625 93.375 C 29.917969 93.269531 29.105469 92.660156 29.375 92.375 C 30.859375 93.601562 33.03125 94.328125 34.9375 94.5 C 46.675781 95.554688 62.015625 94.554688 74.125 94.5 Z M 74.125 94.5 "/>
<path style=" stroke:none;fill-rule:nonzero;fill:rgb(21.176471%,22.745098%,22.352941%);fill-opacity:1;" d="M 77.625 95 C 77.644531 94.605469 77.921875 94.703125 77.4375 94.625 C 76.386719 94.457031 75.171875 94.851562 74.125 94.5 C 80.136719 94.472656 87.257812 94.976562 93.125 94.375 C 93.46875 95.015625 92.035156 94.703125 91.6875 94.75 C 87.402344 95.3125 82.195312 94.988281 77.625 95 Z M 77.625 95 "/>
</g>
</svg>
