<?xml version="1.0" encoding="UTF-8"?>
<svg xmlns="http://www.w3.org/2000/svg" xmlns:xlink="http://www.w3.org/1999/xlink" width="128" height="128" viewBox="0 0 128 128" version="1.1">
<g id="surface1">
<path style=" stroke:none;fill-rule:nonzero;fill:rgb(27.450982%,26.274511%,27.843139%);fill-opacity:1;" d="M 127.625 -0.125 C 127.625 -0.125 127.875 -0.125 127.875 -0.125 C 127.875 -0.125 127.875 4.75 127.875 4.75 C 127.875 4.75 127.875 105.625 127.875 105.625 C 127.875 106 127.875 106.375 127.875 106.75 C 127.84375 113.425781 127.742188 120.136719 127.625 126.8125 Z M 127.625 -0.125 "/>
<path style=" stroke:none;fill-rule:nonzero;fill:rgb(93.333334%,94.901961%,96.862745%);fill-opacity:1;" d="M 54.625 33.75 C 64.476562 33.695312 74.335938 33.792969 84.1875 33.75 C 84.542969 33.828125 85.289062 34.472656 85.375 34.8125 C 85.644531 35.898438 85.375 39.949219 85.375 41.375 C 85.375 41.855469 85.082031 44.339844 85.4375 44.5 C 95.28125 44.386719 102.109375 55.449219 96.375 63.9375 C 93.621094 68.011719 88.707031 70.222656 83.8125 69.875 C 81.292969 75.53125 75.632812 80.464844 69.4375 81.5 C 56.398438 83.683594 43.265625 77.949219 42.125 63.5625 C 41.390625 54.289062 42.574219 43.9375 42.25 34.5625 C 42.550781 34.226562 42.984375 33.835938 43.4375 33.75 C 45.875 33.28125 51.78125 33.765625 54.625 33.75 Z M 85.4375 52.75 C 85.4375 52.75 85.25 61.4375 85.25 61.4375 C 91.707031 62.375 91.859375 52.359375 85.4375 52.75 Z M 85.4375 52.75 "/>
<path style=" stroke:none;fill-rule:nonzero;fill:rgb(98.823529%,99.215686%,99.607843%);fill-opacity:1;" d="M 99.375 83.5 C 97.421875 85.140625 95.121094 86.355469 93 87.75 C 80.707031 94.035156 66.570312 93.324219 52.9375 92.75 C 44.25 92.382812 36.992188 90.066406 29.9375 85 C 28.453125 83.933594 24.074219 81.34375 26.4375 79.5 C 26.4375 79.5 43.8125 79.375 43.8125 79.375 C 53.820312 89.382812 73.566406 89.128906 83.6875 79.375 C 83.6875 79.375 100.8125 79.5 100.8125 79.5 C 102.640625 81.125 100.632812 82.445312 99.375 83.5 Z M 37.875 87.625 C 44.894531 90.804688 51.878906 91.050781 59.5 90.5 C 65.558594 90.0625 59.300781 89.796875 57.4375 89.625 C 58.777344 89.394531 59.660156 90.183594 58.6875 88.25 C 56.734375 87.972656 54.414062 87.65625 52.5625 87 C 50.199219 86.164062 47.632812 84.09375 45.3125 83 C 45.082031 83.675781 43.988281 83.933594 43.625 84.3125 C 43.511719 84.433594 43.800781 84.691406 43.6875 84.75 C 43.601562 84.792969 42.195312 84.070312 41.9375 84 C 41.632812 83.917969 41.359375 84.210938 41.0625 84.125 C 40.292969 83.894531 39.628906 82.960938 38.8125 82.875 C 38.757812 82.867188 37.730469 82.964844 37.6875 83 C 37.582031 83.089844 36.550781 85.070312 36.3125 85.375 C 35.914062 85.300781 33.714844 83.976562 33.5625 84 C 33.519531 84.007812 32.996094 84.644531 33 84.6875 C 33.019531 85.097656 37.207031 87.324219 37.875 87.625 Z M 37.875 87.625 "/>
<path style=" stroke:none;fill-rule:nonzero;fill:rgb(87.058824%,90.196079%,94.509804%);fill-opacity:1;" d="M 59.5 90.5 C 58.855469 90.113281 57.078125 90.59375 56.5625 90.375 C 56.496094 90.347656 56.324219 89.726562 56.0625 89.625 C 55.867188 89.546875 55 89.699219 54.4375 89.5 C 53.765625 89.261719 52.675781 88.898438 52.0625 88.625 C 51.699219 88.464844 51.402344 87.785156 50.6875 87.75 C 50.6875 87.75 50.5 88.4375 50.5 88.4375 C 50.5 88.4375 51.3125 88.875 51.3125 88.875 C 50.46875 88.949219 47.46875 87.296875 47.1875 87.375 C 46.859375 87.46875 46.023438 88.601562 45.9375 88.625 C 45.8125 88.65625 43.714844 87.601562 43.5625 87.625 C 43.152344 87.695312 43.476562 88.46875 41.9375 87.75 C 41.140625 87.378906 40.964844 87.144531 39.8125 86.75 C 39.644531 86.691406 39.042969 86.070312 38.8125 86.125 C 38.726562 86.144531 37.726562 87.324219 37.875 87.625 C 37.207031 87.324219 33.019531 85.097656 33 84.6875 C 32.996094 84.644531 33.519531 84.007812 33.5625 84 C 33.714844 83.976562 35.914062 85.300781 36.3125 85.375 C 36.550781 85.070312 37.582031 83.089844 37.6875 83 C 37.730469 82.964844 38.757812 82.867188 38.8125 82.875 C 39.628906 82.960938 40.292969 83.894531 41.0625 84.125 C 41.359375 84.210938 41.632812 83.917969 41.9375 84 C 42.195312 84.070312 43.601562 84.792969 43.6875 84.75 C 43.800781 84.691406 43.511719 84.433594 43.625 84.3125 C 43.988281 83.933594 45.082031 83.675781 45.3125 83 C 47.632812 84.09375 50.199219 86.164062 52.5625 87 C 54.414062 87.65625 56.734375 87.972656 58.6875 88.25 C 59.660156 90.183594 58.777344 89.394531 57.4375 89.625 C 59.300781 89.796875 65.558594 90.0625 59.5 90.5 Z M 59.5 90.5 "/>
<path style=" stroke:none;fill-rule:nonzero;fill:rgb(78.431374%,83.137256%,90.196079%);fill-opacity:1;" d="M 59.5 90.5 C 51.878906 91.050781 44.894531 90.804688 37.875 87.625 C 37.726562 87.324219 38.726562 86.144531 38.8125 86.125 C 39.042969 86.070312 39.644531 86.691406 39.8125 86.75 C 40.964844 87.144531 41.140625 87.378906 41.9375 87.75 C 43.476562 88.46875 43.152344 87.695312 43.5625 87.625 C 43.714844 87.601562 45.8125 88.65625 45.9375 88.625 C 46.023438 88.601562 46.859375 87.46875 47.1875 87.375 C 47.46875 87.296875 50.46875 88.949219 51.3125 88.875 C 51.3125 88.875 50.5 88.4375 50.5 88.4375 C 50.5 88.4375 50.6875 87.75 50.6875 87.75 C 51.402344 87.785156 51.699219 88.464844 52.0625 88.625 C 52.675781 88.898438 53.765625 89.261719 54.4375 89.5 C 55 89.699219 55.867188 89.546875 56.0625 89.625 C 56.324219 89.726562 56.496094 90.347656 56.5625 90.375 C 57.078125 90.59375 58.855469 90.113281 59.5 90.5 Z M 59.5 90.5 "/>
<path style=" stroke:none;fill-rule:nonzero;fill:rgb(38.431373%,33.333334%,34.901962%);fill-opacity:1;" d="M 127.625 127.875 C 127.625 127.875 -0.125 127.875 -0.125 127.875 C -0.125 127.875 -0.125 127.75 -0.125 127.75 Z M 127.625 127.875 "/>
</g>
</svg>
