<?xml version="1.0" encoding="UTF-8"?>
<svg xmlns="http://www.w3.org/2000/svg" xmlns:xlink="http://www.w3.org/1999/xlink" width="128" height="128" viewBox="0 0 128 128" version="1.1">
<defs>
<linearGradient id="linear0" gradientUnits="userSpaceOnUse" x1="717.593018" y1="297.453003" x2="309.553009" y2="695.453003" gradientTransform="matrix(0.125,0,0,0.125,0,0)">
<stop offset="0" style="stop-color:rgb(80.392158%,81.176472%,87.058824%);stop-opacity:1;"/>
<stop offset="0.268421" style="stop-color:rgb(97.254902%,97.647059%,98.431373%);stop-opacity:1;"/>
<stop offset="0.621053" style="stop-color:rgb(99.607843%,99.607843%,99.607843%);stop-opacity:1;"/>
<stop offset="1" style="stop-color:rgb(77.64706%,78.039217%,85.09804%);stop-opacity:1;"/>
</linearGradient>
</defs>
<g id="surface1">
<path style=" stroke:none;fill-rule:nonzero;fill:url(#linear0);" d="M 71.375 42.5 C 72.085938 42.171875 72.257812 42.332031 72.9375 41.75 C 74.925781 40.050781 82.347656 31.394531 84.0625 31.125 C 84.78125 31.011719 85.550781 31.167969 86.1875 31.5 C 86.664062 31.75 93.484375 38.695312 93.75 39.1875 C 94.222656 40.066406 94.015625 40.761719 94.375 41.625 C 93.371094 44.046875 88.332031 47.863281 86.375 49.9375 C 85.929688 50.40625 82.863281 53.8125 82.75 54.0625 C 82.710938 54.152344 82.753906 54.511719 82.625 54.6875 C 82.625 54.6875 83.25 54.75 83.25 54.75 C 81.433594 56.65625 77.851562 59.757812 76.5 61.6875 C 76.316406 61.953125 75.816406 62.644531 75.875 62.9375 C 76.019531 63.648438 84.761719 72.074219 86 73.375 C 87.335938 74.777344 94.445312 81.886719 94.75 82.9375 C 95.414062 85.238281 93.679688 86.671875 92.25 88.125 C 93.117188 86.941406 92.378906 87.445312 92.375 87.3125 C 92.371094 87.234375 93.082031 86.828125 92.6875 86.75 C 91.269531 87.878906 86.695312 93.59375 85.3125 93.875 C 85.089844 93.921875 84.046875 93.914062 83.8125 93.875 C 82.804688 93.695312 76.714844 87.121094 75.5 85.875 C 74.566406 84.917969 68.574219 78.289062 68.0625 78.125 C 67.988281 78.101562 67.785156 78.101562 67.75 78.1875 C 68.605469 79.140625 69.574219 80.0625 70.375 81.0625 C 70.503906 81.222656 70.757812 81.984375 70.875 82.125 C 70.875 82.125 63.9375 74.75 63.9375 74.75 C 63.9375 74.75 48.25 91.125 48.25 91.125 C 48.265625 91.097656 48.523438 90.613281 48.375 90.625 C 49.746094 89.289062 53.695312 85.378906 54.5 83.9375 C 54.5625 83.828125 54.9375 83.214844 54.6875 83.125 C 52.691406 84.332031 45.722656 93.164062 44.1875 93.375 C 43.640625 93.449219 43.054688 93.195312 42.5625 93 C 42.5625 93 34.4375 84.5 34.4375 84.5 C 34.269531 85.625 33.621094 83.363281 34 82.8125 C 37.144531 78.933594 40.855469 75.449219 44.25 71.75 C 44.523438 71.453125 44.515625 71.480469 44.75 71.125 C 44.757812 71.113281 45.167969 71.171875 44.9375 70.875 C 44.839844 70.910156 44.761719 71.117188 44.75 71.125 C 44.40625 71.382812 44.285156 71.726562 44.25 71.75 C 44.222656 71.765625 43.671875 71.707031 43.625 71.625 C 46.527344 68.648438 49.386719 65.570312 52.125 62.4375 C 52.125 62.4375 34 43.5625 34 43.5625 C 33.179688 42.230469 32.792969 40.527344 33.5 39.0625 C 33.765625 38.515625 40.820312 31.257812 41.4375 30.875 C 44.410156 29.039062 46.710938 32.539062 48.625 34.4375 C 53.761719 39.539062 58.578125 44.992188 63.6875 50.125 C 66.203125 47.539062 68.828125 45.054688 71.375 42.5 Z M 63.1875 74.5 C 62.957031 74.535156 59.9375 77.585938 59.875 77.8125 C 59.839844 77.933594 59.851562 78.554688 59.9375 78.625 C 60.152344 78.800781 63.792969 74.78125 63.625 74.5625 C 63.550781 74.46875 63.308594 74.484375 63.1875 74.5 Z M 63.1875 74.5 "/>
<path style=" stroke:none;fill-rule:nonzero;fill:rgb(98.823529%,98.823529%,99.215686%);fill-opacity:1;" d="M 94.75 39.875 C 94.84375 40.546875 94.621094 41.03125 94.375 41.625 C 94.015625 40.761719 94.222656 40.066406 93.75 39.1875 C 93.484375 38.695312 86.664062 31.75 86.1875 31.5 C 85.550781 31.167969 84.78125 31.011719 84.0625 31.125 C 82.347656 31.394531 74.925781 40.050781 72.9375 41.75 C 72.257812 42.332031 72.085938 42.171875 71.375 42.5 C 74.09375 39.773438 79.90625 32.78125 82.6875 31 C 83.867188 30.246094 85.34375 30.167969 86.5625 30.875 C 87.65625 31.507812 94.414062 38.75 94.75 39.875 Z M 94.75 39.875 "/>
<path style=" stroke:none;fill-rule:nonzero;fill:rgb(72.156864%,73.333335%,78.039217%);fill-opacity:1;" d="M 83.25 54.75 C 83.25 54.75 82.625 54.6875 82.625 54.6875 C 82.753906 54.511719 82.710938 54.152344 82.75 54.0625 C 82.863281 53.8125 85.929688 50.40625 86.375 49.9375 C 88.332031 47.863281 93.371094 44.046875 94.375 41.625 C 94.621094 41.03125 94.84375 40.546875 94.75 39.875 C 94.976562 40.632812 95.074219 40.910156 94.875 41.8125 C 94.449219 43.769531 85.265625 52.632812 83.25 54.75 Z M 83.25 54.75 "/>
<path style=" stroke:none;fill-rule:nonzero;fill:rgb(99.215686%,99.215686%,99.215686%);fill-opacity:1;" d="M 44.75 71.125 C 44.761719 71.117188 44.839844 70.910156 44.9375 70.875 C 45.167969 71.171875 44.757812 71.113281 44.75 71.125 Z M 44.75 71.125 "/>
<path style=" stroke:none;fill-rule:nonzero;fill:rgb(99.215686%,99.215686%,99.215686%);fill-opacity:1;" d="M 44.25 71.75 C 44.285156 71.726562 44.40625 71.382812 44.75 71.125 C 44.515625 71.480469 44.523438 71.453125 44.25 71.75 Z M 44.25 71.75 "/>
<path style=" stroke:none;fill-rule:nonzero;fill:rgb(98.823529%,99.215686%,99.215686%);fill-opacity:1;" d="M 44.25 71.75 C 40.855469 75.449219 37.144531 78.933594 34 82.8125 C 33.621094 83.363281 34.269531 85.625 34.4375 84.5 C 34.4375 84.5 42.5625 93 42.5625 93 C 43.054688 93.195312 43.640625 93.449219 44.1875 93.375 C 45.722656 93.164062 52.691406 84.332031 54.6875 83.125 C 54.9375 83.214844 54.5625 83.828125 54.5 83.9375 C 53.695312 85.378906 49.746094 89.289062 48.375 90.625 C 47.007812 91.957031 45.25 94.339844 43.1875 94 C 41.914062 93.789062 36.300781 87.695312 34.9375 86.5 C 34.914062 87.089844 35.597656 87.425781 35.875 87.8125 C 35.980469 87.960938 35.742188 87.992188 35.75 88 C 33.671875 86.386719 32.382812 84.011719 34 81.5625 C 34 81.5625 41.625 73.5 41.625 73.5 C 42.253906 72.851562 42.996094 72.269531 43.625 71.625 C 43.671875 71.707031 44.222656 71.765625 44.25 71.75 Z M 44.25 71.75 "/>
<path style=" stroke:none;fill-rule:nonzero;fill:rgb(87.843138%,89.019608%,90.588236%);fill-opacity:1;" d="M 63.1875 74.5 C 63.308594 74.484375 63.550781 74.46875 63.625 74.5625 C 63.792969 74.78125 60.152344 78.800781 59.9375 78.625 C 59.851562 78.554688 59.839844 77.933594 59.875 77.8125 C 59.9375 77.585938 62.957031 74.535156 63.1875 74.5 Z M 63.1875 74.5 "/>
<path style=" stroke:none;fill-rule:nonzero;fill:rgb(77.254903%,78.039217%,81.568629%);fill-opacity:1;" d="M 75.5 85.875 C 75.5 85.875 74.75 86.125 74.75 86.125 C 73.507812 84.765625 72.058594 83.539062 70.875 82.125 C 70.757812 81.984375 70.503906 81.222656 70.375 81.0625 C 69.574219 80.0625 68.605469 79.140625 67.75 78.1875 C 67.785156 78.101562 67.988281 78.101562 68.0625 78.125 C 68.574219 78.289062 74.566406 84.917969 75.5 85.875 Z M 75.5 85.875 "/>
<path style=" stroke:none;fill-rule:nonzero;fill:rgb(68.235296%,69.01961%,74.901962%);fill-opacity:1;" d="M 75.5 85.875 C 76.714844 87.121094 82.804688 93.695312 83.8125 93.875 C 84.046875 93.914062 85.089844 93.921875 85.3125 93.875 C 86.695312 93.59375 91.269531 87.878906 92.6875 86.75 C 93.082031 86.828125 92.371094 87.234375 92.375 87.3125 C 92.378906 87.445312 93.117188 86.941406 92.25 88.125 C 91.621094 88.980469 86.460938 94.367188 85.8125 94.625 C 84.789062 95.035156 83.378906 94.820312 82.4375 94.25 C 81.074219 93.425781 76.175781 87.6875 74.75 86.125 Z M 75.5 85.875 "/>
<path style=" stroke:none;fill-rule:nonzero;fill:rgb(67.058825%,68.235296%,74.509805%);fill-opacity:1;" d="M 48.375 90.625 C 48.523438 90.613281 48.265625 91.097656 48.25 91.125 C 48.046875 91.523438 45.363281 94.355469 45.0625 94.5 C 44.34375 94.84375 42.882812 94.847656 42.1875 94.5 C 41.777344 94.296875 36.246094 88.65625 35.75 88 C 35.742188 87.992188 35.980469 87.960938 35.875 87.8125 C 35.597656 87.425781 34.914062 87.089844 34.9375 86.5 C 36.300781 87.695312 41.914062 93.789062 43.1875 94 C 45.25 94.339844 47.007812 91.957031 48.375 90.625 Z M 48.375 90.625 "/>
</g>
</svg>
