<?xml version="1.0" encoding="UTF-8"?>
<svg xmlns="http://www.w3.org/2000/svg" xmlns:xlink="http://www.w3.org/1999/xlink" width="128" height="128" viewBox="0 0 128 128" version="1.1">
<g id="surface1">
<path style=" stroke:none;fill-rule:nonzero;fill:rgb(99.215686%,99.215686%,99.607843%);fill-opacity:1;" d="M 34.75 29.75 C 38.101562 31.667969 41.902344 32.515625 45.375 34.1875 C 45.375 34.1875 41.75 41.125 41.75 41.125 C 41.746094 40.03125 39.292969 39.589844 39.375 39.3125 C 39.394531 39.25 40.285156 38.558594 39.0625 39.125 C 39.0625 39.125 39.1875 38.625 39.1875 38.625 C 39.1875 38.625 37.625 38.5 37.625 38.5 C 37.210938 38.183594 35.027344 36.613281 34.8125 36.5 C 34.660156 36.417969 32.808594 35.847656 32.6875 35.875 C 32.648438 35.882812 32.523438 36.246094 32.5 36.25 C 31.992188 36.371094 31.835938 36.34375 31.375 36.125 C 30.535156 35.722656 28.222656 33.078125 27.625 32.25 C 25.09375 28.726562 23.007812 22.402344 23.5 18.0625 C 23.550781 17.601562 23.828125 15.605469 24.5 16.3125 C 24.777344 16.601562 26.292969 20.480469 26.75 21.3125 C 28.722656 24.910156 31.167969 27.699219 34.75 29.75 Z M 34.75 29.75 "/>
<path style=" stroke:none;fill-rule:nonzero;fill:rgb(98.431373%,98.823529%,99.215686%);fill-opacity:1;" d="M 102.5 27.875 C 102.140625 27.660156 102.207031 27.101562 102 26.625 C 102.453125 25.632812 102.726562 25.058594 103 24 C 103 24 103.0625 24.25 103.0625 24.25 C 103.0625 24.25 103.25 24.0625 103.25 24.0625 C 103.25 24.0625 103 24 103 24 C 103.101562 23.609375 103.191406 23.296875 103.375 22.9375 C 101.5 22.136719 101.488281 24.382812 100.75 25.6875 C 98.234375 30.125 94.46875 33.042969 89.9375 35.25 C 89.800781 35.675781 90.382812 36.609375 90.375 36.6875 C 90.363281 36.796875 88.785156 37.75 88.5625 37.875 C 87.679688 38.367188 87.382812 37.578125 87.125 39.375 C 86.546875 39.636719 85.875 39.941406 85.875 40.625 C 85.40625 39.496094 84.832031 38.445312 84.25 37.375 C 83.675781 36.320312 83.136719 35.25 82.375 34.3125 C 82.375 34.3125 82.5625 34 82.5625 34 C 87.640625 32.003906 92.675781 30.664062 96.75 26.875 C 100.894531 23.019531 100.53125 20.117188 103.125 16.5625 C 103.242188 16.402344 103.449219 16.046875 103.6875 16.125 C 104.847656 19.636719 103.828125 24.480469 102.5 27.875 Z M 102.5 27.875 "/>
<path style=" stroke:none;fill-rule:nonzero;fill:rgb(91.37255%,92.156863%,95.294118%);fill-opacity:1;" d="M 103 24 C 102.726562 25.058594 102.453125 25.632812 102 26.625 C 101.507812 27.707031 100.972656 28.785156 100.375 29.8125 C 100.375 29.8125 94.875 35 94.875 35 C 94.027344 35.410156 93.875 35.835938 93.8125 35.875 C 92.394531 36.714844 91.089844 37.359375 89.6875 38.125 C 89.179688 38.402344 89.105469 38.851562 89.0625 38.875 C 88.851562 38.980469 87.449219 39.230469 87.125 39.375 C 87.382812 37.578125 87.679688 38.367188 88.5625 37.875 C 88.785156 37.75 90.363281 36.796875 90.375 36.6875 C 90.382812 36.609375 89.800781 35.675781 89.9375 35.25 C 94.46875 33.042969 98.234375 30.125 100.75 25.6875 C 101.488281 24.382812 101.5 22.136719 103.375 22.9375 C 103.191406 23.296875 103.101562 23.609375 103 24 Z M 93.5625 34.75 C 93.539062 34.742188 93.175781 35.082031 93.3125 35.125 C 93.515625 35.1875 93.746094 34.808594 93.5625 34.75 Z M 93.5625 34.75 "/>
<path style=" stroke:none;fill-rule:nonzero;fill:rgb(91.37255%,92.156863%,95.294118%);fill-opacity:1;" d="M 103 24 C 103 24 103.25 24.0625 103.25 24.0625 C 103.25 24.0625 103.0625 24.25 103.0625 24.25 Z M 103 24 "/>
<path style=" stroke:none;fill-rule:nonzero;fill:rgb(64.705884%,63.921571%,60.392159%);fill-opacity:1;" d="M 102.5 27.875 C 101.859375 29.507812 101.144531 30.707031 100.125 32.125 C 99.851562 32.167969 99.8125 31.988281 99.5625 32.125 C 99.152344 32.351562 97.878906 33.972656 97.3125 34.25 C 96.800781 34.5 95.691406 34.605469 94.875 35 C 94.875 35 100.375 29.8125 100.375 29.8125 C 100.972656 28.785156 101.507812 27.707031 102 26.625 C 102.207031 27.101562 102.140625 27.660156 102.5 27.875 Z M 102.5 27.875 "/>
<path style=" stroke:none;fill-rule:nonzero;fill:rgb(98.823529%,98.823529%,99.607843%);fill-opacity:1;" d="M 72.125 31.875 C 70.28125 32.214844 71.191406 32.476562 70.5 33.8125 C 70.996094 34.914062 71.699219 34.292969 72.4375 34.5 C 72.996094 34.65625 74.601562 35.441406 75.0625 35.5 C 75.289062 35.527344 76.132812 35.128906 76.5625 35.375 C 76.5625 35.375 76.375 35 76.375 35 C 78.445312 35.207031 79.070312 33.71875 81.0625 35.25 C 82.332031 36.226562 83.960938 39.824219 84.375 41.375 C 84.386719 41.414062 84.363281 41.460938 84.375 41.5 C 83.933594 41.648438 83.578125 42 83.25 42.3125 C 83.222656 42.339844 83.097656 42.925781 82.9375 43 C 82.828125 43.050781 82.109375 42.824219 81.625 43.4375 C 81.425781 43.6875 81.519531 44.15625 81.5 44.1875 C 80.535156 45.652344 80.582031 45.625 80.1875 47.375 C 80.136719 47.597656 79.972656 47.914062 80.375 47.875 C 80.351562 47.988281 80.390625 48.128906 80.375 48.25 C 80.015625 51.109375 82.074219 51.601562 82.75 53.75 C 83.546875 56.289062 82.367188 59.839844 82.125 62.5 C 82.027344 61.761719 81.917969 61.875 81.375 61.5 C 81.808594 59.082031 83.046875 53.953125 78.9375 57.125 C 77.175781 58.484375 74.644531 61.816406 74.875 64.125 C 74.535156 64.675781 74.636719 63.949219 74.5625 64 C 74.257812 64.210938 73.714844 65.28125 73.3125 65.625 C 73.265625 65.664062 72.390625 65.9375 72.1875 66.125 C 70.722656 67.46875 70.445312 68.425781 69.9375 70.25 C 69.789062 70.273438 69.175781 69.378906 69.125 69.25 C 68.558594 67.875 69.554688 66.582031 70.375 65.4375 C 71.46875 63.910156 72.882812 62.925781 74.25 61.6875 C 71.839844 62.855469 70.199219 65.203125 68.9375 67.5 C 68.515625 67.527344 66.3125 59.496094 64 62.1875 C 64 62.1875 64 45.9375 64 45.9375 C 64 45.9375 63.5 62.25 63.5 62.25 C 62.605469 60.796875 61.476562 62.136719 61 63.1875 C 62.023438 62.25 62.726562 60.890625 63.625 62.875 C 63.773438 63.703125 63.820312 64.539062 63.6875 65.375 C 63.6875 65.375 63.9375 65.5 63.9375 65.5 C 63.976562 64.542969 63.769531 61.425781 65.4375 61.875 C 66.019531 62.03125 68.445312 66.589844 68.625 67.3125 C 68.828125 68.121094 68.605469 68.882812 68.625 69.6875 C 68.625 69.6875 69 69.25 69 69.25 C 69 69.25 70.125 71.25 70.125 71.25 C 70.101562 71.28125 70.148438 71.445312 70.125 71.5 C 69.890625 72.046875 69.601562 73.285156 69.625 73.9375 C 69.648438 74.597656 70.003906 77.363281 70.125 78.0625 C 70.242188 78.742188 71.335938 79.984375 71.9375 80.125 C 72.171875 80.179688 72.457031 80.019531 72.75 80 C 73.273438 80.308594 74.273438 80.507812 74.9375 80.375 C 75.019531 80.359375 75.621094 79.792969 75.8125 79.75 C 76.691406 79.554688 77.75 79.578125 78.625 79.375 C 80.21875 83.878906 76.207031 84.296875 74.25 87.6875 C 71.089844 93.164062 73.871094 106.519531 67.4375 108.625 C 63.101562 110.042969 64.765625 105.867188 64.875 103.5625 C 64.910156 102.785156 65.117188 97.601562 65 97.3125 C 64.898438 97.0625 64.5 97.195312 64.375 96.9375 C 63.597656 95.335938 64.015625 85.976562 64 83.5 C 63.972656 78.796875 64.089844 74.078125 63.8125 69.375 C 63.664062 74.078125 63.792969 78.800781 63.75 83.5 C 63.714844 87.507812 64.136719 92.589844 63.375 96.4375 C 63.292969 96.84375 62.761719 97.140625 62.75 97.1875 C 62.113281 99.652344 63.511719 105.078125 63.25 107.8125 C 61.8125 110.5 58.164062 107.570312 57.125 105.875 C 54.03125 100.828125 56.945312 92.03125 52.5 86.3125 C 50.863281 84.203125 48.085938 83.449219 48.625 80.3125 C 49.488281 75.277344 51.617188 75.355469 48.375 69.75 C 48.828125 69.679688 49.132812 70.726562 49.3125 70.75 C 49.359375 70.757812 49.699219 70.292969 50.1875 70.5 C 50.234375 70.519531 50.503906 71.09375 50.5625 71.125 C 50.902344 71.316406 51.410156 70.757812 51.75 71.9375 C 51.773438 72.023438 51.523438 72.386719 51.625 72.6875 C 51.734375 73.011719 53.636719 74.699219 54.1875 74.625 C 54.296875 74.523438 54.375 74.484375 54.375 74.3125 C 54.371094 74.050781 52.246094 69.929688 52 69.6875 C 51.148438 68.847656 47.910156 68.785156 46.9375 67.375 C 47.050781 67.828125 47.378906 68.367188 47.625 68.75 C 47.226562 68.472656 46.984375 68.035156 46.75 67.625 C 45.710938 65.8125 44.222656 55.519531 44.875 53.625 C 44.90625 53.53125 45.0625 53.253906 45.125 53.125 C 45.59375 52.1875 47.378906 50.445312 47.75 49.4375 C 47.816406 49.261719 47.664062 45.910156 47.625 45.6875 C 47.578125 45.417969 47.042969 45.0625 47 44.9375 C 46.464844 43.28125 46.417969 42.285156 44.8125 41.5 C 44.335938 41.269531 44 41.960938 43.625 40.75 C 44.191406 39.035156 45.523438 35.75 47.1875 34.875 C 48.867188 33.992188 49.925781 35.367188 51.75 35 C 52.867188 36.003906 53.867188 34.804688 54.8125 34.25 C 55.722656 33.714844 56.804688 34.042969 56.625 32.3125 C 56.195312 32.175781 56.121094 32.003906 55.625 32 C 55.621094 31.734375 56.527344 31.527344 56.6875 31.5 C 59.574219 31.019531 69.585938 30.890625 72.125 31.875 Z M 46.6875 56 C 46.382812 56.042969 45.9375 56.640625 45.875 56.9375 C 45.617188 58.136719 46.46875 63.503906 47 64.6875 C 48.371094 67.742188 53.710938 66.167969 52.5 61.8125 C 52.144531 60.535156 48.078125 55.804688 46.6875 56 Z M 58.25 66.875 C 58.230469 66.851562 58.257812 66.574219 58.0625 66.5 C 57.832031 66.714844 58.242188 66.855469 58.25 66.875 C 58.332031 67.074219 58.515625 67.9375 58.875 67.6875 C 58.875 67.6875 60.9375 63.375 60.9375 63.375 C 60.9375 63.375 58.6875 67.5 58.6875 67.5 C 58.625 67.195312 58.398438 67.058594 58.25 66.875 Z M 59.4375 85.375 C 58.769531 86.453125 57.679688 87.964844 57.375 89.1875 C 56.792969 91.503906 57.359375 101.703125 58.75 103.5625 C 59.242188 104.21875 60.222656 104.8125 60.875 104.0625 C 61.210938 103.679688 61.90625 97.5625 61.75 97.0625 C 61.730469 97 61.019531 96.421875 60.875 96.0625 C 59.574219 92.847656 59.933594 88.785156 59.4375 85.375 Z M 68.1875 85.375 C 67.53125 88.757812 67.988281 92.402344 66.875 95.6875 C 66.710938 96.171875 65.894531 96.980469 65.875 97.0625 C 65.800781 97.402344 66.347656 102.65625 66.5 103.1875 C 66.984375 104.863281 68.132812 104.65625 69 103.4375 C 70.335938 101.554688 70.960938 91.375 70.375 89.0625 C 70.257812 88.601562 68.53125 85.246094 68.1875 85.375 Z M 68.1875 85.375 "/>
<path style=" stroke:none;fill-rule:nonzero;fill:rgb(85.09804%,84.705883%,86.274511%);fill-opacity:1;" d="M 76.375 35 C 76.375 35 76.5625 35.375 76.5625 35.375 C 76.132812 35.128906 75.289062 35.527344 75.0625 35.5 C 74.601562 35.441406 72.996094 34.65625 72.4375 34.5 C 71.699219 34.292969 70.996094 34.914062 70.5 33.8125 C 71.191406 32.476562 70.28125 32.214844 72.125 31.875 C 74.054688 32.625 74.15625 34.777344 76.375 35 Z M 76.375 35 "/>
<path style=" stroke:none;fill-rule:nonzero;fill:rgb(88.627452%,88.627452%,91.37255%);fill-opacity:1;" d="M 55.625 32 C 56.121094 32.003906 56.195312 32.175781 56.625 32.3125 C 56.804688 34.042969 55.722656 33.714844 54.8125 34.25 C 53.867188 34.804688 52.867188 36.003906 51.75 35 C 53.394531 34.671875 54.140625 31.992188 55.625 32 Z M 55.625 32 "/>
<path style=" stroke:none;fill-rule:nonzero;fill:rgb(59.607846%,56.862748%,49.803922%);fill-opacity:1;" d="M 100.125 32.125 C 98.871094 33.875 97.433594 35.527344 95.625 36.75 C 95.777344 36.542969 95.941406 36.230469 96.0625 36 C 95.839844 36.132812 94.898438 36.203125 94.8125 36.25 C 94.707031 36.308594 93.382812 37.871094 93.1875 38 C 92.949219 38.15625 92.253906 38.175781 91.9375 38.375 C 90.132812 39.523438 89.519531 40.449219 87.3125 40.875 C 87.246094 40.886719 86.449219 40.484375 86.25 41.1875 C 86.207031 41.34375 86.609375 42.34375 86.6875 42.375 C 87.0625 42.515625 88.246094 41.363281 88.625 41.625 C 88.1875 41.847656 87.011719 42.695312 86.5625 42.5 C 86.3125 41.964844 85.875 41.226562 85.875 40.625 C 85.875 39.941406 86.546875 39.636719 87.125 39.375 C 87.449219 39.230469 88.851562 38.980469 89.0625 38.875 C 89.105469 38.851562 89.179688 38.402344 89.6875 38.125 C 91.089844 37.359375 92.394531 36.714844 93.8125 35.875 C 93.875 35.835938 94.027344 35.410156 94.875 35 C 95.691406 34.605469 96.800781 34.5 97.3125 34.25 C 97.878906 33.972656 99.152344 32.351562 99.5625 32.125 C 99.8125 31.988281 99.851562 32.167969 100.125 32.125 Z M 100.125 32.125 "/>
<path style=" stroke:none;fill-rule:nonzero;fill:rgb(98.431373%,98.823529%,99.215686%);fill-opacity:1;" d="M 93.5625 34.75 C 93.746094 34.808594 93.515625 35.1875 93.3125 35.125 C 93.175781 35.082031 93.539062 34.742188 93.5625 34.75 Z M 93.5625 34.75 "/>
<path style=" stroke:none;fill-rule:nonzero;fill:rgb(55.29412%,60.392159%,57.254905%);fill-opacity:1;" d="M 37.625 38.5 C 38.457031 39.132812 37.902344 39.1875 38 39.4375 C 38.023438 39.496094 39.160156 40.03125 37.8125 39.875 C 37.457031 39.832031 36.546875 38.832031 36.1875 38.625 C 35.710938 38.351562 35.207031 38.058594 34.6875 37.75 C 33.820312 37.234375 32.894531 37.398438 32.5 36.25 C 32.523438 36.246094 32.648438 35.882812 32.6875 35.875 C 32.808594 35.847656 34.660156 36.417969 34.8125 36.5 C 35.027344 36.613281 37.210938 38.183594 37.625 38.5 Z M 37.625 38.5 "/>
<path style=" stroke:none;fill-rule:nonzero;fill:rgb(47.058824%,54.509807%,50.980395%);fill-opacity:1;" d="M 32.5 36.25 C 32.894531 37.398438 33.820312 37.234375 34.6875 37.75 C 35.207031 38.058594 35.710938 38.351562 36.1875 38.625 C 36.546875 38.832031 37.457031 39.832031 37.8125 39.875 C 39.160156 40.03125 38.023438 39.496094 38 39.4375 C 37.902344 39.1875 38.457031 39.132812 37.625 38.5 C 37.625 38.5 39.1875 38.625 39.1875 38.625 C 39.1875 38.625 39.0625 39.125 39.0625 39.125 C 40.285156 38.558594 39.394531 39.25 39.375 39.3125 C 39.292969 39.589844 41.746094 40.03125 41.75 41.125 C 41.75 41.410156 41.378906 42.421875 41.1875 42.5 C 40.351562 42.847656 35.84375 39.773438 34.9375 39.125 C 33.6875 38.230469 32.457031 37.21875 31.375 36.125 C 31.835938 36.34375 31.992188 36.371094 32.5 36.25 Z M 32.5 36.25 "/>
<path style=" stroke:none;fill-rule:nonzero;fill:rgb(50.980395%,49.411765%,42.745098%);fill-opacity:1;" d="M 95.625 36.75 C 94.6875 38.035156 90.167969 40.835938 88.625 41.625 C 88.246094 41.363281 87.0625 42.515625 86.6875 42.375 C 86.609375 42.34375 86.207031 41.34375 86.25 41.1875 C 86.449219 40.484375 87.246094 40.886719 87.3125 40.875 C 89.519531 40.449219 90.132812 39.523438 91.9375 38.375 C 92.253906 38.175781 92.949219 38.15625 93.1875 38 C 93.382812 37.871094 94.707031 36.308594 94.8125 36.25 C 94.898438 36.203125 95.839844 36.132812 96.0625 36 C 95.941406 36.230469 95.777344 36.542969 95.625 36.75 Z M 95.625 36.75 "/>
<path style=" stroke:none;fill-rule:nonzero;fill:rgb(68.235296%,70.588237%,69.803923%);fill-opacity:1;" d="M 45.125 53.125 C 44.480469 53.277344 42.882812 53.65625 42.3125 53.375 C 42.226562 53.332031 42.152344 52.875 41.9375 52.75 C 41.226562 52.332031 40.300781 52.761719 40.75 51.0625 C 40.796875 50.890625 41.230469 50.726562 41.25 50.6875 C 41.320312 50.550781 41.160156 50.195312 41.3125 50 C 41.75 49.4375 42.761719 49.964844 43.375 50 C 46.664062 50.179688 48.578125 48.890625 46 45.875 C 46.25 45.988281 46.617188 46.222656 46.625 45.8125 C 46.636719 45.292969 46.269531 45.585938 46.25 45.4375 C 46.242188 45.382812 46.734375 45.222656 46.25 44.5625 C 45.695312 43.808594 45.914062 44.9375 45.0625 44.5 C 45.730469 43.097656 45.167969 43.625 44.1875 42.875 C 44.066406 42.78125 43.636719 41.632812 43.125 42.25 C 43.226562 41.765625 43.464844 41.234375 43.625 40.75 C 44 41.960938 44.335938 41.269531 44.8125 41.5 C 46.417969 42.285156 46.464844 43.28125 47 44.9375 C 47.042969 45.0625 47.578125 45.417969 47.625 45.6875 C 47.664062 45.910156 47.816406 49.261719 47.75 49.4375 C 47.378906 50.445312 45.59375 52.1875 45.125 53.125 Z M 45.125 53.125 "/>
<path style=" stroke:none;fill-rule:nonzero;fill:rgb(67.450982%,65.490198%,60.000002%);fill-opacity:1;" d="M 84.375 41.5 C 84.609375 42.433594 84.976562 42.957031 84.5 43.9375 C 83.808594 45.351562 80.960938 45.277344 80.375 47.875 C 79.972656 47.914062 80.136719 47.597656 80.1875 47.375 C 80.582031 45.625 80.535156 45.652344 81.5 44.1875 C 81.519531 44.15625 81.425781 43.6875 81.625 43.4375 C 82.109375 42.824219 82.828125 43.050781 82.9375 43 C 83.097656 42.925781 83.222656 42.339844 83.25 42.3125 C 83.578125 42 83.933594 41.648438 84.375 41.5 Z M 84.375 41.5 "/>
<path style=" stroke:none;fill-rule:nonzero;fill:rgb(57.254905%,63.921571%,59.215689%);fill-opacity:1;" d="M 46 45.875 C 45.585938 45.6875 43.300781 44.25 43.125 43.9375 C 42.707031 43.191406 42.984375 42.929688 43.125 42.25 C 43.636719 41.632812 44.066406 42.78125 44.1875 42.875 C 45.167969 43.625 45.730469 43.097656 45.0625 44.5 C 45.914062 44.9375 45.695312 43.808594 46.25 44.5625 C 46.734375 45.222656 46.242188 45.382812 46.25 45.4375 C 46.269531 45.585938 46.636719 45.292969 46.625 45.8125 C 46.617188 46.222656 46.25 45.988281 46 45.875 Z M 46 45.875 "/>
<path style=" stroke:none;fill-rule:nonzero;fill:rgb(92.941177%,93.725491%,96.078432%);fill-opacity:1;" d="M 39 47.875 C 39.019531 48.640625 38.828125 50.105469 38.625 50.8125 C 38.589844 50.933594 38.023438 51.328125 38 51.4375 C 37.859375 52.074219 38.847656 52.683594 38.875 53.1875 C 38.910156 53.804688 38.140625 54.292969 39 55.125 C 37.152344 55.726562 34.917969 56.980469 33 56.75 C 30.792969 56.488281 27.5625 54.390625 25.8125 53 C 24.847656 52.230469 20.53125 48.390625 21.125 47.1875 C 21.628906 46.167969 28.386719 45.101562 29.6875 45 C 35.050781 44.574219 34.839844 45.550781 39 47.875 Z M 39 47.875 "/>
<path style=" stroke:none;fill-rule:nonzero;fill:rgb(99.607843%,99.607843%,100%);fill-opacity:1;" d="M 106.25 48.625 C 106.136719 48.820312 105.886719 49.191406 105.75 49.375 C 104.09375 51.613281 98.355469 55.964844 95.6875 56.625 C 93.339844 57.207031 90.039062 55.640625 87.75 54.875 C 88.457031 54.425781 88.359375 53.339844 88.5 53.0625 C 88.800781 52.46875 89.773438 51.632812 90 51.0625 C 90.023438 51.003906 89.828125 50.308594 90.25 49.9375 C 90.25 49.9375 89.25 49.875 89.25 49.875 C 89.25 49.875 89.3125 49.25 89.3125 49.25 C 89.164062 49.414062 89.308594 49.710938 89.25 49.875 C 89.058594 50.421875 87.375 52.921875 86.875 53.125 C 86.875 53.125 85.125 52.9375 85.125 52.9375 C 87.964844 52.886719 88.410156 51.058594 88.5 48.5625 C 87.800781 48.285156 87.242188 48.90625 86.625 49.125 C 89 47.707031 92.253906 45.066406 95.0625 44.875 C 97.027344 44.742188 103.355469 45.640625 105.1875 46.375 C 106.671875 46.96875 107.039062 47.253906 106.25 48.625 Z M 90.25 48.625 C 90.234375 48.734375 89.957031 49.136719 90.1875 49.375 C 90.316406 49.160156 90.226562 48.863281 90.25 48.625 C 90.253906 48.601562 90.628906 48.160156 90.1875 48.125 C 90.171875 48.289062 90.273438 48.40625 90.25 48.625 Z M 90.25 48.625 "/>
<path style=" stroke:none;fill-rule:nonzero;fill:rgb(90.588236%,92.54902%,95.294118%);fill-opacity:1;" d="M 69.125 69.25 C 69.125 69.25 69 69.25 69 69.25 C 69 69.25 68.625 69.6875 68.625 69.6875 C 68.605469 68.882812 68.828125 68.121094 68.625 67.3125 C 68.445312 66.589844 66.019531 62.03125 65.4375 61.875 C 63.769531 61.425781 63.976562 64.542969 63.9375 65.5 C 63.9375 65.5 63.6875 65.375 63.6875 65.375 C 63.820312 64.539062 63.773438 63.703125 63.625 62.875 C 63.597656 62.71875 63.742188 62.644531 63.5 62.25 C 63.5 62.25 64 45.9375 64 45.9375 C 64 45.9375 64 62.1875 64 62.1875 C 66.3125 59.496094 68.515625 67.527344 68.9375 67.5 C 70.199219 65.203125 71.839844 62.855469 74.25 61.6875 C 72.882812 62.925781 71.46875 63.910156 70.375 65.4375 C 69.554688 66.582031 68.558594 67.875 69.125 69.25 Z M 69.125 69.25 "/>
<path style=" stroke:none;fill-rule:nonzero;fill:rgb(79.607844%,81.176472%,83.137256%);fill-opacity:1;" d="M 43.375 50 C 42.761719 49.964844 41.75 49.4375 41.3125 50 C 41.160156 50.195312 41.320312 50.550781 41.25 50.6875 C 41.230469 50.726562 40.796875 50.890625 40.75 51.0625 C 40.300781 52.761719 41.226562 52.332031 41.9375 52.75 C 42.152344 52.875 42.226562 53.332031 42.3125 53.375 C 42.882812 53.65625 44.480469 53.277344 45.125 53.125 C 45.0625 53.253906 44.90625 53.53125 44.875 53.625 C 42.996094 53.582031 40.851562 54.519531 39 55.125 C 38.140625 54.292969 38.910156 53.804688 38.875 53.1875 C 38.847656 52.683594 37.859375 52.074219 38 51.4375 C 38.023438 51.328125 38.589844 50.933594 38.625 50.8125 C 38.828125 50.105469 39.019531 48.640625 39 47.875 C 40.40625 48.660156 41.921875 49.304688 43.375 50 Z M 43.375 50 "/>
<path style=" stroke:none;fill-rule:nonzero;fill:rgb(80.392158%,77.254903%,74.901962%);fill-opacity:1;" d="M 90.25 48.625 C 90.273438 48.40625 90.171875 48.289062 90.1875 48.125 C 90.628906 48.160156 90.253906 48.601562 90.25 48.625 Z M 90.25 48.625 "/>
<path style=" stroke:none;fill-rule:nonzero;fill:rgb(63.137257%,60.000002%,52.941179%);fill-opacity:1;" d="M 85.125 49.75 C 85.996094 51.851562 84.433594 51.984375 83.3125 53.25 C 82.5 52.929688 82.902344 53.308594 82.875 53.375 C 82.867188 53.394531 82.640625 53.511719 82.75 53.75 C 82.074219 51.601562 80.015625 51.109375 80.375 48.25 C 81.484375 50.441406 83.035156 50.34375 85.125 49.75 Z M 85.125 49.75 "/>
<path style=" stroke:none;fill-rule:nonzero;fill:rgb(76.862746%,73.333335%,69.411767%);fill-opacity:1;" d="M 86.875 53.125 C 86.007812 53.476562 85.011719 53.15625 84.1875 53.25 C 83.863281 53.285156 85.269531 53.617188 84.125 53.625 C 83.75 53.535156 83.234375 53.578125 82.875 53.375 C 82.902344 53.308594 82.5 52.929688 83.3125 53.25 C 84.433594 51.984375 85.996094 51.851562 85.125 49.75 C 85.386719 49.675781 86.203125 49.273438 86.625 49.125 C 87.242188 48.90625 87.800781 48.285156 88.5 48.5625 C 88.410156 51.058594 87.964844 52.886719 85.125 52.9375 Z M 86.875 53.125 "/>
<path style=" stroke:none;fill-rule:nonzero;fill:rgb(80.392158%,77.254903%,74.901962%);fill-opacity:1;" d="M 90.25 48.625 C 90.226562 48.863281 90.316406 49.160156 90.1875 49.375 C 89.957031 49.136719 90.234375 48.734375 90.25 48.625 Z M 90.25 48.625 "/>
<path style=" stroke:none;fill-rule:nonzero;fill:rgb(80.392158%,77.254903%,74.901962%);fill-opacity:1;" d="M 89.25 49.875 C 89.308594 49.710938 89.164062 49.414062 89.3125 49.25 Z M 89.25 49.875 "/>
<path style=" stroke:none;fill-rule:nonzero;fill:rgb(88.627452%,87.450981%,89.803922%);fill-opacity:1;" d="M 87.75 54.875 C 86.539062 54.46875 85.394531 53.929688 84.125 53.625 C 85.269531 53.617188 83.863281 53.285156 84.1875 53.25 C 85.011719 53.15625 86.007812 53.476562 86.875 53.125 C 87.375 52.921875 89.058594 50.421875 89.25 49.875 C 89.25 49.875 90.25 49.9375 90.25 49.9375 C 89.828125 50.308594 90.023438 51.003906 90 51.0625 C 89.773438 51.632812 88.800781 52.46875 88.5 53.0625 C 88.359375 53.339844 88.457031 54.425781 87.75 54.875 Z M 87.75 54.875 "/>
<path style=" stroke:none;fill-rule:nonzero;fill:rgb(84.705883%,83.137256%,84.313726%);fill-opacity:1;" d="M 82.125 62.5 C 82.351562 64.21875 81.398438 66.6875 80.5 68.125 C 80.5 68.125 80.125 67.875 80.125 67.875 C 81.003906 67.128906 80.636719 66.605469 80.25 65.5 C 80.875 64.835938 81.203125 62.453125 81.375 61.5 C 81.917969 61.875 82.027344 61.761719 82.125 62.5 Z M 82.125 62.5 "/>
<path style=" stroke:none;fill-rule:nonzero;fill:rgb(80.000001%,84.705883%,89.019608%);fill-opacity:1;" d="M 63.5 62.25 C 63.742188 62.644531 63.597656 62.71875 63.625 62.875 C 62.726562 60.890625 62.023438 62.25 61 63.1875 C 61.476562 62.136719 62.605469 60.796875 63.5 62.25 Z M 63.5 62.25 "/>
<path style=" stroke:none;fill-rule:nonzero;fill:rgb(83.529413%,87.843138%,92.941177%);fill-opacity:1;" d="M 58.25 66.875 C 58.398438 67.058594 58.625 67.195312 58.6875 67.5 C 58.6875 67.5 60.9375 63.375 60.9375 63.375 C 60.9375 63.375 58.875 67.6875 58.875 67.6875 C 58.515625 67.9375 58.332031 67.074219 58.25 66.875 Z M 58.25 66.875 "/>
<path style=" stroke:none;fill-rule:nonzero;fill:rgb(89.411765%,85.09804%,79.607844%);fill-opacity:1;" d="M 74.875 64.125 C 74.925781 64.640625 75.117188 65.144531 75.5 65.5 C 75.140625 65.339844 74.582031 66.085938 74.375 66.3125 C 74.296875 66.398438 74.644531 66.660156 74.4375 66.75 C 74.390625 66.769531 73.613281 66.570312 73.375 66.8125 C 73.351562 66.835938 73.382812 67.300781 73.25 67.4375 C 72.171875 68.558594 72.492188 68.335938 71.875 69.4375 C 71.75 69.660156 71.269531 69.902344 71.25 69.9375 C 71.15625 70.117188 71.453125 70.347656 71.375 70.5625 C 71.246094 70.910156 70.539062 70.710938 70.125 71.25 C 70.125 71.25 69 69.25 69 69.25 C 69 69.25 69.125 69.25 69.125 69.25 C 69.175781 69.378906 69.789062 70.273438 69.9375 70.25 C 70.445312 68.425781 70.722656 67.46875 72.1875 66.125 C 72.390625 65.9375 73.265625 65.664062 73.3125 65.625 C 73.714844 65.28125 74.257812 64.210938 74.5625 64 C 74.636719 63.949219 74.535156 64.675781 74.875 64.125 Z M 74.875 64.125 "/>
<path style=" stroke:none;fill-rule:nonzero;fill:rgb(79.215688%,70.980394%,57.254905%);fill-opacity:1;" d="M 75.5 65.5 C 76.492188 66.429688 79.324219 66.480469 80.25 65.5 C 80.636719 66.605469 81.003906 67.128906 80.125 67.875 C 79.394531 68.496094 78.367188 68.679688 77.5 69 C 76.914062 69.214844 76.128906 69.125 75.625 69.5625 C 74.777344 70.296875 73.441406 74.070312 73 75.25 C 72.90625 75.496094 72.597656 75.839844 72.5 76.125 C 72.5 76.125 70.125 71.5 70.125 71.5 C 70.148438 71.445312 70.101562 71.28125 70.125 71.25 C 70.539062 70.710938 71.246094 70.910156 71.375 70.5625 C 71.453125 70.347656 71.15625 70.117188 71.25 69.9375 C 71.269531 69.902344 71.75 69.660156 71.875 69.4375 C 72.492188 68.335938 72.171875 68.558594 73.25 67.4375 C 73.382812 67.300781 73.351562 66.835938 73.375 66.8125 C 73.613281 66.570312 74.390625 66.769531 74.4375 66.75 C 74.644531 66.660156 74.296875 66.398438 74.375 66.3125 C 74.582031 66.085938 75.140625 65.339844 75.5 65.5 Z M 75.5 65.5 "/>
<path style=" stroke:none;fill-rule:nonzero;fill:rgb(83.529413%,87.843138%,92.941177%);fill-opacity:1;" d="M 58.25 66.875 C 58.242188 66.855469 57.832031 66.714844 58.0625 66.5 C 58.257812 66.574219 58.230469 66.851562 58.25 66.875 Z M 58.25 66.875 "/>
<path style=" stroke:none;fill-rule:nonzero;fill:rgb(83.529413%,86.666667%,89.019608%);fill-opacity:1;" d="M 48.375 69.75 C 48.171875 69.398438 47.859375 69.117188 47.625 68.75 C 47.378906 68.367188 47.050781 67.828125 46.9375 67.375 C 47.910156 68.785156 51.148438 68.847656 52 69.6875 C 52.246094 69.929688 54.371094 74.050781 54.375 74.3125 C 54.375 74.484375 54.296875 74.523438 54.1875 74.625 C 53.636719 74.699219 51.734375 73.011719 51.625 72.6875 C 51.523438 72.386719 51.773438 72.023438 51.75 71.9375 C 51.410156 70.757812 50.902344 71.316406 50.5625 71.125 C 50.503906 71.09375 50.234375 70.519531 50.1875 70.5 C 49.699219 70.292969 49.359375 70.757812 49.3125 70.75 C 49.132812 70.726562 48.828125 69.679688 48.375 69.75 Z M 48.375 69.75 "/>
<path style=" stroke:none;fill-rule:nonzero;fill:rgb(71.372551%,61.960787%,49.019608%);fill-opacity:1;" d="M 80.5 68.125 C 79.617188 69.542969 78.351562 70.710938 77.875 72.375 C 77.9375 72.101562 77.148438 72.410156 77.125 72.4375 C 76.90625 72.675781 76.558594 74.183594 76.25 74.6875 C 76.191406 74.78125 75.808594 74.84375 75.75 74.9375 C 75.730469 74.96875 75.835938 75.386719 75.625 75.6875 C 75.464844 75.910156 75.152344 75.847656 74.875 76.1875 C 74.824219 76.246094 74.921875 76.632812 74.875 76.6875 C 73.972656 77.703125 73.140625 77.824219 71.875 78.125 C 72.003906 77.601562 72.316406 76.667969 72.5 76.125 C 72.597656 75.839844 72.90625 75.496094 73 75.25 C 74.402344 74.671875 75.863281 73.078125 76.4375 71.625 C 77.042969 71.554688 76.894531 71.640625 77.125 72.0625 C 77.113281 70.921875 77.609375 70.046875 77.5 69 C 78.367188 68.679688 79.394531 68.496094 80.125 67.875 Z M 80.5 68.125 "/>
<path style=" stroke:none;fill-rule:nonzero;fill:rgb(61.56863%,51.372552%,36.862746%);fill-opacity:1;" d="M 73 75.25 C 73.441406 74.070312 74.777344 70.296875 75.625 69.5625 C 76.128906 69.125 76.914062 69.214844 77.5 69 C 77.609375 70.046875 77.113281 70.921875 77.125 72.0625 C 76.894531 71.640625 77.042969 71.554688 76.4375 71.625 C 75.863281 73.078125 74.402344 74.671875 73 75.25 Z M 73 75.25 "/>
<path style=" stroke:none;fill-rule:nonzero;fill:rgb(80.392158%,81.960785%,87.058824%);fill-opacity:1;" d="M 64 83.5 C 64 83.5 63.75 83.5 63.75 83.5 C 63.792969 78.800781 63.664062 74.078125 63.8125 69.375 C 64.089844 74.078125 63.972656 78.796875 64 83.5 Z M 64 83.5 "/>
<path style=" stroke:none;fill-rule:nonzero;fill:rgb(92.156863%,87.450981%,81.960785%);fill-opacity:1;" d="M 72.5 76.125 C 72.316406 76.667969 72.003906 77.601562 71.875 78.125 C 71.410156 80 71.914062 79.023438 72.4375 79.5 C 72.675781 79.71875 72.726562 79.984375 72.75 80 C 72.457031 80.019531 72.171875 80.179688 71.9375 80.125 C 71.335938 79.984375 70.242188 78.742188 70.125 78.0625 C 70.003906 77.363281 69.648438 74.597656 69.625 73.9375 C 69.601562 73.285156 69.890625 72.046875 70.125 71.5 Z M 72.5 76.125 "/>
<path style=" stroke:none;fill-rule:nonzero;fill:rgb(85.09804%,78.039217%,69.411767%);fill-opacity:1;" d="M 77.875 72.375 C 77.289062 74.425781 77.695312 76.226562 78.125 78.25 C 78.109375 78.210938 77.734375 77.816406 77.625 77.5625 C 77.5 77.269531 77.46875 76.339844 77.375 76.1875 C 76.984375 75.542969 76.167969 77.007812 76.875 77.1875 C 76.21875 77.695312 76.585938 78.570312 75.9375 79.125 C 75.496094 79.503906 73.378906 79.960938 72.75 80 C 72.726562 79.984375 72.675781 79.71875 72.4375 79.5 C 71.914062 79.023438 71.410156 80 71.875 78.125 C 73.140625 77.824219 73.972656 77.703125 74.875 76.6875 C 74.921875 76.632812 74.824219 76.246094 74.875 76.1875 C 75.152344 75.847656 75.464844 75.910156 75.625 75.6875 C 75.835938 75.386719 75.730469 74.96875 75.75 74.9375 C 75.808594 74.84375 76.191406 74.78125 76.25 74.6875 C 76.558594 74.183594 76.90625 72.675781 77.125 72.4375 C 77.148438 72.410156 77.9375 72.101562 77.875 72.375 Z M 77.875 72.375 "/>
<path style=" stroke:none;fill-rule:nonzero;fill:rgb(91.37255%,87.450981%,87.058824%);fill-opacity:1;" d="M 78.125 78.25 C 78.320312 78.6875 78.429688 78.824219 78.625 79.375 C 77.75 79.578125 76.691406 79.554688 75.8125 79.75 C 75.621094 79.792969 75.019531 80.359375 74.9375 80.375 C 74.273438 80.507812 73.273438 80.308594 72.75 80 C 73.378906 79.960938 75.496094 79.503906 75.9375 79.125 C 76.585938 78.570312 76.21875 77.695312 76.875 77.1875 C 76.167969 77.007812 76.984375 75.542969 77.375 76.1875 C 77.46875 76.339844 77.5 77.269531 77.625 77.5625 C 77.734375 77.816406 78.109375 78.210938 78.125 78.25 Z M 78.125 78.25 "/>
</g>
</svg>
