<?xml version="1.0" encoding="UTF-8"?>
<svg xmlns="http://www.w3.org/2000/svg" xmlns:xlink="http://www.w3.org/1999/xlink" width="128" height="128" viewBox="0 0 128 128" version="1.1">
<g id="surface1">
<path style=" stroke:none;fill-rule:nonzero;fill:rgb(99.215686%,99.607843%,99.607843%);fill-opacity:1;" d="M 65.875 23.625 C 65.988281 25.25 64.316406 26.148438 62.875 25.625 C 62.550781 25.382812 61.917969 24.441406 61.875 24.0625 C 61.574219 21.417969 65.710938 21.253906 65.875 23.625 Z M 65.875 23.625 "/>
<path style=" stroke:none;fill-rule:nonzero;fill:rgb(97.254902%,97.647059%,98.039216%);fill-opacity:1;" d="M 83.5 33.125 C 83.828125 33.632812 84.167969 34.042969 84.625 34.4375 C 82.507812 36.148438 80.175781 37.675781 77.625 38.6875 C 77.542969 38.914062 78.9375 39.851562 78.6875 40.375 C 78.6875 40.375 49.0625 40.375 49.0625 40.375 C 48.699219 39.820312 50.152344 38.976562 50 38.6875 C 48.703125 38.148438 47.445312 37.472656 46.25 36.75 C 45.171875 36.097656 44.191406 35.199219 43 34.6875 C 44.84375 33.351562 46.882812 29.867188 48.6875 28.75 C 49.648438 28.15625 52.566406 27.484375 53.8125 27.125 C 56.226562 26.425781 59.066406 26.210938 61.1875 24.875 C 61.777344 26.984375 64.515625 27.601562 66 26.0625 C 66.121094 25.933594 66.355469 25.039062 66.5625 25 C 66.765625 24.960938 69.851562 26.207031 70.4375 26.375 C 72.652344 27.007812 77.097656 27.800781 78.9375 28.625 C 80.296875 29.234375 82.144531 32.234375 83.5 33.125 Z M 63.3125 28.5 C 55.929688 28.910156 56.589844 40.039062 64.1875 39.625 C 71.628906 39.21875 70.746094 28.085938 63.3125 28.5 Z M 63.3125 28.5 "/>
<path style=" stroke:none;fill-rule:nonzero;fill:rgb(98.823529%,98.823529%,98.823529%);fill-opacity:1;" d="M 63.4375 31.5 C 65.457031 31.03125 63.789062 32.917969 64.5625 33.375 C 65.269531 33.792969 67.691406 32.773438 66.6875 34.75 C 66.6875 34.75 64.375 34.5625 64.375 34.5625 C 64.375 34.5625 64.5 36.6875 64.5 36.6875 C 62.589844 37.636719 63.820312 35.257812 63.1875 34.75 C 62.582031 34.265625 60.28125 35.246094 60.9375 33.5 C 63.214844 33.449219 63.519531 34.117188 63.4375 31.5 Z M 63.4375 31.5 "/>
<path style=" stroke:none;fill-rule:nonzero;fill:rgb(98.823529%,99.215686%,99.215686%);fill-opacity:1;" d="M 78 43.125 C 77.929688 43.414062 77.941406 45.890625 78 46.25 C 78.199219 47.480469 79.726562 47.941406 79.875 48.4375 C 79.96875 48.75 79.496094 51.917969 79.375 52.4375 C 79.191406 53.226562 78.667969 53.808594 78.5 54.375 C 77.980469 55.238281 76.550781 55.640625 76 56.125 C 75.402344 56.648438 75.363281 59.257812 74.75 60.4375 C 73.925781 62.03125 66.488281 68.429688 64.8125 68.625 C 61.121094 69.058594 53.351562 62.25 52.25 58.9375 C 52.058594 58.359375 52.09375 57.007812 51.875 56.5625 C 51.695312 56.195312 49.4375 54.960938 48.875 54.0625 C 48.152344 52.910156 47.511719 49.25 48.125 48.0625 C 48.351562 47.625 49.464844 47.078125 49.625 46.6875 C 50.046875 45.65625 49.367188 44.097656 49.6875 43 Z M 78 43.125 "/>
<path style=" stroke:none;fill-rule:nonzero;fill:rgb(98.823529%,99.215686%,99.607843%);fill-opacity:1;" d="M 73.875 63 C 73.886719 63.007812 73.90625 62.730469 74.125 62.9375 C 74.125 62.9375 74.25 67.3125 74.25 67.3125 C 75.09375 66.488281 74.984375 68.359375 75.25 68.9375 C 75.832031 70.207031 76.960938 71.628906 78.0625 72.5 C 78.769531 70.84375 79.320312 72.628906 80.0625 73.25 C 80.839844 73.898438 81.792969 74.417969 82.625 75 C 82.785156 75.113281 83.066406 75.210938 83.125 75.25 C 85.75 77.0625 88.421875 78.84375 91.25 80.3125 C 91.25 80.3125 85 87.9375 85 87.9375 C 85 87.9375 88.625 89.875 88.625 89.875 C 88.625 89.875 64.6875 106 64.6875 106 C 64.210938 105.996094 64.410156 105.277344 64.375 104.9375 C 67.648438 98.628906 70.863281 92.242188 73.625 85.6875 C 73.738281 85.414062 73.191406 85.753906 73.375 85.3125 C 74.882812 81.703125 76.800781 78.246094 78 74.5 C 78.210938 74.042969 76.867188 73.613281 76.5625 73.375 C 75.019531 72.171875 74.089844 71.136719 73.1875 69.375 C 73.1875 69.375 66.375 73.8125 66.375 73.8125 C 66.375 73.8125 70.125 78.4375 70.125 78.4375 C 70.125 78.4375 66.375 82.8125 66.375 82.8125 C 67.398438 86.117188 68.871094 89.394531 69.375 92.8125 C 68.609375 94.003906 64.410156 103.371094 63.8125 103.375 C 63.386719 102.941406 63.058594 102.390625 62.75 101.875 C 62.207031 100.96875 58.328125 93.441406 58.25 92.9375 C 57.976562 91.203125 60.855469 85.007812 61.25 82.9375 C 61.25 82.9375 57.5 78.4375 57.5 78.4375 C 57.5 78.4375 61.25 73.8125 61.25 73.8125 C 61.25 73.8125 54.3125 69.375 54.3125 69.375 C 53.695312 71.957031 51.609375 72.984375 49.5 74.1875 C 52.082031 80.371094 54.339844 86.71875 57.125 92.8125 C 58.726562 96.316406 60.777344 99.644531 62.375 103.125 C 62.640625 103.707031 64.042969 106.121094 62.5625 105.625 C 62.5625 105.625 39.125 89.9375 39.125 89.9375 C 39.101562 89.722656 41.164062 88.964844 41.5 88.75 C 41.5 88.75 42.875 88.0625 42.875 88.0625 C 42.875 88.0625 36.375 80.4375 36.375 80.4375 C 39.972656 78.507812 44.394531 76.113281 47.4375 73.375 C 48.164062 72.71875 48.648438 71.398438 49.5 71.5 C 49.542969 71.730469 49.71875 71.996094 49.625 72.3125 C 49.78125 72.671875 51.632812 70.347656 51.75 70.1875 C 52.226562 69.539062 52.691406 67.785156 53.375 68.1875 C 53.375 68.1875 53.5625 62.875 53.5625 62.875 C 57.125 65.578125 61.492188 71.859375 66.5625 69.375 Z M 73.875 63 "/>
<path style=" stroke:none;fill-rule:nonzero;fill:rgb(98.431373%,98.823529%,99.215686%);fill-opacity:1;" d="M 91.6875 81.625 C 91.6875 81.625 96 84.4375 96 84.4375 C 96.003906 84.792969 90.789062 88.820312 90.4375 88.875 C 89.914062 88.953125 86.957031 87.835938 86.875 87.4375 C 88.472656 85.566406 89.867188 83.363281 91.6875 81.625 Z M 91.6875 81.625 "/>
<path style=" stroke:none;fill-rule:nonzero;fill:rgb(98.823529%,99.215686%,99.607843%);fill-opacity:1;" d="M 40.75 87.25 C 40.726562 87.367188 41.015625 87.4375 40.5625 87.75 C 39.988281 88.148438 37.539062 89.121094 36.875 88.875 C 35.65625 88.421875 32.933594 85.347656 31.625 84.5625 C 31.625 84.5625 36.0625 81.75 36.0625 81.75 Z M 40.75 87.25 "/>
</g>
</svg>
