<?xml version="1.0" encoding="UTF-8"?>
<svg xmlns="http://www.w3.org/2000/svg" xmlns:xlink="http://www.w3.org/1999/xlink" width="128" height="128" viewBox="0 0 128 128" version="1.1">
<g id="surface1">
<path style=" stroke:none;fill-rule:nonzero;fill:rgb(96.862745%,97.254902%,98.431373%);fill-opacity:1;" d="M 40.8125 33.375 C 41.324219 33.308594 41.648438 33.84375 42 34.1875 C 42.441406 34.617188 46.117188 38.886719 46.25 39.1875 C 47.054688 41.027344 46.203125 43.234375 46.6875 45.125 C 46.6875 45.125 58.3125 45 58.3125 45 C 58.558594 42.984375 58.085938 40.886719 58.625 38.9375 C 59.644531 38.421875 63.089844 33.515625 63.6875 33.375 C 64.589844 33.164062 66.089844 35.679688 66.75 36.4375 C 67.125 36.871094 69.417969 39.132812 69.5 39.3125 C 69.765625 39.890625 69.335938 41.410156 69.375 42.1875 C 69.375 42.210938 69.625 42.539062 69.625 42.5625 C 69.652344 43.003906 69.480469 44.976562 69.8125 45.125 C 69.8125 45.125 81.3125 45 81.3125 45 C 81.523438 44.851562 81.261719 40.628906 81.375 39.9375 C 81.492188 39.226562 85.136719 34.894531 85.875 34.1875 C 86.246094 33.832031 86.632812 33.207031 87.1875 33.375 C 87.578125 33.492188 92.390625 39.171875 92.5 39.5625 C 92.828125 40.730469 92.566406 43.632812 92.5 44.9375 C 92.738281 45.632812 99.316406 44.320312 99.625 45.9375 C 99.058594 47.640625 100.011719 52.195312 99.375 53.5625 C 98.957031 54.457031 95.433594 53.882812 94.4375 53.875 C 94.113281 53.871094 92.757812 53.757812 92.625 54.0625 C 92.625 54.0625 92.625 78.1875 92.625 78.1875 C 92.625 78.1875 81.5 74.9375 81.5 74.9375 C 81.5 74.9375 81.5 54.1875 81.5 54.1875 C 81.433594 53.996094 77.894531 53.882812 77.4375 53.875 C 76.367188 53.855469 70.324219 53.746094 69.8125 53.875 C 69.703125 53.902344 69.421875 54.152344 69.25 54.1875 C 69.25 54.1875 69.1875 73.375 69.1875 73.375 C 69.1875 73.375 58.375 73.1875 58.375 73.1875 C 58.375 73.1875 58.1875 54 58.1875 54 C 58.1875 54 46.6875 53.875 46.6875 53.875 C 46.6875 53.875 46.375 74.9375 46.375 74.9375 C 46.375 74.9375 35.5625 78.125 35.5625 78.125 C 35.5625 78.125 35.5 54.3125 35.5 54.3125 C 35.5 54.3125 35.1875 54 35.1875 54 C 34.160156 53.621094 30.335938 54.328125 29.1875 54.125 C 29.078125 54.105469 28.550781 53.675781 28.5 53.5625 C 28.222656 52.945312 28.3125 46.308594 28.625 45.6875 C 29.199219 44.554688 34.054688 45.472656 35.375 44.9375 C 35.546875 44.695312 35.144531 40.335938 35.625 39.1875 C 35.777344 38.828125 40.425781 33.425781 40.8125 33.375 Z M 40.8125 33.375 "/>
<path style=" stroke:none;fill-rule:nonzero;fill:rgb(89.019608%,91.37255%,94.509804%);fill-opacity:1;" d="M 62.4375 74.75 C 71.933594 74.609375 83.558594 76.878906 92.0625 80 C 93.164062 80.402344 99.0625 82.808594 99.375 83.5625 C 100.164062 85.472656 98.851562 91.929688 99.375 94.3125 C 99.375 94.3125 98.9375 94.75 98.9375 94.75 C 98.9375 94.75 28.1875 94.625 28.1875 94.625 C 28.1875 94.625 28.125 83.8125 28.125 83.8125 C 28.175781 83.609375 28.863281 82.898438 29.0625 82.75 C 30.089844 81.984375 34.289062 80.390625 35.6875 79.875 C 39.121094 78.613281 42.8125 77.597656 46.375 76.8125 C 46.605469 76.761719 46.453125 77.023438 46.5625 77 C 46.617188 76.988281 47.183594 76.578125 47.5625 76.5 C 52.277344 75.546875 57.5625 74.820312 62.4375 74.75 Z M 62.4375 74.75 "/>
</g>
</svg>
