<?xml version="1.0" encoding="UTF-8"?>
<svg xmlns="http://www.w3.org/2000/svg" xmlns:xlink="http://www.w3.org/1999/xlink" width="128" height="128" viewBox="0 0 128 128" version="1.1">
<g id="surface1">
<path style=" stroke:none;fill-rule:nonzero;fill:rgb(86.666667%,85.490197%,86.666667%);fill-opacity:1;" d="M 97.25 54.375 C 97.136719 54.445312 96.695312 54.460938 96.625 54.6875 C 97.148438 56.902344 97.960938 59.136719 98.25 61.4375 C 98.738281 65.300781 98.351562 71.523438 97 75.1875 C 96.890625 75.484375 96.167969 76.265625 96.125 76.4375 C 95.742188 78.03125 97.5625 77.75 98.3125 78.125 C 99.117188 78.53125 100.050781 79.542969 100.5625 79.875 C 101.117188 80.238281 102.917969 80.152344 102.75 81.5625 C 102.730469 81.726562 101.339844 84.109375 101.125 84.4375 C 101.0625 84.53125 100.582031 85.257812 100.5 84.625 C 100.625 84.492188 101.496094 83.273438 101.5 83.1875 C 101.503906 83.148438 100.976562 82.621094 100.9375 82.625 C 100.8125 82.636719 99.792969 84.476562 99.625 84.75 C 99.527344 84.90625 99.46875 85.09375 99.375 85.25 C 98.453125 86.773438 97.511719 88.292969 96.6875 89.875 C 96.375 90.007812 92.066406 87.132812 91.3125 86.875 C 90.558594 86.617188 90.503906 86.558594 89.75 86.875 C 88.824219 87.265625 85.285156 91.019531 83.9375 92 C 81.671875 93.648438 78.949219 95.160156 76.3125 96.125 C 75.140625 96.554688 69.832031 97.699219 69.4375 98 C 68.425781 98.765625 69.4375 105.222656 68.8125 105.5 C 68.8125 105.5 59.5 105.5 59.5 105.5 C 59.554688 103.34375 59.523438 101.15625 59.375 99 C 59.207031 97.539062 56.992188 97.804688 55.9375 97.5 C 51.179688 96.125 46.539062 93.921875 42.6875 90.75 C 41.859375 90.066406 38.949219 86.917969 38.3125 86.75 C 36.785156 86.347656 33.308594 89.199219 31.8125 89.875 C 31.8125 89.875 26.75 81.8125 26.75 81.8125 C 27.644531 80.722656 32.917969 78.347656 33.125 77.0625 C 33.238281 76.355469 31.675781 71.6875 31.5 70.4375 C 31.179688 68.15625 31.0625 65.871094 31.125 63.5625 C 31.125 63.5625 30.5 63.625 30.5 63.625 C 30.570312 62.707031 30.5 61.742188 30.625 60.8125 C 30.953125 58.382812 33.167969 54.148438 30.125 53.0625 C 30.125 53.0625 31.5 54.3125 31.5 54.3125 C 31.667969 54.972656 31.257812 54.839844 31.25 54.875 C 30.652344 53.671875 25.179688 51.542969 25 50.5625 C 24.929688 50.183594 25.117188 49.890625 25.25 49.5625 C 25.714844 48.421875 29.617188 41.746094 30.375 40.875 C 31.230469 40.429688 30.933594 40.980469 31.0625 41 C 31.160156 41.015625 31.585938 40.84375 32.0625 41 C 33.4375 41.449219 37.109375 44.183594 38.1875 43.75 C 38.242188 43.730469 38.984375 43.085938 38.8125 42.875 C 38.328125 43.417969 37.796875 44.066406 37.25 43.125 C 37.410156 43.175781 37.683594 43.402344 37.8125 43.375 C 43.171875 37.757812 49.9375 33.574219 57.6875 32.25 C 58.027344 30.898438 57.269531 25.472656 58.1875 24.75 C 58.210938 24.734375 58.660156 24.507812 58.6875 24.5 C 59.230469 24.371094 69.035156 24.367188 69.5625 24.5 C 69.789062 24.558594 70.316406 25.085938 70.375 25.3125 C 70.628906 26.324219 70.039062 31.839844 70.5625 32.25 C 78.296875 33.648438 85.140625 37.796875 90.4375 43.5 C 91.097656 43.601562 95.480469 40.257812 96.3125 40.125 C 96.890625 40.03125 97.285156 40.40625 97.625 40.8125 C 98.0625 41.339844 102.839844 49.074219 103 49.5625 C 103.101562 49.875 103.203125 50.234375 103.125 50.5625 C 102.96875 51.230469 98.117188 53.851562 97.25 54.375 Z M 63.0625 41 C 56.964844 41.214844 50.789062 44.054688 46.5 48.3125 C 46.5 48.3125 59.8125 55.75 59.8125 55.75 C 62.6875 54.863281 65.460938 54.945312 68.3125 55.875 C 68.3125 55.875 81.5 48.3125 81.5 48.3125 C 76.980469 43.441406 69.683594 40.765625 63.0625 41 Z M 38.125 70 C 39.308594 78.820312 48.292969 89.742188 57.4375 90.75 C 59.53125 90.980469 59.371094 89.851562 59.5 88.1875 C 59.898438 83.003906 59.171875 77.40625 59.375 72.1875 C 58.117188 71.1875 56.867188 69.753906 56.25 68.25 C 56.117188 67.929688 56.089844 66.660156 55.875 66.1875 C 55.300781 64.921875 54.632812 65.339844 53.8125 64.875 C 50.109375 62.773438 45.808594 59.78125 42.0625 58 C 40.621094 57.316406 39.832031 57.050781 39 58.8125 C 37.675781 61.609375 37.710938 66.910156 38.125 70 Z M 87.625 58.875 C 87.625 58.875 73.8125 66.625 73.8125 66.625 C 73.085938 68.992188 72.234375 71.203125 70.125 72.6875 C 70.785156 77.742188 69.664062 83.675781 70.25 88.625 C 70.28125 88.890625 70.140625 89.179688 70.4375 89.375 C 81.980469 86.597656 90.234375 75.113281 88.875 63.1875 C 88.808594 62.597656 88.09375 58.839844 87.625 58.875 Z M 87.625 58.875 "/>
<path style=" stroke:none;fill-rule:nonzero;fill:rgb(96.470588%,96.470588%,96.862745%);fill-opacity:1;" d="M 37.25 43.125 C 37.796875 44.066406 38.328125 43.417969 38.8125 42.875 C 38.984375 43.085938 38.242188 43.730469 38.1875 43.75 C 37.109375 44.183594 33.4375 41.449219 32.0625 41 C 31.585938 40.84375 31.160156 41.015625 31.0625 41 C 30.933594 40.980469 31.230469 40.429688 30.375 40.875 C 30.503906 40.726562 30.910156 40.167969 31.0625 40.125 C 32.121094 39.828125 35.882812 42.703125 37.25 43.125 Z M 37.25 43.125 "/>
<path style=" stroke:none;fill-rule:nonzero;fill:rgb(94.509804%,95.294118%,96.470588%);fill-opacity:1;" d="M 30.5 63.625 C 30.183594 67.78125 30.246094 69.980469 31.25 74.0625 C 31.363281 74.515625 32.285156 76.78125 32.25 76.9375 C 32.25 76.9375 25.75 81.5625 25.75 81.5625 C 26.964844 82.890625 30.066406 89.707031 31.3125 90.25 C 31.347656 90.265625 32.023438 90.378906 32.0625 90.375 C 32.460938 90.335938 36.085938 88.25 36.8125 87.875 C 37.085938 87.730469 37.402344 87.035156 37.9375 87.25 C 40.492188 89.8125 43.148438 92.433594 46.3125 94.25 C 49.550781 96.105469 52.863281 96.925781 56.1875 98 C 56.796875 98.195312 58.367188 98.617188 58.5 99.0625 C 58.703125 99.742188 58.285156 105.484375 58.6875 105.625 C 58.6875 105.625 59.25 105.4375 59.25 105.4375 C 58.964844 103.542969 59.578125 100.761719 59.375 99 C 59.523438 101.15625 59.554688 103.34375 59.5 105.5 C 59.496094 105.644531 59.035156 105.621094 59.4375 106.125 C 61.289062 105.757812 68.433594 106.664062 69.6875 106 C 69.890625 105.894531 69.824219 105.617188 70.125 105.5625 C 70.125 105.5625 69.9375 98.375 69.9375 98.375 C 70.5 98.65625 70.929688 98.230469 71.3125 98.125 C 76.867188 96.597656 80.804688 95.398438 85.4375 91.75 C 86.160156 91.179688 89.695312 88.011719 89.875 87.375 C 90.886719 87.226562 91.058594 87.820312 91.8125 88.25 C 92.382812 88.574219 96.300781 90.949219 96.5625 90.875 C 96.582031 90.871094 96.757812 90.570312 96.6875 90.5 C 96.6875 90.5 95.625 89.9375 95.625 89.9375 C 96.246094 90.03125 96.613281 90.6875 97.25 90.1875 C 97.464844 90.019531 99.742188 85.707031 99.75 85.4375 C 99.75 85.4375 99.375 85.25 99.375 85.25 C 99.46875 85.09375 99.527344 84.90625 99.625 84.75 C 99.882812 85.445312 100.140625 85.007812 100.5 84.625 C 100.582031 85.257812 101.0625 84.53125 101.125 84.4375 C 101.339844 84.109375 102.730469 81.726562 102.75 81.5625 C 102.917969 80.152344 101.117188 80.238281 100.5625 79.875 C 100.050781 79.542969 99.117188 78.53125 98.3125 78.125 C 97.5625 77.75 95.742188 78.03125 96.125 76.4375 C 96.167969 76.265625 96.890625 75.484375 97 75.1875 C 98.351562 71.523438 98.738281 65.300781 98.25 61.4375 C 97.960938 59.136719 97.148438 56.902344 96.625 54.6875 C 96.695312 54.460938 97.136719 54.445312 97.25 54.375 C 97.035156 54.71875 96.847656 54.695312 96.875 55.1875 C 96.910156 55.804688 97.828125 57.925781 98 58.8125 C 99.183594 64.898438 98.730469 70.957031 96.75 76.8125 C 97.609375 77.785156 103.03125 80.226562 103.125 81.1875 C 103.164062 81.582031 102.898438 81.972656 102.75 82.3125 C 102.375 83.175781 97.875 90.851562 97.4375 91.125 C 97.125 91.320312 96.683594 91.425781 96.3125 91.375 C 95.4375 91.253906 91.054688 88.03125 90.4375 88.125 C 86.464844 92.265625 81.644531 95.8125 76.1875 97.75 C 75.351562 98.046875 70.910156 99.070312 70.6875 99.25 C 69.929688 99.859375 70.683594 104.878906 70.375 106.0625 C 70.308594 106.316406 69.585938 106.941406 69.3125 107 C 68.582031 107.160156 59.855469 107.152344 59.0625 107 C 56.738281 106.546875 58.128906 101.203125 57.75 99.4375 C 57.625 99.101562 53 98.039062 52.1875 97.75 C 46.640625 95.785156 41.898438 92.269531 37.6875 88.25 C 36.175781 88.5625 32.476562 91.703125 31.1875 91.25 C 28.726562 88.332031 26.859375 84.578125 25 81.1875 C 25.316406 80.003906 31.324219 77.4375 31.5 76.8125 C 29.808594 71.535156 29.101562 66.214844 29.875 60.6875 C 30.148438 58.742188 30.792969 56.78125 31.25 54.875 C 31.257812 54.839844 31.667969 54.972656 31.5 54.3125 C 31.5 54.3125 30.125 53.0625 30.125 53.0625 C 33.167969 54.148438 30.953125 58.382812 30.625 60.8125 C 30.5 61.742188 30.570312 62.707031 30.5 63.625 Z M 30.5 63.625 "/>
<path style=" stroke:none;fill-rule:nonzero;fill:rgb(90.588236%,94.117647%,96.078432%);fill-opacity:1;" d="M 56.25 68.25 C 56.011719 68.222656 55.726562 68.289062 55.5 68.25 C 54.828125 68.132812 55.339844 67.511719 54.75 66.875 C 54.726562 66.851562 54.632812 66.753906 54.625 66.75 C 54.429688 66.121094 53.265625 66.007812 52.8125 65.625 C 52.660156 65.496094 52.835938 65.175781 52.6875 65 C 52.453125 64.722656 51.984375 65.097656 51.6875 65 C 50.957031 64.761719 51.113281 64.164062 51.0625 64.125 C 50.5 63.679688 48.476562 62.515625 47.8125 62.25 C 47.542969 62.140625 47.339844 62.507812 47.3125 62.5 C 47.253906 62.480469 46.382812 61.800781 46.6875 61.625 C 46.6875 61.625 40.4375 58.125 40.4375 58.125 C 39.835938 58.253906 38.953125 62.902344 38.875 63.6875 C 38.667969 65.753906 38.753906 67.949219 39 70 C 39 70 38.125 70 38.125 70 C 37.710938 66.910156 37.675781 61.609375 39 58.8125 C 39.832031 57.050781 40.621094 57.316406 42.0625 58 C 45.808594 59.78125 50.109375 62.773438 53.8125 64.875 C 54.632812 65.339844 55.300781 64.921875 55.875 66.1875 C 56.089844 66.660156 56.117188 67.929688 56.25 68.25 Z M 56.25 68.25 "/>
<path style=" stroke:none;fill-rule:nonzero;fill:rgb(94.117647%,93.725491%,92.54902%);fill-opacity:1;" d="M 54.625 66.75 C 51.277344 63.960938 44.550781 61.972656 40.9375 59.125 C 40.046875 58.550781 39.609375 61.328125 39.5 61.9375 C 37.449219 73.234375 44.363281 84.910156 55.1875 88.625 C 55.542969 88.746094 57.753906 89.496094 57.875 89.1875 C 57.875 89.1875 57.875 72.6875 57.875 72.6875 C 56.28125 71.136719 54.890625 69.148438 54.75 66.875 C 55.339844 67.511719 54.828125 68.132812 55.5 68.25 C 55.171875 68.976562 55.726562 68.898438 55.75 68.9375 C 56.152344 69.601562 56.730469 70.886719 57.125 71.4375 C 57.210938 71.558594 58.601562 72.59375 58.625 72.6875 C 59.175781 74.964844 58.84375 82.589844 58.75 85.3125 C 58.726562 86.015625 58.65625 89.722656 58.3125 90 C 57.175781 89.601562 55.800781 89.402344 54.6875 89 C 46.699219 86.097656 39.925781 77.722656 39 70 C 38.753906 67.949219 38.667969 65.753906 38.875 63.6875 C 38.953125 62.902344 39.835938 58.253906 40.4375 58.125 C 40.4375 58.125 46.6875 61.625 46.6875 61.625 C 46.382812 61.800781 47.253906 62.480469 47.3125 62.5 C 47.339844 62.507812 47.542969 62.140625 47.8125 62.25 C 48.476562 62.515625 50.5 63.679688 51.0625 64.125 C 51.113281 64.164062 50.957031 64.761719 51.6875 65 C 51.984375 65.097656 52.453125 64.722656 52.6875 65 C 52.835938 65.175781 52.660156 65.496094 52.8125 65.625 C 53.265625 66.007812 54.429688 66.121094 54.625 66.75 Z M 54.625 66.75 "/>
<path style=" stroke:none;fill-rule:nonzero;fill:rgb(80.000001%,79.215688%,80.392158%);fill-opacity:1;" d="M 59.375 99 C 59.578125 100.761719 58.964844 103.542969 59.25 105.4375 C 59.25 105.4375 58.6875 105.625 58.6875 105.625 C 58.285156 105.484375 58.703125 99.742188 58.5 99.0625 C 58.367188 98.617188 56.796875 98.195312 56.1875 98 C 52.863281 96.925781 49.550781 96.105469 46.3125 94.25 C 43.148438 92.433594 40.492188 89.8125 37.9375 87.25 C 37.402344 87.035156 37.085938 87.730469 36.8125 87.875 C 36.085938 88.25 32.460938 90.335938 32.0625 90.375 C 32.023438 90.378906 31.347656 90.265625 31.3125 90.25 C 30.066406 89.707031 26.964844 82.890625 25.75 81.5625 C 25.75 81.5625 32.25 76.9375 32.25 76.9375 C 32.285156 76.78125 31.363281 74.515625 31.25 74.0625 C 30.246094 69.980469 30.183594 67.78125 30.5 63.625 C 30.5 63.625 31.125 63.5625 31.125 63.5625 C 31.0625 65.871094 31.179688 68.15625 31.5 70.4375 C 31.675781 71.6875 33.238281 76.355469 33.125 77.0625 C 32.917969 78.347656 27.644531 80.722656 26.75 81.8125 C 26.75 81.8125 31.8125 89.875 31.8125 89.875 C 33.308594 89.199219 36.785156 86.347656 38.3125 86.75 C 38.949219 86.917969 41.859375 90.066406 42.6875 90.75 C 46.539062 93.921875 51.179688 96.125 55.9375 97.5 C 56.992188 97.804688 59.207031 97.539062 59.375 99 Z M 59.375 99 "/>
<path style=" stroke:none;fill-rule:nonzero;fill:rgb(84.705883%,83.92157%,84.313726%);fill-opacity:1;" d="M 56.25 68.25 C 56.867188 69.753906 58.117188 71.1875 59.375 72.1875 C 59.171875 77.40625 59.898438 83.003906 59.5 88.1875 C 59.371094 89.851562 59.53125 90.980469 57.4375 90.75 C 48.292969 89.742188 39.308594 78.820312 38.125 70 C 38.125 70 39 70 39 70 C 39.925781 77.722656 46.699219 86.097656 54.6875 89 C 55.800781 89.402344 57.175781 89.601562 58.3125 90 C 58.65625 89.722656 58.726562 86.015625 58.75 85.3125 C 58.84375 82.589844 59.175781 74.964844 58.625 72.6875 C 58.601562 72.59375 57.210938 71.558594 57.125 71.4375 C 56.730469 70.886719 56.152344 69.601562 55.75 68.9375 C 55.726562 68.898438 55.171875 68.976562 55.5 68.25 C 55.726562 68.289062 56.011719 68.222656 56.25 68.25 Z M 56.25 68.25 "/>
<path style=" stroke:none;fill-rule:nonzero;fill:rgb(80.784315%,84.705883%,89.411765%);fill-opacity:1;" d="M 100.5 84.625 C 100.140625 85.007812 99.882812 85.445312 99.625 84.75 C 99.792969 84.476562 100.8125 82.636719 100.9375 82.625 C 100.976562 82.621094 101.503906 83.148438 101.5 83.1875 C 101.496094 83.273438 100.625 84.492188 100.5 84.625 Z M 100.5 84.625 "/>
<path style=" stroke:none;fill-rule:nonzero;fill:rgb(72.156864%,72.941178%,74.901962%);fill-opacity:1;" d="M 89.875 87.375 C 89.933594 87.167969 89.699219 87.085938 89.75 86.875 C 90.503906 86.558594 90.558594 86.617188 91.3125 86.875 C 92.066406 87.132812 96.375 90.007812 96.6875 89.875 C 97.511719 88.292969 98.453125 86.773438 99.375 85.25 C 99.375 85.25 99.75 85.4375 99.75 85.4375 C 99.742188 85.707031 97.464844 90.019531 97.25 90.1875 C 96.613281 90.6875 96.246094 90.03125 95.625 89.9375 C 95.625 89.9375 96.6875 90.5 96.6875 90.5 C 96.757812 90.570312 96.582031 90.871094 96.5625 90.875 C 96.300781 90.949219 92.382812 88.574219 91.8125 88.25 C 91.058594 87.820312 90.886719 87.226562 89.875 87.375 Z M 89.875 87.375 "/>
<path style=" stroke:none;fill-rule:nonzero;fill:rgb(80.392158%,81.176472%,83.529413%);fill-opacity:1;" d="M 89.875 87.375 C 89.695312 88.011719 86.160156 91.179688 85.4375 91.75 C 80.804688 95.398438 76.867188 96.597656 71.3125 98.125 C 70.929688 98.230469 70.5 98.65625 69.9375 98.375 C 69.9375 98.375 70.125 105.5625 70.125 105.5625 C 69.824219 105.617188 69.890625 105.894531 69.6875 106 C 68.433594 106.664062 61.289062 105.757812 59.4375 106.125 C 59.035156 105.621094 59.496094 105.644531 59.5 105.5 C 59.5 105.5 68.8125 105.5 68.8125 105.5 C 69.4375 105.222656 68.425781 98.765625 69.4375 98 C 69.832031 97.699219 75.140625 96.554688 76.3125 96.125 C 78.949219 95.160156 81.671875 93.648438 83.9375 92 C 85.285156 91.019531 88.824219 87.265625 89.75 86.875 C 89.699219 87.085938 89.933594 87.167969 89.875 87.375 Z M 89.875 87.375 "/>
</g>
</svg>
