<?xml version="1.0" encoding="UTF-8"?>
<svg xmlns="http://www.w3.org/2000/svg" xmlns:xlink="http://www.w3.org/1999/xlink" width="128" height="128" viewBox="0 0 128 128" version="1.1">
<g id="surface1">
<path style=" stroke:none;fill-rule:nonzero;fill:rgb(99.607843%,99.607843%,99.607843%);fill-opacity:1;" d="M 26.125 88.5 C 26.019531 88.230469 25.871094 87.953125 25.75 87.6875 C 26.394531 79.945312 24.890625 70.765625 25.75 63.1875 C 25.789062 62.828125 26.011719 61.753906 26.25 61.5 C 26.273438 61.472656 26.855469 61.328125 26.9375 61.25 C 38.011719 50.417969 48.640625 39.113281 59.75 28.3125 C 56.085938 18.988281 71.570312 19.027344 68 28.3125 C 68 28.3125 101.625 61.8125 101.625 61.8125 C 101.648438 62.355469 101.9375 62.917969 102 63.4375 C 102.523438 67.855469 102.589844 82.996094 102 87.3125 C 101.300781 92.4375 88.675781 102.007812 83.6875 102.75 C 83.6875 102.75 44.1875 102.75 44.1875 102.75 C 39.0625 102 28.015625 93.371094 26.125 88.5 Z M 66.9375 29.5 C 66.9375 29.5 66.375 29.9375 66.375 29.9375 C 66.753906 31.960938 65.882812 46.242188 66.375 46.9375 C 66.511719 47.132812 67.726562 46.890625 67.9375 47 C 68.316406 47.199219 68.035156 50.675781 68.125 51.3125 C 68.125 51.3125 83.4375 51.375 83.4375 51.375 C 86.734375 52.507812 89.851562 54.023438 92.9375 55.625 Z M 60.6875 29.625 C 60.6875 29.625 34.9375 55.625 34.9375 55.625 C 37.875 53.902344 41.003906 52.574219 44.1875 51.375 C 44.1875 51.375 59.625 51.1875 59.625 51.1875 C 59.78125 50.496094 59.417969 47.589844 59.625 47.1875 C 59.820312 46.808594 61.199219 47.210938 61.375 46.8125 C 61.375 46.8125 61.375 30.0625 61.375 30.0625 C 61.164062 29.894531 61.039062 29.566406 60.6875 29.625 Z M 36.3125 64.5 C 35.929688 64.855469 35.605469 65.136719 35.5 65.6875 C 35.238281 67.078125 35.234375 80.070312 35.5 81.4375 C 35.605469 81.980469 36.023438 82.457031 36.5625 82.625 C 36.5625 82.625 51.9375 82.5 51.9375 82.5 C 52.210938 82.238281 52.539062 81.953125 52.625 81.5625 C 52.859375 80.484375 52.851562 66.726562 52.625 65.5625 C 52.554688 65.210938 52.183594 64.597656 51.8125 64.5 Z M 59.3125 64.5 C 58.996094 64.578125 58.664062 65.039062 58.5 65.3125 C 58.875 67.652344 57.902344 79.871094 58.75 81.0625 C 58.839844 81.1875 59.1875 81.46875 59.3125 81.5 C 59.773438 81.621094 68.136719 81.683594 68.5625 81.5 C 68.6875 81.445312 69.214844 80.828125 69.25 80.6875 C 68.632812 77.699219 70.113281 67.226562 69.125 65.0625 C 69.105469 65.019531 68.601562 64.511719 68.5625 64.5 C 68.121094 64.363281 59.769531 64.382812 59.3125 64.5 Z M 75.25 65.625 C 74.875 67.824219 74.945312 78.902344 75.25 81.25 C 75.355469 82.054688 75.410156 82.261719 76.1875 82.625 C 76.1875 82.625 91.4375 82.625 91.4375 82.625 C 91.4375 82.625 92.25 81.8125 92.25 81.8125 C 92.25 81.8125 92.25 65.3125 92.25 65.3125 C 92.25 65.3125 91.6875 64.625 91.6875 64.625 C 91.6875 64.625 76.0625 64.5 76.0625 64.5 C 75.507812 64.804688 75.351562 65.019531 75.25 65.625 Z M 31.4375 65.375 C 31.113281 65.421875 30.574219 65.992188 30.5 66.3125 C 30.332031 67.035156 30.332031 79.949219 30.5 80.6875 C 30.804688 82.027344 32.597656 81.847656 32.875 80.5625 C 33.09375 79.546875 33.085938 67.65625 32.875 66.5625 C 32.742188 65.875 32.167969 65.269531 31.4375 65.375 Z M 96.0625 65.375 C 95.65625 65.410156 95.191406 65.96875 95 66.3125 C 95 66.3125 95 80.8125 95 80.8125 C 95.53125 81.855469 96.621094 81.941406 97.25 80.9375 C 97.25 80.9375 97.25 66.1875 97.25 66.1875 C 97.039062 65.746094 96.566406 65.332031 96.0625 65.375 Z M 96.0625 65.375 "/>
<path style=" stroke:none;fill-rule:nonzero;fill:rgb(40.392157%,39.607844%,33.333334%);fill-opacity:1;" d="M 68.125 67 C 68.125 67 67.25 67.125 67.25 67.125 C 67.214844 66.890625 67.34375 66.675781 67.0625 66.5 C 66.25 66.644531 60.828125 66.3125 60.5625 66.5 C 60.328125 66.667969 60.894531 67.488281 59.75 67.25 C 59.664062 67.089844 59.902344 66.503906 59.625 66.375 C 59.644531 66.195312 59.558594 65.714844 59.6875 65.625 C 59.6875 65.625 68.0625 65.625 68.0625 65.625 C 68.191406 65.714844 68.113281 66.757812 68.125 67 Z M 68.125 67 "/>
<path style=" stroke:none;fill-rule:nonzero;fill:rgb(43.137255%,42.352942%,36.078432%);fill-opacity:1;" d="M 67.25 67.125 C 67.421875 68.230469 67.171875 69.75 67.0625 70.875 C 66.65625 70.523438 67.277344 68.503906 66.9375 68.125 C 65.054688 68.265625 62.984375 68.988281 61.0625 68.125 C 60.960938 68.078125 61.074219 67.800781 60.8125 67.625 C 60.636719 67.507812 59.847656 67.429688 59.75 67.25 C 60.894531 67.488281 60.328125 66.667969 60.5625 66.5 C 60.828125 66.3125 66.25 66.644531 67.0625 66.5 C 67.34375 66.675781 67.214844 66.890625 67.25 67.125 Z M 67.25 67.125 "/>
<path style=" stroke:none;fill-rule:nonzero;fill:rgb(29.803923%,29.019609%,25.098041%);fill-opacity:1;" d="M 60.4375 70 C 60.59375 69.761719 61.351562 70.355469 61.125 71.1875 C 60.777344 72.46875 59.953125 70.746094 60.4375 70 Z M 60.4375 70 "/>
</g>
</svg>
