<?xml version="1.0" encoding="UTF-8"?>
<svg xmlns="http://www.w3.org/2000/svg" xmlns:xlink="http://www.w3.org/1999/xlink" width="128" height="128" viewBox="0 0 128 128" version="1.1">
<g id="surface1">
<path style=" stroke:none;fill-rule:nonzero;fill:rgb(99.215686%,98.823529%,98.823529%);fill-opacity:1;" d="M 26.5 67.125 C 26.34375 66.609375 26.230469 66.027344 26.125 65.5 C 25.464844 62.195312 25.523438 58.925781 26.25 55.625 C 29.132812 46.496094 37.628906 40.558594 47.3125 41.75 C 48.316406 41.875 50.0625 42.636719 50.9375 42.5 C 52.425781 42.265625 55.628906 36.984375 57.6875 36.625 C 59.914062 36.238281 60.710938 38.09375 62.3125 39.125 C 62.449219 38.621094 62.300781 38.058594 62.5 37.5625 C 62.640625 37.214844 66.09375 34.265625 66.5625 34.125 C 67.230469 33.925781 68.238281 34.171875 68.3125 34.125 C 68.390625 34.074219 68.425781 32.863281 68.875 32.3125 C 69.433594 31.628906 72.945312 30.761719 73.8125 30.75 C 75.027344 30.734375 77.324219 32.03125 76.25 33.3125 C 76.25 33.3125 77.25 33.0625 77.25 33.0625 C 77.160156 34.539062 79.148438 35.59375 77.3125 36.625 C 77.117188 36.734375 76.367188 36.34375 76.625 37.1875 C 76.695312 37.417969 80.449219 39.714844 80.6875 39.75 C 82.304688 39.992188 80.917969 38.863281 80.875 38.6875 C 80.679688 37.878906 81.332031 37.050781 82.1875 37.125 C 82.539062 37.15625 83.585938 38.457031 83.375 37.3125 C 83.316406 36.992188 78.5 34.210938 77.8125 33.875 C 77.59375 33.664062 77.203125 32.894531 77.5625 32.75 C 79.164062 32.5 80.523438 33.449219 81.8125 34.25 C 83.710938 35.429688 86.007812 36.921875 83.9375 39.25 C 83.335938 39.398438 79.675781 40.910156 79.4375 40.875 C 79.210938 40.839844 75.8125 38.621094 75.625 38.3125 C 74.605469 36.632812 75.824219 36.160156 76.3125 34.75 C 75.324219 34.890625 75.074219 37.421875 74.9375 37.5 C 74.761719 37.601562 71.121094 38.339844 70.9375 38.25 C 70.9375 38.25 70.6875 37.25 70.6875 37.25 C 70.609375 37.90625 70.617188 38.558594 70.375 39.1875 C 70.0625 39.996094 66.652344 43.339844 65.5 42.4375 C 67.375 43.847656 69.234375 45.734375 67.75 48.1875 C 66.976562 49.460938 63.101562 52.164062 62.75 53.1875 C 62.390625 54.234375 63.742188 57.453125 63.875 58.9375 C 65.167969 73.222656 51.570312 83.664062 38.0625 78.75 C 32.691406 76.796875 28.738281 72.261719 26.5 67.125 Z M 73.8125 32.375 C 73.316406 32.390625 69.054688 33.316406 69.125 33.8125 C 69.761719 34.203125 70.855469 33.777344 71.25 34.6875 C 71.648438 35.609375 70.605469 35.875 70.9375 36.75 C 71.464844 36.734375 74.914062 36.054688 75 35.8125 C 75.140625 35.414062 73.816406 35.5 74.125 34.1875 C 74.320312 33.355469 75.570312 33.660156 75.5 33.0625 C 75.066406 32.519531 74.496094 32.355469 73.8125 32.375 Z M 67.5625 35.125 C 67.113281 35.617188 63.507812 38.539062 63.5 38.8125 C 63.492188 39.035156 63.5 39.113281 63.6875 39.25 C 66.246094 38.671875 65.171875 41 65.25 41.1875 C 65.582031 41.972656 69.199219 38.691406 69.25 38.4375 C 69.269531 38.328125 69.28125 38.0625 69.1875 38 C 67.214844 38.246094 67.40625 36.574219 67.5625 35.125 Z M 68.9375 35.5 C 68.9375 35.5 68.875 35.8125 68.875 35.8125 C 68.875 35.8125 69.9375 36.75 69.9375 36.75 C 70.21875 36.640625 69.167969 35.511719 68.9375 35.5 Z M 43.8125 49.75 C 30.195312 50.738281 30.511719 70.996094 43.4375 71.875 C 60.457031 73.035156 59.234375 48.628906 43.8125 49.75 Z M 43.8125 49.75 "/>
<path style=" stroke:none;fill-rule:nonzero;fill:rgb(93.725491%,94.117647%,94.509804%);fill-opacity:1;" d="M 65.5 87.375 C 65.488281 87.339844 65.515625 87.28125 65.5 87.25 C 65.003906 86.242188 64.25 85.117188 63.875 84.0625 C 61.078125 76.203125 63.828125 67.332031 70.5625 62.5 C 71.421875 61.882812 73.558594 61.175781 74 60.3125 C 74.734375 58.863281 73.949219 54.125 74.25 52.1875 C 74.738281 49.042969 78.15625 49.570312 80.5 49.6875 C 78.308594 48.996094 78.71875 42.6875 79.625 41.4375 C 80.839844 39.753906 84.164062 39.65625 85.25 41.4375 C 85.917969 42.53125 86.117188 49.097656 84.125 49.6875 C 92.945312 48.195312 88.664062 55.851562 90 60.1875 C 90.308594 61.1875 93.300781 62.65625 94.3125 63.5 C 103.460938 71.160156 102.789062 85.660156 93.1875 92.625 C 84.113281 99.207031 71.441406 96.839844 65.5 87.375 Z M 83.0625 41.5 C 83.910156 44.457031 80.894531 44.84375 81.4375 41.625 C 81.261719 41.484375 80.65625 42.414062 80.625 42.5625 C 80.460938 43.316406 80.167969 49.027344 81.4375 48.75 C 81.480469 46.359375 83.386719 46.0625 83.3125 48.625 C 83.632812 48.578125 84.046875 48.234375 84.125 47.9375 C 84.195312 47.660156 84.203125 42.582031 84.125 42.3125 C 84.085938 42.179688 83.214844 41.414062 83.0625 41.5 Z M 75.25 59.75 C 74.992188 61.652344 73.757812 61.769531 72.5 62.625 C 72.5 61.847656 73.378906 61.90625 73.6875 61.375 C 73.363281 60.839844 69.875 63.261719 69.4375 63.625 C 63.644531 68.429688 60.429688 80.347656 65.375 86.5625 C 65.828125 87.132812 65.632812 86.539062 66.25 86.5 C 75.699219 102.230469 100.082031 95.3125 99.875 77.125 C 100.140625 77.085938 100.339844 77.277344 100.5 76.9375 C 100.589844 76.75 100.109375 73.660156 100 73.1875 C 99.230469 69.875 96.894531 66.097656 94.3125 63.875 C 93.164062 62.882812 91.164062 62.0625 90.3125 61.25 C 88.085938 59.128906 91.882812 50.582031 87.1875 49.875 C 85.609375 49.636719 84.1875 50.265625 82.9375 50.25 C 80.8125 50.226562 76.394531 48.929688 75 50.9375 C 74.242188 52.03125 74.78125 52.925781 74.75 53.9375 C 74.707031 55.285156 74.367188 57.980469 74.625 59.1875 C 74.648438 59.296875 75.054688 59.777344 75.25 59.75 Z M 75.25 59.75 "/>
<path style=" stroke:none;fill-rule:nonzero;fill:rgb(89.411765%,89.803922%,90.196079%);fill-opacity:1;" d="M 43.8125 49.75 C 59.234375 48.628906 60.457031 73.035156 43.4375 71.875 C 30.511719 70.996094 30.195312 50.738281 43.8125 49.75 Z M 43.4375 50.875 C 30.847656 52.203125 32.007812 72.402344 46.1875 70.875 C 58.699219 69.527344 57.148438 49.425781 43.4375 50.875 Z M 43.4375 50.875 "/>
<path style=" stroke:none;fill-rule:nonzero;fill:rgb(84.705883%,85.09804%,85.490197%);fill-opacity:1;" d="M 99.875 77.125 C 99.78125 68.980469 95.828125 66.515625 90.3125 62.125 C 87.371094 59.785156 89.742188 54.617188 88.875 51.8125 C 88.851562 51.738281 87.886719 50.652344 87.8125 50.625 C 87.8125 50.625 76.6875 50.625 76.6875 50.625 C 76.09375 50.925781 75.386719 51.472656 75.25 52.1875 C 74.855469 54.238281 75.546875 57.554688 75.25 59.75 C 75.054688 59.777344 74.648438 59.296875 74.625 59.1875 C 74.367188 57.980469 74.707031 55.285156 74.75 53.9375 C 74.78125 52.925781 74.242188 52.03125 75 50.9375 C 76.394531 48.929688 80.8125 50.226562 82.9375 50.25 C 84.1875 50.265625 85.609375 49.636719 87.1875 49.875 C 91.882812 50.582031 88.085938 59.128906 90.3125 61.25 C 91.164062 62.0625 93.164062 62.882812 94.3125 63.875 C 96.894531 66.097656 99.230469 69.875 100 73.1875 C 100.109375 73.660156 100.589844 76.75 100.5 76.9375 C 100.339844 77.277344 100.140625 77.085938 99.875 77.125 Z M 99.875 77.125 "/>
<path style=" stroke:none;fill-rule:nonzero;fill:rgb(99.607843%,99.607843%,99.607843%);fill-opacity:1;" d="M 99.875 77.125 C 100.082031 95.3125 75.699219 102.230469 66.25 86.5 C 60.878906 77.558594 64.355469 68.167969 72.5 62.625 C 73.757812 61.769531 74.992188 61.652344 75.25 59.75 C 75.546875 57.554688 74.855469 54.238281 75.25 52.1875 C 75.386719 51.472656 76.09375 50.925781 76.6875 50.625 C 76.6875 50.625 87.8125 50.625 87.8125 50.625 C 87.886719 50.652344 88.851562 51.738281 88.875 51.8125 C 89.742188 54.617188 87.371094 59.785156 90.3125 62.125 C 95.828125 66.515625 99.78125 68.980469 99.875 77.125 Z M 70.875 79 C 72.40625 92.476562 94 91.078125 92.75 76.625 C 91.527344 62.503906 69.183594 64.105469 70.875 79 Z M 70.875 79 "/>
<path style=" stroke:none;fill-rule:nonzero;fill:rgb(85.09804%,85.490197%,86.274511%);fill-opacity:1;" d="M 72.5 62.625 C 64.355469 68.167969 60.878906 77.558594 66.25 86.5 C 65.632812 86.539062 65.828125 87.132812 65.375 86.5625 C 60.429688 80.347656 63.644531 68.429688 69.4375 63.625 C 69.875 63.261719 73.363281 60.839844 73.6875 61.375 C 73.378906 61.90625 72.5 61.847656 72.5 62.625 Z M 72.5 62.625 "/>
<path style=" stroke:none;fill-rule:nonzero;fill:rgb(84.313726%,84.705883%,84.705883%);fill-opacity:1;" d="M 92.75 76.625 C 91.9375 78.632812 91.875 75.480469 91.625 74.6875 C 90.410156 70.855469 87.625 68.753906 84.0625 67.75 C 83.9375 67.714844 83.980469 67.261719 83.5625 67.25 C 83.242188 67.242188 82.972656 67.5 82.9375 67.5 C 77.085938 67.324219 72.25 70.304688 71.375 76.9375 C 71.320312 77.367188 71.949219 79.335938 70.875 79 C 69.183594 64.105469 91.527344 62.503906 92.75 76.625 Z M 92.75 76.625 "/>
<path style=" stroke:none;fill-rule:nonzero;fill:rgb(91.37255%,92.156863%,92.156863%);fill-opacity:1;" d="M 92.75 76.625 C 94 91.078125 72.40625 92.476562 70.875 79 C 71.949219 79.335938 71.320312 77.367188 71.375 76.9375 C 72.25 70.304688 77.085938 67.324219 82.9375 67.5 C 82.972656 67.5 83.242188 67.242188 83.5625 67.25 C 83.980469 67.261719 83.9375 67.714844 84.0625 67.75 C 87.625 68.753906 90.410156 70.855469 91.625 74.6875 C 91.875 75.480469 91.9375 78.632812 92.75 76.625 Z M 80.6875 67.75 C 68.125 68.882812 69.179688 88.910156 83.1875 87.375 C 95.5625 86.019531 93.929688 66.554688 80.6875 67.75 Z M 80.6875 67.75 "/>
</g>
</svg>
