<?xml version="1.0" encoding="UTF-8"?>
<svg xmlns="http://www.w3.org/2000/svg" xmlns:xlink="http://www.w3.org/1999/xlink" width="128" height="128" viewBox="0 0 128 128" version="1.1">
<g id="surface1">
<path style=" stroke:none;fill-rule:nonzero;fill:rgb(98.823529%,99.215686%,99.215686%);fill-opacity:1;" d="M 99.25 44.75 C 99.746094 45.53125 100.347656 47.691406 100.5 48.625 C 101.472656 54.511719 100.253906 60.496094 96.75 65.3125 C 96.75 65.3125 63.8125 98.25 63.8125 98.25 C 63.8125 98.25 31.75 66.1875 31.75 66.1875 C 15.519531 44.746094 44.714844 16.949219 63.9375 38 C 70.464844 30.429688 82.421875 27.558594 90.5 34.4375 C 90.5 34.4375 64.1875 60.125 64.1875 60.125 C 64.1875 60.125 49.9375 46.125 49.9375 46.125 C 49.9375 46.125 40.875 55.0625 40.875 55.0625 C 40.875 55.0625 40.625 56.3125 40.625 56.3125 C 40.625 56.3125 63.4375 79.125 63.4375 79.125 C 63.746094 79.085938 64.152344 79.183594 64.4375 79.125 C 64.855469 79.039062 68.773438 75.136719 69.4375 74.5 C 79.570312 64.800781 89.214844 54.550781 99.25 44.75 Z M 77.5 67 C 77.132812 67.363281 77.488281 67.328125 77.3125 67.5 C 77.21875 67.59375 77.074219 67.367188 77.0625 67.375 C 75.339844 69.070312 65.839844 79.082031 64.6875 79.5 C 64.40625 79.601562 63.851562 79.675781 63.5625 79.625 C 62.90625 79.507812 57.84375 74.386719 56.9375 73.5 C 51.542969 68.234375 46.296875 62.796875 41.0625 57.375 C 40.878906 57.25 40.507812 57.777344 40.5 57.8125 C 40.230469 59.042969 44.007812 62.019531 44.875 63 C 48.210938 66.726562 51.953125 69.957031 55.4375 73.375 C 56.347656 74.265625 58.03125 75.964844 58.625 76.9375 C 58.648438 76.976562 58.34375 77.300781 58.625 77.8125 C 58.652344 77.863281 59.359375 78.308594 59.5 78.5625 C 59.921875 79.332031 59.253906 79.5 60 80.1875 C 60.132812 80.308594 60.28125 79.976562 60.3125 80 C 60.359375 80.035156 60.980469 80.816406 61.0625 80.875 C 61.117188 80.914062 62.144531 81.257812 62.3125 81.375 C 62.785156 81.703125 61.925781 82.023438 63 81.875 C 62.71875 83 63.898438 82.425781 64.4375 82.375 C 64.488281 82.371094 64.617188 82.671875 64.8125 82.625 C 64.953125 82.59375 66.402344 81.859375 66.5625 81.75 C 66.878906 81.53125 66.828125 81.054688 67.0625 80.875 C 67.269531 80.714844 67.78125 80.773438 67.8125 80.75 C 68.421875 80.265625 69.0625 79.480469 69.5625 78.875 C 70.339844 78.511719 69.550781 79.554688 70.0625 79.625 C 70.433594 78.804688 71.226562 78.484375 71.875 77.9375 C 71.921875 77.898438 71.800781 77.589844 71.9375 77.5 C 71.96875 77.480469 72.023438 77.878906 72.1875 77.75 C 73.003906 77.101562 72.761719 76.582031 72.875 76.4375 C 73.109375 76.132812 74.144531 75.144531 74.5 74.75 C 74.824219 74.390625 76.089844 73 76.25 72.875 C 76.714844 72.519531 77.621094 72.539062 77.6875 72.5 C 78.011719 72.300781 79.726562 70.625 79.875 70.3125 C 79.972656 70.113281 79.761719 69.539062 79.8125 69.5 C 79.875 69.449219 80.25 69.550781 80.3125 69.5 C 81.136719 68.84375 81.777344 67.941406 82.5625 67.25 C 84.199219 65.808594 85.269531 64.816406 86.75 63.3125 C 87.277344 62.777344 89.574219 60.972656 89.75 60.6875 C 90.71875 59.105469 88.902344 61.050781 88.8125 61 C 88.515625 60.832031 89.386719 60.242188 88.625 60 C 89.828125 58.976562 90.566406 57.941406 91.5625 57 C 91.980469 56.605469 93.46875 55.875 93.6875 55.625 C 94.015625 55.25 93.789062 55.046875 93.875 54.875 C 94.195312 54.789062 95.25 54.792969 95.3125 54.75 C 95.382812 54.703125 96.273438 53.585938 96.375 53.4375 C 96.4375 53.347656 96.3125 52.792969 96.375 52.6875 C 96.488281 52.496094 97.453125 51.824219 97.5 51.6875 C 97.609375 51.351562 97.492188 49.601562 97.5 49.0625 C 97.5 48.96875 97.25 49.03125 97.25 48.9375 C 97.253906 48.835938 98.367188 47.558594 97.1875 47.375 C 90.699219 53.980469 84.097656 60.496094 77.5 67 Z M 77.5 67 "/>
<path style=" stroke:none;fill-rule:nonzero;fill:rgb(12.156863%,11.372549%,14.117648%);fill-opacity:1;" d="M 83.8125 41.75 C 83.910156 41.75 83.90625 42.25 83.8125 42.25 C 83.714844 42.25 83.71875 41.75 83.8125 41.75 Z M 83.8125 41.75 "/>
</g>
</svg>
