<?xml version="1.0" encoding="UTF-8"?>
<svg xmlns="http://www.w3.org/2000/svg" xmlns:xlink="http://www.w3.org/1999/xlink" width="128" height="128" viewBox="0 0 128 128" version="1.1">
<g id="surface1">
<path style=" stroke:none;fill-rule:nonzero;fill:rgb(89.411765%,89.803922%,93.725491%);fill-opacity:1;" d="M 97.375 55.25 C 96.976562 57.714844 96.117188 60.15625 94.75 62.25 C 95.421875 60.972656 96.019531 58.921875 96.4375 57.5 C 95.660156 59.5625 94.542969 61.269531 93.125 62.9375 C 93.125 62.9375 63.9375 92.125 63.9375 92.125 C 63.9375 92.125 34.25 62.5625 34.25 62.5625 C 33.132812 61.148438 32.171875 59.65625 31.4375 58 C 31.855469 59.273438 32.390625 61.097656 33 62.25 C 32.507812 61.558594 32.09375 60.773438 31.75 60 C 23.796875 42.003906 44.371094 26.320312 59.1875 38.75 C 60.792969 40.097656 62.21875 41.976562 63.8125 43.375 C 67.398438 40.03125 70.339844 36.34375 75.3125 35 C 88.242188 31.511719 99.476562 42.214844 97.375 55.25 Z M 97.375 55.25 "/>
<path style=" stroke:none;fill-rule:nonzero;fill:rgb(55.29412%,56.470591%,57.254905%);fill-opacity:1;" d="M 94.75 62.25 C 94.332031 63.042969 93.75 63.703125 93.25 64.4375 C 93.25 64.4375 63.8125 93.875 63.8125 93.875 C 63.8125 93.875 35.125 65.1875 35.125 65.1875 C 34.382812 64.226562 33.574219 63.332031 33 62.25 C 32.390625 61.097656 31.855469 59.273438 31.4375 58 C 32.171875 59.65625 33.132812 61.148438 34.25 62.5625 C 34.25 62.5625 63.9375 92.125 63.9375 92.125 C 63.9375 92.125 93.125 62.9375 93.125 62.9375 C 94.542969 61.269531 95.660156 59.5625 96.4375 57.5 C 96.019531 58.921875 95.421875 60.972656 94.75 62.25 Z M 94.75 62.25 "/>
</g>
</svg>
