<?xml version="1.0" encoding="UTF-8"?>
<svg xmlns="http://www.w3.org/2000/svg" xmlns:xlink="http://www.w3.org/1999/xlink" width="128" height="128" viewBox="0 0 128 128" version="1.1">
<g id="surface1">
<path style=" stroke:none;fill-rule:nonzero;fill:rgb(97.647059%,99.215686%,99.607843%);fill-opacity:1;" d="M 50.875 32.875 C 50.804688 33.023438 50.199219 33.707031 50 34 C 43.296875 43.980469 38.75 51.304688 39 64 C 39.160156 72.160156 43.429688 80.285156 50.4375 84.625 C 58.832031 89.820312 73.167969 88.820312 80.5 82 C 80.5 82 80.5625 82.625 80.5625 82.625 C 84.25 79.085938 87.765625 73.457031 88.5 68.3125 C 88.570312 67.804688 88.234375 68.1875 88.25 68.0625 C 88.347656 67.28125 88.558594 66.460938 88.625 65.6875 C 88.660156 65.277344 88.792969 64.007812 88.375 63.75 C 88.367188 61.851562 88.140625 60.460938 87.75 58.625 C 88.332031 57.386719 87.695312 55.324219 87.375 53.9375 C 85.644531 46.464844 81.125 38.953125 76.125 33.25 C 75.925781 31.09375 75.445312 25.003906 75.875 23.0625 C 75.988281 22.550781 76.609375 22.089844 77.0625 21.875 C 77.0625 21.875 94.3125 21.875 94.3125 21.875 C 94.636719 22.089844 95.015625 22.222656 95.25 22.5625 C 95.921875 23.527344 95.820312 28.636719 95.125 29.875 C 94.777344 30.015625 94.507812 30.515625 93.9375 30.625 C 91.855469 31.027344 89.15625 29.789062 87.5 31.9375 C 86.332031 33.457031 87.160156 33.328125 88 34.25 C 99.117188 46.492188 105.414062 59.820312 101.125 76.875 C 98.433594 87.570312 90.296875 96.265625 80.5 100.9375 C 80.425781 101.199219 81.5 103.09375 81.625 103.5 C 81.714844 103.800781 81.792969 104.132812 81.875 104.4375 C 81.867188 104.464844 81.5625 104.710938 81.5 104.75 C 81.023438 105.050781 79.375 105.277344 78.5 105.75 C 69.128906 108.074219 59.132812 108.398438 49.75 105.875 C 49.019531 105.679688 46.519531 104.953125 46 104.625 C 45.304688 104.1875 45.804688 103.988281 46 103.375 C 46.265625 102.539062 46.664062 101.746094 47 100.9375 C 37.628906 96.273438 29.722656 88.175781 26.5 78.0625 C 26.179688 77.054688 26.011719 75.960938 25.75 74.9375 C 25.691406 74.707031 25.769531 74.472656 25.375 74.5 C 23.015625 57.203125 28.257812 46.667969 39 34 C 39.253906 33.703125 40.332031 33 40.25 32.5625 C 38.890625 29.671875 33.800781 31.558594 32.625 29.875 C 32.160156 29.210938 32.097656 24.980469 32.25 24.0625 C 32.382812 23.257812 33.226562 22.046875 34.0625 21.875 C 35.136719 21.65625 49.035156 21.652344 50.0625 21.875 C 50.335938 21.933594 50.863281 22.324219 51 22.5625 C 51.464844 23.375 51.351562 31.867188 50.875 32.875 Z M 34.5 64.875 C 34.484375 64.191406 34.609375 63.105469 34.5 62.5 C 34.464844 62.304688 34.5625 62.152344 34.3125 62 C 33.523438 62.492188 30.019531 61.617188 29.75 62.3125 C 29.261719 63.570312 30.070312 69.289062 29.8125 71 C 29.8125 71 34.5 70.9375 34.5 70.9375 C 34.464844 68.917969 34.546875 66.890625 34.5 64.875 Z M 92.75 63 C 92.699219 63.375 92.765625 63.851562 92.75 64.25 C 92.722656 65.007812 92.628906 70.863281 92.9375 71 C 92.9375 71 97.625 70.9375 97.625 70.9375 C 97.585938 68.917969 97.675781 66.890625 97.625 64.875 C 97.609375 64.257812 97.734375 63.144531 97.625 62.625 C 97.582031 62.417969 97.597656 62.09375 97.3125 62 C 97.109375 61.933594 93.261719 61.921875 93.0625 62 C 92.640625 62.164062 92.792969 62.667969 92.75 63 Z M 39.1875 81.75 C 39.1875 81.75 35.5 85.0625 35.5 85.0625 C 35.5 85.0625 40.4375 90.625 40.4375 90.625 C 40.4375 90.625 44 87.0625 44 87.0625 Z M 88.3125 81.75 C 88.3125 81.75 83.375 87.0625 83.375 87.0625 C 83.375 87.0625 87.0625 90.625 87.0625 90.625 C 87.0625 90.625 92 85.1875 92 85.1875 C 92.085938 84.714844 88.800781 82.25 88.3125 81.75 Z M 88.3125 81.75 "/>
<path style=" stroke:none;fill-rule:nonzero;fill:rgb(97.647059%,97.647059%,97.647059%);fill-opacity:1;" d="M 80.5 82 C 85.398438 77.441406 88.40625 70.441406 88.375 63.75 C 88.792969 64.007812 88.660156 65.277344 88.625 65.6875 C 88.558594 66.460938 88.347656 67.28125 88.25 68.0625 C 88.234375 68.1875 88.570312 67.804688 88.5 68.3125 C 87.765625 73.457031 84.25 79.085938 80.5625 82.625 Z M 80.5 82 "/>
</g>
</svg>
