<?xml version="1.0" encoding="UTF-8"?>
<svg xmlns="http://www.w3.org/2000/svg" xmlns:xlink="http://www.w3.org/1999/xlink" width="128" height="128" viewBox="0 0 128 128" version="1.1">
<g id="surface1">
<path style=" stroke:none;fill-rule:nonzero;fill:rgb(89.803922%,91.37255%,94.901961%);fill-opacity:1;" d="M 101.75 67.875 C 98.804688 70.339844 96.351562 74.3125 93.3125 77.125 C 76.453125 92.726562 52.375 93.019531 35.1875 77.75 C 31.824219 74.761719 29.261719 70.792969 26.125 68 C 24.453125 66.511719 22.398438 65.492188 20.875 63.8125 C 26.480469 59.589844 31.933594 55.058594 36.75 49.9375 C 42.082031 44.273438 48.609375 33.679688 57.9375 37.375 C 60.152344 38.253906 61.714844 40.285156 63.8125 41.375 C 66.59375 39.917969 68.523438 37.320312 71.8125 36.75 C 80.105469 35.3125 85.582031 44.199219 90.375 49.3125 C 95.390625 54.664062 101 59.4375 106.875 63.8125 C 105.484375 65.554688 103.425781 66.472656 101.75 67.875 Z M 55.4375 51.625 C 55.4375 51.625 54.8125 57.125 54.8125 57.125 C 50.074219 58.113281 46.257812 61.203125 41.8125 63 C 36.128906 65.292969 29.644531 66.707031 23.6875 64.625 C 29.265625 69.332031 37.667969 68.117188 44.1875 66.25 C 44.1875 66.25 43.8125 69.75 43.8125 69.75 C 46.519531 67.25 49.453125 64.359375 53.3125 63.875 C 56.457031 63.480469 59.402344 64.78125 62.375 65.5625 C 62.375 65.5625 63.8125 71.875 63.8125 71.875 C 63.8125 71.875 65.375 65.5625 65.375 65.5625 C 65.375 65.5625 65.6875 65.25 65.6875 65.25 C 67.570312 65.175781 69.503906 64.066406 71.3125 63.875 C 76.914062 63.277344 80.15625 66.203125 83.9375 69.75 C 84.109375 69.183594 83.125 66.402344 83.5625 66.25 C 90.070312 68.285156 98.109375 69.109375 103.875 64.8125 C 98.019531 66.292969 92.117188 65.410156 86.5625 63.25 C 81.882812 61.429688 77.925781 58.070312 72.9375 57.125 C 72.9375 57.125 72.625 56.8125 72.625 56.8125 C 72.625 56.8125 72.1875 51.625 72.1875 51.625 C 71.34375 52.847656 70.617188 56.046875 69.6875 57 C 68.402344 58.316406 64.625 59.320312 62.8125 59.125 C 61.828125 59.019531 58.496094 57.558594 57.875 56.8125 C 57 55.765625 56.398438 52.820312 55.4375 51.625 Z M 55.4375 51.625 "/>
</g>
</svg>
