<?xml version="1.0" encoding="UTF-8"?>
<svg xmlns="http://www.w3.org/2000/svg" xmlns:xlink="http://www.w3.org/1999/xlink" width="128" height="128" viewBox="0 0 128 128" version="1.1">
<defs>
<linearGradient id="linear0" gradientUnits="userSpaceOnUse" x1="556.866028" y1="220.287994" x2="482.029999" y2="806.530029" gradientTransform="matrix(0.125,0,0,0.125,0,0)">
<stop offset="0.2978" style="stop-color:rgb(97.647059%,97.647059%,96.470588%);stop-opacity:1;"/>
<stop offset="1" style="stop-color:rgb(81.960785%,83.137256%,82.352942%);stop-opacity:1;"/>
</linearGradient>
</defs>
<g id="surface1">
<path style=" stroke:none;fill-rule:nonzero;fill:rgb(92.156863%,95.686275%,65.490198%);fill-opacity:1;" d="M 104.5 73.875 C 104.519531 73.707031 104.371094 73.042969 104.375 73 C 104.421875 72.433594 104.332031 71.253906 104.375 70.8125 C 104.398438 70.570312 105.300781 68.585938 104.0625 68.875 C 103.636719 68.972656 102.5625 71.835938 102.375 72.375 C 102.375 72.375 102.125 70 102.125 70 C 102.503906 68.003906 102.652344 66.042969 102.625 64.1875 C 102.523438 56.898438 100.601562 52.140625 97.25 45.9375 C 97.199219 45.839844 97.128906 44.949219 96.875 44.5625 C 96.699219 44.296875 95.488281 43.515625 95.25 43.1875 C 94.902344 42.710938 94.78125 41.832031 94.375 41.25 C 94.082031 40.859375 94.699219 40.898438 94.75 40.6875 C 95.023438 39.601562 93.109375 39.410156 92.875 39.0625 C 92.566406 38.605469 92.976562 38.273438 92.875 37.9375 C 92.84375 37.839844 91.660156 36.410156 91.5625 36.375 C 91.289062 36.277344 90.300781 36.527344 90.0625 36.125 C 89.933594 35.910156 89.839844 34.820312 89.5 34.3125 C 89.082031 33.6875 87.210938 32.5 86.4375 32.5 C 87.917969 33.371094 89.179688 33.722656 89.875 35.4375 C 90.003906 35.757812 89.742188 35.855469 89.75 35.875 C 88.875 35.9375 88.546875 34.910156 88.3125 34.75 C 88.222656 34.6875 87.640625 34.808594 87.5625 34.75 C 87.476562 34.683594 86.644531 33.839844 86.5 33.6875 C 86.234375 33.40625 86.28125 32.851562 86.1875 32.75 C 86.0625 32.617188 84.855469 32.472656 84.6875 32.375 C 82.726562 31.214844 81.589844 30.957031 79.6875 30 C 79.558594 29.933594 79.691406 29.695312 79.5625 29.625 C 79.476562 29.578125 78.761719 29.542969 78.6875 29.5 C 77.78125 28.972656 76.917969 27.726562 75.9375 27.375 C 74.015625 26.6875 72.144531 27.3125 70.6875 27 C 70.519531 26.964844 70.34375 26.507812 70.3125 26.5 C 69.863281 26.351562 69.839844 26.753906 69.8125 26.75 C 69.324219 26.652344 68.789062 26.648438 68.3125 26.5 C 68.179688 26.460938 67.730469 25.886719 67.6875 25.875 C 67.597656 25.855469 66.390625 26.019531 65.875 26 C 65.480469 25.605469 63.4375 26.265625 64.0625 25.5 C 63.113281 25.457031 62.859375 24.839844 61.8125 24.75 C 61.457031 24.71875 60.832031 24.84375 60.4375 24.875 C 58.117188 25.050781 51.472656 26.652344 49.4375 28.125 C 48.828125 28.566406 48.777344 29.460938 47.9375 29.5 C 47.445312 29.523438 47.519531 29.183594 46.9375 29.25 C 46.472656 29.304688 45.679688 30.402344 45.3125 30.625 C 43.527344 31.703125 41.191406 32.785156 39.4375 34.375 C 39.210938 34.582031 39.457031 35.050781 39.125 35.3125 C 38.945312 35.453125 38.609375 35.328125 38.5625 35.375 C 36.679688 37.269531 35.109375 39.496094 33.625 41.5625 C 33.308594 42.003906 32.640625 42.265625 32.375 42.6875 C 32.007812 43.269531 30.683594 45.839844 30.25 46.6875 C 29.695312 47.773438 30.261719 47.597656 30.375 48.375 C 29.988281 48.9375 29.917969 49.445312 29.625 49.9375 C 29.320312 50.449219 28.308594 50.359375 29 51.625 C 28.8125 51.726562 27.613281 53.441406 27.5 53.6875 C 27.253906 54.226562 26.3125 57.640625 26.25 58.1875 C 26.140625 59.136719 26.652344 59.480469 26.375 60.4375 C 26.953125 60.601562 26.671875 63.921875 25.9375 62.875 C 25.898438 63.378906 25.558594 63.308594 25.125 63.1875 C 25.25 62.585938 24.957031 61.167969 25.125 60.6875 C 25.214844 60.433594 25.761719 60.71875 25.75 60.4375 C 25.746094 60.378906 25.378906 60.121094 25.375 60.0625 C 25.300781 58.871094 25.867188 57.660156 25.75 56.4375 C 24.703125 57.820312 24.746094 60.011719 24.625 61.6875 C 24.554688 62.667969 24.335938 64.488281 24.5 65.6875 C 24.542969 66.015625 25.167969 67.117188 25.125 67.1875 C 24.96875 67.445312 24.574219 66.769531 24.625 68.1875 C 24.648438 68.867188 25.300781 72.0625 25.5 72.875 C 25.628906 73.394531 25.757812 74 25.875 74.375 C 25.875 74.375 25.5 74.5 25.5 74.5 C 19.15625 52.742188 34.410156 28.703125 56.0625 23.5 C 81.730469 17.332031 107.152344 40.621094 105.75 66.3125 C 105.617188 68.726562 105.054688 71.523438 104.5 73.875 Z M 35.0625 37 C 34.679688 37.40625 32.28125 40.328125 32.25 40.5625 C 32.246094 40.585938 32.414062 40.992188 32.4375 41 C 32.730469 41.117188 34.988281 37.488281 35.375 37.1875 Z M 35.0625 37 "/>
<path style=" stroke:none;fill-rule:nonzero;fill:rgb(93.333334%,96.470588%,76.47059%);fill-opacity:1;" d="M 65.875 26 C 64.769531 25.957031 63.671875 26.03125 62.5625 26 C 62.527344 26 62.050781 26.28125 61.9375 26.25 C 61.695312 26.183594 61.921875 25.636719 60.9375 25.75 C 60.527344 25.796875 60.113281 26.363281 60.0625 26.375 C 59.546875 26.480469 58.683594 26.257812 58.1875 26.375 C 55.578125 26.984375 51.621094 28.390625 49.3125 29.5 C 49.105469 29.601562 49.027344 30.082031 48.9375 30.125 C 48.460938 30.355469 47.488281 30.308594 47.0625 30.5 C 46.675781 30.671875 46.28125 31.5625 46.1875 31.625 C 45.355469 32.179688 43.65625 32.738281 42.6875 33.125 C 39.753906 36.117188 36.957031 38.300781 34.75 41.8125 C 33.695312 44.171875 31.917969 46.113281 30.375 48.375 C 30.261719 47.597656 29.695312 47.773438 30.25 46.6875 C 30.683594 45.839844 32.007812 43.269531 32.375 42.6875 C 32.640625 42.265625 33.308594 42.003906 33.625 41.5625 C 35.109375 39.496094 36.679688 37.269531 38.5625 35.375 C 38.609375 35.328125 38.945312 35.453125 39.125 35.3125 C 39.457031 35.050781 39.210938 34.582031 39.4375 34.375 C 41.191406 32.785156 43.527344 31.703125 45.3125 30.625 C 45.679688 30.402344 46.472656 29.304688 46.9375 29.25 C 47.519531 29.183594 47.445312 29.523438 47.9375 29.5 C 48.777344 29.460938 48.828125 28.566406 49.4375 28.125 C 51.472656 26.652344 58.117188 25.050781 60.4375 24.875 C 60.832031 24.84375 61.457031 24.71875 61.8125 24.75 C 62.859375 24.839844 63.113281 25.457031 64.0625 25.5 C 63.4375 26.265625 65.480469 25.605469 65.875 26 Z M 65.875 26 "/>
<path style=" stroke:none;fill-rule:nonzero;fill:url(#linear0);" d="M 65.875 26 C 66.390625 26.019531 67.597656 25.855469 67.6875 25.875 C 67.730469 25.886719 68.179688 26.460938 68.3125 26.5 C 68.789062 26.648438 69.324219 26.652344 69.8125 26.75 C 69.839844 26.753906 69.863281 26.351562 70.3125 26.5 C 70.34375 26.507812 70.519531 26.964844 70.6875 27 C 72.144531 27.3125 74.015625 26.6875 75.9375 27.375 C 76.917969 27.726562 77.78125 28.972656 78.6875 29.5 C 78.761719 29.542969 79.476562 29.578125 79.5625 29.625 C 79.691406 29.695312 79.558594 29.933594 79.6875 30 C 81.589844 30.957031 82.726562 31.214844 84.6875 32.375 C 84.855469 32.472656 86.0625 32.617188 86.1875 32.75 C 86.28125 32.851562 86.234375 33.40625 86.5 33.6875 C 86.644531 33.839844 87.476562 34.683594 87.5625 34.75 C 87.640625 34.808594 88.222656 34.6875 88.3125 34.75 C 88.546875 34.910156 88.875 35.9375 89.75 35.875 C 90.21875 37.167969 90.347656 36.472656 90.875 37.0625 C 91.144531 37.367188 91.332031 38.378906 91.375 38.4375 C 91.851562 39.074219 92.898438 39.558594 93.375 40.0625 C 93.777344 40.488281 93.8125 41.078125 93.9375 41.25 C 93.960938 41.285156 94.351562 41.21875 94.375 41.25 C 94.78125 41.832031 94.902344 42.710938 95.25 43.1875 C 95.488281 43.515625 96.699219 44.296875 96.875 44.5625 C 97.128906 44.949219 97.199219 45.839844 97.25 45.9375 C 100.601562 52.140625 102.523438 56.898438 102.625 64.1875 C 102.652344 66.042969 102.503906 68.003906 102.125 70 C 101.953125 70.902344 101.5 71.734375 101.625 72.5625 C 98.382812 81.460938 91.554688 92.523438 82.9375 97 C 82.734375 97.105469 82.601562 97.480469 82.5625 97.5 C 82.378906 97.59375 82.121094 97.28125 81.9375 97.375 C 80.882812 97.914062 78.890625 99.273438 78.0625 99.625 C 78.011719 99.648438 77.308594 99.492188 76.9375 99.625 C 74.625 100.445312 73.023438 100.617188 70.8125 101.125 C 70.253906 101.253906 68.0625 102.3125 67.5625 102.375 C 66.964844 102.453125 60.273438 102.050781 59.5625 101.875 C 59.09375 101.761719 58.621094 101.144531 58.5625 101.125 C 58.101562 100.988281 56.445312 101.121094 55.5625 100.875 C 55.515625 100.863281 55.097656 100.332031 54.8125 100.25 C 54.5 100.164062 54.144531 100.398438 54.0625 100.375 C 53.046875 100.078125 51.785156 99.3125 50.8125 99 C 50.417969 98.871094 50.21875 99.257812 50.1875 99.25 C 49.679688 99.128906 49.1875 98.152344 48.6875 97.875 C 48.410156 97.722656 46.78125 97.429688 46.6875 97.375 C 46.316406 97.164062 45.980469 96.488281 45.8125 96.375 C 38.96875 91.699219 31.855469 83.425781 29.25 75.5 C 28.761719 74.015625 28.175781 72.097656 27.875 70.8125 C 27.0625 67.351562 26.921875 61.003906 27.875 57.4375 C 27.910156 57.308594 28.488281 56.855469 28.5 56.8125 C 28.832031 55.679688 28.792969 53.933594 29.125 52.5625 C 29.164062 52.394531 29.613281 52.214844 29.625 52.1875 C 29.738281 51.914062 29.496094 51.773438 29.5 51.75 C 29.53125 51.429688 29.398438 50.988281 29.625 50.5625 C 30.085938 49.699219 30.640625 50.1875 30.375 48.375 C 31.917969 46.113281 33.695312 44.171875 34.75 41.8125 C 36.957031 38.300781 39.753906 36.117188 42.6875 33.125 C 43.65625 32.738281 45.355469 32.179688 46.1875 31.625 C 46.28125 31.5625 46.675781 30.671875 47.0625 30.5 C 47.488281 30.308594 48.460938 30.355469 48.9375 30.125 C 49.027344 30.082031 49.105469 29.601562 49.3125 29.5 C 51.621094 28.390625 55.578125 26.984375 58.1875 26.375 C 58.683594 26.257812 59.546875 26.480469 60.0625 26.375 C 60.113281 26.363281 60.527344 25.796875 60.9375 25.75 C 61.921875 25.636719 61.695312 26.183594 61.9375 26.25 C 62.050781 26.28125 62.527344 26 62.5625 26 C 63.671875 26.03125 64.769531 25.957031 65.875 26 Z M 58.625 39 C 59.175781 41.019531 62.441406 49.304688 63.5 50.8125 C 64.835938 52.71875 63.488281 47.902344 63.375 47.5 C 64.265625 47.351562 64.09375 49.378906 64.625 50 C 64.726562 50.289062 64.917969 50.996094 65.3125 50.75 C 65.535156 50.609375 64.710938 46.753906 64.625 46.1875 C 64.503906 45.394531 64.859375 44.402344 64.125 43.75 C 64.207031 42.824219 63.707031 40.652344 62.5 41.375 C 62.136719 41.589844 61.9375 41.753906 61.875 42.1875 C 61.855469 42.328125 62.320312 43.511719 61.875 43.375 C 61.398438 42.0625 60.5625 39.269531 59.875 38.375 C 59.554688 37.960938 59.535156 37.269531 58.5625 37.625 C 57.886719 37.871094 58.546875 38.710938 58.625 39 Z M 69.3125 39.875 C 69.296875 39.878906 69.011719 40.046875 69 40.0625 C 68.757812 40.394531 68.671875 45.144531 68.875 45.5625 C 68.917969 45.652344 69.742188 45.378906 69.6875 45.75 C 69.6875 45.75 70.5 40.0625 70.5 40.0625 C 70.464844 40.011719 69.382812 39.855469 69.3125 39.875 Z M 58.375 46.375 C 58.589844 47.539062 59.386719 47.429688 59.625 47.75 C 60.023438 48.285156 62.042969 52.058594 62.4375 52 C 63.035156 51.910156 62.273438 49.949219 62.125 49.5625 C 61.792969 48.691406 61.082031 47.699219 60.625 46.875 C 60.300781 46.292969 59.976562 45.808594 59.625 45.25 C 59.226562 44.617188 56.289062 40.191406 56 40.0625 C 55.914062 40.023438 54.390625 40.566406 54.375 40.8125 Z M 74.125 47.25 C 73.683594 47.820312 73.023438 48.925781 73.5 49.625 C 73.5 49.625 71.75 52.1875 71.75 52.1875 C 71.75 52.1875 71.1875 53.875 71.1875 53.875 C 71.375 54.015625 73.988281 50.75 74.3125 50.375 C 74.433594 50.234375 74.515625 50.046875 74.375 49.875 C 75.074219 49.746094 76.292969 48.214844 76.5 47.5625 C 76.578125 47.3125 76.417969 46.734375 76.5 46.5 C 77.148438 44.644531 79.222656 43.210938 79.75 41.8125 C 80.007812 41.128906 80.121094 40.117188 79.0625 40.375 C 78.609375 40.484375 78.078125 41.824219 77.75 42.1875 C 76.84375 43.195312 75.664062 44.308594 74.875 45.4375 C 74.609375 45.816406 74.03125 46.757812 74.125 47.25 Z M 72.5 43.625 C 71.953125 44.265625 71.964844 45.691406 72 46.5 C 71.96875 46.449219 71.605469 46.554688 71.6875 45.625 C 70.761719 46.03125 70.347656 45.75 70.875 46.9375 C 70.070312 46.3125 70.453125 47.777344 69.875 47.25 C 70.167969 44.773438 67.921875 45.578125 68.125 48.3125 C 68.160156 48.789062 68.617188 49.671875 68.625 49.75 C 68.667969 50.273438 68.332031 53.253906 68.9375 53.25 C 69.445312 53.246094 70.664062 48.164062 71 47.6875 C 71.191406 47.414062 71.429688 47.425781 71.625 47.6875 C 71.625 47.6875 70.1875 53.5 70.1875 53.5 C 71.132812 51.890625 72.398438 50.007812 73.125 48.3125 C 73.28125 47.949219 73.09375 47.113281 73.75 46.8125 C 73.839844 46.585938 73.398438 46.742188 73.375 46.75 C 73.9375 45.976562 74.269531 45.089844 74.125 44.125 C 74.929688 43.375 76.363281 40.640625 74.5625 40.5 C 74.027344 40.457031 73.320312 40.980469 73 41.4375 C 72.808594 41.710938 71.710938 44.121094 72.5 43.625 Z M 54.25 47.125 C 54.089844 48.195312 55.394531 49.289062 56 50 C 55.917969 49.964844 55.417969 49.691406 55.375 49.8125 C 55.375 49.8125 55.625 50.625 55.625 50.625 C 55.386719 50.382812 54.945312 50.050781 54.5625 50.125 C 53.222656 50.953125 54.585938 51.910156 55.125 52.625 C 55.558594 53.199219 56.402344 54.242188 57.1875 54.875 C 58.035156 55.558594 60.140625 57.242188 59.125 55 C 58.84375 54.378906 58.457031 54.117188 58.125 53.625 C 57.140625 52.179688 57.921875 52.933594 58.625 53.5 C 58.929688 53.746094 60.085938 55.078125 60.375 54.4375 C 60.589844 53.957031 58.476562 51.359375 58.125 50.75 C 58.089844 50.691406 58.097656 49.902344 57.875 49.4375 C 57.441406 48.53125 56.214844 47.695312 55.625 46.875 C 57.078125 47.359375 60.386719 53.101562 61.1875 53 C 61.214844 52.996094 61.617188 52.714844 61.625 52.6875 C 61.820312 52.042969 57.308594 45.789062 56.4375 45.25 C 54.402344 43.992188 56.210938 46.652344 55.4375 46.5 C 55.257812 46.464844 53.8125 43.824219 53.5 43.4375 C 52.738281 42.496094 50.292969 39.707031 49.75 42.0625 Z M 83.3125 41.75 C 83.226562 41.765625 81.789062 42.902344 82.5 42.9375 C 78.765625 46.585938 75.0625 50.328125 71.9375 54.5 C 71.9375 54.5 71.9375 55 71.9375 55 C 71.9375 55 72.4375 54.875 72.4375 54.875 C 72.4375 54.875 84.25 43.1875 84.25 43.1875 C 84.960938 42.5625 83.808594 41.65625 83.3125 41.75 Z M 66.125 47.875 C 66.238281 48.449219 66.484375 51.179688 66.75 51.4375 C 67.265625 51.941406 67.605469 48.601562 67.625 48.3125 C 67.65625 47.789062 67.71875 46.773438 67.25 46.625 C 67.703125 43.6875 64.972656 42.558594 65.5 46.3125 C 65.570312 46.816406 66.074219 47.609375 66.125 47.875 Z M 78.25 50.75 C 76.503906 50.769531 74.535156 54.421875 77.0625 53.75 C 77.828125 53.546875 78.992188 52.585938 79.375 51.875 C 79.496094 51.648438 79.464844 51.453125 79.625 51.375 C 81.054688 51.917969 81.359375 50.566406 81.875 50 C 82.0625 49.792969 82.210938 49.476562 82.4375 49.25 C 82.871094 48.820312 86.359375 46.558594 86.375 46.3125 C 86.378906 46.257812 85.914062 45.351562 85.875 45.3125 C 85.371094 44.796875 81.578125 48.296875 80.9375 48.75 C 80.679688 48.933594 79.765625 49.117188 79.5625 49.25 C 79.347656 49.390625 78.300781 50.40625 78.25 50.75 Z M 87.3125 48.375 C 86.898438 48.324219 81.101562 51.742188 80.3125 52.25 C 79.1875 52.976562 74.84375 55.878906 74.0625 56.75 C 73.667969 57.1875 73.527344 57.226562 73.625 57.9375 C 73.625 57.9375 77.4375 56.5 77.4375 56.5 C 79.40625 54.894531 81.832031 54 83.9375 52.625 C 84.410156 52.316406 87.769531 49.910156 87.875 49.6875 C 88.0625 49.296875 87.765625 48.429688 87.3125 48.375 Z M 49.875 56.75 C 49.878906 58.074219 53.839844 59.441406 54.125 58.4375 C 54.292969 57.839844 52.777344 56.453125 52.25 56.25 C 52.25 56.25 44.0625 51.25 44.0625 51.25 C 43.789062 51.390625 43.039062 52.203125 43.1875 52.5 C 43.253906 52.632812 45.195312 54.207031 45.4375 54.375 C 46.761719 55.28125 48.523438 55.847656 49.875 56.75 Z M 78.75 57.25 C 75.472656 57.660156 76.003906 60.558594 79.0625 59.375 C 79.734375 59.117188 80.128906 58.34375 80.5 58.125 C 82.621094 56.882812 88.773438 54.699219 90.0625 53.625 C 90.601562 53.175781 90.703125 52.714844 90.1875 52.125 C 90.1875 52.125 84.6875 54.375 84.6875 54.375 C 84.40625 54.492188 83.554688 54.574219 83.4375 54.625 C 82.789062 54.902344 82.1875 55.578125 81.5625 55.875 C 81.539062 55.886719 81.316406 55.625 81.0625 55.75 C 80.433594 56.054688 79.113281 56.78125 78.75 57.25 Z M 55.375 55.625 C 55.359375 55.644531 55.382812 56.023438 55.3125 56.125 C 55.3125 56.125 57.0625 56.75 57.0625 56.75 C 57.082031 56.375 56.136719 55.394531 55.875 55.375 C 55.765625 54.332031 53.714844 52.3125 52.6875 53.125 C 51.714844 53.894531 54.3125 56.222656 55.375 55.625 Z M 75.0625 53.5 C 74.925781 53.503906 74.011719 54.554688 74.3125 54.875 C 74.3125 54.875 75.5 54.1875 75.5 54.1875 C 75.5 54.1875 75.625 53.9375 75.625 53.9375 C 75.117188 53.957031 75.363281 53.496094 75.0625 53.5 Z M 49 59.875 C 49.832031 60.34375 49.886719 61.15625 51.375 60.875 C 51.375 60.875 55.5625 62 55.5625 62 C 55.609375 61.859375 55.773438 61.691406 55.75 61.5625 C 55.6875 61.214844 52.851562 59.753906 52.3125 59.375 C 52.039062 59.183594 51.195312 57.808594 50.625 58.5 C 50.511719 58.417969 50.507812 58.378906 50.5 58.375 C 49.367188 57.625 48.195312 57.261719 47.0625 56.75 C 46.441406 56.472656 42.691406 54.632812 42.4375 54.625 C 41.800781 54.609375 41.546875 56.199219 40.3125 55.5 C 40.859375 55.667969 41.320312 56.144531 41.8125 56.375 C 43.988281 57.394531 47.015625 58.757812 49 59.875 Z M 39.5625 54.875 C 39.5625 54.875 39.375 55.0625 39.375 55.0625 C 39.375 55.0625 39.4375 55.125 39.4375 55.125 C 39.4375 55.125 39.625 55.0625 39.625 55.0625 Z M 54.4375 58.125 C 53.867188 58.914062 54.707031 59.261719 55.4375 59.25 C 55.871094 58.988281 54.585938 58.25 54.4375 58.125 Z M 47.625 62.25 C 48.101562 62.546875 48.835938 62.480469 49.375 62.625 C 50.195312 62.847656 51.082031 63.179688 51.9375 63.25 C 52.429688 63.292969 55.714844 63.40625 54.4375 62.625 C 54.210938 62.488281 51.34375 61.375 50.9375 61.25 C 50.703125 61.179688 50.4375 61.023438 50.375 61.375 C 49.910156 60.871094 48.136719 60.375 47.5 60.75 C 47.691406 60.335938 46.636719 59.914062 46.4375 59.875 C 45.898438 59.769531 45.726562 60.132812 45.6875 60.125 C 44.296875 59.839844 40.660156 58.441406 39.4375 58.75 C 38.878906 58.890625 38.738281 60 38.625 60.4375 C 41.460938 61.199219 44.152344 62.292969 47.125 62.4375 C 47.335938 62.449219 47.503906 62.617188 47.625 62.25 Z M 80.8125 59.625 C 79.769531 59.488281 78.59375 60.703125 77.875 61.3125 C 77.984375 61.472656 81.527344 60.570312 81.5 60.3125 C 80.980469 60.101562 81.332031 59.695312 80.8125 59.625 Z M 83.6875 60.75 C 83.671875 60.992188 84.5 60.867188 84.5 60.8125 C 84.265625 60.683594 83.949219 60.777344 83.6875 60.75 Z M 84.5 61.125 C 84.34375 61.121094 84.152344 61.105469 84 61.125 C 82.894531 60.785156 81.632812 61.675781 80.5625 62 C 80.097656 62.140625 76.527344 62.621094 77.1875 63.5 C 77.230469 63.558594 78.160156 63.242188 78.625 63.375 C 79.648438 63.671875 80.230469 64.570312 81.875 63.75 C 81.875 63.75 84.75 63.25 84.75 63.25 C 85.761719 63.316406 87.210938 63.183594 86.75 61.875 C 87.5 62.023438 88.953125 61.542969 88.1875 61 C 88.027344 60.886719 84.917969 60.839844 84.5 61.125 Z M 49.5 66 C 48.890625 66.136719 47.679688 66.792969 48 67.5625 C 48.917969 68.777344 54.289062 67.011719 51.25 66 C 51.828125 65.585938 52.75 65.746094 53.4375 65.625 C 53.539062 65.605469 53.460938 65.394531 53.5625 65.375 C 53.914062 65.3125 55.699219 65.839844 54.6875 64.75 C 52.511719 64.269531 50.386719 63.523438 48.125 63.5 C 47.582031 62.980469 46.558594 63.070312 45.875 63.25 C 45.875 63.25 38.4375 62.75 38.4375 62.75 C 38.4375 62.75 38.3125 64 38.3125 64 Z M 92.25 71.5 C 92.441406 71.464844 92.707031 71.570312 92.875 71.4375 C 92.652344 71.203125 92.28125 71.5 92.25 71.5 C 91.960938 71.484375 91.75 71.503906 91.5 71.3125 C 91.820312 71.101562 92.5625 69.585938 92.4375 69.375 C 92.109375 69.414062 90.546875 68.21875 90.4375 68.25 C 90.292969 68.292969 90.523438 68.589844 90.1875 68.625 C 90.105469 68.632812 88.980469 67.945312 88.6875 67.875 C 87.800781 67.664062 86.566406 68.101562 86.125 67.0625 C 86.179688 66.875 88.777344 67.503906 89.0625 67.5 C 89.15625 67.5 90.722656 67.273438 90.8125 67.25 C 92.296875 66.859375 91.035156 66.074219 91 65.9375 C 90.890625 65.527344 91.246094 65.644531 91.25 65.625 C 92.59375 66.089844 92.636719 64.769531 91.9375 64.375 C 91.585938 64.179688 90.792969 64.277344 90.375 64.25 C 86.367188 63.992188 82.164062 64.839844 78.1875 65.25 C 78.1875 65.25 77.9375 65.625 77.9375 65.625 C 77.9375 65.625 80.625 65.9375 80.625 65.9375 C 79.554688 66.808594 77.925781 65.84375 77.125 66.9375 C 79.898438 67.578125 82.125 69.492188 84.8125 70.375 C 85.835938 70.710938 88.507812 71.355469 89.6875 71.5 C 90.371094 71.585938 91.570312 71.625 92.25 71.5 Z M 46.0625 66.75 C 45.824219 66.753906 43.304688 67.039062 43.1875 67.125 C 42.042969 67.9375 45.550781 67.703125 45.6875 67.625 C 46.109375 67.386719 46.007812 66.992188 46.0625 67 C 46.199219 67.019531 46.046875 67.425781 46.1875 67.5 C 47.09375 67.984375 49.421875 66.699219 46.0625 66.75 Z M 41.6875 67.125 C 41.226562 67.128906 39.773438 67.269531 40.25 67.9375 C 41.054688 67.832031 42.121094 68.273438 42.25 67.1875 C 42.171875 67.074219 41.824219 67.125 41.6875 67.125 Z M 78.125 70 C 78.390625 70.21875 78.644531 70.953125 79.1875 71 C 79.359375 71.015625 80.320312 70.578125 80.4375 70.625 C 80.523438 70.65625 80.320312 71.117188 80.5 71.4375 C 80.746094 71.871094 81.800781 72.726562 82.375 72.5 C 82.734375 72.960938 83.976562 73.070312 84.3125 73.25 C 84.449219 73.324219 84.132812 73.503906 84.25 73.5625 C 85.726562 74.289062 87.007812 74.394531 88.5 75.125 C 89.386719 75.640625 89.757812 76.003906 90.625 75.1875 C 90.800781 74.542969 88.972656 73.683594 88.375 73.625 C 85.035156 70.800781 80.449219 68.96875 76.3125 67.625 C 75.140625 68.644531 76.46875 68.621094 76.8125 68.875 C 77.269531 69.214844 77.683594 69.636719 78.125 70 Z M 49.125 68.75 C 48.433594 68.640625 47.214844 68.933594 46.75 69.5 C 46.488281 69.410156 46.976562 69.234375 46.5 69.3125 C 44.164062 69.695312 43.148438 70.027344 41.125 71.375 C 41.058594 71.417969 40.945312 71.242188 40.9375 71.25 C 40.101562 71.972656 40.269531 72.867188 41.4375 73 C 42.054688 73.070312 42.007812 72.753906 42.125 72.75 C 42.414062 72.746094 42.75 72.945312 43.1875 72.875 C 43.375 72.84375 47.605469 71.394531 46.5625 72.375 C 45.957031 72.40625 45.328125 72.917969 44.8125 73.125 C 44.558594 73.226562 44 73.097656 43.9375 73.125 C 43.730469 73.210938 44.273438 73.195312 44 73.5 C 43.753906 73.570312 43.527344 73.742188 43.5 73.75 C 43.375 73.78125 43.078125 73.828125 42.875 73.875 C 42.875 73.875 42.375 73.9375 42.375 73.9375 C 42.574219 74.167969 42.851562 73.878906 42.875 73.875 C 43.144531 73.96875 43.339844 73.796875 43.5 73.75 C 43.816406 73.65625 43.699219 73.832031 44 73.5 C 47.132812 72.613281 48.523438 71.730469 51.3125 70.375 C 51.878906 70.097656 55.808594 68.589844 55.9375 68.375 C 56.015625 68.246094 56.0625 67.960938 55.9375 67.875 C 54.535156 68.082031 53.117188 67.945312 51.5625 68.125 C 50.867188 68.207031 49.777344 68.464844 49.125 68.75 Z M 56.9375 69 C 55.222656 69.179688 42.824219 74.496094 41.0625 75.625 C 40.460938 76.011719 38 78.03125 39.625 78.3125 C 39.625 78.3125 38.375 78.8125 38.375 78.8125 C 38.785156 79.339844 39.492188 78.679688 40.0625 78.5 C 44.894531 76.960938 47.898438 74.523438 52.1875 72 C 52.558594 71.78125 57.828125 69.484375 57.5 69.0625 C 57.359375 68.964844 57.105469 68.980469 56.9375 69 Z M 52.375 73.125 C 52.316406 73.144531 51.40625 73.820312 51.375 73.875 C 51.289062 73.898438 51.214844 73.800781 51.25 73.75 C 51.28125 73.707031 51.574219 73.5625 51.625 73.4375 C 51.625 73.4375 51.25 73.75 51.25 73.75 C 48.417969 75.613281 45.03125 76.699219 42.75 79.3125 C 42.480469 81.84375 43.054688 81.164062 44.6875 80.75 C 48.09375 79.882812 47.867188 78.757812 50.3125 77 C 50.367188 76.960938 50.914062 77.054688 51.1875 76.875 C 51.460938 76.691406 51.84375 76.019531 52.125 75.75 C 52.570312 75.703125 54.089844 74.539062 54.25 74.125 C 54.839844 74.269531 55.03125 73.292969 55.4375 72.875 C 55.679688 72.625 58.683594 70.566406 58.1875 70.25 Z M 80.375 73.5 C 81.863281 74.960938 83.679688 75.6875 85.3125 76.875 C 85.695312 77.152344 85.226562 77.171875 85.25 77.1875 C 85.804688 77.625 86.773438 78.664062 86.875 77.3125 C 86.875 77.3125 79.625 72.375 79.625 72.375 C 77.144531 69.886719 74.171875 70.972656 77.1875 73.125 C 77.722656 73.507812 80.269531 74.632812 80.375 73.5 Z M 55.75 74.75 C 54.96875 74.742188 53.613281 75.789062 53.375 76.5 C 53.375 76.5 49 80.5625 49 80.5625 C 49.710938 80.4375 49.800781 81.265625 50.4375 81.25 C 51.328125 81.226562 53.457031 78.554688 53.875 79.1875 C 53.875 79.1875 53.1875 79.875 53.1875 79.875 C 55.035156 78.867188 56.464844 76.550781 57.875 74.9375 C 58.332031 74.417969 61.03125 72.359375 59.8125 72 C 58.855469 71.71875 58.421875 72.746094 57.8125 73.125 C 57.230469 73.484375 55.828125 73.800781 55.75 74.75 Z M 74.3125 72.75 C 74.398438 74.421875 75.847656 75.011719 77.375 74.5625 C 76.898438 74.164062 74.769531 72.457031 74.3125 72.75 Z M 49.875 87.875 C 49.859375 87.902344 49.578125 87.8125 49.5 87.9375 C 49.699219 88.164062 49.855469 87.882812 49.875 87.875 C 50.605469 87.617188 52.324219 86.410156 52.9375 85.875 C 53 85.820312 53.449219 85.347656 53.6875 85.125 C 54.328125 84.523438 54.816406 83.746094 55.4375 83.125 C 55.4375 83.125 51.875 90.4375 51.875 90.4375 C 51.875 90.4375 52.3125 90 52.3125 90 C 52.3125 90 54 90.1875 54 90.1875 C 54 90.1875 58.1875 83.375 58.1875 83.375 C 58.847656 83.285156 57.539062 84.832031 57.5 84.9375 C 57.417969 85.167969 57.667969 85.300781 57.625 85.4375 C 57.457031 85.972656 56.9375 86.726562 57 87.3125 C 57.109375 88.359375 58.308594 89.832031 59.25 88.6875 C 59.304688 88.621094 59.199219 88.121094 59.25 88.0625 C 59.488281 87.804688 60.257812 87.460938 60.625 86.9375 C 61.414062 85.8125 63.8125 77.320312 63.75 76.0625 C 63.738281 75.851562 63.585938 75.410156 63.4375 75.375 C 62.832031 75.234375 62.8125 76.390625 62.625 76.6875 C 61.914062 77.808594 61.003906 78.859375 60.3125 80 C 59.929688 79.742188 60.875 78.714844 61 78.4375 C 61.457031 77.410156 61.695312 76.066406 62.375 75.0625 C 62.21875 74.933594 62.230469 74.601562 61.9375 74.625 C 61.761719 74.640625 59.972656 76.964844 59.625 77.25 C 59.589844 77.253906 59.085938 77.449219 59 77.5 C 58.617188 76.5 61.253906 74.402344 61.25 73.9375 C 61.25 73.902344 60.875 73.492188 60.8125 73.375 C 58.929688 75.59375 56.792969 77.632812 54.875 79.8125 C 53.921875 80.894531 53 82.417969 52 83.5625 C 51.566406 84.058594 49.121094 86.109375 49.125 86.5625 C 49.128906 87.046875 50.148438 87.359375 49.875 87.875 Z M 42.0625 74 C 42.0625 74 42.0625 74.25 42.0625 74.25 C 42.0625 74.25 42.1875 74.25 42.1875 74.25 C 42.1875 74.25 42.1875 74.125 42.1875 74.125 Z M 41.25 74.5 C 41.453125 74.480469 41.703125 74.5625 41.875 74.4375 C 41.660156 74.203125 41.28125 74.496094 41.25 74.5 C 41.007812 74.515625 40.925781 74.28125 40.75 74.4375 C 40.980469 74.828125 41.226562 74.503906 41.25 74.5 Z M 75.5 77.625 C 71.894531 75.210938 74.222656 80.832031 75.875 78.75 C 75.871094 79.773438 79.023438 83.445312 79.875 84.3125 C 80.148438 84.589844 80.9375 85.464844 81.125 84.5625 C 81.222656 84.097656 76.648438 78.53125 76 77.75 C 75.632812 77.308594 73.738281 74.792969 73.3125 74.75 C 72.445312 74.660156 73.539062 76.363281 73.75 76.5625 C 74.183594 76.96875 74.925781 76.960938 75.5 77.625 Z M 79 77.5 C 78.917969 77.867188 78.785156 77.660156 78.75 77.9375 C 80.386719 79.007812 81.269531 80.871094 83.25 81.1875 C 83.25 81.1875 82.125 81.4375 82.125 81.4375 C 82.339844 81.683594 82.566406 81.882812 82.875 82 C 83.378906 82.191406 84.488281 82.445312 84.8125 82 C 85.242188 81.414062 84.746094 80.503906 84.125 81 C 84.125 81 83.6875 80.25 83.6875 80.25 C 83.6875 80.25 83.5625 80.875 83.5625 80.875 C 83.523438 80.347656 83.40625 80.140625 83 79.8125 C 82.625 80.503906 82.769531 79.734375 82.625 79.5625 C 82.003906 78.8125 80.449219 77.410156 79.625 76.5625 C 79.402344 76.332031 79.402344 76.320312 79.125 76.5 C 78.554688 74.914062 75.101562 73.960938 76 75.9375 C 76.316406 76.628906 78.179688 77.75 79 77.5 Z M 76.5 85 C 76.921875 85.714844 77.539062 87.332031 78 87.9375 C 78.089844 88.054688 78.453125 88.355469 78.625 88.375 C 78.449219 88.570312 78.261719 88.46875 78.25 88.5625 C 78.238281 88.652344 79.199219 89.980469 79.5 89.75 C 79.023438 89.984375 78.925781 89.613281 78.625 90.0625 C 79.609375 90.382812 79.605469 92.550781 80.8125 92 C 81.804688 91.546875 80.398438 89.632812 80 89 C 79.941406 88.90625 79.039062 88.058594 79 88 C 78.355469 87.046875 77.476562 85.742188 76.875 84.75 C 75.402344 82.320312 74.375 79.808594 72.75 77.4375 C 72.632812 77.269531 71.53125 75.972656 71.4375 76 C 70.863281 76.171875 71.808594 77.148438 71.875 77.3125 C 73.140625 80.386719 74.847656 82.210938 76.5 85 Z M 69.4375 76.875 C 68.757812 77.054688 69.945312 79.6875 70.0625 80.125 C 70.175781 79.664062 70.992188 79.410156 71 79.0625 C 71.003906 78.910156 69.628906 76.824219 69.4375 76.875 Z M 88.3125 78 C 88.152344 77.929688 87.792969 78.550781 87.6875 78.625 C 87.574219 78.707031 86.996094 78.449219 87 78.8125 C 86.957031 78.996094 88.289062 79.820312 88.5625 79.75 C 88.714844 79.710938 89.683594 78.457031 88.9375 78.25 C 88.136719 78.933594 88.582031 78.117188 88.3125 78 Z M 37.8125 79 C 37.6875 79.210938 38.257812 79.140625 38.25 79.0625 C 38.238281 78.957031 37.917969 79.011719 37.8125 79 Z M 68.125 83.375 C 67.871094 83.132812 67.660156 82.992188 67.5625 82.625 C 67.351562 82.726562 68.40625 85.757812 68.5 86.1875 C 68.789062 87.507812 68.585938 89.078125 69.375 90.1875 C 69.375 90.1875 68.875 90.0625 68.875 90.0625 C 68.691406 90.503906 69.117188 90.917969 69.125 91 C 69.179688 91.453125 68.871094 92.5625 69.6875 92.5 C 70.441406 92.441406 70.453125 90.464844 69.125 91 C 69.597656 90.664062 70.128906 91.191406 70.25 90.4375 C 70.296875 90.148438 68.917969 85.539062 68.75 84.8125 C 68.679688 84.496094 68.972656 84.191406 68.875 83.9375 C 68.8125 83.769531 68.5 83.796875 68.25 83.5 C 70.402344 83.65625 68.746094 78.894531 67.5625 79.125 C 66.421875 79.347656 67.65625 82.722656 68.125 83.375 Z M 37.1875 79.25 C 37.1875 79.25 37.3125 79.375 37.3125 79.375 C 37.558594 79.394531 37.558594 79.230469 37.3125 79.25 Z M 71.375 83.25 C 71.359375 83.246094 71.253906 83.457031 71.0625 83.125 C 70.8125 83.511719 72.023438 85.140625 72.25 85.5625 C 72.53125 86.082031 72.554688 87.445312 73.5 87.4375 C 72.394531 87.402344 73.703125 88.441406 74.125 88.625 C 73.894531 88.851562 73.632812 88.695312 73.75 89.1875 C 75.265625 89.640625 73.710938 89.226562 74 89.8125 C 74 89.8125 75 90.125 75 90.125 C 74.683594 90.28125 74.546875 90.21875 74.25 90.3125 C 74.550781 91.328125 75.273438 92.074219 76.125 91.1875 C 75.707031 91.175781 75.960938 90.507812 75.875 90.3125 C 75.734375 89.992188 75.265625 89.910156 75.25 89.875 C 75.078125 89.488281 75.019531 88.589844 74.625 88.25 C 74.238281 87.429688 72.78125 83.960938 72.375 83.625 C 72.953125 83.578125 72.871094 82.898438 72.875 82.5 C 73.34375 82.214844 73.5 83.3125 73.6875 83.375 C 74.730469 83.71875 73.15625 80.382812 72.75 81.5 C 72.542969 80.785156 71.003906 78.726562 70.375 79.9375 C 69.808594 81.027344 70.667969 82.4375 71.375 83.25 Z M 65.875 84.875 C 64.976562 84.90625 64.800781 86.386719 64.875 87.0625 C 64.9375 87.625 65.695312 88.601562 65.75 88.875 C 65.886719 89.585938 65.101562 92.449219 66.75 91.3125 C 66.75 91.3125 66.375 88.75 66.375 88.75 C 67.519531 87.914062 66.769531 86.125 66.25 85.125 C 66.25 85.125 66.25 81.3125 66.25 81.3125 C 65.765625 81.171875 66.179688 80.527344 65.8125 80.125 C 65.695312 81.488281 65.328125 83.789062 65.875 84.875 Z M 42.3125 81.375 C 42.3125 81.375 42.4375 81.5 42.4375 81.5 C 42.683594 81.519531 42.683594 81.355469 42.4375 81.375 Z M 41.5625 81.75 C 41.5625 81.75 41.6875 81.875 41.6875 81.875 C 41.933594 81.894531 41.933594 81.730469 41.6875 81.75 Z M 63.25 85.5 C 62.855469 85.960938 62.242188 88.34375 62.9375 88.5 C 63.734375 88.675781 63.902344 85.941406 64 85.5 C 64.144531 84.859375 65.429688 82.175781 63.9375 81.875 C 62.699219 81.625 62.339844 84.898438 63.25 85.5 Z M 40.8125 82 C 40.6875 82.210938 41.257812 82.140625 41.25 82.0625 C 41.238281 81.957031 40.917969 82.011719 40.8125 82 Z M 81.4375 84.75 C 81.4375 84.75 80.75 85.5625 80.75 85.5625 C 81.625 87.042969 82.640625 85.730469 81.4375 84.75 Z M 82.4375 86.125 C 82.339844 86.140625 81.863281 86.855469 81.375 86.6875 C 82.847656 88.632812 83.410156 85.988281 82.4375 86.125 Z M 52.9375 91.375 C 52.777344 91.382812 52.929688 92.027344 53 91.5625 C 53.023438 91.484375 53 91.371094 52.9375 91.375 Z M 52.9375 91.375 "/>
<path style=" stroke:none;fill-rule:nonzero;fill:rgb(96.470588%,98.823529%,81.176472%);fill-opacity:1;" d="M 94.375 41.25 C 94.351562 41.21875 93.960938 41.285156 93.9375 41.25 C 93.8125 41.078125 93.777344 40.488281 93.375 40.0625 C 92.898438 39.558594 91.851562 39.074219 91.375 38.4375 C 91.332031 38.378906 91.144531 37.367188 90.875 37.0625 C 90.347656 36.472656 90.21875 37.167969 89.75 35.875 C 89.742188 35.855469 90.003906 35.757812 89.875 35.4375 C 89.179688 33.722656 87.917969 33.371094 86.4375 32.5 C 87.210938 32.5 89.082031 33.6875 89.5 34.3125 C 89.839844 34.820312 89.933594 35.910156 90.0625 36.125 C 90.300781 36.527344 91.289062 36.277344 91.5625 36.375 C 91.660156 36.410156 92.84375 37.839844 92.875 37.9375 C 92.976562 38.273438 92.566406 38.605469 92.875 39.0625 C 93.109375 39.410156 95.023438 39.601562 94.75 40.6875 C 94.699219 40.898438 94.082031 40.859375 94.375 41.25 Z M 94.375 41.25 "/>
<path style=" stroke:none;fill-rule:nonzero;fill:rgb(96.078432%,97.647059%,65.490198%);fill-opacity:1;" d="M 35.0625 37 C 35.0625 37 35.375 37.1875 35.375 37.1875 C 34.988281 37.488281 32.730469 41.117188 32.4375 41 C 32.414062 40.992188 32.246094 40.585938 32.25 40.5625 C 32.28125 40.328125 34.679688 37.40625 35.0625 37 Z M 35.0625 37 "/>
<path style=" stroke:none;fill-rule:nonzero;fill:rgb(93.333334%,93.725491%,89.019608%);fill-opacity:1;" d="M 59.875 38.375 C 59.875 38.375 58.625 39 58.625 39 C 58.546875 38.710938 57.886719 37.871094 58.5625 37.625 C 59.535156 37.269531 59.554688 37.960938 59.875 38.375 Z M 59.875 38.375 "/>
<path style=" stroke:none;fill-rule:nonzero;fill:rgb(81.568629%,83.137256%,68.627453%);fill-opacity:1;" d="M 61.875 43.375 C 62.367188 44.730469 62.984375 46.113281 63.375 47.5 C 63.488281 47.902344 64.835938 52.71875 63.5 50.8125 C 62.441406 49.304688 59.175781 41.019531 58.625 39 C 58.625 39 59.875 38.375 59.875 38.375 C 60.5625 39.269531 61.398438 42.0625 61.875 43.375 Z M 61.875 43.375 "/>
<path style=" stroke:none;fill-rule:nonzero;fill:rgb(85.490197%,87.058824%,70.588237%);fill-opacity:1;" d="M 69.3125 39.875 C 69.382812 39.855469 70.464844 40.011719 70.5 40.0625 C 70.5 40.0625 69.6875 45.75 69.6875 45.75 C 69.742188 45.378906 68.917969 45.652344 68.875 45.5625 C 68.671875 45.144531 68.757812 40.394531 69 40.0625 C 69.011719 40.046875 69.296875 39.878906 69.3125 39.875 Z M 69.3125 39.875 "/>
<path style=" stroke:none;fill-rule:nonzero;fill:rgb(83.529413%,85.09804%,70.588237%);fill-opacity:1;" d="M 59.625 45.25 C 58.636719 45.152344 58.175781 45.304688 58.375 46.375 C 58.375 46.375 54.375 40.8125 54.375 40.8125 C 54.390625 40.566406 55.914062 40.023438 56 40.0625 C 56.289062 40.191406 59.226562 44.617188 59.625 45.25 Z M 59.625 45.25 "/>
<path style=" stroke:none;fill-rule:nonzero;fill:rgb(83.137256%,85.09804%,69.803923%);fill-opacity:1;" d="M 76.5 46.5 C 75.78125 45.59375 74.65625 46.566406 74.125 47.25 C 74.03125 46.757812 74.609375 45.816406 74.875 45.4375 C 75.664062 44.308594 76.84375 43.195312 77.75 42.1875 C 78.078125 41.824219 78.609375 40.484375 79.0625 40.375 C 80.121094 40.117188 80.007812 41.128906 79.75 41.8125 C 79.222656 43.210938 77.148438 44.644531 76.5 46.5 Z M 76.5 46.5 "/>
<path style=" stroke:none;fill-rule:nonzero;fill:rgb(88.235295%,89.411765%,77.64706%);fill-opacity:1;" d="M 74.125 44.125 C 73.957031 43.011719 73.210938 42.792969 72.5 43.625 C 71.710938 44.121094 72.808594 41.710938 73 41.4375 C 73.320312 40.980469 74.027344 40.457031 74.5625 40.5 C 76.363281 40.640625 74.929688 43.375 74.125 44.125 Z M 74.125 44.125 "/>
<path style=" stroke:none;fill-rule:nonzero;fill:rgb(84.705883%,85.882354%,72.941178%);fill-opacity:1;" d="M 55.625 46.875 C 54.996094 46.664062 54.382812 46.25 54.25 47.125 C 54.25 47.125 49.75 42.0625 49.75 42.0625 C 50.292969 39.707031 52.738281 42.496094 53.5 43.4375 C 53.8125 43.824219 55.257812 46.464844 55.4375 46.5 C 56.210938 46.652344 54.402344 43.992188 56.4375 45.25 C 57.308594 45.789062 61.820312 52.042969 61.625 52.6875 C 61.617188 52.714844 61.214844 52.996094 61.1875 53 C 60.386719 53.101562 57.078125 47.359375 55.625 46.875 Z M 58.5625 48.375 C 57.679688 48.6875 59.992188 51.6875 60.1875 51.75 C 60.210938 51.757812 60.671875 51.644531 60.6875 51.625 C 60.867188 51.425781 58.8125 48.285156 58.5625 48.375 Z M 58.5625 48.375 "/>
<path style=" stroke:none;fill-rule:nonzero;fill:rgb(81.176472%,83.529413%,65.882355%);fill-opacity:1;" d="M 83.3125 41.75 C 83.808594 41.65625 84.960938 42.5625 84.25 43.1875 C 84.25 43.1875 72.4375 54.875 72.4375 54.875 C 72.4375 54.875 71.9375 55 71.9375 55 C 71.9375 55 71.9375 54.5 71.9375 54.5 C 75.0625 50.328125 78.765625 46.585938 82.5 42.9375 C 81.789062 42.902344 83.226562 41.765625 83.3125 41.75 Z M 83.3125 41.75 "/>
<path style=" stroke:none;fill-rule:nonzero;fill:rgb(85.09804%,86.666667%,69.01961%);fill-opacity:1;" d="M 64.625 50 C 64.105469 48.511719 63.933594 46.578125 63.25 45 C 63.988281 45.003906 64.078125 44.300781 64.125 43.75 C 64.859375 44.402344 64.503906 45.394531 64.625 46.1875 C 64.710938 46.753906 65.535156 50.609375 65.3125 50.75 C 64.917969 50.996094 64.726562 50.289062 64.625 50 Z M 64.625 50 "/>
<path style=" stroke:none;fill-rule:nonzero;fill:rgb(85.490197%,87.450981%,65.882355%);fill-opacity:1;" d="M 81.875 50 C 81.511719 47.746094 78.167969 50.820312 79.625 51.375 C 79.464844 51.453125 79.496094 51.648438 79.375 51.875 C 79.371094 51.058594 79.023438 50.742188 78.25 50.75 C 78.300781 50.40625 79.347656 49.390625 79.5625 49.25 C 79.765625 49.117188 80.679688 48.933594 80.9375 48.75 C 81.578125 48.296875 85.371094 44.796875 85.875 45.3125 C 85.914062 45.351562 86.378906 46.257812 86.375 46.3125 C 86.359375 46.558594 82.871094 48.820312 82.4375 49.25 C 82.210938 49.476562 82.0625 49.792969 81.875 50 Z M 81.875 50 "/>
<path style=" stroke:none;fill-rule:nonzero;fill:rgb(82.745099%,84.313726%,71.764708%);fill-opacity:1;" d="M 72 46.5 C 72.75 47.648438 72.585938 47.023438 73.375 46.75 C 73.398438 46.742188 73.839844 46.585938 73.75 46.8125 C 73.09375 47.113281 73.28125 47.949219 73.125 48.3125 C 72.398438 50.007812 71.132812 51.890625 70.1875 53.5 C 70.1875 53.5 71.625 47.6875 71.625 47.6875 C 71.429688 47.425781 71.191406 47.414062 71 47.6875 C 70.664062 48.164062 69.445312 53.246094 68.9375 53.25 C 68.332031 53.253906 68.667969 50.273438 68.625 49.75 C 69.425781 49.53125 69.789062 47.988281 69.875 47.25 C 70.453125 47.777344 70.070312 46.3125 70.875 46.9375 C 70.347656 45.75 70.761719 46.03125 71.6875 45.625 C 71.605469 46.554688 71.96875 46.449219 72 46.5 Z M 72 46.5 "/>
<path style=" stroke:none;fill-rule:nonzero;fill:rgb(84.705883%,86.274511%,74.509805%);fill-opacity:1;" d="M 66.125 47.875 C 67.117188 48.355469 67.140625 47.335938 67.25 46.625 C 67.71875 46.773438 67.65625 47.789062 67.625 48.3125 C 67.605469 48.601562 67.265625 51.941406 66.75 51.4375 C 66.484375 51.179688 66.238281 48.449219 66.125 47.875 Z M 66.125 47.875 "/>
<path style=" stroke:none;fill-rule:nonzero;fill:rgb(81.176472%,82.352942%,70.588237%);fill-opacity:1;" d="M 59.625 47.75 C 60.179688 47.832031 60.667969 47.46875 60.625 46.875 C 61.082031 47.699219 61.792969 48.691406 62.125 49.5625 C 62.273438 49.949219 63.035156 51.910156 62.4375 52 C 62.042969 52.058594 60.023438 48.285156 59.625 47.75 Z M 59.625 47.75 "/>
<path style=" stroke:none;fill-rule:nonzero;fill:rgb(78.823531%,82.352942%,72.549021%);fill-opacity:1;" d="M 29.5 51.75 C 29.230469 51.640625 29.335938 51.445312 29 51.625 C 28.308594 50.359375 29.320312 50.449219 29.625 49.9375 C 29.917969 49.445312 29.988281 48.9375 30.375 48.375 C 30.640625 50.1875 30.085938 49.699219 29.625 50.5625 C 29.398438 50.988281 29.53125 51.429688 29.5 51.75 Z M 29.5 51.75 "/>
<path style=" stroke:none;fill-rule:nonzero;fill:rgb(71.372551%,73.725492%,57.254905%);fill-opacity:1;" d="M 58.5625 48.375 C 58.8125 48.285156 60.867188 51.425781 60.6875 51.625 C 60.671875 51.644531 60.210938 51.757812 60.1875 51.75 C 59.992188 51.6875 57.679688 48.6875 58.5625 48.375 Z M 58.5625 48.375 "/>
<path style=" stroke:none;fill-rule:nonzero;fill:rgb(77.64706%,80.000001%,62.7451%);fill-opacity:1;" d="M 87.3125 48.375 C 87.765625 48.429688 88.0625 49.296875 87.875 49.6875 C 87.769531 49.910156 84.410156 52.316406 83.9375 52.625 C 81.832031 54 79.40625 54.894531 77.4375 56.5 C 77.4375 56.5 73.625 57.9375 73.625 57.9375 C 73.527344 57.226562 73.667969 57.1875 74.0625 56.75 C 74.84375 55.878906 79.1875 52.976562 80.3125 52.25 C 81.101562 51.742188 86.898438 48.324219 87.3125 48.375 Z M 87.3125 48.375 "/>
<path style=" stroke:none;fill-rule:nonzero;fill:rgb(80.000001%,81.568629%,68.235296%);fill-opacity:1;" d="M 73.5 49.625 C 73.550781 49.699219 73.59375 49.835938 73.6875 49.875 C 73.90625 49.847656 74.171875 49.914062 74.375 49.875 C 74.515625 50.046875 74.433594 50.234375 74.3125 50.375 C 73.988281 50.75 71.375 54.015625 71.1875 53.875 C 71.1875 53.875 71.75 52.1875 71.75 52.1875 Z M 73.5 49.625 "/>
<path style=" stroke:none;fill-rule:nonzero;fill:rgb(98.039216%,98.431373%,90.588236%);fill-opacity:1;" d="M 56 50 C 56.269531 50.117188 56.355469 50.242188 56.375 50.25 C 56.375 50.25 58.625 53.5 58.625 53.5 C 57.921875 52.933594 57.140625 52.179688 58.125 53.625 C 57.59375 52.996094 56.625 52.355469 56.125 51.625 C 56.105469 51.417969 55.785156 50.789062 55.625 50.625 C 55.625 50.625 55.375 49.8125 55.375 49.8125 C 55.417969 49.691406 55.917969 49.964844 56 50 Z M 56 50 "/>
<path style=" stroke:none;fill-rule:nonzero;fill:rgb(80.784315%,81.568629%,68.627453%);fill-opacity:1;" d="M 58.125 50.75 C 58.476562 51.359375 60.589844 53.957031 60.375 54.4375 C 60.085938 55.078125 58.929688 53.746094 58.625 53.5 C 58.625 53.5 56.375 50.25 56.375 50.25 C 56.910156 50.507812 57.480469 51.070312 58.125 50.75 Z M 58.125 50.75 "/>
<path style=" stroke:none;fill-rule:nonzero;fill:rgb(84.705883%,87.058824%,67.058825%);fill-opacity:1;" d="M 52.25 56.25 C 51.554688 55.980469 49.871094 55.613281 49.875 56.75 C 48.523438 55.847656 46.761719 55.28125 45.4375 54.375 C 45.195312 54.207031 43.253906 52.632812 43.1875 52.5 C 43.039062 52.203125 43.789062 51.390625 44.0625 51.25 Z M 52.25 56.25 "/>
<path style=" stroke:none;fill-rule:nonzero;fill:rgb(85.490197%,89.803922%,70.19608%);fill-opacity:1;" d="M 29.5 51.75 C 29.496094 51.773438 29.738281 51.914062 29.625 52.1875 C 29.613281 52.214844 29.164062 52.394531 29.125 52.5625 C 28.792969 53.933594 28.832031 55.679688 28.5 56.8125 C 28.488281 56.855469 27.910156 57.308594 27.875 57.4375 C 26.921875 61.003906 27.0625 67.351562 27.875 70.8125 C 28.175781 72.097656 28.761719 74.015625 29.25 75.5 C 29.429688 77.226562 28.121094 74.414062 28 74.0625 C 27.820312 73.542969 27.695312 71.785156 27.625 71.6875 C 27.507812 71.523438 26.988281 71.726562 26.875 71.5625 C 26.804688 71.460938 26.929688 70.355469 26.875 70.0625 C 26.667969 68.992188 26.378906 67.898438 25.8125 67 C 25.710938 67.710938 26.28125 68.042969 26.5 68.9375 C 26.632812 69.46875 26.671875 71.574219 26.75 71.6875 C 26.972656 72 27.257812 71.257812 27.5 72.25 C 26.539062 71.753906 26.328125 72.746094 25.5 72.875 C 25.300781 72.0625 24.648438 68.867188 24.625 68.1875 C 24.574219 66.769531 24.96875 67.445312 25.125 67.1875 C 25.167969 67.117188 24.542969 66.015625 24.5 65.6875 C 24.335938 64.488281 24.554688 62.667969 24.625 61.6875 C 24.746094 60.011719 24.703125 57.820312 25.75 56.4375 C 25.867188 57.660156 25.300781 58.871094 25.375 60.0625 C 25.378906 60.121094 25.746094 60.378906 25.75 60.4375 C 25.761719 60.71875 25.214844 60.433594 25.125 60.6875 C 24.957031 61.167969 25.25 62.585938 25.125 63.1875 C 25.558594 63.308594 25.898438 63.378906 25.9375 62.875 C 26.671875 63.921875 26.953125 60.601562 26.375 60.4375 C 26.652344 59.480469 26.140625 59.136719 26.25 58.1875 C 26.3125 57.640625 27.253906 54.226562 27.5 53.6875 C 27.613281 53.441406 28.8125 51.726562 29 51.625 C 29.335938 51.445312 29.230469 51.640625 29.5 51.75 Z M 29.5 51.75 "/>
<path style=" stroke:none;fill-rule:nonzero;fill:rgb(79.215688%,80.392158%,68.627453%);fill-opacity:1;" d="M 58.125 53.625 C 58.316406 53.851562 58.554688 54.851562 59.125 55 C 60.140625 57.242188 58.035156 55.558594 57.1875 54.875 C 56.402344 54.242188 55.558594 53.199219 55.125 52.625 C 55.925781 52.75 56.195312 52.433594 56.125 51.625 C 56.625 52.355469 57.59375 52.996094 58.125 53.625 Z M 58.125 53.625 "/>
<path style=" stroke:none;fill-rule:nonzero;fill:rgb(81.568629%,84.705883%,58.431375%);fill-opacity:1;" d="M 80.5 58.125 C 80.359375 57.03125 79.582031 57.144531 78.75 57.25 C 79.113281 56.78125 80.433594 56.054688 81.0625 55.75 C 81.316406 55.625 81.539062 55.886719 81.5625 55.875 C 82.1875 55.578125 82.789062 54.902344 83.4375 54.625 C 83.554688 54.574219 84.40625 54.492188 84.6875 54.375 C 84.6875 54.375 90.1875 52.125 90.1875 52.125 C 90.703125 52.714844 90.601562 53.175781 90.0625 53.625 C 88.773438 54.699219 82.621094 56.882812 80.5 58.125 Z M 80.5 58.125 "/>
<path style=" stroke:none;fill-rule:nonzero;fill:rgb(69.01961%,70.980394%,56.470591%);fill-opacity:1;" d="M 75.0625 53.5 C 75.363281 53.496094 75.117188 53.957031 75.625 53.9375 C 75.625 53.9375 75.5 54.1875 75.5 54.1875 C 75.5 54.1875 74.3125 54.875 74.3125 54.875 C 74.011719 54.554688 74.925781 53.503906 75.0625 53.5 Z M 75.0625 53.5 "/>
<path style=" stroke:none;fill-rule:nonzero;fill:rgb(98.039216%,98.431373%,90.588236%);fill-opacity:1;" d="M 59.125 55 C 58.554688 54.851562 58.316406 53.851562 58.125 53.625 C 58.457031 54.117188 58.84375 54.378906 59.125 55 Z M 59.125 55 "/>
<path style=" stroke:none;fill-rule:nonzero;fill:rgb(80.784315%,83.137256%,61.176473%);fill-opacity:1;" d="M 50.5 58.375 C 49.558594 58.246094 48.871094 58.933594 49 59.875 C 47.015625 58.757812 43.988281 57.394531 41.8125 56.375 C 41.320312 56.144531 40.859375 55.667969 40.3125 55.5 C 41.546875 56.199219 41.800781 54.609375 42.4375 54.625 C 42.691406 54.632812 46.441406 56.472656 47.0625 56.75 C 48.195312 57.261719 49.367188 57.625 50.5 58.375 Z M 50.5 58.375 "/>
<path style=" stroke:none;fill-rule:nonzero;fill:rgb(81.568629%,84.313726%,61.960787%);fill-opacity:1;" d="M 39.5625 54.875 C 39.5625 54.875 39.625 55.0625 39.625 55.0625 C 39.625 55.0625 39.4375 55.125 39.4375 55.125 C 39.4375 55.125 39.375 55.0625 39.375 55.0625 Z M 39.5625 54.875 "/>
<path style=" stroke:none;fill-rule:nonzero;fill:rgb(64.313728%,65.882355%,50.980395%);fill-opacity:1;" d="M 55.375 55.625 C 55.394531 55.601562 55.847656 55.371094 55.875 55.375 C 56.136719 55.394531 57.082031 56.375 57.0625 56.75 C 57.0625 56.75 55.3125 56.125 55.3125 56.125 C 55.382812 56.023438 55.359375 55.644531 55.375 55.625 Z M 55.375 55.625 "/>
<path style=" stroke:none;fill-rule:nonzero;fill:rgb(56.470591%,58.431375%,46.27451%);fill-opacity:1;" d="M 54.4375 58.125 C 54.585938 58.25 55.871094 58.988281 55.4375 59.25 C 54.707031 59.261719 53.867188 58.914062 54.4375 58.125 Z M 54.4375 58.125 "/>
<path style=" stroke:none;fill-rule:nonzero;fill:rgb(67.058825%,68.627453%,59.607846%);fill-opacity:1;" d="M 51.375 60.875 C 53.480469 60.476562 51.390625 59.058594 50.625 58.5 C 51.195312 57.808594 52.039062 59.183594 52.3125 59.375 C 52.851562 59.753906 55.6875 61.214844 55.75 61.5625 C 55.773438 61.691406 55.609375 61.859375 55.5625 62 Z M 51.375 60.875 "/>
<path style=" stroke:none;fill-rule:nonzero;fill:rgb(83.92157%,87.058824%,64.705884%);fill-opacity:1;" d="M 47.5 60.75 C 46.949219 61.074219 47.058594 61.898438 47.625 62.25 C 47.503906 62.617188 47.335938 62.449219 47.125 62.4375 C 44.152344 62.292969 41.460938 61.199219 38.625 60.4375 C 38.738281 60 38.878906 58.890625 39.4375 58.75 C 40.660156 58.441406 44.296875 59.839844 45.6875 60.125 C 45.726562 60.132812 45.898438 59.769531 46.4375 59.875 C 46.636719 59.914062 47.691406 60.335938 47.5 60.75 Z M 47.5 60.75 "/>
<path style=" stroke:none;fill-rule:nonzero;fill:rgb(61.960787%,65.490198%,44.313726%);fill-opacity:1;" d="M 80.8125 59.625 C 81.332031 59.695312 80.980469 60.101562 81.5 60.3125 C 81.527344 60.570312 77.984375 61.472656 77.875 61.3125 C 78.59375 60.703125 79.769531 59.488281 80.8125 59.625 Z M 80.8125 59.625 "/>
<path style=" stroke:none;fill-rule:nonzero;fill:rgb(73.333335%,75.686276%,61.56863%);fill-opacity:1;" d="M 83.6875 60.75 C 83.949219 60.777344 84.265625 60.683594 84.5 60.8125 C 84.5 60.867188 83.671875 60.992188 83.6875 60.75 Z M 83.6875 60.75 "/>
<path style=" stroke:none;fill-rule:nonzero;fill:rgb(80.000001%,84.705883%,53.333336%);fill-opacity:1;" d="M 86.75 61.875 C 86.050781 61.738281 85.550781 61.160156 84.5 61.125 C 84.917969 60.839844 88.027344 60.886719 88.1875 61 C 88.953125 61.542969 87.5 62.023438 86.75 61.875 Z M 86.75 61.875 "/>
<path style=" stroke:none;fill-rule:nonzero;fill:rgb(73.725492%,75.686276%,61.56863%);fill-opacity:1;" d="M 84 61.125 C 82.050781 61.390625 82.726562 63.121094 84.75 63.25 C 84.75 63.25 81.875 63.75 81.875 63.75 C 82.277344 63.550781 82.746094 63.023438 82.625 62.5625 C 82.382812 61.660156 78.773438 62.34375 78.625 63.375 C 78.160156 63.242188 77.230469 63.558594 77.1875 63.5 C 76.527344 62.621094 80.097656 62.140625 80.5625 62 C 81.632812 61.675781 82.894531 60.785156 84 61.125 Z M 84 61.125 "/>
<path style=" stroke:none;fill-rule:nonzero;fill:rgb(60.000002%,61.56863%,53.333336%);fill-opacity:1;" d="M 49.375 62.625 C 49.867188 62.613281 50.445312 62.589844 50.75 62.1875 C 50.8125 61.972656 50.515625 61.527344 50.375 61.375 C 50.4375 61.023438 50.703125 61.179688 50.9375 61.25 C 51.34375 61.375 54.210938 62.488281 54.4375 62.625 C 55.714844 63.40625 52.429688 63.292969 51.9375 63.25 C 51.082031 63.179688 50.195312 62.847656 49.375 62.625 Z M 49.375 62.625 "/>
<path style=" stroke:none;fill-rule:nonzero;fill:rgb(74.509805%,77.254903%,65.098041%);fill-opacity:1;" d="M 45.875 63.25 C 45.574219 63.328125 44.972656 63.457031 44.875 63.8125 C 44.324219 65.78125 50.183594 65.46875 48.125 63.5 C 50.386719 63.523438 52.511719 64.269531 54.6875 64.75 C 55.699219 65.839844 53.914062 65.3125 53.5625 65.375 C 53.460938 65.394531 53.539062 65.605469 53.4375 65.625 C 52.75 65.746094 51.828125 65.585938 51.25 66 C 50.890625 65.882812 49.882812 65.914062 49.5 66 C 49.5 66 38.3125 64 38.3125 64 C 38.3125 64 38.4375 62.75 38.4375 62.75 Z M 45.875 63.25 "/>
<path style=" stroke:none;fill-rule:nonzero;fill:rgb(74.901962%,79.215688%,59.607846%);fill-opacity:1;" d="M 90.375 64.25 C 90.277344 64.976562 91.003906 64.617188 91.375 64.9375 C 91.347656 65.179688 91.277344 65.382812 91.25 65.625 C 91.246094 65.644531 90.890625 65.527344 91 65.9375 C 91.035156 66.074219 92.296875 66.859375 90.8125 67.25 C 90.722656 67.273438 89.15625 67.5 89.0625 67.5 C 88.777344 67.503906 86.179688 66.875 86.125 67.0625 C 86.566406 68.101562 87.800781 67.664062 88.6875 67.875 C 88.980469 67.945312 90.105469 68.632812 90.1875 68.625 C 90.523438 68.589844 90.292969 68.292969 90.4375 68.25 C 90.546875 68.21875 92.109375 69.414062 92.4375 69.375 C 92.5625 69.585938 91.820312 71.101562 91.5 71.3125 C 91.75 71.503906 91.960938 71.484375 92.25 71.5 C 91.570312 71.625 90.371094 71.585938 89.6875 71.5 C 88.507812 71.355469 85.835938 70.710938 84.8125 70.375 C 82.125 69.492188 79.898438 67.578125 77.125 66.9375 C 77.925781 65.84375 79.554688 66.808594 80.625 65.9375 C 80.625 65.9375 77.9375 65.625 77.9375 65.625 C 77.9375 65.625 78.1875 65.25 78.1875 65.25 C 82.164062 64.839844 86.367188 63.992188 90.375 64.25 Z M 81.875 68.125 C 81.382812 68.378906 82.042969 68.460938 82.1875 68.5 C 83.144531 68.757812 84.007812 69.109375 84.9375 69.375 C 85.015625 69.398438 84.984375 69.105469 85.0625 69.125 C 85.097656 69.132812 85.230469 69.539062 85.5625 69.625 C 85.992188 69.734375 89.363281 70.414062 89.5625 70.375 C 89.699219 70.347656 90.246094 69.617188 90.25 69.5625 C 90.292969 68.925781 87.25 68.285156 86.625 68.375 C 86.5625 66.664062 84.640625 67.386719 84.0625 67.25 C 83.976562 67.230469 83 66.335938 82.5625 66.25 C 81.78125 66.097656 80.15625 66.195312 79.625 66.9375 C 79.566406 67.53125 81.402344 68.050781 81.875 68.125 Z M 81.875 68.125 "/>
<path style=" stroke:none;fill-rule:nonzero;fill:rgb(89.803922%,92.941177%,74.901962%);fill-opacity:1;" d="M 91.25 65.625 C 91.277344 65.382812 91.347656 65.179688 91.375 64.9375 C 91.003906 64.617188 90.277344 64.976562 90.375 64.25 C 90.792969 64.277344 91.585938 64.179688 91.9375 64.375 C 92.636719 64.769531 92.59375 66.089844 91.25 65.625 Z M 91.25 65.625 "/>
<path style=" stroke:none;fill-rule:nonzero;fill:rgb(55.29412%,58.823532%,41.176471%);fill-opacity:1;" d="M 46.0625 66.75 C 49.421875 66.699219 47.09375 67.984375 46.1875 67.5 C 46.046875 67.425781 46.199219 67.019531 46.0625 67 C 46.007812 66.992188 46.109375 67.386719 45.6875 67.625 C 45.550781 67.703125 42.042969 67.9375 43.1875 67.125 C 43.304688 67.039062 45.824219 66.753906 46.0625 66.75 Z M 46.0625 66.75 "/>
<path style=" stroke:none;fill-rule:nonzero;fill:rgb(79.215688%,82.352942%,72.156864%);fill-opacity:1;" d="M 29.25 75.5 C 31.855469 83.425781 38.96875 91.699219 45.8125 96.375 C 45.980469 96.488281 46.316406 97.164062 46.6875 97.375 C 46.78125 97.429688 48.410156 97.722656 48.6875 97.875 C 49.1875 98.152344 49.679688 99.128906 50.1875 99.25 C 50.21875 99.257812 50.417969 98.871094 50.8125 99 C 51.785156 99.3125 53.046875 100.078125 54.0625 100.375 C 54.144531 100.398438 54.5 100.164062 54.8125 100.25 C 55.097656 100.332031 55.515625 100.863281 55.5625 100.875 C 56.445312 101.121094 58.101562 100.988281 58.5625 101.125 C 58.621094 101.144531 59.09375 101.761719 59.5625 101.875 C 60.273438 102.050781 66.964844 102.453125 67.5625 102.375 C 68.0625 102.3125 70.253906 101.253906 70.8125 101.125 C 73.023438 100.617188 74.625 100.445312 76.9375 99.625 C 77.308594 99.492188 78.011719 99.648438 78.0625 99.625 C 78.890625 99.273438 80.882812 97.914062 81.9375 97.375 C 82.121094 97.28125 82.378906 97.59375 82.5625 97.5 C 82.601562 97.480469 82.734375 97.105469 82.9375 97 C 91.554688 92.523438 98.382812 81.460938 101.625 72.5625 C 101.5 71.734375 101.953125 70.902344 102.125 70 C 102.125 70 102.375 72.375 102.375 72.375 C 102.304688 72.574219 102.085938 72.835938 102 73.125 C 101.890625 73.5 102.207031 73.902344 102.125 74.1875 C 102.113281 74.230469 101.574219 74.441406 101.5 74.8125 C 101.417969 75.214844 101.710938 75.707031 101.5 76.3125 C 101.4375 76.496094 100.398438 77.480469 100.375 77.5625 C 100.289062 77.851562 100.605469 78.203125 100.5 78.4375 C 99.933594 79.683594 98.601562 82.0625 97.75 83.1875 C 97.664062 83.300781 96.71875 83.789062 96.5 84.1875 C 96.023438 85.054688 96.535156 85.242188 96.5 85.4375 C 96.484375 85.53125 95.316406 86.585938 95.125 86.8125 C 93.746094 88.445312 92.160156 90.207031 90.5625 91.875 C 90.515625 91.925781 89.820312 92.195312 89.75 92.3125 C 89.699219 92.394531 89.8125 92.902344 89.625 93.1875 C 89.460938 93.4375 89.042969 93.390625 88.9375 93.5 C 86.324219 96.183594 84.707031 96.960938 81.5625 98.625 C 81.402344 98.710938 80.855469 99.34375 80.6875 99.375 C 80.148438 99.476562 79.976562 99.121094 79.9375 99.125 C 78.78125 99.265625 79.046875 99.8125 78.6875 100.125 C 78.414062 100.359375 77.777344 100.328125 77.6875 100.375 C 77.488281 100.476562 77.34375 100.867188 77.3125 100.875 C 76.71875 101.070312 75.4375 100.996094 74.9375 101.125 C 74.140625 101.332031 74.09375 102.082031 72.8125 101.875 C 72.691406 101.855469 72.808594 101.519531 72.6875 101.5 C 71.175781 101.253906 70.742188 102.457031 70.0625 102.5 C 69.707031 102.523438 69.367188 102.210938 68.9375 102.25 C 68.449219 102.296875 67.460938 102.804688 66.9375 102.875 C 65.710938 103.042969 66.128906 102.511719 65.8125 102.375 C 65.148438 102.085938 64.351562 102.847656 64.1875 102.875 C 63.570312 102.976562 63.054688 102.457031 62.6875 102.5 C 62.660156 102.503906 62.5 102.871094 62.3125 102.875 C 60.117188 102.933594 60.347656 102.6875 58.4375 102.125 C 57.890625 101.964844 56.480469 102.007812 56.0625 101.75 C 56.019531 101.722656 55.976562 101.097656 55.5625 101 C 55.480469 100.980469 54.609375 101.261719 54.3125 101.125 C 54.019531 100.992188 54.269531 100.464844 53.8125 100.375 C 53.695312 100.351562 52.851562 100.582031 52.4375 100.5 C 52.398438 100.492188 52.164062 100.101562 51.8125 100 C 51.617188 99.941406 51.28125 100.222656 50.9375 100.125 C 50.539062 100.011719 48.945312 98.199219 48.5625 98 C 47.945312 97.675781 46 97.335938 45.4375 97 C 44.566406 96.480469 44.929688 96.289062 44.5625 95.875 C 44.179688 95.445312 43.863281 95.917969 43.6875 95.875 C 43.59375 95.851562 42.738281 94.902344 42.1875 94.625 C 42 94.53125 41.765625 94.835938 41.5625 94.75 C 41.152344 94.578125 39.988281 92.832031 39.3125 92.375 C 39.152344 92.265625 38.910156 92.558594 38.8125 92.5 C 38.359375 92.234375 38.300781 91.5 38.25 91.4375 C 37.078125 90.058594 35.871094 88.960938 34.75 87.4375 C 34.691406 87.359375 34.351562 86.316406 34 85.8125 C 33.578125 85.203125 32.0625 83.976562 31.875 83.6875 C 31.78125 83.542969 31.371094 81.988281 31.125 81.5625 C 30.777344 80.964844 29.5 79.453125 29.375 79.1875 C 29.171875 78.753906 29.3125 78.054688 29.125 77.5625 C 28.367188 75.597656 28.027344 74.402344 27.5 72.25 C 27.257812 71.257812 26.972656 72 26.75 71.6875 C 26.671875 71.574219 26.632812 69.46875 26.5 68.9375 C 26.28125 68.042969 25.710938 67.710938 25.8125 67 C 26.378906 67.898438 26.667969 68.992188 26.875 70.0625 C 26.929688 70.355469 26.804688 71.460938 26.875 71.5625 C 26.988281 71.726562 27.507812 71.523438 27.625 71.6875 C 27.695312 71.785156 27.820312 73.542969 28 74.0625 C 28.121094 74.414062 29.429688 77.226562 29.25 75.5 Z M 29.25 75.5 "/>
<path style=" stroke:none;fill-rule:nonzero;fill:rgb(75.686276%,78.823531%,61.960787%);fill-opacity:1;" d="M 41.6875 67.125 C 41.824219 67.125 42.171875 67.074219 42.25 67.1875 C 42.121094 68.273438 41.054688 67.832031 40.25 67.9375 C 39.773438 67.269531 41.226562 67.128906 41.6875 67.125 Z M 41.6875 67.125 "/>
<path style=" stroke:none;fill-rule:nonzero;fill:rgb(71.764708%,75.294119%,59.607846%);fill-opacity:1;" d="M 88.375 73.625 C 87.566406 73.542969 87.738281 73.757812 87 74.0625 C 87.527344 74.203125 88.179688 74.9375 88.5 75.125 C 87.007812 74.394531 85.726562 74.289062 84.25 73.5625 C 84.132812 73.503906 84.449219 73.324219 84.3125 73.25 C 83.976562 73.070312 82.734375 72.960938 82.375 72.5 C 83.171875 72.1875 83.058594 70.929688 82.4375 70.5 C 81.539062 69.878906 80.648438 70.546875 80.5625 70.5 C 80.207031 70.296875 78.671875 67.28125 78.125 70 C 77.683594 69.636719 77.269531 69.214844 76.8125 68.875 C 76.46875 68.621094 75.140625 68.644531 76.3125 67.625 C 80.449219 68.96875 85.035156 70.800781 88.375 73.625 Z M 88.375 73.625 "/>
<path style=" stroke:none;fill-rule:nonzero;fill:rgb(70.19608%,72.941178%,62.7451%);fill-opacity:1;" d="M 44 73.5 C 44.273438 73.195312 43.730469 73.210938 43.9375 73.125 C 44 73.097656 44.558594 73.226562 44.8125 73.125 C 45.328125 72.917969 45.957031 72.40625 46.5625 72.375 C 47.605469 71.394531 43.375 72.84375 43.1875 72.875 C 42.75 72.945312 42.414062 72.746094 42.125 72.75 C 41.40625 72.496094 41.832031 71.320312 41.125 71.375 C 43.148438 70.027344 44.164062 69.695312 46.5 69.3125 C 46.976562 69.234375 46.488281 69.410156 46.75 69.5 C 44.726562 71.96875 49.902344 71.566406 50.125 69.75 C 51.027344 70.214844 52.964844 69.09375 53.875 68.5625 C 52.671875 68.46875 50.859375 68.5 50 69.375 C 49.839844 69.035156 49.496094 68.808594 49.125 68.75 C 49.777344 68.464844 50.867188 68.207031 51.5625 68.125 C 53.117188 67.945312 54.535156 68.082031 55.9375 67.875 C 56.0625 67.960938 56.015625 68.246094 55.9375 68.375 C 55.808594 68.589844 51.878906 70.097656 51.3125 70.375 C 48.523438 71.730469 47.132812 72.613281 44 73.5 Z M 45.8125 70.625 C 45.691406 70.613281 43.597656 71.21875 43.75 71.6875 C 43.832031 72.289062 45.808594 71.128906 46.4375 71.375 C 46.703125 71.242188 46.027344 70.644531 45.8125 70.625 Z M 45.8125 70.625 "/>
<path style=" stroke:none;fill-rule:nonzero;fill:rgb(62.7451%,67.450982%,43.529412%);fill-opacity:1;" d="M 86.625 68.375 C 87.25 68.285156 90.292969 68.925781 90.25 69.5625 C 90.246094 69.617188 89.699219 70.347656 89.5625 70.375 C 89.363281 70.414062 85.992188 69.734375 85.5625 69.625 C 85.230469 69.539062 85.097656 69.132812 85.0625 69.125 C 84.984375 69.105469 85.015625 69.398438 84.9375 69.375 C 84.007812 69.109375 83.144531 68.757812 82.1875 68.5 C 82.042969 68.460938 81.382812 68.378906 81.875 68.125 C 82.941406 68.289062 83.710938 67.863281 83.8125 67.875 C 83.9375 67.890625 84.402344 69 86.0625 68.75 C 86.191406 68.730469 86.496094 68.394531 86.625 68.375 Z M 86.625 68.375 "/>
<path style=" stroke:none;fill-rule:nonzero;fill:rgb(46.27451%,48.627451%,41.176471%);fill-opacity:1;" d="M 50.125 69.75 C 50.148438 69.570312 50.066406 69.511719 50 69.375 C 50.859375 68.5 52.671875 68.46875 53.875 68.5625 C 52.964844 69.09375 51.027344 70.214844 50.125 69.75 Z M 50.125 69.75 "/>
<path style=" stroke:none;fill-rule:nonzero;fill:rgb(80.000001%,84.313726%,63.529414%);fill-opacity:1;" d="M 104.375 73 C 104.375 73 102.5 78.0625 102.5 78.0625 C 100.550781 81.15625 99.183594 84.578125 97 87.625 C 96.738281 87.988281 96.261719 88.410156 96 88.75 C 95.980469 88.367188 95.734375 88.308594 95.875 87.9375 C 96.417969 86.5 98.851562 83.574219 99.75 81.9375 C 101.378906 78.96875 102.367188 75.9375 103.625 72.8125 C 103.011719 72.511719 102.597656 73.121094 102 73.125 C 102.085938 72.835938 102.304688 72.574219 102.375 72.375 C 102.5625 71.835938 103.636719 68.972656 104.0625 68.875 C 105.300781 68.585938 104.398438 70.570312 104.375 70.8125 C 104.332031 71.253906 104.421875 72.433594 104.375 73 Z M 104.375 73 "/>
<path style=" stroke:none;fill-rule:nonzero;fill:rgb(70.980394%,73.333335%,65.882355%);fill-opacity:1;" d="M 56.9375 69 C 57.105469 68.980469 57.359375 68.964844 57.5 69.0625 C 57.828125 69.484375 52.558594 71.78125 52.1875 72 C 47.898438 74.523438 44.894531 76.960938 40.0625 78.5 C 39.492188 78.679688 38.785156 79.339844 38.375 78.8125 C 38.375 78.8125 39.625 78.3125 39.625 78.3125 C 38 78.03125 40.460938 76.011719 41.0625 75.625 C 42.824219 74.496094 55.222656 69.179688 56.9375 69 Z M 56.9375 69 "/>
<path style=" stroke:none;fill-rule:nonzero;fill:rgb(59.607846%,61.56863%,56.470591%);fill-opacity:1;" d="M 54.25 74.125 C 54.679688 73.019531 53.203125 72.847656 52.375 73.125 C 52.375 73.125 58.1875 70.25 58.1875 70.25 C 58.683594 70.566406 55.679688 72.625 55.4375 72.875 C 55.03125 73.292969 54.839844 74.269531 54.25 74.125 Z M 54.25 74.125 "/>
<path style=" stroke:none;fill-rule:nonzero;fill:rgb(56.862748%,60.784316%,44.705883%);fill-opacity:1;" d="M 45.8125 70.625 C 46.027344 70.644531 46.703125 71.242188 46.4375 71.375 C 45.808594 71.128906 43.832031 72.289062 43.75 71.6875 C 43.597656 71.21875 45.691406 70.613281 45.8125 70.625 Z M 45.8125 70.625 "/>
<path style=" stroke:none;fill-rule:nonzero;fill:rgb(81.960785%,83.92157%,78.039217%);fill-opacity:1;" d="M 41.125 71.375 C 41.832031 71.320312 41.40625 72.496094 42.125 72.75 C 42.007812 72.753906 42.054688 73.070312 41.4375 73 C 40.269531 72.867188 40.101562 71.972656 40.9375 71.25 C 40.945312 71.242188 41.058594 71.417969 41.125 71.375 Z M 41.125 71.375 "/>
<path style=" stroke:none;fill-rule:nonzero;fill:rgb(74.509805%,78.823531%,58.823532%);fill-opacity:1;" d="M 92.25 71.5 C 92.28125 71.5 92.652344 71.203125 92.875 71.4375 C 92.707031 71.570312 92.441406 71.464844 92.25 71.5 Z M 92.25 71.5 "/>
<path style=" stroke:none;fill-rule:nonzero;fill:rgb(62.7451%,65.882355%,56.078434%);fill-opacity:1;" d="M 53.375 76.5 C 52.195312 80.027344 57.0625 76.535156 56.5 75.0625 C 56.253906 74.726562 56.128906 74.753906 55.75 74.75 C 55.828125 73.800781 57.230469 73.484375 57.8125 73.125 C 58.421875 72.746094 58.855469 71.71875 59.8125 72 C 61.03125 72.359375 58.332031 74.417969 57.875 74.9375 C 56.464844 76.550781 55.035156 78.867188 53.1875 79.875 C 53.1875 79.875 53.875 79.1875 53.875 79.1875 C 53.457031 78.554688 51.328125 81.226562 50.4375 81.25 C 49.800781 81.265625 49.710938 80.4375 49 80.5625 Z M 53.375 76.5 "/>
<path style=" stroke:none;fill-rule:nonzero;fill:rgb(71.372551%,74.901962%,60.784316%);fill-opacity:1;" d="M 27.5 72.25 C 28.027344 74.402344 28.367188 75.597656 29.125 77.5625 C 29.3125 78.054688 29.171875 78.753906 29.375 79.1875 C 29.5 79.453125 30.777344 80.964844 31.125 81.5625 C 31.371094 81.988281 31.78125 83.542969 31.875 83.6875 C 32.0625 83.976562 33.578125 85.203125 34 85.8125 C 34.351562 86.316406 34.691406 87.359375 34.75 87.4375 C 35.871094 88.960938 37.078125 90.058594 38.25 91.4375 C 38.300781 91.5 38.359375 92.234375 38.8125 92.5 C 38.910156 92.558594 39.152344 92.265625 39.3125 92.375 C 39.988281 92.832031 41.152344 94.578125 41.5625 94.75 C 41.765625 94.835938 42 94.53125 42.1875 94.625 C 42.738281 94.902344 43.59375 95.851562 43.6875 95.875 C 43.863281 95.917969 44.179688 95.445312 44.5625 95.875 C 44.929688 96.289062 44.566406 96.480469 45.4375 97 C 46 97.335938 47.945312 97.675781 48.5625 98 C 48.945312 98.199219 50.539062 100.011719 50.9375 100.125 C 51.28125 100.222656 51.617188 99.941406 51.8125 100 C 52.164062 100.101562 52.398438 100.492188 52.4375 100.5 C 52.851562 100.582031 53.695312 100.351562 53.8125 100.375 C 54.269531 100.464844 54.019531 100.992188 54.3125 101.125 C 54.609375 101.261719 55.480469 100.980469 55.5625 101 C 55.976562 101.097656 56.019531 101.722656 56.0625 101.75 C 56.480469 102.007812 57.890625 101.964844 58.4375 102.125 C 60.347656 102.6875 60.117188 102.933594 62.3125 102.875 C 62.5 102.871094 62.660156 102.503906 62.6875 102.5 C 63.054688 102.457031 63.570312 102.976562 64.1875 102.875 C 64.351562 102.847656 65.148438 102.085938 65.8125 102.375 C 66.128906 102.511719 65.710938 103.042969 66.9375 102.875 C 67.460938 102.804688 68.449219 102.296875 68.9375 102.25 C 69.367188 102.210938 69.707031 102.523438 70.0625 102.5 C 70.742188 102.457031 71.175781 101.253906 72.6875 101.5 C 72.808594 101.519531 72.691406 101.855469 72.8125 101.875 C 74.09375 102.082031 74.140625 101.332031 74.9375 101.125 C 75.4375 100.996094 76.71875 101.070312 77.3125 100.875 C 77.34375 100.867188 77.488281 100.476562 77.6875 100.375 C 77.777344 100.328125 78.414062 100.359375 78.6875 100.125 C 79.046875 99.8125 78.78125 99.265625 79.9375 99.125 C 79.976562 99.121094 80.148438 99.476562 80.6875 99.375 C 80.855469 99.34375 81.402344 98.710938 81.5625 98.625 C 84.707031 96.960938 86.324219 96.183594 88.9375 93.5 C 89.042969 93.390625 89.460938 93.4375 89.625 93.1875 C 89.8125 92.902344 89.699219 92.394531 89.75 92.3125 C 89.820312 92.195312 90.515625 91.925781 90.5625 91.875 C 92.160156 90.207031 93.746094 88.445312 95.125 86.8125 C 95.316406 86.585938 96.484375 85.53125 96.5 85.4375 C 96.535156 85.242188 96.023438 85.054688 96.5 84.1875 C 96.71875 83.789062 97.664062 83.300781 97.75 83.1875 C 98.601562 82.0625 99.933594 79.683594 100.5 78.4375 C 100.605469 78.203125 100.289062 77.851562 100.375 77.5625 C 100.398438 77.480469 101.4375 76.496094 101.5 76.3125 C 101.710938 75.707031 101.417969 75.214844 101.5 74.8125 C 101.574219 74.441406 102.113281 74.230469 102.125 74.1875 C 102.207031 73.902344 101.890625 73.5 102 73.125 C 102.597656 73.121094 103.011719 72.511719 103.625 72.8125 C 102.367188 75.9375 101.378906 78.96875 99.75 81.9375 C 98.851562 83.574219 96.417969 86.5 95.875 87.9375 C 95.734375 88.308594 95.980469 88.367188 96 88.75 C 81.023438 108.347656 53.753906 110.011719 36.375 92.375 C 32.183594 88.117188 27.65625 80.074219 25.875 74.375 C 25.757812 74 25.628906 73.394531 25.5 72.875 C 26.328125 72.746094 26.539062 71.753906 27.5 72.25 Z M 27.5 72.25 "/>
<path style=" stroke:none;fill-rule:nonzero;fill:rgb(56.862748%,62.352943%,40.784314%);fill-opacity:1;" d="M 80.375 73.5 C 80.199219 73.328125 79.949219 72.699219 79.625 72.375 C 79.625 72.375 86.875 77.3125 86.875 77.3125 C 86.773438 78.664062 85.804688 77.625 85.25 77.1875 C 85.226562 77.171875 85.695312 77.152344 85.3125 76.875 C 83.679688 75.6875 81.863281 74.960938 80.375 73.5 Z M 80.375 73.5 "/>
<path style=" stroke:none;fill-rule:nonzero;fill:rgb(44.313726%,48.235294%,33.333334%);fill-opacity:1;" d="M 74.3125 72.75 C 74.769531 72.457031 76.898438 74.164062 77.375 74.5625 C 75.847656 75.011719 74.398438 74.421875 74.3125 72.75 Z M 74.3125 72.75 "/>
<path style=" stroke:none;fill-rule:nonzero;fill:rgb(51.372552%,44.313726%,19.607843%);fill-opacity:1;" d="M 104.5 73.875 C 104.414062 74.667969 103.144531 77.667969 102.75 78.5625 C 101.308594 81.839844 99.203125 85.324219 97 88.125 C 97.011719 88.101562 97.1875 87.632812 97 87.625 C 99.183594 84.578125 100.550781 81.15625 102.5 78.0625 C 102.5 78.0625 104.375 73 104.375 73 C 104.371094 73.042969 104.519531 73.707031 104.5 73.875 Z M 104.5 73.875 "/>
<path style=" stroke:none;fill-rule:nonzero;fill:rgb(71.372551%,74.117649%,65.490198%);fill-opacity:1;" d="M 51.25 73.75 C 51.25 73.75 51.625 73.4375 51.625 73.4375 C 51.574219 73.5625 51.28125 73.707031 51.25 73.75 Z M 51.25 73.75 "/>
<path style=" stroke:none;fill-rule:nonzero;fill:rgb(68.235296%,72.156864%,60.000002%);fill-opacity:1;" d="M 59 77.5 C 58.527344 77.78125 57.609375 79.179688 58.4375 79.5 C 59.992188 80.101562 61.738281 77.125 59.625 77.25 C 59.972656 76.964844 61.761719 74.640625 61.9375 74.625 C 62.230469 74.601562 62.21875 74.933594 62.375 75.0625 C 61.695312 76.066406 61.457031 77.410156 61 78.4375 C 60.875 78.714844 59.929688 79.742188 60.3125 80 C 61.003906 78.859375 61.914062 77.808594 62.625 76.6875 C 62.8125 76.390625 62.832031 75.234375 63.4375 75.375 C 63.585938 75.410156 63.738281 75.851562 63.75 76.0625 C 63.8125 77.320312 61.414062 85.8125 60.625 86.9375 C 60.257812 87.460938 59.488281 87.804688 59.25 88.0625 C 59.199219 88.121094 59.304688 88.621094 59.25 88.6875 C 58.308594 89.832031 57.109375 88.359375 57 87.3125 C 56.9375 86.726562 57.457031 85.972656 57.625 85.4375 C 57.667969 85.300781 57.417969 85.167969 57.5 84.9375 C 57.539062 84.832031 58.847656 83.285156 58.1875 83.375 C 58.1875 83.375 54 90.1875 54 90.1875 C 54 90.1875 52.3125 90 52.3125 90 C 52.3125 90 51.875 90.4375 51.875 90.4375 C 51.875 90.4375 55.4375 83.125 55.4375 83.125 C 54.816406 83.746094 54.328125 84.523438 53.6875 85.125 C 53.449219 85.347656 53 85.820312 52.9375 85.875 C 52.324219 86.410156 50.605469 87.617188 49.875 87.875 C 50.148438 87.359375 49.128906 87.046875 49.125 86.5625 C 49.121094 86.109375 51.566406 84.058594 52 83.5625 C 53 82.417969 53.921875 80.894531 54.875 79.8125 C 56.792969 77.632812 58.929688 75.59375 60.8125 73.375 C 60.875 73.492188 61.25 73.902344 61.25 73.9375 C 61.253906 74.402344 58.617188 76.5 59 77.5 Z M 61.5 80.5 C 60.949219 80.492188 60.25 81.238281 60 81.6875 C 59.628906 82.347656 59.632812 83.421875 59.5 83.6875 C 59.4375 83.8125 58.148438 84.117188 57.875 84.9375 C 57.457031 86.183594 58.488281 87.871094 59.625 86.5625 C 60.070312 86.050781 60.117188 84.71875 60.375 84.3125 C 60.523438 84.082031 61.109375 83.960938 61.375 83.5625 C 61.785156 82.945312 62.589844 81.167969 61.875 80.625 C 61.941406 79.734375 62.757812 79.003906 62.5625 78.125 C 62.085938 78.570312 61.140625 79.917969 61.5 80.5 Z M 61.5 80.5 "/>
<path style=" stroke:none;fill-rule:nonzero;fill:rgb(70.19608%,72.941178%,62.7451%);fill-opacity:1;" d="M 44 73.5 C 43.699219 73.832031 43.816406 73.65625 43.5 73.75 C 43.527344 73.742188 43.753906 73.570312 44 73.5 Z M 44 73.5 "/>
<path style=" stroke:none;fill-rule:nonzero;fill:rgb(86.666667%,89.803922%,76.078433%);fill-opacity:1;" d="M 88.375 73.625 C 88.972656 73.683594 90.800781 74.542969 90.625 75.1875 C 89.757812 76.003906 89.386719 75.640625 88.5 75.125 C 88.179688 74.9375 87.527344 74.203125 87 74.0625 C 87.738281 73.757812 87.566406 73.542969 88.375 73.625 Z M 88.375 73.625 "/>
<path style=" stroke:none;fill-rule:nonzero;fill:rgb(70.19608%,72.941178%,62.7451%);fill-opacity:1;" d="M 43.5 73.75 C 43.339844 73.796875 43.144531 73.96875 42.875 73.875 C 43.078125 73.828125 43.375 73.78125 43.5 73.75 Z M 43.5 73.75 "/>
<path style=" stroke:none;fill-rule:nonzero;fill:rgb(70.19608%,72.941178%,62.7451%);fill-opacity:1;" d="M 42.875 73.875 C 42.851562 73.878906 42.574219 74.167969 42.375 73.9375 Z M 42.875 73.875 "/>
<path style=" stroke:none;fill-rule:nonzero;fill:rgb(71.372551%,74.117649%,65.490198%);fill-opacity:1;" d="M 51.375 73.875 C 50.886719 74.667969 51.003906 75.867188 52.125 75.75 C 51.84375 76.019531 51.460938 76.691406 51.1875 76.875 C 50.914062 77.054688 50.367188 76.960938 50.3125 77 C 47.867188 78.757812 48.09375 79.882812 44.6875 80.75 C 43.054688 81.164062 42.480469 81.84375 42.75 79.3125 C 45.03125 76.699219 48.417969 75.613281 51.25 73.75 C 51.214844 73.800781 51.289062 73.898438 51.375 73.875 Z M 51.375 73.875 "/>
<path style=" stroke:none;fill-rule:nonzero;fill:rgb(70.19608%,72.941178%,62.7451%);fill-opacity:1;" d="M 42.0625 74 C 42.0625 74 42.1875 74.125 42.1875 74.125 C 42.1875 74.125 42.1875 74.25 42.1875 74.25 C 42.1875 74.25 42.0625 74.25 42.0625 74.25 Z M 42.0625 74 "/>
<path style=" stroke:none;fill-rule:nonzero;fill:rgb(50.588238%,43.921569%,21.568628%);fill-opacity:1;" d="M 25.875 74.375 C 27.65625 80.074219 32.183594 88.117188 36.375 92.375 C 36.375 92.375 36 92.5 36 92.5 C 31.71875 87.96875 27.246094 80.488281 25.5 74.5 Z M 25.875 74.375 "/>
<path style=" stroke:none;fill-rule:nonzero;fill:rgb(70.19608%,72.941178%,62.7451%);fill-opacity:1;" d="M 41.25 74.5 C 41.226562 74.503906 40.980469 74.828125 40.75 74.4375 C 40.925781 74.28125 41.007812 74.515625 41.25 74.5 Z M 41.25 74.5 "/>
<path style=" stroke:none;fill-rule:nonzero;fill:rgb(70.19608%,72.941178%,62.7451%);fill-opacity:1;" d="M 41.25 74.5 C 41.28125 74.496094 41.660156 74.203125 41.875 74.4375 C 41.703125 74.5625 41.453125 74.480469 41.25 74.5 Z M 41.25 74.5 "/>
<path style=" stroke:none;fill-rule:nonzero;fill:rgb(43.921569%,47.450981%,33.333334%);fill-opacity:1;" d="M 76 77.75 C 76.117188 77.992188 75.878906 78.222656 75.875 78.25 C 75.707031 78.082031 75.621094 77.765625 75.5 77.625 C 74.925781 76.960938 74.183594 76.96875 73.75 76.5625 C 73.539062 76.363281 72.445312 74.660156 73.3125 74.75 C 73.738281 74.792969 75.632812 77.308594 76 77.75 Z M 76 77.75 "/>
<path style=" stroke:none;fill-rule:nonzero;fill:rgb(45.882353%,50.980395%,32.941177%);fill-opacity:1;" d="M 76.875 84.75 C 76.875 84.75 76.5 85 76.5 85 C 74.847656 82.210938 73.140625 80.386719 71.875 77.3125 C 71.808594 77.148438 70.863281 76.171875 71.4375 76 C 71.53125 75.972656 72.632812 77.269531 72.75 77.4375 C 74.375 79.808594 75.402344 82.320312 76.875 84.75 Z M 76.875 84.75 "/>
<path style=" stroke:none;fill-rule:nonzero;fill:rgb(61.176473%,66.666669%,47.843137%);fill-opacity:1;" d="M 84.125 81 C 83.722656 81.320312 83.558594 81.875 82.875 82 C 82.566406 81.882812 82.339844 81.683594 82.125 81.4375 C 82.125 81.4375 83.25 81.1875 83.25 81.1875 C 81.269531 80.871094 80.386719 79.007812 78.75 77.9375 C 78.785156 77.660156 78.917969 77.867188 79 77.5 C 79.042969 77.308594 79.433594 77.355469 79.125 76.5 C 79.402344 76.320312 79.402344 76.332031 79.625 76.5625 C 80.449219 77.410156 82.003906 78.8125 82.625 79.5625 C 82.769531 79.734375 82.625 80.503906 83 79.8125 C 83.40625 80.140625 83.523438 80.347656 83.5625 80.875 C 83.5625 80.875 83.6875 80.25 83.6875 80.25 Z M 84.125 81 "/>
<path style=" stroke:none;fill-rule:nonzero;fill:rgb(43.529412%,47.058824%,33.725491%);fill-opacity:1;" d="M 69.4375 76.875 C 69.628906 76.824219 71.003906 78.910156 71 79.0625 C 70.992188 79.410156 70.175781 79.664062 70.0625 80.125 C 69.945312 79.6875 68.757812 77.054688 69.4375 76.875 Z M 69.4375 76.875 "/>
<path style=" stroke:none;fill-rule:nonzero;fill:rgb(50.980395%,57.254905%,36.078432%);fill-opacity:1;" d="M 75.875 78.75 C 75.875 78.589844 75.851562 78.398438 75.875 78.25 C 75.878906 78.222656 76.117188 77.992188 76 77.75 C 76.648438 78.53125 81.222656 84.097656 81.125 84.5625 C 80.9375 85.464844 80.148438 84.589844 79.875 84.3125 C 79.023438 83.445312 75.871094 79.773438 75.875 78.75 Z M 75.875 78.75 "/>
<path style=" stroke:none;fill-rule:nonzero;fill:rgb(85.09804%,88.235295%,77.64706%);fill-opacity:1;" d="M 88.3125 78 C 88.582031 78.117188 88.136719 78.933594 88.9375 78.25 C 89.683594 78.457031 88.714844 79.710938 88.5625 79.75 C 88.289062 79.820312 86.957031 78.996094 87 78.8125 C 86.996094 78.449219 87.574219 78.707031 87.6875 78.625 C 87.792969 78.550781 88.152344 77.929688 88.3125 78 Z M 88.3125 78 "/>
<path style=" stroke:none;fill-rule:nonzero;fill:rgb(39.607844%,43.529412%,29.803923%);fill-opacity:1;" d="M 61.875 80.625 C 61.757812 80.535156 61.652344 80.5 61.5 80.5 C 61.140625 79.917969 62.085938 78.570312 62.5625 78.125 C 62.757812 79.003906 61.941406 79.734375 61.875 80.625 Z M 61.875 80.625 "/>
<path style=" stroke:none;fill-rule:nonzero;fill:rgb(70.980394%,73.333335%,65.882355%);fill-opacity:1;" d="M 37.8125 79 C 37.917969 79.011719 38.238281 78.957031 38.25 79.0625 C 38.257812 79.140625 37.6875 79.210938 37.8125 79 Z M 37.8125 79 "/>
<path style=" stroke:none;fill-rule:nonzero;fill:rgb(70.980394%,73.333335%,65.882355%);fill-opacity:1;" d="M 37.1875 79.25 C 37.1875 79.25 37.3125 79.25 37.3125 79.25 C 37.558594 79.230469 37.558594 79.394531 37.3125 79.375 Z M 37.1875 79.25 "/>
<path style=" stroke:none;fill-rule:nonzero;fill:rgb(38.431373%,44.313726%,24.313726%);fill-opacity:1;" d="M 66.25 85.125 C 66.238281 85.105469 66.042969 85.207031 65.875 84.875 C 65.328125 83.789062 65.695312 81.488281 65.8125 80.125 C 66.179688 80.527344 65.765625 81.171875 66.25 81.3125 Z M 66.25 85.125 "/>
<path style=" stroke:none;fill-rule:nonzero;fill:rgb(78.431374%,81.960785%,70.980394%);fill-opacity:1;" d="M 82.875 82 C 83.558594 81.875 83.722656 81.320312 84.125 81 C 84.746094 80.503906 85.242188 81.414062 84.8125 82 C 84.488281 82.445312 83.378906 82.191406 82.875 82 Z M 82.875 82 "/>
<path style=" stroke:none;fill-rule:nonzero;fill:rgb(94.117647%,96.862745%,83.92157%);fill-opacity:1;" d="M 72.875 82.5 C 72.878906 82.1875 72.835938 81.796875 72.75 81.5 C 73.15625 80.382812 74.730469 83.71875 73.6875 83.375 C 73.5 83.3125 73.34375 82.214844 72.875 82.5 Z M 72.875 82.5 "/>
<path style=" stroke:none;fill-rule:nonzero;fill:rgb(71.372551%,74.117649%,65.490198%);fill-opacity:1;" d="M 42.3125 81.375 C 42.3125 81.375 42.4375 81.375 42.4375 81.375 C 42.683594 81.355469 42.683594 81.519531 42.4375 81.5 Z M 42.3125 81.375 "/>
<path style=" stroke:none;fill-rule:nonzero;fill:rgb(71.372551%,74.117649%,65.490198%);fill-opacity:1;" d="M 41.5625 81.75 C 41.5625 81.75 41.6875 81.75 41.6875 81.75 C 41.933594 81.730469 41.933594 81.894531 41.6875 81.875 Z M 41.5625 81.75 "/>
<path style=" stroke:none;fill-rule:nonzero;fill:rgb(71.372551%,74.117649%,65.490198%);fill-opacity:1;" d="M 40.8125 82 C 40.917969 82.011719 41.238281 81.957031 41.25 82.0625 C 41.257812 82.140625 40.6875 82.210938 40.8125 82 Z M 40.8125 82 "/>
<path style=" stroke:none;fill-rule:nonzero;fill:rgb(49.411765%,56.078434%,36.078432%);fill-opacity:1;" d="M 68.125 83.375 C 68.175781 83.421875 68.199219 83.441406 68.25 83.5 C 68.5 83.796875 68.8125 83.769531 68.875 83.9375 C 68.972656 84.191406 68.679688 84.496094 68.75 84.8125 C 68.917969 85.539062 70.296875 90.148438 70.25 90.4375 C 70.128906 91.191406 69.597656 90.664062 69.125 91 C 69.117188 90.917969 68.691406 90.503906 68.875 90.0625 C 68.875 90.0625 69.375 90.1875 69.375 90.1875 C 68.585938 89.078125 68.789062 87.507812 68.5 86.1875 C 68.40625 85.757812 67.351562 82.726562 67.5625 82.625 C 67.660156 82.992188 67.871094 83.132812 68.125 83.375 Z M 68.125 83.375 "/>
<path style=" stroke:none;fill-rule:nonzero;fill:rgb(51.372552%,58.431375%,36.470589%);fill-opacity:1;" d="M 71.375 83.25 C 71.476562 83.277344 72.332031 83.589844 72.375 83.625 C 72.78125 83.960938 74.238281 87.429688 74.625 88.25 C 74.542969 88.378906 74.152344 88.597656 74.125 88.625 C 73.703125 88.441406 72.394531 87.402344 73.5 87.4375 C 72.554688 87.445312 72.53125 86.082031 72.25 85.5625 C 72.023438 85.140625 70.8125 83.511719 71.0625 83.125 C 71.253906 83.457031 71.359375 83.246094 71.375 83.25 Z M 71.375 83.25 "/>
<path style=" stroke:none;fill-rule:nonzero;fill:rgb(57.647061%,64.313728%,42.352942%);fill-opacity:1;" d="M 76.875 84.75 C 77.476562 85.742188 78.355469 87.046875 79 88 C 78.800781 88.03125 78.734375 88.253906 78.625 88.375 C 78.453125 88.355469 78.089844 88.054688 78 87.9375 C 77.539062 87.332031 76.921875 85.714844 76.5 85 Z M 76.875 84.75 "/>
<path style=" stroke:none;fill-rule:nonzero;fill:rgb(63.137257%,68.235296%,53.333336%);fill-opacity:1;" d="M 81.4375 84.75 C 82.640625 85.730469 81.625 87.042969 80.75 85.5625 Z M 81.4375 84.75 "/>
<path style=" stroke:none;fill-rule:nonzero;fill:rgb(46.27451%,52.156866%,33.725491%);fill-opacity:1;" d="M 64 85.5 C 63.902344 85.941406 63.734375 88.675781 62.9375 88.5 C 62.242188 88.34375 62.855469 85.960938 63.25 85.5 C 63.472656 85.648438 63.765625 85.5625 64 85.5 Z M 64 85.5 "/>
<path style=" stroke:none;fill-rule:nonzero;fill:rgb(73.725492%,77.254903%,67.058825%);fill-opacity:1;" d="M 82.4375 86.125 C 83.410156 85.988281 82.847656 88.632812 81.375 86.6875 C 81.863281 86.855469 82.339844 86.140625 82.4375 86.125 Z M 82.4375 86.125 "/>
<path style=" stroke:none;fill-rule:nonzero;fill:rgb(39.215687%,35.294119%,19.215687%);fill-opacity:1;" d="M 97 88.125 C 93.667969 95.574219 79.757812 102.933594 72.0625 104.5 C 59.347656 107.089844 44.792969 101.804688 36 92.5 C 36 92.5 36.375 92.375 36.375 92.375 C 53.753906 110.011719 81.023438 108.347656 96 88.75 C 96.261719 88.410156 96.738281 87.988281 97 87.625 C 97.1875 87.632812 97.011719 88.101562 97 88.125 Z M 97 88.125 "/>
<path style=" stroke:none;fill-rule:nonzero;fill:rgb(67.843139%,71.764708%,60.000002%);fill-opacity:1;" d="M 49.875 87.875 C 49.855469 87.882812 49.699219 88.164062 49.5 87.9375 C 49.578125 87.8125 49.859375 87.902344 49.875 87.875 Z M 49.875 87.875 "/>
<path style=" stroke:none;fill-rule:nonzero;fill:rgb(70.980394%,75.686276%,62.352943%);fill-opacity:1;" d="M 80 89 C 80.089844 89.457031 79.867188 89.566406 79.5 89.75 C 79.199219 89.980469 78.238281 88.652344 78.25 88.5625 C 78.261719 88.46875 78.449219 88.570312 78.625 88.375 C 78.734375 88.253906 78.800781 88.03125 79 88 C 79.039062 88.058594 79.941406 88.90625 80 89 Z M 80 89 "/>
<path style=" stroke:none;fill-rule:nonzero;fill:rgb(63.137257%,68.235296%,53.725493%);fill-opacity:1;" d="M 75.25 89.875 C 75.097656 89.851562 75.015625 90.117188 75 90.125 C 75 90.125 74 89.8125 74 89.8125 C 73.710938 89.226562 75.265625 89.640625 73.75 89.1875 C 73.632812 88.695312 73.894531 88.851562 74.125 88.625 C 74.152344 88.597656 74.542969 88.378906 74.625 88.25 C 75.019531 88.589844 75.078125 89.488281 75.25 89.875 Z M 75.25 89.875 "/>
<path style=" stroke:none;fill-rule:nonzero;fill:rgb(52.156866%,57.647061%,43.529412%);fill-opacity:1;" d="M 65.75 88.875 C 65.980469 88.894531 66.179688 88.894531 66.375 88.75 C 66.375 88.75 66.75 91.3125 66.75 91.3125 C 65.101562 92.449219 65.886719 89.585938 65.75 88.875 Z M 65.75 88.875 "/>
<path style=" stroke:none;fill-rule:nonzero;fill:rgb(78.823531%,81.568629%,74.901962%);fill-opacity:1;" d="M 79.5 89.75 C 79.867188 89.566406 80.089844 89.457031 80 89 C 80.398438 89.632812 81.804688 91.546875 80.8125 92 C 79.605469 92.550781 79.609375 90.382812 78.625 90.0625 C 78.925781 89.613281 79.023438 89.984375 79.5 89.75 Z M 79.5 89.75 "/>
<path style=" stroke:none;fill-rule:nonzero;fill:rgb(72.549021%,76.078433%,67.058825%);fill-opacity:1;" d="M 75 90.125 C 75.015625 90.117188 75.097656 89.851562 75.25 89.875 C 75.265625 89.910156 75.734375 89.992188 75.875 90.3125 C 75.960938 90.507812 75.707031 91.175781 76.125 91.1875 C 75.273438 92.074219 74.550781 91.328125 74.25 90.3125 C 74.546875 90.21875 74.683594 90.28125 75 90.125 Z M 75 90.125 "/>
<path style=" stroke:none;fill-rule:nonzero;fill:rgb(66.274512%,70.588237%,60.000002%);fill-opacity:1;" d="M 69.125 91 C 70.453125 90.464844 70.441406 92.441406 69.6875 92.5 C 68.871094 92.5625 69.179688 91.453125 69.125 91 Z M 69.125 91 "/>
<path style=" stroke:none;fill-rule:nonzero;fill:rgb(67.843139%,71.764708%,60.000002%);fill-opacity:1;" d="M 52.9375 91.375 C 53 91.371094 53.023438 91.484375 53 91.5625 C 52.929688 92.027344 52.777344 91.382812 52.9375 91.375 Z M 52.9375 91.375 "/>
<path style=" stroke:none;fill-rule:nonzero;fill:rgb(15.686275%,14.509805%,14.117648%);fill-opacity:1;" d="M 127.875 127.75 C 127.875 127.75 127.875 127.875 127.875 127.875 C 127.875 127.875 -0.125 127.875 -0.125 127.875 C -0.125 127.875 -0.125 127.75 -0.125 127.75 Z M 127.875 127.75 "/>
</g>
</svg>
