<?xml version="1.0" encoding="UTF-8"?>
<svg xmlns="http://www.w3.org/2000/svg" xmlns:xlink="http://www.w3.org/1999/xlink" width="128" height="128" viewBox="0 0 128 128" version="1.1">
<defs>
<linearGradient id="linear0" gradientUnits="userSpaceOnUse" x1="432.85199" y1="808.807983" x2="496.200989" y2="823.366028" gradientTransform="matrix(0.125,0,0,0.125,0,0)">
<stop offset="0" style="stop-color:rgb(47.058824%,46.27451%,47.450981%);stop-opacity:1;"/>
<stop offset="1" style="stop-color:rgb(54.11765%,54.11765%,54.509807%);stop-opacity:1;"/>
</linearGradient>
</defs>
<g id="surface1">
<path style=" stroke:none;fill-rule:nonzero;fill:rgb(21.176471%,20%,26.274511%);fill-opacity:1;" d="M 67.875 23.125 C 68.566406 23.75 69.996094 23.714844 70.9375 24 C 72.515625 24.476562 74.90625 25.414062 76.3125 26.25 C 76.589844 26.414062 77.210938 26.714844 77.125 27.125 C 72.242188 24.164062 66.585938 22.953125 60.875 23.5 C 60.863281 22.640625 62.492188 23.25 62.9375 23.25 C 63.910156 23.246094 64.886719 23.003906 65.8125 23 C 66.296875 22.996094 67.273438 23.117188 67.875 23.125 Z M 67.875 23.125 "/>
<path style=" stroke:none;fill-rule:nonzero;fill:rgb(97.647059%,98.823529%,99.215686%);fill-opacity:1;" d="M 77.125 27.125 C 86.734375 32.953125 91.671875 44.023438 89.25 55.125 C 87.199219 64.519531 77.375 70.53125 76.5 78.3125 C 76.351562 79.621094 76.777344 81.226562 76.25 82.4375 C 76.167969 82.628906 74.445312 84.457031 74.3125 84.5 C 74.179688 84.542969 73.917969 84.472656 73.75 84.5 C 73.75 84.5 74.6875 83.25 74.6875 83.25 C 74.6875 83.25 52.8125 83.25 52.8125 83.25 C 52.300781 83.375 53.546875 84.691406 53.6875 84.75 C 54.15625 84.941406 58.15625 84.984375 59 85 C 57.65625 84.929688 54.597656 85.460938 53.4375 85.125 C 52.972656 84.988281 51.21875 82.476562 51.125 81.9375 C 50.707031 79.496094 51.304688 78.0625 50.25 75.3125 C 47.171875 67.28125 39.539062 64.039062 38 53.75 C 35.828125 39.242188 46.09375 24.917969 60.875 23.5 C 66.585938 22.953125 72.242188 24.164062 77.125 27.125 Z M 74.5 32.875 C 85.472656 39.660156 87.492188 54.207031 78.5 63.625 C 76.953125 65.246094 75.109375 66.527344 73.125 67.5625 C 72.976562 67.976562 74.734375 72.34375 75.125 72.8125 C 75.355469 73.089844 75.890625 73.722656 76.25 73.4375 C 77.335938 70.875 79.039062 68.644531 80.625 66.375 C 81.734375 64.789062 83.207031 63.449219 84.25 61.6875 C 91.519531 49.402344 86.347656 33.765625 73.5 28 C 69.902344 26.386719 65.746094 25.136719 61.75 25.9375 C 61.75 25.9375 64.625 29.5625 64.625 29.5625 C 64.625 29.5625 64.5625 30 64.5625 30 C 64.5625 30 62.6875 30.125 62.6875 30.125 C 66.71875 29.878906 71.058594 30.746094 74.5 32.875 Z M 75.0625 38.25 C 74.125 38.535156 75.925781 45.816406 76 46.9375 C 76.179688 49.585938 75.839844 52.695312 75.375 55.3125 C 74.792969 58.585938 72.523438 62.992188 74.1875 66 C 82.34375 58.851562 83.285156 45.644531 75.0625 38.25 Z M 75.0625 38.25 "/>
<path style=" stroke:none;fill-rule:nonzero;fill:rgb(85.490197%,90.588236%,98.431373%);fill-opacity:1;" d="M 73.5 28 C 73.5 28 74.5 32.875 74.5 32.875 C 71.058594 30.746094 66.71875 29.878906 62.6875 30.125 C 62.6875 30.125 64.5625 30 64.5625 30 C 64.5625 30 64.625 29.5625 64.625 29.5625 C 64.625 29.5625 61.75 25.9375 61.75 25.9375 C 65.746094 25.136719 69.902344 26.386719 73.5 28 Z M 73.5 28 "/>
<path style=" stroke:none;fill-rule:nonzero;fill:rgb(68.627453%,76.47059%,92.156863%);fill-opacity:1;" d="M 80.625 66.375 C 79.8125 65.679688 78.824219 64.683594 78.5 63.625 C 87.492188 54.207031 85.472656 39.660156 74.5 32.875 C 74.5 32.875 73.5 28 73.5 28 C 86.347656 33.765625 91.519531 49.402344 84.25 61.6875 C 83.207031 63.449219 81.734375 64.789062 80.625 66.375 Z M 80.625 66.375 "/>
<path style=" stroke:none;fill-rule:nonzero;fill:rgb(85.490197%,90.588236%,98.431373%);fill-opacity:1;" d="M 75.0625 38.25 C 83.285156 45.644531 82.34375 58.851562 74.1875 66 C 72.523438 62.992188 74.792969 58.585938 75.375 55.3125 C 75.839844 52.695312 76.179688 49.585938 76 46.9375 C 75.925781 45.816406 74.125 38.535156 75.0625 38.25 Z M 75.0625 38.25 "/>
<path style=" stroke:none;fill-rule:nonzero;fill:rgb(85.490197%,90.588236%,98.431373%);fill-opacity:1;" d="M 80.625 66.375 C 79.039062 68.644531 77.335938 70.875 76.25 73.4375 C 75.890625 73.722656 75.355469 73.089844 75.125 72.8125 C 74.734375 72.34375 72.976562 67.976562 73.125 67.5625 C 75.109375 66.527344 76.953125 65.246094 78.5 63.625 C 78.824219 64.683594 79.8125 65.679688 80.625 66.375 Z M 80.625 66.375 "/>
<path style=" stroke:none;fill-rule:nonzero;fill:rgb(66.274512%,66.274512%,67.058825%);fill-opacity:1;" d="M 73.75 84.5 C 70.121094 85.105469 62.855469 85.070312 59 85 C 58.15625 84.984375 54.15625 84.941406 53.6875 84.75 C 53.546875 84.691406 52.300781 83.375 52.8125 83.25 C 52.8125 83.25 74.6875 83.25 74.6875 83.25 Z M 73.75 84.5 "/>
<path style=" stroke:none;fill-rule:nonzero;fill:rgb(93.333334%,93.333334%,92.941177%);fill-opacity:1;" d="M 70.75 89.875 C 70.683594 89.453125 71.109375 89.726562 71.375 89.5625 C 71.375 89.460938 70.636719 89.5 70.5 89.5 C 70.492188 88.660156 69.925781 87.789062 70 87.1875 C 70 87.1875 68.875 87.125 68.875 87.125 C 68.875 87.125 52.75 88.125 52.75 88.125 C 52.765625 88.105469 52.78125 87.816406 52.875 87.75 C 53.476562 87.320312 54.570312 87.328125 55.3125 87.25 C 61.429688 86.617188 67.914062 86.910156 74.0625 86.25 C 75.050781 86.65625 75.890625 87.382812 75.375 88.5625 C 74.773438 89.941406 72 89.765625 70.75 89.875 Z M 70.75 89.875 "/>
<path style=" stroke:none;fill-rule:nonzero;fill:rgb(57.254905%,56.862748%,57.647061%);fill-opacity:1;" d="M 68.875 87.125 C 68.875 87.125 69.125 89.5625 69.125 89.5625 C 69.214844 89.6875 70.261719 89.503906 70.5 89.5 C 70.636719 89.5 71.375 89.460938 71.375 89.5625 C 71.109375 89.726562 70.683594 89.453125 70.75 89.875 C 65.941406 90.292969 60.351562 90.773438 55.5625 90.875 C 54.542969 90.898438 53.222656 91.117188 52.5 90.375 C 52.167969 89.136719 51.808594 89.277344 52.75 88.125 Z M 68.875 87.125 "/>
<path style=" stroke:none;fill-rule:nonzero;fill:rgb(69.411767%,69.411767%,68.627453%);fill-opacity:1;" d="M 70.5 89.5 C 70.261719 89.503906 69.214844 89.6875 69.125 89.5625 C 69.125 89.5625 68.875 87.125 68.875 87.125 C 68.875 87.125 70 87.1875 70 87.1875 C 69.925781 87.789062 70.492188 88.660156 70.5 89.5 Z M 70.5 89.5 "/>
<path style=" stroke:none;fill-rule:nonzero;fill:rgb(96.470588%,97.254902%,96.078432%);fill-opacity:1;" d="M 68.875 96 C 68.875 96 70.125 95.4375 70.125 95.4375 C 69.621094 95.394531 69.140625 95.511719 68.625 95.5 C 69.1875 94.816406 68.148438 93.855469 68.75 93.1875 C 68.660156 93.074219 67.273438 93.117188 67 93.125 C 62.222656 93.246094 57.390625 93.980469 52.625 94.25 C 52.679688 94.160156 52.960938 93.777344 53 93.75 C 53.582031 93.347656 54.242188 93.335938 54.9375 93.25 C 61.101562 92.472656 67.949219 92.867188 74.1875 92.25 C 75.589844 92.820312 76.085938 94.371094 74.6875 95.25 C 73.742188 95.84375 70.234375 95.898438 68.875 96 Z M 68.875 96 "/>
<path style=" stroke:none;fill-rule:nonzero;fill:rgb(58.431375%,57.647061%,58.823532%);fill-opacity:1;" d="M 68.625 95.5 C 69.140625 95.511719 69.621094 95.394531 70.125 95.4375 C 70.125 95.4375 68.875 96 68.875 96 C 64.570312 96.316406 59.421875 96.828125 55.1875 96.875 C 54.457031 96.882812 52.957031 97.019531 52.5 96.375 C 51.996094 95.664062 52.257812 94.886719 52.625 94.25 C 57.390625 93.980469 62.222656 93.246094 67 93.125 C 66.992188 95.289062 66.558594 95.445312 68.625 95.5 Z M 68.625 95.5 "/>
<path style=" stroke:none;fill-rule:nonzero;fill:rgb(70.980394%,71.372551%,70.19608%);fill-opacity:1;" d="M 68.625 95.5 C 66.558594 95.445312 66.992188 95.289062 67 93.125 C 67.273438 93.117188 68.660156 93.074219 68.75 93.1875 C 68.148438 93.855469 69.1875 94.816406 68.625 95.5 Z M 68.625 95.5 "/>
<path style=" stroke:none;fill-rule:nonzero;fill:rgb(97.254902%,98.039216%,97.254902%);fill-opacity:1;" d="M 67 105.625 C 66.703125 104.984375 62.765625 105.804688 64.1875 105 C 63.792969 104.980469 63.390625 105.027344 63 105 C 62.292969 103.972656 65.179688 100.476562 64.875 100.0625 C 64.78125 99.933594 63.363281 99.9375 64.3125 99.125 C 64.3125 99.125 52.625 99.75 52.625 99.75 C 52.640625 99.714844 52.605469 99.65625 52.625 99.625 C 52.625 99.625 54.0625 98.875 54.0625 98.875 C 54.0625 98.875 74.4375 98.25 74.4375 98.25 C 76.367188 99.070312 75.320312 101.550781 73.9375 102.25 C 72.964844 102.742188 71.710938 102.320312 70.8125 102.625 C 69.71875 102.996094 68.835938 105.316406 67 105.625 Z M 67 105.625 "/>
<path style=" stroke:none;fill-rule:nonzero;fill:url(#linear0);" d="M 63 105 C 62.085938 104.9375 60.453125 105.15625 59.8125 105 C 59.226562 104.855469 57.070312 102.433594 56.8125 102.375 C 56.367188 102.277344 54.132812 102.613281 53.5 102.625 C 53.390625 102.597656 53.199219 102.660156 53.125 102.625 C 51.867188 102.0625 52.164062 100.691406 52.625 99.75 C 52.625 99.75 64.3125 99.125 64.3125 99.125 C 63.363281 99.9375 64.78125 99.933594 64.875 100.0625 C 65.179688 100.476562 62.292969 103.972656 63 105 Z M 63 105 "/>
<path style=" stroke:none;fill-rule:nonzero;fill:rgb(65.490198%,65.098041%,64.705884%);fill-opacity:1;" d="M 63 105 C 63.390625 105.027344 63.792969 104.980469 64.1875 105 C 62.765625 105.804688 66.703125 104.984375 67 105.625 C 65.871094 105.816406 60.699219 105.757812 59.6875 105.5 C 59.066406 105.34375 56.929688 102.71875 56.4375 102.625 C 55.824219 102.507812 54.574219 102.882812 53.5 102.625 C 54.132812 102.613281 56.367188 102.277344 56.8125 102.375 C 57.070312 102.433594 59.226562 104.855469 59.8125 105 C 60.453125 105.15625 62.085938 104.9375 63 105 Z M 63 105 "/>
</g>
</svg>
