<?xml version="1.0" encoding="UTF-8"?>
<svg xmlns="http://www.w3.org/2000/svg" xmlns:xlink="http://www.w3.org/1999/xlink" width="128" height="128" viewBox="0 0 128 128" version="1.1">
<g id="surface1">
<path style=" stroke:none;fill-rule:nonzero;fill:rgb(98.039216%,98.431373%,98.431373%);fill-opacity:1;" d="M 51 23.375 C 51.035156 23.648438 51.054688 23.917969 51.125 24.1875 C 50.292969 25.398438 48.070312 27.238281 47.875 28.5625 C 47.757812 29.34375 47.785156 34.191406 48 34.8125 C 48.121094 35.160156 48.574219 35.472656 48.8125 35.75 C 49.277344 35.730469 49.578125 34.921875 49.625 34.875 C 49.65625 34.84375 49.886719 34.941406 50 34.8125 C 50.289062 34.488281 50.632812 33.59375 51 33.1875 C 58.101562 25.339844 69.808594 25.121094 77 32.9375 C 77.535156 33.519531 78.921875 36.46875 79.375 34.3125 C 79.4375 34.019531 79.457031 28.601562 79.375 28.3125 C 79.207031 27.730469 77.152344 26.953125 77 24.9375 C 76.601562 19.621094 85.152344 19.71875 84.25 25.4375 C 84.023438 26.867188 82.265625 27.828125 82.125 28.3125 C 81.859375 29.226562 82.15625 35.40625 82.75 36.1875 C 83.164062 36.734375 84.5 36.859375 84.875 38.0625 C 85.398438 39.746094 85.285156 43.929688 83.4375 44.875 C 82.148438 45.535156 81.074219 44.949219 80.4375 45.125 C 80.28125 45.167969 79.15625 47.546875 78.875 47.9375 C 77.691406 49.597656 75.941406 51.09375 74.1875 52.125 C 73.1875 52.714844 71.195312 52.8125 71.4375 54.125 C 71.4375 54.125 76.125 55.875 76.125 55.875 C 75.875 55.871094 74.734375 56.0625 74.9375 56.375 C 75.667969 56.640625 79.703125 58.421875 79.875 58.9375 C 80.148438 59.753906 79.601562 63.539062 79.875 64.0625 C 81.292969 64.234375 80.144531 62.96875 80.875 62.375 C 80.894531 63.246094 80.863281 64.128906 80.875 65 C 80.367188 66.183594 81.132812 70.5 80.75 71.3125 C 80.613281 71.605469 80.238281 71.425781 80.125 71.5625 C 80.734375 79.425781 76.597656 87.042969 69.25 90.0625 C 69.25 90.0625 69.875 90.875 69.875 90.875 C 66.277344 92.273438 63.234375 92.375 59.5 91.375 C 59.957031 90.917969 59.9375 91.261719 60.375 91.0625 C 59.523438 90.765625 60.113281 90.453125 59.9375 90.25 C 59.859375 90.160156 58 89.597656 57.6875 89.5 C 57.332031 89.386719 57.359375 89.761719 57.3125 89.75 C 56.679688 89.574219 56.046875 88.855469 55.3125 88.875 C 55.3125 88.875 56.5 90.25 56.5 90.25 C 46.527344 85.242188 46.660156 76.0625 46.75 66.375 C 47.234375 66.382812 46.902344 65.652344 47 65.4375 C 47.152344 65.09375 47.757812 65.355469 47.875 65.1875 C 48.234375 64.671875 47.355469 59.621094 48 58.625 C 49.164062 58.207031 50.5 57.386719 51.6875 56.875 C 52.25 56.632812 55.910156 55.425781 56.0625 55.25 C 56.203125 55.089844 56.417969 54.085938 56 54 C 56.253906 53.855469 56.957031 53.851562 56.3125 53.125 C 56.171875 52.964844 53.21875 51.613281 52.5625 51.125 C 51.191406 50.113281 49.820312 48.476562 48.875 47.0625 C 48.664062 46.746094 48.035156 45.167969 47.9375 45.125 C 47.5 44.925781 46.007812 45.554688 44.6875 44.75 C 42.765625 43.582031 42.597656 38.152344 44.3125 36.875 C 44.640625 36.628906 45.335938 36.621094 45.625 36.3125 C 46.316406 35.574219 46.667969 28.945312 46.375 28.0625 C 46.257812 27.703125 44.480469 26.785156 44.25 25.3125 C 43.457031 20.214844 50.507812 19.617188 51 23.375 Z M 69.5625 36.875 C 69.46875 36.898438 69.546875 37.304688 69.3125 37.375 C 68.921875 37.492188 63.75 37.203125 63.75 37.5625 C 66.550781 38.25 74.882812 36.078125 75.875 39.6875 C 76.386719 41.542969 75.929688 45.363281 73.6875 46 C 72.34375 46.382812 56.976562 46.394531 55.1875 46.125 C 53.925781 45.9375 52.707031 44.839844 52.4375 43.625 C 51.890625 45.441406 53.382812 46.644531 55.0625 46.875 C 57.070312 47.152344 73.097656 47.089844 74.4375 46.625 C 77.695312 45.492188 77.777344 37.902344 74.0625 37 C 73.453125 36.851562 70.085938 36.742188 69.5625 36.875 Z M 54.8125 37.875 C 51.878906 38.417969 51.96875 45.007812 54.5625 45.75 C 55.878906 46.125 71.300781 46.140625 73.0625 45.875 C 76.589844 45.339844 76.507812 38.734375 73.8125 38 C 72.578125 37.664062 56.3125 37.597656 54.8125 37.875 Z M 54.8125 37.875 "/>
<path style=" stroke:none;fill-rule:nonzero;fill:rgb(90.588236%,91.37255%,91.764706%);fill-opacity:1;" d="M 49.625 34.875 C 49.578125 34.921875 49.277344 35.730469 48.8125 35.75 C 48.574219 35.472656 48.121094 35.160156 48 34.8125 C 47.785156 34.191406 47.757812 29.34375 47.875 28.5625 C 48.070312 27.238281 50.292969 25.398438 51.125 24.1875 C 51.054688 23.917969 51.035156 23.648438 51 23.375 C 51.769531 24.25 51.210938 25.957031 50.625 26.8125 C 50.371094 27.179688 49.324219 27.894531 49.25 28.0625 C 49.105469 28.382812 49.011719 34.097656 49.125 34.5625 C 49.144531 34.648438 49.46875 34.933594 49.625 34.875 Z M 49.625 34.875 "/>
<path style=" stroke:none;fill-rule:nonzero;fill:rgb(83.529413%,85.490197%,87.058824%);fill-opacity:1;" d="M 69.5625 36.875 C 70.085938 36.742188 73.453125 36.851562 74.0625 37 C 77.777344 37.902344 77.695312 45.492188 74.4375 46.625 C 73.097656 47.089844 57.070312 47.152344 55.0625 46.875 C 53.382812 46.644531 51.890625 45.441406 52.4375 43.625 C 52.707031 44.839844 53.925781 45.9375 55.1875 46.125 C 56.976562 46.394531 72.34375 46.382812 73.6875 46 C 75.929688 45.363281 76.386719 41.542969 75.875 39.6875 C 74.882812 36.078125 66.550781 38.25 63.75 37.5625 C 63.75 37.203125 68.921875 37.492188 69.3125 37.375 C 69.546875 37.304688 69.46875 36.898438 69.5625 36.875 Z M 69.5625 36.875 "/>
<path style=" stroke:none;fill-rule:nonzero;fill:rgb(76.078433%,77.254903%,78.823531%);fill-opacity:1;" d="M 48 58.625 C 47.589844 58.773438 47.246094 58.582031 46.75 59 C 46.785156 58.75 46.757812 58.554688 46.875 58.3125 C 47.59375 56.804688 54.328125 54.953125 56 54 C 56.417969 54.085938 56.203125 55.089844 56.0625 55.25 C 55.910156 55.425781 52.25 56.632812 51.6875 56.875 C 50.5 57.386719 49.164062 58.207031 48 58.625 Z M 48 58.625 "/>
<path style=" stroke:none;fill-rule:nonzero;fill:rgb(81.176472%,81.960785%,82.745099%);fill-opacity:1;" d="M 76.125 55.875 C 77 55.886719 80.433594 57.546875 80.75 58.3125 C 81.054688 59.042969 80.851562 61.425781 80.875 62.375 C 80.144531 62.96875 81.292969 64.234375 79.875 64.0625 C 79.601562 63.539062 80.148438 59.753906 79.875 58.9375 C 79.703125 58.421875 75.667969 56.640625 74.9375 56.375 C 74.734375 56.0625 75.875 55.871094 76.125 55.875 Z M 76.125 55.875 "/>
<path style=" stroke:none;fill-rule:nonzero;fill:rgb(85.882354%,87.058824%,88.235295%);fill-opacity:1;" d="M 48 58.625 C 47.355469 59.621094 48.234375 64.671875 47.875 65.1875 C 47.757812 65.355469 47.152344 65.09375 47 65.4375 C 46.902344 65.652344 47.234375 66.382812 46.75 66.375 C 46.769531 64.234375 46.46875 60.976562 46.75 59 C 47.246094 58.582031 47.589844 58.773438 48 58.625 Z M 48 58.625 "/>
<path style=" stroke:none;fill-rule:nonzero;fill:rgb(96.470588%,97.647059%,98.039216%);fill-opacity:1;" d="M 44.75 68.25 C 44.375 68.304688 44.507812 67.914062 44.5 67.6875 C 44.449219 66.128906 44.589844 64.558594 44.4375 63 C 44.753906 63.894531 43.472656 64.28125 43.375 64.5625 C 43.15625 65.199219 43.710938 67.449219 43.0625 67.875 C 42.5 68.246094 40.527344 67.816406 39.8125 68 C 39.445312 68.09375 37.976562 70.261719 37.0625 69.875 C 36.941406 69.824219 36.390625 68.046875 35.75 68.4375 C 36.386719 69.585938 37.152344 70.617188 37.125 72 C 36.9375 72.484375 36.894531 73.148438 36.625 73.6875 C 36.46875 73.996094 35.542969 74.902344 35.5 75.0625 C 34.902344 77.351562 35.746094 79.089844 36.875 80.875 C 36.726562 80.847656 36.265625 80.914062 36.1875 81 C 36.125 81.070312 36.515625 82.46875 36.625 82.6875 C 37.222656 83.90625 39.085938 84.769531 38.0625 86.125 C 37.707031 86.324219 37.695312 85.328125 37.5 85.0625 C 37.183594 84.632812 36.304688 84.042969 35.8125 83.875 C 35.511719 83.769531 33.0625 83.386719 33.8125 84 C 33.8125 84 32.3125 83.875 32.3125 83.875 C 32.421875 83.941406 32.484375 84.234375 32.5 84.25 C 31.769531 84.566406 30.511719 84.875 29.875 85.25 C 29.671875 84.375 29.53125 85.054688 29.1875 85 C 29.070312 84.980469 29.179688 84.632812 29.0625 84.625 C 28.945312 84.617188 28.207031 85.339844 28.125 85.5625 C 27.832031 86.371094 28.039062 87.90625 28 88.8125 C 27.996094 88.921875 27.613281 89.410156 28 90 C 27.75 89.859375 25.21875 85.222656 25.25 84.9375 C 25.3125 84.328125 29.113281 79.757812 29.625 78.8125 C 29.679688 78.585938 29.6875 75.238281 29.625 75.0625 C 29.597656 74.988281 28.710938 74.300781 28.5 73.9375 C 26.460938 70.417969 29.238281 66.539062 33.1875 66.875 C 33.574219 66.90625 34.460938 67.425781 34.8125 67.375 C 35.003906 67.347656 37.917969 65.363281 38 65.1875 C 38.097656 64.976562 38.085938 63.769531 38.25 63.3125 C 38.425781 62.820312 39.503906 61.519531 39.9375 61.25 C 40.796875 60.714844 44.441406 60.117188 44.75 61.0625 C 44.863281 61.402344 44.832031 67.59375 44.75 68.25 Z M 31.8125 68.25 C 28.390625 68.726562 28.265625 74.171875 31.6875 74.75 C 37.082031 75.660156 37.226562 67.496094 31.8125 68.25 Z M 31.8125 68.25 "/>
<path style=" stroke:none;fill-rule:nonzero;fill:rgb(96.862745%,98.039216%,98.039216%);fill-opacity:1;" d="M 89.75 65 C 89.476562 65.1875 89.628906 65.433594 89.5 64.9375 C 88.917969 62.722656 88.285156 61.195312 85.6875 60.875 C 84.914062 60.78125 83.980469 60.945312 83.1875 60.875 C 82.902344 61 82.851562 66.894531 83.0625 67.125 C 83.101562 67.167969 84.222656 67.367188 84.25 67.3125 C 84.355469 67.105469 83.972656 63.492188 84.125 62.6875 C 84.464844 60.878906 87.671875 62.09375 88.25 63.6875 C 88.761719 65.101562 87.875 65.664062 89.4375 66.625 C 90.519531 67.289062 90.308594 67.09375 91.25 66.4375 C 91.25 66.4375 90.625 65.75 90.625 65.75 C 90.898438 65.972656 92.792969 67.480469 92.9375 67.5 C 93.023438 67.511719 94.152344 66.917969 94.5625 66.875 C 97.59375 66.546875 100.257812 69.148438 99.875 72.1875 C 99.699219 73.585938 98.257812 74.699219 98.125 75.1875 C 98.082031 75.347656 97.972656 78.289062 98 78.5 C 97.796875 78.625 97.796875 78.984375 97.75 78.4375 C 97.6875 77.703125 98.246094 76.957031 97.4375 76.75 C 95.867188 78.464844 98.179688 80.125 99 81.5625 C 99.269531 82.035156 98.855469 82.15625 98.875 82.1875 C 99.441406 83.148438 100.304688 84.292969 101.125 85.0625 C 100.695312 85.273438 99.800781 88.425781 99.5 87.5625 C 99.144531 86.539062 99.933594 86.230469 98.625 85.5 C 98.472656 85.414062 98.285156 85.324219 98.125 85.25 C 98.570312 84.839844 97.65625 84.460938 97.375 84.1875 C 97.273438 84.085938 97.640625 84.011719 97.3125 83.75 C 95.890625 82.605469 93.765625 83.363281 92.3125 84.125 C 89.683594 85.5 90.929688 86.554688 90 89 C 89.582031 88.398438 87.78125 85.375 87.875 84.8125 C 87.996094 84.082031 91.683594 79.824219 92.25 78.8125 C 92.300781 78.617188 92.300781 75.242188 92.25 75.0625 C 92.210938 74.925781 91.066406 73.871094 90.875 73.4375 C 90.644531 72.917969 90.53125 71.527344 90.4375 71.375 C 90.34375 71.21875 87.488281 69.542969 87.3125 69.5 C 86.40625 69.289062 83.058594 69.835938 82.75 68.6875 C 82.652344 68.320312 82.632812 61.425781 82.75 61.0625 C 83.101562 59.984375 86.988281 60.8125 87.9375 61.5 C 89.550781 62.664062 89.136719 63.652344 89.75 65 Z M 94.5625 68.25 C 91.058594 68.773438 91.039062 74.160156 94.4375 74.75 C 99.804688 75.683594 99.839844 67.460938 94.5625 68.25 Z M 94.5625 68.25 "/>
<path style=" stroke:none;fill-rule:nonzero;fill:rgb(81.176472%,82.352942%,83.92157%);fill-opacity:1;" d="M 89.75 65 C 90.007812 65.570312 90.261719 65.453125 90.625 65.75 C 90.625 65.75 91.25 66.4375 91.25 66.4375 C 90.308594 67.09375 90.519531 67.289062 89.4375 66.625 C 87.875 65.664062 88.761719 65.101562 88.25 63.6875 C 87.671875 62.09375 84.464844 60.878906 84.125 62.6875 C 83.972656 63.492188 84.355469 67.105469 84.25 67.3125 C 84.222656 67.367188 83.101562 67.167969 83.0625 67.125 C 82.851562 66.894531 82.902344 61 83.1875 60.875 C 83.980469 60.945312 84.914062 60.78125 85.6875 60.875 C 88.285156 61.195312 88.917969 62.722656 89.5 64.9375 C 89.628906 65.433594 89.476562 65.1875 89.75 65 Z M 89.75 65 "/>
<path style=" stroke:none;fill-rule:nonzero;fill:rgb(84.705883%,86.274511%,88.235295%);fill-opacity:1;" d="M 44.75 68.25 C 44.496094 70.277344 41.742188 69.136719 40.3125 69.5 C 40.148438 69.542969 37.5625 71.136719 37.4375 71.25 C 36.992188 71.652344 37.238281 71.707031 37.125 72 C 37.152344 70.617188 36.386719 69.585938 35.75 68.4375 C 36.390625 68.046875 36.941406 69.824219 37.0625 69.875 C 37.976562 70.261719 39.445312 68.09375 39.8125 68 C 40.527344 67.816406 42.5 68.246094 43.0625 67.875 C 43.710938 67.449219 43.15625 65.199219 43.375 64.5625 C 43.472656 64.28125 44.753906 63.894531 44.4375 63 C 44.589844 64.558594 44.449219 66.128906 44.5 67.6875 C 44.507812 67.914062 44.375 68.304688 44.75 68.25 Z M 44.75 68.25 "/>
<path style=" stroke:none;fill-rule:nonzero;fill:rgb(83.92157%,84.705883%,85.09804%);fill-opacity:1;" d="M 69.875 90.875 C 69.875 90.875 69.25 90.0625 69.25 90.0625 C 76.597656 87.042969 80.734375 79.425781 80.125 71.5625 C 80.238281 71.425781 80.613281 71.605469 80.75 71.3125 C 81.132812 70.5 80.367188 66.183594 80.875 65 C 80.992188 75.285156 81.3125 86.425781 69.875 90.875 Z M 69.875 90.875 "/>
<path style=" stroke:none;fill-rule:nonzero;fill:rgb(82.352942%,83.529413%,87.843138%);fill-opacity:1;" d="M 31.8125 68.25 C 37.226562 67.496094 37.082031 75.660156 31.6875 74.75 C 28.265625 74.171875 28.390625 68.726562 31.8125 68.25 Z M 31.8125 68.25 "/>
<path style=" stroke:none;fill-rule:nonzero;fill:rgb(81.960785%,81.960785%,86.666667%);fill-opacity:1;" d="M 94.5625 68.25 C 99.839844 67.460938 99.804688 75.683594 94.4375 74.75 C 91.039062 74.160156 91.058594 68.773438 94.5625 68.25 Z M 94.5625 68.25 "/>
<path style=" stroke:none;fill-rule:nonzero;fill:rgb(80.784315%,81.176472%,82.745099%);fill-opacity:1;" d="M 98 78.5 C 98.152344 79.710938 101.804688 83.613281 102.375 85.0625 C 100.558594 88.617188 98.289062 94.035156 98.625 85.5 C 99.933594 86.230469 99.144531 86.539062 99.5 87.5625 C 99.800781 88.425781 100.695312 85.273438 101.125 85.0625 C 100.304688 84.292969 99.441406 83.148438 98.875 82.1875 C 98.855469 82.15625 99.269531 82.035156 99 81.5625 C 98.179688 80.125 95.867188 78.464844 97.4375 76.75 C 98.246094 76.957031 97.6875 77.703125 97.75 78.4375 C 97.796875 78.984375 97.796875 78.625 98 78.5 Z M 98 78.5 "/>
<path style=" stroke:none;fill-rule:nonzero;fill:rgb(78.823531%,79.607844%,81.176472%);fill-opacity:1;" d="M 36.875 80.875 C 37.265625 81.492188 39.710938 84.566406 39.75 84.9375 C 39.796875 85.371094 37.355469 90.039062 36.9375 90.125 C 35.386719 90.449219 35.984375 86.445312 35.875 85.5625 C 35.761719 85.289062 32.925781 84.621094 32.5 84.25 C 32.484375 84.234375 32.421875 83.941406 32.3125 83.875 C 32.3125 83.875 33.8125 84 33.8125 84 C 33.0625 83.386719 35.511719 83.769531 35.8125 83.875 C 36.304688 84.042969 37.183594 84.632812 37.5 85.0625 C 37.695312 85.328125 37.707031 86.324219 38.0625 86.125 C 39.085938 84.769531 37.222656 83.90625 36.625 82.6875 C 36.515625 82.46875 36.125 81.070312 36.1875 81 C 36.265625 80.914062 36.726562 80.847656 36.875 80.875 Z M 36.875 80.875 "/>
<path style=" stroke:none;fill-rule:nonzero;fill:rgb(80.000001%,81.176472%,83.137256%);fill-opacity:1;" d="M 98.125 85.25 C 97.808594 85.105469 95.464844 84.121094 95.3125 84.125 C 95.125 84.128906 91.945312 85.511719 91.875 85.6875 C 91.597656 86.390625 92.328125 90.355469 90.8125 90.125 C 90.328125 90.050781 90.179688 89.257812 90 89 C 90.929688 86.554688 89.683594 85.5 92.3125 84.125 C 93.765625 83.363281 95.890625 82.605469 97.3125 83.75 C 97.640625 84.011719 97.273438 84.085938 97.375 84.1875 C 97.65625 84.460938 98.570312 84.839844 98.125 85.25 Z M 98.125 85.25 "/>
<path style=" stroke:none;fill-rule:nonzero;fill:rgb(81.960785%,83.137256%,85.882354%);fill-opacity:1;" d="M 29.875 85.25 C 29.683594 85.363281 29.183594 85.535156 29.125 85.6875 C 28.851562 86.386719 29.578125 89.871094 28.4375 90.125 C 28.257812 90.167969 28.140625 90.078125 28 90 C 27.613281 89.410156 27.996094 88.921875 28 88.8125 C 28.039062 87.90625 27.832031 86.371094 28.125 85.5625 C 28.207031 85.339844 28.945312 84.617188 29.0625 84.625 C 29.179688 84.632812 29.070312 84.980469 29.1875 85 C 29.53125 85.054688 29.671875 84.375 29.875 85.25 Z M 29.875 85.25 "/>
<path style=" stroke:none;fill-rule:nonzero;fill:rgb(95.686275%,96.470588%,96.470588%);fill-opacity:1;" d="M 48.6875 86.375 C 48.75 86.351562 49.105469 86.355469 49.1875 86.375 C 49.484375 86.445312 52.632812 89.972656 53.5625 90.625 C 55.042969 91.667969 56.75 92.296875 58.375 93.0625 C 58.585938 94.757812 57.933594 97.617188 58.75 99.0625 C 59.203125 99.867188 60.761719 100.5 61 101.6875 C 61.066406 102.027344 61.082031 106.097656 61 106.3125 C 60.96875 106.398438 60.753906 106.523438 60.6875 106.625 C 60.6875 106.625 46.5625 106.625 46.5625 106.625 C 46.429688 106.488281 46.066406 106.382812 46 106.1875 C 45.925781 105.960938 45.933594 101.804688 46 101.4375 C 46.238281 100.117188 47.820312 99.355469 48.375 98.1875 C 48.375 98.1875 48.375 86.6875 48.375 86.6875 C 48.476562 86.625 48.609375 86.402344 48.6875 86.375 Z M 48.6875 86.375 "/>
<path style=" stroke:none;fill-rule:nonzero;fill:rgb(95.294118%,96.078432%,96.078432%);fill-opacity:1;" d="M 79.125 87 C 78.515625 85.976562 77.03125 88.503906 76.3125 89.125 C 75.855469 89.519531 72.847656 91.371094 72.75 91.5625 C 72.738281 91.585938 73.019531 92.007812 73.0625 92 C 73.0625 92 78.125 88.6875 78.125 88.6875 C 77.992188 91.441406 77.664062 95.226562 78 97.9375 C 78.027344 98.148438 78.371094 98.285156 78.375 98.3125 C 78.484375 98.859375 78.101562 98.914062 78.5 99.6875 C 78.792969 100.261719 80.351562 101.125 80.5 101.4375 C 80.59375 101.636719 80.875 105.632812 80.75 105.8125 C 77.585938 106.140625 74.589844 106.253906 71.375 106.3125 C 73.472656 106.472656 75.585938 106.3125 77.6875 106.375 C 77.914062 106.382812 78.304688 106.25 78.25 106.625 C 74.523438 106.699219 70.789062 106.570312 67.0625 106.625 C 67.03125 106.617188 66.632812 106.21875 66.625 106.1875 C 66.554688 105.96875 66.558594 101.863281 66.625 101.5625 C 66.804688 100.753906 68.492188 99.742188 68.875 99.0625 C 69.691406 97.617188 69.039062 94.757812 69.25 93.0625 C 71.039062 92.21875 72.839844 91.425781 74.4375 90.25 C 75.195312 89.695312 78.285156 86.429688 78.5625 86.375 C 78.78125 86.332031 78.945312 86.484375 79.125 86.5625 C 79.140625 86.707031 79.101562 86.859375 79.125 87 Z M 79.125 87 "/>
<path style=" stroke:none;fill-rule:nonzero;fill:rgb(87.058824%,87.843138%,88.235295%);fill-opacity:1;" d="M 79.125 87 C 79.535156 89.59375 78.464844 96.863281 79.5 98.6875 C 80.035156 99.628906 81.386719 100.128906 81.625 101.4375 C 81.695312 101.824219 81.714844 106.085938 81.625 106.3125 C 81.425781 106.828125 78.914062 106.613281 78.25 106.625 C 78.304688 106.25 77.914062 106.382812 77.6875 106.375 C 75.585938 106.3125 73.472656 106.472656 71.375 106.3125 C 74.589844 106.253906 77.585938 106.140625 80.75 105.8125 C 80.875 105.632812 80.59375 101.636719 80.5 101.4375 C 80.351562 101.125 78.792969 100.261719 78.5 99.6875 C 78.101562 98.914062 78.484375 98.859375 78.375 98.3125 C 78.371094 98.285156 78.027344 98.148438 78 97.9375 C 77.664062 95.226562 77.992188 91.441406 78.125 88.6875 C 78.125 88.6875 73.0625 92 73.0625 92 C 73.019531 92.007812 72.738281 91.585938 72.75 91.5625 C 72.847656 91.371094 75.855469 89.519531 76.3125 89.125 C 77.03125 88.503906 78.515625 85.976562 79.125 87 Z M 79.125 87 "/>
<path style=" stroke:none;fill-rule:nonzero;fill:rgb(79.215688%,79.607844%,80.392158%);fill-opacity:1;" d="M 59.5 91.375 C 58.433594 91.089844 57.484375 90.746094 56.5 90.25 C 56.5 90.25 55.3125 88.875 55.3125 88.875 C 56.046875 88.855469 56.679688 89.574219 57.3125 89.75 C 57.359375 89.761719 57.332031 89.386719 57.6875 89.5 C 58 89.597656 59.859375 90.160156 59.9375 90.25 C 60.113281 90.453125 59.523438 90.765625 60.375 91.0625 C 59.9375 91.261719 59.957031 90.917969 59.5 91.375 Z M 59.5 91.375 "/>
</g>
</svg>
