<?xml version="1.0" encoding="UTF-8"?>
<svg xmlns="http://www.w3.org/2000/svg" xmlns:xlink="http://www.w3.org/1999/xlink" width="128" height="128" viewBox="0 0 128 128" version="1.1">
<g id="surface1">
<path style=" stroke:none;fill-rule:nonzero;fill:rgb(14.509805%,14.901961%,16.078432%);fill-opacity:1;" d="M 70.25 31 C 63.738281 29.671875 52.761719 34.140625 47.5 38 C 47.417969 38.058594 47.242188 38.097656 47.25 38.25 C 47.132812 38.273438 46.996094 38.234375 46.875 38.25 C 47.4375 37.683594 47.605469 36.964844 48.1875 36.5 C 49.019531 35.832031 53.296875 33.488281 54.3125 33 C 57.222656 31.597656 63.828125 30.445312 67.0625 30.5 C 67.769531 30.511719 68.816406 30.148438 69.5625 30.375 C 69.609375 30.390625 69.882812 30.820312 70.25 31 Z M 70.25 31 "/>
<path style=" stroke:none;fill-rule:nonzero;fill:rgb(92.54902%,92.156863%,94.117647%);fill-opacity:1;" d="M 70.25 31 C 72.347656 31.429688 73.613281 33.175781 74.25 35.125 C 74.597656 37.273438 73.605469 39.796875 71.6875 40.875 C 69.882812 41.890625 65.445312 41.539062 63.0625 42 C 50.882812 44.363281 41.585938 56.242188 43.875 68.75 C 45.476562 77.5 52.332031 84.644531 61.25 85.875 C 59.675781 86.867188 57.078125 85.128906 55.375 84.9375 C 57.777344 86.160156 60.503906 86.503906 63.1875 86.75 C 72.183594 87.578125 79.992188 84.09375 83.25 75.0625 C 84.074219 72.777344 85.199219 68.878906 84.5 66.4375 C 84.273438 65.652344 84.046875 66.011719 83.5 65.5 C 83.195312 64.171875 82.5625 62.734375 81.75 61.625 C 77.375 54.460938 67.308594 55.789062 62.25 61.8125 C 60.308594 64.125 59.324219 66.15625 60.75 69.0625 C 60.90625 69.378906 61.457031 69.410156 61.0625 69.875 C 61.0625 69.875 60 68.8125 60 68.8125 C 61.21875 71.140625 63.832031 71.792969 66.3125 71.5 C 71.183594 70.921875 68.855469 65.242188 72.9375 63.625 C 75.191406 62.730469 77.585938 64.03125 78.25 66.3125 C 79.238281 69.710938 75.804688 75.886719 73.0625 77.875 C 72.675781 78.15625 71.078125 78.984375 70.625 79.125 C 70.488281 79.167969 70.25 79.050781 70.125 79.1875 C 70.347656 79.414062 70.601562 79.121094 70.625 79.125 C 71.882812 79.234375 69.40625 79.902344 68.9375 80 C 65.15625 80.800781 62.566406 80.347656 59.1875 79.125 C 56.800781 78.261719 55.683594 77.761719 54.125 75.4375 C 54.0625 75.34375 54.355469 75.101562 54.25 74.9375 C 50.574219 69.253906 50.167969 64.550781 53.75 58.5625 C 54.101562 57.976562 55.171875 57.007812 55.625 56.4375 C 55.710938 56.328125 55.410156 56.171875 55.5 56.0625 C 55.785156 55.710938 57.5625 54.4375 57.75 54.0625 C 57.777344 54.011719 57.40625 54.019531 57.5 53.8125 C 57.550781 53.699219 57.992188 53.167969 57.875 53 C 62.785156 48.757812 69.105469 46.636719 75.625 47.25 C 75.625 47.25 74.9375 47.5 74.9375 47.5 C 79.3125 47.640625 84.015625 49.777344 87.1875 52.75 C 91.53125 56.816406 93.988281 64.667969 93.625 70.5625 C 93.4375 73.609375 92.078125 77.992188 91 80.8125 C 90.808594 81.316406 90.390625 81.394531 90.375 81.4375 C 90.355469 81.488281 90.742188 81.5625 90.375 82.3125 C 88.574219 85.972656 83.8125 90.15625 80.5 92.5 C 80.34375 92.609375 80.273438 92.609375 80.25 92.625 C 80.003906 92.789062 79.722656 92.839844 79.375 93.125 C 79.125 93.238281 79.113281 93.242188 78.875 93.375 C 78.855469 93.386719 78.894531 93.492188 78.875 93.5 C 77.871094 93.515625 76.796875 94.441406 75.9375 94.625 C 75.882812 94.636719 75.683594 94.238281 75.4375 94.25 C 75.363281 94.253906 74.570312 94.960938 74.1875 95 C 73.59375 95.058594 73.40625 94.710938 73.1875 94.75 C 69.707031 95.363281 67.792969 95.640625 64.3125 95.875 C 64.1875 95.882812 63.945312 96.230469 63.5625 96.25 C 63.527344 96.253906 63.433594 95.988281 63.0625 96 C 62.9375 96.003906 62.855469 96.371094 62.8125 96.375 C 62.171875 96.414062 56.953125 95.738281 56.875 95.4375 C 57.074219 94.957031 57.496094 95.089844 57.9375 95.25 C 58.320312 95.257812 57.867188 95.015625 57.8125 95 C 44.914062 91.148438 35.613281 82.3125 34.125 68.3125 C 33.644531 63.808594 34.25 60.304688 35.25 56 C 35.300781 55.863281 35.335938 55.777344 35.375 55.625 C 35.382812 55.59375 35.667969 55.316406 35.4375 55.125 C 35.304688 55.25 35.414062 55.480469 35.375 55.625 C 35.359375 55.679688 35.292969 55.820312 35.25 56 C 34.8125 57.230469 34.332031 58.523438 34.25 59.8125 C 34.25 59.8125 33.75 59.375 33.75 59.375 C 35.507812 49.488281 40.199219 44.933594 46.875 38.25 C 46.996094 38.234375 47.132812 38.273438 47.25 38.25 C 47.328125 38.234375 47.476562 38.269531 47.5 38.25 C 47.265625 38.453125 47.039062 38.679688 46.75 38.8125 C 46.75 38.8125 47.0625 39.25 47.0625 39.25 C 47.304688 38.796875 49.988281 37.367188 50 37.1875 C 50 37.164062 49.710938 36.878906 49.6875 36.875 C 49.433594 36.816406 47.796875 37.992188 47.5 38.25 C 47.515625 38.238281 47.492188 38.082031 47.5 38 C 52.761719 34.140625 63.738281 29.671875 70.25 31 Z M 45.4375 40.375 C 45.414062 40.378906 45.078125 40.660156 45.1875 40.75 C 45.445312 40.730469 45.792969 40.328125 45.4375 40.375 Z M 69.25 79.5 C 66.738281 79.773438 64.265625 79.699219 61.75 79.6875 C 61.75 79.6875 66.9375 79.875 66.9375 79.875 C 67.796875 79.734375 68.378906 79.730469 69.25 79.5 C 69.425781 79.453125 69.710938 79.578125 69.875 79.4375 C 69.671875 79.203125 69.28125 79.496094 69.25 79.5 Z M 89.6875 82.375 C 89.527344 82.382812 89.679688 83.027344 89.75 82.5625 C 89.773438 82.484375 89.75 82.371094 89.6875 82.375 Z M 89.125 83.5 C 89.101562 83.539062 88.707031 83.65625 88.9375 83.875 C 89.136719 83.800781 89.105469 83.527344 89.125 83.5 C 89.148438 83.460938 89.542969 83.34375 89.3125 83.125 C 89.113281 83.199219 89.144531 83.472656 89.125 83.5 Z M 88.3125 84.5 C 88.152344 84.507812 88.304688 85.152344 88.375 84.6875 C 88.398438 84.609375 88.375 84.496094 88.3125 84.5 Z M 86.5625 86.75 C 86.535156 86.742188 86.082031 87.171875 86.3125 87.25 C 86.339844 87.257812 86.792969 86.828125 86.5625 86.75 Z M 86.5625 86.75 "/>
<path style=" stroke:none;fill-rule:nonzero;fill:rgb(96.078432%,96.078432%,96.862745%);fill-opacity:1;" d="M 47.5 38.25 C 47.796875 37.992188 49.433594 36.816406 49.6875 36.875 C 49.710938 36.878906 50 37.164062 50 37.1875 C 49.988281 37.367188 47.304688 38.796875 47.0625 39.25 C 47.0625 39.25 46.75 38.8125 46.75 38.8125 C 47.039062 38.679688 47.265625 38.453125 47.5 38.25 Z M 47.5 38.25 "/>
<path style=" stroke:none;fill-rule:nonzero;fill:rgb(96.078432%,96.078432%,96.862745%);fill-opacity:1;" d="M 47.5 38.25 C 47.476562 38.269531 47.328125 38.234375 47.25 38.25 C 47.242188 38.097656 47.417969 38.058594 47.5 38 C 47.492188 38.082031 47.515625 38.238281 47.5 38.25 Z M 47.5 38.25 "/>
<path style=" stroke:none;fill-rule:nonzero;fill:rgb(96.078432%,96.078432%,96.862745%);fill-opacity:1;" d="M 45.4375 40.375 C 45.792969 40.328125 45.445312 40.730469 45.1875 40.75 C 45.078125 40.660156 45.414062 40.378906 45.4375 40.375 Z M 45.4375 40.375 "/>
<path style=" stroke:none;fill-rule:nonzero;fill:rgb(92.941177%,93.333334%,94.117647%);fill-opacity:1;" d="M 94 73.375 C 92.839844 80.261719 88.179688 87.476562 82.5 91.5 C 81.941406 91.898438 81.175781 92.476562 80.5 92.5 C 83.8125 90.15625 88.574219 85.972656 90.375 82.3125 C 90.742188 81.5625 90.355469 81.488281 90.375 81.4375 C 90.390625 81.394531 90.808594 81.316406 91 80.8125 C 92.078125 77.992188 93.4375 73.609375 93.625 70.5625 C 93.988281 64.667969 91.53125 56.816406 87.1875 52.75 C 84.015625 49.777344 79.3125 47.640625 74.9375 47.5 C 74.9375 47.5 75.625 47.25 75.625 47.25 C 88.5625 48.46875 96.070312 61.105469 94 73.375 Z M 94 73.375 "/>
<path style=" stroke:none;fill-rule:nonzero;fill:rgb(92.941177%,93.333334%,94.117647%);fill-opacity:1;" d="M 70.625 79.125 C 71.078125 78.984375 72.675781 78.15625 73.0625 77.875 C 75.804688 75.886719 79.238281 69.710938 78.25 66.3125 C 77.585938 64.03125 75.191406 62.730469 72.9375 63.625 C 68.855469 65.242188 71.183594 70.921875 66.3125 71.5 C 63.832031 71.792969 61.21875 71.140625 60 68.8125 C 60 68.8125 61.0625 69.875 61.0625 69.875 C 61.457031 69.410156 60.90625 69.378906 60.75 69.0625 C 59.324219 66.15625 60.308594 64.125 62.25 61.8125 C 67.308594 55.789062 77.375 54.460938 81.75 61.625 C 76.867188 54.96875 67.261719 56.039062 62.375 62.0625 C 58.902344 66.34375 60.132812 71.726562 66.3125 70.75 C 69.964844 70.171875 68.988281 65.53125 71.4375 63.625 C 74.402344 61.316406 78.8125 63.246094 79.125 67 C 80.199219 79.804688 61.925781 85.476562 54 75.9375 C 47.632812 68.277344 51.058594 58.886719 57.875 53 C 57.992188 53.167969 57.550781 53.699219 57.5 53.8125 C 57.40625 54.019531 57.777344 54.011719 57.75 54.0625 C 57.5625 54.4375 55.785156 55.710938 55.5 56.0625 C 55.410156 56.171875 55.710938 56.328125 55.625 56.4375 C 55.171875 57.007812 54.101562 57.976562 53.75 58.5625 C 50.167969 64.550781 50.574219 69.253906 54.25 74.9375 C 54.355469 75.101562 54.0625 75.34375 54.125 75.4375 C 55.683594 77.761719 56.800781 78.261719 59.1875 79.125 C 62.566406 80.347656 65.15625 80.800781 68.9375 80 C 69.40625 79.902344 71.882812 79.234375 70.625 79.125 Z M 70.625 79.125 "/>
<path style=" stroke:none;fill-rule:nonzero;fill:rgb(93.333334%,93.725491%,94.117647%);fill-opacity:1;" d="M 35.375 55.625 C 35.414062 55.480469 35.304688 55.25 35.4375 55.125 C 35.667969 55.316406 35.382812 55.59375 35.375 55.625 Z M 35.375 55.625 "/>
<path style=" stroke:none;fill-rule:nonzero;fill:rgb(93.333334%,93.725491%,94.117647%);fill-opacity:1;" d="M 35.25 56 C 35.292969 55.820312 35.359375 55.679688 35.375 55.625 C 35.335938 55.777344 35.300781 55.863281 35.25 56 Z M 35.25 56 "/>
<path style=" stroke:none;fill-rule:nonzero;fill:rgb(92.941177%,93.333334%,94.117647%);fill-opacity:1;" d="M 78.875 93.5 C 70.335938 98.207031 57.972656 97.585938 49.5625 92.875 C 38.074219 86.441406 31.4375 72.398438 33.75 59.375 C 33.75 59.375 34.25 59.8125 34.25 59.8125 C 34.332031 58.523438 34.8125 57.230469 35.25 56 C 34.25 60.304688 33.644531 63.808594 34.125 68.3125 C 35.613281 82.3125 44.914062 91.148438 57.8125 95 C 57.867188 95.015625 58.320312 95.257812 57.9375 95.25 C 57.496094 95.089844 57.074219 94.957031 56.875 95.4375 C 56.953125 95.738281 62.171875 96.414062 62.8125 96.375 C 62.855469 96.371094 62.9375 96.003906 63.0625 96 C 63.433594 95.988281 63.527344 96.253906 63.5625 96.25 C 63.945312 96.230469 64.1875 95.882812 64.3125 95.875 C 67.792969 95.640625 69.707031 95.363281 73.1875 94.75 C 73.40625 94.710938 73.59375 95.058594 74.1875 95 C 74.570312 94.960938 75.363281 94.253906 75.4375 94.25 C 75.683594 94.238281 75.882812 94.636719 75.9375 94.625 C 76.796875 94.441406 77.871094 93.515625 78.875 93.5 Z M 78.875 93.5 "/>
<path style=" stroke:none;fill-rule:nonzero;fill:rgb(92.941177%,93.333334%,94.509804%);fill-opacity:1;" d="M 61.25 85.875 C 72.003906 87.359375 82.601562 81.800781 83.75 70.25 C 83.925781 68.480469 83.898438 67.234375 83.5 65.5 C 84.046875 66.011719 84.273438 65.652344 84.5 66.4375 C 85.199219 68.878906 84.074219 72.777344 83.25 75.0625 C 79.992188 84.09375 72.183594 87.578125 63.1875 86.75 C 60.503906 86.503906 57.777344 86.160156 55.375 84.9375 C 57.078125 85.128906 59.675781 86.867188 61.25 85.875 Z M 61.25 85.875 "/>
<path style=" stroke:none;fill-rule:nonzero;fill:rgb(92.941177%,93.333334%,94.117647%);fill-opacity:1;" d="M 70.625 79.125 C 70.601562 79.121094 70.347656 79.414062 70.125 79.1875 C 70.25 79.050781 70.488281 79.167969 70.625 79.125 Z M 70.625 79.125 "/>
<path style=" stroke:none;fill-rule:nonzero;fill:rgb(92.941177%,93.333334%,94.117647%);fill-opacity:1;" d="M 69.25 79.5 C 69.28125 79.496094 69.671875 79.203125 69.875 79.4375 C 69.710938 79.578125 69.425781 79.453125 69.25 79.5 Z M 69.25 79.5 "/>
<path style=" stroke:none;fill-rule:nonzero;fill:rgb(92.941177%,93.333334%,94.117647%);fill-opacity:1;" d="M 69.25 79.5 C 68.378906 79.730469 67.796875 79.734375 66.9375 79.875 C 66.9375 79.875 61.75 79.6875 61.75 79.6875 C 64.265625 79.699219 66.738281 79.773438 69.25 79.5 Z M 69.25 79.5 "/>
<path style=" stroke:none;fill-rule:nonzero;fill:rgb(93.333334%,93.725491%,94.117647%);fill-opacity:1;" d="M 89.6875 82.375 C 89.75 82.371094 89.773438 82.484375 89.75 82.5625 C 89.679688 83.027344 89.527344 82.382812 89.6875 82.375 Z M 89.6875 82.375 "/>
<path style=" stroke:none;fill-rule:nonzero;fill:rgb(93.333334%,93.725491%,94.117647%);fill-opacity:1;" d="M 89.125 83.5 C 89.144531 83.472656 89.113281 83.199219 89.3125 83.125 C 89.542969 83.34375 89.148438 83.460938 89.125 83.5 Z M 89.125 83.5 "/>
<path style=" stroke:none;fill-rule:nonzero;fill:rgb(93.333334%,93.725491%,94.117647%);fill-opacity:1;" d="M 89.125 83.5 C 89.105469 83.527344 89.136719 83.800781 88.9375 83.875 C 88.707031 83.65625 89.101562 83.539062 89.125 83.5 Z M 89.125 83.5 "/>
<path style=" stroke:none;fill-rule:nonzero;fill:rgb(93.333334%,93.725491%,94.117647%);fill-opacity:1;" d="M 88.3125 84.5 C 88.375 84.496094 88.398438 84.609375 88.375 84.6875 C 88.304688 85.152344 88.152344 84.507812 88.3125 84.5 Z M 88.3125 84.5 "/>
<path style=" stroke:none;fill-rule:nonzero;fill:rgb(93.333334%,93.725491%,94.117647%);fill-opacity:1;" d="M 86.5625 86.75 C 86.792969 86.828125 86.339844 87.257812 86.3125 87.25 C 86.082031 87.171875 86.535156 86.742188 86.5625 86.75 Z M 86.5625 86.75 "/>
<path style=" stroke:none;fill-rule:nonzero;fill:rgb(93.333334%,93.725491%,94.117647%);fill-opacity:1;" d="M 80.25 92.625 C 80.238281 93.132812 79.523438 93.058594 79.375 93.125 C 79.722656 92.839844 80.003906 92.789062 80.25 92.625 Z M 80.25 92.625 "/>
<path style=" stroke:none;fill-rule:nonzero;fill:rgb(93.333334%,93.725491%,94.117647%);fill-opacity:1;" d="M 79.375 93.125 C 79.347656 93.148438 79.441406 93.511719 78.875 93.375 C 79.113281 93.242188 79.125 93.238281 79.375 93.125 Z M 79.375 93.125 "/>
</g>
</svg>
