<?xml version="1.0" encoding="UTF-8"?>
<svg xmlns="http://www.w3.org/2000/svg" xmlns:xlink="http://www.w3.org/1999/xlink" width="128" height="128" viewBox="0 0 128 128" version="1.1">
<g id="surface1">
<path style=" stroke:none;fill-rule:nonzero;fill:rgb(96.470588%,98.039216%,98.823529%);fill-opacity:1;" d="M 93.5 76.5 C 86.550781 77.015625 78.925781 76.21875 71.875 76.5 C 71.609375 76.511719 70.339844 76.4375 70.25 76.5625 C 70.25 76.5625 70.25 94.5625 70.25 94.5625 C 70.121094 95.332031 69.375 96.339844 68.5625 96.5 C 67.789062 96.652344 59.6875 96.65625 58.9375 96.5 C 58.070312 96.320312 57.367188 95.125 57.25 94.3125 C 57.25 94.3125 57.3125 79.375 57.3125 79.375 C 52.542969 83.609375 48.132812 88.753906 43.3125 92.875 C 42.519531 93.554688 41.597656 94.714844 40.4375 94.5 C 39.707031 94.367188 32.492188 86.953125 32.375 86.1875 C 32.285156 85.589844 32.445312 85.066406 32.75 84.5625 C 32.75 84.5625 53.875 64.3125 53.875 64.3125 C 53.875 64.3125 32.6875 64.125 32.6875 64.125 C 32.070312 63.710938 31.503906 63.078125 31.375 62.3125 C 31.195312 61.261719 31.300781 53.28125 31.625 52.5625 C 31.925781 51.894531 32.851562 51.359375 33.5625 51.25 C 33.5625 51.25 57.1875 51.375 57.1875 51.375 C 57.1875 51.375 57.25 33.3125 57.25 33.3125 C 57.390625 32.609375 57.648438 31.757812 58.3125 31.375 C 59.226562 30.847656 68.101562 30.800781 69.0625 31.25 C 69.496094 31.453125 70.167969 32.453125 70.25 32.9375 C 70.25 32.9375 70.3125 48.625 70.3125 48.625 C 70.3125 48.625 87.4375 32.5 87.4375 32.5 C 88.148438 32.292969 88.769531 32.328125 89.4375 32.625 C 89.886719 32.824219 96.125 39.117188 96.375 39.5625 C 96.855469 40.417969 96.832031 41.09375 96.375 41.9375 C 96.375 41.9375 74 63.3125 74 63.3125 C 74 63.3125 94.8125 63.375 94.8125 63.375 C 95.492188 63.691406 96.351562 64.40625 96.5 65.1875 C 96.6875 66.15625 96.671875 73.542969 96.5 74.5625 C 96.207031 76.292969 94.917969 76.394531 93.5 76.5 Z M 93.5 76.5 "/>
</g>
</svg>
