<?xml version="1.0" encoding="UTF-8"?>
<svg xmlns="http://www.w3.org/2000/svg" xmlns:xlink="http://www.w3.org/1999/xlink" width="128" height="128" viewBox="0 0 128 128" version="1.1">
<g id="surface1">
<path style=" stroke:none;fill-rule:nonzero;fill:rgb(99.607843%,99.607843%,99.607843%);fill-opacity:1;" d="M 75.75 21.625 C 71.378906 24.195312 67.414062 29.683594 66.125 34.5625 C 66.058594 34.808594 65.859375 35.324219 66.125 35.5 C 65.675781 36.867188 65.265625 38.152344 65.5625 39.625 C 66.609375 37.683594 67.84375 35.78125 69.4375 34.25 C 72.492188 31.3125 75.703125 31.15625 79.4375 29.5 C 80.449219 29.050781 85.011719 26.316406 85.4375 26.25 C 86.421875 26.097656 86.585938 26.675781 86.375 27.5 C 85.710938 30.078125 82.375 34.253906 80.4375 36.125 C 80.136719 36.417969 78 38.023438 78 38.1875 C 78 38.664062 79.378906 38.519531 79.75 38.375 C 82.046875 38.402344 84.4375 38.136719 86.6875 37.625 C 87.566406 37.425781 91.679688 35.878906 92.0625 36 C 92.511719 36.140625 92.523438 36.871094 92.375 37.25 C 92.070312 38.023438 88.832031 41.632812 88.0625 42.375 C 86.820312 43.570312 85.394531 44.613281 84 45.625 C 81.398438 44.6875 78.453125 44.097656 75.6875 44 C 69.769531 43.789062 65.746094 46.355469 59.6875 45.25 C 52.695312 43.976562 50.105469 43.300781 43 45.625 C 40.773438 44.050781 38.628906 42.289062 36.875 40.1875 C 36.5625 39.8125 34.71875 37.484375 34.625 37.25 C 34.3125 36.464844 34.710938 35.914062 35.5625 36 C 36.59375 36.101562 39.75 37.578125 41.3125 37.875 C 43.1875 38.230469 45.226562 38.433594 47.125 38.375 C 47.386719 38.367188 48.832031 38.496094 48.875 38.1875 C 46.316406 36 43.816406 33.628906 42.125 30.6875 C 41.8125 30.144531 40.617188 27.84375 40.5 27.375 C 40.28125 26.511719 40.613281 26.066406 41.5625 26.25 C 42.058594 26.34375 46.578125 29.136719 47.6875 29.625 C 52.527344 31.765625 55.152344 31.363281 58.875 35.8125 C 59.878906 37.015625 60.636719 38.410156 61.4375 39.75 C 61.269531 33.078125 62.398438 27.039062 66.5 21.6875 C 67.011719 21.023438 70.394531 17.351562 70.9375 17.25 C 71.042969 17.230469 71.34375 17.226562 71.4375 17.25 C 71.734375 17.320312 75.445312 21.148438 75.75 21.625 Z M 75.75 21.625 "/>
<path style=" stroke:none;fill-rule:nonzero;fill:rgb(54.509807%,57.254905%,56.078434%);fill-opacity:1;" d="M 66.125 35.5 C 65.859375 35.324219 66.058594 34.808594 66.125 34.5625 C 67.414062 29.683594 71.378906 24.195312 75.75 21.625 C 75.984375 21.992188 76.507812 22.039062 76.25 22.8125 C 76.191406 22.992188 73.644531 24.597656 73.1875 25 C 70.535156 27.351562 67.230469 32.132812 66.125 35.5 Z M 66.125 35.5 "/>
<path style=" stroke:none;fill-rule:nonzero;fill:rgb(54.901963%,57.254905%,56.862748%);fill-opacity:1;" d="M 47.125 38.375 C 45.410156 36.851562 43.832031 35.152344 42.625 33.1875 C 42.273438 32.617188 40.171875 28.558594 40.125 28.1875 C 40.066406 27.714844 40.136719 27.628906 40.5 27.375 C 40.617188 27.84375 41.8125 30.144531 42.125 30.6875 C 43.816406 33.628906 46.316406 36 48.875 38.1875 C 48.832031 38.496094 47.386719 38.367188 47.125 38.375 Z M 47.125 38.375 "/>
<path style=" stroke:none;fill-rule:nonzero;fill:rgb(54.11765%,56.862748%,55.686277%);fill-opacity:1;" d="M 79.75 38.375 C 79.378906 38.519531 78 38.664062 78 38.1875 C 78 38.023438 80.136719 36.417969 80.4375 36.125 C 82.375 34.253906 85.710938 30.078125 86.375 27.5 C 86.84375 27.8125 86.730469 27.820312 86.625 28.3125 C 86.195312 30.296875 81.585938 37.671875 79.75 38.375 Z M 79.75 38.375 "/>
<path style=" stroke:none;fill-rule:nonzero;fill:rgb(54.11765%,56.862748%,56.078434%);fill-opacity:1;" d="M 43 45.625 C 42.636719 45.742188 41.75 46.269531 41.5625 46.25 C 40.5 46.128906 33.984375 38.738281 34.125 37.8125 C 34.140625 37.714844 34.605469 37.4375 34.625 37.25 C 34.71875 37.484375 36.5625 39.8125 36.875 40.1875 C 38.628906 42.289062 40.773438 44.050781 43 45.625 Z M 43 45.625 "/>
<path style=" stroke:none;fill-rule:nonzero;fill:rgb(53.725493%,56.470591%,55.29412%);fill-opacity:1;" d="M 84 45.625 C 85.394531 44.613281 86.820312 43.570312 88.0625 42.375 C 88.832031 41.632812 92.070312 38.023438 92.375 37.25 C 92.378906 37.414062 92.734375 37.601562 92.75 37.6875 C 92.9375 38.714844 88.628906 43.523438 87.6875 44.375 C 87.394531 44.636719 85.347656 46.386719 85.1875 46.375 C 85.117188 46.371094 84.464844 45.792969 84 45.625 Z M 84 45.625 "/>
<path style=" stroke:none;fill-rule:nonzero;fill:rgb(90.196079%,88.627452%,91.37255%);fill-opacity:1;" d="M 94.5 72.875 C 94.28125 73.898438 94.042969 74.753906 93.75 75.75 C 92.683594 77.222656 92.300781 79.066406 91.5 80.6875 C 87.140625 89.492188 79.039062 98.980469 71.1875 104.875 C 65.558594 109.097656 62.78125 109.554688 56.8125 105.5 C 51.34375 101.785156 45.25 95.414062 41.375 90.0625 C 40.503906 88.863281 38.914062 85.726562 38.125 84.9375 C 37.882812 84.695312 37.578125 84.5 37.25 84.75 C 36.371094 83.152344 35.566406 81.507812 34.75 79.875 C 30.632812 70.460938 30.644531 58.214844 39.0625 51.125 C 48.351562 43.304688 56.351562 49.238281 65.9375 48.375 C 67.828125 48.203125 69.691406 47.351562 71.5625 47.125 C 78.796875 46.253906 85.710938 48.058594 90.375 53.8125 C 94.953125 59.460938 95.507812 65.847656 94.5 72.875 Z M 73.625 56.875 C 73.640625 57.507812 75.054688 61.011719 75.8125 60.875 C 76.535156 60.746094 77.769531 57.34375 77.875 56.625 C 78.675781 51.246094 72.320312 52.316406 73.625 56.875 Z M 49 56.625 C 49.105469 57.59375 50.253906 61.257812 51.4375 61 C 52.164062 60.839844 53.0625 57.226562 53.125 56.5 C 53.492188 52.152344 48.542969 52.382812 49 56.625 Z M 81.75 68.125 C 81.789062 68.195312 81.679688 68.4375 81.8125 68.5 C 81.8125 68.5 82.125 68.25 82.125 68.25 C 82.03125 69.113281 83.722656 73.21875 84.4375 73.375 C 85.578125 73.625 86.664062 69.546875 86.5 68.625 C 87.265625 67.828125 86.453125 66.695312 86.25 66 C 86.148438 65.644531 85.945312 65.628906 85.875 65.4375 C 85.738281 65.054688 86.34375 64.75 85.6875 64.25 C 84.203125 63.121094 80.609375 66.128906 81.75 68.125 Z M 63.125 73.25 C 64.125 73.96875 65.011719 71.832031 65.375 71 C 66.25 70.753906 66.265625 69.40625 66.625 68.8125 C 66.671875 68.734375 67.277344 68.691406 67.375 68.4375 C 67.789062 67.382812 66.777344 65.644531 65.9375 65 C 63.796875 63.355469 60.074219 64.691406 59.625 67.1875 C 59.355469 68.695312 60.515625 68.285156 60.625 68.4375 C 60.683594 68.519531 60.796875 70.082031 61.375 70.0625 C 61.652344 70.808594 62.328125 72.882812 62.8125 73.375 C 63.007812 73.574219 63.046875 73.425781 63.125 73.25 Z M 40.625 65.5 C 39.527344 65.964844 38.898438 67.558594 39.125 68.6875 C 39.144531 68.792969 39.371094 68.738281 39.375 68.75 C 39.574219 69.535156 41.15625 73.425781 41.8125 73.625 C 42.914062 73.957031 44.164062 70.441406 44.125 69.5 C 44.855469 68.304688 44.128906 66.269531 43 65.625 C 43.476562 65.324219 43.796875 66.628906 44 65.8125 C 43.46875 64.800781 41.351562 64.175781 40.4375 64.625 C 39.957031 64.859375 39.933594 65.597656 40.625 65.5 Z M 48.5 79.875 C 48.445312 80.761719 50.308594 84.121094 51.0625 84.875 C 51.777344 84.941406 53.300781 81.050781 53.5 80.375 C 54.070312 80.410156 53.550781 80.175781 54.0625 79.875 C 54.441406 79.652344 54.871094 80.34375 55 78.9375 C 55.101562 77.835938 54.578125 77.277344 53.5 77.625 C 52.871094 76.511719 51.40625 75.976562 50.1875 76.375 C 49.195312 76.699219 47.347656 78.988281 48.5 79.875 Z M 73.5 79.625 C 73.371094 80.472656 75.023438 84.175781 75.8125 84.875 C 76.652344 84.957031 78.308594 80.671875 78.5 79.875 C 78.503906 79.859375 78.734375 79.789062 78.75 79.6875 C 79.226562 76.878906 75.730469 75.101562 73.875 77.1875 C 73.53125 77.574219 72.570312 79.320312 73.5 79.625 Z M 60.75 88.5 C 60.179688 89.484375 60.535156 89.679688 60.75 90.5 C 61.230469 92.34375 62.144531 94.210938 63.25 95.75 C 62.109375 95.558594 61.167969 91.574219 60.75 91.1875 C 60.582031 91.03125 60.105469 91.292969 59.875 91.3125 C 60.75 92.984375 61.722656 97.503906 64.3125 96.625 C 65.164062 96.335938 67.601562 91.46875 67.25 90.8125 C 66.617188 90.425781 66.632812 90.628906 66.25 91.125 C 66.234375 90.964844 66.277344 90.78125 66.25 90.625 C 66.683594 90.398438 66.675781 89.796875 66.625 89.375 C 66.625 89.375 67.4375 89.5 67.4375 89.5 C 67.390625 87.445312 64.722656 85.515625 62.6875 86 C 61.878906 86.191406 59.460938 88.082031 59.5 88.9375 C 59.539062 89.789062 60.527344 88.980469 60.75 88.5 Z M 60.75 88.5 "/>
<path style=" stroke:none;fill-rule:nonzero;fill:rgb(55.686277%,58.823532%,57.647061%);fill-opacity:1;" d="M 77.875 56.625 C 77.429688 53.898438 73.558594 54.074219 73.625 56.875 C 72.320312 52.316406 78.675781 51.246094 77.875 56.625 Z M 77.875 56.625 "/>
<path style=" stroke:none;fill-rule:nonzero;fill:rgb(55.29412%,58.039218%,56.862748%);fill-opacity:1;" d="M 53.125 56.5 C 52.175781 54.402344 49.753906 54.46875 49 56.625 C 48.542969 52.382812 53.492188 52.152344 53.125 56.5 Z M 53.125 56.5 "/>
<path style=" stroke:none;fill-rule:nonzero;fill:rgb(91.764706%,93.333334%,92.941177%);fill-opacity:1;" d="M 86.25 66 C 84.390625 64.003906 81.207031 65.339844 81.75 68.125 C 80.609375 66.128906 84.203125 63.121094 85.6875 64.25 C 86.34375 64.75 85.738281 65.054688 85.875 65.4375 C 85.945312 65.628906 86.148438 65.644531 86.25 66 Z M 86.25 66 "/>
<path style=" stroke:none;fill-rule:nonzero;fill:rgb(89.019608%,90.980393%,90.588236%);fill-opacity:1;" d="M 65.375 71 C 65.636719 70.402344 66.171875 69.386719 66.125 68.75 C 67.472656 65.253906 61.402344 64.214844 60.875 67.6875 C 60.765625 68.410156 61.074219 68.546875 61.125 68.75 C 61.328125 69.554688 62.542969 72.832031 63.125 73.25 C 63.046875 73.425781 63.007812 73.574219 62.8125 73.375 C 62.328125 72.882812 61.652344 70.808594 61.375 70.0625 C 60.796875 70.082031 60.683594 68.519531 60.625 68.4375 C 60.515625 68.285156 59.355469 68.695312 59.625 67.1875 C 60.074219 64.691406 63.796875 63.355469 65.9375 65 C 66.777344 65.644531 67.789062 67.382812 67.375 68.4375 C 67.277344 68.691406 66.671875 68.734375 66.625 68.8125 C 66.265625 69.40625 66.25 70.753906 65.375 71 Z M 65.375 71 "/>
<path style=" stroke:none;fill-rule:nonzero;fill:rgb(92.54902%,93.725491%,93.333334%);fill-opacity:1;" d="M 43 65.625 C 42.132812 65.132812 41.582031 65.09375 40.625 65.5 C 39.933594 65.597656 39.957031 64.859375 40.4375 64.625 C 41.351562 64.175781 43.46875 64.800781 44 65.8125 C 43.796875 66.628906 43.476562 65.324219 43 65.625 Z M 43 65.625 "/>
<path style=" stroke:none;fill-rule:nonzero;fill:rgb(57.647061%,61.176473%,59.607846%);fill-opacity:1;" d="M 86.25 66 C 86.453125 66.695312 87.265625 67.828125 86.5 68.625 C 86.011719 65.851562 82.363281 66.0625 82.125 68.25 C 82.125 68.25 81.8125 68.5 81.8125 68.5 C 81.679688 68.4375 81.789062 68.195312 81.75 68.125 C 81.207031 65.339844 84.390625 64.003906 86.25 66 Z M 86.25 66 "/>
<path style=" stroke:none;fill-rule:nonzero;fill:rgb(56.862748%,60.000002%,58.823532%);fill-opacity:1;" d="M 43 65.625 C 44.128906 66.269531 44.855469 68.304688 44.125 69.5 C 44.003906 66.53125 40.296875 65.621094 39.375 68.75 C 39.371094 68.738281 39.144531 68.792969 39.125 68.6875 C 38.898438 67.558594 39.527344 65.964844 40.625 65.5 C 41.582031 65.09375 42.132812 65.132812 43 65.625 Z M 43 65.625 "/>
<path style=" stroke:none;fill-rule:nonzero;fill:rgb(58.039218%,61.56863%,60.392159%);fill-opacity:1;" d="M 66.125 68.75 C 65.953125 66.375 61.570312 66.09375 61.125 68.75 C 61.074219 68.546875 60.765625 68.410156 60.875 67.6875 C 61.402344 64.214844 67.472656 65.253906 66.125 68.75 Z M 66.125 68.75 "/>
<path style=" stroke:none;fill-rule:nonzero;fill:rgb(56.078434%,57.647061%,57.647061%);fill-opacity:1;" d="M 85.375 92.125 C 81.859375 96.949219 76.878906 102.058594 72.1875 105.75 C 64.40625 111.871094 61.554688 111.054688 54.0625 105.125 C 48.042969 100.359375 41.609375 93.089844 37.875 86.375 C 37.605469 85.886719 37.519531 85.238281 37.25 84.75 C 37.578125 84.5 37.882812 84.695312 38.125 84.9375 C 38.914062 85.726562 40.503906 88.863281 41.375 90.0625 C 45.25 95.414062 51.34375 101.785156 56.8125 105.5 C 62.78125 109.554688 65.558594 109.097656 71.1875 104.875 C 79.039062 98.980469 87.140625 89.492188 91.5 80.6875 C 92.300781 79.066406 92.683594 77.222656 93.75 75.75 C 92.015625 81.640625 88.984375 87.175781 85.375 92.125 Z M 85.375 92.125 "/>
<path style=" stroke:none;fill-rule:nonzero;fill:rgb(54.509807%,57.647061%,56.078434%);fill-opacity:1;" d="M 53.5 77.625 C 54.125 78.734375 53.839844 78.804688 53.625 79.75 C 52.992188 78.636719 51.96875 77.609375 50.5625 77.875 C 50.035156 77.972656 48.535156 79.28125 48.5 79.875 C 47.347656 78.988281 49.195312 76.699219 50.1875 76.375 C 51.40625 75.976562 52.871094 76.511719 53.5 77.625 Z M 53.5 77.625 "/>
<path style=" stroke:none;fill-rule:nonzero;fill:rgb(54.901963%,58.431375%,56.862748%);fill-opacity:1;" d="M 78.5 79.875 C 77.820312 78.460938 76.410156 77.324219 74.8125 78.125 C 74.613281 78.226562 73.535156 79.386719 73.5 79.625 C 72.570312 79.320312 73.53125 77.574219 73.875 77.1875 C 75.730469 75.101562 79.226562 76.878906 78.75 79.6875 C 78.734375 79.789062 78.503906 79.859375 78.5 79.875 Z M 78.5 79.875 "/>
<path style=" stroke:none;fill-rule:nonzero;fill:rgb(90.980393%,91.37255%,92.156863%);fill-opacity:1;" d="M 53.5 80.375 C 53.558594 80.171875 53.578125 79.949219 53.625 79.75 C 53.839844 78.804688 54.125 78.734375 53.5 77.625 C 54.578125 77.277344 55.101562 77.835938 55 78.9375 C 54.871094 80.34375 54.441406 79.652344 54.0625 79.875 C 53.550781 80.175781 54.070312 80.410156 53.5 80.375 Z M 53.5 80.375 "/>
<path style=" stroke:none;fill-rule:nonzero;fill:rgb(98.039216%,98.431373%,98.431373%);fill-opacity:1;" d="M 66.625 89.375 C 66.320312 86.910156 62.144531 86.09375 60.75 88.5 C 60.527344 88.980469 59.539062 89.789062 59.5 88.9375 C 59.460938 88.082031 61.878906 86.191406 62.6875 86 C 64.722656 85.515625 67.390625 87.445312 67.4375 89.5 Z M 66.625 89.375 "/>
<path style=" stroke:none;fill-rule:nonzero;fill:rgb(54.901963%,57.647061%,56.862748%);fill-opacity:1;" d="M 66.625 89.375 C 66.675781 89.796875 66.683594 90.398438 66.25 90.625 C 65.832031 88.160156 61.453125 87.933594 60.75 90.5 C 60.535156 89.679688 60.179688 89.484375 60.75 88.5 C 62.144531 86.09375 66.320312 86.910156 66.625 89.375 Z M 66.625 89.375 "/>
<path style=" stroke:none;fill-rule:nonzero;fill:rgb(98.431373%,98.431373%,98.823529%);fill-opacity:1;" d="M 63.25 95.75 C 64.734375 96 65.535156 92.046875 66.25 91.125 C 66.632812 90.628906 66.617188 90.425781 67.25 90.8125 C 67.601562 91.46875 65.164062 96.335938 64.3125 96.625 C 61.722656 97.503906 60.75 92.984375 59.875 91.3125 C 60.105469 91.292969 60.582031 91.03125 60.75 91.1875 C 61.167969 91.574219 62.109375 95.558594 63.25 95.75 Z M 63.25 95.75 "/>
</g>
</svg>
