<?xml version="1.0" encoding="UTF-8"?>
<svg xmlns="http://www.w3.org/2000/svg" xmlns:xlink="http://www.w3.org/1999/xlink" width="128" height="128" viewBox="0 0 128 128" version="1.1">
<g id="surface1">
<path style=" stroke:none;fill-rule:nonzero;fill:rgb(99.607843%,99.215686%,99.215686%);fill-opacity:1;" d="M 52.0625 35.25 C 52.0625 35.25 99.125 60.4375 99.125 60.4375 C 99.125 60.4375 29.1875 60.5 29.1875 60.5 C 28.78125 60.226562 31.726562 54.386719 32.125 53.6875 C 36.675781 45.707031 43.863281 39.320312 52.0625 35.25 Z M 50.4375 47.125 C 44.539062 47.859375 43.324219 54.609375 50.3125 54.875 C 58.953125 55.203125 59.613281 45.984375 50.4375 47.125 Z M 50.4375 47.125 "/>
<path style=" stroke:none;fill-rule:nonzero;fill:rgb(78.823531%,79.215688%,81.960785%);fill-opacity:1;" d="M 29 61.75 C 28.921875 62.128906 29.269531 61.875 29.3125 62.125 C 29.523438 63.359375 29.246094 66.632812 29.25 68.125 C 28.660156 70.34375 28.851562 67.972656 28.625 67.25 C 28.644531 65.480469 28.613281 63.707031 28.625 61.9375 Z M 29 61.75 "/>
<path style=" stroke:none;fill-rule:nonzero;fill:rgb(99.215686%,99.215686%,99.607843%);fill-opacity:1;" d="M 91.875 80.875 C 91.597656 81.105469 92.070312 81.851562 92.25 82.125 C 91.707031 82.152344 91.980469 82.449219 92.125 82.6875 C 92.886719 83.9375 94.195312 84.605469 95.5625 85 C 95.5625 85 98.5 85.375 98.5 85.375 C 98.542969 86.5 98.675781 90.070312 98.5 90.9375 C 98.445312 91.203125 98.273438 91.601562 97.875 91.5 C 96.222656 91.5625 94.597656 91.429688 93 91.5 C 91.914062 91.195312 92.4375 89.839844 92.25 89.0625 C 90.054688 79.945312 75.472656 81.660156 74.6875 90.75 C 74.6875 90.75 53.8125 90.875 53.8125 90.875 C 53.8125 90.875 52.875 91.625 52.875 91.625 C 51.367188 91.625 48.945312 91.417969 47.5625 91.625 C 46.710938 91.753906 46.304688 92.203125 45.5 92.625 C 45.125 92.625 44.75 92.625 44.375 92.625 C 43.644531 92.203125 42.410156 93.015625 42.3125 91.875 C 42.3125 91.875 29.375 91.4375 29.375 91.4375 C 29.164062 83.683594 29.265625 75.894531 29.25 68.125 C 29.246094 66.632812 29.523438 63.359375 29.3125 62.125 C 29.269531 61.875 28.921875 62.128906 29 61.75 C 29 61.75 99.5625 61.75 99.5625 61.75 C 99.5625 61.75 99.75 71.1875 99.75 71.1875 C 93.738281 69.96875 88.164062 74.839844 91.875 80.875 Z M 64.8125 67.625 C 57.929688 68.523438 58.957031 79.757812 66.8125 78.625 C 73.5 77.660156 72.496094 66.621094 64.8125 67.625 Z M 91.3125 73.375 C 91.175781 73.386719 89.199219 74.917969 89.125 75.0625 C 88.738281 75.804688 88.910156 78.089844 89.125 78.9375 C 89.199219 79.222656 90.175781 81.460938 90.3125 81.5 C 90.539062 81.5625 91.25 81.082031 91.25 80.8125 C 91.25 80.734375 90.5625 79.679688 90.5 79.4375 C 90.085938 77.800781 89.808594 76.207031 90.625 74.6875 C 90.722656 74.507812 92.152344 73.308594 91.3125 73.375 Z M 36.875 74.5 C 36.867188 73.964844 36.207031 74.398438 36.0625 74.5 C 33.109375 76.628906 32.5 82.628906 35.125 85.1875 C 35.535156 85.585938 37.164062 86.820312 37.75 86.375 C 40.808594 88.089844 45.589844 86.652344 46.375 83 C 49.199219 76.960938 42.078125 70.753906 36.875 74.5 Z M 36.875 74.5 "/>
<path style=" stroke:none;fill-rule:nonzero;fill:rgb(67.843139%,68.235296%,69.01961%);fill-opacity:1;" d="M 29.25 68.125 C 29.265625 75.894531 29.164062 83.683594 29.375 91.4375 C 29.375 91.4375 42.3125 91.875 42.3125 91.875 C 42.410156 93.015625 43.644531 92.203125 44.375 92.625 C 39.398438 92.605469 34.417969 92.640625 29.4375 92.625 C 29.4375 92.625 28.75 92.0625 28.75 92.0625 C 28.585938 83.800781 28.539062 75.515625 28.625 67.25 C 28.851562 67.972656 28.660156 70.34375 29.25 68.125 Z M 29.25 68.125 "/>
<path style=" stroke:none;fill-rule:nonzero;fill:rgb(93.333334%,92.941177%,93.333334%);fill-opacity:1;" d="M 91.3125 73.375 C 92.152344 73.308594 90.722656 74.507812 90.625 74.6875 C 89.808594 76.207031 90.085938 77.800781 90.5 79.4375 C 90.5625 79.679688 91.25 80.734375 91.25 80.8125 C 91.25 81.082031 90.539062 81.5625 90.3125 81.5 C 90.175781 81.460938 89.199219 79.222656 89.125 78.9375 C 88.910156 78.089844 88.738281 75.804688 89.125 75.0625 C 89.199219 74.917969 91.175781 73.386719 91.3125 73.375 Z M 91.3125 73.375 "/>
<path style=" stroke:none;fill-rule:nonzero;fill:rgb(58.431375%,61.56863%,65.882355%);fill-opacity:1;" d="M 46.375 83 C 44.96875 86.011719 40.640625 87.242188 37.625 86.125 C 33.089844 84.445312 33.050781 77.253906 36.875 74.5 C 42.078125 70.753906 49.199219 76.960938 46.375 83 Z M 39.6875 74.25 C 32.660156 75.097656 33.171875 86.570312 41.1875 85.875 C 48.644531 85.226562 47.660156 73.289062 39.6875 74.25 Z M 39.6875 74.25 "/>
<path style=" stroke:none;fill-rule:nonzero;fill:rgb(88.627452%,89.019608%,89.803922%);fill-opacity:1;" d="M 36.875 74.5 C 33.050781 77.253906 33.089844 84.445312 37.625 86.125 C 37.640625 86.179688 37.738281 86.367188 37.75 86.375 C 37.164062 86.820312 35.535156 85.585938 35.125 85.1875 C 32.5 82.628906 33.109375 76.628906 36.0625 74.5 C 36.207031 74.398438 36.867188 73.964844 36.875 74.5 Z M 36.875 74.5 "/>
<path style=" stroke:none;fill-rule:nonzero;fill:rgb(76.862746%,78.039217%,80.784315%);fill-opacity:1;" d="M 99.625 87.75 C 99.625 87.75 99.3125 86.875 99.3125 86.875 C 99.257812 87.289062 98.832031 87.03125 98.75 87.1875 C 98.53125 87.613281 98.914062 90.707031 98.75 91.4375 C 98.289062 91.917969 97.925781 91.496094 97.875 91.5 C 98.273438 91.601562 98.445312 91.203125 98.5 90.9375 C 98.675781 90.070312 98.542969 86.5 98.5 85.375 C 98.5 85.34375 98.808594 84.992188 98.5625 84.75 C 96.320312 84.546875 93.585938 84.175781 92.25 82.125 C 92.070312 81.851562 91.597656 81.105469 91.875 80.875 C 93.449219 83.4375 96.726562 84.339844 99.5625 83.625 C 99.683594 84.996094 99.617188 86.378906 99.625 87.75 Z M 99.625 87.75 "/>
<path style=" stroke:none;fill-rule:nonzero;fill:rgb(80.784315%,81.960785%,84.705883%);fill-opacity:1;" d="M 92.25 82.125 C 93.585938 84.175781 96.320312 84.546875 98.5625 84.75 C 98.808594 84.992188 98.5 85.34375 98.5 85.375 C 98.5 85.375 95.5625 85 95.5625 85 C 94.195312 84.605469 92.886719 83.9375 92.125 82.6875 C 91.980469 82.449219 91.707031 82.152344 92.25 82.125 Z M 92.25 82.125 "/>
<path style=" stroke:none;fill-rule:nonzero;fill:rgb(69.803923%,72.156864%,75.686276%);fill-opacity:1;" d="M 37.75 86.375 C 37.738281 86.367188 37.640625 86.179688 37.625 86.125 C 40.640625 87.242188 44.96875 86.011719 46.375 83 C 45.589844 86.652344 40.808594 88.089844 37.75 86.375 Z M 37.75 86.375 "/>
<path style=" stroke:none;fill-rule:nonzero;fill:rgb(80.000001%,80.392158%,81.568629%);fill-opacity:1;" d="M 93 91.5 C 92.9375 91.503906 92.425781 92.082031 91.875 91.5625 C 91.742188 88.332031 90.855469 86.003906 87.8125 84.625 C 83.238281 82.550781 76.714844 84.382812 75.625 89.8125 C 75.503906 90.414062 75.839844 91.164062 75.375 91.75 C 67.878906 91.886719 60.367188 91.621094 52.875 91.625 C 52.875 91.625 53.8125 90.875 53.8125 90.875 C 53.8125 90.875 74.6875 90.75 74.6875 90.75 C 75.472656 81.660156 90.054688 79.945312 92.25 89.0625 C 92.4375 89.839844 91.914062 91.195312 93 91.5 Z M 93 91.5 "/>
<path style=" stroke:none;fill-rule:nonzero;fill:rgb(71.764708%,72.156864%,73.725492%);fill-opacity:1;" d="M 93 91.5 C 94.597656 91.429688 96.222656 91.5625 97.875 91.5 C 97.925781 91.496094 98.289062 91.917969 98.75 91.4375 C 98.914062 90.707031 98.53125 87.613281 98.75 87.1875 C 98.832031 87.03125 99.257812 87.289062 99.3125 86.875 C 99.3125 86.875 99.625 87.75 99.625 87.75 C 99.632812 88.839844 99.976562 92.175781 98.9375 92.625 C 98.5625 92.789062 92.480469 92.867188 91.9375 92.75 C 90.34375 92.40625 91.042969 90.390625 90.875 89.3125 C 89.96875 83.488281 80.734375 82.933594 77.5 87.4375 C 76.207031 89.238281 76.695312 91.394531 76.125 92.25 C 76.125 92.25 75.375 91.75 75.375 91.75 C 75.839844 91.164062 75.503906 90.414062 75.625 89.8125 C 76.714844 84.382812 83.238281 82.550781 87.8125 84.625 C 90.855469 86.003906 91.742188 88.332031 91.875 91.5625 C 92.425781 92.082031 92.9375 91.503906 93 91.5 Z M 93 91.5 "/>
<path style=" stroke:none;fill-rule:nonzero;fill:rgb(63.529414%,64.313728%,65.882355%);fill-opacity:1;" d="M 52.875 91.625 C 60.367188 91.621094 67.878906 91.886719 75.375 91.75 C 75.375 91.75 76.125 92.25 76.125 92.25 C 75.882812 92.613281 75.796875 92.570312 75.4375 92.75 C 65.460938 92.597656 55.480469 92.65625 45.5 92.625 C 46.304688 92.203125 46.710938 91.753906 47.5625 91.625 C 48.945312 91.417969 51.367188 91.625 52.875 91.625 Z M 52.875 91.625 "/>
</g>
</svg>
