<?xml version="1.0" encoding="UTF-8"?>
<svg xmlns="http://www.w3.org/2000/svg" xmlns:xlink="http://www.w3.org/1999/xlink" width="128" height="128" viewBox="0 0 128 128" version="1.1">
<g id="surface1">
<path style=" stroke:none;fill-rule:nonzero;fill:rgb(83.137256%,83.92157%,83.92157%);fill-opacity:1;" d="M 73.3125 19.25 C 74.195312 19.414062 76.597656 18.804688 76.875 19.8125 C 76.875 19.8125 76.875 40.0625 76.875 40.0625 C 80.800781 40.71875 88.078125 38.113281 88.1875 44.25 C 88.769531 43.871094 88.710938 44.570312 88.9375 44.625 C 89.609375 44.78125 90.816406 44.511719 91.5625 44.625 C 93.578125 44.933594 96.195312 46.234375 97.25 48.0625 C 98.160156 49.640625 98.332031 59.191406 98 61.1875 C 97.804688 62.363281 96.808594 63.152344 95.6875 63.375 C 95.6875 63.375 47.3125 63.375 47.3125 63.375 C 44.132812 62.722656 45.226562 59.503906 44.9375 57.125 C 44.9375 57.125 28.0625 57.125 28.0625 57.125 C 27.816406 58.015625 27.214844 59.175781 26.1875 59.375 C 25.433594 59.519531 19.078125 59.519531 18.3125 59.375 C 17.335938 59.191406 16.519531 58.121094 16.375 57.1875 C 16.199219 56.066406 16.199219 50.554688 16.375 49.4375 C 16.503906 48.609375 17.328125 47.429688 18.1875 47.25 C 18.804688 47.121094 25.5625 47.121094 26.1875 47.25 C 26.972656 47.410156 27.984375 48.613281 28.1875 49.375 C 28.1875 49.375 44.9375 49.375 44.9375 49.375 C 44.519531 42.96875 50.777344 44.910156 54.9375 44.625 C 55.15625 44.539062 54.925781 43.054688 55 42.6875 C 55.238281 41.480469 56.539062 40.429688 57.6875 40.125 C 57.6875 40.125 73.0625 40.125 73.0625 40.125 Z M 74.8125 20.125 C 74.679688 20.148438 74.347656 20.3125 74.125 20.3125 C 74.125 20.3125 73.9375 41.25 73.9375 41.25 C 73.9375 41.25 57.6875 41.25 57.6875 41.25 C 55.625 42.003906 56.097656 43.960938 55.9375 45.75 C 51.707031 46.359375 45.011719 43.433594 46.0625 50.375 C 46.0625 50.375 27.0625 50.375 27.0625 50.375 C 27.269531 49.542969 26.632812 48.429688 25.8125 48.25 C 25.054688 48.082031 18.707031 48.214844 18.1875 48.5 C 18.039062 48.582031 17.550781 49.148438 17.5 49.3125 C 17.378906 49.707031 17.34375 57.179688 17.5 57.5625 C 17.628906 57.878906 18.34375 58.308594 18.6875 58.375 C 19.238281 58.480469 25.488281 58.488281 25.9375 58.375 C 27.21875 58.054688 26.707031 56.28125 27.0625 56.125 C 27.0625 56.125 45.9375 56.125 45.9375 56.125 C 46.597656 56.417969 45.414062 61.636719 46.8125 62.125 C 46.8125 62.125 96.1875 62.125 96.1875 62.125 C 96.574219 61.769531 96.894531 61.488281 97 60.9375 C 97.132812 60.253906 97.03125 50.6875 96.875 49.9375 C 96.050781 45.949219 90.457031 45.355469 87.1875 45.75 C 88.191406 38.550781 79.949219 42.234375 75.875 41.0625 C 75.875 41.0625 75.875 20.3125 75.875 20.3125 C 75.761719 20.058594 75.042969 20.085938 74.8125 20.125 Z M 74.8125 20.125 "/>
<path style=" stroke:none;fill-rule:nonzero;fill:rgb(99.215686%,98.823529%,98.823529%);fill-opacity:1;" d="M 74.8125 20.125 C 75.042969 20.085938 75.761719 20.058594 75.875 20.3125 C 75.875 20.3125 75.875 41.0625 75.875 41.0625 C 79.949219 42.234375 88.191406 38.550781 87.1875 45.75 C 90.457031 45.355469 96.050781 45.949219 96.875 49.9375 C 97.03125 50.6875 97.132812 60.253906 97 60.9375 C 96.894531 61.488281 96.574219 61.769531 96.1875 62.125 C 96.1875 62.125 46.8125 62.125 46.8125 62.125 C 45.414062 61.636719 46.597656 56.417969 45.9375 56.125 C 45.9375 56.125 27.0625 56.125 27.0625 56.125 C 26.707031 56.28125 27.21875 58.054688 25.9375 58.375 C 25.488281 58.488281 19.238281 58.480469 18.6875 58.375 C 18.34375 58.308594 17.628906 57.878906 17.5 57.5625 C 17.34375 57.179688 17.378906 49.707031 17.5 49.3125 C 17.550781 49.148438 18.039062 48.582031 18.1875 48.5 C 18.707031 48.214844 25.054688 48.082031 25.8125 48.25 C 26.632812 48.429688 27.269531 49.542969 27.0625 50.375 C 27.0625 50.375 46.0625 50.375 46.0625 50.375 C 45.011719 43.433594 51.707031 46.359375 55.9375 45.75 C 56.097656 43.960938 55.625 42.003906 57.6875 41.25 C 57.6875 41.25 73.9375 41.25 73.9375 41.25 C 73.9375 41.25 74.125 20.3125 74.125 20.3125 C 74.347656 20.3125 74.679688 20.148438 74.8125 20.125 Z M 74.8125 20.125 "/>
<path style=" stroke:none;fill-rule:nonzero;fill:rgb(83.92157%,84.313726%,84.705883%);fill-opacity:1;" d="M 23.6875 65.75 C 23.6875 65.75 103.4375 65.75 103.4375 65.75 C 108.320312 66.796875 110.238281 73.191406 105.8125 76.125 C 104.4375 77.035156 88.800781 84.605469 87.8125 84.75 C 87.8125 84.75 37.5625 84.75 37.5625 84.75 C 36.410156 84.582031 22.621094 77.613281 21.1875 76.625 C 16.40625 73.328125 18.324219 66.808594 23.6875 65.75 Z M 24.0625 66.75 C 19.324219 67.636719 17.792969 73.101562 22.0625 75.875 C 26.566406 78.796875 32.75 80.8125 37.4375 83.625 C 37.4375 83.625 87.9375 83.625 87.9375 83.625 C 93.007812 80.488281 100.011719 78.453125 104.9375 75.375 C 109.050781 72.804688 107.246094 67.605469 102.9375 66.75 Z M 24.0625 66.75 "/>
<path style=" stroke:none;fill-rule:nonzero;fill:rgb(98.039216%,98.039216%,98.039216%);fill-opacity:1;" d="M 24.0625 66.75 C 24.0625 66.75 102.9375 66.75 102.9375 66.75 C 107.246094 67.605469 109.050781 72.804688 104.9375 75.375 C 100.011719 78.453125 93.007812 80.488281 87.9375 83.625 C 87.9375 83.625 37.4375 83.625 37.4375 83.625 C 32.75 80.8125 26.566406 78.796875 22.0625 75.875 C 17.792969 73.101562 19.324219 67.636719 24.0625 66.75 Z M 39.3125 72.5 C 34.613281 73.199219 34.972656 80.433594 39.8125 80.75 C 45.964844 81.152344 45.765625 71.542969 39.3125 72.5 Z M 55.0625 72.5 C 49.90625 73.175781 50.59375 81.328125 56.3125 80.75 C 61.71875 80.203125 60.828125 71.746094 55.0625 72.5 Z M 70.3125 72.5 C 65.503906 73.125 65.839844 80.402344 70.6875 80.75 C 76.945312 81.199219 76.613281 71.679688 70.3125 72.5 Z M 85.8125 72.5 C 80.621094 73.179688 81.40625 81.28125 87.0625 80.75 C 92.292969 80.257812 91.703125 71.730469 85.8125 72.5 Z M 85.8125 72.5 "/>
<path style=" stroke:none;fill-rule:nonzero;fill:rgb(80.784315%,81.568629%,81.960785%);fill-opacity:1;" d="M 39.3125 72.5 C 45.765625 71.542969 45.964844 81.152344 39.8125 80.75 C 34.972656 80.433594 34.613281 73.199219 39.3125 72.5 Z M 39.6875 73.5 C 35.59375 73.976562 36.519531 80.332031 40.8125 79.625 C 44.347656 79.042969 43.972656 73.003906 39.6875 73.5 Z M 39.6875 73.5 "/>
<path style=" stroke:none;fill-rule:nonzero;fill:rgb(81.960785%,82.745099%,82.352942%);fill-opacity:1;" d="M 55.0625 72.5 C 60.828125 71.746094 61.71875 80.203125 56.3125 80.75 C 50.59375 81.328125 49.90625 73.175781 55.0625 72.5 Z M 55.4375 73.5 C 51.28125 73.839844 51.914062 80.355469 56.4375 79.625 C 59.984375 79.054688 59.480469 73.167969 55.4375 73.5 Z M 55.4375 73.5 "/>
<path style=" stroke:none;fill-rule:nonzero;fill:rgb(82.352942%,82.745099%,82.745099%);fill-opacity:1;" d="M 70.3125 72.5 C 76.613281 71.679688 76.945312 81.199219 70.6875 80.75 C 65.839844 80.402344 65.503906 73.125 70.3125 72.5 Z M 70.8125 73.5 C 67.09375 73.714844 67.003906 79.15625 70.5625 79.625 C 75.1875 80.234375 75.382812 73.238281 70.8125 73.5 Z M 70.8125 73.5 "/>
<path style=" stroke:none;fill-rule:nonzero;fill:rgb(81.960785%,82.352942%,82.745099%);fill-opacity:1;" d="M 85.8125 72.5 C 91.703125 71.730469 92.292969 80.257812 87.0625 80.75 C 81.40625 81.28125 80.621094 73.179688 85.8125 72.5 Z M 86.1875 73.5 C 81.988281 73.863281 82.78125 80.351562 87.1875 79.625 C 90.761719 79.035156 90.199219 73.15625 86.1875 73.5 Z M 86.1875 73.5 "/>
</g>
</svg>
