<?xml version="1.0" encoding="UTF-8"?>
<svg xmlns="http://www.w3.org/2000/svg" xmlns:xlink="http://www.w3.org/1999/xlink" width="128" height="128" viewBox="0 0 128 128" version="1.1">
<g id="surface1">
<path style=" stroke:none;fill-rule:nonzero;fill:rgb(18.82353%,14.509805%,32.941177%);fill-opacity:1;" d="M 96.375 10.5 C 96.375 10.5 26.625 10.5 26.625 10.5 C 49.863281 10.796875 73.140625 10.105469 96.375 10.5 Z M 96.375 10.5 "/>
<path style=" stroke:none;fill-rule:nonzero;fill:rgb(98.823529%,99.215686%,99.215686%);fill-opacity:1;" d="M 61 74.625 C 61 74.625 61 54 61 54 C 60.976562 53.859375 61.015625 53.707031 61 53.5625 C 58.964844 52.472656 56.882812 51.660156 55.375 49.6875 C 47.835938 39.832031 62.316406 28.25 70.375 37.0625 C 75.457031 42.621094 72.878906 50.804688 65.9375 53.125 C 65.15625 53.386719 63.859375 52.996094 63.625 54.0625 C 63.625 54.0625 63.625 74.1875 63.625 74.1875 C 63.84375 75.011719 65.671875 74.960938 66.4375 75.25 C 73.644531 77.988281 75.414062 86.988281 69.3125 91.875 C 60.460938 98.964844 48.75 87.855469 55.125 78.8125 C 56.617188 76.695312 58.894531 75.769531 61 74.625 Z M 61 74.625 "/>
<path style=" stroke:none;fill-rule:nonzero;fill:rgb(98.823529%,98.823529%,99.215686%);fill-opacity:1;" d="M 43.1875 54.25 C 57.800781 53.488281 56.4375 75.792969 42.3125 73.75 C 30.835938 72.089844 31.820312 54.84375 43.1875 54.25 Z M 43.1875 54.25 "/>
<path style=" stroke:none;fill-rule:nonzero;fill:rgb(12.941177%,11.372549%,25.490198%);fill-opacity:1;" d="M 117.25 94.625 C 117.25 94.625 117.25 71.625 117.25 71.625 C 117.230469 79.285156 117.351562 86.964844 117.25 94.625 Z M 117.25 94.625 "/>
</g>
</svg>
