<?xml version="1.0" encoding="UTF-8"?>
<svg xmlns="http://www.w3.org/2000/svg" xmlns:xlink="http://www.w3.org/1999/xlink" width="128" height="128" viewBox="0 0 128 128" version="1.1">
<g id="surface1">
<path style=" stroke:none;fill-rule:nonzero;fill:rgb(98.039216%,98.039216%,98.431373%);fill-opacity:1;" d="M 88.125 56.375 C 88.433594 54.484375 90.15625 53.847656 91.375 52.4375 C 92.554688 51.074219 93.695312 49.074219 94.125 47.3125 C 94.609375 45.328125 93.273438 46.523438 93 45.8125 C 92.859375 45.445312 93.109375 42.515625 92.8125 41.75 C 92.554688 42.789062 92.960938 44.1875 92.875 45.1875 C 92.40625 50.628906 87.558594 51.855469 86.125 56.75 C 86.125 56.75 86.125 82.25 86.125 82.25 C 86.085938 83.121094 86.171875 84.007812 86.125 84.875 C 85.269531 84.679688 86.15625 82.703125 85.8125 82.25 C 85.765625 82.191406 84.742188 81.855469 84.4375 81.625 C 75.011719 74.5 70 68.601562 58.3125 64.625 C 58.015625 64.523438 57.027344 64.644531 56.5625 64.5 C 55.703125 64.238281 54.90625 62.859375 54.1875 62.375 C 51.875 60.820312 48.539062 60.085938 46.1875 58.875 C 44.921875 58.226562 42.644531 55.933594 41.5625 55.625 C 41.183594 55.515625 38.765625 55.398438 38.5625 55.5 C 38.25 55.65625 38.589844 56.515625 38.125 56.5 C 37.777344 53.03125 34.957031 52.503906 33.25 49.9375 C 32.785156 49.238281 31.878906 46.578125 31.75 46.4375 C 31.480469 46.140625 30.070312 46.238281 30 46.8125 C 29.851562 48.019531 32.367188 51.722656 33.25 52.6875 C 34.867188 54.460938 37.109375 55.164062 36.5 58.1875 C 36.5 58.1875 36.25 57.25 36.25 57.25 C 35.992188 54.21875 34.101562 54.15625 32.375 52.0625 C 21.898438 39.359375 40.375 21.769531 52.5625 33.25 C 52.5625 33.25 71.6875 33.25 71.6875 33.25 C 84.226562 21.832031 102.890625 39.367188 91.625 52.4375 C 90.476562 53.769531 88.757812 54.640625 88.125 56.375 Z M 88.125 56.375 "/>
<path style=" stroke:none;fill-rule:nonzero;fill:rgb(90.588236%,90.980393%,91.764706%);fill-opacity:1;" d="M 88.125 56.375 C 88.117188 56.414062 88.128906 56.460938 88.125 56.5 C 87.707031 56.410156 87.964844 56.960938 87.8125 57 C 87.726562 57.019531 87.777344 56.753906 87.6875 56.75 C 87.167969 56.734375 86.644531 56.761719 86.125 56.75 C 87.558594 51.855469 92.40625 50.628906 92.875 45.1875 C 92.960938 44.1875 92.554688 42.789062 92.8125 41.75 C 93.109375 42.515625 92.859375 45.445312 93 45.8125 C 93.273438 46.523438 94.609375 45.328125 94.125 47.3125 C 93.695312 49.074219 92.554688 51.074219 91.375 52.4375 C 90.15625 53.847656 88.433594 54.484375 88.125 56.375 Z M 88.125 56.375 "/>
<path style=" stroke:none;fill-rule:nonzero;fill:rgb(80.392158%,80.784315%,81.960785%);fill-opacity:1;" d="M 38.125 56.5 C 38.203125 57.273438 38.101562 58.199219 38.125 59 C 38.125 59 36.5 59.1875 36.5 59.1875 C 36.5 59.1875 36.125 80.75 36.125 80.75 C 36.019531 73.210938 36.871094 64.597656 36.25 57.25 C 36.25 57.25 36.5 58.1875 36.5 58.1875 C 37.109375 55.164062 34.867188 54.460938 33.25 52.6875 C 32.367188 51.722656 29.851562 48.019531 30 46.8125 C 30.070312 46.238281 31.480469 46.140625 31.75 46.4375 C 31.878906 46.578125 32.785156 49.238281 33.25 49.9375 C 34.957031 52.503906 37.777344 53.03125 38.125 56.5 Z M 38.125 56.5 "/>
<path style=" stroke:none;fill-rule:nonzero;fill:rgb(90.588236%,90.980393%,91.764706%);fill-opacity:1;" d="M 86.125 84.875 C 86 87.101562 86.417969 88.914062 83.8125 89.875 C 83.8125 89.875 40.4375 89.875 40.4375 89.875 C 39.207031 89.359375 38.570312 88.558594 38.125 87.3125 C 37.925781 77.886719 38.394531 68.421875 38.125 59 C 38.101562 58.199219 38.203125 57.273438 38.125 56.5 C 38.589844 56.515625 38.25 55.65625 38.5625 55.5 C 38.765625 55.398438 41.183594 55.515625 41.5625 55.625 C 42.644531 55.933594 44.921875 58.226562 46.1875 58.875 C 48.539062 60.085938 51.875 60.820312 54.1875 62.375 C 54.90625 62.859375 55.703125 64.238281 56.5625 64.5 C 57.027344 64.644531 58.015625 64.523438 58.3125 64.625 C 70 68.601562 75.011719 74.5 84.4375 81.625 C 84.742188 81.855469 85.765625 82.191406 85.8125 82.25 C 86.15625 82.703125 85.269531 84.679688 86.125 84.875 Z M 86.125 84.875 "/>
<path style=" stroke:none;fill-rule:nonzero;fill:rgb(80.392158%,80.784315%,81.960785%);fill-opacity:1;" d="M 88.125 56.5 C 86.871094 65.710938 88.976562 77.589844 88.125 87.0625 C 87.902344 87.960938 87.710938 88.882812 87.125 89.625 C 87.496094 88.972656 87.625 87.90625 87.875 87.1875 C 87.875 87.1875 87.875 68.1875 87.875 68.1875 C 87.875 68.1875 86.375 68.1875 86.375 68.1875 C 86.375 72.894531 86.332031 77.554688 86.125 82.25 C 86.125 82.25 86.125 56.75 86.125 56.75 C 86.644531 56.761719 87.167969 56.734375 87.6875 56.75 C 87.777344 56.753906 87.726562 57.019531 87.8125 57 C 87.964844 56.960938 87.707031 56.410156 88.125 56.5 Z M 88.125 56.5 "/>
<path style=" stroke:none;fill-rule:nonzero;fill:rgb(70.19608%,70.588237%,71.764708%);fill-opacity:1;" d="M 38.125 59 C 38.394531 68.421875 37.925781 77.886719 38.125 87.3125 C 38.570312 88.558594 39.207031 89.359375 40.4375 89.875 C 40.4375 89.875 83.8125 89.875 83.8125 89.875 C 86.417969 88.914062 86 87.101562 86.125 84.875 C 86.171875 84.007812 86.085938 83.121094 86.125 82.25 C 86.332031 77.554688 86.375 72.894531 86.375 68.1875 C 86.375 68.1875 87.875 68.1875 87.875 68.1875 C 87.875 68.1875 87.875 87.1875 87.875 87.1875 C 87.625 87.90625 87.496094 88.972656 87.125 89.625 C 86.320312 91.042969 84.730469 91.78125 83.1875 92 C 83.1875 92 40.1875 91.875 40.1875 91.875 C 34.96875 90.328125 36.183594 85.011719 36.125 80.75 C 36.125 80.75 36.5 59.1875 36.5 59.1875 Z M 38.125 59 "/>
<path style=" stroke:none;fill-rule:nonzero;fill:rgb(89.411765%,89.411765%,89.411765%);fill-opacity:1;" d="M 127.875 127.375 C 127.875 127.375 127.875 127.875 127.875 127.875 C 127.875 127.875 -0.125 127.875 -0.125 127.875 C -0.125 127.875 -0.125 127.625 -0.125 127.625 C -0.125 127.625 127.5 127.5 127.5 127.5 C 127.722656 127.484375 127.546875 128.066406 127.875 127.375 Z M 127.875 127.375 "/>
</g>
</svg>
