<?xml version="1.0" encoding="UTF-8"?>
<svg xmlns="http://www.w3.org/2000/svg" xmlns:xlink="http://www.w3.org/1999/xlink" width="128" height="128" viewBox="0 0 128 128" version="1.1">
<defs>
<linearGradient id="linear0" gradientUnits="userSpaceOnUse" x1="637.335999" y1="277.075012" x2="441.542999" y2="638.442017" gradientTransform="matrix(0.125,0,0,0.125,0,0)">
<stop offset="0.377129" style="stop-color:rgb(98.823529%,98.823529%,99.215686%);stop-opacity:1;"/>
<stop offset="1" style="stop-color:rgb(82.352942%,85.09804%,90.196079%);stop-opacity:1;"/>
</linearGradient>
</defs>
<g id="surface1">
<path style=" stroke:none;fill-rule:nonzero;fill:url(#linear0);" d="M 66.25 35.125 C 66.25 35.125 66.6875 37.375 66.6875 37.375 C 70.125 37.515625 73.410156 38.761719 76.3125 40.5 C 76.460938 40.484375 78.375 38.652344 78.5 38.4375 C 79.167969 37.28125 78.742188 35.476562 80.1875 34.75 C 83.335938 33.171875 85.824219 37.683594 83.0625 39.375 C 81.796875 40.148438 81.445312 39.429688 80.25 41.0625 C 79.488281 42.101562 79.148438 42.460938 80 43.375 C 79.71875 43.847656 78.980469 42.304688 79 43.5625 C 80.914062 45.421875 83.042969 47.320312 84.5 49.5625 C 84.847656 50.097656 85.226562 52.132812 85.875 50.9375 C 85.875 50.9375 85.25 49.5 85.25 49.5 C 85.46875 49.816406 86.371094 51.347656 86.5625 51.375 C 88.320312 50.742188 90.757812 50.5625 92 49 C 93.089844 48.855469 93.882812 46.859375 94.9375 46.5 C 96.726562 45.886719 98.9375 47.042969 99.875 48.5625 C 100.824219 50.097656 100.703125 51.589844 99.625 53.0625 C 98.386719 54.75 95.789062 55.035156 94.0625 54 C 94.0625 54 94.3125 54.5 94.3125 54.5 C 93.164062 54.5625 88.796875 55.398438 88.375 56.3125 C 88.242188 56.601562 88.515625 56.910156 88.5 56.9375 C 88.339844 57.222656 87.855469 57.667969 87.625 57.9375 C 88.015625 60.886719 87.859375 64.0625 87.75 66.5625 C 87.75 66.597656 87.464844 66.546875 87.5 67.1875 C 87.566406 68.433594 87.980469 66.761719 88.25 67.4375 C 88.460938 67.964844 87.355469 69.777344 89.5 68.5 C 93.398438 70.074219 93.332031 68.019531 96.0625 68.375 C 99.3125 68.796875 100.277344 73.535156 97.375 75.375 C 94.714844 77.0625 93.820312 75.40625 92 74.125 C 91.960938 73.96875 91.363281 73.160156 91.3125 73.125 C 90.777344 72.761719 90.28125 72.933594 89.8125 72.75 C 89.09375 72.472656 88.035156 71.730469 87.1875 71.875 C 86.898438 71.925781 86.785156 72.605469 86.6875 72.625 C 86.636719 72.636719 85.988281 72.363281 85.6875 72.5 C 85.355469 72.648438 82.96875 78.234375 81.625 78.5 C 83.167969 76.851562 84.28125 74.796875 85.1875 72.75 C 84.988281 72.640625 82.40625 72.820312 82.1875 73 C 82.097656 73.074219 81.382812 74.683594 81.125 75.0625 C 80.734375 75.644531 80.1875 76.320312 79.625 76.75 C 79.394531 76.292969 78.878906 75.011719 78.75 74.8125 C 76.675781 71.617188 68.238281 79.601562 73.375 81.4375 C 73.375 81.4375 72.875 81.875 72.875 81.875 C 71.335938 82.277344 69.847656 82.996094 68.25 83.25 C 69.003906 81.117188 69.832031 80.332031 67.1875 79.25 C 67.058594 79.199219 67.1875 78.914062 67.0625 78.875 C 65.125 78.277344 58.078125 78.558594 59.625 82.1875 C 59.625 82.1875 60.625 84.25 60.625 84.25 C 59.765625 82.8125 57.988281 82.871094 56.5625 82.375 C 55.996094 82.179688 55.367188 81.484375 54.625 81.75 C 55.152344 81.386719 55.609375 81.367188 55.9375 81.125 C 58.457031 79.273438 54.753906 75.292969 52.4375 75 C 51.363281 74.863281 50.429688 75.148438 49.4375 75.5 C 48.964844 75.304688 49.71875 73.988281 49.75 73.5625 C 49.878906 71.847656 49.105469 69 48 67.6875 C 46.480469 65.878906 45.324219 65.859375 43.5 67.25 C 43.5 67.25 42.5 60.5 42.5 60.5 C 43.035156 60.820312 44.136719 61.65625 44.6875 61.75 C 49.320312 62.535156 50.34375 52.636719 47.9375 52 C 47.519531 51.890625 43.253906 52.367188 42.25 52.375 C 42.125 51.265625 45.773438 46.863281 45.625 46.5625 C 45.152344 45.59375 43.710938 48.597656 43.125 48.625 C 43.761719 47.640625 44.625 46.804688 45.25 45.8125 C 44.5 44.941406 43.683594 43.601562 42.6875 43 C 40.847656 41.890625 38.28125 42.539062 37.375 39.6875 C 35.722656 34.484375 43.269531 32.273438 45 36.4375 C 46.039062 38.941406 45.054688 39.34375 47.75 41.5 C 47.960938 44.238281 47.871094 42.570312 48.6875 42.5 C 48.929688 42.480469 49.339844 42.929688 49.6875 42.875 C 49.8125 42.855469 51.328125 41.582031 51.6875 41.375 C 54.5625 39.71875 57.570312 38.480469 60.9375 38.25 C 61.285156 38.019531 61.175781 37.640625 61.25 37.375 C 61.542969 36.304688 61.785156 33.382812 61.625 32.3125 C 61.3125 30.242188 58.5 29.222656 60.5 26.1875 C 62.621094 22.964844 68.246094 24.632812 67.625 28.9375 C 67.28125 31.308594 65.539062 31.035156 66.25 35.125 Z M 40.9375 34.625 C 35.5625 34.980469 37.648438 42.84375 41.6875 42 C 42.394531 41.851562 45.257812 38.6875 44.75 37.5625 C 44.273438 35.816406 43 34.488281 40.9375 34.625 Z M 81.0625 34.75 C 79.328125 34.9375 78.710938 37.375 80.0625 38.625 C 81.898438 40.324219 84.625 38.425781 83.875 36.3125 C 83.617188 35.589844 81.898438 34.660156 81.0625 34.75 Z M 94.6875 68.75 C 91.238281 69.363281 91.628906 76.386719 95.8125 75.375 C 98.460938 74.734375 99.875 71.191406 97.4375 69.375 C 96.863281 68.945312 95.382812 68.625 94.6875 68.75 Z M 94.6875 68.75 "/>
<path style=" stroke:none;fill-rule:nonzero;fill:rgb(98.039216%,98.431373%,98.823529%);fill-opacity:1;" d="M 40.9375 34.625 C 43 34.488281 44.273438 35.816406 44.75 37.5625 C 45.257812 38.6875 42.394531 41.851562 41.6875 42 C 37.648438 42.84375 35.5625 34.980469 40.9375 34.625 Z M 40.9375 34.625 "/>
<path style=" stroke:none;fill-rule:nonzero;fill:rgb(98.431373%,98.431373%,98.823529%);fill-opacity:1;" d="M 81.0625 34.75 C 81.898438 34.660156 83.617188 35.589844 83.875 36.3125 C 84.625 38.425781 81.898438 40.324219 80.0625 38.625 C 78.710938 37.375 79.328125 34.9375 81.0625 34.75 Z M 81.0625 34.75 "/>
<path style=" stroke:none;fill-rule:nonzero;fill:rgb(89.019608%,90.980393%,92.941177%);fill-opacity:1;" d="M 61.25 37.375 C 61.175781 37.640625 61.285156 38.019531 60.9375 38.25 C 57.570312 38.480469 54.5625 39.71875 51.6875 41.375 C 51.328125 41.582031 49.8125 42.855469 49.6875 42.875 C 49.339844 42.929688 48.929688 42.480469 48.6875 42.5 C 47.871094 42.570312 47.960938 44.238281 47.75 41.5 C 47.972656 41.679688 48.726562 42.402344 48.9375 42.375 C 52.289062 39.421875 56.808594 37.730469 61.25 37.375 Z M 61.25 37.375 "/>
<path style=" stroke:none;fill-rule:nonzero;fill:rgb(87.058824%,89.411765%,92.54902%);fill-opacity:1;" d="M 80 43.375 C 82.207031 45.738281 83.320312 46.714844 85.25 49.5 C 85.25 49.5 85.875 50.9375 85.875 50.9375 C 85.226562 52.132812 84.847656 50.097656 84.5 49.5625 C 83.042969 47.320312 80.914062 45.421875 79 43.5625 C 78.980469 42.304688 79.71875 43.847656 80 43.375 Z M 80 43.375 "/>
<path style=" stroke:none;fill-rule:nonzero;fill:rgb(85.490197%,87.843138%,90.980393%);fill-opacity:1;" d="M 42.25 52.375 C 41.789062 52.378906 41.332031 52.394531 40.875 52.375 C 41.660156 51.140625 42.328125 49.855469 43.125 48.625 C 43.710938 48.597656 45.152344 45.59375 45.625 46.5625 C 45.773438 46.863281 42.125 51.265625 42.25 52.375 Z M 42.25 52.375 "/>
<path style=" stroke:none;fill-rule:nonzero;fill:rgb(98.431373%,98.823529%,99.215686%);fill-opacity:1;" d="M 40.875 52.375 C 41.332031 52.394531 41.789062 52.378906 42.25 52.375 C 43.253906 52.367188 47.519531 51.890625 47.9375 52 C 50.34375 52.636719 49.320312 62.535156 44.6875 61.75 C 44.136719 61.65625 43.035156 60.820312 42.5 60.5 C 42.105469 60.261719 39.933594 58.578125 39.6875 58.625 C 39.625 58.722656 39.398438 58.863281 39.375 58.9375 C 39.195312 59.503906 39.191406 64.402344 39.25 65.25 C 39.25 65.25 39.1875 58.375 39.1875 58.375 C 39.03125 58.132812 34.703125 56.785156 34.1875 56.75 C 32.113281 56.613281 30.917969 58.082031 28.5625 57.125 C 24.136719 55.328125 25.511719 47.589844 31.3125 48.5 C 33.441406 48.832031 33.917969 50.941406 35.5625 51.625 C 36.886719 52.175781 39.414062 52.3125 40.875 52.375 Z M 40.875 52.375 "/>
<path style=" stroke:none;fill-rule:nonzero;fill:rgb(81.568629%,84.313726%,89.019608%);fill-opacity:1;" d="M 42.5 60.5 C 42.5 60.5 43.5 67.25 43.5 67.25 C 43.109375 67.546875 40.890625 70.125 40.5625 70 C 40.5625 70 39.25 65.375 39.25 65.375 C 39.246094 65.332031 39.253906 65.292969 39.25 65.25 C 39.191406 64.402344 39.195312 59.503906 39.375 58.9375 C 39.398438 58.863281 39.625 58.722656 39.6875 58.625 C 39.933594 58.578125 42.105469 60.261719 42.5 60.5 Z M 42.5 60.5 "/>
<path style=" stroke:none;fill-rule:nonzero;fill:rgb(97.647059%,98.039216%,98.431373%);fill-opacity:1;" d="M 43.5 67.25 C 45.324219 65.859375 46.480469 65.878906 48 67.6875 C 49.105469 69 49.878906 71.847656 49.75 73.5625 C 49.71875 73.988281 48.964844 75.304688 49.4375 75.5 C 50.429688 75.148438 51.363281 74.863281 52.4375 75 C 54.753906 75.292969 58.457031 79.273438 55.9375 81.125 C 55.609375 81.367188 55.152344 81.386719 54.625 81.75 C 54.253906 82.003906 52.492188 82.976562 52.625 83.4375 C 52.832031 84.160156 60.046875 86.917969 61.1875 86.5 C 61.375 86.378906 60.742188 84.441406 60.625 84.25 C 60.625 84.25 59.625 82.1875 59.625 82.1875 C 58.078125 78.558594 65.125 78.277344 67.0625 78.875 C 67.1875 78.914062 67.058594 79.199219 67.1875 79.25 C 69.832031 80.332031 69.003906 81.117188 68.25 83.25 C 68.101562 83.671875 66.925781 86.1875 67.125 86.4375 C 70.421875 86.378906 73.742188 84.832031 76.5 83.0625 C 76.535156 82.839844 73.871094 81.503906 73.6875 81.5 C 73.472656 81.496094 73.105469 81.8125 72.875 81.875 C 72.875 81.875 73.375 81.4375 73.375 81.4375 C 68.238281 79.601562 76.675781 71.617188 78.75 74.8125 C 78.878906 75.011719 79.394531 76.292969 79.625 76.75 C 79.800781 77.09375 80.539062 79.339844 80.8125 79.375 C 81.121094 79.117188 81.355469 78.789062 81.625 78.5 C 82.96875 78.234375 85.355469 72.648438 85.6875 72.5 C 85.988281 72.363281 86.636719 72.636719 86.6875 72.625 C 86.785156 72.605469 86.898438 71.925781 87.1875 71.875 C 88.035156 71.730469 89.09375 72.472656 89.8125 72.75 C 90.28125 72.933594 90.777344 72.761719 91.3125 73.125 C 91.363281 73.160156 91.960938 73.96875 92 74.125 C 90.433594 73.023438 88.839844 72.722656 86.9375 72.625 C 85.527344 75.527344 83.839844 78.316406 81.5 80.5625 C 81.484375 80.699219 82.113281 81.425781 82.25 81.625 C 84.597656 84.972656 85.230469 83.507812 87.8125 84.875 C 89.921875 85.988281 90.195312 89.136719 88.75 90.875 C 87.027344 92.945312 83.046875 92.738281 82 90.0625 C 81.753906 89.433594 81.8125 88.460938 81.625 87.9375 C 81.050781 86.34375 79.113281 84.898438 77.8125 83.875 C 74.570312 86.117188 70.847656 87.519531 66.9375 88.125 C 66.558594 88.429688 66.660156 89.671875 66.625 90.125 C 66.28125 94.554688 68.195312 93.691406 68.625 96.0625 C 68.851562 97.316406 68.472656 98.71875 67.75 99.75 C 67.382812 99.949219 67.089844 100.476562 66.8125 100.625 C 63.183594 102.5625 59.023438 99.753906 60.375 95.6875 C 60.640625 94.894531 61.671875 94.058594 61.875 93.3125 C 62.285156 91.800781 61.730469 89.855469 61.75 88.3125 C 58.128906 87.484375 54.492188 86.570312 51.4375 84.375 C 48.390625 86.207031 50.640625 90.265625 47.8125 92.125 C 46.136719 93.226562 44.195312 92.851562 42.625 91.75 C 41.007812 90.132812 40.597656 87.25 42.4375 85.625 C 44.121094 84.140625 44.746094 84.839844 46.625 82.375 C 46.984375 81.90625 47.078125 81.753906 47.375 81.25 C 47.898438 80.359375 48.445312 79.570312 48.75 78.5625 C 48.914062 78.019531 49.46875 75.414062 49.125 75.1875 C 48.148438 76.140625 42.699219 73.421875 42.375 74.5625 C 42.265625 74.953125 45.464844 78.804688 45.75 79.5 C 44.234375 77.878906 42.980469 76.359375 41.9375 74.375 C 41.832031 74.34375 40.1875 74.679688 39.9375 74.75 C 36.460938 75.738281 36.191406 79.984375 31.75 77.25 C 30.21875 75.746094 30.257812 72.769531 32.1875 71.625 C 33.878906 70.621094 35.21875 71.597656 36.9375 71.375 C 37.351562 71.320312 40.167969 70.359375 40.25 70.0625 C 39.785156 68.519531 39.375 66.992188 39.25 65.375 C 39.25 65.375 40.5625 70 40.5625 70 C 40.890625 70.125 43.109375 67.546875 43.5 67.25 Z M 43.5 67.25 "/>
<path style=" stroke:none;fill-rule:nonzero;fill:rgb(98.431373%,98.823529%,98.823529%);fill-opacity:1;" d="M 94.6875 68.75 C 95.382812 68.625 96.863281 68.945312 97.4375 69.375 C 99.875 71.191406 98.460938 74.734375 95.8125 75.375 C 91.628906 76.386719 91.238281 69.363281 94.6875 68.75 Z M 94.6875 68.75 "/>
<path style=" stroke:none;fill-rule:nonzero;fill:rgb(87.058824%,89.019608%,92.156863%);fill-opacity:1;" d="M 81.625 78.5 C 81.355469 78.789062 81.121094 79.117188 80.8125 79.375 C 80.539062 79.339844 79.800781 77.09375 79.625 76.75 C 80.1875 76.320312 80.734375 75.644531 81.125 75.0625 C 81.382812 74.683594 82.097656 73.074219 82.1875 73 C 82.40625 72.820312 84.988281 72.640625 85.1875 72.75 C 84.28125 74.796875 83.167969 76.851562 81.625 78.5 Z M 81.625 78.5 "/>
<path style=" stroke:none;fill-rule:nonzero;fill:rgb(85.09804%,87.450981%,90.980393%);fill-opacity:1;" d="M 47.375 81.25 C 46.800781 80.703125 46.289062 80.078125 45.75 79.5 C 45.464844 78.804688 42.265625 74.953125 42.375 74.5625 C 42.699219 73.421875 48.148438 76.140625 49.125 75.1875 C 49.46875 75.414062 48.914062 78.019531 48.75 78.5625 C 48.445312 79.570312 47.898438 80.359375 47.375 81.25 Z M 47.375 81.25 "/>
<path style=" stroke:none;fill-rule:nonzero;fill:rgb(74.117649%,77.64706%,84.705883%);fill-opacity:1;" d="M 68.25 83.25 C 69.847656 82.996094 71.335938 82.277344 72.875 81.875 C 73.105469 81.8125 73.472656 81.496094 73.6875 81.5 C 73.871094 81.503906 76.535156 82.839844 76.5 83.0625 C 73.742188 84.832031 70.421875 86.378906 67.125 86.4375 C 66.925781 86.1875 68.101562 83.671875 68.25 83.25 Z M 68.25 83.25 "/>
<path style=" stroke:none;fill-rule:nonzero;fill:rgb(77.254903%,80.392158%,87.450981%);fill-opacity:1;" d="M 60.625 84.25 C 60.742188 84.441406 61.375 86.378906 61.1875 86.5 C 60.046875 86.917969 52.832031 84.160156 52.625 83.4375 C 52.492188 82.976562 54.253906 82.003906 54.625 81.75 C 55.367188 81.484375 55.996094 82.179688 56.5625 82.375 C 57.988281 82.871094 59.765625 82.8125 60.625 84.25 Z M 60.625 84.25 "/>
</g>
</svg>
