<?xml version="1.0" encoding="UTF-8"?>
<svg xmlns="http://www.w3.org/2000/svg" xmlns:xlink="http://www.w3.org/1999/xlink" width="128" height="128" viewBox="0 0 128 128" version="1.1">
<g id="surface1">
<path style=" stroke:none;fill-rule:nonzero;fill:rgb(99.215686%,98.823529%,98.823529%);fill-opacity:1;" d="M 56.5 66.75 C 56.53125 66.457031 56.652344 66.191406 56.5625 65.875 C 53.929688 65.449219 45.582031 63.78125 44.375 61.5625 C 43.570312 60.085938 46.050781 58.699219 45.875 57.25 C 46.488281 56.09375 48.644531 51.855469 48.75 50.8125 C 48.859375 49.742188 47.722656 46.59375 47.625 45.0625 C 46.101562 21.253906 81.703125 21.289062 80.125 45.1875 C 80.03125 46.609375 78.867188 49.757812 78.875 50.4375 C 78.882812 51.476562 82.03125 57.570312 82.75 58.8125 C 83.136719 59.480469 84.550781 61.015625 84.375 61.5625 C 83.460938 64.386719 74.003906 66.109375 71.375 66.8125 C 71.277344 68.050781 71.894531 69.054688 72.25 70.1875 C 72.25 70.1875 63.9375 86.625 63.9375 86.625 C 60.742188 81.292969 58.304688 75.542969 55.375 70.0625 C 56.039062 69.058594 56.371094 67.945312 56.5 66.75 Z M 56.5 66.75 "/>
<path style=" stroke:none;fill-rule:nonzero;fill:rgb(85.09804%,86.274511%,87.843138%);fill-opacity:1;" d="M 56.5 66.75 C 54.078125 66.152344 51.558594 65.785156 49.1875 65 C 47.929688 64.582031 43.210938 62.804688 43.375 61.1875 C 43.398438 60.957031 45.542969 57.878906 45.875 57.25 C 46.050781 58.699219 43.570312 60.085938 44.375 61.5625 C 45.582031 63.78125 53.929688 65.449219 56.5625 65.875 C 56.652344 66.191406 56.53125 66.457031 56.5 66.75 Z M 56.5 66.75 "/>
<path style=" stroke:none;fill-rule:nonzero;fill:rgb(91.37255%,92.156863%,92.156863%);fill-opacity:1;" d="M 70.625 81.125 C 71.214844 81.328125 69.71875 82.988281 69.75 83.3125 C 69.777344 83.589844 70.824219 84.121094 71.125 84.1875 C 68.632812 87.371094 66.621094 98.996094 61 93.1875 C 60.753906 92.023438 56.449219 85.011719 56.625 84.5625 C 56.65625 84.484375 57.898438 83.898438 58 83.5625 C 58 83.5625 52.6875 72.625 52.6875 72.625 C 52.179688 72.261719 49.84375 73.726562 49.1875 74 C 46.46875 75.140625 36.910156 78.210938 36.125 80.8125 C 35.921875 81.492188 36.933594 81.570312 37.375 82.0625 C 37.375 82.0625 35 90.6875 35 90.6875 C 40.152344 92.621094 46.132812 94.027344 51.6875 94.75 C 65.347656 96.53125 79.828125 95.433594 92.75 90.6875 C 92.835938 90.5 92.351562 87.628906 92.25 87.1875 C 92.097656 86.511719 90.851562 83.636719 90.875 83.4375 C 90.894531 83.265625 92.226562 82.398438 92.25 82.3125 C 92.5 81.40625 89.777344 78.691406 88.9375 78.25 C 88.9375 78.25 75 72.375 75 72.375 C 75.082031 72.269531 74.941406 71.953125 75.4375 72 C 75.847656 72.039062 80.648438 74.492188 81.5625 74.875 C 89.375 78.148438 92.058594 77.558594 94 86.9375 C 94.320312 88.480469 95.097656 91.117188 93.75 92.125 C 90.457031 94.585938 73.300781 96.449219 68.6875 96.625 C 57.191406 97.066406 44.703125 95.941406 33.875 92.125 C 32.742188 90.820312 33.421875 88.707031 33.75 87.0625 C 35.632812 77.570312 38.265625 78.167969 46.1875 74.875 C 48.296875 73.996094 50.363281 72.960938 52.4375 72 C 52.4375 72 52.75 72.1875 52.75 72.1875 C 54.054688 74.671875 62.023438 92.1875 63.3125 92.75 C 64.265625 93.164062 64.753906 92.527344 65.25 91.8125 C 67.085938 89.171875 69.074219 84.183594 70.625 81.125 Z M 70.625 81.125 "/>
<path style=" stroke:none;fill-rule:nonzero;fill:rgb(98.431373%,98.431373%,98.039216%);fill-opacity:1;" d="M 70.625 81.125 C 71.703125 79.003906 73.765625 73.949219 75 72.375 C 75 72.375 88.9375 78.25 88.9375 78.25 C 89.777344 78.691406 92.5 81.40625 92.25 82.3125 C 92.226562 82.398438 90.894531 83.265625 90.875 83.4375 C 90.851562 83.636719 92.097656 86.511719 92.25 87.1875 C 92.351562 87.628906 92.835938 90.5 92.75 90.6875 C 79.828125 95.433594 65.347656 96.53125 51.6875 94.75 C 46.132812 94.027344 40.152344 92.621094 35 90.6875 C 35 90.6875 37.375 82.0625 37.375 82.0625 C 36.933594 81.570312 35.921875 81.492188 36.125 80.8125 C 36.910156 78.210938 46.46875 75.140625 49.1875 74 C 49.84375 73.726562 52.179688 72.261719 52.6875 72.625 C 52.6875 72.625 58 83.5625 58 83.5625 C 57.898438 83.898438 56.65625 84.484375 56.625 84.5625 C 56.449219 85.011719 60.753906 92.023438 61 93.1875 C 66.621094 98.996094 68.632812 87.371094 71.125 84.1875 C 70.824219 84.121094 69.777344 83.589844 69.75 83.3125 C 69.71875 82.988281 71.214844 81.328125 70.625 81.125 Z M 70.625 81.125 "/>
<path style=" stroke:none;fill-rule:nonzero;fill:rgb(40.784314%,42.745098%,50.980395%);fill-opacity:1;" d="M 93.75 92.125 C 93.753906 92.25 93.742188 92.375 93.75 92.5 C 85.277344 95.671875 75.554688 96.796875 66.5 97 C 65.460938 97.023438 64.414062 97.003906 63.375 97 C 57.359375 96.972656 51.183594 96.523438 45.25 95.625 C 42.402344 94.710938 39.261719 94.476562 36.4375 93.5 C 35.472656 93.167969 34.503906 92.847656 33.875 92.125 C 44.703125 95.941406 57.191406 97.066406 68.6875 96.625 C 73.300781 96.449219 90.457031 94.585938 93.75 92.125 Z M 93.75 92.125 "/>
</g>
</svg>
