<?xml version="1.0" encoding="UTF-8"?>
<svg xmlns="http://www.w3.org/2000/svg" xmlns:xlink="http://www.w3.org/1999/xlink" width="128" height="128" viewBox="0 0 128 128" version="1.1">
<defs>
<linearGradient id="linear0" gradientUnits="userSpaceOnUse" x1="645.919983" y1="154.619995" x2="605.952026" y2="332.177002" gradientTransform="matrix(0.125,0,0,0.125,0,0)">
<stop offset="0" style="stop-color:rgb(99.215686%,99.607843%,100%);stop-opacity:1;"/>
<stop offset="1" style="stop-color:rgb(98.431373%,97.254902%,89.411765%);stop-opacity:1;"/>
</linearGradient>
<linearGradient id="linear1" gradientUnits="userSpaceOnUse" x1="497.688995" y1="266.285004" x2="526.406006" y2="813.531982" gradientTransform="matrix(0.125,0,0,0.125,0,0)">
<stop offset="0.430657" style="stop-color:rgb(99.215686%,99.215686%,100%);stop-opacity:1;"/>
<stop offset="1" style="stop-color:rgb(73.333335%,73.333335%,79.215688%);stop-opacity:1;"/>
</linearGradient>
</defs>
<g id="surface1">
<path style=" stroke:none;fill-rule:nonzero;fill:url(#linear0);" d="M 90 29 C 88.976562 32.050781 87.503906 34.921875 85.25 37.25 C 83.980469 38.007812 82.632812 39.503906 81 40.5 C 81.078125 40.105469 80.535156 40.453125 80.4375 40.5 C 79.601562 40.910156 78.816406 41.425781 77.9375 41.75 C 77.945312 41.453125 78 41.320312 78 41 C 78 40.957031 78 40.917969 78 40.875 C 78.035156 39.980469 78.28125 39.695312 78.375 39.0625 C 78.441406 38.59375 78.089844 38.027344 78.25 37.5625 C 78.261719 37.53125 78.710938 37.355469 78.75 37.1875 C 79.09375 35.675781 78.175781 32.667969 76.5625 35 C 76.5625 35 76.5 34.6875 76.5 34.6875 C 76.5 34.6875 87.625 24.3125 87.625 24.3125 C 87.625 24.3125 87.5625 24 87.5625 24 C 87.421875 23.925781 85.65625 26.117188 85.3125 26.25 C 84.753906 26.464844 85.113281 26.003906 84.9375 26 C 84.890625 26 84.8125 26.332031 84.75 26.375 C 84.414062 26.609375 83.871094 27.152344 83.6875 27.25 C 83.5625 27.316406 82.800781 27.074219 82.75 27.4375 C 82.75 27.4375 82.9375 27.625 82.9375 27.625 C 82.097656 28.402344 80.640625 29.003906 79.8125 29.625 C 77.15625 31.613281 74.984375 33.792969 72.5 35.875 C 70.640625 37.433594 68.714844 38.914062 66.875 40.5 C 65.894531 41.34375 64.851562 42.140625 64 43.125 C 63.601562 41.527344 64.667969 36.136719 65.25 34.4375 C 68.832031 24 82.425781 22.160156 91.6875 19.75 C 92.4375 20.046875 90.34375 27.96875 90 29 Z M 90 29 "/>
<path style=" stroke:none;fill-rule:nonzero;fill:rgb(98.823529%,98.823529%,87.058824%);fill-opacity:1;" d="M 78 40.875 C 77.113281 40.136719 78.152344 38.175781 78.125 37.1875 C 78.117188 36.890625 77.628906 35.125 77.1875 35.125 C 76.527344 35.125 73.691406 37.769531 75.875 37.6875 C 74.628906 37.890625 75.464844 38.25 75.375 38.9375 C 75.355469 39.09375 75.148438 38.78125 75.125 38.9375 C 74.984375 39.886719 74.933594 41.117188 75 42.0625 C 75 42.0625 75.5 40.0625 75.5 40.0625 C 75.589844 40.023438 75.75 40.59375 75.75 40.625 C 75.746094 40.917969 75.410156 41.378906 75.5 41.8125 C 75.667969 42.621094 76.847656 42.25 76.875 41.4375 C 76.898438 40.730469 76.410156 40.519531 75.75 40.625 C 76.695312 40.230469 76.671875 41.074219 76.875 39.8125 C 76.875 39.8125 76.875 40.5625 76.875 40.5625 C 77.726562 40.863281 77.21875 41.496094 77.1875 42.125 C 77.1875 42.125 78 41 78 41 C 78 41.320312 77.945312 41.453125 77.9375 41.75 C 78.816406 41.425781 79.601562 40.910156 80.4375 40.5 C 80.535156 40.453125 81.078125 40.105469 81 40.5 C 80.179688 41 79.640625 41.335938 78.75 41.75 C 73.566406 44.152344 70.691406 43.550781 65.625 44.625 C 65.625 44.625 65.375 44.5 65.375 44.5 C 69.242188 40.949219 73.15625 37.457031 77 33.875 C 78.9375 32.070312 81.328125 30.433594 82.875 28.25 C 82.875 28.25 84.75 26.375 84.75 26.375 C 84.8125 26.332031 84.890625 26 84.9375 26 C 85.113281 26.003906 84.753906 26.464844 85.3125 26.25 C 85.65625 26.117188 87.421875 23.925781 87.5625 24 C 87.5625 24 87.625 24.3125 87.625 24.3125 C 87.625 24.3125 76.5 34.6875 76.5 34.6875 C 76.5 34.6875 76.5625 35 76.5625 35 C 78.175781 32.667969 79.09375 35.675781 78.75 37.1875 C 78.710938 37.355469 78.261719 37.53125 78.25 37.5625 C 78.089844 38.027344 78.441406 38.59375 78.375 39.0625 C 78.28125 39.695312 78.035156 39.980469 78 40.875 Z M 74.0625 37.875 C 73.851562 37.917969 73.472656 38.566406 72.9375 38.25 C 72.9375 38.25 66.25 44.1875 66.25 44.1875 C 66.25 44.1875 74.6875 43.125 74.6875 43.125 C 74.863281 42.683594 74.378906 42.359375 74.375 42.3125 C 74.328125 41.753906 74.625 41.402344 74.625 41.3125 C 74.625 41.265625 74.375 41.109375 74.375 41.0625 C 74.375 41.027344 74.746094 40.480469 74.75 40.4375 C 74.753906 40.378906 74.339844 40.207031 74.5 39.4375 C 74.550781 39.1875 74.992188 38.933594 75 38.6875 C 75.003906 38.59375 74.78125 38.664062 74.75 38.5625 C 74.625 38.144531 75.050781 37.679688 74.0625 37.875 Z M 74.0625 37.875 "/>
<path style=" stroke:none;fill-rule:nonzero;fill:rgb(76.862746%,83.529413%,90.980393%);fill-opacity:1;" d="M 82.875 28.25 C 82.988281 28.089844 83.09375 27.9375 83.25 27.8125 C 82.683594 27.632812 82.746094 28.230469 82.5625 28.375 C 80.734375 29.804688 78.902344 31.203125 77.125 32.625 C 75.691406 33.769531 74.167969 34.835938 72.75 36 C 72.75 36 72.5 35.875 72.5 35.875 C 74.984375 33.792969 77.15625 31.613281 79.8125 29.625 C 80.640625 29.003906 82.097656 28.402344 82.9375 27.625 C 82.9375 27.625 82.75 27.4375 82.75 27.4375 C 82.800781 27.074219 83.5625 27.316406 83.6875 27.25 C 83.871094 27.152344 84.414062 26.609375 84.75 26.375 Z M 82.875 28.25 "/>
<path style=" stroke:none;fill-rule:nonzero;fill:rgb(32.156864%,34.901962%,32.156864%);fill-opacity:1;" d="M 85.75 37.25 C 85.746094 37.066406 85.273438 37.238281 85.25 37.25 C 87.503906 34.921875 88.976562 32.050781 90 29 C 90.4375 30.03125 89.195312 32.261719 88.625 33.3125 C 87.839844 34.761719 86.84375 36.042969 85.75 37.25 Z M 85.75 37.25 "/>
<path style=" stroke:none;fill-rule:nonzero;fill:url(#linear1);" d="M 59.625 39.875 C 62.1875 43.125 63.851562 46.976562 65.1875 50.875 C 74.4375 50.457031 83.03125 45.4375 90 54.25 C 93.980469 59.285156 93.363281 62.941406 94.625 68.5625 C 94.691406 68.863281 94.695312 69.210938 95.125 69 C 95.480469 79.847656 91.859375 91.390625 84.125 99.125 C 84.183594 99.019531 84.699219 98.066406 84.5625 98 C 83.109375 99.554688 81.476562 100.839844 79.625 101.875 C 78.902344 101.261719 78.207031 101.636719 77.4375 101.625 C 77.386719 101.625 77.046875 101.226562 76.4375 101.375 C 75.394531 101.625 76.121094 102.226562 76.0625 102.25 C 75.316406 102.535156 72.183594 102.390625 71.1875 102.375 C 69.78125 102.355469 69.371094 102.527344 67.8125 102 C 67.710938 101.964844 67.808594 101.59375 67.5625 101.5 C 67.386719 101.433594 64.25 101.464844 63.8125 101.5 C 62.484375 101.609375 60.378906 102.261719 59.0625 102.375 C 56.371094 102.320312 53.21875 102 50.5625 102.125 C 50.433594 102.132812 50.359375 102.492188 50.3125 102.5 C 49.929688 102.566406 47.972656 101.632812 47.5 101.375 C 46.734375 100.953125 46.113281 100.554688 45.4375 100 C 44.925781 99.578125 42.820312 97.117188 42.625 97.0625 C 42.183594 96.9375 42.519531 97.304688 42.25 97.375 C 35.515625 87.652344 32.277344 80.769531 32.75 68.375 C 32.855469 68.402344 33.242188 68.089844 33.25 68.0625 C 33.484375 67.28125 33.40625 64.652344 33.625 63.5 C 34.398438 59.441406 36.507812 54.964844 39.6875 52.25 C 46.703125 46.257812 54.148438 50.796875 62.125 50.9375 C 60.269531 45.625 56.511719 41.457031 52.1875 38 C 50.289062 36.484375 46.351562 35.390625 49.8125 32.75 C 49.953125 32.644531 50.871094 32.003906 50.9375 32 C 51.277344 31.976562 55.265625 35.363281 55.8125 35.875 C 57.003906 36.992188 58.628906 38.609375 59.625 39.875 Z M 73.9375 98.5 C 73.722656 98.539062 72.808594 99.078125 72.5 99.1875 C 72.539062 99.335938 75.316406 98.691406 74.9375 98.5 C 74.648438 98.730469 73.988281 98.492188 73.9375 98.5 Z M 73.9375 98.5 "/>
<path style=" stroke:none;fill-rule:nonzero;fill:rgb(99.215686%,99.607843%,72.156864%);fill-opacity:1;" d="M 78 40.875 C 78 40.917969 78 40.957031 78 41 C 78 41 77.1875 42.125 77.1875 42.125 C 77.21875 41.496094 77.726562 40.863281 76.875 40.5625 C 76.875 40.5625 76.875 39.8125 76.875 39.8125 C 76.671875 41.074219 76.695312 40.230469 75.75 40.625 C 75.75 40.59375 75.589844 40.023438 75.5 40.0625 C 75.5 40.0625 75 42.0625 75 42.0625 C 74.933594 41.117188 74.984375 39.886719 75.125 38.9375 C 75.148438 38.78125 75.355469 39.09375 75.375 38.9375 C 75.464844 38.25 74.628906 37.890625 75.875 37.6875 C 73.691406 37.769531 76.527344 35.125 77.1875 35.125 C 77.628906 35.125 78.117188 36.890625 78.125 37.1875 C 78.152344 38.175781 77.113281 40.136719 78 40.875 Z M 78 40.875 "/>
<path style=" stroke:none;fill-rule:nonzero;fill:rgb(70.588237%,72.941178%,52.941179%);fill-opacity:1;" d="M 72.75 36 C 70.773438 37.625 68.839844 39.351562 66.875 41 C 66.875 41 66.875 40.5 66.875 40.5 C 68.714844 38.914062 70.640625 37.433594 72.5 35.875 Z M 72.75 36 "/>
<path style=" stroke:none;fill-rule:nonzero;fill:rgb(49.411765%,52.156866%,24.705882%);fill-opacity:1;" d="M 85.75 37.25 C 83.644531 39.574219 81.949219 40.679688 79.125 42 C 79.125 42 78.75 41.75 78.75 41.75 C 79.640625 41.335938 80.179688 41 81 40.5 C 82.632812 39.503906 83.980469 38.007812 85.25 37.25 C 85.273438 37.238281 85.746094 37.066406 85.75 37.25 Z M 85.75 37.25 "/>
<path style=" stroke:none;fill-rule:nonzero;fill:rgb(99.215686%,98.823529%,92.156863%);fill-opacity:1;" d="M 74.0625 37.875 C 75.050781 37.679688 74.625 38.144531 74.75 38.5625 C 74.78125 38.664062 75.003906 38.59375 75 38.6875 C 74.992188 38.933594 74.550781 39.1875 74.5 39.4375 C 74.339844 40.207031 74.753906 40.378906 74.75 40.4375 C 74.746094 40.480469 74.375 41.027344 74.375 41.0625 C 74.375 41.109375 74.625 41.265625 74.625 41.3125 C 74.625 41.402344 74.328125 41.753906 74.375 42.3125 C 74.378906 42.359375 74.863281 42.683594 74.6875 43.125 C 74.6875 43.125 66.25 44.1875 66.25 44.1875 C 66.25 44.1875 72.9375 38.25 72.9375 38.25 C 73.472656 38.566406 73.851562 37.917969 74.0625 37.875 Z M 74.0625 37.875 "/>
<path style=" stroke:none;fill-rule:nonzero;fill:rgb(68.235296%,73.333335%,72.156864%);fill-opacity:1;" d="M 66.875 41 C 66.503906 41.3125 64.316406 43.5 64.0625 43.375 C 63.949219 43.316406 64.019531 43.207031 64 43.125 C 64.851562 42.140625 65.894531 41.34375 66.875 40.5 Z M 66.875 41 "/>
<path style=" stroke:none;fill-rule:nonzero;fill:rgb(99.215686%,100%,62.352943%);fill-opacity:1;" d="M 75.75 40.625 C 76.410156 40.519531 76.898438 40.730469 76.875 41.4375 C 76.847656 42.25 75.667969 42.621094 75.5 41.8125 C 75.410156 41.378906 75.746094 40.917969 75.75 40.625 Z M 75.75 40.625 "/>
<path style=" stroke:none;fill-rule:nonzero;fill:rgb(38.039216%,42.352942%,40.784314%);fill-opacity:1;" d="M 79.125 42 C 75.539062 43.679688 71.441406 44.742188 67.4375 44.875 C 67.003906 44.890625 65.390625 45.023438 65.25 44.625 C 65.371094 44.609375 65.507812 44.648438 65.625 44.625 C 70.691406 43.550781 73.566406 44.152344 78.75 41.75 Z M 79.125 42 "/>
<path style=" stroke:none;fill-rule:nonzero;fill:rgb(65.882355%,71.764708%,77.254903%);fill-opacity:1;" d="M 65.625 44.625 C 65.507812 44.648438 65.371094 44.609375 65.25 44.625 C 65.25 44.625 65.375 44.5 65.375 44.5 Z M 65.625 44.625 "/>
<path style=" stroke:none;fill-rule:nonzero;fill:rgb(57.254905%,61.176473%,58.039218%);fill-opacity:1;" d="M 92.125 56.75 C 94.175781 60.5 94.988281 64.761719 95.125 69 C 94.695312 69.210938 94.691406 68.863281 94.625 68.5625 C 93.363281 62.941406 93.980469 59.285156 90 54.25 C 91.042969 54.367188 91.675781 55.925781 92.125 56.75 Z M 92.125 56.75 "/>
<path style=" stroke:none;fill-rule:nonzero;fill:rgb(63.137257%,65.098041%,61.960787%);fill-opacity:1;" d="M 33.625 63.5 C 33.40625 64.652344 33.484375 67.28125 33.25 68.0625 C 33.242188 68.089844 32.855469 68.402344 32.75 68.375 C 32.789062 67.296875 32.925781 65.203125 33.125 64.1875 C 33.132812 64.144531 33.382812 63.339844 33.625 63.5 Z M 33.625 63.5 "/>
<path style=" stroke:none;fill-rule:nonzero;fill:rgb(96.078432%,96.862745%,97.647059%);fill-opacity:1;" d="M 73.9375 98.5 C 73.988281 98.492188 74.648438 98.730469 74.9375 98.5 C 75.316406 98.691406 72.539062 99.335938 72.5 99.1875 C 72.808594 99.078125 73.722656 98.539062 73.9375 98.5 Z M 73.9375 98.5 "/>
<path style=" stroke:none;fill-rule:nonzero;fill:rgb(66.274512%,66.274512%,72.156864%);fill-opacity:1;" d="M 79.625 101.875 C 71.519531 106.394531 69.679688 101.730469 62.5625 102.5 C 61.203125 102.648438 59.875 103.371094 58.5625 103.625 C 54.617188 104.382812 50.820312 103.613281 47.5 101.375 C 47.972656 101.632812 49.929688 102.566406 50.3125 102.5 C 50.359375 102.492188 50.433594 102.132812 50.5625 102.125 C 53.21875 102 56.371094 102.320312 59.0625 102.375 C 60.378906 102.261719 62.484375 101.609375 63.8125 101.5 C 64.25 101.464844 67.386719 101.433594 67.5625 101.5 C 67.808594 101.59375 67.710938 101.964844 67.8125 102 C 69.371094 102.527344 69.78125 102.355469 71.1875 102.375 C 72.183594 102.390625 75.316406 102.535156 76.0625 102.25 C 76.121094 102.226562 75.394531 101.625 76.4375 101.375 C 77.046875 101.226562 77.386719 101.625 77.4375 101.625 C 78.207031 101.636719 78.902344 101.261719 79.625 101.875 Z M 79.625 101.875 "/>
</g>
</svg>
