<?xml version="1.0" encoding="UTF-8"?>
<svg xmlns="http://www.w3.org/2000/svg" xmlns:xlink="http://www.w3.org/1999/xlink" width="128" height="128" viewBox="0 0 128 128" version="1.1">
<g id="surface1">
<path style=" stroke:none;fill-rule:nonzero;fill:rgb(98.039216%,98.431373%,98.431373%);fill-opacity:1;" d="M 74.875 90.75 C 73.550781 90.3125 71.679688 89.46875 70.375 88.875 C 68.15625 87.867188 66.042969 86.597656 63.9375 85.375 C 63.9375 85.375 57.25 88.6875 57.25 88.6875 C 59.089844 92.363281 62.074219 98.398438 66.75 94.25 C 67.070312 94.519531 68.121094 94.585938 68.1875 94.625 C 68.664062 94.898438 69.140625 95.925781 69.4375 96.125 C 69.542969 96.195312 71.703125 97.0625 71.625 96.375 C 71.6875 96.394531 71.792969 96.367188 71.875 96.375 C 64.605469 106.691406 55.984375 99.664062 52.4375 90.75 C 47.789062 92.445312 40.398438 93.535156 36.875 89.1875 C 33.632812 85.183594 34.800781 78.820312 36.25 74.3125 C 30.308594 71.601562 22.972656 66.21875 27.125 58.8125 C 28.386719 56.566406 30.75 54.96875 32.875 53.625 C 33.070312 53.605469 32.976562 53.855469 33 53.875 C 33 53.875 32.375 54.1875 32.375 54.1875 C 33.707031 55.277344 34.972656 56.597656 36.5 57.5 C 28.84375 62.285156 30.945312 65.863281 38.1875 69.25 C 38.609375 69.25 38.414062 69.148438 38.625 68.875 C 38.925781 69.976562 39.183594 68.914062 39.3125 68.875 C 39.683594 68.761719 39.640625 69.222656 39.8125 69.25 C 39.847656 69.253906 40.015625 68.90625 40.3125 69 C 40.371094 69.019531 41.121094 69.875 41.125 69.9375 C 41.125 69.972656 40.585938 70.226562 40.75 70.5625 C 40.765625 70.597656 41.335938 70.765625 41.4375 70.875 C 41.792969 71.257812 42.886719 72.558594 43.3125 72.375 C 43.792969 72.167969 43.371094 71.671875 43.375 71.625 C 43.730469 71.675781 44.835938 71.921875 45.0625 72.125 C 45.433594 72.460938 44.957031 72.390625 45 72.4375 C 46.03125 73.558594 47.0625 74.648438 48.25 75.625 C 48.183594 75.597656 48.042969 75.828125 47.8125 75.75 C 47.726562 75.722656 46.289062 74.058594 46.625 75.3125 C 46.691406 75.558594 48.171875 76.285156 48.4375 76.5 C 48.695312 76.707031 48.582031 76.914062 48.6875 77 C 48.722656 77.027344 49.527344 77.222656 49.5625 77.25 C 49.757812 77.402344 49.765625 78.199219 49.8125 78.25 C 50.183594 78.644531 51.582031 78.753906 51.6875 78.875 C 51.800781 79 51.515625 79.527344 51.625 79.8125 C 51.785156 80.226562 52.308594 80.007812 52.625 80.3125 C 52.671875 80.359375 53.027344 81.382812 53.1875 81.5 C 53.253906 81.546875 54.652344 82.011719 54.75 81.625 C 54.859375 81.972656 54.996094 82.582031 55.125 82.875 C 54.390625 83.03125 53.699219 82.070312 53.3125 81.875 C 53.117188 81.777344 52.925781 82.054688 52.8125 82 C 52.476562 81.839844 52.058594 81.160156 51.8125 81.125 C 51.628906 81.097656 51.359375 81.40625 51.1875 81.375 C 50.777344 81.300781 50.5 80.300781 50.3125 80.125 C 50.007812 79.839844 49.464844 80.109375 49.25 79.625 C 49.171875 79.355469 49.144531 78.847656 49.125 78.8125 C 48.867188 78.304688 45.757812 77.847656 44.9375 77.625 C 43.800781 77.316406 42.636719 76.867188 41.5625 76.375 C 40.519531 78.480469 39.699219 83.191406 41 85.1875 C 42.660156 87.738281 48.398438 86.644531 50.75 85.5625 C 50.414062 84.46875 50.015625 83.363281 49.75 82.25 C 50.152344 81.671875 50.085938 83.0625 50.3125 83.125 C 50.355469 83.136719 50.578125 82.757812 51.1875 82.875 C 51.308594 82.898438 53.285156 83.976562 53.375 84.0625 C 53.542969 84.226562 53.003906 85.058594 54.5 84.1875 C 54.714844 83.683594 53.1875 83.457031 53.9375 83.125 C 54.457031 82.898438 54.898438 83.597656 55.25 83.25 C 55.3125 83.363281 55.40625 83.441406 55.4375 83.625 C 55.753906 83.734375 58.910156 82.09375 58.875 81.8125 C 58.875 81.8125 53.75 77.75 53.75 77.75 C 53.042969 76.496094 50.859375 75.242188 50.125 74.4375 C 50.117188 74.425781 50.339844 74.285156 50.25 74.1875 C 48.371094 72.113281 46.703125 70.089844 45 67.875 C 44.621094 67.382812 44.25 66.871094 43.875 66.375 C 43.476562 65.847656 43.167969 65.28125 42.75 64.75 C 41.226562 62.019531 39.53125 59.367188 38.25 56.5 C 37.601562 55.046875 36.863281 53.253906 36.375 51.75 C 34.910156 47.234375 33.519531 41.160156 36.75 37.0625 C 40.433594 32.394531 47.640625 33.792969 52.5625 35.25 C 53.984375 32.117188 55.761719 28.507812 58.5625 26.375 C 66.195312 20.5625 72.375 28.882812 75.0625 35.375 C 79.582031 33.585938 87.089844 32.707031 90.625 36.8125 C 93.960938 40.6875 92.777344 47.261719 91.25 51.6875 C 94.273438 53.257812 97.84375 55.113281 99.875 57.9375 C 105.269531 65.445312 97.617188 71.71875 91.125 74.3125 C 92.78125 78.820312 93.9375 85.164062 90.625 89.1875 C 86.96875 93.632812 79.679688 92.335938 74.875 90.75 Z M 63.3125 30.25 C 60.859375 30.535156 58.375 35.167969 57.375 37.1875 C 57.375 37.1875 63.9375 40.375 63.9375 40.375 C 63.9375 40.375 70 37.0625 70 37.0625 C 68.820312 34.726562 66.425781 29.890625 63.3125 30.25 Z M 49.5 44.875 C 50.308594 44.558594 50.300781 45.140625 50.8125 45.25 C 51.625 45.421875 53.09375 45.132812 53.8125 45.25 C 53.878906 45.261719 54.152344 45.667969 54.5 45.5 C 54.460938 45.726562 54.234375 46.828125 54.5625 46.875 C 54.5625 46.875 58.5 43.8125 58.5 43.8125 C 57.539062 43.242188 56.515625 42.714844 55.5 42.25 C 53.949219 41.539062 52.378906 41.003906 50.75 40.5 C 48.550781 39.820312 46.460938 39 44.0625 39.25 C 38.902344 39.789062 40.011719 46.179688 41.4375 49.5 C 41.4375 49.5 48.8125 47.625 48.8125 47.625 C 49.132812 47.425781 49.378906 45.359375 49.5 44.875 Z M 81.6875 39.25 C 81.125 39.277344 77.003906 40.089844 76.875 40.4375 C 76.875 40.4375 78.5 47.4375 78.5 47.4375 C 78.5 47.4375 86.1875 49.5 86.1875 49.5 C 87.835938 44.640625 88.640625 38.921875 81.6875 39.25 Z M 71.9375 42.125 C 71.9375 42.125 69.125 43.6875 69.125 43.6875 C 69.125 43.6875 73.1875 47 73.1875 47 Z M 55 53.875 C 54.382812 54.5625 53.859375 55.351562 53.125 55.9375 C 53.125 55.9375 53.125 69.4375 53.125 69.4375 C 53.21875 69.777344 57.847656 74.28125 58.1875 74.375 C 60.726562 75.058594 66.667969 73.859375 69.5625 74.375 C 69.5625 74.375 74.5 69.3125 74.5 69.3125 C 74.5 69.3125 74.375 55.9375 74.375 55.9375 C 73.488281 54.992188 70.625 51.4375 69.625 51.25 C 68.667969 50.160156 67.152344 48.835938 65.9375 48 C 65.4375 47.65625 63.832031 46.527344 63.4375 46.625 C 63.078125 46.710938 58.238281 50.5625 57.5625 51.125 C 57.164062 51.457031 55.144531 53.214844 54.9375 53.5 C 54.6875 53.847656 54.769531 53.59375 55 53.875 Z M 48.4375 52.875 C 48.4375 52.875 43.375 54.4375 43.375 54.4375 C 43.375 54.4375 44.9375 57.5 44.9375 57.5 Z M 79.0625 52.875 C 79.0625 52.875 82.6875 57.625 82.6875 57.625 C 82.6875 57.625 84.25 54.5625 84.25 54.5625 Z M 89.3125 56.5 C 89.3125 56.5 85.875 62.8125 85.875 62.8125 C 85.875 62.8125 89.4375 69.25 89.4375 69.25 C 93.484375 67.078125 98.925781 64.054688 93.8125 59.375 C 92.550781 58.21875 90.757812 57.40625 89.3125 56.5 Z M 82.5625 68 C 82.5625 68 78.5625 73.125 78.5625 73.125 C 78.5625 73.125 84.25 71.4375 84.25 71.4375 Z M 85.125 76.75 C 82.945312 77.445312 80.753906 77.972656 78.5 78.4375 C 78.5 78.4375 76.875 85.3125 76.875 85.3125 C 76.902344 85.808594 79.199219 86.410156 79.6875 86.5 C 88.347656 88.105469 87.976562 82.921875 86.125 76.5 C 85.980469 76 84.777344 72.320312 84.5625 72.25 C 83.796875 71.996094 84.488281 73.125 84.5 73.1875 C 84.546875 73.492188 84.445312 73.898438 84.5 74.1875 C 84.527344 74.332031 85 74.839844 85 74.9375 C 85.003906 75.234375 84.523438 75.273438 84.625 75.8125 C 84.632812 75.863281 85.1875 76.359375 85.125 76.75 Z M 73.1875 78.375 C 73.1875 78.375 68.75 81.8125 68.75 81.8125 C 68.75 81.8125 71.9375 83.5 71.9375 83.5 Z M 73.1875 78.375 "/>
<path style=" stroke:none;fill-rule:nonzero;fill:rgb(63.137257%,64.313728%,66.274512%);fill-opacity:1;" d="M 55.5 42.25 C 55.117188 42.472656 55.082031 43.011719 55 43.375 C 54.492188 43.394531 54.964844 43.964844 54.5625 44.25 C 54.203125 44.503906 53.101562 44.207031 52.6875 44.125 C 52.601562 44.109375 52.703125 44.410156 52.4375 44.375 C 52.113281 44.332031 51.851562 43.769531 51.8125 43.75 C 51.253906 43.476562 49.945312 43.316406 50.125 42.625 C 50.304688 41.925781 50.289062 41.035156 50.75 40.5 C 52.378906 41.003906 53.949219 41.539062 55.5 42.25 Z M 55.5 42.25 "/>
<path style=" stroke:none;fill-rule:nonzero;fill:rgb(80.000001%,80.784315%,82.352942%);fill-opacity:1;" d="M 55 43.375 C 54.863281 43.992188 54.574219 45.078125 54.5 45.5 C 54.152344 45.667969 53.878906 45.261719 53.8125 45.25 C 53.09375 45.132812 51.625 45.421875 50.8125 45.25 C 50.300781 45.140625 50.308594 44.558594 49.5 44.875 C 49.691406 44.121094 49.929688 43.375 50.125 42.625 C 49.945312 43.316406 51.253906 43.476562 51.8125 43.75 C 51.851562 43.769531 52.113281 44.332031 52.4375 44.375 C 52.703125 44.410156 52.601562 44.109375 52.6875 44.125 C 53.101562 44.207031 54.203125 44.503906 54.5625 44.25 C 54.964844 43.964844 54.492188 43.394531 55 43.375 Z M 55 43.375 "/>
<path style=" stroke:none;fill-rule:nonzero;fill:rgb(89.803922%,90.588236%,91.37255%);fill-opacity:1;" d="M 69.625 51.25 C 66.085938 50.585938 61.332031 51.496094 57.6875 51.25 C 56.878906 52.191406 55.824219 52.960938 55 53.875 C 54.769531 53.59375 54.6875 53.847656 54.9375 53.5 C 55.144531 53.214844 57.164062 51.457031 57.5625 51.125 C 58.238281 50.5625 63.078125 46.710938 63.4375 46.625 C 63.832031 46.527344 65.4375 47.65625 65.9375 48 C 67.152344 48.835938 68.667969 50.160156 69.625 51.25 Z M 69.625 51.25 "/>
<path style=" stroke:none;fill-rule:nonzero;fill:rgb(41.960785%,42.745098%,43.137255%);fill-opacity:1;" d="M 36.375 51.75 C 36.863281 53.253906 37.601562 55.046875 38.25 56.5 C 37.898438 56.734375 37.480469 56.910156 37.125 57.125 C 37.28125 56.722656 34.976562 54.296875 34.8125 54.375 C 34.625 54.464844 34.941406 55.121094 34.5625 55.125 C 34.070312 54.691406 33.496094 54.296875 33 53.875 C 32.976562 53.855469 33.070312 53.605469 32.875 53.625 C 33.972656 52.933594 35.113281 52.121094 36.375 51.75 Z M 36.375 51.75 "/>
<path style=" stroke:none;fill-rule:nonzero;fill:rgb(49.411765%,50.196081%,50.980395%);fill-opacity:1;" d="M 33 53.875 C 33.496094 54.296875 34.070312 54.691406 34.5625 55.125 C 34.941406 55.121094 34.625 54.464844 34.8125 54.375 C 34.976562 54.296875 37.28125 56.722656 37.125 57.125 C 36.917969 57.25 36.703125 57.375 36.5 57.5 C 34.972656 56.597656 33.707031 55.277344 32.375 54.1875 Z M 33 53.875 "/>
<path style=" stroke:none;fill-rule:nonzero;fill:rgb(99.607843%,99.607843%,99.607843%);fill-opacity:1;" d="M 62.5625 56.75 C 72.214844 55.449219 72.175781 70.164062 62.6875 68.875 C 56.015625 67.96875 56.167969 57.613281 62.5625 56.75 Z M 62.5625 56.75 "/>
<path style=" stroke:none;fill-rule:nonzero;fill:rgb(43.529412%,43.921569%,43.921569%);fill-opacity:1;" d="M 42.75 64.75 C 43.167969 65.28125 43.476562 65.847656 43.875 66.375 C 43.875 66.375 43.0625 66.875 43.0625 66.875 C 42.957031 66.695312 42.625 65.421875 42.5625 65.375 C 42.445312 65.289062 42.328125 65.570312 42.1875 65.5 C 41.667969 65.246094 41.164062 64.960938 40.625 64.75 C 40.914062 64.242188 41.136719 63.636719 41.4375 63.125 C 41.542969 63.089844 42.578125 64.53125 42.75 64.75 Z M 42.75 64.75 "/>
<path style=" stroke:none;fill-rule:nonzero;fill:rgb(58.823532%,59.215689%,59.215689%);fill-opacity:1;" d="M 43.875 66.375 C 44.25 66.871094 44.621094 67.382812 45 67.875 C 44.367188 68.308594 44.023438 69.113281 43.75 69.875 C 43.570312 69.015625 42.644531 68.65625 41.9375 68.125 C 41.648438 67.910156 41.523438 67.433594 41.4375 67.375 C 41.257812 67.253906 39.835938 67.222656 39.75 66.5 C 40.054688 65.910156 40.292969 65.335938 40.625 64.75 C 41.164062 64.960938 41.667969 65.246094 42.1875 65.5 C 42.328125 65.570312 42.445312 65.289062 42.5625 65.375 C 42.625 65.421875 42.957031 66.695312 43.0625 66.875 Z M 43.875 66.375 "/>
<path style=" stroke:none;fill-rule:nonzero;fill:rgb(75.294119%,75.686276%,76.862746%);fill-opacity:1;" d="M 43.75 69.875 C 43.453125 70.699219 43.417969 70.738281 43.375 71.625 C 43.371094 71.671875 43.792969 72.167969 43.3125 72.375 C 42.886719 72.558594 41.792969 71.257812 41.4375 70.875 C 41.335938 70.765625 40.765625 70.597656 40.75 70.5625 C 40.585938 70.226562 41.125 69.972656 41.125 69.9375 C 41.121094 69.875 40.371094 69.019531 40.3125 69 C 40.015625 68.90625 39.847656 69.253906 39.8125 69.25 C 39.640625 69.222656 39.683594 68.761719 39.3125 68.875 C 39.183594 68.914062 38.925781 69.976562 38.625 68.875 C 38.851562 68.578125 39.476562 67.035156 39.75 66.5 C 39.835938 67.222656 41.257812 67.253906 41.4375 67.375 C 41.523438 67.433594 41.648438 67.910156 41.9375 68.125 C 42.644531 68.65625 43.570312 69.015625 43.75 69.875 Z M 43.75 69.875 "/>
<path style=" stroke:none;fill-rule:nonzero;fill:rgb(38.431373%,38.82353%,39.607844%);fill-opacity:1;" d="M 53.75 77.75 C 53.835938 77.898438 53.941406 78.089844 54 78.25 C 53.4375 78.382812 51.660156 78.132812 51.5 77.5625 C 51.386719 77.160156 51.753906 76.828125 51.6875 76.75 C 51.464844 76.484375 50.863281 76.832031 50.5625 76.75 C 50.132812 76.632812 48.988281 75.914062 48.25 75.625 C 47.0625 74.648438 46.03125 73.558594 45 72.4375 C 44.957031 72.390625 45.433594 72.460938 45.0625 72.125 C 44.835938 71.921875 43.730469 71.675781 43.375 71.625 C 43.417969 70.738281 43.453125 70.699219 43.75 69.875 C 44.023438 69.113281 44.367188 68.308594 45 67.875 C 46.703125 70.089844 48.371094 72.113281 50.25 74.1875 C 50.339844 74.285156 50.117188 74.425781 50.125 74.4375 C 50.859375 75.242188 53.042969 76.496094 53.75 77.75 Z M 53.75 77.75 "/>
<path style=" stroke:none;fill-rule:nonzero;fill:rgb(81.176472%,81.960785%,83.529413%);fill-opacity:1;" d="M 86.125 76.5 C 85.84375 76.683594 85.417969 76.65625 85.125 76.75 C 85.1875 76.359375 84.632812 75.863281 84.625 75.8125 C 84.523438 75.273438 85.003906 75.234375 85 74.9375 C 85 74.839844 84.527344 74.332031 84.5 74.1875 C 84.445312 73.898438 84.546875 73.492188 84.5 73.1875 C 84.488281 73.125 83.796875 71.996094 84.5625 72.25 C 84.777344 72.320312 85.980469 76 86.125 76.5 Z M 86.125 76.5 "/>
<path style=" stroke:none;fill-rule:nonzero;fill:rgb(57.647061%,58.039218%,59.215689%);fill-opacity:1;" d="M 48.25 75.625 C 48.988281 75.914062 50.132812 76.632812 50.5625 76.75 C 50.863281 76.832031 51.464844 76.484375 51.6875 76.75 C 51.753906 76.828125 51.386719 77.160156 51.5 77.5625 C 51.660156 78.132812 53.4375 78.382812 54 78.25 C 54.25 78.929688 54.441406 80.652344 54.75 81.625 C 54.652344 82.011719 53.253906 81.546875 53.1875 81.5 C 53.027344 81.382812 52.671875 80.359375 52.625 80.3125 C 52.308594 80.007812 51.785156 80.226562 51.625 79.8125 C 51.515625 79.527344 51.800781 79 51.6875 78.875 C 51.582031 78.753906 50.183594 78.644531 49.8125 78.25 C 49.765625 78.199219 49.757812 77.402344 49.5625 77.25 C 49.527344 77.222656 48.722656 77.027344 48.6875 77 C 48.582031 76.914062 48.695312 76.707031 48.4375 76.5 C 48.171875 76.285156 46.691406 75.558594 46.625 75.3125 C 46.289062 74.058594 47.726562 75.722656 47.8125 75.75 C 48.042969 75.828125 48.183594 75.597656 48.25 75.625 Z M 48.25 75.625 "/>
<path style=" stroke:none;fill-rule:nonzero;fill:rgb(79.215688%,79.607844%,80.784315%);fill-opacity:1;" d="M 55.125 82.875 C 55.199219 83.046875 55.238281 83.234375 55.25 83.25 C 54.898438 83.597656 54.457031 82.898438 53.9375 83.125 C 53.1875 83.457031 54.714844 83.683594 54.5 84.1875 C 53.003906 85.058594 53.542969 84.226562 53.375 84.0625 C 53.285156 83.976562 51.308594 82.898438 51.1875 82.875 C 50.578125 82.757812 50.355469 83.136719 50.3125 83.125 C 50.085938 83.0625 50.152344 81.671875 49.75 82.25 C 49.554688 81.433594 49.46875 80.398438 49.25 79.625 C 49.464844 80.109375 50.007812 79.839844 50.3125 80.125 C 50.5 80.300781 50.777344 81.300781 51.1875 81.375 C 51.359375 81.40625 51.628906 81.097656 51.8125 81.125 C 52.058594 81.160156 52.476562 81.839844 52.8125 82 C 52.925781 82.054688 53.117188 81.777344 53.3125 81.875 C 53.699219 82.070312 54.390625 83.03125 55.125 82.875 Z M 55.125 82.875 "/>
<path style=" stroke:none;fill-rule:nonzero;fill:rgb(56.078434%,57.254905%,58.431375%);fill-opacity:1;" d="M 74.875 90.75 C 74.15625 91.824219 73.5625 94.285156 72.625 95.125 C 72.488281 95.246094 72.296875 95.335938 72.1875 95.5 C 71.375 94.652344 69.882812 92.386719 68.625 92.75 C 68.625 92.75 68.25 92.5 68.25 92.5 C 69.078125 91.378906 69.671875 90.074219 70.375 88.875 C 71.679688 89.46875 73.550781 90.3125 74.875 90.75 Z M 74.875 90.75 "/>
<path style=" stroke:none;fill-rule:nonzero;fill:rgb(81.568629%,82.745099%,83.92157%);fill-opacity:1;" d="M 68.625 92.75 C 68.578125 92.761719 67.996094 93.230469 67.875 93.3125 C 69.1875 94.269531 69.988281 95.890625 71.625 96.375 C 71.703125 97.0625 69.542969 96.195312 69.4375 96.125 C 69.140625 95.925781 68.664062 94.898438 68.1875 94.625 C 68.121094 94.585938 67.070312 94.519531 66.75 94.25 C 67.285156 93.777344 67.824219 93.078125 68.25 92.5 Z M 68.625 92.75 "/>
<path style=" stroke:none;fill-rule:nonzero;fill:rgb(71.372551%,72.549021%,74.117649%);fill-opacity:1;" d="M 72.625 95.125 C 72.476562 95.5625 72.140625 95.996094 71.875 96.375 C 71.792969 96.367188 71.6875 96.394531 71.625 96.375 C 69.988281 95.890625 69.1875 94.269531 67.875 93.3125 C 67.996094 93.230469 68.578125 92.761719 68.625 92.75 C 69.882812 92.386719 71.375 94.652344 72.1875 95.5 C 72.296875 95.335938 72.488281 95.246094 72.625 95.125 Z M 72.625 95.125 "/>
</g>
</svg>
