<?xml version="1.0" encoding="UTF-8"?>
<svg xmlns="http://www.w3.org/2000/svg" xmlns:xlink="http://www.w3.org/1999/xlink" width="128" height="128" viewBox="0 0 128 128" version="1.1">
<g id="surface1">
<path style=" stroke:none;fill-rule:nonzero;fill:rgb(98.823529%,98.823529%,98.823529%);fill-opacity:1;" d="M 21.375 52.75 C 20.78125 51.65625 18.328125 46.621094 18.5 45.6875 C 18.519531 45.585938 18.824219 45.203125 18.9375 45.125 C 26.691406 43.164062 35.507812 42.15625 42.125 37.4375 C 42.148438 37.265625 40.242188 35.316406 40 35 C 39.707031 34.3125 39.242188 33.867188 39.625 33.0625 C 42.339844 31.089844 44.78125 28.640625 47.6875 27 C 48.933594 26.433594 50.601562 29.625 51.0625 29.75 C 51.898438 29.976562 53.894531 26.882812 55.4375 27.125 C 55.925781 27.203125 56.742188 28.195312 57.125 28.5625 C 58.449219 29.828125 64.019531 35.582031 64.75 36.8125 C 65.488281 38.058594 64.683594 38.378906 63.8125 39.25 C 58.203125 44.863281 49.90625 49.257812 47.25 57.1875 C 45.882812 61.265625 45.96875 65.691406 46.375 69.9375 C 46.082031 71.324219 43.65625 70.390625 42.6875 70.125 C 33.8125 67.691406 25.722656 60.761719 21.375 52.75 Z M 55.0625 27.625 C 51.019531 30.628906 47.160156 33.882812 43.1875 37 C 38.835938 40.414062 37.003906 41.167969 31.5625 42.75 C 27.484375 43.9375 23.230469 44.597656 19.125 45.6875 C 21.914062 55.609375 29.699219 64.261719 39.1875 68.25 C 39.964844 68.574219 45.433594 70.652344 45.75 69.9375 C 45.617188 66.726562 45.46875 63.503906 45.875 60.3125 C 47.527344 49.777344 57.71875 44.683594 64.5 37.6875 Z M 55.0625 27.625 "/>
<path style=" stroke:none;fill-rule:nonzero;fill:rgb(81.960785%,82.352942%,83.92157%);fill-opacity:1;" d="M 55.0625 27.625 C 55.0625 27.625 64.5 37.6875 64.5 37.6875 C 57.71875 44.683594 47.527344 49.777344 45.875 60.3125 C 45.46875 63.503906 45.617188 66.726562 45.75 69.9375 C 45.433594 70.652344 39.964844 68.574219 39.1875 68.25 C 29.699219 64.261719 21.914062 55.609375 19.125 45.6875 C 23.230469 44.597656 27.484375 43.9375 31.5625 42.75 C 37.003906 41.167969 38.835938 40.414062 43.1875 37 C 47.160156 33.882812 51.019531 30.628906 55.0625 27.625 Z M 55.0625 27.625 "/>
<path style=" stroke:none;fill-rule:nonzero;fill:rgb(98.823529%,98.823529%,98.823529%);fill-opacity:1;" d="M 99.125 84.5 C 98.867188 84.28125 98.34375 83.914062 98.0625 84.125 C 98.0625 84.125 76.625 63.0625 76.625 63.0625 C 72.964844 60.136719 72.640625 53.949219 70.625 50.6875 C 70.324219 50.203125 63.171875 43.035156 62.6875 42.75 C 62.589844 42.691406 62.398438 42.679688 62.3125 42.5 C 62.3125 42.5 54.125 49.6875 54.125 49.6875 C 55.238281 51.144531 56.449219 52.53125 57.625 53.9375 C 58.097656 54.503906 58.339844 54.628906 58.75 55.1875 C 59.109375 55.679688 59.980469 56.210938 59.375 56.75 C 58.605469 55.847656 53.4375 50.363281 53.5 49.8125 C 54.519531 48.863281 61.726562 41.964844 62.3125 41.875 C 62.535156 41.839844 62.746094 42.019531 62.9375 42.125 C 63.457031 42.410156 70.949219 50.050781 71.25 50.5625 C 73.171875 53.816406 73.46875 59.769531 77 62.6875 Z M 99.125 84.5 "/>
<path style=" stroke:none;fill-rule:nonzero;fill:rgb(97.254902%,96.862745%,98.039216%);fill-opacity:1;" d="M 99.125 84.5 C 100.082031 85.324219 104.59375 89.402344 105 90.1875 C 105.53125 91.21875 104.457031 93.207031 103.875 94.1875 C 102.96875 95.71875 98.976562 99.785156 97.3125 100.125 C 95.472656 100.5 94.089844 96.988281 93.125 95.6875 C 83.15625 82.226562 70.320312 69.632812 59.375 56.75 C 59.980469 56.210938 59.109375 55.679688 58.75 55.1875 C 58.339844 54.628906 58.097656 54.503906 57.625 53.9375 C 56.449219 52.53125 55.238281 51.144531 54.125 49.6875 C 54.125 49.6875 62.3125 42.5 62.3125 42.5 C 62.398438 42.679688 62.589844 42.691406 62.6875 42.75 C 63.171875 43.035156 70.324219 50.203125 70.625 50.6875 C 72.640625 53.949219 72.964844 60.136719 76.625 63.0625 C 76.625 63.0625 98.0625 84.125 98.0625 84.125 C 98.34375 83.914062 98.867188 84.28125 99.125 84.5 Z M 99.125 84.5 "/>
</g>
</svg>
