<?xml version="1.0" encoding="UTF-8"?>
<svg xmlns="http://www.w3.org/2000/svg" xmlns:xlink="http://www.w3.org/1999/xlink" width="128" height="128" viewBox="0 0 128 128" version="1.1">
<g id="surface1">
<path style=" stroke:none;fill-rule:nonzero;fill:rgb(99.215686%,99.215686%,99.607843%);fill-opacity:1;" d="M 61.625 79.25 C 47.539062 72.070312 34.9375 49.011719 42.875 33.75 C 50.941406 18.238281 72.082031 16.199219 82.625 30.3125 C 92.710938 43.8125 85.308594 60.265625 75.5 71.4375 C 72.546875 74.800781 68.867188 78.507812 64.5 79.8125 C 64.5 79.8125 65.625 81.0625 65.625 81.0625 C 65.625 81.0625 64.875 81.5625 64.875 81.5625 C 65.78125 82.417969 66.273438 83.609375 66.875 84.6875 C 66.070312 85.382812 65.265625 85.207031 64.5 85.3125 C 64.5 85.3125 64.375 107.5625 64.375 107.5625 C 64.375 107.5625 63.25 108.1875 63.25 108.1875 C 63.25 108.1875 63.25 85.4375 63.25 85.4375 C 63.25 85.4375 60.75 84.6875 60.75 84.6875 C 60.675781 84.398438 62.585938 81.933594 62.625 81.6875 C 62.667969 81.40625 61.859375 81.722656 61.75 81.3125 C 61.933594 81.101562 62.925781 79.984375 62.875 79.8125 C 62.824219 79.644531 61.84375 79.359375 61.625 79.25 Z M 70.875 22.875 C 71.210938 23.066406 70.796875 23.8125 70.5625 23.875 C 70.390625 23.921875 69.097656 22.984375 68.625 23.3125 C 70.371094 23.820312 72.027344 25.246094 73.25 26.5625 C 77.832031 31.484375 80.53125 37.722656 79.875 44.5625 C 79.5 48.488281 75.890625 53.582031 72.4375 55.125 C 72.246094 55.210938 69.832031 55.097656 69.375 55.3125 C 69.375 55.3125 70 55.4375 70 55.4375 C 69.203125 58.074219 69.34375 60.824219 69.375 63.5625 C 68.992188 63.476562 67.851562 63.996094 67.6875 64 C 67.644531 64 67.484375 63.75 67.4375 63.75 C 65.125 63.742188 62.773438 63.222656 60.4375 63 C 60.4375 63 60 55.8125 60 55.8125 C 59.875 55.5 58.261719 55.667969 58.0625 55.625 C 53.761719 54.699219 50.671875 53.269531 48.125 49.5625 C 44.445312 44.214844 45.027344 37.769531 47.5625 32 C 47.070312 32.398438 46.886719 33.550781 46.625 33.9375 C 46.515625 34.101562 46.363281 33.652344 46.25 33.8125 C 45.855469 34.378906 45.628906 35.113281 45.25 35.6875 C 45.140625 35.851562 44.425781 36.164062 44.25 36.5625 C 43.578125 38.066406 44.023438 42.144531 43.5 43.4375 C 43.382812 43.726562 42.59375 44.109375 42.5 44.4375 C 42.3125 45.09375 42.71875 48.945312 42.875 49.8125 C 43.304688 52.15625 44.652344 55.566406 45.625 57.875 C 46.199219 59.234375 46.839844 60.441406 47.5 61.75 C 50.054688 66.800781 53 71.417969 57.5 75 C 60.445312 77.34375 63.9375 78.160156 67.5 76.625 C 69.28125 75.859375 74.378906 70.902344 75.75 69.1875 C 77.714844 66.730469 79.097656 63.800781 80.5 61 C 83.613281 54.789062 86.828125 47.066406 84.75 39.9375 C 84.640625 39.558594 84.273438 39.632812 84.25 39.5625 C 84.113281 39.132812 84.046875 38.585938 83.875 38.125 C 83.875 38.125 84.375 37.9375 84.375 37.9375 C 82.527344 32.542969 80.089844 28.597656 75.375 25.25 C 74.871094 24.894531 71.226562 22.195312 70.875 22.875 Z M 70.875 22.875 "/>
<path style=" stroke:none;fill-rule:nonzero;fill:rgb(80.000001%,77.254903%,76.078433%);fill-opacity:1;" d="M 75.375 25.25 C 75.175781 25.519531 75.34375 25.503906 75.5 25.6875 C 79.425781 30.332031 81.617188 32.050781 83.875 38.125 C 84.046875 38.585938 84.113281 39.132812 84.25 39.5625 C 84.273438 39.632812 84.640625 39.558594 84.75 39.9375 C 86.828125 47.066406 83.613281 54.789062 80.5 61 C 80.5 61 79.375 60.1875 79.375 60.1875 C 80.171875 58.519531 80.984375 56.582031 81.5 54.8125 C 81.582031 54.523438 82.007812 53.199219 81.625 53 C 83.796875 45.738281 83.191406 38.371094 79.375 31.6875 C 77.273438 28.003906 74.292969 25.296875 70.875 22.875 C 71.226562 22.195312 74.871094 24.894531 75.375 25.25 Z M 75.375 25.25 "/>
<path style=" stroke:none;fill-rule:nonzero;fill:rgb(90.196079%,90.196079%,93.333334%);fill-opacity:1;" d="M 81.625 53 C 81.269531 54.195312 80.683594 55.148438 80.25 56.25 C 79.472656 56.972656 79.066406 58.027344 78.375 58.8125 C 71.246094 66.910156 64.226562 67.867188 54.1875 63.875 C 50.703125 62.488281 48.085938 60.6875 45.625 57.875 C 44.652344 55.566406 43.304688 52.15625 42.875 49.8125 C 42.71875 48.945312 42.3125 45.09375 42.5 44.4375 C 42.59375 44.109375 43.382812 43.726562 43.5 43.4375 C 44.023438 42.144531 43.578125 38.066406 44.25 36.5625 C 44.425781 36.164062 45.140625 35.851562 45.25 35.6875 C 45.628906 35.113281 45.855469 34.378906 46.25 33.8125 C 46.363281 33.652344 46.515625 34.101562 46.625 33.9375 C 46.886719 33.550781 47.070312 32.398438 47.5625 32 C 45.027344 37.769531 44.445312 44.214844 48.125 49.5625 C 50.671875 53.269531 53.761719 54.699219 58.0625 55.625 C 58.261719 55.667969 59.875 55.5 60 55.8125 C 60 55.8125 60.4375 63 60.4375 63 C 62.773438 63.222656 65.125 63.742188 67.4375 63.75 C 67.484375 63.75 67.644531 64 67.6875 64 C 67.851562 63.996094 68.992188 63.476562 69.375 63.5625 C 69.34375 60.824219 69.203125 58.074219 70 55.4375 C 70 55.4375 69.375 55.3125 69.375 55.3125 C 69.832031 55.097656 72.246094 55.210938 72.4375 55.125 C 75.890625 53.582031 79.5 48.488281 79.875 44.5625 C 80.53125 37.722656 77.832031 31.484375 73.25 26.5625 C 72.027344 25.246094 70.371094 23.820312 68.625 23.3125 C 69.097656 22.984375 70.390625 23.921875 70.5625 23.875 C 70.796875 23.8125 71.210938 23.066406 70.875 22.875 C 74.292969 25.296875 77.273438 28.003906 79.375 31.6875 C 83.191406 38.371094 83.796875 45.738281 81.625 53 Z M 81.625 53 "/>
<path style=" stroke:none;fill-rule:nonzero;fill:rgb(91.764706%,89.803922%,88.627452%);fill-opacity:1;" d="M 83.875 38.125 C 81.617188 32.050781 79.425781 30.332031 75.5 25.6875 C 75.34375 25.503906 75.175781 25.519531 75.375 25.25 C 80.089844 28.597656 82.527344 32.542969 84.375 37.9375 Z M 83.875 38.125 "/>
<path style=" stroke:none;fill-rule:nonzero;fill:rgb(67.843139%,69.01961%,73.333335%);fill-opacity:1;" d="M 80.5 61 C 79.097656 63.800781 77.714844 66.730469 75.75 69.1875 C 74.378906 70.902344 69.28125 75.859375 67.5 76.625 C 67.546875 75.953125 67.453125 76.421875 67.25 76.4375 C 64.042969 76.679688 62.714844 76.957031 59.5625 75.75 C 58.953125 75.515625 58.054688 74.554688 57.5 75 C 53 71.417969 50.054688 66.800781 47.5 61.75 C 47.5 61.75 52.4375 67 52.4375 67 C 64.257812 76.539062 75.5 68.292969 80.25 56.25 C 80.683594 55.148438 81.269531 54.195312 81.625 53 C 82.007812 53.199219 81.582031 54.523438 81.5 54.8125 C 80.984375 56.582031 80.171875 58.519531 79.375 60.1875 Z M 75.1875 67.75 C 71.707031 70.902344 66.859375 73.910156 61.8125 73.5 C 60.550781 73.398438 59.089844 72.722656 57.8125 72.5 C 57.289062 73.800781 58.25 73.332031 58.3125 73.375 C 58.609375 73.574219 58.945312 74.070312 59.3125 74.25 C 63.554688 76.332031 68.277344 74.578125 71.9375 71.75 C 73.152344 70.808594 74.160156 68.894531 75.5 67.9375 Z M 75.1875 67.75 "/>
<path style=" stroke:none;fill-rule:nonzero;fill:rgb(72.156864%,74.117649%,80.000001%);fill-opacity:1;" d="M 47.5 61.75 C 46.839844 60.441406 46.199219 59.234375 45.625 57.875 C 48.085938 60.6875 50.703125 62.488281 54.1875 63.875 C 64.226562 67.867188 71.246094 66.910156 78.375 58.8125 C 79.066406 58.027344 79.472656 56.972656 80.25 56.25 C 75.5 68.292969 64.257812 76.539062 52.4375 67 Z M 47.5 61.75 "/>
<path style=" stroke:none;fill-rule:nonzero;fill:rgb(57.254905%,58.431375%,61.176473%);fill-opacity:1;" d="M 75.1875 67.75 C 75.1875 67.75 75.5 67.9375 75.5 67.9375 C 74.160156 68.894531 73.152344 70.808594 71.9375 71.75 C 68.277344 74.578125 63.554688 76.332031 59.3125 74.25 C 58.945312 74.070312 58.609375 73.574219 58.3125 73.375 C 58.25 73.332031 57.289062 73.800781 57.8125 72.5 C 59.089844 72.722656 60.550781 73.398438 61.8125 73.5 C 66.859375 73.910156 71.707031 70.902344 75.1875 67.75 Z M 75.1875 67.75 "/>
<path style=" stroke:none;fill-rule:nonzero;fill:rgb(76.078433%,76.47059%,78.039217%);fill-opacity:1;" d="M 67.5 76.625 C 63.9375 78.160156 60.445312 77.34375 57.5 75 C 58.054688 74.554688 58.953125 75.515625 59.5625 75.75 C 62.714844 76.957031 64.042969 76.679688 67.25 76.4375 C 67.453125 76.421875 67.546875 75.953125 67.5 76.625 Z M 67.5 76.625 "/>
</g>
</svg>
