<?xml version="1.0" encoding="UTF-8"?>
<svg xmlns="http://www.w3.org/2000/svg" xmlns:xlink="http://www.w3.org/1999/xlink" width="128" height="128" viewBox="0 0 128 128" version="1.1">
<defs>
<linearGradient id="linear0" gradientUnits="userSpaceOnUse" x1="487.580994" y1="195.035995" x2="558.02301" y2="813.033997" gradientTransform="matrix(0.125,0,0,0.125,0,0)">
<stop offset="0.377814" style="stop-color:rgb(98.823529%,99.215686%,99.215686%);stop-opacity:1;"/>
<stop offset="1" style="stop-color:rgb(70.980394%,73.333335%,79.215688%);stop-opacity:1;"/>
</linearGradient>
</defs>
<g id="surface1">
<path style=" stroke:none;fill-rule:nonzero;fill:rgb(16.862746%,15.294118%,15.686275%);fill-opacity:1;" d="M 127.75 -0.125 C 127.75 -0.125 127.875 -0.125 127.875 -0.125 C 127.875 -0.125 127.875 127.875 127.875 127.875 C 127.875 127.875 127.75 127.875 127.75 127.875 Z M 127.75 -0.125 "/>
<path style=" stroke:none;fill-rule:nonzero;fill:url(#linear0);" d="M 75 62.625 C 75.519531 64.054688 76.382812 65.359375 77 66.75 C 79.058594 72.46875 79.78125 78.894531 78 84.8125 C 77.84375 85.332031 77.273438 85.753906 77.25 85.8125 C 77.234375 85.851562 77.5 86.4375 77.375 86.6875 C 76.824219 87.804688 76.308594 87.011719 76.25 87.0625 C 76.105469 87.191406 75.023438 90.136719 74.75 90.625 C 74.40625 91.234375 72.15625 94.089844 72.125 94.3125 C 72.121094 94.351562 72.605469 94.679688 72.4375 95 C 72.625 94.75 72.910156 94.585938 73.125 94.375 C 62.945312 106.957031 43.683594 108.414062 31.3125 98 C 30.695312 97.480469 29.921875 96.160156 29.125 96.375 C 24.875 91.574219 22.742188 86.699219 22.25 80.25 C 20.382812 55.738281 45.675781 41.210938 66.4375 53.375 C 66.4375 53.375 85.5 36.6875 85.5 36.6875 C 86.050781 36.085938 85.957031 35.03125 86.25 34.4375 C 86.441406 34.046875 87.625 32.796875 87.625 32.6875 C 87.625 32.578125 86.171875 31.125 86.0625 31.125 C 85.984375 31.125 85.589844 31.800781 84.6875 31.625 C 82.03125 31.105469 83.945312 25.976562 86.8125 27.5 C 88.398438 28.34375 87.105469 29.691406 87.125 29.9375 C 87.132812 30.046875 88.515625 31.25 88.6875 31.5 C 88.6875 31.5 91.625 28.6875 91.625 28.6875 C 91.636719 28.558594 90.175781 27.019531 90.0625 27 C 89.695312 26.933594 88.523438 28.074219 87.75 26.6875 C 86.636719 24.691406 89.296875 22.304688 91.0625 23.5 C 92.507812 24.476562 91.210938 25.636719 91.25 25.9375 C 91.261719 26.042969 92.707031 27.375 92.8125 27.375 C 93.023438 27.375 95.75 24.523438 95.75 24.3125 C 95.75 24.210938 94.414062 22.886719 94.3125 22.875 C 94.121094 22.855469 92.367188 24.257812 91.75 22.3125 C 90.925781 19.710938 94.734375 18.070312 95.5 19.8125 C 95.898438 20.714844 95.335938 21.398438 95.375 21.6875 C 95.390625 21.800781 96.648438 22.886719 96.8125 23.125 C 97.15625 23.160156 98.691406 21.113281 99.0625 21.125 C 99.175781 21.128906 100.347656 22.0625 101.0625 22.125 C 102.066406 22.214844 103.5625 21.375 104.0625 21.5 C 104.222656 21.539062 106.351562 23.652344 106.375 23.8125 C 106.402344 23.996094 105.523438 25.363281 105.625 26.4375 C 105.679688 27.003906 106.523438 28.167969 106.5 28.4375 C 106.46875 28.785156 104.789062 30.167969 104.5 30.5625 C 104.730469 30.726562 105.835938 31.988281 105.9375 32 C 106.085938 32.015625 107.863281 30.632812 108.25 32.5625 C 108.890625 35.773438 103.925781 36.960938 104.125 33.6875 C 104.128906 33.652344 104.535156 33.300781 104.5 33.0625 C 104.480469 32.945312 103.34375 31.980469 103.1875 31.75 C 103.1875 31.75 100.375 34.6875 100.375 34.6875 C 100.625 34.863281 101.824219 36.234375 101.9375 36.25 C 102.066406 36.265625 103.496094 35.042969 104.125 36.5625 C 104.953125 38.558594 102.253906 40.78125 100.5625 39.5 C 99.308594 38.546875 100.507812 37.492188 100.5 37.3125 C 100.496094 37.210938 99.234375 36.09375 99.0625 35.875 C 99.0625 35.875 96.125 38.6875 96.125 38.6875 C 96.113281 38.8125 97.6875 40.488281 97.8125 40.5 C 97.941406 40.515625 99.371094 39.257812 100 40.6875 C 100.773438 42.441406 98.359375 44.734375 96.5625 43.625 C 95.335938 42.867188 96.40625 41.691406 96.375 41.4375 C 96.363281 41.332031 95.089844 40.140625 94.9375 39.875 C 94.042969 40.855469 93.144531 41.605469 91.8125 41.875 C 91.8125 41.875 74.125 61.1875 74.125 61.1875 C 74.472656 61.636719 74.726562 62.132812 75 62.625 Z M 49 68 C 47.832031 69.316406 47.328125 70.980469 47.375 72.75 C 47.621094 81.96875 61.632812 82.292969 62.5 73.625 C 62.714844 71.46875 62.210938 69.449219 60.75 67.875 C 58 63.992188 51.679688 64.050781 49 68 Z M 36.5625 74.5 C 36.316406 74.539062 32.890625 77.550781 33.75 78.1875 C 33.75 78.1875 48.3125 92.625 48.3125 92.625 C 48.574219 92.738281 49.050781 92.824219 49.3125 92.75 C 49.53125 92.6875 52.523438 90.011719 52 89.3125 C 50.0625 87.894531 37.617188 74.328125 36.5625 74.5 Z M 48.375 93.375 C 50.171875 93.660156 50.429688 92.332031 51.625 91.3125 C 50.351562 91.851562 49.9375 93.46875 48.375 93.375 C 48.375 93.375 33.5 78.8125 33.5 78.8125 C 33.5 78.8125 33.5 79.4375 33.5 79.4375 C 33.5 79.4375 47.1875 93.25 47.1875 93.25 C 47.625 92.78125 47.828125 93.289062 48.375 93.375 Z M 24.8125 88.625 C 24.785156 89.738281 27.925781 94.75 28.6875 94.75 C 30.050781 94.75 27.855469 92.597656 27.75 92.4375 C 27.398438 91.894531 27.027344 90.753906 26.625 90.3125 C 26.449219 90.117188 26.296875 90.464844 26.1875 90.375 C 26.074219 90.28125 25.886719 89.644531 25.8125 89.625 C 25.558594 89.558594 25.691406 89.941406 25.4375 89.875 C 25.371094 89.859375 24.9375 88.785156 24.8125 88.625 Z M 24.8125 88.625 "/>
<path style=" stroke:none;fill-rule:nonzero;fill:rgb(98.431373%,98.823529%,99.215686%);fill-opacity:1;" d="M 77 66.75 C 76.382812 65.359375 75.519531 64.054688 75 62.625 C 75.910156 64.265625 76.355469 64.957031 77 66.75 Z M 77 66.75 "/>
<path style=" stroke:none;fill-rule:nonzero;fill:rgb(98.039216%,98.431373%,98.431373%);fill-opacity:1;" d="M 76.125 90.625 C 75.683594 91.515625 75.152344 92.410156 74.625 93.25 C 64.097656 108.582031 41.613281 110.476562 29.125 96.375 C 29.921875 96.160156 30.695312 97.480469 31.3125 98 C 43.683594 108.414062 62.945312 106.957031 73.125 94.375 C 73.710938 93.808594 76.691406 89.15625 76.625 88.6875 C 76.585938 88.40625 76.441406 88.449219 76.25 88.5625 C 76.085938 89.128906 75.523438 91.207031 74.75 90.625 C 75.023438 90.136719 76.105469 87.191406 76.25 87.0625 C 76.308594 87.011719 76.824219 87.804688 77.375 86.6875 C 77.5 86.4375 77.234375 85.851562 77.25 85.8125 C 77.273438 85.753906 77.84375 85.332031 78 84.8125 C 79.78125 78.894531 79.058594 72.46875 77 66.75 C 80.402344 74.402344 79.816406 83.152344 76.125 90.625 Z M 76.125 90.625 "/>
<path style=" stroke:none;fill-rule:nonzero;fill:rgb(77.64706%,80.000001%,82.352942%);fill-opacity:1;" d="M 48.375 93.375 C 47.828125 93.289062 47.625 92.78125 47.1875 93.25 C 47.1875 93.25 33.5 79.4375 33.5 79.4375 C 33.5 79.4375 33.5 78.8125 33.5 78.8125 Z M 48.375 93.375 "/>
<path style=" stroke:none;fill-rule:nonzero;fill:rgb(25.098041%,24.313726%,25.098041%);fill-opacity:1;" d="M 22.25 80.25 C 22.742188 86.699219 24.875 91.574219 29.125 96.375 C 41.613281 110.476562 64.097656 108.582031 74.625 93.25 C 73.722656 94.6875 72.8125 95.871094 71.75 97.1875 C 71.355469 97.675781 70.0625 98.527344 69.875 98.8125 C 69.847656 98.855469 69.777344 99.769531 69.75 99.8125 C 69.695312 99.894531 68.75 100.949219 68.6875 101 C 68.664062 101.019531 68.253906 100.859375 68.0625 101 C 62.023438 105.460938 57.898438 107.703125 50.0625 107.875 C 41.183594 108.070312 36.664062 104.902344 30.5625 99.375 C 29.933594 98.804688 29.628906 98.300781 29 97.6875 C 28.796875 97.488281 28.035156 97.578125 27.8125 96.75 C 27.8125 96.75 27.5 97.0625 27.5 97.0625 C 28.941406 99.082031 30.464844 101.289062 32.25 103 C 32.511719 104.117188 34.402344 105.476562 35.375 106.125 C 35.375 106.125 35.125 106.1875 35.125 106.1875 C 35.320312 106.296875 35.480469 106.503906 35.625 106.625 C 35.421875 106.945312 35.308594 106.792969 35.0625 106.625 C 29.046875 102.5 25.515625 96.867188 23.375 90.0625 C 23.28125 89.761719 23.292969 89.402344 22.875 89.5 C 22.652344 88.578125 22.386719 88.742188 22.375 88.6875 C 22.226562 87.878906 21.601562 80.46875 21.75 80.0625 C 21.773438 79.996094 21.917969 79.859375 21.9375 79.75 Z M 22.25 80.25 "/>
<path style=" stroke:none;fill-rule:nonzero;fill:rgb(78.431374%,81.568629%,84.705883%);fill-opacity:1;" d="M 73.125 94.375 C 72.910156 94.585938 72.625 94.75 72.4375 95 C 72.605469 94.679688 72.121094 94.351562 72.125 94.3125 C 72.15625 94.089844 74.40625 91.234375 74.75 90.625 C 75.523438 91.207031 76.085938 89.128906 76.25 88.5625 C 76.441406 88.449219 76.585938 88.40625 76.625 88.6875 C 76.691406 89.15625 73.710938 93.808594 73.125 94.375 Z M 73.125 94.375 "/>
<path style=" stroke:none;fill-rule:nonzero;fill:rgb(83.137256%,86.666667%,88.627452%);fill-opacity:1;" d="M 24.8125 88.625 C 24.9375 88.785156 25.371094 89.859375 25.4375 89.875 C 25.691406 89.941406 25.558594 89.558594 25.8125 89.625 C 25.886719 89.644531 26.074219 90.28125 26.1875 90.375 C 26.296875 90.464844 26.449219 90.117188 26.625 90.3125 C 27.027344 90.753906 27.398438 91.894531 27.75 92.4375 C 27.855469 92.597656 30.050781 94.75 28.6875 94.75 C 27.925781 94.75 24.785156 89.738281 24.8125 88.625 Z M 24.8125 88.625 "/>
<path style=" stroke:none;fill-rule:nonzero;fill:rgb(10.588235%,10.588235%,13.333334%);fill-opacity:1;" d="M 35.625 106.625 C 43.691406 113.480469 59.261719 110.472656 67.25 104.75 C 67.464844 105.0625 67.015625 105.484375 66.8125 105.625 C 65.410156 106.59375 61 108.613281 59.3125 109.25 C 42.941406 115.421875 26.863281 106.132812 22.875 89.5 C 23.292969 89.402344 23.28125 89.761719 23.375 90.0625 C 25.515625 96.867188 29.046875 102.5 35.0625 106.625 C 35.308594 106.792969 35.421875 106.945312 35.625 106.625 Z M 35.625 106.625 "/>
<path style=" stroke:none;fill-rule:nonzero;fill:rgb(32.156864%,32.156864%,33.333334%);fill-opacity:1;" d="M 69.75 101.125 C 59.578125 110.335938 42.851562 113.140625 32.25 103 C 30.464844 101.289062 28.941406 99.082031 27.5 97.0625 C 27.5 97.0625 27.8125 96.75 27.8125 96.75 C 28.035156 97.578125 28.796875 97.488281 29 97.6875 C 29.628906 98.300781 29.933594 98.804688 30.5625 99.375 C 36.664062 104.902344 41.183594 108.070312 50.0625 107.875 C 57.898438 107.703125 62.023438 105.460938 68.0625 101 C 68.253906 100.859375 68.664062 101.019531 68.6875 101 C 68.75 100.949219 69.695312 99.894531 69.75 99.8125 C 69.777344 99.769531 69.847656 98.855469 69.875 98.8125 C 70.0625 98.527344 71.355469 97.675781 71.75 97.1875 C 72.8125 95.871094 73.722656 94.6875 74.625 93.25 C 75.152344 92.410156 75.683594 91.515625 76.125 90.625 C 77.125 90.789062 76.503906 91.015625 76.5 91.0625 C 76.359375 92.625 76.042969 91.996094 75.75 92.6875 C 75.582031 93.085938 75.074219 95.070312 75 95.1875 C 74.832031 95.449219 74.320312 95.375 74.125 95.6875 C 73.3125 96.972656 72.957031 98.5625 71.625 99.4375 C 71.113281 98.988281 71.398438 99.664062 71.375 99.6875 C 70.867188 100.1875 70.28125 100.644531 69.75 101.125 Z M 69.75 101.125 "/>
<path style=" stroke:none;fill-rule:nonzero;fill:rgb(77.64706%,80.000001%,82.352942%);fill-opacity:1;" d="M 48.375 93.375 C 49.9375 93.46875 50.351562 91.851562 51.625 91.3125 C 50.429688 92.332031 50.171875 93.660156 48.375 93.375 Z M 48.375 93.375 "/>
<path style=" stroke:none;fill-rule:nonzero;fill:rgb(17.254902%,18.039216%,21.176471%);fill-opacity:1;" d="M 67.25 104.75 C 59.261719 110.472656 43.691406 113.480469 35.625 106.625 C 35.480469 106.503906 35.320312 106.296875 35.125 106.1875 C 35.125 106.1875 35.375 106.125 35.375 106.125 C 46.964844 113.847656 60.726562 109.5 70.5 101 C 70.722656 100.804688 71.945312 99.511719 71.6875 100.375 C 71.597656 100.675781 67.734375 104.402344 67.25 104.75 Z M 67.25 104.75 "/>
<path style=" stroke:none;fill-rule:nonzero;fill:rgb(25.490198%,26.274511%,29.019609%);fill-opacity:1;" d="M 70.5 101 C 60.726562 109.5 46.964844 113.847656 35.375 106.125 C 34.402344 105.476562 32.511719 104.117188 32.25 103 C 42.851562 113.140625 59.578125 110.335938 69.75 101.125 Z M 70.5 101 "/>
</g>
</svg>
