<?xml version="1.0" encoding="UTF-8"?>
<svg xmlns="http://www.w3.org/2000/svg" xmlns:xlink="http://www.w3.org/1999/xlink" width="128" height="128" viewBox="0 0 128 128" version="1.1">
<g id="surface1">
<path style=" stroke:none;fill-rule:nonzero;fill:rgb(98.823529%,98.431373%,98.431373%);fill-opacity:1;" d="M 97.875 54.125 C 97.035156 54.625 98.589844 56.441406 99 57.125 C 98.484375 56.832031 98.300781 57.5625 98.0625 57.625 C 97.109375 57.875 96.097656 57.304688 95.3125 57.125 C 94.933594 57.269531 95.523438 57.9375 95.625 58.125 C 95.625 58.125 95.25 58.375 95.25 58.375 C 93.277344 55.378906 88.496094 46.542969 86.5 44.625 C 85.90625 43.75 85.386719 42.492188 84.75 41.6875 C 83.132812 39.644531 68.589844 31.355469 65.4375 29.75 C 65.023438 29.539062 64.089844 28.945312 63.6875 29 C 63.6875 29 44.0625 40.625 44.0625 40.625 C 40.894531 44.308594 38.488281 48.847656 35.875 53 C 35.503906 52.957031 35.597656 52.757812 35.25 53.0625 C 34.734375 53.515625 32.507812 57.425781 31.875 58.375 C 30.628906 58.320312 29.265625 59.121094 28.125 58.25 C 28.582031 57.464844 31.769531 52.539062 31.75 52.1875 C 31.738281 51.976562 31.308594 51.863281 31.125 52 C 34.117188 46.949219 37.023438 41.761719 40.4375 37 C 47.539062 33.472656 54.832031 27.601562 61.9375 24.375 C 62.796875 23.984375 63.4375 23.597656 64.4375 23.75 C 64.4375 23.75 87.0625 36.875 87.0625 36.875 C 91.03125 42.3125 94.402344 48.320312 97.875 54.125 Z M 97.875 54.125 "/>
<path style=" stroke:none;fill-rule:nonzero;fill:rgb(99.215686%,99.215686%,99.215686%);fill-opacity:1;" d="M 82.625 42.25 C 85.09375 45.605469 87.144531 49.238281 89.375 52.75 C 89.03125 52.746094 89.191406 53.433594 89.25 53.5625 C 90.386719 56.136719 93.15625 58.992188 94.5 61.5625 C 94.5 61.5625 94.5 100.8125 94.5 100.8125 C 94.214844 101.601562 93.863281 102.148438 93.0625 102.5 C 93.0625 102.5 34.5625 102.375 34.5625 102.375 C 33.324219 101.578125 33.34375 100.261719 33.25 98.9375 C 32.378906 86.847656 33.910156 73.753906 33.25 61.5625 C 33.25 61.5625 36.375 56.8125 36.375 56.8125 C 36.375 56.8125 35.75 56.625 35.75 56.625 C 38.929688 51.574219 42.089844 46.394531 45.8125 41.75 C 45.8125 41.75 63.9375 31.25 63.9375 31.25 Z M 58.6875 45 C 58.6875 45 58.25 45.1875 58.25 45.1875 C 58.25 45.1875 58.25 57.4375 58.25 57.4375 C 58.25 57.4375 69.4375 57.5 69.4375 57.5 C 69.4375 57.5 69.375 45.1875 69.375 45.1875 Z M 52.1875 75.875 C 52.1875 75.875 51.625 76.4375 51.625 76.4375 C 51.625 76.4375 63.8125 87.25 63.8125 87.25 C 65.195312 86.078125 75.847656 77.367188 75.875 76.5625 C 75.886719 76.242188 75.765625 76.195312 75.5625 76 Z M 50.5 78.625 C 50.15625 85.242188 50.585938 91.882812 50.25 98.5 C 50.242188 98.671875 49.941406 99.320312 50.5625 99.25 C 50.5625 99.25 62.625 88.6875 62.625 88.6875 C 62.625 88.6875 51.0625 78.25 51.0625 78.25 Z M 77.1875 78.75 C 77.1875 78.75 66.25 88.4375 66.25 88.4375 C 66.25 88.4375 77.4375 98.625 77.4375 98.625 C 77.4375 98.625 77.625 78.9375 77.625 78.9375 Z M 63.9375 90.625 C 63.9375 90.625 52.5 100.5625 52.5 100.5625 C 52.5 100.5625 75.0625 100.625 75.0625 100.625 Z M 63.9375 90.625 "/>
<path style=" stroke:none;fill-rule:nonzero;fill:rgb(74.117649%,74.117649%,75.294119%);fill-opacity:1;" d="M 28.125 58.25 C 27.4375 59.433594 25.167969 62.035156 26.25 63.3125 C 28.214844 65.628906 31.003906 59.683594 31.875 58.375 C 32.507812 57.425781 34.734375 53.515625 35.25 53.0625 C 35.597656 52.757812 35.503906 52.957031 35.875 53 C 34.808594 54.691406 29.621094 63.683594 28.5625 64.25 C 28.222656 64.429688 27.761719 64.511719 27.375 64.5 C 26.097656 64.464844 25.101562 63.214844 25.25 61.9375 C 25.339844 61.148438 30.300781 53.390625 31.125 52 C 31.308594 51.863281 31.738281 51.976562 31.75 52.1875 C 31.769531 52.539062 28.582031 57.464844 28.125 58.25 Z M 28.125 58.25 "/>
<path style=" stroke:none;fill-rule:nonzero;fill:rgb(67.843139%,67.843139%,69.803923%);fill-opacity:1;" d="M 89.375 52.75 C 91.203125 55.628906 93.296875 58.351562 95 61.3125 C 95 61.3125 95 101.1875 95 101.1875 C 94.679688 102.042969 94.203125 102.679688 93.3125 103 C 73.613281 102.910156 53.886719 103.183594 34.1875 102.875 C 33.527344 102.453125 33.152344 101.917969 32.875 101.1875 C 32.957031 90.707031 32.820312 80.226562 32.75 69.75 C 32.730469 66.984375 32.714844 64.203125 32.625 61.4375 C 33.5 59.730469 34.734375 58.238281 35.75 56.625 C 35.75 56.625 36.375 56.8125 36.375 56.8125 C 36.375 56.8125 33.25 61.5625 33.25 61.5625 C 33.910156 73.753906 32.378906 86.847656 33.25 98.9375 C 33.34375 100.261719 33.324219 101.578125 34.5625 102.375 C 34.5625 102.375 93.0625 102.5 93.0625 102.5 C 93.863281 102.148438 94.214844 101.601562 94.5 100.8125 C 94.5 100.8125 94.5 61.5625 94.5 61.5625 C 93.15625 58.992188 90.386719 56.136719 89.25 53.5625 C 89.191406 53.433594 89.03125 52.746094 89.375 52.75 Z M 89.375 52.75 "/>
<path style=" stroke:none;fill-rule:nonzero;fill:rgb(74.117649%,74.117649%,74.901962%);fill-opacity:1;" d="M 95.25 58.375 C 95.25 58.375 95.625 58.125 95.625 58.125 C 95.980469 58.777344 99.121094 63.484375 99.4375 63.625 C 100.789062 64.21875 102.167969 63.175781 101.875 61.6875 C 101.765625 61.132812 99.488281 57.941406 99 57.125 C 98.589844 56.441406 97.035156 54.625 97.875 54.125 C 98.773438 55.625 102 60.058594 102.375 61.3125 C 102.933594 63.175781 101.480469 64.8125 99.5625 64.375 C 98.449219 64.121094 95.988281 59.5 95.25 58.375 Z M 95.25 58.375 "/>
<path style=" stroke:none;fill-rule:nonzero;fill:rgb(80.000001%,79.215688%,80.000001%);fill-opacity:1;" d="M 99 57.125 C 99.488281 57.941406 101.765625 61.132812 101.875 61.6875 C 102.167969 63.175781 100.789062 64.21875 99.4375 63.625 C 99.121094 63.484375 95.980469 58.777344 95.625 58.125 C 95.523438 57.9375 94.933594 57.269531 95.3125 57.125 C 96.097656 57.304688 97.109375 57.875 98.0625 57.625 C 98.300781 57.5625 98.484375 56.832031 99 57.125 Z M 99 57.125 "/>
<path style=" stroke:none;fill-rule:nonzero;fill:rgb(78.039217%,77.64706%,78.431374%);fill-opacity:1;" d="M 31.875 58.375 C 31.003906 59.683594 28.214844 65.628906 26.25 63.3125 C 25.167969 62.035156 27.4375 59.433594 28.125 58.25 C 29.265625 59.121094 30.628906 58.320312 31.875 58.375 Z M 31.875 58.375 "/>
<path style=" stroke:none;fill-rule:nonzero;fill:rgb(72.156864%,72.941178%,74.117649%);fill-opacity:1;" d="M 52.1875 75.875 C 52.1875 75.875 75.5625 76 75.5625 76 C 75.765625 76.195312 75.886719 76.242188 75.875 76.5625 C 75.847656 77.367188 65.195312 86.078125 63.8125 87.25 C 63.8125 87.25 51.625 76.4375 51.625 76.4375 Z M 52.6875 76.5 C 52.6875 76.5 63.9375 86.5 63.9375 86.5 C 63.9375 86.5 75.125 76.5625 75.125 76.5625 Z M 52.6875 76.5 "/>
<path style=" stroke:none;fill-rule:nonzero;fill:rgb(72.941178%,73.333335%,74.901962%);fill-opacity:1;" d="M 50.25 98.5 C 50.25 98.5 61.75 88.4375 61.75 88.4375 C 61.75 88.4375 50.5 78.625 50.5 78.625 C 50.5 78.625 51.0625 78.25 51.0625 78.25 C 51.0625 78.25 62.625 88.6875 62.625 88.6875 C 62.625 88.6875 50.5625 99.25 50.5625 99.25 C 49.941406 99.320312 50.242188 98.671875 50.25 98.5 Z M 50.25 98.5 "/>
</g>
</svg>
