<?xml version="1.0" encoding="UTF-8"?>
<svg xmlns="http://www.w3.org/2000/svg" xmlns:xlink="http://www.w3.org/1999/xlink" width="128" height="128" viewBox="0 0 128 128" version="1.1">
<defs>
<linearGradient id="linear0" gradientUnits="userSpaceOnUse" x1="322.468994" y1="365.933014" x2="414.475006" y2="428.028992" gradientTransform="matrix(0.125,0,0,0.125,0,0)">
<stop offset="0" style="stop-color:rgb(3.921569%,3.137255%,3.529412%);stop-opacity:1;"/>
<stop offset="1" style="stop-color:rgb(18.82353%,18.431373%,15.294118%);stop-opacity:1;"/>
</linearGradient>
<linearGradient id="linear1" gradientUnits="userSpaceOnUse" x1="536.908997" y1="364.402008" x2="496.763" y2="414.244995" gradientTransform="matrix(0.125,0,0,0.125,0,0)">
<stop offset="0" style="stop-color:rgb(37.254903%,37.254903%,34.509805%);stop-opacity:1;"/>
<stop offset="1" style="stop-color:rgb(20%,19.215687%,15.294118%);stop-opacity:1;"/>
</linearGradient>
<linearGradient id="linear2" gradientUnits="userSpaceOnUse" x1="558.731995" y1="455.582001" x2="514.768005" y2="524.799988" gradientTransform="matrix(0.125,0,0,0.125,0,0)">
<stop offset="0" style="stop-color:rgb(24.313726%,23.529412%,20%);stop-opacity:1;"/>
<stop offset="1" style="stop-color:rgb(9.803922%,9.411765%,7.450981%);stop-opacity:1;"/>
</linearGradient>
</defs>
<g id="surface1">
<path style=" stroke:none;fill-rule:nonzero;fill:rgb(99.607843%,99.215686%,99.215686%);fill-opacity:1;" d="M 80.625 36.25 C 84.828125 38.808594 88.570312 42.640625 91.25 46.75 C 93.347656 49.96875 94.761719 53.199219 95.5 57 C 96.339844 61.324219 96.371094 65.800781 95.5 70.125 C 95.082031 72.210938 94.332031 74.417969 93.5 76.375 C 80.894531 106.074219 36.808594 100.46875 31.875 68.875 C 31.5 66.484375 31.34375 63.796875 31.5 61.375 C 31.992188 53.65625 36.238281 45.230469 41.875 40 C 43.351562 38.628906 45.507812 37.007812 47.25 36 C 49.984375 34.417969 53.53125 33.027344 56.625 32.375 C 64.945312 30.617188 73.378906 31.84375 80.625 36.25 Z M 70.375 39.625 C 69.652344 40.660156 68.949219 41.683594 68.375 42.8125 C 70.292969 43.6875 71.601562 45.28125 72.3125 47.25 C 75.554688 47.203125 78.78125 47.238281 82 47.625 C 83.585938 47.816406 85.328125 48.105469 86.875 48.5 C 87.457031 48.648438 88.039062 48.851562 88.625 49 C 88.625 49 92.25 50.5625 92.25 50.5625 C 90.597656 47.433594 88.605469 44.871094 86.125 42.375 C 85.828125 42.074219 85.5625 41.789062 85.25 41.5 C 82.199219 38.65625 78.84375 36.410156 74.9375 34.875 C 73.074219 36.132812 71.648438 37.800781 70.375 39.625 Z M 32.75 62 C 32.316406 73.695312 38.988281 84.871094 48.9375 90.75 C 50.15625 91.472656 52.15625 91.851562 52.8125 93.125 C 52.839844 92.703125 52.9375 92.285156 53 91.875 C 53.523438 93.066406 54.660156 93.171875 55.75 93.5 C 58.976562 94.46875 67.082031 95.109375 70.125 93.75 C 72.554688 93.222656 74.886719 92.417969 77.125 91.375 C 78.632812 90.671875 81.132812 89.476562 81.875 87.875 C 82.066406 87.464844 82.042969 87.261719 82.125 86.875 C 83.328125 81.289062 78.191406 70.273438 75.625 65.125 C 73.753906 61.367188 71.742188 57.679688 69.3125 54.25 C 67.066406 55.300781 64.449219 55.832031 62.0625 55 C 61.191406 57.324219 60.320312 59.707031 59.75 62.125 C 59.722656 62.238281 59.773438 62.386719 59.75 62.5 C 59.746094 62.519531 59.664062 62.671875 59.625 62.875 C 59.496094 63.230469 59.46875 63.484375 59.375 63.75 C 59.371094 63.769531 59.171875 63.777344 59.25 64.125 C 57.558594 69.0625 56.214844 74.285156 55 79.375 C 55.214844 77.6875 52.5625 77.042969 51.3125 76.125 C 46.121094 72.316406 41.117188 65.707031 39.5 59.4375 C 39.417969 59.125 39.421875 57.457031 39.25 57.3125 C 37.511719 57.125 36.324219 58.460938 35.0625 59.375 C 35.0625 59.375 35.875 58.125 35.875 58.125 C 41.574219 52.746094 49.6875 51.152344 57 49.0625 C 56.808594 46.953125 57.90625 45.105469 59.375 43.6875 C 58.324219 42.832031 57.371094 41.84375 56.3125 41 C 54.578125 39.621094 50.367188 36.546875 48.1875 37.375 C 47.097656 37.789062 43.683594 40.492188 42.6875 41.375 C 36.511719 46.84375 33.058594 53.722656 32.75 62 Z M 63.9375 43.25 C 56.914062 43.855469 56.179688 54.566406 65.1875 53.75 C 73.730469 52.976562 71.4375 42.605469 63.9375 43.25 Z M 63.9375 43.25 "/>
<path style=" stroke:none;fill-rule:nonzero;fill:rgb(68.627453%,68.235296%,66.666669%);fill-opacity:1;" d="M 85.25 41.5 C 85.777344 42.628906 86.007812 44.007812 86.125 45.3125 C 85.753906 45.851562 85.03125 45.554688 84.4375 45.625 C 84.382812 45.632812 84.347656 45.957031 84.1875 46 C 83.886719 46.082031 83.058594 45.160156 82.8125 45.125 C 82.402344 45.070312 82.101562 45.382812 82.0625 45.375 C 79.875 45.042969 77.90625 42.386719 75.9375 41.75 C 75.53125 41.617188 75.363281 41.542969 75.375 42.125 C 73.867188 41.246094 71.84375 40.730469 70.375 39.625 C 71.648438 37.800781 73.074219 36.132812 74.9375 34.875 C 78.84375 36.410156 82.199219 38.65625 85.25 41.5 Z M 85.25 41.5 "/>
<path style=" stroke:none;fill-rule:nonzero;fill:url(#linear0);" d="M 35.875 58.125 C 34.671875 59.261719 33.472656 60.488281 32.75 62 C 33.058594 53.722656 36.511719 46.84375 42.6875 41.375 C 43.683594 40.492188 47.097656 37.789062 48.1875 37.375 C 50.367188 36.546875 54.578125 39.621094 56.3125 41 C 57.371094 41.84375 58.324219 42.832031 59.375 43.6875 C 57.90625 45.105469 56.808594 46.953125 57 49.0625 C 49.6875 51.152344 41.574219 52.746094 35.875 58.125 Z M 35.875 58.125 "/>
<path style=" stroke:none;fill-rule:nonzero;fill:rgb(51.372552%,50.980395%,48.627451%);fill-opacity:1;" d="M 75.375 42.125 C 76.507812 42.789062 80.585938 45.382812 81.4375 46.125 C 81.828125 46.464844 82.316406 47.125 82 47.625 C 78.78125 47.238281 75.554688 47.203125 72.3125 47.25 C 71.601562 45.28125 70.292969 43.6875 68.375 42.8125 C 68.949219 41.683594 69.652344 40.660156 70.375 39.625 C 71.84375 40.730469 73.867188 41.246094 75.375 42.125 Z M 75.375 42.125 "/>
<path style=" stroke:none;fill-rule:nonzero;fill:rgb(61.176473%,60.392159%,56.862748%);fill-opacity:1;" d="M 86.125 42.375 C 85.945312 42.453125 86.449219 42.949219 86.5 43 C 86.5 43 87.875 46.4375 87.875 46.4375 C 87.875 46.4375 86.875 48.5 86.875 48.5 C 85.328125 48.105469 83.585938 47.816406 82 47.625 C 82.316406 47.125 81.828125 46.464844 81.4375 46.125 C 80.585938 45.382812 76.507812 42.789062 75.375 42.125 C 75.363281 41.542969 75.53125 41.617188 75.9375 41.75 C 77.90625 42.386719 79.875 45.042969 82.0625 45.375 C 82.101562 45.382812 82.402344 45.070312 82.8125 45.125 C 83.058594 45.160156 83.886719 46.082031 84.1875 46 C 84.347656 45.957031 84.382812 45.632812 84.4375 45.625 C 85.03125 45.554688 85.753906 45.851562 86.125 45.3125 C 86.007812 44.007812 85.777344 42.628906 85.25 41.5 C 85.5625 41.789062 85.828125 42.074219 86.125 42.375 Z M 86.125 42.375 "/>
<path style=" stroke:none;fill-rule:nonzero;fill:rgb(27.450982%,25.098041%,21.960784%);fill-opacity:1;" d="M 88.625 49 C 89.652344 48.414062 88.636719 47.773438 88.625 47.6875 C 88.621094 47.652344 88.882812 47.46875 88.875 47.4375 C 88.5 45.546875 87.816406 44.3125 86.5 43 C 86.449219 42.949219 85.945312 42.453125 86.125 42.375 C 88.605469 44.871094 90.597656 47.433594 92.25 50.5625 Z M 88.625 49 "/>
<path style=" stroke:none;fill-rule:nonzero;fill:rgb(51.764709%,50.588238%,45.490196%);fill-opacity:1;" d="M 88.625 49 C 88.039062 48.851562 87.457031 48.648438 86.875 48.5 C 86.875 48.5 87.875 46.4375 87.875 46.4375 C 87.875 46.4375 86.5 43 86.5 43 C 87.816406 44.3125 88.5 45.546875 88.875 47.4375 C 88.882812 47.46875 88.621094 47.652344 88.625 47.6875 C 88.636719 47.773438 89.652344 48.414062 88.625 49 Z M 88.625 49 "/>
<path style=" stroke:none;fill-rule:nonzero;fill:url(#linear1);" d="M 63.9375 43.25 C 71.4375 42.605469 73.730469 52.976562 65.1875 53.75 C 56.179688 54.566406 56.914062 43.855469 63.9375 43.25 Z M 63.9375 43.25 "/>
<path style=" stroke:none;fill-rule:nonzero;fill:url(#linear2);" d="M 75.625 65.125 C 75.625 65.125 75.875 66.0625 75.875 66.0625 C 73.023438 66.765625 70.070312 66.15625 67.1875 66.125 C 67.15625 66.125 66.804688 66.496094 66.6875 66.5 C 64.261719 66.605469 61.695312 64.851562 59.3125 64.5 C 59.1875 64.410156 59.277344 64.246094 59.25 64.125 C 59.292969 64 59.332031 63.871094 59.375 63.75 C 59.417969 63.535156 59.554688 63.238281 59.625 62.875 C 59.667969 62.753906 59.707031 62.601562 59.75 62.5 C 59.773438 62.4375 60.089844 62.222656 59.75 62.125 C 60.320312 59.707031 61.191406 57.324219 62.0625 55 C 64.449219 55.832031 67.066406 55.300781 69.3125 54.25 C 71.742188 57.679688 73.753906 61.367188 75.625 65.125 Z M 75.625 65.125 "/>
<path style=" stroke:none;fill-rule:nonzero;fill:rgb(87.450981%,89.803922%,96.078432%);fill-opacity:1;" d="M 55 79.375 C 54.953125 79.578125 54.925781 79.785156 54.875 80 C 46.515625 75.644531 39.824219 67.777344 38.0625 58.375 C 36.902344 57.78125 34.191406 61.734375 33.875 62.6875 C 33.453125 63.945312 33.585938 66.316406 33.75 67.625 C 34.867188 76.601562 41.871094 86.417969 49.9375 90.5 C 50.820312 90.945312 52.871094 92.140625 52.625 90.25 C 52.652344 90.226562 52.539062 89.917969 52.875 90 C 52.839844 90.492188 52.8125 91.160156 53 91.625 C 52.988281 91.703125 53.011719 91.796875 53 91.875 C 52.9375 92.285156 52.839844 92.703125 52.8125 93.125 C 52.15625 91.851562 50.15625 91.472656 48.9375 90.75 C 38.988281 84.871094 32.316406 73.695312 32.75 62 C 33.472656 60.488281 34.671875 59.261719 35.875 58.125 C 35.875 58.125 35.0625 59.375 35.0625 59.375 C 36.324219 58.460938 37.511719 57.125 39.25 57.3125 C 39.421875 57.457031 39.417969 59.125 39.5 59.4375 C 41.117188 65.707031 46.121094 72.316406 51.3125 76.125 C 52.5625 77.042969 55.214844 77.6875 55 79.375 Z M 55 79.375 "/>
<path style=" stroke:none;fill-rule:nonzero;fill:rgb(80.000001%,81.176472%,87.843138%);fill-opacity:1;" d="M 54.875 80 C 54.75 80.535156 54.621094 81.089844 54.5 81.625 C 54.804688 80.144531 53.136719 79.964844 52.0625 79.25 C 46.234375 75.363281 43.035156 71.910156 39.625 65.8125 C 39.183594 65.027344 37.425781 60.515625 36.8125 60.375 C 34.609375 59.875 34.101562 66.179688 34.25 67.5 C 34.25 67.5 33.75 67.625 33.75 67.625 C 33.585938 66.316406 33.453125 63.945312 33.875 62.6875 C 34.191406 61.734375 36.902344 57.78125 38.0625 58.375 C 39.824219 67.777344 46.515625 75.644531 54.875 80 Z M 54.875 80 "/>
<path style=" stroke:none;fill-rule:nonzero;fill:rgb(72.549021%,74.117649%,81.960785%);fill-opacity:1;" d="M 54.5 81.625 C 54.417969 81.996094 54.328125 82.382812 54.25 82.75 C 54.019531 82.378906 54.230469 82.234375 53.8125 81.875 C 52.851562 81.046875 49.910156 79.722656 48.5625 78.75 C 47.441406 77.941406 45.398438 76.320312 44.4375 75.375 C 42.105469 73.085938 40.207031 70.132812 38.75 67.4375 C 38.089844 66.214844 37.957031 64.355469 36.4375 63.875 C 35.4375 64.023438 35.914062 66.769531 35.875 67.5625 C 35.816406 68.78125 35.378906 68.992188 35.75 70.6875 C 36.992188 76.390625 42.863281 84.167969 47.6875 87.375 C 49.097656 88.3125 51.394531 89.882812 53 89.375 C 52.96875 89.605469 52.894531 89.730469 52.875 90 C 52.539062 89.917969 52.652344 90.226562 52.625 90.25 C 52.238281 90.597656 52.132812 90.597656 51.6875 90.5 C 44.105469 88.824219 35.089844 74.863281 34.25 67.5 C 34.101562 66.179688 34.609375 59.875 36.8125 60.375 C 37.425781 60.515625 39.183594 65.027344 39.625 65.8125 C 43.035156 71.910156 46.234375 75.363281 52.0625 79.25 C 53.136719 79.964844 54.804688 80.144531 54.5 81.625 Z M 54.5 81.625 "/>
<path style=" stroke:none;fill-rule:nonzero;fill:rgb(0.392157%,0.392157%,1.960784%);fill-opacity:1;" d="M 59.75 62.5 C 59.773438 62.386719 59.722656 62.238281 59.75 62.125 C 60.089844 62.222656 59.773438 62.4375 59.75 62.5 Z M 59.75 62.5 "/>
<path style=" stroke:none;fill-rule:nonzero;fill:rgb(0.392157%,0.392157%,1.960784%);fill-opacity:1;" d="M 59.625 62.875 C 59.664062 62.671875 59.746094 62.519531 59.75 62.5 C 59.707031 62.601562 59.667969 62.753906 59.625 62.875 Z M 59.625 62.875 "/>
<path style=" stroke:none;fill-rule:nonzero;fill:rgb(0.392157%,0.392157%,1.960784%);fill-opacity:1;" d="M 59.375 63.75 C 59.46875 63.484375 59.496094 63.230469 59.625 62.875 C 59.554688 63.238281 59.417969 63.535156 59.375 63.75 Z M 59.375 63.75 "/>
<path style=" stroke:none;fill-rule:nonzero;fill:rgb(0.392157%,0.392157%,1.960784%);fill-opacity:1;" d="M 59.25 64.125 C 59.171875 63.777344 59.371094 63.769531 59.375 63.75 C 59.332031 63.871094 59.292969 64 59.25 64.125 Z M 59.25 64.125 "/>
<path style=" stroke:none;fill-rule:nonzero;fill:rgb(63.921571%,65.490198%,73.725492%);fill-opacity:1;" d="M 54.25 82.75 C 54.183594 83.066406 54.21875 83.613281 54 83.875 C 54 83.769531 53.957031 82.921875 53.9375 82.875 C 48.976562 80.824219 45.730469 76.910156 41.8125 73.625 C 41.425781 73.300781 40.734375 73.289062 40.6875 73.25 C 40.367188 72.992188 38.363281 69.957031 37.875 71.4375 C 37.722656 71.898438 38.21875 72.847656 38.25 73.3125 C 38.335938 74.550781 37.890625 74.476562 38.5 75.9375 C 39.992188 79.515625 47.011719 86.96875 50.6875 88.25 C 52.679688 88.945312 52 87.773438 52.9375 86.5 C 52.9375 86.5 52.75 88.6875 52.75 88.6875 C 52.835938 88.726562 53.113281 88.277344 53.125 88.25 C 53.132812 88.628906 53.050781 89.003906 53 89.375 C 51.394531 89.882812 49.097656 88.3125 47.6875 87.375 C 42.863281 84.167969 36.992188 76.390625 35.75 70.6875 C 35.378906 68.992188 35.816406 68.78125 35.875 67.5625 C 35.914062 66.769531 35.4375 64.023438 36.4375 63.875 C 37.957031 64.355469 38.089844 66.214844 38.75 67.4375 C 40.207031 70.132812 42.105469 73.085938 44.4375 75.375 C 45.398438 76.320312 47.441406 77.941406 48.5625 78.75 C 49.910156 79.722656 52.851562 81.046875 53.8125 81.875 C 54.230469 82.234375 54.019531 82.378906 54.25 82.75 Z M 54.25 82.75 "/>
<path style=" stroke:none;fill-rule:nonzero;fill:rgb(0.392157%,0.392157%,1.960784%);fill-opacity:1;" d="M 75.625 65.125 C 78.191406 70.273438 83.328125 81.289062 82.125 86.875 C 82.125 86.875 81.875 86.4375 81.875 86.4375 C 79.179688 87.828125 76.289062 88.390625 73.4375 89.25 C 71.460938 89.84375 69.207031 90.988281 67.0625 91.25 C 62.8125 91.765625 57.421875 90.992188 53.1875 90.375 C 53.054688 90.460938 53.152344 90.839844 53.125 91 C 53.085938 91.203125 53.03125 91.433594 53 91.625 C 52.8125 91.160156 52.839844 90.492188 52.875 90 C 52.894531 89.730469 52.96875 89.605469 53 89.375 C 53.050781 89.003906 53.132812 88.628906 53.125 88.25 C 53.316406 87.757812 53.992188 84.414062 54 83.875 C 54.21875 83.613281 54.183594 83.066406 54.25 82.75 C 54.328125 82.382812 54.417969 81.996094 54.5 81.625 C 54.621094 81.089844 54.75 80.535156 54.875 80 C 54.925781 79.785156 54.953125 79.578125 55 79.375 C 56.214844 74.285156 57.558594 69.0625 59.25 64.125 C 59.277344 64.246094 59.1875 64.410156 59.3125 64.5 C 61.695312 64.851562 64.261719 66.605469 66.6875 66.5 C 66.804688 66.496094 67.15625 66.125 67.1875 66.125 C 70.070312 66.15625 73.023438 66.765625 75.875 66.0625 Z M 75.625 65.125 "/>
<path style=" stroke:none;fill-rule:nonzero;fill:rgb(78.039217%,81.568629%,92.54902%);fill-opacity:1;" d="M 34.25 67.5 C 35.089844 74.863281 44.105469 88.824219 51.6875 90.5 C 52.132812 90.597656 52.238281 90.597656 52.625 90.25 C 52.871094 92.140625 50.820312 90.945312 49.9375 90.5 C 41.871094 86.417969 34.867188 76.601562 33.75 67.625 Z M 34.25 67.5 "/>
<path style=" stroke:none;fill-rule:nonzero;fill:rgb(58.823532%,59.607846%,67.450982%);fill-opacity:1;" d="M 54 83.875 C 53.992188 84.414062 53.316406 87.757812 53.125 88.25 C 53.113281 88.277344 52.835938 88.726562 52.75 88.6875 C 52.75 88.6875 52.9375 86.5 52.9375 86.5 C 52 87.773438 52.679688 88.945312 50.6875 88.25 C 47.011719 86.96875 39.992188 79.515625 38.5 75.9375 C 37.890625 74.476562 38.335938 74.550781 38.25 73.3125 C 38.21875 72.847656 37.722656 71.898438 37.875 71.4375 C 38.363281 69.957031 40.367188 72.992188 40.6875 73.25 C 40.734375 73.289062 41.425781 73.300781 41.8125 73.625 C 45.730469 76.910156 48.976562 80.824219 53.9375 82.875 C 53.957031 82.921875 54 83.769531 54 83.875 Z M 39.6875 73.25 C 39.492188 73.285156 38.496094 74.367188 38.5 74.5625 C 38.503906 74.71875 39.886719 77.207031 40 77.3125 C 40.382812 77.667969 40.472656 77.273438 40.5625 77.375 C 41.691406 78.609375 42.289062 80.507812 43.375 81.8125 C 44.199219 82.800781 49.375 86.933594 50.4375 87.25 C 52.613281 87.898438 52.96875 85.039062 53.25 83.4375 C 49.792969 81.484375 46.660156 79.375 43.6875 76.75 C 42.929688 76.082031 40.484375 73.113281 39.6875 73.25 Z M 39.6875 73.25 "/>
<path style=" stroke:none;fill-rule:nonzero;fill:rgb(52.549022%,52.156866%,58.823532%);fill-opacity:1;" d="M 39.6875 73.25 C 40.484375 73.113281 42.929688 76.082031 43.6875 76.75 C 46.660156 79.375 49.792969 81.484375 53.25 83.4375 C 52.96875 85.039062 52.613281 87.898438 50.4375 87.25 C 49.375 86.933594 44.199219 82.800781 43.375 81.8125 C 42.289062 80.507812 41.691406 78.609375 40.5625 77.375 C 40.472656 77.273438 40.382812 77.667969 40 77.3125 C 39.886719 77.207031 38.503906 74.71875 38.5 74.5625 C 38.496094 74.367188 39.492188 73.285156 39.6875 73.25 Z M 44.9375 79.875 C 43.753906 80.328125 44.625 81.332031 45.125 82.0625 C 45.835938 83.101562 50.019531 86.59375 51.1875 86.375 C 51.527344 86.3125 52.570312 84.828125 52.0625 84.5 Z M 44.9375 79.875 "/>
<path style=" stroke:none;fill-rule:nonzero;fill:rgb(45.09804%,43.529412%,49.411765%);fill-opacity:1;" d="M 44.9375 79.875 C 44.9375 79.875 52.0625 84.5 52.0625 84.5 C 52.570312 84.828125 51.527344 86.3125 51.1875 86.375 C 50.019531 86.59375 45.835938 83.101562 45.125 82.0625 C 44.625 81.332031 43.753906 80.328125 44.9375 79.875 Z M 44.9375 79.875 "/>
<path style=" stroke:none;fill-rule:nonzero;fill:rgb(9.019608%,7.843138%,8.235294%);fill-opacity:1;" d="M 82.125 86.875 C 82.042969 87.261719 82.066406 87.464844 81.875 87.875 C 81.507812 87.402344 81.167969 88.40625 80.5625 88.75 C 77.875 90.28125 70.972656 91.480469 67.8125 91.75 C 62.929688 92.167969 57.945312 91.773438 53.125 91 C 53.152344 90.839844 53.054688 90.460938 53.1875 90.375 C 57.421875 90.992188 62.8125 91.765625 67.0625 91.25 C 69.207031 90.988281 71.460938 89.84375 73.4375 89.25 C 76.289062 88.390625 79.179688 87.828125 81.875 86.4375 Z M 82.125 86.875 "/>
<path style=" stroke:none;fill-rule:nonzero;fill:rgb(15.686275%,14.901961%,14.509805%);fill-opacity:1;" d="M 81.875 87.875 C 81.132812 89.476562 78.632812 90.671875 77.125 91.375 C 73.132812 92.058594 69.167969 93.136719 65.0625 93 C 65.0625 93.324219 66.261719 93.351562 66.5 93.375 C 66.5 93.375 55.75 93.5 55.75 93.5 C 54.660156 93.171875 53.523438 93.066406 53 91.875 C 53.011719 91.796875 52.988281 91.703125 53 91.625 C 53.03125 91.433594 53.085938 91.203125 53.125 91 C 57.945312 91.773438 62.929688 92.167969 67.8125 91.75 C 70.972656 91.480469 77.875 90.28125 80.5625 88.75 C 81.167969 88.40625 81.507812 87.402344 81.875 87.875 Z M 81.875 87.875 "/>
<path style=" stroke:none;fill-rule:nonzero;fill:rgb(22.352941%,21.960784%,21.176471%);fill-opacity:1;" d="M 77.125 91.375 C 74.886719 92.417969 72.554688 93.222656 70.125 93.75 C 70.191406 93.71875 70.976562 93.347656 70.6875 93.125 C 69.296875 93.226562 67.894531 93.507812 66.5 93.375 C 66.261719 93.351562 65.0625 93.324219 65.0625 93 C 69.167969 93.136719 73.132812 92.058594 77.125 91.375 Z M 77.125 91.375 "/>
<path style=" stroke:none;fill-rule:nonzero;fill:rgb(25.490198%,25.098041%,25.098041%);fill-opacity:1;" d="M 70.125 93.75 C 67.082031 95.109375 58.976562 94.46875 55.75 93.5 C 55.75 93.5 66.5 93.375 66.5 93.375 C 67.894531 93.507812 69.296875 93.226562 70.6875 93.125 C 70.976562 93.347656 70.191406 93.71875 70.125 93.75 Z M 70.125 93.75 "/>
</g>
</svg>
