<?xml version="1.0" encoding="UTF-8"?>
<svg xmlns="http://www.w3.org/2000/svg" xmlns:xlink="http://www.w3.org/1999/xlink" width="128" height="128" viewBox="0 0 128 128" version="1.1">
<defs>
<linearGradient id="linear0" gradientUnits="userSpaceOnUse" x1="348.356995" y1="279.243011" x2="795.231018" y2="566.062988" gradientTransform="matrix(0.125,0,0,0.125,0,0)">
<stop offset="0.361582" style="stop-color:rgb(100%,100%,99.607843%);stop-opacity:1;"/>
<stop offset="1" style="stop-color:rgb(98.431373%,96.078432%,79.607844%);stop-opacity:1;"/>
</linearGradient>
<linearGradient id="linear1" gradientUnits="userSpaceOnUse" x1="297.572998" y1="628.044006" x2="702.27301" y2="705.255981" gradientTransform="matrix(0.125,0,0,0.125,0,0)">
<stop offset="0" style="stop-color:rgb(99.607843%,99.607843%,99.607843%);stop-opacity:1;"/>
<stop offset="1" style="stop-color:rgb(97.254902%,96.078432%,86.274511%);stop-opacity:1;"/>
</linearGradient>
</defs>
<g id="surface1">
<path style=" stroke:none;fill-rule:nonzero;fill:url(#linear0);" d="M 90.125 35.375 C 89.480469 35.832031 88.542969 36.0625 88.0625 36.625 C 88.351562 36.628906 88.730469 36.578125 89 36.5 C 89 36.5 72.875 45.1875 72.875 45.1875 C 72.875 45.1875 101.5625 66.25 101.5625 66.25 C 103.917969 67.839844 102.5 72.273438 99.5625 71.875 C 91.148438 66.84375 83.386719 59.335938 75.0625 54.25 C 74.980469 54.199219 74.605469 53.976562 74.5625 54 C 74.558594 54.085938 74.613281 54.417969 74.625 54.4375 C 74.714844 54.582031 75.792969 55.019531 75.5625 55.375 C 75.5625 55.375 66.5625 48.75 66.5625 48.75 C 66.5625 48.75 31.3125 67.25 31.3125 67.25 C 31.027344 60.957031 30.574219 56.1875 36.4375 52.5 C 36.4375 52.5 56 42.0625 56 42.0625 C 56 42.0625 44.625 33.4375 44.625 33.4375 C 42.609375 30.417969 45.867188 26.695312 49.0625 28.5 C 49.0625 28.5 62.6875 38.5 62.6875 38.5 C 68.054688 35.867188 73.132812 32.582031 78.6875 30.375 C 83.09375 29.265625 88.789062 30.636719 90.75 35.0625 C 90.726562 35.117188 90.253906 35.285156 90.125 35.375 Z M 90.125 35.375 "/>
<path style=" stroke:none;fill-rule:nonzero;fill:rgb(76.862746%,57.647061%,25.098041%);fill-opacity:1;" d="M 90.125 35.375 C 89.9375 36.023438 89.613281 36.320312 89 36.5 C 88.730469 36.578125 88.351562 36.628906 88.0625 36.625 C 88.542969 36.0625 89.480469 35.832031 90.125 35.375 Z M 90.125 35.375 "/>
<path style=" stroke:none;fill-rule:nonzero;fill:rgb(86.666667%,86.666667%,89.411765%);fill-opacity:1;" d="M 83.25 63.125 C 83.25 63.125 83.1875 63.75 83.1875 63.75 C 83.1875 63.75 41.9375 63.75 41.9375 63.75 C 41.34375 64.324219 36.890625 66.398438 36.75 66.8125 C 36.496094 67.574219 36.9375 68.796875 36.875 69.5625 C 36.859375 69.734375 36.246094 69.273438 36.625 69.875 C 36.625 69.875 36.25 69.8125 36.25 69.8125 C 36.414062 69.058594 36.03125 66.871094 36.25 66.3125 C 36.371094 66.007812 41.332031 63.679688 41.9375 63.125 Z M 83.25 63.125 "/>
<path style=" stroke:none;fill-rule:nonzero;fill:rgb(99.607843%,99.215686%,98.823529%);fill-opacity:1;" d="M 36.625 69.875 C 36.246094 69.273438 36.859375 69.734375 36.875 69.5625 C 36.9375 68.796875 36.496094 67.574219 36.75 66.8125 C 36.890625 66.398438 41.34375 64.324219 41.9375 63.75 C 41.9375 63.75 83.1875 63.75 83.1875 63.75 C 83.1875 63.75 83.25 63.125 83.25 63.125 C 83.453125 63.160156 83.761719 63.074219 83.9375 63.125 C 84.320312 63.234375 90.089844 67.546875 90.3125 67.875 C 90.542969 68.214844 90.652344 69.726562 90.3125 69.875 Z M 36.625 69.875 "/>
<path style=" stroke:none;fill-rule:nonzero;fill:url(#linear1);" d="M 36.4375 72.875 C 36.4375 72.875 90.3125 72.875 90.3125 72.875 C 90.3125 72.875 90.25 88.6875 90.25 88.6875 C 89.539062 90.871094 88.152344 92.511719 86.0625 93.5 C 71.320312 94.492188 56.128906 94.003906 41.3125 93.75 C 38.835938 92.84375 37.074219 91.011719 36.375 88.4375 Z M 36.4375 72.875 "/>
</g>
</svg>
