<?xml version="1.0" encoding="UTF-8"?>
<svg xmlns="http://www.w3.org/2000/svg" xmlns:xlink="http://www.w3.org/1999/xlink" width="128" height="128" viewBox="0 0 128 128" version="1.1">
<g id="surface1">
<path style=" stroke:none;fill-rule:nonzero;fill:rgb(95.294118%,96.862745%,97.647059%);fill-opacity:1;" d="M 64 27.125 C 64 27.125 64 27.375 64 27.375 C 63.730469 27.347656 62.773438 27.320312 62.5625 27.375 C 61.589844 27.625 51.527344 34.261719 49.75 35.375 C 49.75 35.375 60.8125 28 60.8125 28 C 61.949219 27.5625 62.703125 27 64 27.125 Z M 64 27.125 "/>
<path style=" stroke:none;fill-rule:nonzero;fill:rgb(63.921571%,66.666669%,63.921571%);fill-opacity:1;" d="M 66.125 28.25 C 65.441406 27.914062 64.785156 27.457031 64 27.375 C 64 27.375 64 27.125 64 27.125 C 64.707031 27.191406 65.6875 27.6875 66.125 28.25 Z M 66.125 28.25 "/>
<path style=" stroke:none;fill-rule:nonzero;fill:rgb(90.588236%,92.54902%,94.901961%);fill-opacity:1;" d="M 64 27.375 C 68.351562 29.5625 71.914062 33.058594 76.375 35 C 76.40625 35.019531 76.480469 35.03125 76.625 35.125 C 77.34375 35.589844 78.003906 36.152344 78.75 36.625 C 79.085938 36.835938 79.410156 37.042969 79.75 37.25 C 80.128906 37.480469 80.414062 37.730469 80.875 38 C 82.214844 38.980469 82.976562 39.429688 84.375 40.25 C 85.851562 41.796875 90.921875 43.722656 91.25 45.6875 C 91.25 45.6875 91.25 78.1875 91.25 78.1875 C 91.003906 79.867188 89.804688 80.210938 88.625 81.125 C 88.285156 81.332031 87.960938 81.539062 87.625 81.75 C 87.550781 81.804688 87.394531 81.894531 87.25 82 C 81.621094 85.601562 75.125 90.679688 69.4375 93.75 C 68.839844 94.070312 68.960938 93.738281 68.9375 93.75 C 68.835938 93.808594 68.929688 94.160156 68.6875 94.25 C 68.503906 94.316406 68.238281 94.007812 67.6875 94.25 C 67.203125 94.464844 65.363281 96.144531 64.9375 96.25 C 62.566406 96.828125 60.460938 94.65625 58.8125 93.625 C 58.503906 93.433594 57.832031 93.296875 57.5625 93.125 C 57.515625 93.09375 57.53125 92.679688 57.0625 92.375 C 55.125 91.113281 53.148438 89.789062 51.1875 88.5 C 47.167969 85.859375 40.945312 82.664062 37.4375 79.75 C 35.910156 78.480469 36.773438 78.085938 36.625 76.4375 C 36.558594 75.703125 36.234375 75.242188 36.125 74.625 C 36.351562 73.277344 36.25 71.863281 36.25 70.5 C 36.25 69.339844 36.347656 68.15625 36.1875 67 C 35.9375 68.132812 36.253906 69.410156 36.25 70.5 C 36.242188 71.851562 35.996094 73.257812 36.125 74.625 C 35.992188 73.871094 36.066406 73.164062 35.875 72.4375 C 35.875 72.4375 35.5 78.5 35.5 78.5 C 35.5 78.5 35.625 45.3125 35.625 45.3125 C 35.921875 44.429688 36.476562 43.925781 37.1875 43.375 C 40.621094 40.707031 45.945312 37.757812 49.75 35.375 C 51.527344 34.261719 61.589844 27.625 62.5625 27.375 C 62.773438 27.320312 63.730469 27.347656 64 27.375 Z M 63.3125 35.625 C 61.082031 37.890625 49.167969 43.886719 48.125 45.9375 C 46.972656 48.203125 52.042969 50.125 53.5625 51.125 C 56.742188 53.21875 59.890625 55.390625 63.0625 57.5 C 63.0625 57.5 63.6875 57.625 63.6875 57.625 C 68.605469 54.097656 74.035156 51.261719 78.875 47.6875 C 79.617188 45.917969 78.066406 45.039062 76.8125 44.125 C 73.597656 41.78125 69.796875 39.925781 66.6875 37.875 C 65.917969 37.367188 64.316406 35.421875 63.3125 35.625 Z M 57.875 84.625 C 58.265625 84.523438 58.546875 84.730469 58.875 84.1875 C 58.875 84.1875 58.875 65.625 58.875 65.625 C 59.339844 65.601562 59.09375 65.445312 58.9375 65.25 C 58.316406 64.488281 56.863281 63.773438 56 63.25 C 54.34375 61.882812 54.023438 61.800781 52.3125 60.75 C 50.585938 59.6875 46.894531 56.867188 45.3125 56.25 C 44.441406 55.910156 43.25 56.179688 43 57.1875 C 42.460938 59.351562 43.40625 63.894531 43 66.3125 C 43 66.3125 42.625 65.4375 42.625 65.4375 C 42.5625 66.023438 42.707031 66.75 42.625 67.3125 C 42.613281 67.382812 42.257812 67.621094 42.25 67.6875 C 42.132812 68.808594 42.074219 72.660156 42.25 73.6875 C 42.269531 73.808594 42.597656 73.691406 42.625 73.8125 C 42.8125 74.636719 42.527344 75.074219 43.3125 75.875 C 44.269531 76.851562 46.691406 77.527344 47.6875 78.25 C 48.277344 78.679688 49.367188 80.117188 50.0625 80.625 C 50.3125 80.804688 51.511719 81.132812 51.8125 81.375 C 52.417969 81.859375 51.949219 82.371094 53.3125 82.875 C 53.589844 82.976562 53.785156 82.613281 53.8125 82.625 C 54.058594 82.726562 58.207031 86.109375 58.375 85.1875 C 58.375 85.1875 57.25 84.6875 57.25 84.6875 C 57.527344 84.695312 57.59375 84.699219 57.875 84.625 Z M 82.1875 56.25 C 81.441406 56.335938 70.75 63.429688 69.5625 64.375 C 68.988281 64.832031 68.3125 65.21875 68 65.9375 C 68 65.9375 68.125 84.1875 68.125 84.1875 C 68.484375 84.617188 68.917969 84.757812 69.4375 84.5 C 71 82.863281 83.289062 75.960938 83.625 74.8125 C 83.625 74.8125 83.625 57.0625 83.625 57.0625 C 83.292969 56.460938 82.910156 56.164062 82.1875 56.25 Z M 82.1875 56.25 "/>
<path style=" stroke:none;fill-rule:nonzero;fill:rgb(90.588236%,92.156863%,92.54902%);fill-opacity:1;" d="M 76.875 35.125 C 77.40625 35.46875 78.058594 35.777344 78.5625 36.125 C 78.839844 36.316406 78.726562 36.609375 78.75 36.625 C 78.003906 36.152344 77.34375 35.589844 76.625 35.125 Z M 76.875 35.125 "/>
<path style=" stroke:none;fill-rule:nonzero;fill:rgb(94.901961%,96.470588%,97.254902%);fill-opacity:1;" d="M 84.875 40.375 C 86.332031 41.242188 91.136719 43.898438 91.5 45.3125 C 92.457031 49.023438 91.527344 61.15625 91.5 65.75 C 91.480469 69.066406 92.183594 75.699219 91.5 78.5625 C 91.074219 80.339844 89.738281 80.445312 88.625 81.125 C 89.804688 80.210938 91.003906 79.867188 91.25 78.1875 C 91.25 78.1875 91.25 45.6875 91.25 45.6875 C 90.921875 43.722656 85.851562 41.796875 84.375 40.25 C 84.4375 40.289062 84.8125 40.339844 84.875 40.375 Z M 84.875 40.375 "/>
<path style=" stroke:none;fill-rule:nonzero;fill:rgb(96.470588%,97.254902%,98.039216%);fill-opacity:1;" d="M 56 63.25 C 53.585938 61.78125 47.476562 57.328125 45.3125 56.5 C 44.351562 56.132812 43.746094 56.277344 43.25 57.1875 C 43.25 57.1875 43.25 74.4375 43.25 74.4375 C 43.25 74.4375 44.0625 75.625 44.0625 75.625 C 44.0625 75.625 57.875 84.625 57.875 84.625 C 57.59375 84.699219 57.527344 84.695312 57.25 84.6875 C 57.25 84.6875 58.375 85.1875 58.375 85.1875 C 58.207031 86.109375 54.058594 82.726562 53.8125 82.625 C 53.785156 82.613281 53.589844 82.976562 53.3125 82.875 C 51.949219 82.371094 52.417969 81.859375 51.8125 81.375 C 51.511719 81.132812 50.3125 80.804688 50.0625 80.625 C 49.367188 80.117188 48.277344 78.679688 47.6875 78.25 C 46.691406 77.527344 44.269531 76.851562 43.3125 75.875 C 42.527344 75.074219 42.8125 74.636719 42.625 73.8125 C 42.597656 73.691406 42.269531 73.808594 42.25 73.6875 C 42.074219 72.660156 42.132812 68.808594 42.25 67.6875 C 42.257812 67.621094 42.613281 67.382812 42.625 67.3125 C 42.707031 66.75 42.5625 66.023438 42.625 65.4375 C 42.625 65.4375 43 66.3125 43 66.3125 C 43.40625 63.894531 42.460938 59.351562 43 57.1875 C 43.25 56.179688 44.441406 55.910156 45.3125 56.25 C 46.894531 56.867188 50.585938 59.6875 52.3125 60.75 C 54.023438 61.800781 54.34375 61.882812 56 63.25 Z M 56 63.25 "/>
<path style=" stroke:none;fill-rule:nonzero;fill:rgb(95.686275%,96.078432%,96.862745%);fill-opacity:1;" d="M 58.875 65.625 C 58.875 65.625 56 63.25 56 63.25 C 56.863281 63.773438 58.316406 64.488281 58.9375 65.25 C 59.09375 65.445312 59.339844 65.601562 58.875 65.625 Z M 58.875 65.625 "/>
<path style=" stroke:none;fill-rule:nonzero;fill:rgb(95.294118%,96.862745%,97.647059%);fill-opacity:1;" d="M 36.25 70.5 C 36.253906 69.410156 35.9375 68.132812 36.1875 67 C 36.347656 68.15625 36.25 69.339844 36.25 70.5 Z M 36.25 70.5 "/>
<path style=" stroke:none;fill-rule:nonzero;fill:rgb(95.294118%,96.862745%,97.647059%);fill-opacity:1;" d="M 36.125 74.625 C 35.996094 73.257812 36.242188 71.851562 36.25 70.5 C 36.25 71.863281 36.351562 73.277344 36.125 74.625 Z M 36.125 74.625 "/>
<path style=" stroke:none;fill-rule:nonzero;fill:rgb(96.078432%,97.254902%,97.647059%);fill-opacity:1;" d="M 36.125 74.625 C 36.234375 75.242188 36.558594 75.703125 36.625 76.4375 C 36.773438 78.085938 35.910156 78.480469 37.4375 79.75 C 40.945312 82.664062 47.167969 85.859375 51.1875 88.5 C 53.148438 89.789062 55.125 91.113281 57.0625 92.375 C 57.53125 92.679688 57.515625 93.09375 57.5625 93.125 C 57.832031 93.296875 58.503906 93.433594 58.8125 93.625 C 60.460938 94.65625 62.566406 96.828125 64.9375 96.25 C 65.363281 96.144531 67.203125 94.464844 67.6875 94.25 C 68.238281 94.007812 68.503906 94.316406 68.6875 94.25 C 68.929688 94.160156 68.835938 93.808594 68.9375 93.75 C 68.960938 93.738281 68.839844 94.070312 69.4375 93.75 C 75.125 90.679688 81.621094 85.601562 87.25 82 C 80.140625 87.1875 72.523438 91.679688 65.3125 96.75 C 64.480469 97.222656 63.617188 97.132812 62.6875 97.125 C 54.78125 91.609375 45.585938 86.796875 37.875 81.125 C 36.890625 80.402344 35.84375 79.761719 35.5 78.5 C 35.5 78.5 35.875 72.4375 35.875 72.4375 C 36.066406 73.164062 35.992188 73.871094 36.125 74.625 Z M 36.125 74.625 "/>
<path style=" stroke:none;fill-rule:nonzero;fill:rgb(95.294118%,96.862745%,97.647059%);fill-opacity:1;" d="M 88.625 81.125 C 88.15625 81.488281 87.789062 81.628906 87.625 81.75 C 87.960938 81.539062 88.285156 81.332031 88.625 81.125 Z M 88.625 81.125 "/>
<path style=" stroke:none;fill-rule:nonzero;fill:rgb(95.294118%,96.862745%,97.647059%);fill-opacity:1;" d="M 87.625 81.75 C 87.515625 81.820312 87.378906 81.917969 87.25 82 C 87.394531 81.894531 87.550781 81.804688 87.625 81.75 Z M 87.625 81.75 "/>
</g>
</svg>
