<?xml version="1.0" encoding="UTF-8"?>
<svg xmlns="http://www.w3.org/2000/svg" xmlns:xlink="http://www.w3.org/1999/xlink" width="128" height="128" viewBox="0 0 128 128" version="1.1">
<g id="surface1">
<path style=" stroke:none;fill-rule:nonzero;fill:rgb(99.215686%,99.607843%,99.607843%);fill-opacity:1;" d="M 63.4375 29.125 C 63.4375 29.125 64.8125 29.25 64.8125 29.25 C 72.804688 35.578125 83.3125 40.722656 91.0625 47.125 C 92.34375 48.183594 93.03125 48.851562 92.125 50.5625 C 83.453125 55.957031 74.828125 63.5625 66.0625 68.625 C 63.320312 70.207031 62.941406 69.375 60.5625 67.875 C 52.082031 62.535156 43.792969 55.945312 35.5 50.3125 C 35.242188 49.625 35.136719 48.996094 35.5 48.3125 C 44.589844 41.640625 54.183594 35.597656 63.4375 29.125 Z M 63.6875 42.125 C 63.6875 42.125 53.875 48.9375 53.875 48.9375 C 53.875 48.9375 53.625 50.0625 53.625 50.0625 C 53.625 50.0625 64.1875 57.125 64.1875 57.125 C 65.414062 56.035156 74.042969 50.832031 74.25 49.9375 C 74.277344 49.824219 74.277344 49.160156 74.25 49.0625 C 74.046875 48.359375 66.0625 43.667969 65.0625 42.625 Z M 63.6875 42.125 "/>
<path style=" stroke:none;fill-rule:nonzero;fill:rgb(98.823529%,99.215686%,99.215686%);fill-opacity:1;" d="M 37.6875 60.75 C 37.6875 60.75 48.625 68.3125 48.625 68.3125 C 48.847656 69.570312 48.277344 72.65625 48.75 73.6875 C 49.25 74.777344 57.980469 79.625 58.25 80.5625 C 58.25 80.5625 58.1875 93.125 58.1875 93.125 C 58.1875 93.125 38.9375 79.875 38.9375 79.875 C 38.9375 79.875 37.625 78.6875 37.625 78.6875 Z M 37.6875 60.75 "/>
<path style=" stroke:none;fill-rule:nonzero;fill:rgb(98.823529%,99.215686%,99.215686%);fill-opacity:1;" d="M 89.9375 60.875 C 89.9375 60.875 90.125 78.8125 90.125 78.8125 C 83.402344 83.820312 76.425781 88.496094 69.4375 93.125 C 69.4375 93.125 69.375 80.5625 69.375 80.5625 C 69.640625 79.6875 78.6875 74.59375 79.125 73.5625 C 79.605469 72.421875 78.921875 69.558594 79.25 68.4375 C 79.515625 67.523438 88.636719 62.007812 89.9375 60.875 Z M 89.9375 60.875 "/>
</g>
</svg>
