<?xml version="1.0" encoding="UTF-8"?>
<svg xmlns="http://www.w3.org/2000/svg" xmlns:xlink="http://www.w3.org/1999/xlink" width="128" height="128" viewBox="0 0 128 128" version="1.1">
<defs>
<linearGradient id="linear0" gradientUnits="userSpaceOnUse" x1="510.666992" y1="310.640015" x2="258.213989" y2="598.661011" gradientTransform="matrix(0.125,0,0,0.125,0,0)">
<stop offset="0.383812" style="stop-color:rgb(99.607843%,99.215686%,99.215686%);stop-opacity:1;"/>
<stop offset="1" style="stop-color:rgb(78.431374%,78.039217%,77.254903%);stop-opacity:1;"/>
</linearGradient>
<linearGradient id="linear1" gradientUnits="userSpaceOnUse" x1="495.729004" y1="315.399994" x2="753.13501" y2="586.724976" gradientTransform="matrix(0.125,0,0,0.125,0,0)">
<stop offset="0.382353" style="stop-color:rgb(99.607843%,99.215686%,99.215686%);stop-opacity:1;"/>
<stop offset="1" style="stop-color:rgb(80.000001%,78.431374%,77.64706%);stop-opacity:1;"/>
</linearGradient>
</defs>
<g id="surface1">
<path style=" stroke:none;fill-rule:nonzero;fill:url(#linear0);" d="M 65.625 56.5 C 66.011719 57.445312 65.175781 57.78125 64.6875 58.5 C 64.6875 58.5 64.5 58.1875 64.5 58.1875 C 61.496094 62.035156 58.601562 66.246094 55.5 69.9375 C 54.808594 70.761719 51.789062 73.027344 52.25 74.0625 C 52.421875 74.445312 52.671875 74.109375 52.6875 74.125 C 54.34375 75.761719 55.75 77.761719 57.5625 79.25 C 57.6875 79.351562 58.726562 79.34375 58.125 79.9375 C 58.125 79.9375 62.5 84.0625 62.5 84.0625 C 61.890625 84.714844 61.324219 85.507812 60.6875 86.125 C 59.644531 87.140625 57.085938 88.625 56.75 90.5 C 56.722656 90.648438 56.464844 90.996094 56.6875 91.25 C 56.6875 91.25 56.75 90.5 56.75 90.5 C 56.75 90.5 59.125 96.8125 59.125 96.8125 C 58.339844 97.390625 57.933594 98.835938 56.6875 98.25 C 49.710938 91.398438 42.722656 84.542969 35.875 77.5625 C 34.757812 76.421875 31.757812 72.625 30.6875 72 C 30.484375 71.882812 30.140625 72.164062 30.0625 72.125 C 29.863281 72.027344 29.40625 71.183594 29.125 71.4375 C 29.125 71.4375 35 77.25 35 77.25 C 35 77.25 33.875 77.0625 33.875 77.0625 C 34.941406 77.976562 35.804688 79.113281 36.75 80.125 C 31.757812 74.671875 24.714844 69.769531 21.75 62.8125 C 14.085938 44.8125 28.839844 25.773438 47.9375 27.125 C 49.027344 27.203125 54.9375 28.214844 55.25 29.1875 C 55.6875 30.554688 50 41.621094 49.5 43.8125 Z M 32.375 75.5 C 32.386719 75.507812 32.464844 75.714844 32.5625 75.75 C 32.792969 75.449219 32.382812 75.515625 32.375 75.5 C 32.308594 75.339844 32.503906 74.867188 32.0625 74.875 C 31.589844 74.886719 32.238281 75.398438 32.375 75.5 Z M 33.3125 76 C 32.789062 75.941406 33.316406 76.644531 33.4375 76.625 C 33.644531 76.589844 33.570312 76.027344 33.3125 76 Z M 33.3125 76 "/>
<path style=" stroke:none;fill-rule:nonzero;fill:url(#linear1);" d="M 69.875 84 C 69.875 84 65 89.3125 65 89.3125 C 65 89.3125 68 98.0625 68 98.0625 C 68.1875 98.394531 68.617188 98.921875 69 99 C 69 99 70.4375 99.125 70.4375 99.125 C 70.4375 99.125 96.875 72.8125 96.875 72.8125 C 96.742188 72.542969 96.453125 72.773438 96.3125 72.875 C 95.488281 73.472656 93.839844 75.101562 93 75.875 C 93 75.875 101 67.6875 101 67.6875 C 101 67.6875 101.25 66.9375 101.25 66.9375 C 101.011719 66.925781 100.964844 66.621094 100.9375 66.625 C 100.742188 66.640625 98.8125 69.34375 98.5 69.6875 C 89.589844 79.4375 79.410156 88.394531 70.3125 98 C 69.722656 98.292969 69.273438 98.4375 68.875 97.8125 C 68.1875 96.734375 67.179688 91.765625 66.625 90.1875 C 66.554688 89.984375 66.503906 89.5625 66.25 90 C 66.226562 89.757812 66.0625 89.574219 66.125 89.3125 C 66.925781 88.277344 71.832031 84.273438 71.375 83.0625 C 71.152344 82.46875 70.828125 83.445312 70.5625 83.625 C 70.554688 83.632812 70.4375 83.453125 70.375 83.5 C 70.375 83.5 62.625 73.4375 62.625 73.4375 C 62.625 73.4375 77.625 58.1875 77.625 58.1875 C 77.625 58.1875 64.75 40.9375 64.75 40.9375 C 64.625 40.0625 65.144531 39.335938 65.5 38.5625 C 65.980469 37.507812 70.261719 29.453125 70.6875 29.125 C 71.804688 28.265625 78.125 27.191406 79.6875 27.125 C 97.824219 26.359375 111.664062 44.980469 104.875 62.0625 C 103.472656 65.589844 100.914062 68.90625 98.375 71.6875 C 89.765625 81.121094 79.910156 89.53125 71.1875 98.875 C 70.179688 99.707031 68.578125 99.84375 67.75 98.6875 C 67.332031 98.101562 64.605469 90.046875 64.625 89.4375 C 64.628906 89.3125 64.621094 89.1875 64.625 89.0625 C 66.367188 87.375 68.011719 85.554688 69.875 84 Z M 105.5625 50.625 C 105.503906 55.804688 104.464844 60.445312 102.0625 65 C 102.160156 65.050781 103.050781 64.058594 103.125 63.9375 C 104.433594 61.886719 106.589844 53.558594 106 51.1875 C 105.976562 51.097656 105.609375 50.613281 105.5625 50.625 Z M 105.5625 50.625 "/>
<path style=" stroke:none;fill-rule:nonzero;fill:rgb(98.039216%,98.431373%,98.431373%);fill-opacity:1;" d="M 105.5625 50.625 C 105.609375 50.613281 105.976562 51.097656 106 51.1875 C 106.589844 53.558594 104.433594 61.886719 103.125 63.9375 C 103.050781 64.058594 102.160156 65.050781 102.0625 65 C 104.464844 60.445312 105.503906 55.804688 105.5625 50.625 Z M 105.5625 50.625 "/>
<path style=" stroke:none;fill-rule:nonzero;fill:rgb(89.803922%,92.156863%,92.941177%);fill-opacity:1;" d="M 63.125 83.5 C 62.8125 83.242188 62.28125 82.808594 61.875 82.6875 C 61.875 82.6875 62.875 84.1875 62.875 84.1875 C 62.875 84.1875 57.25 90.4375 57.25 90.4375 C 57.421875 91.738281 59.683594 95.925781 59.5 96.9375 C 59.382812 97.574219 57.738281 98.871094 56.9375 98.75 C 55.097656 98.472656 38.136719 79.484375 35 77.25 C 35 77.25 29.125 71.4375 29.125 71.4375 C 29.40625 71.183594 29.863281 72.027344 30.0625 72.125 C 30.140625 72.164062 30.484375 71.882812 30.6875 72 C 31.757812 72.625 34.757812 76.421875 35.875 77.5625 C 42.722656 84.542969 49.710938 91.398438 56.6875 98.25 C 57.933594 98.835938 58.339844 97.390625 59.125 96.8125 C 59.125 96.8125 56.75 90.5 56.75 90.5 C 57.085938 88.625 59.644531 87.140625 60.6875 86.125 C 61.324219 85.507812 61.890625 84.714844 62.5 84.0625 C 62.5 84.0625 58.125 79.9375 58.125 79.9375 C 58.726562 79.34375 57.6875 79.351562 57.5625 79.25 C 55.75 77.761719 54.34375 75.761719 52.6875 74.125 C 52.671875 74.109375 52.421875 74.445312 52.25 74.0625 C 51.789062 73.027344 54.808594 70.761719 55.5 69.9375 C 58.601562 66.246094 61.496094 62.035156 64.5 58.1875 C 64.5 58.1875 64.6875 58.5 64.6875 58.5 C 65.175781 57.78125 66.011719 57.445312 65.625 56.5 C 65.625 56.5 66.375 57.1875 66.375 57.1875 C 66.375 57.1875 53.125 73.5625 53.125 73.5625 Z M 63.125 83.5 "/>
<path style=" stroke:none;fill-rule:nonzero;fill:rgb(92.941177%,93.725491%,95.294118%);fill-opacity:1;" d="M 93 75.875 C 85.042969 83.214844 77.949219 91.519531 69.875 98.75 C 69.183594 98.574219 69 98.585938 68.625 97.9375 C 68.097656 97.03125 66.355469 91.101562 66.25 90 C 66.503906 89.5625 66.554688 89.984375 66.625 90.1875 C 67.179688 91.765625 68.1875 96.734375 68.875 97.8125 C 69.273438 98.4375 69.722656 98.292969 70.3125 98 C 79.410156 88.394531 89.589844 79.4375 98.5 69.6875 C 98.8125 69.34375 100.742188 66.640625 100.9375 66.625 C 100.964844 66.621094 101.011719 66.925781 101.25 66.9375 C 101.25 66.9375 101 67.6875 101 67.6875 Z M 93 75.875 "/>
<path style=" stroke:none;fill-rule:nonzero;fill:rgb(63.137257%,63.137257%,63.529414%);fill-opacity:1;" d="M 69 99 C 69.273438 99.054688 69.792969 99.070312 69.875 98.75 C 77.949219 91.519531 85.042969 83.214844 93 75.875 C 93.839844 75.101562 95.488281 73.472656 96.3125 72.875 C 96.453125 72.773438 96.742188 72.542969 96.875 72.8125 C 96.875 72.8125 70.4375 99.125 70.4375 99.125 Z M 69 99 "/>
<path style=" stroke:none;fill-rule:nonzero;fill:rgb(76.47059%,76.862746%,77.64706%);fill-opacity:1;" d="M 32.375 75.5 C 32.238281 75.398438 31.589844 74.886719 32.0625 74.875 C 32.503906 74.867188 32.308594 75.339844 32.375 75.5 Z M 32.375 75.5 "/>
<path style=" stroke:none;fill-rule:nonzero;fill:rgb(76.47059%,76.862746%,77.64706%);fill-opacity:1;" d="M 32.375 75.5 C 32.382812 75.515625 32.792969 75.449219 32.5625 75.75 C 32.464844 75.714844 32.386719 75.507812 32.375 75.5 Z M 32.375 75.5 "/>
<path style=" stroke:none;fill-rule:nonzero;fill:rgb(76.47059%,76.862746%,77.64706%);fill-opacity:1;" d="M 33.3125 76 C 33.570312 76.027344 33.644531 76.589844 33.4375 76.625 C 33.316406 76.644531 32.789062 75.941406 33.3125 76 Z M 33.3125 76 "/>
<path style=" stroke:none;fill-rule:nonzero;fill:rgb(73.725492%,74.117649%,75.294119%);fill-opacity:1;" d="M 35 77.25 C 38.136719 79.484375 55.097656 98.472656 56.9375 98.75 C 57.738281 98.871094 59.382812 97.574219 59.5 96.9375 C 59.683594 95.925781 57.421875 91.738281 57.25 90.4375 C 57.25 90.4375 62.875 84.1875 62.875 84.1875 C 62.875 84.1875 61.875 82.6875 61.875 82.6875 C 62.28125 82.808594 62.8125 83.242188 63.125 83.5 C 63.363281 83.699219 63.679688 83.800781 63.875 84.0625 C 63.414062 85.273438 58.394531 89.933594 58.25 90.5625 C 58.054688 91.410156 60.609375 95.976562 60.25 97.3125 C 59.929688 98.496094 56.972656 100.570312 55.6875 99.125 C 49.496094 92.683594 42.847656 86.648438 36.75 80.125 C 35.804688 79.113281 34.941406 77.976562 33.875 77.0625 Z M 35 77.25 "/>
<path style=" stroke:none;fill-rule:nonzero;fill:rgb(82.745099%,83.92157%,85.09804%);fill-opacity:1;" d="M 66.25 90 C 66.355469 91.101562 68.097656 97.03125 68.625 97.9375 C 69 98.585938 69.183594 98.574219 69.875 98.75 C 69.792969 99.070312 69.273438 99.054688 69 99 C 68.617188 98.921875 68.1875 98.394531 68 98.0625 C 68 98.0625 65 89.3125 65 89.3125 C 65 89.3125 69.875 84 69.875 84 C 70.027344 83.871094 70.125 83.679688 70.375 83.5 C 70.4375 83.453125 70.554688 83.632812 70.5625 83.625 C 70.828125 83.445312 71.152344 82.46875 71.375 83.0625 C 71.832031 84.273438 66.925781 88.277344 66.125 89.3125 C 66.0625 89.574219 66.226562 89.757812 66.25 90 Z M 66.25 90 "/>
<path style=" stroke:none;fill-rule:nonzero;fill:rgb(89.803922%,92.156863%,92.941177%);fill-opacity:1;" d="M 56.75 90.5 C 56.75 90.5 56.6875 91.25 56.6875 91.25 C 56.464844 90.996094 56.722656 90.648438 56.75 90.5 Z M 56.75 90.5 "/>
</g>
</svg>
