<?xml version="1.0" encoding="UTF-8"?>
<svg xmlns="http://www.w3.org/2000/svg" xmlns:xlink="http://www.w3.org/1999/xlink" width="128" height="128" viewBox="0 0 128 128" version="1.1">
<g id="surface1">
<path style=" stroke:none;fill-rule:nonzero;fill:rgb(98.823529%,99.215686%,99.215686%);fill-opacity:1;" d="M 59.125 86.875 C 57.960938 85.054688 57.5 83.878906 58.5 81.75 C 58.5 81.75 69.0625 70.875 69.0625 70.875 C 69.0625 70.875 35.6875 70.875 35.6875 70.875 C 34.269531 70.574219 33.207031 69.71875 32.625 68.375 C 32.582031 68.15625 32.503906 68.019531 32.5 68 C 32.1875 65.164062 31.578125 57.6875 35.1875 57 C 35.1875 57 69.1875 56.875 69.1875 56.875 C 69.1875 56.875 58.75 46.3125 58.75 46.3125 C 55.558594 42.117188 64.382812 33.734375 68.5625 37 C 76.617188 45.398438 85.707031 53.066406 93 62.0625 C 93.539062 64.117188 93.125 66.078125 91.75 67.6875 C 91.75 67.6875 68.1875 91 68.1875 91 C 63.949219 93.019531 61.832031 89.289062 59.125 86.875 Z M 59.125 86.875 "/>
</g>
</svg>
