<?xml version="1.0" encoding="UTF-8"?>
<svg xmlns="http://www.w3.org/2000/svg" xmlns:xlink="http://www.w3.org/1999/xlink" width="128" height="128" viewBox="0 0 128 128" version="1.1">
<g id="surface1">
<path style=" stroke:none;fill-rule:nonzero;fill:rgb(99.607843%,99.607843%,99.607843%);fill-opacity:1;" d="M 102.5 57 C 87.085938 56.984375 71.664062 57.023438 56.25 57 C 48.421875 56.988281 40.578125 57.066406 32.75 57 C 31.070312 56.984375 26.328125 57.320312 25.0625 57 C 24.929688 56.964844 24.28125 56.417969 24.25 56.3125 C 23.707031 54.515625 24.707031 49.496094 25.5 47.6875 C 30.101562 37.203125 47.488281 31.007812 58.0625 30.125 C 71.65625 28.992188 93.542969 33.449219 101.125 46.0625 C 102.425781 48.230469 104.226562 53.917969 103.5 56.3125 C 103.398438 56.644531 102.773438 56.867188 102.5 57 Z M 102.5 57 "/>
<path style=" stroke:none;fill-rule:nonzero;fill:rgb(99.607843%,99.215686%,98.039216%);fill-opacity:1;" d="M 28.0625 61.5 C 28.875 61.394531 33.300781 61.398438 33.9375 61.625 C 35.921875 62.324219 41.902344 68.863281 44.3125 70.375 C 45.222656 70.945312 45.71875 71.257812 46.8125 70.75 C 46.8125 70.75 57.8125 61.5 57.8125 61.5 C 57.8125 61.5 99.6875 61.5 99.6875 61.5 C 106.824219 63.335938 106.617188 73.363281 99.3125 74.75 C 99.3125 74.75 28.3125 74.75 28.3125 74.75 C 20.867188 73.804688 21.117188 62.402344 28.0625 61.5 Z M 29.0625 63.5 C 22.167969 64.253906 22.65625 71.914062 28.8125 73.25 C 28.8125 73.25 44.875 73.1875 44.875 73.1875 C 44.496094 72.820312 43.867188 72.6875 43.4375 72.375 C 41.75 71.140625 34.214844 63.902344 33.1875 63.625 C 32.933594 63.558594 29.527344 63.449219 29.0625 63.5 Z M 56.875 64.875 C 56.875 64.875 46.9375 73.25 46.9375 73.25 C 56.375 73.230469 65.8125 73.277344 75.25 73.25 C 82.132812 73.230469 92.359375 74.074219 98.8125 73.25 C 102.128906 72.824219 105.0625 68.542969 102.625 65.5625 C 101.519531 64.210938 98.160156 62.875 96.5625 63.5 C 96.441406 63.546875 95.238281 65.082031 94.8125 65.375 C 94.339844 65.699219 93.90625 66.027344 93.3125 66.125 C 90.648438 66.558594 77.875 65.671875 75.6875 64.375 C 75.433594 64.226562 75.113281 63.8125 75.0625 63.5 C 75.0625 63.5 58.3125 63.625 58.3125 63.625 Z M 56.875 64.875 "/>
<path style=" stroke:none;fill-rule:nonzero;fill:rgb(93.333334%,91.37255%,80.784315%);fill-opacity:1;" d="M 29.0625 63.5 C 29.527344 63.449219 32.933594 63.558594 33.1875 63.625 C 34.214844 63.902344 41.75 71.140625 43.4375 72.375 C 43.867188 72.6875 44.496094 72.820312 44.875 73.1875 C 44.875 73.1875 28.8125 73.25 28.8125 73.25 C 22.65625 71.914062 22.167969 64.253906 29.0625 63.5 Z M 29.0625 63.5 "/>
<path style=" stroke:none;fill-rule:nonzero;fill:rgb(97.254902%,95.686275%,87.450981%);fill-opacity:1;" d="M 75.25 73.25 C 74.445312 69.238281 68.871094 69.507812 65.8125 68.375 C 64.667969 67.949219 63.21875 66.59375 62.1875 66.25 C 60.808594 65.789062 58.4375 66.035156 57.1875 65.375 C 56.914062 65.230469 56.820312 65.269531 56.875 64.875 C 56.875 64.875 58.3125 63.625 58.3125 63.625 C 58.3125 63.625 75.0625 63.5 75.0625 63.5 C 75.113281 63.8125 75.433594 64.226562 75.6875 64.375 C 77.875 65.671875 90.648438 66.558594 93.3125 66.125 C 93.90625 66.027344 94.339844 65.699219 94.8125 65.375 C 95.238281 65.082031 96.441406 63.546875 96.5625 63.5 C 98.160156 62.875 101.519531 64.210938 102.625 65.5625 C 105.0625 68.542969 102.128906 72.824219 98.8125 73.25 C 92.359375 74.074219 82.132812 73.230469 75.25 73.25 Z M 75.25 73.25 "/>
<path style=" stroke:none;fill-rule:nonzero;fill:rgb(91.764706%,90.196079%,80.000001%);fill-opacity:1;" d="M 75.25 73.25 C 65.8125 73.277344 56.375 73.230469 46.9375 73.25 C 46.9375 73.25 56.875 64.875 56.875 64.875 C 56.820312 65.269531 56.914062 65.230469 57.1875 65.375 C 58.4375 66.035156 60.808594 65.789062 62.1875 66.25 C 63.21875 66.59375 64.667969 67.949219 65.8125 68.375 C 68.871094 69.507812 74.445312 69.238281 75.25 73.25 Z M 75.25 73.25 "/>
<path style=" stroke:none;fill-rule:nonzero;fill:rgb(99.215686%,99.215686%,98.431373%);fill-opacity:1;" d="M 25.0625 78.875 C 25.0625 78.875 102.5625 78.875 102.5625 78.875 C 103.855469 79.195312 103.570312 81.949219 103.5 83.0625 C 103.152344 88.730469 99.59375 93.359375 93.8125 94.125 C 93.8125 94.125 33.8125 94.125 33.8125 94.125 C 28.613281 93.457031 24.726562 89.246094 24.25 84.0625 C 24.195312 83.480469 24.140625 79.917969 24.25 79.5625 C 24.28125 79.453125 24.921875 78.917969 25.0625 78.875 Z M 27.1875 80.875 C 27.035156 81.421875 25.5625 82.738281 25.5 83.0625 C 25.175781 84.761719 27.304688 88.316406 28.5625 89.5 C 30.792969 87.902344 35.429688 89.628906 36.0625 92.25 C 36.0625 92.25 34.4375 92.375 34.4375 92.375 C 34.4375 92.375 94.0625 92.25 94.0625 92.25 C 97.382812 91.964844 102.269531 86.761719 102.125 83.5625 C 102.101562 83.035156 100.597656 81.019531 99.9375 80.875 Z M 27.1875 80.875 "/>
<path style=" stroke:none;fill-rule:nonzero;fill:rgb(94.509804%,92.54902%,80.000001%);fill-opacity:1;" d="M 27.1875 80.875 C 27.1875 80.875 99.9375 80.875 99.9375 80.875 C 100.597656 81.019531 102.101562 83.035156 102.125 83.5625 C 102.269531 86.761719 97.382812 91.964844 94.0625 92.25 C 94.0625 92.25 34.4375 92.375 34.4375 92.375 C 34.4375 92.375 36.0625 92.25 36.0625 92.25 C 35.429688 89.628906 30.792969 87.902344 28.5625 89.5 C 27.304688 88.316406 25.175781 84.761719 25.5 83.0625 C 25.5625 82.738281 27.035156 81.421875 27.1875 80.875 Z M 27.1875 80.875 "/>
</g>
</svg>
