<?xml version="1.0" encoding="UTF-8"?>
<svg xmlns="http://www.w3.org/2000/svg" xmlns:xlink="http://www.w3.org/1999/xlink" width="128" height="128" viewBox="0 0 128 128" version="1.1">
<g id="surface1">
<path style=" stroke:none;fill-rule:nonzero;fill:rgb(87.058824%,92.156863%,94.901961%);fill-opacity:1;" d="M 85.875 40.125 C 89.460938 44.457031 92.105469 49.773438 95.25 54.3125 C 97.828125 58.03125 102.015625 61.257812 102.5 66.0625 C 102.890625 69.964844 103.101562 84.507812 102.5 88.0625 C 102.359375 88.898438 101.378906 89.960938 100.5625 90.125 C 99.847656 90.269531 91.558594 90.304688 90.9375 90.125 C 88.007812 89.28125 89.320312 84.703125 88.9375 82.5 C 84.625 82.492188 80.3125 82.511719 76 82.5 C 71.460938 82.488281 66.914062 82.492188 62.375 82.5 C 54.5625 82.511719 46.75 82.492188 38.9375 82.5 C 38.230469 84.460938 39.730469 88.761719 37.4375 89.875 C 36.398438 90.378906 28.003906 90.417969 26.8125 90 C 26.21875 89.789062 25.355469 88.566406 25.25 87.9375 C 25.855469 80.890625 24.441406 72.445312 25.25 65.5625 C 25.492188 63.492188 26.828125 61.609375 27.875 59.875 C 28.296875 59.3125 29.414062 58.230469 29.625 57.625 C 30.46875 56.4375 32.015625 55.121094 32.75 53.9375 C 33.085938 53.394531 33.265625 52.285156 33.875 51.375 C 35.105469 49.535156 42.226562 39.105469 43.3125 38.5 C 45.082031 37.511719 54.773438 36.875 57.3125 36.75 C 61.570312 36.539062 66.054688 36.542969 70.3125 36.75 C 72.847656 36.875 82.933594 37.535156 84.5625 38.625 C 85.101562 38.984375 85.472656 39.636719 85.875 40.125 Z M 38.125 50.125 C 37.6875 50.785156 37.097656 51.417969 36.625 52.0625 C 36.625 52.0625 37.1875 52.75 37.1875 52.75 C 40.113281 52.644531 43.074219 52.5 46 52.5 C 46 52.5 47.5 52.5 47.5 52.5 C 53.417969 53.234375 63.457031 52.355469 69.875 52.375 C 76.816406 52.398438 83.746094 52.5625 90.6875 52.625 C 90.6875 52.625 91.125 52.1875 91.125 52.1875 C 91.125 52.1875 83.4375 41.25 83.4375 41.25 C 70.457031 40.179688 57.285156 40.171875 44.3125 41.25 C 42.144531 44.121094 40.117188 47.121094 38.125 50.125 Z M 29.75 63 C 29.289062 63.246094 28.898438 63.667969 28.625 64.125 C 27.847656 65.421875 28.066406 67.910156 29.625 68.375 C 29.660156 68.386719 29.710938 68.375 29.75 68.375 C 30.136719 68.6875 30.714844 68.890625 31.1875 69 C 35.414062 69.972656 39.828125 70.398438 44.0625 71.375 C 45.171875 70.300781 46.507812 69.59375 45.25 68 C 44.574219 67.144531 39.046875 65.558594 37.75 65.375 C 37.75 65.375 30.0625 62.75 30.0625 62.75 C 29.816406 62.730469 29.769531 62.992188 29.75 63 Z M 91.375 65 C 89.695312 65.503906 84.042969 66.800781 82.9375 67.5 C 81.242188 68.574219 82.335938 70.554688 83.6875 71.375 C 83.6875 71.375 97.0625 68.875 97.0625 68.875 C 97.585938 68.695312 97.941406 68.457031 98.375 68.125 C 99.605469 67.191406 100.164062 65.296875 99.25 63.9375 C 99.199219 63.859375 97.90625 62.761719 97.8125 62.75 C 97.59375 62.71875 97.035156 63.304688 96.8125 63.375 C 95.015625 63.9375 93.179688 64.460938 91.375 65 Z M 47.5 80.375 C 47.546875 80.691406 48.617188 80.859375 48.8125 80.875 C 58.710938 81.570312 69.785156 80.09375 79.8125 80.75 C 81.941406 79.960938 83.09375 78.601562 82.5 76.375 C 82.203125 75.257812 77.359375 69.652344 76.3125 69.25 C 76.175781 69.199219 75.554688 69.019531 75.4375 69 C 72.394531 68.523438 55.210938 68.515625 52.1875 69 C 50.792969 69.222656 45.128906 75.382812 45 76.6875 C 44.835938 78.339844 45.894531 79.976562 47.5 80.375 Z M 47.5 80.375 "/>
<path style=" stroke:none;fill-rule:nonzero;fill:rgb(98.431373%,98.823529%,98.823529%);fill-opacity:1;" d="M 31.875 49.75 C 31.945312 49.8125 31.984375 49.984375 32.125 50.125 C 32.339844 51.109375 32.476562 51.273438 32.5 52.25 C 30.941406 52.464844 29.320312 52.390625 27.75 52.375 C 26.574219 52.363281 25.355469 52.523438 24.25 52.125 C 23.238281 50.8125 24.324219 48.65625 25.8125 48.25 C 26.367188 48.097656 29.4375 48 29.9375 48.125 C 30.148438 48.179688 31.601562 49.492188 31.875 49.75 Z M 31.875 49.75 "/>
<path style=" stroke:none;fill-rule:nonzero;fill:rgb(98.431373%,98.823529%,99.215686%);fill-opacity:1;" d="M 95.75 49.75 C 95.804688 49.648438 96.15625 49.214844 96.25 49.125 C 96.316406 49.0625 97.601562 48.148438 97.6875 48.125 C 98.082031 48.007812 101.597656 48.105469 102.0625 48.25 C 103.472656 48.683594 105.082031 51.941406 103.1875 52.375 C 102.722656 52.480469 95.683594 52.507812 95.3125 52.375 C 94.8125 52.246094 95.59375 50.046875 95.75 49.75 Z M 95.75 49.75 "/>
<path style=" stroke:none;fill-rule:nonzero;fill:rgb(6.27451%,4.705882%,10.980392%);fill-opacity:1;" d="M 42 50.25 C 42.035156 50.144531 41.933594 49.96875 42.0625 49.875 C 42.285156 50.105469 42.003906 50.230469 42 50.25 Z M 42 50.25 "/>
<path style=" stroke:none;fill-rule:nonzero;fill:rgb(6.27451%,4.705882%,10.980392%);fill-opacity:1;" d="M 41.875 50.75 C 41.921875 50.550781 41.921875 50.476562 42 50.25 C 41.96875 50.464844 41.929688 50.558594 41.875 50.75 Z M 41.875 50.75 "/>
<path style=" stroke:none;fill-rule:nonzero;fill:rgb(6.27451%,4.705882%,10.980392%);fill-opacity:1;" d="M 41.75 51.125 C 41.792969 50.96875 41.855469 50.824219 41.875 50.75 C 41.832031 50.925781 41.765625 51.070312 41.75 51.125 Z M 41.75 51.125 "/>
<path style=" stroke:none;fill-rule:nonzero;fill:rgb(6.27451%,4.705882%,10.980392%);fill-opacity:1;" d="M 41.75 51.125 C 41.710938 51.269531 41.820312 51.5 41.6875 51.625 C 41.457031 51.433594 41.742188 51.15625 41.75 51.125 Z M 41.75 51.125 "/>
<path style=" stroke:none;fill-rule:nonzero;fill:rgb(7.058824%,9.803922%,22.745098%);fill-opacity:1;" d="M 61.125 51.375 C 61.109375 51.382812 61.097656 51.542969 60.875 51.625 C 60.828125 51.304688 60.953125 51.421875 61.125 51.375 Z M 61.125 51.375 "/>
<path style=" stroke:none;fill-rule:nonzero;fill:rgb(25.490198%,25.490198%,30.588236%);fill-opacity:1;" d="M 82.375 76.375 C 82.375 76.355469 82.089844 76.234375 82.3125 76 Z M 82.375 76.375 "/>
<path style=" stroke:none;fill-rule:nonzero;fill:rgb(28.627452%,21.176471%,49.019608%);fill-opacity:1;" d="M 76 82.5 C 76 82.5 62.375 82.5 62.375 82.5 C 66.914062 82.492188 71.460938 82.488281 76 82.5 Z M 76 82.5 "/>
</g>
</svg>
