<?xml version="1.0" encoding="UTF-8"?>
<svg xmlns="http://www.w3.org/2000/svg" xmlns:xlink="http://www.w3.org/1999/xlink" width="128" height="128" viewBox="0 0 128 128" version="1.1">
<g id="surface1">
<path style=" stroke:none;fill-rule:nonzero;fill:rgb(99.215686%,99.215686%,99.607843%);fill-opacity:1;" d="M 74.75 52.5 C 74.039062 51.867188 74.753906 50.851562 74.1875 50 C 73.425781 51.835938 71.933594 53.703125 70.4375 55 C 70.253906 55.160156 70.265625 55.320312 70 55.125 C 70.15625 54.375 70.234375 54.046875 70.25 53.25 C 70.285156 51.296875 69.878906 50.378906 69.25 48.625 C 66.832031 41.882812 60.933594 40.878906 57.0625 35.375 C 57.0625 35.375 56.5 35.875 56.5 35.875 C 55.773438 33.191406 56.054688 30.90625 57.375 28.5 C 58.386719 26.660156 60.207031 24.828125 62.125 23.9375 C 59.613281 32.074219 67.929688 35.90625 72.125 41.1875 C 74.933594 44.726562 76.128906 48.046875 74.75 52.5 Z M 74.75 52.5 "/>
<path style=" stroke:none;fill-rule:nonzero;fill:rgb(80.000001%,80.392158%,77.254903%);fill-opacity:1;" d="M 69.25 48.625 C 66.550781 43.890625 57.902344 41.066406 56.5 35.875 C 56.5 35.875 57.0625 35.375 57.0625 35.375 C 60.933594 40.878906 66.832031 41.882812 69.25 48.625 Z M 69.25 48.625 "/>
<path style=" stroke:none;fill-rule:nonzero;fill:rgb(98.823529%,98.823529%,99.607843%);fill-opacity:1;" d="M 66.375 56.125 C 65.609375 56.457031 65.816406 55.289062 65.4375 55 C 64.992188 56.457031 63.976562 57.730469 62.875 58.75 C 62.8125 57.886719 62.585938 56.964844 62.375 56.125 C 61.175781 51.351562 58.769531 50.523438 55.4375 47.625 C 54.992188 47.238281 52.882812 44.847656 52.6875 44.875 C 52.269531 44.9375 52.476562 45.375 52.25 45.5 C 51.230469 42.515625 51.492188 39.007812 54.3125 37.125 C 54.410156 45.816406 67.71875 46.925781 66.375 56.125 Z M 66.375 56.125 "/>
<path style=" stroke:none;fill-rule:nonzero;fill:rgb(78.431374%,78.431374%,74.901962%);fill-opacity:1;" d="M 62.375 56.125 C 60.453125 51.84375 53.710938 49.785156 52.25 45.5 C 52.476562 45.375 52.269531 44.9375 52.6875 44.875 C 52.882812 44.847656 54.992188 47.238281 55.4375 47.625 C 58.769531 50.523438 61.175781 51.351562 62.375 56.125 Z M 62.375 56.125 "/>
<path style=" stroke:none;fill-rule:nonzero;fill:rgb(77.64706%,78.039217%,75.294119%);fill-opacity:1;" d="M 74.75 52.5 C 73.675781 55.96875 71.261719 57.371094 69.375 60.25 C 68.808594 57.714844 69.550781 57.285156 70 55.125 C 70.265625 55.320312 70.253906 55.160156 70.4375 55 C 71.933594 53.703125 73.425781 51.835938 74.1875 50 C 74.753906 50.851562 74.039062 51.867188 74.75 52.5 Z M 74.75 52.5 "/>
<path style=" stroke:none;fill-rule:nonzero;fill:rgb(83.92157%,84.313726%,82.745099%);fill-opacity:1;" d="M 66.375 56.125 C 65.992188 58.742188 64.5625 60.324219 62.9375 62.25 C 62.476562 62.121094 62.90625 59.207031 62.875 58.75 C 63.976562 57.730469 64.992188 56.457031 65.4375 55 C 65.816406 55.289062 65.609375 56.457031 66.375 56.125 Z M 66.375 56.125 "/>
<path style=" stroke:none;fill-rule:nonzero;fill:rgb(98.431373%,98.431373%,99.607843%);fill-opacity:1;" d="M 92.625 83 C 90.359375 83.988281 88.414062 85.570312 86.1875 86.625 C 85.625 86.890625 84.65625 87.289062 84.4375 87.375 C 83.625 87.691406 83.496094 87.480469 83.4375 87.5 C 83.097656 87.621094 82.703125 88.496094 81.8125 88 C 81.8125 88 81.9375 88.25 81.9375 88.25 C 81.9375 88.25 81 88.375 81 88.375 C 81.5625 87.457031 83.527344 84.042969 83.75 83.1875 C 83.761719 83.136719 83.910156 82.570312 83.6875 82.625 C 83.394531 83.015625 83.164062 82.730469 82.875 83.1875 C 82.226562 84.210938 81.921875 86.15625 81.125 87.4375 C 80.878906 87.835938 78.902344 90.140625 78.5625 90.25 C 77.480469 90.601562 76.082031 90.234375 75.0625 90.25 C 68.726562 90.351562 62.410156 90.285156 56.0625 90.25 C 54.492188 90.242188 50.15625 90.808594 48.9375 90.375 C 46.691406 89.574219 45.492188 84.359375 44.375 82.6875 C 44.082031 82.25 43.050781 81.648438 42.625 80.9375 C 41.332031 78.78125 40.175781 73.367188 39.875 70.8125 C 39.605469 68.535156 39.84375 66.085938 39.375 63.875 C 39.550781 63.285156 39.898438 63.011719 40.4375 62.75 C 40.4375 62.75 87.0625 62.75 87.0625 62.75 C 88.804688 63.644531 88.105469 65.203125 88.1875 66.75 C 100.179688 67.105469 100.289062 76.058594 92.625 83 Z M 89.5 71 C 89.113281 70.929688 87.953125 70.617188 87.75 70.9375 C 87.257812 75.621094 85.507812 79.976562 83.6875 84.25 C 84.03125 84.40625 89.09375 80.296875 89.6875 79.75 C 92.050781 77.5625 96.121094 73.378906 91.25 71.5 C 92.238281 71.546875 93.136719 71.898438 93.6875 72.75 C 94.230469 70.839844 88.488281 68.554688 87.875 69.0625 C 87.75 69.167969 87.6875 70.335938 87.75 70.4375 C 87.835938 70.582031 89.3125 70.679688 89.5 71 Z M 89.5 71 "/>
<path style=" stroke:none;fill-rule:nonzero;fill:rgb(88.235295%,90.588236%,94.509804%);fill-opacity:1;" d="M 81 88.375 C 80.875 88.582031 80.753906 88.792969 80.625 89 C 80.0625 89.101562 80.148438 89.644531 79.6875 90 C 79.582031 90.082031 77.441406 91.214844 77.3125 91.25 C 76.835938 91.371094 76.839844 90.996094 76.8125 91 C 76.710938 91.015625 76.785156 91.238281 76.6875 91.25 C 76.148438 91.308594 76.238281 91 76.1875 91 C 67.457031 91.261719 58.214844 90.796875 49.3125 91.125 C 46.347656 89.300781 45.304688 85.6875 43 83.375 C 41.214844 79.386719 38.167969 67.902344 39.375 63.875 C 39.84375 66.085938 39.605469 68.535156 39.875 70.8125 C 40.175781 73.367188 41.332031 78.78125 42.625 80.9375 C 43.050781 81.648438 44.082031 82.25 44.375 82.6875 C 45.492188 84.359375 46.691406 89.574219 48.9375 90.375 C 50.15625 90.808594 54.492188 90.242188 56.0625 90.25 C 62.410156 90.285156 68.726562 90.351562 75.0625 90.25 C 76.082031 90.234375 77.480469 90.601562 78.5625 90.25 C 78.902344 90.140625 80.878906 87.835938 81.125 87.4375 C 81.921875 86.15625 82.226562 84.210938 82.875 83.1875 C 83.164062 82.730469 83.394531 83.015625 83.6875 82.625 C 83.910156 82.570312 83.761719 83.136719 83.75 83.1875 C 83.527344 84.042969 81.5625 87.457031 81 88.375 Z M 81 88.375 "/>
<path style=" stroke:none;fill-rule:nonzero;fill:rgb(74.117649%,73.725492%,69.411767%);fill-opacity:1;" d="M 91.25 71.5 C 90.925781 71.375 89.832031 71.0625 89.5 71 C 89.3125 70.679688 87.835938 70.582031 87.75 70.4375 C 87.6875 70.335938 87.75 69.167969 87.875 69.0625 C 88.488281 68.554688 94.230469 70.839844 93.6875 72.75 C 93.136719 71.898438 92.238281 71.546875 91.25 71.5 Z M 91.25 71.5 "/>
<path style=" stroke:none;fill-rule:nonzero;fill:rgb(58.039218%,57.647061%,55.686277%);fill-opacity:1;" d="M 80.625 89 C 79.882812 90.183594 78.914062 92.015625 77.4375 92.25 C 77.4375 92.25 49.25 92.25 49.25 92.25 C 46.960938 90.609375 44.144531 85.933594 43 83.375 C 45.304688 85.6875 46.347656 89.300781 49.3125 91.125 C 58.214844 90.796875 67.457031 91.261719 76.1875 91 C 76.238281 91 76.148438 91.308594 76.6875 91.25 C 76.785156 91.238281 76.710938 91.015625 76.8125 91 C 76.839844 90.996094 76.835938 91.371094 77.3125 91.25 C 77.441406 91.214844 79.582031 90.082031 79.6875 90 C 80.148438 89.644531 80.0625 89.101562 80.625 89 Z M 80.625 89 "/>
<path style=" stroke:none;fill-rule:nonzero;fill:rgb(76.862746%,76.078433%,73.725492%);fill-opacity:1;" d="M 30.625 93 C 36.300781 92.707031 42.519531 92.984375 48.25 93 C 59.75 93.035156 71.246094 93.050781 82.75 93 C 87.25 92.980469 93.742188 92.496094 98 93 C 98.015625 94.585938 97.738281 94.15625 96.5 94.375 C 96.5 94.375 30.75 94.375 30.75 94.375 C 30.75 94.375 29.875 94.25 29.875 94.25 C 29.832031 94.144531 29.246094 93.523438 29.25 93.1875 C 29.363281 92.882812 30.347656 93.015625 30.625 93 Z M 30.625 93 "/>
<path style=" stroke:none;fill-rule:nonzero;fill:rgb(85.882354%,85.490197%,81.960785%);fill-opacity:1;" d="M 30.75 94.375 C 30.59375 94.558594 30.640625 94.757812 30.75 94.9375 C 31.480469 96.144531 35.816406 98.890625 37.1875 99.125 C 37.1875 99.125 90 99.25 90 99.25 C 89.53125 99.363281 88.910156 99.476562 88.4375 99.5 C 71.347656 100.417969 53.183594 98.808594 36.1875 99.5 C 33.0625 98.917969 31.082031 97.152344 29.875 94.25 Z M 30.75 94.375 "/>
<path style=" stroke:none;fill-rule:nonzero;fill:rgb(99.215686%,99.215686%,99.607843%);fill-opacity:1;" d="M 96.5 94.375 C 96.605469 94.542969 96.703125 94.886719 96.625 95.0625 C 96.554688 95.21875 94.339844 97.179688 94.0625 97.375 C 93.523438 97.75 91.226562 98.992188 90.6875 99.125 C 90.425781 99.191406 89.972656 98.71875 90 99.25 C 90 99.25 37.1875 99.125 37.1875 99.125 C 35.816406 98.890625 31.480469 96.144531 30.75 94.9375 C 30.640625 94.757812 30.59375 94.558594 30.75 94.375 Z M 96.5 94.375 "/>
</g>
</svg>
