<?xml version="1.0" encoding="UTF-8"?>
<svg xmlns="http://www.w3.org/2000/svg" xmlns:xlink="http://www.w3.org/1999/xlink" width="128" height="128" viewBox="0 0 128 128" version="1.1">
<g id="surface1">
<path style=" stroke:none;fill-rule:nonzero;fill:rgb(98.823529%,98.431373%,98.431373%);fill-opacity:1;" d="M 43.5625 33 C 47.714844 32.648438 51.820312 34.097656 54.5625 37.25 C 54.5625 37.25 73.0625 37.125 73.0625 37.125 C 78.570312 30.910156 89.097656 31.949219 93.75 38.6875 C 98.460938 45.511719 95.980469 54.695312 88.625 58.3125 C 88.625 58.3125 88.75 89.8125 88.75 89.8125 C 87.765625 94.371094 85.007812 94.449219 81.0625 94.625 C 70.246094 95.101562 56.734375 95.164062 45.9375 94.625 C 42.152344 94.4375 39.671875 94.078125 39.125 89.6875 C 39.125 89.6875 39.125 58.3125 39.125 58.3125 C 26.910156 52.757812 30.277344 34.128906 43.5625 33 Z M 56.1875 52.25 C 55.652344 52.363281 48.570312 59.519531 48.5 60.0625 C 48.359375 61.152344 55.507812 66.582031 55.25 67.6875 C 55.15625 68.09375 50.109375 72.632812 49.375 73.5625 C 49.035156 73.992188 48.351562 74.601562 48.5 75.1875 C 49.78125 76.03125 55.535156 82.789062 56.3125 83 C 56.398438 83.023438 56.851562 83.023438 56.9375 83 C 57.636719 82.8125 63.367188 76.121094 63.9375 76.125 C 63.9375 76.125 70.5625 82.625 70.5625 82.625 C 70.902344 82.734375 71.140625 83.101562 71.5625 83 C 72.105469 82.871094 78.199219 75.808594 79.375 75.0625 C 79.398438 74.769531 79.492188 74.734375 79.375 74.4375 C 78.960938 73.378906 72.546875 68.359375 72.5 67.5625 C 72.5 67.5625 79.375 60.1875 79.375 60.1875 C 78.066406 59.324219 72.242188 52.46875 71.4375 52.25 C 71.191406 52.183594 70.800781 52.269531 70.5625 52.375 C 69.351562 52.902344 65.664062 57.703125 64.3125 58.75 C 64.09375 58.804688 63.945312 58.933594 63.6875 58.875 C 62.8125 58.675781 58.429688 53.175781 57.1875 52.5 C 56.851562 52.316406 56.601562 52.164062 56.1875 52.25 Z M 74.75 68.375 C 74.625 68.417969 74.484375 68.359375 74.375 68.5625 C 74.355469 69.164062 79.515625 73.214844 79.875 74.0625 C 80 74.359375 80.070312 74.886719 80 75.1875 C 79.773438 76.160156 72.765625 82.109375 71.8125 83.5 C 70.09375 84.25 67.308594 79.949219 65.9375 79 C 65.136719 78.894531 67.523438 80.664062 67.1875 80.875 C 67.1875 80.875 63.8125 77.5 63.8125 77.5 C 62.875 79.308594 60.941406 80.515625 59.625 82.0625 C 59.535156 82.167969 59.839844 82.332031 59.75 82.4375 C 59.613281 82.601562 56.652344 85.109375 57.9375 85 C 58.359375 84.964844 63.074219 79.566406 63.9375 79 C 64.363281 79 68.980469 84.582031 69.9375 85 C 71.285156 85.589844 71.945312 85.261719 73 84.5 C 73.734375 83.96875 80.648438 77.023438 81 76.4375 C 83.210938 72.734375 77.300781 70.234375 75.5 67.5625 C 76.21875 66.269531 82.320312 61.546875 81.5 60.1875 C 80.855469 60.269531 80.832031 61.429688 80.375 62.0625 C 79.6875 63.011719 74.644531 67.25 74.5 67.8125 C 74.421875 68.109375 74.675781 68.160156 74.75 68.375 Z M 74.75 68.375 "/>
<path style=" stroke:none;fill-rule:nonzero;fill:rgb(90.980393%,90.196079%,90.196079%);fill-opacity:1;" d="M 73 84.5 C 73 84.5 72.9375 83.875 72.9375 83.875 C 72.9375 83.875 80.5 76.4375 80.5 76.4375 C 81.003906 75.546875 81.386719 74.820312 80.875 73.8125 C 80.722656 73.507812 76.578125 69.449219 76.0625 69 C 75.699219 68.683594 75.09375 68.257812 74.75 68.375 C 74.675781 68.160156 74.421875 68.109375 74.5 67.8125 C 74.644531 67.25 79.6875 63.011719 80.375 62.0625 C 80.832031 61.429688 80.855469 60.269531 81.5 60.1875 C 82.320312 61.546875 76.21875 66.269531 75.5 67.5625 C 77.300781 70.234375 83.210938 72.734375 81 76.4375 C 80.648438 77.023438 73.734375 83.96875 73 84.5 Z M 73 84.5 "/>
<path style=" stroke:none;fill-rule:nonzero;fill:rgb(94.509804%,94.117647%,94.117647%);fill-opacity:1;" d="M 73 84.5 C 71.945312 85.261719 71.285156 85.589844 69.9375 85 C 68.980469 84.582031 64.363281 79 63.9375 79 C 63.074219 79.566406 58.359375 84.964844 57.9375 85 C 56.652344 85.109375 59.613281 82.601562 59.75 82.4375 C 59.839844 82.332031 59.535156 82.167969 59.625 82.0625 C 60.941406 80.515625 62.875 79.308594 63.8125 77.5 C 63.8125 77.5 67.1875 80.875 67.1875 80.875 C 67.523438 80.664062 65.136719 78.894531 65.9375 79 C 67.308594 79.949219 70.09375 84.25 71.8125 83.5 C 72.765625 82.109375 79.773438 76.160156 80 75.1875 C 80.070312 74.886719 80 74.359375 79.875 74.0625 C 79.515625 73.214844 74.355469 69.164062 74.375 68.5625 C 74.484375 68.359375 74.625 68.417969 74.75 68.375 C 75.09375 68.257812 75.699219 68.683594 76.0625 69 C 76.578125 69.449219 80.722656 73.507812 80.875 73.8125 C 81.386719 74.820312 81.003906 75.546875 80.5 76.4375 C 80.5 76.4375 72.9375 83.875 72.9375 83.875 Z M 73 84.5 "/>
</g>
</svg>
