<?xml version="1.0" encoding="UTF-8"?>
<svg xmlns="http://www.w3.org/2000/svg" xmlns:xlink="http://www.w3.org/1999/xlink" width="128" height="128" viewBox="0 0 128 128" version="1.1">
<defs>
<linearGradient id="linear0" gradientUnits="userSpaceOnUse" x1="531.653015" y1="214.276001" x2="507.843994" y2="786.781006" gradientTransform="matrix(0.125,0,0,0.125,0,0)">
<stop offset="0.329843" style="stop-color:rgb(99.607843%,99.607843%,100%);stop-opacity:1;"/>
<stop offset="1" style="stop-color:rgb(84.313726%,83.529413%,83.529413%);stop-opacity:1;"/>
</linearGradient>
</defs>
<g id="surface1">
<path style=" stroke:none;fill-rule:nonzero;fill:url(#linear0);" d="M 64.75 86.875 C 64.925781 86.957031 65.226562 86.78125 65.3125 87.25 C 65.3125 87.25 72.875 79.8125 72.875 79.8125 C 72.289062 79.109375 72.984375 78.769531 73 78.4375 C 73.097656 76.453125 72.453125 74.800781 70.6875 73.75 C 70.246094 73.488281 67.84375 72.554688 68.6875 73.375 C 65.519531 74.398438 58.757812 72.207031 56.625 75.3125 C 54.085938 79.011719 58.863281 82.035156 61.125 84.5 C 61.933594 85.378906 62.773438 86.222656 63.625 87.0625 C 63.625 87.0625 63.4375 100.25 63.4375 100.25 C 43.007812 99.671875 28.148438 81.804688 29.375 61.6875 C 29.601562 57.964844 30.699219 54.359375 31.75 50.8125 C 24.09375 47.820312 20.894531 38.929688 25.625 31.9375 C 31.183594 23.71875 43.683594 24.660156 48.3125 33.25 C 57.304688 28.722656 67.707031 28.335938 77.0625 32 C 77.660156 32.234375 80.824219 34.03125 81.1875 33.875 C 81.609375 32.980469 82.128906 32.082031 82.75 31.3125 C 87.890625 24.972656 97.699219 24.402344 103.25 30.6875 C 109.597656 37.871094 105.78125 48.570312 96.75 50.8125 C 97.875 54.820312 99 58.863281 99.125 63.0625 C 99.699219 82.296875 84.332031 100.058594 64.75 100.1875 Z M 47.75 58.25 C 47.621094 57.941406 43.386719 53.570312 43.0625 53.5 C 42.609375 53.402344 39.558594 56.457031 39.625 56.8125 C 39.625 56.8125 43.625 60.75 43.625 60.75 C 43.8125 61.117188 44.511719 61.746094 44.5 61.8125 C 44.460938 62.03125 41.8125 64.515625 41.375 65 C 40.941406 65.480469 39.882812 66.066406 40 66.8125 C 40.058594 67.1875 42.539062 69.511719 42.9375 70 C 42.9375 70 47.9375 65.125 47.9375 65.125 C 47.9375 65.125 52.4375 69.75 52.4375 69.75 C 52.4375 69.75 55.625 66.1875 55.625 66.1875 C 55.625 66.1875 51.375 61.5625 51.375 61.5625 C 51.894531 60.796875 56.246094 57.03125 56.125 56.4375 C 56.082031 56.222656 53.355469 53.71875 52.9375 53.375 Z M 74.9375 53.625 C 74.9375 53.625 71.75 56.8125 71.75 56.8125 C 72.203125 57.691406 76.527344 61.335938 76.5 61.9375 C 76.488281 62.15625 75.09375 63.695312 75.125 62.8125 C 75.128906 62.699219 76.015625 62.195312 75.6875 62 C 75.007812 62.914062 71.414062 65.675781 71.75 66.6875 C 71.894531 67.117188 74.710938 70.09375 75.1875 70 C 75.558594 69.925781 79.558594 65.324219 80.0625 65.375 C 80.0625 65.375 84.9375 70.125 84.9375 70.125 C 85.484375 69.371094 88.144531 67.398438 88 66.5625 C 87.882812 65.867188 83.386719 62.296875 83.5 61.6875 C 84.140625 60.8125 88.183594 57.511719 88 56.6875 C 87.949219 56.453125 85.046875 53.671875 84.6875 53.75 C 84.277344 53.839844 80.839844 58.136719 79.8125 58.375 Z M 55.8125 65.875 C 55.8125 67.816406 53.59375 68.796875 52.6875 70.375 C 53.445312 70.621094 56.40625 67.195312 56.375 66.9375 C 56.363281 66.855469 55.644531 66.351562 55.8125 65.875 Z M 55.8125 65.875 "/>
<path style=" stroke:none;fill-rule:nonzero;fill:rgb(90.588236%,90.980393%,91.37255%);fill-opacity:1;" d="M 55.8125 65.875 C 55.644531 66.351562 56.363281 66.855469 56.375 66.9375 C 56.40625 67.195312 53.445312 70.621094 52.6875 70.375 C 53.59375 68.796875 55.8125 67.816406 55.8125 65.875 Z M 55.8125 65.875 "/>
</g>
</svg>
