<?xml version="1.0" encoding="UTF-8"?>
<svg xmlns="http://www.w3.org/2000/svg" xmlns:xlink="http://www.w3.org/1999/xlink" width="128" height="128" viewBox="0 0 128 128" version="1.1">
<defs>
<linearGradient id="linear0" gradientUnits="userSpaceOnUse" x1="631.66803" y1="465.125" x2="386.877991" y2="759.687012" gradientTransform="matrix(0.125,0,0,0.125,0,0)">
<stop offset="0.289817" style="stop-color:rgb(99.607843%,99.215686%,99.607843%);stop-opacity:1;"/>
<stop offset="1" style="stop-color:rgb(88.235295%,87.843138%,95.686275%);stop-opacity:1;"/>
</linearGradient>
</defs>
<g id="surface1">
<path style=" stroke:none;fill-rule:nonzero;fill:rgb(75.294119%,75.294119%,74.509805%);fill-opacity:1;" d="M 91 15.125 C 90.769531 15.59375 90.324219 15.339844 90.625 16 C 90.464844 15.898438 89.78125 15.378906 89.75 15.8125 C 90.457031 16.566406 90.863281 17.589844 90.75 18.625 C 89.707031 20.085938 89.265625 22.269531 86.75 22 C 86.859375 21.824219 87.097656 20.90625 87.3125 20.875 C 87.394531 20.863281 87.441406 21.363281 88.3125 20.875 C 88.710938 20.648438 90.066406 18.992188 90.125 18.5625 C 90.148438 18.386719 90.191406 17.984375 89.875 18.1875 C 89.808594 19.0625 89.1875 19.957031 88.4375 20.375 C 88.6875 19.441406 89.964844 18.910156 89.75 17.8125 C 89.722656 17.671875 88.914062 16.703125 88.6875 16.625 C 88.660156 16.617188 88.429688 16.75 88.125 16.75 C 88.097656 16.75 87.890625 16.53125 87.5625 16.625 C 87.382812 16.675781 85.542969 19.5 85.5 19.6875 C 85.445312 19.921875 85.378906 20.5 85.875 20.375 C 85.683594 20.640625 85.125 21.691406 85 22 C 82.742188 19.585938 84.992188 17.828125 86.375 15.9375 C 86.429688 15.863281 86.320312 15.394531 86.375 15.3125 C 87.300781 13.976562 89.804688 14.476562 91 15.125 Z M 91 15.125 "/>
<path style=" stroke:none;fill-rule:nonzero;fill:rgb(74.509805%,74.509805%,74.117649%);fill-opacity:1;" d="M 40.625 15 C 41.542969 15.429688 41.21875 15.882812 41.375 16.0625 C 42.898438 17.808594 45.171875 20.027344 42.875 22.25 C 42.410156 21.46875 42.082031 19.480469 40.875 21 C 40.554688 20.160156 41.863281 19.546875 42.3125 20.5 C 42.40625 20.441406 42.394531 20.058594 42.375 19.9375 C 42.34375 19.757812 40.613281 16.925781 40.4375 16.875 C 39.53125 16.605469 39.042969 18.296875 39.125 18.9375 C 39.15625 19.175781 40.65625 21.1875 40.875 21 C 40.277344 21.75 40.839844 21.574219 41.25 22.25 C 39.214844 22.449219 36.96875 20.195312 37.125 18.1875 C 37.191406 17.351562 38.15625 16.058594 38.125 15.9375 C 38.09375 15.820312 37.757812 15.898438 37.75 15.875 C 37.613281 15.539062 37.589844 15.214844 37.5 14.875 C 38.363281 14.679688 39.839844 14.628906 40.625 15 Z M 40.625 15 "/>
<path style=" stroke:none;fill-rule:nonzero;fill:rgb(90.980393%,90.588236%,90.196079%);fill-opacity:1;" d="M 37.75 15.875 C 37.75 15.875 35.6875 17.5 35.6875 17.5 C 34.628906 16.277344 36.410156 15.121094 37.5 14.875 C 37.589844 15.214844 37.613281 15.539062 37.75 15.875 Z M 37.75 15.875 "/>
<path style=" stroke:none;fill-rule:nonzero;fill:rgb(88.235295%,88.235295%,87.843138%);fill-opacity:1;" d="M 90.625 16 C 90.324219 15.339844 90.769531 15.59375 91 15.125 C 91.949219 15.640625 93.070312 16.410156 91.8125 17.375 C 91.449219 16.878906 91.160156 16.347656 90.625 16 Z M 90.625 16 "/>
<path style=" stroke:none;fill-rule:nonzero;fill:rgb(83.137256%,83.529413%,83.92157%);fill-opacity:1;" d="M 86.75 22 C 86.746094 22.007812 86.710938 21.992188 86.625 22.125 C 86.015625 23.050781 85.8125 23.78125 84.5 23.6875 C 84.46875 23.210938 84.71875 22.804688 84.875 22.375 C 84.917969 22.257812 84.960938 22.09375 85 22 C 85.125 21.691406 85.683594 20.640625 85.875 20.375 C 86.933594 18.914062 86.910156 20.433594 87.4375 20.375 C 87.746094 20.339844 88.921875 18.605469 88.875 18.1875 C 88.863281 18.089844 88.058594 17.082031 88.125 16.75 C 88.429688 16.75 88.660156 16.617188 88.6875 16.625 C 88.914062 16.703125 89.722656 17.671875 89.75 17.8125 C 89.964844 18.910156 88.6875 19.441406 88.4375 20.375 C 89.1875 19.957031 89.808594 19.0625 89.875 18.1875 C 90.191406 17.984375 90.148438 18.386719 90.125 18.5625 C 90.066406 18.992188 88.710938 20.648438 88.3125 20.875 C 87.441406 21.363281 87.394531 20.863281 87.3125 20.875 C 87.097656 20.90625 86.859375 21.824219 86.75 22 Z M 86.75 22 "/>
<path style=" stroke:none;fill-rule:nonzero;fill:rgb(95.686275%,95.294118%,96.078432%);fill-opacity:1;" d="M 42.875 22.25 C 43.648438 23.542969 43.613281 22.609375 44.9375 22.875 C 46.003906 23.089844 48.328125 26.128906 48.5 27.1875 C 48.699219 28.410156 47.984375 29.140625 48 29.5625 C 48.003906 29.695312 49.078125 31.457031 49.25 31.875 C 49.355469 32.125 49.855469 33.175781 49.875 33.25 C 49.972656 33.628906 50.023438 34.039062 50 34.4375 C 48.878906 35.292969 48.84375 34.441406 48.25 33.6875 C 48.070312 34.355469 47.871094 35.113281 48 35.8125 C 48.035156 36.011719 49.609375 39.292969 49.75 39.4375 C 49.78125 39.472656 50.503906 39.734375 50.625 39.75 C 51.292969 39.832031 51.03125 39.421875 51.75 39.5 C 51.402344 40 51.058594 40.539062 51.25 41.125 C 48.660156 41.644531 46.199219 36.257812 46.5 34.4375 C 46.542969 34.175781 46.960938 33.457031 47.125 33.1875 C 47.394531 32.746094 47.863281 32.730469 47.875 32.6875 C 47.921875 32.5 46.820312 30.28125 46.6875 30.25 C 46.382812 30.175781 45.855469 30.730469 44.5 30.125 C 44.5 30.125 45.125 29.9375 45.125 29.9375 C 44.4375 29.667969 44.542969 28.996094 44.375 28.6875 C 43.9375 27.890625 42.328125 26 42.75 25.0625 C 42.792969 24.964844 43.570312 24.929688 43.5 24.5625 C 43.5 24.5625 42 23.875 42 23.875 C 41.992188 23.785156 41.347656 22.414062 41.25 22.25 C 40.839844 21.574219 40.277344 21.75 40.875 21 C 42.082031 19.480469 42.410156 21.46875 42.875 22.25 Z M 44.3125 24.125 C 44.171875 24.210938 44.847656 25.367188 44.0625 25.625 C 43.433594 25.832031 43.261719 25.007812 42.875 25.3125 C 43.292969 26.09375 44.769531 29.433594 45.8125 29.125 C 46.066406 29.050781 46.105469 28.230469 46.4375 28.125 C 46.480469 28.113281 46.863281 28.59375 47.125 28.0625 C 47.277344 27.308594 44.996094 23.710938 44.3125 24.125 Z M 48.3125 37.875 C 48.3125 37.875 48.5625 38.5 48.5625 38.5 C 48.5625 38.5 48.9375 38.875 48.9375 38.875 C 49.023438 38.5 48.445312 38.207031 48.3125 37.875 Z M 48.3125 37.875 "/>
<path style=" stroke:none;fill-rule:nonzero;fill:rgb(73.725492%,73.725492%,74.117649%);fill-opacity:1;" d="M 80.125 32 C 80.117188 32.019531 79.863281 31.957031 79.75 32.1875 C 79.722656 32.242188 79.8125 32.878906 79.625 33.375 C 78.945312 35.171875 77.722656 34.601562 78.25 32.75 C 78.351562 32.398438 78.714844 31.878906 78.875 31.5 C 79.054688 31.070312 79.984375 29.554688 80 29.4375 C 80.0625 29.007812 79.679688 28.640625 79.625 28.125 C 80.011719 27.566406 80.109375 26.566406 80.5 26.0625 C 80.964844 25.460938 80.730469 26.503906 81.125 26.0625 C 81.191406 25.988281 81.429688 25.550781 81.375 25.4375 C 81.304688 25.339844 81.023438 25.628906 81 25.4375 C 80.980469 25.285156 82.730469 23.3125 83.125 23.1875 C 83.125 23.1875 81.875 23.9375 81.875 23.9375 C 81.875 23.9375 79.5 27.25 79.5 27.25 C 79.566406 26.386719 80.074219 25.714844 80.5 25 C 81.503906 23.3125 82.722656 21.90625 84.875 22.375 C 84.71875 22.804688 84.46875 23.210938 84.5 23.6875 C 85.8125 23.78125 86.015625 23.050781 86.625 22.125 C 86.800781 22.566406 86.148438 23.191406 86.125 23.4375 C 86.070312 23.980469 86.644531 24.644531 86.5 25.6875 C 86.378906 26.566406 84.390625 29.457031 83.5625 29.875 C 82.359375 30.484375 81.558594 29.929688 81.3125 30 C 81.199219 30.03125 80.242188 31.765625 80.125 32 Z M 83.8125 23.375 C 82.953125 23.386719 80.378906 27.480469 80.9375 27.875 C 81.035156 27.941406 81.667969 27.804688 81.8125 27.875 C 81.945312 27.9375 82.003906 28.664062 82.3125 28.75 C 83.390625 29.050781 85.484375 24.632812 85.0625 24.375 C 84.691406 25.695312 83.3125 25.003906 83.5 24.0625 C 83.535156 23.894531 84.226562 23.65625 83.8125 23.375 Z M 83.8125 23.375 "/>
<path style=" stroke:none;fill-rule:nonzero;fill:rgb(90.980393%,90.980393%,91.37255%);fill-opacity:1;" d="M 79.625 28.125 C 79.59375 27.828125 79.472656 27.59375 79.5 27.25 C 79.5 27.25 81.875 23.9375 81.875 23.9375 C 81.875 23.9375 83.125 23.1875 83.125 23.1875 C 82.730469 23.3125 80.980469 25.285156 81 25.4375 C 81.023438 25.628906 81.304688 25.339844 81.375 25.4375 C 81.429688 25.550781 81.191406 25.988281 81.125 26.0625 C 80.730469 26.503906 80.964844 25.460938 80.5 26.0625 C 80.109375 26.566406 80.011719 27.566406 79.625 28.125 Z M 79.625 28.125 "/>
<path style=" stroke:none;fill-rule:nonzero;fill:rgb(69.411767%,69.411767%,68.235296%);fill-opacity:1;" d="M 44.5 30.125 C 43.210938 29.546875 41.3125 26.597656 41.5 25.1875 C 41.550781 24.804688 42.035156 24.355469 42 23.875 C 42 23.875 43.5 24.5625 43.5 24.5625 C 43.570312 24.929688 42.792969 24.964844 42.75 25.0625 C 42.328125 26 43.9375 27.890625 44.375 28.6875 C 44.542969 28.996094 44.4375 29.667969 45.125 29.9375 Z M 44.5 30.125 "/>
<path style=" stroke:none;fill-rule:nonzero;fill:rgb(89.803922%,89.411765%,90.588236%);fill-opacity:1;" d="M 78.875 31.5 C 78.714844 31.878906 78.351562 32.398438 78.25 32.75 C 77.28125 32.195312 75.324219 36.695312 75.25 37.1875 C 75.183594 37.609375 75.375 37.886719 75.375 38.25 C 75.375 38.5625 75.710938 39.246094 75.1875 39.375 C 74.949219 39.433594 74.46875 38.628906 74.125 38.875 C 73.28125 37.132812 75.460938 32.1875 77.1875 31.625 C 77.683594 31.464844 78.355469 31.507812 78.875 31.5 Z M 78.875 31.5 "/>
<path style=" stroke:none;fill-rule:nonzero;fill:rgb(90.196079%,89.803922%,90.980393%);fill-opacity:1;" d="M 52.875 40.5 C 52.378906 39.765625 52.667969 39.597656 51.75 39.5 C 51.03125 39.421875 51.292969 39.832031 50.625 39.75 C 51.324219 37.871094 52.3125 39.257812 52.4375 39.25 C 53.601562 39.183594 51.007812 33.59375 50.5625 33.25 C 50.464844 33.175781 49.933594 32.992188 49.875 33.25 C 49.855469 33.175781 49.355469 32.125 49.25 31.875 C 51.851562 30.753906 54.449219 37.023438 54.25 38.5625 C 54.152344 39.308594 53.429688 40.046875 52.875 40.5 Z M 52.875 40.5 "/>
<path style=" stroke:none;fill-rule:nonzero;fill:rgb(92.941177%,92.54902%,94.117647%);fill-opacity:1;" d="M 80.125 32 C 80.425781 32.679688 81.171875 33.121094 81.375 33.875 C 81.085938 34.292969 81.335938 34.976562 81.25 35.4375 C 81.007812 36.710938 79.242188 38.917969 78.125 39.125 C 78.902344 37.308594 80.628906 35.421875 79.625 33.375 C 79.8125 32.878906 79.722656 32.242188 79.75 32.1875 C 79.863281 31.957031 80.117188 32.019531 80.125 32 Z M 80.125 32 "/>
<path style=" stroke:none;fill-rule:nonzero;fill:url(#linear0);" d="M 85.625 91 C 85.296875 91.058594 85.320312 90.800781 85.125 91.0625 C 84.71875 91.601562 87.105469 96.277344 86.125 97.4375 C 86.960938 97.574219 86.15625 96.085938 87 96.25 C 86.972656 96.847656 86.796875 97.613281 86.5 98.125 C 86.09375 98.820312 84.925781 99.554688 84.1875 99.875 C 77.472656 102.796875 68.710938 104.039062 61.8125 106.875 C 58.859375 107.195312 57.53125 106.027344 56.875 103.25 C 54.195312 91.910156 53.359375 77.957031 51.375 66.1875 C 51.257812 65.503906 50.878906 64.835938 50.75 64.125 C 50.625 63.429688 50.304688 62.652344 50.25 61.9375 C 49.878906 57.269531 51.984375 52.789062 55.75 50.0625 C 54.128906 49.433594 51.730469 46.847656 52 45.0625 C 52.058594 44.675781 52.78125 43.910156 52.75 43.5625 C 52.722656 43.269531 51.332031 41.371094 51.25 41.125 C 51.058594 40.539062 51.402344 40 51.75 39.5 C 52.667969 39.597656 52.378906 39.765625 52.875 40.5 C 53.101562 40.832031 54.160156 42.964844 54.3125 43 C 54.394531 43.019531 55.105469 42.640625 55.9375 42.875 C 57.386719 43.285156 59.621094 46.566406 59.5625 48.125 C 61.785156 47.316406 64.132812 47.304688 66.4375 47.625 C 66.863281 47.683594 67.96875 48.230469 68.1875 48.25 C 68.644531 48.289062 68.480469 48.007812 68.5 48 C 68.582031 47.96875 68.679688 48.132812 68.6875 48.125 C 69.136719 47.648438 68.9375 46.964844 69.1875 46.375 C 69.1875 46.375 69.5 47.1875 69.5 47.1875 C 69.570312 47.019531 69.476562 46.113281 69.5 46.0625 C 69.574219 45.90625 71.46875 43.859375 71.8125 43.625 C 72.671875 43.039062 72.863281 43.65625 73.75 42.375 C 73.90625 42.148438 75.019531 40.074219 75 39.9375 C 74.988281 39.871094 74.324219 39.289062 74.125 38.875 C 74.46875 38.628906 74.949219 39.433594 75.1875 39.375 C 75.710938 39.246094 75.375 38.5625 75.375 38.25 C 75.683594 38.902344 76.046875 38.167969 76.6875 38.375 C 77.007812 38.480469 77.289062 39.339844 77.4375 39.375 C 77.523438 39.394531 77.894531 39.167969 78.125 39.125 C 79.242188 38.917969 81.007812 36.710938 81.25 35.4375 C 81.335938 34.976562 81.085938 34.292969 81.375 33.875 C 81.878906 35.738281 79.785156 39.769531 77.9375 40.5 C 77.464844 40.6875 76.625 40.597656 76.5625 40.625 C 76.433594 40.679688 75.144531 42.921875 75.125 43.0625 C 75.054688 43.613281 75.660156 43.953125 75.75 44.4375 C 76.152344 46.605469 73.082031 49.882812 70.75 49.5625 C 75.699219 52.457031 79.078125 58.507812 77.625 64.3125 C 80.199219 73.234375 83.089844 82.070312 85.625 91 Z M 69.875 47.625 C 69.417969 48.472656 68.691406 48.851562 68.625 49.875 C 68.609375 49.871094 68.691406 49.972656 68.375 50 C 68.363281 50 68.421875 49.792969 68.3125 49.75 C 68.070312 49.992188 67.65625 50.398438 67.625 50.75 C 67.625 50.75 67.5 49.9375 67.5 49.9375 C 67.5 49.9375 67.1875 49.75 67.1875 49.75 C 67.1875 49.75 64.625 52.8125 64.625 52.8125 C 65.84375 54.5625 66.621094 51.890625 67.625 51 C 67.710938 51.234375 67.984375 51.234375 68 51.25 C 67.570312 52.109375 66.558594 52.773438 66.3125 53.75 C 66.875 54.011719 68.648438 51.980469 68.625 51.6875 C 68.597656 51.339844 68.027344 51.277344 68 51.25 C 68.042969 51.164062 68.09375 51.089844 68.125 51 C 69.277344 51.675781 69.019531 51.269531 69.625 50.5 C 69.808594 50.269531 70.996094 48.621094 71 48.5 C 71.171875 48.515625 71.332031 48.582031 71.5 48.625 C 73.023438 49.011719 75.253906 46.261719 75.0625 44.875 C 74.734375 46.015625 73.480469 47.851562 72.375 48.375 C 72.375 48.375 71.625 48.3125 71.625 48.3125 C 72.785156 47.308594 74.585938 45.769531 74.1875 44.125 C 73.601562 45.457031 72.828125 45.023438 72.1875 44 C 72.007812 44.003906 70.191406 46.34375 70 46.6875 C 69.796875 47.050781 69.898438 47.582031 69.875 47.625 Z M 55.3125 44.375 C 55.316406 45.652344 54.457031 45.667969 53.5625 45.125 C 53.03125 45.546875 55.84375 48.855469 56.3125 48.75 C 56.558594 48.695312 56.417969 47.976562 56.875 48.1875 C 56.875 48.1875 56.6875 49.125 56.6875 49.125 C 56.6875 49.125 57.1875 48.125 57.1875 48.125 C 57.1875 48.125 57.75 48.3125 57.75 48.3125 C 57.75 48.3125 57.25 47.8125 57.25 47.8125 C 57.25 47.8125 57.9375 48.125 57.9375 48.125 C 58.414062 47.765625 55.6875 44.078125 55.3125 44.375 Z M 52.6875 45.125 C 52.648438 46.738281 54.605469 49.019531 56.1875 49.375 C 56.125 48.984375 55.351562 48.867188 55.0625 48.625 C 54.082031 47.804688 53.109375 46.335938 52.6875 45.125 Z M 63 54 C 63 54 62.875 53.6875 62.875 53.6875 C 59.328125 54.214844 58.289062 59.015625 61.3125 61 C 65.097656 63.484375 69.628906 59.507812 67.5 55.4375 C 65.886719 56.339844 65.910156 57.53125 63.875 56.5 C 64.925781 56.0625 63.160156 54.921875 63.25 54.3125 C 63.3125 53.910156 67.710938 48.457031 68.75 48.4375 C 68.699219 47.910156 67.046875 49.160156 66.9375 49.25 C 65.546875 50.398438 64.242188 52.671875 63.375 53.9375 C 63.113281 54.320312 63.011719 53.984375 63 54 Z M 70.4375 50 C 70.4375 50 69.1875 52.5 69.1875 52.5 C 70.058594 51.949219 70.753906 51.136719 70.4375 50 Z M 65.125 55.375 C 65.15625 55.347656 65.371094 54.753906 65.625 54.6875 C 63.132812 52.300781 63.648438 56.257812 65 55.5 C 65.058594 55.660156 65.257812 55.890625 65.4375 55.875 C 65.714844 55.847656 69.125 52.355469 69.375 51.9375 C 69.410156 51.875 69.792969 51.222656 69.4375 51.25 Z M 65.125 55.375 "/>
<path style=" stroke:none;fill-rule:nonzero;fill:rgb(41.960785%,41.568628%,40.784314%);fill-opacity:1;" d="M 48.3125 37.875 C 48.445312 38.207031 49.023438 38.5 48.9375 38.875 C 48.9375 38.875 48.5625 38.5 48.5625 38.5 Z M 48.3125 37.875 "/>
<path style=" stroke:none;fill-rule:nonzero;fill:rgb(90.980393%,90.588236%,91.37255%);fill-opacity:1;" d="M 73.75 42.375 C 72.863281 43.65625 72.671875 43.039062 71.8125 43.625 C 71.46875 43.859375 69.574219 45.90625 69.5 46.0625 C 69.476562 46.113281 69.570312 47.019531 69.5 47.1875 C 69.5 47.1875 69.1875 46.375 69.1875 46.375 C 68.9375 46.964844 69.136719 47.648438 68.6875 48.125 C 68.679688 48.132812 68.582031 47.96875 68.5 48 C 67.867188 45.402344 71.042969 41.804688 73.75 42.375 Z M 73.75 42.375 "/>
<path style=" stroke:none;fill-rule:nonzero;fill:rgb(95.686275%,95.686275%,95.294118%);fill-opacity:1;" d="M 71.5 48.625 C 71.753906 48.539062 72.152344 48.480469 72.375 48.375 C 73.480469 47.851562 74.734375 46.015625 75.0625 44.875 C 75.253906 46.261719 73.023438 49.011719 71.5 48.625 Z M 71.5 48.625 "/>
<path style=" stroke:none;fill-rule:nonzero;fill:rgb(95.294118%,95.294118%,94.509804%);fill-opacity:1;" d="M 52.6875 45.125 C 53.109375 46.335938 54.082031 47.804688 55.0625 48.625 C 55.351562 48.867188 56.125 48.984375 56.1875 49.375 C 54.605469 49.019531 52.648438 46.738281 52.6875 45.125 Z M 52.6875 45.125 "/>
<path style=" stroke:none;fill-rule:nonzero;fill:rgb(98.431373%,98.431373%,98.431373%);fill-opacity:1;" d="M 71 48.5 C 70.996094 48.621094 69.808594 50.269531 69.625 50.5 C 69.621094 50.074219 69.0625 49.941406 68.625 49.875 C 68.691406 48.851562 69.417969 48.472656 69.875 47.625 C 70.253906 47.398438 71.015625 48.152344 71 48.5 Z M 71 48.5 "/>
<path style=" stroke:none;fill-rule:nonzero;fill:rgb(92.54902%,92.54902%,93.333334%);fill-opacity:1;" d="M 63.875 56.5 C 62.707031 55.90625 62.191406 55.210938 63 54 C 63.011719 53.984375 63.113281 54.320312 63.375 53.9375 C 64.242188 52.671875 65.546875 50.398438 66.9375 49.25 C 67.046875 49.160156 68.699219 47.910156 68.75 48.4375 C 67.710938 48.457031 63.3125 53.910156 63.25 54.3125 C 63.160156 54.921875 64.925781 56.0625 63.875 56.5 Z M 63.875 56.5 "/>
<path style=" stroke:none;fill-rule:nonzero;fill:rgb(90.196079%,90.196079%,90.980393%);fill-opacity:1;" d="M 67.625 50.75 C 67.617188 50.824219 67.609375 50.953125 67.625 51 C 66.621094 51.890625 65.84375 54.5625 64.625 52.8125 C 64.625 52.8125 67.1875 49.75 67.1875 49.75 C 67.1875 49.75 67.5 49.9375 67.5 49.9375 Z M 67.625 50.75 "/>
<path style=" stroke:none;fill-rule:nonzero;fill:rgb(59.607846%,58.823532%,57.647061%);fill-opacity:1;" d="M 68.375 50 C 68.207031 50.3125 68.242188 50.671875 68.125 51 C 68.09375 51.089844 68.042969 51.164062 68 51.25 C 67.984375 51.234375 67.710938 51.234375 67.625 51 C 67.609375 50.953125 67.617188 50.824219 67.625 50.75 C 67.65625 50.398438 68.070312 49.992188 68.3125 49.75 C 68.421875 49.792969 68.363281 50 68.375 50 Z M 68.375 50 "/>
<path style=" stroke:none;fill-rule:nonzero;fill:rgb(93.333334%,92.941177%,93.333334%);fill-opacity:1;" d="M 69.625 50.5 C 69.019531 51.269531 69.277344 51.675781 68.125 51 C 68.242188 50.671875 68.207031 50.3125 68.375 50 C 68.691406 49.972656 68.609375 49.871094 68.625 49.875 C 69.0625 49.941406 69.621094 50.074219 69.625 50.5 Z M 69.625 50.5 "/>
<path style=" stroke:none;fill-rule:nonzero;fill:rgb(94.901961%,94.901961%,95.686275%);fill-opacity:1;" d="M 70.4375 50 C 70.753906 51.136719 70.058594 51.949219 69.1875 52.5 Z M 70.4375 50 "/>
<path style=" stroke:none;fill-rule:nonzero;fill:rgb(97.254902%,97.254902%,97.254902%);fill-opacity:1;" d="M 68 51.25 C 68.027344 51.277344 68.597656 51.339844 68.625 51.6875 C 68.648438 51.980469 66.875 54.011719 66.3125 53.75 C 66.558594 52.773438 67.570312 52.109375 68 51.25 Z M 68 51.25 "/>
<path style=" stroke:none;fill-rule:nonzero;fill:rgb(96.862745%,96.470588%,96.470588%);fill-opacity:1;" d="M 65 55.5 C 65.007812 55.496094 65.035156 55.449219 65.125 55.375 C 65.125 55.375 69.4375 51.25 69.4375 51.25 C 69.792969 51.222656 69.410156 51.875 69.375 51.9375 C 69.125 52.355469 65.714844 55.847656 65.4375 55.875 C 65.257812 55.890625 65.058594 55.660156 65 55.5 Z M 65 55.5 "/>
<path style=" stroke:none;fill-rule:nonzero;fill:rgb(39.215687%,35.294119%,45.09804%);fill-opacity:1;" d="M 56.875 103.25 C 55.65625 102.992188 54.539062 102.410156 53.375 102 C 53.375 102 54.0625 101.875 54.0625 101.875 C 53.714844 100.898438 53.734375 97.644531 53.375 96.9375 C 53.09375 96.382812 52.90625 96.980469 52.625 95.9375 C 51.457031 91.636719 51.050781 84.859375 50.25 80.1875 C 49.832031 77.757812 48.9375 74.96875 48.625 72.6875 C 48.570312 72.289062 48.992188 71.675781 48.875 71.4375 C 48.828125 71.34375 48.4375 71.691406 48.5 70.625 C 49.113281 68.652344 49.640625 66.480469 50.375 64.5625 C 50.453125 64.355469 50.523438 64.195312 50.75 64.125 C 50.878906 64.835938 51.257812 65.503906 51.375 66.1875 C 53.359375 77.957031 54.195312 91.910156 56.875 103.25 Z M 56.875 103.25 "/>
<path style=" stroke:none;fill-rule:nonzero;fill:rgb(98.431373%,98.039216%,98.431373%);fill-opacity:1;" d="M 53.375 102 C 50.949219 101.148438 42.980469 99.085938 41.75 97.3125 C 40.871094 96.042969 41.078125 94.976562 41.375 93.5625 C 42.839844 86.617188 46.320312 77.640625 48.5 70.625 C 48.4375 71.691406 48.828125 71.34375 48.875 71.4375 C 48.992188 71.675781 48.570312 72.289062 48.625 72.6875 C 48.9375 74.96875 49.832031 77.757812 50.25 80.1875 C 51.050781 84.859375 51.457031 91.636719 52.625 95.9375 C 52.90625 96.980469 53.09375 96.382812 53.375 96.9375 C 53.734375 97.644531 53.714844 100.898438 54.0625 101.875 Z M 53.375 102 "/>
<path style=" stroke:none;fill-rule:nonzero;fill:rgb(95.686275%,94.901961%,94.509804%);fill-opacity:1;" d="M 85.625 91 C 86.078125 92.59375 87.074219 94.625 87 96.25 C 86.15625 96.085938 86.960938 97.574219 86.125 97.4375 C 87.105469 96.277344 84.71875 91.601562 85.125 91.0625 C 85.320312 90.800781 85.296875 91.058594 85.625 91 Z M 85.625 91 "/>
</g>
</svg>
