<?xml version="1.0" encoding="UTF-8"?>
<svg xmlns="http://www.w3.org/2000/svg" xmlns:xlink="http://www.w3.org/1999/xlink" width="128" height="128" viewBox="0 0 128 128" version="1.1">
<g id="surface1">
<path style=" stroke:none;fill-rule:nonzero;fill:rgb(87.058824%,89.411765%,91.764706%);fill-opacity:1;" d="M 81.375 40.125 C 86.578125 42.226562 90.53125 44.863281 95.125 48 C 98.289062 50.699219 101.300781 53.574219 104.375 56.375 C 105.964844 57.824219 107.527344 59.308594 109.125 60.75 C 110.929688 62.378906 112.828125 63.921875 114.625 65.5625 C 114.625 65.5625 114.625 66.5 114.625 66.5 C 114.457031 66.523438 114.453125 66.726562 114.125 66.75 C 109.378906 67.09375 104.230469 66.496094 99.4375 66.75 C 88.84375 57.714844 78.21875 48.179688 63.3125 48.5 C 51.890625 48.746094 42.847656 54.765625 34.4375 61.5 C 32.769531 62.835938 29.910156 66.121094 28.125 66.875 C 28.125 66.875 13.6875 66.75 13.6875 66.75 C 13.164062 66.378906 13.285156 66.171875 13.25 65.625 C 17.675781 61.753906 22.050781 57.757812 26.375 53.75 C 26.558594 54.121094 26.535156 53.972656 26.75 53.8125 C 30.394531 51.105469 33.351562 47.347656 37.3125 44.75 C 37.488281 44.632812 38.15625 44.398438 38.5 44.1875 C 38.519531 44.175781 38.296875 43.910156 38.5625 43.75 C 38.65625 43.691406 39.089844 43.808594 39.1875 43.75 C 42.445312 41.84375 46.007812 40.074219 49.375 38.875 C 50.191406 38.582031 51.042969 38.386719 51.875 38.125 C 57.003906 37.101562 62.183594 36.382812 67.4375 36.75 C 72.296875 37.089844 76.894531 38.316406 81.375 40.125 Z M 81.375 40.125 "/>
<path style=" stroke:none;fill-rule:nonzero;fill:rgb(98.431373%,98.823529%,99.215686%);fill-opacity:1;" d="M 62.1875 54.125 C 76.363281 52.570312 82.175781 71.292969 68.8125 76.75 C 51.523438 83.8125 44.214844 56.09375 62.1875 54.125 Z M 62.1875 54.125 "/>
<path style=" stroke:none;fill-rule:nonzero;fill:rgb(95.686275%,96.862745%,97.254902%);fill-opacity:1;" d="M 71.375 82.375 C 79.554688 80.78125 84.054688 77.429688 90.4375 72.5 C 91.167969 71.9375 95.355469 68.203125 95.6875 68.125 C 96.757812 67.875 97.121094 69.195312 97.9375 69.375 C 101.199219 70.09375 106.894531 68.746094 110.4375 69.375 C 110.628906 69.425781 111.113281 69.882812 111.125 70.0625 C 111.1875 70.960938 99.070312 80.453125 97.4375 81.75 C 86.019531 90.824219 74.652344 95.957031 59.4375 94.625 C 41.769531 93.078125 31.117188 82.6875 18.6875 71.625 C 18.015625 71.027344 16.496094 70.609375 17 69.625 C 17.421875 69.628906 17.320312 69.375 17.875 69.375 C 17.957031 69.375 18.042969 69.375 18.125 69.375 C 18.867188 70.445312 20.222656 71.453125 21.25 72.375 C 27.566406 78.046875 33.800781 84.089844 41.4375 88 C 42.015625 88.296875 45.105469 89.832031 45.5 89.75 C 55.476562 94.148438 67.246094 94.492188 77.6875 91.5 C 78.570312 91.246094 85.085938 88.863281 85.25 88.4375 C 85.449219 87.917969 84.632812 86.421875 84.25 86.0625 C 83.550781 85.410156 81.632812 84.769531 80.9375 84.25 C 80.449219 83.882812 80.140625 82.894531 79.375 82.6875 C 79.375 82.6875 79.6875 81.375 79.6875 81.375 C 74.386719 83.5625 68.71875 84.824219 62.9375 84.625 C 52.847656 84.28125 44.9375 80.214844 37.1875 74.125 C 35.859375 73.082031 33.449219 70.425781 32.3125 69.75 C 30.859375 68.886719 30.421875 70.683594 30 69.375 C 30.710938 69.230469 31.34375 67.910156 32.1875 68.125 C 32.617188 68.234375 37.964844 73.136719 38.9375 73.875 C 48.796875 81.347656 58.921875 84.800781 71.375 82.375 Z M 71.375 82.375 "/>
<path style=" stroke:none;fill-rule:nonzero;fill:rgb(85.882354%,88.627452%,90.980393%);fill-opacity:1;" d="M 30 69.375 C 30.421875 70.683594 30.859375 68.886719 32.3125 69.75 C 33.449219 70.425781 35.859375 73.082031 37.1875 74.125 C 44.9375 80.214844 52.847656 84.28125 62.9375 84.625 C 68.71875 84.824219 74.386719 83.5625 79.6875 81.375 C 79.6875 81.375 79.375 82.6875 79.375 82.6875 C 80.140625 82.894531 80.449219 83.882812 80.9375 84.25 C 81.632812 84.769531 83.550781 85.410156 84.25 86.0625 C 84.632812 86.421875 85.449219 87.917969 85.25 88.4375 C 85.085938 88.863281 78.570312 91.246094 77.6875 91.5 C 67.246094 94.492188 55.476562 94.148438 45.5 89.75 C 47.609375 89.304688 44.660156 86.585938 43.9375 86 C 42.101562 84.515625 39.398438 83.175781 37.4375 81.75 C 35.46875 80.316406 32.828125 78.539062 31.0625 77 C 30.417969 76.4375 25.617188 71.8125 25.5 71.4375 C 25.488281 71.402344 25.945312 70.898438 25.6875 70.75 C 25.4375 70.605469 23.019531 70.984375 22.6875 71.125 C 21.867188 71.476562 21.914062 72.507812 21.25 72.375 C 20.222656 71.453125 18.867188 70.445312 18.125 69.375 C 21.089844 69.378906 27.457031 69.894531 30 69.375 Z M 30 69.375 "/>
<path style=" stroke:none;fill-rule:nonzero;fill:rgb(79.607844%,82.352942%,86.274511%);fill-opacity:1;" d="M 45.5 89.75 C 45.105469 89.832031 42.015625 88.296875 41.4375 88 C 33.800781 84.089844 27.566406 78.046875 21.25 72.375 C 21.914062 72.507812 21.867188 71.476562 22.6875 71.125 C 23.019531 70.984375 25.4375 70.605469 25.6875 70.75 C 25.945312 70.898438 25.488281 71.402344 25.5 71.4375 C 25.617188 71.8125 30.417969 76.4375 31.0625 77 C 32.828125 78.539062 35.46875 80.316406 37.4375 81.75 C 39.398438 83.175781 42.101562 84.515625 43.9375 86 C 44.660156 86.585938 47.609375 89.304688 45.5 89.75 Z M 45.5 89.75 "/>
</g>
</svg>
