<?xml version="1.0" encoding="UTF-8"?>
<svg xmlns="http://www.w3.org/2000/svg" xmlns:xlink="http://www.w3.org/1999/xlink" width="128" height="128" viewBox="0 0 128 128" version="1.1">
<g id="surface1">
<path style=" stroke:none;fill-rule:nonzero;fill:rgb(99.215686%,99.215686%,98.431373%);fill-opacity:1;" d="M 69.5 30.25 C 69.507812 30.289062 69.496094 30.335938 69.5 30.375 C 69.761719 32.269531 69.085938 35.984375 69.5 37.5625 C 69.683594 38.261719 72.496094 38.777344 73.3125 39.125 C 74.132812 39.472656 77.703125 41.5625 78.0625 41.5 C 78.0625 41.5 83.4375 36.125 83.4375 36.125 C 83.4375 36.125 84.0625 36 84.0625 36 C 84.886719 37.253906 91.414062 42.792969 91.625 43.5625 C 91.691406 43.808594 91.605469 44.199219 91.5 44.4375 C 91.5 44.4375 86.125 49.9375 86.125 49.9375 C 86.875 51.265625 87.753906 52.539062 88.375 53.9375 C 88.988281 55.316406 89.179688 56.933594 90 58.125 C 90.089844 58.253906 89.738281 58.460938 90.0625 58.625 C 91.792969 59.117188 96.210938 58.289062 97.5625 58.75 C 97.925781 58.875 97.378906 59.390625 97.375 59.4375 C 97.3125 60.21875 97.421875 61.027344 97.375 61.8125 C 97.773438 61.5 97.367188 60.933594 97.5 60.5625 C 97.539062 60.449219 98.234375 60.433594 98 59.8125 C 98 59.8125 98.375 59.8125 98.375 59.8125 C 98.375 59.8125 98.3125 68.25 98.3125 68.25 C 96.828125 67.898438 97.929688 65.875 97.4375 64.75 C 97.4375 64.75 97.3125 68.125 97.3125 68.125 C 97.3125 68.125 89.625 68.375 89.625 68.375 C 88.472656 68.71875 89.359375 68.785156 89.375 69.375 C 89.382812 69.667969 88.652344 72.410156 88.5 72.8125 C 87.753906 74.75 86.3125 76.257812 85.75 78.1875 C 86.460938 78.871094 91.25 83.121094 91.375 83.5625 C 91.394531 83.636719 91.105469 84.578125 90.8125 84.375 C 90.679688 84.28125 90.855469 83.882812 90.5625 83.75 C 90.089844 83.535156 88.777344 85.71875 88.25 85.9375 C 88.25 85.9375 89.25 86.1875 89.25 86.1875 C 87.828125 87.226562 85.964844 90.199219 84.5625 91 C 84.316406 91.140625 83.644531 91.328125 83.4375 91.25 C 82.507812 90.898438 79.300781 86.363281 78.4375 86 C 78.144531 85.875 77.746094 85.816406 77.4375 85.875 C 77.226562 85.914062 74.328125 87.707031 73.6875 88 C 72.890625 88.367188 69.59375 89.34375 69.375 89.8125 C 68.769531 91.664062 69.761719 96.007812 69.25 97.5625 C 69.144531 97.878906 68.613281 98.027344 68.4375 97.5 C 68.4375 97.5 59.6875 97.625 59.6875 97.625 C 59.6875 97.625 59.4375 96.375 59.4375 96.375 C 59.4375 96.375 58.5625 97.5 58.5625 97.5 C 58.5625 97.5 58.375 90.625 58.375 90.625 C 58.355469 90.460938 58.207031 89.933594 58.125 89.75 C 57.832031 89.09375 55.015625 88.496094 54.1875 88.125 C 53.496094 87.816406 50.300781 85.980469 49.9375 86 C 49.0625 86.050781 46.210938 89.578125 45.3125 90.25 C 45.191406 88.816406 44.664062 89.566406 44.5625 89.5 C 44.363281 89.367188 43.808594 88.507812 43.4375 88.25 C 43.214844 88.09375 42.015625 88 41.875 87.5625 C 41.738281 87.140625 42.542969 85.625 42.1875 85.375 C 41.054688 85.214844 39.683594 85.5 38.8125 84.625 C 38.8125 84.625 38.5 85.0625 38.5 85.0625 C 38.5 85.0625 42.75 89.25 42.75 89.25 C 42.996094 89.660156 43.308594 89.734375 43.5 90.25 C 43.515625 90.292969 43.679688 91.09375 43.4375 91.125 C 43.4375 91.125 37.125 85 37.125 85 C 36.925781 84.773438 36.167969 84.488281 36.125 83.9375 C 36.039062 82.882812 41.140625 79.214844 41.375 78.1875 C 41.554688 77.40625 39.558594 74.105469 39.125 73.0625 C 38.820312 72.328125 38.320312 69.546875 37.6875 69.375 C 35.929688 68.898438 31.765625 69.832031 29.9375 69.375 C 29.601562 69.292969 29.074219 68.65625 29 68.3125 C 28.859375 67.65625 28.9375 59.367188 29.125 58.9375 C 29.179688 58.8125 29.796875 58.285156 29.9375 58.25 C 31.507812 57.851562 36.648438 58.722656 37.8125 58.125 C 38.6875 56.929688 38.894531 55.109375 39.5 53.6875 C 39.878906 52.796875 41.652344 50.144531 41.375 49.4375 C 41.023438 48.539062 36.683594 45.382812 36.25 44.3125 C 36.082031 43.898438 36.175781 43.835938 36.25 43.4375 C 37.347656 42.683594 43.109375 36.128906 43.6875 36 C 43.945312 35.941406 44.09375 36.070312 44.3125 36.125 C 44.3125 36.125 49.6875 41.5 49.6875 41.5 C 51.390625 40.890625 53.0625 39.742188 54.8125 39 C 55.792969 38.585938 58.125 38.414062 58.375 37.3125 C 58.800781 35.449219 57.921875 31.601562 58.375 29.8125 C 58.433594 29.585938 58.960938 29.058594 59.1875 29 C 59.640625 28.886719 68.109375 28.886719 68.5625 29 C 69.0625 29.125 69.414062 29.792969 69.5 30.25 Z M 60.3125 31.375 C 59.191406 31.394531 59.457031 34.078125 59.5 34.9375 C 59.515625 35.226562 59.578125 37.085938 59.625 37.1875 C 59.785156 37.535156 60.835938 37.597656 61 37.1875 C 61.335938 36.339844 60.746094 32.714844 61 31.5625 C 60.769531 31.5 60.558594 31.371094 60.3125 31.375 Z M 83.1875 38.125 C 83.054688 38.105469 81.210938 39.808594 81.25 39.9375 C 81.261719 39.972656 81.777344 40.371094 81.8125 40.375 C 81.941406 40.386719 83.644531 38.6875 83.625 38.5625 C 83.621094 38.53125 83.21875 38.128906 83.1875 38.125 Z M 42.6875 38.75 C 42.472656 38.890625 41.527344 40.007812 41.4375 40 C 41.28125 39.984375 41.3125 39.617188 41.0625 39.625 C 40.613281 39.636719 38 43.148438 37.5 43.6875 C 37.5 43.6875 37.9375 43.75 37.9375 43.75 Z M 56.875 48.75 C 59.003906 51.253906 61.605469 53.433594 63.9375 55.75 C 64.808594 54.882812 71.308594 48.835938 71.375 48.3125 C 71.464844 47.617188 69.992188 47.101562 69.4375 46.875 C 68.367188 46.4375 66.90625 46.128906 65.75 46 C 63.59375 45.761719 58.273438 46.242188 56.5625 47.625 C 55.753906 48.277344 56.628906 48.460938 56.875 48.75 Z M 49.5625 54.125 C 48.523438 54.261719 46.628906 58.921875 46.375 59.9375 C 45.410156 63.800781 45.878906 68.144531 48.0625 71.5 C 48.0625 71.5 57.625 62.0625 57.625 62.0625 C 56.894531 61.007812 50.152344 54.046875 49.5625 54.125 Z M 79.5 55.625 C 79.480469 55.597656 79.519531 55.527344 79.5 55.5 C 79.082031 54.898438 78.640625 53.792969 77.6875 54.25 C 77.6875 54.25 70.125 61.8125 70.125 61.8125 C 70.125 61.8125 79.6875 71.5 79.6875 71.5 C 82.761719 66.855469 82.589844 60.246094 79.5 55.625 Z M 52.8125 54.25 C 52.617188 54.53125 51.925781 54.917969 52 55.3125 C 52.050781 55.582031 55.539062 59.234375 55.8125 59.25 C 56.164062 59.273438 56.765625 57.839844 57.4375 59 Z M 82.75 62.125 C 82.820312 62.628906 82.8125 63.171875 82.875 63.6875 C 84.535156 63.207031 84.015625 64.007812 84.1875 65.25 C 84.457031 64.046875 84.359375 62.828125 84.25 61.625 C 84.203125 61.125 83.71875 57.792969 83.3125 57.75 C 82.34375 58.644531 81.832031 57.898438 82 59.5625 Z M 37.9375 59.125 C 36.230469 59.039062 34.410156 59.578125 32.6875 59.25 C 32.6875 59.25 32.125 59.9375 32.125 59.9375 C 32.59375 59.84375 33.40625 61.046875 33.6875 61.125 C 33.980469 61.207031 39.523438 61.230469 39.8125 61.125 C 39.941406 61.078125 40.117188 59.78125 40.125 59.5625 C 40.089844 59.457031 38.1875 59.136719 37.9375 59.125 Z M 69.8125 62.125 C 69.765625 62.128906 69.011719 62.457031 69 62.5625 C 69 62.5625 70.1875 63.75 70.1875 63.75 C 69.964844 63.253906 70.507812 62.867188 70.5 62.8125 C 70.492188 62.765625 69.859375 62.121094 69.8125 62.125 Z M 45.5625 62.5 C 44.789062 62.398438 44.296875 65.632812 45.75 64.9375 Z M 29.8125 68.25 C 29.875 68.445312 29.839844 68.929688 29.9375 69 C 30.253906 69.222656 36.652344 68.738281 37.6875 69 C 38.480469 69.199219 38.195312 70.339844 39.125 69.4375 C 39.085938 68.945312 38.539062 68.355469 38.0625 68.25 C 35.972656 67.78125 32.097656 68.601562 29.8125 68.25 Z M 63.8125 68.25 C 63.8125 68.25 54.375 77.4375 54.375 77.4375 C 53.757812 78.402344 55.4375 79.304688 56.1875 79.75 C 60.394531 82.25 66.304688 82.332031 70.6875 80.25 C 71.480469 79.875 73.988281 78.542969 73.375 77.5625 C 73.375 77.5625 64.3125 68.375 64.3125 68.375 Z M 68.75 72 C 69.054688 72.324219 71.125 74.484375 71.3125 74.5 C 71.367188 74.503906 72.070312 73.976562 72.25 73.9375 C 72.351562 73.609375 69.894531 71.320312 69.5 71 C 68.933594 70.542969 68.355469 69.742188 67.4375 70 C 66.542969 70.25 68.480469 71.714844 68.75 72 Z M 80.1875 86.25 C 80.242188 86.484375 80.710938 87.0625 81 86.9375 C 80.734375 86.726562 80.53125 86.335938 80.1875 86.25 Z M 80.1875 86.25 "/>
<path style=" stroke:none;fill-rule:nonzero;fill:rgb(89.411765%,90.196079%,87.058824%);fill-opacity:1;" d="M 60.3125 31.375 C 60.558594 31.371094 60.769531 31.5 61 31.5625 C 60.746094 32.714844 61.335938 36.339844 61 37.1875 C 60.835938 37.597656 59.785156 37.535156 59.625 37.1875 C 59.578125 37.085938 59.515625 35.226562 59.5 34.9375 C 59.457031 34.078125 59.191406 31.394531 60.3125 31.375 Z M 60.3125 31.375 "/>
<path style=" stroke:none;fill-rule:nonzero;fill:rgb(92.54902%,92.941177%,90.980393%);fill-opacity:1;" d="M 83.1875 38.125 C 83.21875 38.128906 83.621094 38.53125 83.625 38.5625 C 83.644531 38.6875 81.941406 40.386719 81.8125 40.375 C 81.777344 40.371094 81.261719 39.972656 81.25 39.9375 C 81.210938 39.808594 83.054688 38.105469 83.1875 38.125 Z M 83.1875 38.125 "/>
<path style=" stroke:none;fill-rule:nonzero;fill:rgb(88.235295%,88.627452%,84.705883%);fill-opacity:1;" d="M 42.6875 38.75 C 42.6875 38.75 37.9375 43.75 37.9375 43.75 C 37.9375 43.75 37.5 43.6875 37.5 43.6875 C 38 43.148438 40.613281 39.636719 41.0625 39.625 C 41.3125 39.617188 41.28125 39.984375 41.4375 40 C 41.527344 40.007812 42.472656 38.890625 42.6875 38.75 Z M 42.6875 38.75 "/>
<path style=" stroke:none;fill-rule:nonzero;fill:rgb(85.490197%,86.274511%,84.705883%);fill-opacity:1;" d="M 52.8125 54.25 C 52.8125 54.25 57.4375 59 57.4375 59 C 56.765625 57.839844 56.164062 59.273438 55.8125 59.25 C 55.539062 59.234375 52.050781 55.582031 52 55.3125 C 51.925781 54.917969 52.617188 54.53125 52.8125 54.25 Z M 52.8125 54.25 "/>
<path style=" stroke:none;fill-rule:nonzero;fill:rgb(90.196079%,90.588236%,87.058824%);fill-opacity:1;" d="M 84.25 61.625 C 84.25 61.625 83.8125 60 83.8125 60 C 83.8125 60 82.4375 60.25 82.4375 60.25 C 82.535156 60.875 82.660156 61.496094 82.75 62.125 C 82.75 62.125 82 59.5625 82 59.5625 C 81.832031 57.898438 82.34375 58.644531 83.3125 57.75 C 83.71875 57.792969 84.203125 61.125 84.25 61.625 Z M 84.25 61.625 "/>
<path style=" stroke:none;fill-rule:nonzero;fill:rgb(89.019608%,89.803922%,88.235295%);fill-opacity:1;" d="M 98.75 68.25 C 98.511719 68.75 98.347656 69.230469 97.6875 69.375 C 95.730469 69.800781 92.191406 69.054688 90.0625 69.375 C 89.625 69.511719 88.585938 73.1875 88.25 73.9375 C 87.972656 74.558594 86.128906 77.472656 86.125 77.6875 C 86.097656 78.757812 91.75 82.90625 91.625 84.0625 C 91.5625 84.632812 85.074219 90.484375 84.3125 91.5 C 84.074219 91.582031 83.820312 91.691406 83.5625 91.625 C 83.023438 91.488281 78.765625 86.410156 78.1875 86.25 C 77.417969 86.035156 75.113281 87.726562 74.1875 88.125 C 73.546875 88.402344 69.753906 89.605469 69.625 89.8125 C 69.105469 91.390625 70.125 97.542969 68.9375 98.375 C 68.90625 98.394531 68.464844 98.617188 68.4375 98.625 C 67.972656 98.734375 59.753906 98.734375 59.3125 98.625 C 59.078125 98.566406 58.433594 97.921875 58.375 97.6875 C 57.980469 96.101562 58.597656 92.523438 58.375 90.625 C 58.375 90.625 58.5625 97.5 58.5625 97.5 C 58.5625 97.5 59.4375 96.375 59.4375 96.375 C 59.4375 96.375 59.6875 97.625 59.6875 97.625 C 59.6875 97.625 68.4375 97.5 68.4375 97.5 C 68.613281 98.027344 69.144531 97.878906 69.25 97.5625 C 69.761719 96.007812 68.769531 91.664062 69.375 89.8125 C 69.59375 89.34375 72.890625 88.367188 73.6875 88 C 74.328125 87.707031 77.226562 85.914062 77.4375 85.875 C 77.746094 85.816406 78.144531 85.875 78.4375 86 C 79.300781 86.363281 82.507812 90.898438 83.4375 91.25 C 83.644531 91.328125 84.316406 91.140625 84.5625 91 C 85.964844 90.199219 87.828125 87.226562 89.25 86.1875 C 89.25 86.1875 88.25 85.9375 88.25 85.9375 C 88.777344 85.71875 90.089844 83.535156 90.5625 83.75 C 90.855469 83.882812 90.679688 84.28125 90.8125 84.375 C 91.105469 84.578125 91.394531 83.636719 91.375 83.5625 C 91.25 83.121094 86.460938 78.871094 85.75 78.1875 C 86.3125 76.257812 87.753906 74.75 88.5 72.8125 C 88.652344 72.410156 89.382812 69.667969 89.375 69.375 C 90.464844 68.535156 97.730469 69.375 98 68.8125 C 98.132812 68.539062 97.960938 68.226562 97.6875 68.125 C 95.410156 68.691406 91.746094 67.742188 89.625 68.375 C 89.625 68.375 97.3125 68.125 97.3125 68.125 C 97.3125 68.125 97.4375 64.75 97.4375 64.75 C 97.929688 65.875 96.828125 67.898438 98.3125 68.25 C 98.3125 68.25 98.375 59.8125 98.375 59.8125 C 98.375 59.8125 98 59.8125 98 59.8125 C 98.234375 60.433594 97.539062 60.449219 97.5 60.5625 C 97.367188 60.933594 97.773438 61.5 97.375 61.8125 C 97.421875 61.027344 97.3125 60.21875 97.375 59.4375 C 97.378906 59.390625 97.925781 58.875 97.5625 58.75 C 96.210938 58.289062 91.792969 59.117188 90.0625 58.625 C 89.738281 58.460938 90.089844 58.253906 90 58.125 C 92.117188 58.714844 95.886719 57.761719 97.8125 58.25 C 97.953125 58.285156 98.570312 58.8125 98.625 58.9375 C 99.3125 60.496094 98.367188 66.257812 98.75 68.25 Z M 98.75 68.25 "/>
<path style=" stroke:none;fill-rule:nonzero;fill:rgb(92.156863%,92.54902%,88.627452%);fill-opacity:1;" d="M 37.9375 59.125 C 38.1875 59.136719 40.089844 59.457031 40.125 59.5625 C 40.117188 59.78125 39.941406 61.078125 39.8125 61.125 C 39.523438 61.230469 33.980469 61.207031 33.6875 61.125 C 33.40625 61.046875 32.59375 59.84375 32.125 59.9375 C 32.125 59.9375 32.6875 59.25 32.6875 59.25 C 34.410156 59.578125 36.230469 59.039062 37.9375 59.125 Z M 37.9375 59.125 "/>
<path style=" stroke:none;fill-rule:nonzero;fill:rgb(82.745099%,82.352942%,78.431374%);fill-opacity:1;" d="M 84.25 61.625 C 84.359375 62.828125 84.457031 64.046875 84.1875 65.25 C 84.015625 64.007812 84.535156 63.207031 82.875 63.6875 C 82.8125 63.171875 82.820312 62.628906 82.75 62.125 C 82.660156 61.496094 82.535156 60.875 82.4375 60.25 C 82.4375 60.25 83.8125 60 83.8125 60 Z M 84.25 61.625 "/>
<path style=" stroke:none;fill-rule:nonzero;fill:rgb(84.705883%,85.882354%,83.137256%);fill-opacity:1;" d="M 69.8125 62.125 C 69.859375 62.121094 70.492188 62.765625 70.5 62.8125 C 70.507812 62.867188 69.964844 63.253906 70.1875 63.75 C 70.1875 63.75 69 62.5625 69 62.5625 C 69.011719 62.457031 69.765625 62.128906 69.8125 62.125 Z M 69.8125 62.125 "/>
<path style=" stroke:none;fill-rule:nonzero;fill:rgb(72.549021%,72.549021%,70.588237%);fill-opacity:1;" d="M 45.5625 62.5 C 45.5625 62.5 45.75 64.9375 45.75 64.9375 C 44.296875 65.632812 44.789062 62.398438 45.5625 62.5 Z M 45.5625 62.5 "/>
<path style=" stroke:none;fill-rule:nonzero;fill:rgb(84.313726%,84.705883%,82.352942%);fill-opacity:1;" d="M 89.375 69.375 C 89.359375 68.785156 88.472656 68.71875 89.625 68.375 C 91.746094 67.742188 95.410156 68.691406 97.6875 68.125 C 97.960938 68.226562 98.132812 68.539062 98 68.8125 C 97.730469 69.375 90.464844 68.535156 89.375 69.375 Z M 89.375 69.375 "/>
<path style=" stroke:none;fill-rule:nonzero;fill:rgb(89.411765%,89.803922%,87.450981%);fill-opacity:1;" d="M 29.8125 68.25 C 32.097656 68.601562 35.972656 67.78125 38.0625 68.25 C 38.539062 68.355469 39.085938 68.945312 39.125 69.4375 C 38.195312 70.339844 38.480469 69.199219 37.6875 69 C 36.652344 68.738281 30.253906 69.222656 29.9375 69 C 29.839844 68.929688 29.875 68.445312 29.8125 68.25 Z M 29.8125 68.25 "/>
<path style=" stroke:none;fill-rule:nonzero;fill:rgb(92.156863%,92.156863%,91.37255%);fill-opacity:1;" d="M 69.5 71 C 69.5 71 68.75 72 68.75 72 C 68.480469 71.714844 66.542969 70.25 67.4375 70 C 68.355469 69.742188 68.933594 70.542969 69.5 71 Z M 69.5 71 "/>
<path style=" stroke:none;fill-rule:nonzero;fill:rgb(88.235295%,88.627452%,86.666667%);fill-opacity:1;" d="M 68.75 72 C 68.75 72 69.5 71 69.5 71 C 69.894531 71.320312 72.351562 73.609375 72.25 73.9375 C 72.070312 73.976562 71.367188 74.503906 71.3125 74.5 C 71.125 74.484375 69.054688 72.324219 68.75 72 Z M 68.75 72 "/>
<path style=" stroke:none;fill-rule:nonzero;fill:rgb(90.196079%,91.37255%,89.019608%);fill-opacity:1;" d="M 58.125 89.75 C 56.769531 89.164062 55.292969 88.839844 53.9375 88.25 C 53.304688 87.972656 50.558594 86.292969 50.3125 86.25 C 49.964844 86.1875 49.898438 86.371094 49.875 86.375 C 48.402344 86.632812 44.789062 91.738281 43.8125 91.625 C 43.34375 91.570312 37.824219 85.789062 37.125 85 C 37.125 85 43.4375 91.125 43.4375 91.125 C 43.679688 91.09375 43.515625 90.292969 43.5 90.25 C 43.75 90.277344 44.636719 90.304688 44.5 89.8125 C 44.5 89.8125 42.4375 88.375 42.4375 88.375 C 42.441406 88.597656 42.652344 89.085938 42.75 89.25 C 42.75 89.25 38.5 85.0625 38.5 85.0625 C 38.5 85.0625 38.8125 84.625 38.8125 84.625 C 39.683594 85.5 41.054688 85.214844 42.1875 85.375 C 42.542969 85.625 41.738281 87.140625 41.875 87.5625 C 42.015625 88 43.214844 88.09375 43.4375 88.25 C 43.808594 88.507812 44.363281 89.367188 44.5625 89.5 C 44.664062 89.566406 45.191406 88.816406 45.3125 90.25 C 46.210938 89.578125 49.0625 86.050781 49.9375 86 C 50.300781 85.980469 53.496094 87.816406 54.1875 88.125 C 55.015625 88.496094 57.832031 89.09375 58.125 89.75 Z M 58.125 89.75 "/>
<path style=" stroke:none;fill-rule:nonzero;fill:rgb(89.019608%,89.803922%,88.235295%);fill-opacity:1;" d="M 80.1875 86.25 C 80.53125 86.335938 80.734375 86.726562 81 86.9375 C 80.710938 87.0625 80.242188 86.484375 80.1875 86.25 Z M 80.1875 86.25 "/>
<path style=" stroke:none;fill-rule:nonzero;fill:rgb(81.960785%,82.745099%,79.607844%);fill-opacity:1;" d="M 43.5 90.25 C 43.308594 89.734375 42.996094 89.660156 42.75 89.25 C 42.652344 89.085938 42.441406 88.597656 42.4375 88.375 C 42.4375 88.375 44.5 89.8125 44.5 89.8125 C 44.636719 90.304688 43.75 90.277344 43.5 90.25 Z M 43.5 90.25 "/>
</g>
</svg>
