<?xml version="1.0" encoding="UTF-8"?>
<svg xmlns="http://www.w3.org/2000/svg" xmlns:xlink="http://www.w3.org/1999/xlink" width="128" height="128" viewBox="0 0 128 128" version="1.1">
<g id="surface1">
<path style=" stroke:none;fill-rule:nonzero;fill:rgb(3.137255%,3.529412%,3.921569%);fill-opacity:1;" d="M 103.875 17.75 C 103.5 17.613281 102.042969 18.480469 102 18.6875 C 102.097656 19.550781 103.585938 20.492188 102.9375 21.125 C 101.929688 22.109375 101.636719 20.464844 101.125 19.75 C 101.5625 19.726562 101.6875 19.71875 102.125 19.5625 C 101.007812 18.714844 102.65625 17.652344 103.4375 17.5 C 104.246094 17.339844 103.84375 17.726562 103.875 17.75 Z M 103.875 17.75 "/>
<path style=" stroke:none;fill-rule:nonzero;fill:rgb(96.862745%,97.254902%,96.862745%);fill-opacity:1;" d="M 103.875 17.75 C 104.253906 18.058594 105.085938 19.355469 105.1875 19.375 C 105.429688 19.421875 106.53125 18.480469 107.3125 18.5 C 108.910156 18.539062 111.65625 20.515625 110.625 22.4375 C 110.269531 23.101562 106.488281 25.78125 105.375 27.3125 C 103.941406 29.285156 103.230469 32.070312 101.875 33.8125 C 99.804688 36.472656 97.453125 34.65625 94.9375 36.625 C 94.9375 36.625 64.5 69.1875 64.5 69.1875 C 62.902344 72.375 65.785156 74.746094 68.9375 74 C 70.691406 73.585938 72.777344 70.066406 74.375 73.3125 C 75.578125 75.753906 71.828125 78.828125 70 80.125 C 69.832031 79.8125 70.113281 79.394531 69.6875 79.375 C 66.859375 81.5 63.535156 81.878906 61 84.5625 C 55.316406 90.582031 58.210938 99.464844 50.9375 105.25 C 39.03125 114.722656 21.132812 99.261719 19.125 87.3125 C 19.003906 86.597656 19.453125 85.597656 18.75 85.25 C 19.113281 78.683594 23.667969 73.800781 29.4375 71.25 C 33.582031 69.414062 38.3125 69.230469 42.0625 66.5 C 48.167969 62.054688 47.601562 50.351562 57.1875 51.5 C 58.511719 51.660156 63.105469 53.523438 62.875 55.1875 C 62.710938 56.375 57.675781 60.277344 57.125 61.4375 C 56.964844 61.773438 57.019531 61.710938 57.125 62 C 57.183594 62.15625 57.828125 62.828125 58 63 C 58.113281 63.113281 58.082031 63.421875 58.3125 63.375 C 58.3125 63.375 89.875 33.3125 89.875 33.3125 C 90.414062 32.699219 91.839844 31.039062 92 30.3125 C 92.230469 29.257812 91.617188 27.582031 92.8125 26.875 C 92.917969 26.8125 93.445312 26.9375 93.5625 26.875 C 94.71875 26.242188 93.042969 25.074219 92.75 24.1875 C 95.539062 22.105469 94.832031 24.109375 95.875 24.9375 C 96.304688 25.28125 97.117188 24.65625 97.125 24.4375 C 97.128906 24.300781 95.601562 22.585938 95.75 22.0625 C 98.09375 19.898438 98.492188 23.296875 99.0625 23.375 C 99.128906 23.382812 100.113281 22.710938 100.125 22.5625 C 100.171875 21.960938 98.03125 20.804688 99.4375 19.875 C 100.285156 19.316406 100.789062 19.769531 101.125 19.75 C 101.636719 20.464844 101.929688 22.109375 102.9375 21.125 C 103.585938 20.492188 102.097656 19.550781 102 18.6875 C 102.042969 18.480469 103.5 17.613281 103.875 17.75 Z M 94.1875 24.125 C 94.1875 24.125 95.0625 25.75 95.0625 25.75 C 95.304688 25.6875 94.480469 24.160156 94.1875 24.125 Z M 33.8125 82.5 C 33.59375 82.574219 31.132812 85.457031 30.625 85.8125 C 30.625 85.8125 42.1875 97.875 42.1875 97.875 C 42.1875 97.875 45.75 93.6875 45.75 93.6875 C 45.75 93.6875 34.9375 82.875 34.9375 82.875 C 34.601562 82.820312 34.164062 82.378906 33.8125 82.5 Z M 33.8125 82.5 "/>
<path style=" stroke:none;fill-rule:nonzero;fill:rgb(43.529412%,46.666667%,47.450981%);fill-opacity:1;" d="M 99.6875 22.375 C 99.6875 22.375 99.75 22.5625 99.75 22.5625 C 99.75 22.5625 99.5625 22.625 99.5625 22.625 C 99.5625 22.625 99.5 22.5625 99.5 22.5625 Z M 99.6875 22.375 "/>
<path style=" stroke:none;fill-rule:nonzero;fill:rgb(90.588236%,89.411765%,89.411765%);fill-opacity:1;" d="M 94.1875 24.125 C 94.480469 24.160156 95.304688 25.6875 95.0625 25.75 Z M 94.1875 24.125 "/>
<path style=" stroke:none;fill-rule:nonzero;fill:rgb(41.176471%,44.705883%,46.666667%);fill-opacity:1;" d="M 96.6875 24.375 C 96.6875 24.375 96.75 24.5625 96.75 24.5625 C 96.75 24.5625 96.5625 24.625 96.5625 24.625 C 96.5625 24.625 96.5 24.5625 96.5 24.5625 Z M 96.6875 24.375 "/>
<path style=" stroke:none;fill-rule:nonzero;fill:rgb(84.313726%,84.705883%,83.92157%);fill-opacity:1;" d="M 70 80.125 C 66.472656 82.628906 63.03125 82.71875 60.375 86.6875 C 57.347656 91.210938 57.996094 97.089844 54.875 101.9375 C 43.644531 119.382812 17.910156 100.378906 18.75 85.25 C 19.453125 85.597656 19.003906 86.597656 19.125 87.3125 C 21.132812 99.261719 39.03125 114.722656 50.9375 105.25 C 58.210938 99.464844 55.316406 90.582031 61 84.5625 C 63.535156 81.878906 66.859375 81.5 69.6875 79.375 C 70.113281 79.394531 69.832031 79.8125 70 80.125 Z M 70 80.125 "/>
<path style=" stroke:none;fill-rule:nonzero;fill:rgb(85.09804%,85.882354%,85.490197%);fill-opacity:1;" d="M 33.8125 82.5 C 34.164062 82.378906 34.601562 82.820312 34.9375 82.875 C 34.9375 82.875 45.75 93.6875 45.75 93.6875 C 45.75 93.6875 42.1875 97.875 42.1875 97.875 C 42.1875 97.875 30.625 85.8125 30.625 85.8125 C 31.132812 85.457031 33.59375 82.574219 33.8125 82.5 Z M 34.1875 83.375 C 34.1875 83.375 31.875 85.8125 31.875 85.8125 C 31.875 85.8125 42.0625 96.375 42.0625 96.375 C 42.0625 96.375 44.625 93.8125 44.625 93.8125 Z M 34.1875 83.375 "/>
</g>
</svg>
