<?xml version="1.0" encoding="UTF-8"?>
<svg xmlns="http://www.w3.org/2000/svg" xmlns:xlink="http://www.w3.org/1999/xlink" width="128" height="128" viewBox="0 0 128 128" version="1.1">
<g id="surface1">
<path style=" stroke:none;fill-rule:nonzero;fill:rgb(91.764706%,92.941177%,99.607843%);fill-opacity:1;" d="M 96.5 38.625 C 97.773438 51.003906 94.265625 55.824219 87.5 65 C 87.5 65 82.375 69.5 82.375 69.5 C 82.359375 69.46875 82.09375 69.476562 81.875 69.0625 C 81.585938 68.511719 81.546875 67.433594 81.125 66.875 C 79.464844 61.347656 76.445312 53.683594 71.6875 50.125 C 69.886719 48.777344 69.039062 49.292969 66.875 49.4375 C 66.765625 65.164062 67.023438 80.898438 66.875 96.625 C 66.859375 98.4375 67.1875 104.484375 66.5 105.6875 C 65.546875 107.351562 59.183594 107.289062 58 106.25 C 57.789062 106.066406 57.449219 105.425781 57.375 105.125 C 56.539062 101.726562 57.265625 91.285156 57.25 87.125 C 57.214844 76.878906 57.316406 66.621094 57.25 56.375 C 57.234375 54.0625 57.261719 51.75 57.25 49.4375 C 57.085938 49.015625 54.527344 50.34375 55.1875 47.375 C 51.230469 47.40625 47.367188 48.199219 43.5 48.875 C 41.382812 49.246094 39.230469 49.78125 37.125 49.9375 C 36.769531 49.519531 40.964844 46.003906 41.4375 45.625 C 45.554688 42.34375 50.285156 39.796875 55.25 38.0625 C 55.410156 37.347656 55.035156 34.925781 55.25 34.4375 C 55.449219 33.988281 57.050781 34.511719 57.25 34.0625 C 57.800781 32.8125 56.15625 28.433594 58.6875 27.875 C 59.234375 27.753906 65.410156 27.835938 65.8125 28 C 67.691406 28.773438 66.417969 33.28125 67.0625 33.5 C 70.03125 33.070312 73.410156 32.863281 76.25 31.875 C 78.136719 31.421875 79.972656 30.765625 81.75 30 C 85.125 28.542969 88.175781 26.539062 90.9375 24.125 C 93.867188 28.132812 95.988281 33.664062 96.5 38.625 Z M 96.5 38.625 "/>
</g>
</svg>
