<?xml version="1.0" encoding="UTF-8"?>
<svg xmlns="http://www.w3.org/2000/svg" xmlns:xlink="http://www.w3.org/1999/xlink" width="128" height="128" viewBox="0 0 128 128" version="1.1">
<defs>
<linearGradient id="linear0" gradientUnits="userSpaceOnUse" x1="705.153015" y1="283.477997" x2="405.654999" y2="547.109985" gradientTransform="matrix(0.125,0,0,0.125,0,0)">
<stop offset="0.343358" style="stop-color:rgb(99.607843%,99.607843%,99.607843%);stop-opacity:1;"/>
<stop offset="1" style="stop-color:rgb(81.176472%,83.529413%,90.980393%);stop-opacity:1;"/>
</linearGradient>
</defs>
<g id="surface1">
<path style=" stroke:none;fill-rule:nonzero;fill:rgb(12.941177%,12.941177%,13.725491%);fill-opacity:1;" d="M -0.125 0.125 C -0.125 0.125 -0.125 -0.125 -0.125 -0.125 C -0.125 -0.125 127.875 -0.125 127.875 -0.125 C 127.875 -0.125 127.875 0.125 127.875 0.125 Z M -0.125 0.125 "/>
<path style=" stroke:none;fill-rule:nonzero;fill:url(#linear0);" d="M 75.5 72.75 C 75.5 72.75 74.3125 74.125 74.3125 74.125 C 74.011719 74.179688 74.195312 73.792969 74.0625 73.75 C 73.929688 73.707031 73.890625 74.109375 73.875 74.125 C 71.433594 76.90625 68.9375 79.675781 66 81.9375 C 65.5625 86.195312 65.605469 90.476562 65.625 94.75 C 65.625 94.75 65 87.5 65 87.5 C 65.050781 85.726562 65.097656 83.957031 65.25 82.1875 C 65.25 82.1875 62.75 82.1875 62.75 82.1875 C 62.75 82.1875 63.375 94.75 63.375 94.75 C 63.269531 94.722656 63.066406 94.8125 63 94.6875 C 63 94.6875 63 90.6875 63 90.6875 C 63 90.6875 62.5 91 62.5 91 C 62.46875 87.945312 62.148438 84.863281 62 81.8125 C 58.9375 79.578125 56.667969 76.472656 53.875 73.9375 C 53.875 73.9375 55.25 77.1875 55.25 77.1875 C 55.25 77.1875 59.125 94.625 59.125 94.625 C 58.855469 94.625 59.261719 94.425781 58.5 94.5 C 57.261719 90.085938 56.636719 85.496094 55.5 81.0625 C 53.570312 73.519531 52.070312 72.808594 48 66.8125 C 39.683594 54.554688 33.679688 41.546875 44.125 28.1875 C 61.761719 5.628906 98.105469 25.402344 87.25 53.8125 C 84.324219 61.46875 79.761719 66.210938 75.5 72.75 Z M 75.5 72.75 "/>
<path style=" stroke:none;fill-rule:nonzero;fill:rgb(99.215686%,99.215686%,99.215686%);fill-opacity:1;" d="M 75.5 72.75 C 74.710938 73.960938 74.128906 75.054688 73.625 76.4375 C 73.625 76.4375 69.625 94.4375 69.625 94.4375 C 69.761719 95.066406 71.230469 94.40625 71.5 95.3125 C 71.828125 96.414062 70.8125 96.628906 70.75 96.8125 C 70.191406 98.390625 71.425781 104.75 70.375 105.9375 C 70.203125 106.132812 70.027344 106.238281 69.8125 106.375 C 67.492188 105.910156 59.777344 107.042969 58.0625 106.25 C 57.890625 106.171875 57.414062 105.480469 57.375 105.3125 C 56.953125 103.433594 57.890625 98.269531 57.375 96.8125 C 57.332031 96.691406 55.625 95.285156 57.1875 94.75 C 57.253906 94.726562 58.429688 94.507812 58.5 94.5 C 59.261719 94.425781 58.855469 94.625 59.125 94.625 C 59.605469 94.625 62.296875 95.019531 62.5 94.5625 C 62.492188 93.375 62.511719 92.1875 62.5 91 C 62.5 91 63 90.6875 63 90.6875 C 63 90.6875 63 94.6875 63 94.6875 C 63.066406 94.8125 63.269531 94.722656 63.375 94.75 C 63.59375 94.804688 64.761719 94.816406 64.875 94.5625 C 65.019531 94.238281 64.972656 88.484375 65 87.5 C 65 87.5 65.625 94.75 65.625 94.75 C 65.625 94.75 68.6875 94.75 68.6875 94.75 C 70.761719 88.054688 71.339844 80.726562 73.875 74.125 C 73.890625 74.109375 73.929688 73.707031 74.0625 73.75 C 74.195312 73.792969 74.011719 74.179688 74.3125 74.125 Z M 75.5 72.75 "/>
</g>
</svg>
