<?xml version="1.0" encoding="UTF-8"?>
<svg xmlns="http://www.w3.org/2000/svg" xmlns:xlink="http://www.w3.org/1999/xlink" width="128" height="128" viewBox="0 0 128 128" version="1.1">
<g id="surface1">
<path style=" stroke:none;fill-rule:nonzero;fill:rgb(98.039216%,98.431373%,98.431373%);fill-opacity:1;" d="M 102.625 46.5 C 102.625 46.5 105.25 51.3125 105.25 51.3125 C 106.640625 54.710938 107.476562 60.007812 107.25 63.5625 C 107.25 63.585938 106.917969 63.472656 106.875 63.8125 C 106.785156 64.519531 107.675781 65.394531 105.875 65.0625 C 105.875 65.0625 105.9375 63.375 105.9375 63.375 C 105.9375 63.375 105.6875 64.75 105.6875 64.75 C 104.484375 64.953125 102.742188 65.429688 101.6875 66 C 100.625 66.574219 98.929688 68.65625 98.3125 68.875 C 97.378906 69.207031 96.65625 68.738281 96.5625 68.75 C 96.480469 68.757812 95.769531 69.9375 95.625 70.125 C 95.242188 70.621094 94.910156 71.214844 94.5 71.6875 C 88.023438 79.136719 77.128906 79.917969 70.0625 72.875 C 69.167969 75.753906 67.792969 78.429688 66.125 80.9375 C 76.949219 89.722656 92.296875 87.578125 100.875 76.8125 C 101.324219 76.25 103.269531 72.921875 103.5 72.875 C 103.410156 73.328125 104.214844 73.351562 104.25 73.4375 C 104.300781 73.566406 102.953125 75.515625 102.75 75.8125 C 102.707031 75.875 102.351562 76.339844 102.75 76.25 C 96.28125 85.539062 85.34375 89.484375 74.3125 86.5 C 72.65625 86.050781 65.449219 82.886719 64.875 81.4375 C 64.558594 80.644531 66.070312 79.300781 66.5 78.5625 C 67.855469 76.234375 68.988281 73.78125 69.5625 71.125 C 76.996094 79.453125 90.058594 78.035156 95.5 68.3125 C 103.371094 54.257812 86.34375 39.558594 73.4375 48.5 C 63.847656 55.144531 69.222656 65.992188 64 75.4375 C 53.523438 94.382812 24.914062 91.945312 18.875 71.0625 C 12.230469 48.089844 38.519531 30.421875 57.5 44.4375 C 55.617188 47.527344 54.21875 50.734375 53.3125 54.25 C 46.445312 46.589844 33.027344 48.371094 29 58.0625 C 23.582031 71.09375 38.589844 83.09375 49.6875 74.75 C 57.085938 69.191406 54.105469 62.144531 56.25 54.5625 C 62.402344 32.800781 89.21875 27.714844 102.625 46.5 Z M 65.0625 66.75 C 64.683594 66.765625 62.214844 67.984375 61.6875 68.25 C 61.628906 68.28125 61.625 68.707031 61.3125 68.875 C 61.21875 68.925781 60.542969 68.949219 60.4375 69 C 60.125 69.152344 59.5 69.734375 59.4375 69.75 C 59.410156 69.757812 59.398438 69.363281 58.9375 69.5 C 58.042969 69.765625 57.121094 70.144531 56.3125 70.375 C 55.9375 70.480469 54.988281 70.300781 54.8125 70.375 C 54.644531 70.449219 53.164062 72.957031 52.75 73.4375 C 45.726562 81.597656 33.167969 79.398438 28.1875 70.375 C 26.804688 71.160156 25.542969 72.179688 24.1875 73 C 23.550781 73.382812 21.074219 74.007812 21.375 74.9375 C 23.675781 78.460938 26.347656 81.710938 29.9375 84 C 44.285156 93.152344 63.601562 83.28125 65.625 66.8125 C 65.546875 66.703125 65.195312 66.746094 65.0625 66.75 Z M 65.0625 66.75 "/>
<path style=" stroke:none;fill-rule:nonzero;fill:rgb(90.980393%,91.764706%,94.509804%);fill-opacity:1;" d="M 102.75 76.25 C 102.351562 76.339844 102.707031 75.875 102.75 75.8125 C 102.953125 75.515625 104.300781 73.566406 104.25 73.4375 C 104.214844 73.351562 103.410156 73.328125 103.5 72.875 C 103.75 72.824219 104.042969 73.210938 104.3125 73.125 C 104.808594 72.96875 107.003906 66.488281 106.8125 65.5 C 106.355469 65.261719 102.445312 66.554688 101.6875 67 C 99.484375 68.289062 100.011719 70.007812 96.9375 70.25 C 96.476562 70.285156 96.074219 70.148438 95.625 70.125 C 95.769531 69.9375 96.480469 68.757812 96.5625 68.75 C 96.65625 68.738281 97.378906 69.207031 98.3125 68.875 C 98.929688 68.65625 100.625 66.574219 101.6875 66 C 102.742188 65.429688 104.484375 64.953125 105.6875 64.75 C 105.6875 64.75 105.9375 63.375 105.9375 63.375 C 105.9375 63.375 105.875 65.0625 105.875 65.0625 C 107.675781 65.394531 106.785156 64.519531 106.875 63.8125 C 106.917969 63.472656 107.25 63.585938 107.25 63.5625 C 107.476562 60.007812 106.640625 54.710938 105.25 51.3125 C 105.25 51.3125 102.625 46.5 102.625 46.5 C 109.101562 55.574219 109.113281 67.117188 102.75 76.25 Z M 102.75 76.25 "/>
<path style=" stroke:none;fill-rule:nonzero;fill:rgb(80.784315%,82.352942%,87.058824%);fill-opacity:1;" d="M 103.5 72.875 C 103.269531 72.921875 101.324219 76.25 100.875 76.8125 C 92.296875 87.578125 76.949219 89.722656 66.125 80.9375 C 67.792969 78.429688 69.167969 75.753906 70.0625 72.875 C 77.128906 79.917969 88.023438 79.136719 94.5 71.6875 C 94.910156 71.214844 95.242188 70.621094 95.625 70.125 C 96.074219 70.148438 96.476562 70.285156 96.9375 70.25 C 100.011719 70.007812 99.484375 68.289062 101.6875 67 C 102.445312 66.554688 106.355469 65.261719 106.8125 65.5 C 107.003906 66.488281 104.808594 72.96875 104.3125 73.125 C 104.042969 73.210938 103.75 72.824219 103.5 72.875 Z M 103.5 72.875 "/>
<path style=" stroke:none;fill-rule:nonzero;fill:rgb(80.784315%,82.352942%,87.058824%);fill-opacity:1;" d="M 65.0625 66.75 C 65.195312 66.746094 65.546875 66.703125 65.625 66.8125 C 63.601562 83.28125 44.285156 93.152344 29.9375 84 C 26.347656 81.710938 23.675781 78.460938 21.375 74.9375 C 21.074219 74.007812 23.550781 73.382812 24.1875 73 C 25.542969 72.179688 26.804688 71.160156 28.1875 70.375 C 33.167969 79.398438 45.726562 81.597656 52.75 73.4375 C 53.164062 72.957031 54.644531 70.449219 54.8125 70.375 C 54.988281 70.300781 55.9375 70.480469 56.3125 70.375 C 57.121094 70.144531 58.042969 69.765625 58.9375 69.5 C 59.398438 69.363281 59.410156 69.757812 59.4375 69.75 C 59.5 69.734375 60.125 69.152344 60.4375 69 C 60.542969 68.949219 61.21875 68.925781 61.3125 68.875 C 61.625 68.707031 61.628906 68.28125 61.6875 68.25 C 62.214844 67.984375 64.683594 66.765625 65.0625 66.75 Z M 65.0625 66.75 "/>
</g>
</svg>
