<?xml version="1.0" encoding="UTF-8"?>
<svg xmlns="http://www.w3.org/2000/svg" xmlns:xlink="http://www.w3.org/1999/xlink" width="128" height="128" viewBox="0 0 128 128" version="1.1">
<g id="surface1">
<path style=" stroke:none;fill-rule:nonzero;fill:rgb(98.823529%,99.215686%,95.294118%);fill-opacity:1;" d="M 51.6875 39.125 C 56.894531 38.621094 59.949219 43.429688 63.1875 43.75 C 66.65625 44.09375 70.582031 38.617188 75.8125 39.125 C 82.058594 39.730469 95.59375 55.582031 100.9375 60.125 C 101.710938 60.785156 105.898438 63.328125 105.75 64.0625 C 100.488281 69.949219 96.300781 75.726562 89.3125 79.75 C 71.90625 89.765625 54.359375 89.8125 37.1875 79.25 C 30.855469 75.355469 26.894531 69.714844 22 64.3125 C 21.917969 64.074219 21.808594 63.820312 21.875 63.5625 C 21.945312 63.289062 25.804688 60.78125 26.4375 60.25 C 31.808594 55.71875 45.410156 39.734375 51.6875 39.125 Z M 53.1875 58 C 44.730469 58.394531 36.871094 65.707031 28.1875 65.5 C 32.664062 66.996094 37.296875 64.921875 41.8125 64.625 C 45.835938 64.359375 52.980469 64.492188 56.6875 66 C 58.855469 66.882812 61.792969 70.078125 64.0625 69.875 C 65.824219 69.71875 68.625 66.929688 70.4375 66.125 C 74.152344 64.476562 81.238281 64.371094 85.3125 64.625 C 90.855469 64.96875 96.21875 67.3125 101.875 65.3125 C 92.40625 66.976562 84.03125 59.117188 75.1875 58.125 C 69.761719 57.515625 69.890625 59.589844 65.8125 60.5 C 60.242188 61.742188 58.445312 57.753906 53.1875 58 Z M 53.1875 58 "/>
</g>
</svg>
