<?xml version="1.0" encoding="UTF-8"?>
<svg xmlns="http://www.w3.org/2000/svg" xmlns:xlink="http://www.w3.org/1999/xlink" width="128" height="128" viewBox="0 0 128 128" version="1.1">
<g id="surface1">
<path style=" stroke:none;fill-rule:nonzero;fill:rgb(99.607843%,99.607843%,99.215686%);fill-opacity:1;" d="M 83.75 55.375 C 83.433594 55.34375 83.144531 55.132812 82.8125 55.25 C 79.804688 56.335938 78.15625 61.210938 76.625 63.6875 C 69.863281 74.605469 58.664062 75.675781 51.375 64.5625 C 50.273438 62.882812 48.789062 58.972656 47.75 57.8125 C 47.230469 57.234375 45.550781 56.554688 44.9375 55.875 C 44.9375 55.875 44.5 56.3125 44.5 56.3125 C 44.5 56.3125 45.5 57.5 45.5 57.5 C 44.988281 57.058594 43.757812 55.941406 43.625 55.3125 C 43.539062 54.90625 43.539062 49.273438 43.625 48.9375 C 43.785156 48.3125 44.734375 48.042969 45.25 47.8125 C 45.085938 41.160156 43.664062 29.613281 51.6875 26.75 C 53.773438 26.003906 55.519531 26.703125 56.8125 26.375 C 57.148438 26.289062 59.851562 24.378906 60.8125 24 C 67.839844 21.242188 73.207031 23.75 79.3125 27 C 80.140625 27.441406 86.257812 30.792969 86.375 31.1875 C 86.890625 32.929688 84.058594 35.359375 82.375 33.9375 C 82.375 33.9375 82.375 47.8125 82.375 47.8125 C 82.441406 47.945312 83.484375 48.050781 83.75 48.8125 C 83.972656 49.449219 83.960938 54.707031 83.75 55.375 Z M 83.75 55.375 "/>
<path style=" stroke:none;fill-rule:nonzero;fill:rgb(92.54902%,92.54902%,91.764706%);fill-opacity:1;" d="M 83.75 55.375 C 83.304688 56.769531 80.671875 57.824219 80.125 58.5625 C 79.347656 59.613281 78.1875 63.15625 77.125 64.8125 C 69.765625 76.285156 57.566406 76.4375 50.25 64.8125 C 49.40625 63.46875 47.707031 59.105469 47.125 58.4375 C 46.863281 58.140625 45.992188 57.925781 45.5 57.5 C 45.5 57.5 44.5 56.3125 44.5 56.3125 C 44.5 56.3125 44.9375 55.875 44.9375 55.875 C 45.550781 56.554688 47.230469 57.234375 47.75 57.8125 C 48.789062 58.972656 50.273438 62.882812 51.375 64.5625 C 58.664062 75.675781 69.863281 74.605469 76.625 63.6875 C 78.15625 61.210938 79.804688 56.335938 82.8125 55.25 C 83.144531 55.132812 83.433594 55.34375 83.75 55.375 Z M 83.75 55.375 "/>
<path style=" stroke:none;fill-rule:nonzero;fill:rgb(84.705883%,85.09804%,84.313726%);fill-opacity:1;" d="M 104.875 93.75 C 104.875 93.75 104.5625 94.625 104.5625 94.625 C 104.5625 94.625 103.75 94.375 103.75 94.375 C 101.867188 85.046875 85.847656 83.464844 78.1875 80.125 C 75.441406 78.929688 73.960938 76.507812 73.9375 73.5 C 70.765625 74.882812 67.640625 75.855469 64.125 75.6875 C 64.125 75.6875 70 82.5625 70 82.5625 C 70.179688 83.347656 67.050781 86.210938 66.875 86.9375 C 66.695312 87.683594 67.925781 93.84375 68.125 95.125 C 68.125 95.125 67 95.25 67 95.25 C 66.558594 92.3125 66.003906 89.386719 65.625 86.4375 C 65.625 86.4375 68.75 82.4375 68.75 82.4375 C 68.75 82.4375 63.6875 77.125 63.6875 77.125 C 63.6875 77.125 58.875 82.3125 58.875 82.3125 C 58.769531 82.792969 61.335938 85.640625 61.75 86.3125 C 61.425781 89.859375 60.804688 93.367188 60.25 96.875 C 60.25 96.875 59.125 96.875 59.125 96.875 C 59.65625 93.570312 60.175781 90.257812 60.625 86.9375 C 60.625 86.9375 57.375 82.3125 57.375 82.3125 C 57.375 82.3125 63.625 75.6875 63.625 75.6875 C 60.035156 75.960938 56.785156 74.578125 53.5 73.6875 C 53.496094 76.929688 51.582031 79.167969 48.6875 80.375 C 41.679688 83.296875 26.25 85.359375 24 93.25 C 23.453125 93.484375 23.066406 93.1875 23 92.625 C 25.679688 84.03125 40.9375 82.59375 48.4375 79.125 C 51.6875 77.621094 52.128906 75.515625 52.3125 72.125 C 55.070312 72.21875 57.363281 73.929688 60.0625 74.375 C 62.882812 74.839844 66.417969 74.703125 69.1875 74 C 70.144531 73.757812 74.828125 71.75 75.3125 71.875 C 75.910156 72.027344 75.390625 74.554688 75.5 75.3125 C 75.769531 77.171875 77.484375 78.421875 79.0625 79.125 C 86.875 82.605469 102.949219 84.179688 104.875 93.75 Z M 104.875 93.75 "/>
<path style=" stroke:none;fill-rule:nonzero;fill:rgb(98.039216%,97.647059%,97.647059%);fill-opacity:1;" d="M 103.75 94.375 C 104.308594 97.148438 103.847656 100.21875 104 103.0625 C 104 103.0625 103.6875 103.25 103.6875 103.25 C 103.6875 103.25 69.5625 103.25 69.5625 103.25 C 69.25 103.117188 69.210938 102.835938 69.125 102.5625 C 68.597656 100.910156 68.429688 97.078125 68.125 95.125 C 67.925781 93.84375 66.695312 87.683594 66.875 86.9375 C 67.050781 86.210938 70.179688 83.347656 70 82.5625 C 70 82.5625 64.125 75.6875 64.125 75.6875 C 67.640625 75.855469 70.765625 74.882812 73.9375 73.5 C 73.960938 76.507812 75.441406 78.929688 78.1875 80.125 C 85.847656 83.464844 101.867188 85.046875 103.75 94.375 Z M 103.75 94.375 "/>
<path style=" stroke:none;fill-rule:nonzero;fill:rgb(97.647059%,97.254902%,97.254902%);fill-opacity:1;" d="M 59.125 96.875 C 59 97.644531 58.359375 103.121094 58.0625 103.25 C 58.0625 103.25 23.6875 103.25 23.6875 103.25 C 23.472656 100.09375 23.132812 96.292969 24 93.25 C 26.25 85.359375 41.679688 83.296875 48.6875 80.375 C 51.582031 79.167969 53.496094 76.929688 53.5 73.6875 C 56.785156 74.578125 60.035156 75.960938 63.625 75.6875 C 63.625 75.6875 57.375 82.3125 57.375 82.3125 C 57.375 82.3125 60.625 86.9375 60.625 86.9375 C 60.175781 90.257812 59.65625 93.570312 59.125 96.875 Z M 59.125 96.875 "/>
<path style=" stroke:none;fill-rule:nonzero;fill:rgb(69.01961%,68.627453%,69.01961%);fill-opacity:1;" d="M 24 93.25 C 23.132812 96.292969 23.472656 100.09375 23.6875 103.25 C 23.6875 103.25 58.0625 103.25 58.0625 103.25 C 58.359375 103.121094 59 97.644531 59.125 96.875 C 59.125 96.875 60.25 96.875 60.25 96.875 C 60.039062 98.214844 59.632812 103.238281 59.25 104.0625 C 59.144531 104.289062 59.011719 104.371094 58.8125 104.5 C 58.8125 104.5 22.5625 104.5 22.5625 104.5 C 22.402344 100.710938 21.871094 96.242188 23 92.625 C 23.066406 93.1875 23.453125 93.484375 24 93.25 Z M 24 93.25 "/>
<path style=" stroke:none;fill-rule:nonzero;fill:rgb(70.19608%,69.803923%,70.19608%);fill-opacity:1;" d="M 67 95.25 C 67 95.25 68.125 95.125 68.125 95.125 C 68.429688 97.078125 68.597656 100.910156 69.125 102.5625 C 69.210938 102.835938 69.25 103.117188 69.5625 103.25 C 69.5625 103.25 103.6875 103.25 103.6875 103.25 C 103.6875 103.25 104 103.0625 104 103.0625 C 103.847656 100.21875 104.308594 97.148438 103.75 94.375 C 103.75 94.375 104.5625 94.625 104.5625 94.625 C 104.5625 94.625 104.875 93.75 104.875 93.75 C 105.160156 95.160156 105.425781 102.726562 105.125 103.9375 C 105.101562 104.035156 104.914062 104.457031 104.8125 104.5 C 104.8125 104.5 68.5625 104.5 68.5625 104.5 C 68.292969 104.308594 68.207031 103.976562 68.125 103.6875 C 67.535156 101.554688 67.359375 97.632812 67 95.25 Z M 67 95.25 "/>
</g>
</svg>
