<?xml version="1.0" encoding="UTF-8"?>
<svg xmlns="http://www.w3.org/2000/svg" xmlns:xlink="http://www.w3.org/1999/xlink" width="128" height="128" viewBox="0 0 128 128" version="1.1">
<defs>
<linearGradient id="linear0" gradientUnits="userSpaceOnUse" x1="539.784973" y1="436.654999" x2="368.385986" y2="730.291992" gradientTransform="matrix(0.125,0,0,0.125,0,0)">
<stop offset="0.302941" style="stop-color:rgb(100%,100%,100%);stop-opacity:1;"/>
<stop offset="1" style="stop-color:rgb(81.960785%,82.352942%,82.352942%);stop-opacity:1;"/>
</linearGradient>
</defs>
<g id="surface1">
<path style=" stroke:none;fill-rule:nonzero;fill:rgb(99.607843%,99.607843%,99.607843%);fill-opacity:1;" d="M 66.4375 29.375 C 66.554688 29.382812 66.445312 29.738281 66.5625 29.75 C 67.148438 29.804688 67.878906 29.664062 68.4375 29.75 C 81.703125 31.773438 94.332031 42.773438 97.375 55.9375 C 97.894531 58.191406 98.710938 63.445312 98.25 65.3125 C 97.308594 69.117188 91.996094 69.683594 89.875 66.4375 C 88.980469 65.070312 89.09375 60.074219 88.5 57.8125 C 86.007812 48.335938 76.644531 39.765625 66.8125 38.625 C 63.933594 38.292969 59.472656 39.058594 59.125 34.4375 C 58.777344 29.824219 62.632812 29.40625 66.0625 29.625 C 66.085938 29.625 66.414062 29.375 66.4375 29.375 Z M 66.4375 29.375 "/>
<path style=" stroke:none;fill-rule:nonzero;fill:url(#linear0);" d="M 40.125 72.625 C 41.089844 76.191406 44.457031 80.628906 47.1875 83.125 C 55.578125 90.792969 68.605469 91.53125 77.8125 85.125 C 80.773438 83.066406 84.546875 77.363281 88.25 82.4375 C 90.699219 85.792969 87.917969 88.210938 85.4375 90.375 C 74.847656 99.605469 60.800781 99.859375 48.5 94.75 C 48.71875 94.4375 48.527344 94.492188 48.3125 94.375 C 32.59375 85.910156 24.78125 67.667969 32 50.6875 C 33.167969 47.9375 38.433594 39.320312 41.4375 38.875 C 44.683594 38.394531 48.132812 41.875 46.875 45.1875 C 46.53125 46.089844 44.871094 47.253906 44.25 48.0625 C 39.9375 53.671875 37.886719 59.761719 38.625 66.9375 C 38.800781 68.652344 39.289062 71.160156 40.125 72.625 Z M 40.125 72.625 "/>
<path style=" stroke:none;fill-rule:nonzero;fill:rgb(98.431373%,98.823529%,98.823529%);fill-opacity:1;" d="M 61.8125 47.125 C 86.003906 44.808594 86.460938 81.304688 63.6875 80.875 C 42.347656 80.472656 41.597656 49.0625 61.8125 47.125 Z M 62.1875 56.375 C 53.929688 57.546875 53.949219 70.996094 63.0625 71.75 C 74.417969 72.691406 74.335938 54.652344 62.1875 56.375 Z M 62.1875 56.375 "/>
</g>
</svg>
