<?xml version="1.0" encoding="UTF-8"?>
<svg xmlns="http://www.w3.org/2000/svg" xmlns:xlink="http://www.w3.org/1999/xlink" width="128" height="128" viewBox="0 0 128 128" version="1.1">
<defs>
<linearGradient id="linear0" gradientUnits="userSpaceOnUse" x1="644.875" y1="99.0839" x2="482.367004" y2="831.265991" gradientTransform="matrix(0.125,0,0,0.125,0,0)">
<stop offset="0.549333" style="stop-color:rgb(99.215686%,99.607843%,99.215686%);stop-opacity:1;"/>
<stop offset="1" style="stop-color:rgb(83.529413%,89.803922%,93.725491%);stop-opacity:1;"/>
</linearGradient>
</defs>
<g id="surface1">
<path style=" stroke:none;fill-rule:nonzero;fill:rgb(18.82353%,19.215687%,20.784314%);fill-opacity:1;" d="M 91.875 31 C 100 28.566406 108.242188 26.5 116.3125 23.875 C 119.171875 21.382812 116.742188 17.683594 113.1875 18.625 C 113.1875 18.625 58.1875 38.5 58.1875 38.5 C 56.027344 36.546875 56.175781 38.863281 55.8125 39.125 C 54.957031 39.742188 54.523438 37.601562 53.125 39.1875 C 52.878906 39.46875 53.203125 40.003906 52.4375 40.125 C 51.351562 38.125 50.207031 38.964844 49.9375 40.875 C 49.019531 41.238281 49.160156 39.859375 47.9375 40.125 C 47.007812 40.328125 47.367188 42.273438 46.4375 42 C 46.203125 41.929688 46.125 40.550781 44.9375 40.875 C 44.121094 41.097656 44.347656 42.519531 44.1875 42.75 C 43.929688 43.125 35.824219 45.277344 35.625 45.8125 C 35.574219 45.949219 35.660156 46.261719 35.625 46.4375 C 35.625 46.4375 36.0625 46.75 36.0625 46.75 C 36.0625 46.75 42.9375 45.5 42.9375 45.5 C 42.207031 46.144531 37.4375 46.585938 37.375 47.4375 C 37.367188 47.554688 37.78125 48.203125 37.9375 48.25 C 38.332031 48.363281 42.179688 47.59375 43 47.5 C 42.59375 48.089844 41.589844 47.847656 40.8125 48 C 40.8125 48 41.9375 48.25 41.9375 48.25 C 40.902344 47.972656 38.234375 49.21875 37.5 48.6875 C 36.878906 48.238281 36.945312 47.101562 37.625 46.6875 C 36.695312 46.308594 36.570312 47.492188 35.6875 47.25 C 35.195312 47.117188 34.894531 45.945312 35 45.5625 C 35.015625 45.503906 35.867188 44.789062 35.9375 44.75 C 36.148438 44.632812 39.816406 43.367188 40.3125 43.25 C 40.765625 43.140625 42.015625 43.527344 42.9375 43 C 43.949219 42.421875 43 40.894531 44.4375 40.375 C 45.796875 39.882812 45.566406 40.664062 45.75 40.8125 C 46.058594 41.0625 46.328125 41.03125 46.5625 41.625 C 46.867188 41.667969 47.054688 40.242188 47.3125 40 C 47.796875 39.546875 48.53125 39.769531 48.8125 39.625 C 49.308594 39.375 49.816406 38.390625 50.5625 38.25 C 51.316406 38.109375 51.824219 38.542969 52.3125 38.5 C 52.398438 38.492188 53.121094 38 53.1875 38 C 53.238281 38 53.511719 38.375 53.5625 38.375 C 54.511719 38.371094 54.507812 37.867188 55.3125 39 C 55.601562 37.9375 55.8125 37.679688 56.6875 37.25 C 56.964844 38.054688 57.386719 37.363281 57.4375 37.375 C 57.492188 37.386719 58.253906 38.117188 58.3125 38.125 C 58.371094 38.132812 59.386719 37.902344 59.4375 37.875 C 59.839844 37.640625 59.714844 37.179688 59.8125 37.125 C 59.824219 37.117188 59.933594 37.316406 60.0625 37.25 C 62.578125 35.949219 66.1875 35.121094 68.9375 34.125 C 72.832031 32.71875 76.804688 31.152344 80.8125 29.625 C 80.941406 29.574219 82.011719 29.539062 82.3125 29.25 C 82.472656 29.097656 82.226562 28.761719 82.5625 28.5 C 83.3125 27.917969 88.75 26.273438 89.8125 26 C 90.21875 25.894531 90.90625 26.660156 90.9375 25.375 C 94.28125 24.304688 97.601562 23.125 100.9375 22.125 C 101.730469 21.886719 102.542969 21.988281 102.9375 21.875 C 105.882812 21.019531 108.742188 19.351562 111.9375 18.375 C 112.148438 18.308594 113.46875 17.757812 113.5625 17.75 C 116.820312 17.460938 119.597656 20.847656 117.5 23.6875 C 116.734375 24.726562 116.113281 24.324219 115.6875 24.5 C 112.992188 25.605469 110.066406 26.464844 107.3125 27.25 C 106.929688 27.359375 106.289062 27.277344 105.9375 27.375 C 105.648438 27.457031 105.910156 27.722656 105.8125 27.75 C 103.191406 28.488281 99.660156 28.792969 97.1875 30 C 96.902344 30.140625 96.882812 30.191406 96.8125 30.5 C 96.492188 30.355469 96.824219 30.121094 96.75 30.0625 C 96.5 29.859375 93.050781 31.128906 92.4375 31.25 C 92.324219 31.273438 91.453125 31.382812 91.875 31 Z M 91.875 31 "/>
<path style=" stroke:none;fill-rule:nonzero;fill:url(#linear0);" d="M 91.875 31 C 90.832031 31.3125 89.789062 31.6875 88.75 32 C 80.597656 34.460938 72.410156 36.859375 64.3125 39.5 C 62.832031 39.984375 59.347656 40.898438 58.1875 41.5 C 58.085938 41.554688 57.886719 41.8125 58.0625 41.875 C 78.277344 37.703125 98.320312 32.527344 118.5625 28.625 C 121.308594 29.597656 121.589844 32.921875 118.8125 34.125 C 118.8125 34.125 58.75 44.625 58.75 44.625 C 58.75 44.625 58.125 44.8125 58.125 44.8125 C 58.125 44.8125 58.3125 65.375 58.3125 65.375 C 59.769531 65.207031 63.265625 67.433594 64.3125 67.375 C 64.703125 67.351562 67.628906 65.972656 68.4375 65.75 C 78.371094 62.992188 90.992188 65.671875 98.0625 73.375 C 104.363281 73.660156 110.777344 71.257812 107 80.4375 C 104.183594 87.273438 95.339844 93.191406 88.9375 96.375 C 88.308594 96.6875 84.578125 98.050781 84.4375 98.25 C 83.789062 99.179688 85.546875 103.035156 82.1875 103.875 C 82.1875 103.875 44.5625 103.875 44.5625 103.875 C 41.207031 103.265625 42.976562 99.199219 42.1875 98.25 C 41.933594 97.941406 35.972656 95.445312 34.9375 94.875 C 29.449219 91.851562 21.957031 86.054688 19.625 80.0625 C 16.023438 70.808594 22.847656 73.898438 28.9375 73.375 C 32.777344 68.601562 38.207031 65.492188 44.25 64.4375 C 44.25 64.4375 44.25 47.4375 44.25 47.4375 C 44.125 47.128906 43.363281 47.492188 43.25 47.5 C 43.167969 47.507812 43.082031 47.492188 43 47.5 C 42.179688 47.59375 38.332031 48.363281 37.9375 48.25 C 37.78125 48.203125 37.367188 47.554688 37.375 47.4375 C 37.4375 46.585938 42.207031 46.144531 42.9375 45.5 C 42.9375 45.5 36.0625 46.75 36.0625 46.75 C 36.0625 46.75 35.625 46.4375 35.625 46.4375 C 35.660156 46.261719 35.574219 45.949219 35.625 45.8125 C 35.824219 45.277344 43.929688 43.125 44.1875 42.75 C 44.347656 42.519531 44.121094 41.097656 44.9375 40.875 C 46.125 40.550781 46.203125 41.929688 46.4375 42 C 47.367188 42.273438 47.007812 40.328125 47.9375 40.125 C 49.160156 39.859375 49.019531 41.238281 49.9375 40.875 C 50.207031 38.964844 51.351562 38.125 52.4375 40.125 C 53.203125 40.003906 52.878906 39.46875 53.125 39.1875 C 54.523438 37.601562 54.957031 39.742188 55.8125 39.125 C 56.175781 38.863281 56.027344 36.546875 58.1875 38.5 C 58.1875 38.5 113.1875 18.625 113.1875 18.625 C 116.742188 17.683594 119.171875 21.382812 116.3125 23.875 C 108.242188 26.5 100 28.566406 91.875 31 Z M 55.5625 45.125 C 54.617188 45.371094 55.640625 62.796875 55.25 64.6875 C 55.25 64.6875 56.0625 64.875 56.0625 64.875 C 56.0625 64.875 56.125 45.1875 56.125 45.1875 C 56.0625 45.097656 55.671875 45.097656 55.5625 45.125 Z M 53.0625 45.5 C 53.023438 45.484375 52.273438 45.652344 52.25 45.6875 C 51.714844 46.453125 52.617188 62.164062 52.3125 64.375 C 52.3125 64.375 53.25 64.3125 53.25 64.3125 C 52.777344 62.277344 53.9375 45.839844 53.0625 45.5 Z M 49.5625 46.25 C 48.714844 46.539062 49.5625 62.300781 49.25 64.1875 C 49.25 64.1875 50.0625 64.25 50.0625 64.25 C 50.0625 64.25 50.25 46.3125 50.25 46.3125 C 50.148438 46.230469 49.675781 46.210938 49.5625 46.25 Z M 46.9375 46.75 C 46.898438 46.742188 46.328125 46.960938 46.125 46.9375 C 46.8125 48.949219 45.609375 63.746094 46.3125 64.25 C 46.371094 64.292969 47.152344 64.308594 47.25 64.0625 C 46.9375 62.449219 47.785156 46.933594 46.9375 46.75 Z M 58.25 68.75 C 57.390625 69.203125 56.664062 69.882812 55.75 70.25 C 55.550781 70.179688 55.105469 70.078125 54.875 70.0625 C 54.875 70.0625 55.25 69.6875 55.25 69.6875 C 48.949219 68.742188 41.363281 68.75 36.375 73.4375 C 36.804688 73.273438 38.144531 73.535156 38.3125 73.5 C 38.488281 73.464844 39.277344 72.644531 39.5625 72.5 C 41.648438 71.441406 43.6875 70.621094 46.0625 70.375 C 47.035156 70.273438 55.574219 70.207031 55.625 70.9375 C 55.21875 71.238281 54.769531 71.5625 54.5 72 C 50.382812 72.664062 45.957031 71.609375 42 73.4375 C 42 73.4375 55.3125 73.375 55.3125 73.375 C 57.257812 71.453125 59.539062 69.957031 61.875 68.5625 C 51.867188 64.710938 39.042969 64.890625 31.5 73.4375 C 34.1875 73.871094 34.285156 72.390625 35.9375 71.125 C 40.617188 67.542969 46.8125 66.832031 52.5625 67.375 C 54.332031 67.542969 56.691406 67.914062 58.25 68.75 Z M 73.9375 66.75 C 69.691406 67.054688 65.152344 68.777344 61.5625 71 C 60.554688 71.625 59.0625 72.578125 58.4375 73.5 C 58.816406 73.117188 59.953125 73.546875 60.1875 73.5 C 60.363281 73.464844 62.519531 71.679688 63.0625 71.375 C 71.199219 66.777344 81.667969 66.460938 89.9375 71 C 91.816406 72.03125 93.136719 74.03125 95.375 73.4375 C 89.617188 68.382812 81.558594 66.199219 73.9375 66.75 Z M 74.0625 69.75 C 70.429688 70.023438 66.484375 71.539062 63.4375 73.5 C 66.050781 73.710938 67.871094 72.125 70.3125 71.5 C 75.609375 70.140625 80.445312 70.828125 85.5625 72.375 C 87.121094 72.847656 88.230469 74.015625 90.125 73.4375 C 85.394531 70.609375 79.585938 69.335938 74.0625 69.75 Z M 74.6875 72.75 C 73.394531 72.8125 71.792969 73.074219 70.5625 73.5 C 70.5625 73.5 82.375 73.4375 82.375 73.4375 C 79.886719 72.953125 77.234375 72.625 74.6875 72.75 Z M 74.6875 72.75 "/>
</g>
</svg>
