<?xml version="1.0" encoding="UTF-8"?>
<svg xmlns="http://www.w3.org/2000/svg" xmlns:xlink="http://www.w3.org/1999/xlink" width="128" height="128" viewBox="0 0 128 128" version="1.1">
<defs>
<linearGradient id="linear0" gradientUnits="userSpaceOnUse" x1="403.408997" y1="607.161011" x2="760.611023" y2="691.398987" gradientTransform="matrix(0.125,0,0,0.125,0,0)">
<stop offset="0.212534" style="stop-color:rgb(83.92157%,84.705883%,86.666667%);stop-opacity:1;"/>
<stop offset="1" style="stop-color:rgb(74.117649%,74.509805%,81.568629%);stop-opacity:1;"/>
</linearGradient>
</defs>
<g id="surface1">
<path style=" stroke:none;fill-rule:nonzero;fill:rgb(99.607843%,99.215686%,99.215686%);fill-opacity:1;" d="M 90.3125 21.125 C 90.640625 21.054688 91 21.144531 91.3125 21.25 C 92.035156 21.496094 96.121094 24.148438 95.375 25.3125 C 89.820312 33.113281 84.796875 41.628906 79.125 49.3125 C 78.820312 49.726562 77.738281 51.410156 77.3125 51.375 C 76.871094 51.335938 74.042969 49.179688 73.1875 49.125 C 73.1875 49.125 73.125 48.8125 73.125 48.8125 C 73.125 48.8125 89.125 22.3125 89.125 22.3125 C 89.359375 22.007812 89.957031 21.203125 90.3125 21.125 Z M 90.3125 21.125 "/>
<path style=" stroke:none;fill-rule:nonzero;fill:rgb(99.215686%,99.215686%,99.215686%);fill-opacity:1;" d="M 103.0625 29.875 C 104.25 29.628906 106.324219 31.78125 107 32.6875 C 107.648438 33.558594 108.109375 33.882812 107.5 35.0625 C 107.5 35.0625 84.0625 56.875 84.0625 56.875 C 84.0625 56.875 80.5 53.3125 80.5 53.3125 C 87.824219 46.507812 94.285156 37.71875 101.625 31.0625 C 101.941406 30.777344 102.683594 29.953125 103.0625 29.875 Z M 103.0625 29.875 "/>
<path style=" stroke:none;fill-rule:nonzero;fill:rgb(98.431373%,98.431373%,98.431373%);fill-opacity:1;" d="M 70.625 49.5 C 70.625 49.5 70 49.9375 70 49.9375 C 70 49.9375 70.1875 50.125 70.1875 50.125 C 74.75 51.878906 79.148438 54.621094 82.4375 58.125 C 79.933594 58.683594 79.183594 56.953125 77.4375 55.75 C 65.386719 47.449219 49.242188 46.175781 37.1875 55.25 C 36.65625 55.652344 34.152344 58.199219 33.9375 58.25 C 33.554688 58.34375 32.570312 57.957031 32.0625 58.125 C 32.402344 56.480469 36.921875 54.042969 37.375 53.1875 C 37.550781 52.851562 37.496094 52.484375 37.5 52.125 C 47.371094 45.601562 59.761719 45.28125 70.625 49.5 Z M 70.625 49.5 "/>
<path style=" stroke:none;fill-rule:nonzero;fill:rgb(83.529413%,83.529413%,84.313726%);fill-opacity:1;" d="M 70.625 49.5 C 73.464844 50.605469 75.683594 51.757812 78.1875 53.5 C 78.910156 54.003906 83.960938 58.003906 84 58.4375 C 84.050781 59.03125 80.566406 59.007812 80.0625 58.875 C 79.851562 58.820312 77.238281 56.496094 76.6875 56.125 C 64.765625 48.058594 48.886719 47.0625 37.3125 56.125 C 36.789062 56.535156 34.457031 58.945312 34.1875 59 C 33.8125 59.078125 30.375 58.710938 30.375 58.4375 C 32.625 56.121094 34.792969 53.914062 37.5 52.125 C 37.496094 52.484375 37.550781 52.851562 37.375 53.1875 C 36.921875 54.042969 32.402344 56.480469 32.0625 58.125 C 32.570312 57.957031 33.554688 58.34375 33.9375 58.25 C 34.152344 58.199219 36.65625 55.652344 37.1875 55.25 C 49.242188 46.175781 65.386719 47.449219 77.4375 55.75 C 79.183594 56.953125 79.933594 58.683594 82.4375 58.125 C 79.148438 54.621094 74.75 51.878906 70.1875 50.125 C 70.1875 50.125 70 49.9375 70 49.9375 Z M 70.625 49.5 "/>
<path style=" stroke:none;fill-rule:nonzero;fill:rgb(89.411765%,89.019608%,89.803922%);fill-opacity:1;" d="M 76.75 57.75 C 76.75 57.75 77.25 58.5625 77.25 58.5625 C 76.875 59.21875 76.457031 58.628906 76.375 58.625 C 65.972656 49.820312 47.96875 48.851562 37.75 58.5 C 37.535156 58.46875 37.308594 58.75 37 58.4375 C 36.96875 58.359375 37.421875 57.730469 37.5 57.625 C 38.472656 56.324219 42.277344 54.074219 43.8125 53.375 C 53.875 48.792969 68.25 50.640625 76.75 57.75 Z M 76.75 57.75 "/>
<path style=" stroke:none;fill-rule:nonzero;fill:rgb(99.607843%,99.607843%,99.607843%);fill-opacity:1;" d="M 76.375 58.625 C 72.667969 58.511719 73.046875 57.664062 70.0625 56.25 C 62.171875 52.511719 51.808594 51.945312 43.9375 56 C 41.464844 57.273438 40.753906 58.9375 37.75 58.5 C 47.96875 48.851562 65.972656 49.820312 76.375 58.625 Z M 76.375 58.625 "/>
<path style=" stroke:none;fill-rule:nonzero;fill:rgb(81.176472%,80.784315%,81.960785%);fill-opacity:1;" d="M 76.375 58.625 C 76.457031 58.628906 76.875 59.21875 77.25 58.5625 C 77.25 58.5625 76.75 57.75 76.75 57.75 C 77.191406 58.121094 77.679688 58.4375 78.0625 58.875 C 78.0625 58.875 77.9375 59.125 77.9375 59.125 C 77.632812 59.226562 73.613281 59.121094 73.1875 59 C 72.382812 58.769531 69.761719 56.882812 68.5625 56.375 C 61.222656 53.261719 51.765625 52.832031 44.5625 56.5 C 43.804688 56.886719 40.914062 59.070312 40.6875 59.125 C 40.207031 59.242188 36.351562 59.082031 36.25 58.8125 C 36.25 58.8125 37.5 57.625 37.5 57.625 C 37.421875 57.730469 36.96875 58.359375 37 58.4375 C 37.308594 58.75 37.535156 58.46875 37.75 58.5 C 40.753906 58.9375 41.464844 57.273438 43.9375 56 C 51.808594 51.945312 62.171875 52.511719 70.0625 56.25 C 73.046875 57.664062 72.667969 58.511719 76.375 58.625 Z M 76.375 58.625 "/>
<path style=" stroke:none;fill-rule:nonzero;fill:rgb(85.09804%,85.09804%,86.274511%);fill-opacity:1;" d="M 53.8125 55 C 59.273438 54.609375 66.019531 55.957031 70.625 58.9375 C 68.203125 58.964844 65.738281 59.300781 63.3125 59.125 C 59.617188 58.859375 57.089844 57.695312 53.0625 58.25 C 52.082031 58.386719 50.828125 59.023438 50.0625 59.125 C 47.996094 59.398438 45.410156 58.917969 43.3125 58.875 C 43.386719 58.460938 44.105469 58.082031 44.4375 57.875 C 46.765625 56.433594 51.082031 55.195312 53.8125 55 Z M 54.9375 55.75 C 53.195312 55.8125 50.742188 56.253906 49.0625 56.75 C 48.796875 56.828125 44.765625 58.351562 45.3125 58.625 C 48.398438 59.15625 51.007812 57.597656 53.9375 57.375 C 58.957031 56.996094 63.3125 58.988281 68.25 58.5625 C 64.394531 56.714844 59.242188 55.597656 54.9375 55.75 Z M 54.9375 55.75 "/>
<path style=" stroke:none;fill-rule:nonzero;fill:rgb(99.607843%,99.215686%,99.215686%);fill-opacity:1;" d="M 54.9375 55.75 C 59.242188 55.597656 64.394531 56.714844 68.25 58.5625 C 63.3125 58.988281 58.957031 56.996094 53.9375 57.375 C 51.007812 57.597656 48.398438 59.15625 45.3125 58.625 C 44.765625 58.351562 48.796875 56.828125 49.0625 56.75 C 50.742188 56.253906 53.195312 55.8125 54.9375 55.75 Z M 54.9375 55.75 "/>
<path style=" stroke:none;fill-rule:nonzero;fill:rgb(98.823529%,98.823529%,98.823529%);fill-opacity:1;" d="M 54.0625 59.25 C 55.835938 59.078125 58.382812 59.144531 60 59.9375 C 59.242188 59.933594 51.863281 60.222656 51.875 59.8125 C 52.515625 59.539062 53.355469 59.320312 54.0625 59.25 Z M 54.0625 59.25 "/>
<path style=" stroke:none;fill-rule:nonzero;fill:rgb(99.215686%,99.215686%,99.215686%);fill-opacity:1;" d="M 25.4375 61.125 C 25.4375 61.125 102.1875 61.125 102.1875 61.125 C 104.46875 61.429688 103.664062 65.003906 103.375 66.6875 C 101.582031 77.082031 92.898438 87.277344 83.625 91.9375 C 83.710938 94.585938 84.625 98.59375 81.3125 99.5 C 81.3125 99.5 46.6875 99.5 46.6875 99.5 C 43.097656 98.460938 44.53125 94.519531 44.25 91.6875 C 34.707031 87.417969 26.207031 76.941406 24.375 66.5625 C 24.101562 65.011719 23.296875 61.539062 25.4375 61.125 Z M 82 98.125 C 83.664062 96.800781 82.105469 92.816406 82.875 91.3125 C 83.011719 91.042969 87.316406 88.773438 88.0625 88.25 C 94.816406 83.535156 102.714844 72.472656 102.75 64 C 102.753906 63.15625 102.964844 62.292969 101.9375 62 C 101.9375 62 25.5625 62 25.5625 62 C 24.496094 62.285156 24.898438 64.296875 25 65.1875 C 25.972656 73.847656 32.945312 83.707031 40.0625 88.5 C 41.6875 89.59375 43.53125 90.292969 45.125 91.4375 C 45.363281 93.0625 44.492188 97.238281 45.9375 98.25 C 46.679688 98.769531 48.914062 98.699219 49.9375 98.75 C 58.292969 99.171875 68.53125 99.0625 76.9375 98.75 C 78.253906 98.699219 81.121094 98.824219 82 98.125 Z M 82 98.125 "/>
<path style=" stroke:none;fill-rule:nonzero;fill:rgb(92.941177%,93.725491%,93.333334%);fill-opacity:1;" d="M 102.75 64 C 102.75 64 102.25 63.875 102.25 63.875 C 102.25 63.324219 102.394531 62.988281 101.8125 62.75 C 101.8125 62.75 85.0625 62.625 85.0625 62.625 C 85.609375 72.800781 79.074219 84.179688 69.8125 88.5 C 63.964844 91.226562 56.070312 90.4375 49.6875 90.25 C 49.539062 90.246094 49.0625 90.304688 49 90.5 C 45.039062 86.425781 41.65625 81.976562 40 76.4375 C 42.886719 72.109375 47.089844 68.75 51.6875 66.375 C 53.59375 65.390625 55.855469 64.734375 57.5625 63.625 C 57.5625 63.625 27.4375 63.625 27.4375 63.625 C 26.277344 64.554688 29.445312 72.34375 30.125 73.6875 C 31.839844 77.074219 34.796875 80.839844 37.5 83.5 C 37.335938 83.519531 37.007812 83.980469 37 84.0625 C 36.953125 84.589844 40.636719 87.285156 41.25 87.8125 C 41.289062 87.84375 41.136719 88.1875 41.4375 88.5 C 42.085938 89.167969 45.234375 90.21875 45.5 91.1875 C 45.9375 92.785156 44.699219 97.363281 46.8125 98 C 46.8125 98 80.3125 98.125 80.3125 98.125 C 80.6875 97.910156 81.382812 98.027344 81.75 97.75 C 81.75 97.75 82 98.125 82 98.125 C 81.121094 98.824219 78.253906 98.699219 76.9375 98.75 C 68.53125 99.0625 58.292969 99.171875 49.9375 98.75 C 48.914062 98.699219 46.679688 98.769531 45.9375 98.25 C 44.492188 97.238281 45.363281 93.0625 45.125 91.4375 C 43.53125 90.292969 41.6875 89.59375 40.0625 88.5 C 32.945312 83.707031 25.972656 73.847656 25 65.1875 C 24.898438 64.296875 24.496094 62.285156 25.5625 62 C 25.5625 62 101.9375 62 101.9375 62 C 102.964844 62.292969 102.753906 63.15625 102.75 64 Z M 102.75 64 "/>
<path style=" stroke:none;fill-rule:nonzero;fill:url(#linear0);" d="M 102.25 63.875 C 102.230469 72.847656 93.058594 84.34375 85.8125 89 C 85.121094 89.445312 82.804688 90.304688 82.5 90.8125 C 81.703125 92.132812 82.886719 96.894531 81.75 97.75 C 81.382812 98.027344 80.6875 97.910156 80.3125 98.125 C 80.3125 98.125 46.8125 98 46.8125 98 C 44.699219 97.363281 45.9375 92.785156 45.5 91.1875 C 45.234375 90.21875 42.085938 89.167969 41.4375 88.5 C 41.136719 88.1875 41.289062 87.84375 41.25 87.8125 C 40.636719 87.285156 36.953125 84.589844 37 84.0625 C 37.007812 83.980469 37.335938 83.519531 37.5 83.5 C 41.039062 86.984375 44.976562 89.472656 49.5625 91.375 C 50.054688 91.363281 49.082031 90.582031 49 90.5 C 49.0625 90.304688 49.539062 90.246094 49.6875 90.25 C 56.070312 90.4375 63.964844 91.226562 69.8125 88.5 C 79.074219 84.179688 85.609375 72.800781 85.0625 62.625 C 85.0625 62.625 101.8125 62.75 101.8125 62.75 C 102.394531 62.988281 102.25 63.324219 102.25 63.875 Z M 102.25 63.875 "/>
<path style=" stroke:none;fill-rule:nonzero;fill:rgb(99.607843%,99.607843%,99.607843%);fill-opacity:1;" d="M 49 90.5 C 49.082031 90.582031 50.054688 91.363281 49.5625 91.375 C 44.976562 89.472656 41.039062 86.984375 37.5 83.5 C 34.796875 80.839844 31.839844 77.074219 30.125 73.6875 C 29.445312 72.34375 26.277344 64.554688 27.4375 63.625 C 27.4375 63.625 57.5625 63.625 57.5625 63.625 C 55.855469 64.734375 53.59375 65.390625 51.6875 66.375 C 47.089844 68.75 42.886719 72.109375 40 76.4375 C 41.65625 81.976562 45.039062 86.425781 49 90.5 Z M 49 90.5 "/>
<path style=" stroke:none;fill-rule:nonzero;fill:rgb(89.019608%,89.019608%,91.37255%);fill-opacity:1;" d="M 102.75 64 C 102.714844 72.472656 94.816406 83.535156 88.0625 88.25 C 87.316406 88.773438 83.011719 91.042969 82.875 91.3125 C 82.105469 92.816406 83.664062 96.800781 82 98.125 C 82 98.125 81.75 97.75 81.75 97.75 C 82.886719 96.894531 81.703125 92.132812 82.5 90.8125 C 82.804688 90.304688 85.121094 89.445312 85.8125 89 C 93.058594 84.34375 102.230469 72.847656 102.25 63.875 Z M 102.75 64 "/>
</g>
</svg>
