<?xml version="1.0" encoding="UTF-8"?>
<svg xmlns="http://www.w3.org/2000/svg" xmlns:xlink="http://www.w3.org/1999/xlink" width="128" height="128" viewBox="0 0 128 128" version="1.1">
<g id="surface1">
<path style=" stroke:none;fill-rule:nonzero;fill:rgb(98.039216%,98.431373%,98.431373%);fill-opacity:1;" d="M 107.0625 27.375 C 107.363281 27.335938 107.726562 27.378906 107.875 27.6875 C 107.953125 27.851562 108.535156 31.132812 108.5 31.3125 C 108.433594 31.65625 108.085938 31.789062 107.8125 31.875 C 105.832031 32.507812 102.867188 32.496094 100.8125 32.875 C 93.683594 34.1875 86.589844 35.644531 79.4375 36.875 C 78.84375 36.976562 77.667969 36.730469 77.1875 36.875 C 77.101562 36.902344 77.148438 37.339844 76.9375 37.375 C 73.328125 37.992188 69.65625 38.269531 66.0625 38.875 C 62.957031 39.398438 58.347656 40.910156 55.3125 41 C 53.808594 41.042969 53.851562 40.054688 54.9375 39.625 C 70.414062 36.039062 85.742188 32.503906 101.1875 29 C 102.863281 28.621094 105.453125 27.589844 107.0625 27.375 Z M 107.0625 27.375 "/>
<path style=" stroke:none;fill-rule:nonzero;fill:rgb(40.000001%,42.352942%,39.607844%);fill-opacity:1;" d="M 108.375 37.375 C 105.890625 37.917969 103.328125 37.855469 100.8125 38.125 C 96.507812 38.589844 91.605469 39.359375 87.0625 39.875 C 84.082031 40.214844 81.027344 40.113281 78.0625 40.625 C 76.394531 40.914062 72.074219 41.496094 73.375 44 C 72.859375 44.042969 73.007812 44.375 72.75 44.0625 C 72.273438 40.820312 74.820312 41.128906 77.0625 40.375 C 77.0625 40.375 107.8125 37 107.8125 37 C 108.136719 36.941406 108.226562 37.164062 108.375 37.375 Z M 108.375 37.375 "/>
<path style=" stroke:none;fill-rule:nonzero;fill:rgb(98.431373%,98.823529%,98.823529%);fill-opacity:1;" d="M 108.375 37.375 C 108.582031 37.671875 109.003906 41.164062 108.875 41.5625 C 108.855469 41.628906 108.628906 41.972656 108.5625 42 C 108.148438 42.167969 104.765625 41.953125 103.9375 42 C 93.765625 42.582031 83.519531 43.128906 73.375 44 C 72.074219 41.496094 76.394531 40.914062 78.0625 40.625 C 81.027344 40.113281 84.082031 40.214844 87.0625 39.875 C 91.605469 39.359375 96.507812 38.589844 100.8125 38.125 C 103.328125 37.855469 105.890625 37.917969 108.375 37.375 Z M 108.375 37.375 "/>
<path style=" stroke:none;fill-rule:nonzero;fill:rgb(96.862745%,97.254902%,97.254902%);fill-opacity:1;" d="M 69.75 65.375 C 69.5625 66.082031 68.890625 65.671875 68.375 65.625 C 68.328125 63.929688 67.300781 61.640625 67.5 60 C 67.5 60 70.875 56.5625 70.875 56.5625 C 72.089844 54.714844 72.816406 52.128906 72.125 49.9375 C 71.816406 48.964844 70.992188 48.300781 70.625 47.1875 C 70.601562 47.113281 70.289062 47.664062 70 47.375 C 68.980469 45.070312 68.976562 43.015625 70.25 40.8125 C 70.824219 39.816406 72.023438 38.265625 73.25 39.1875 C 72.671875 40.03125 71.613281 41.179688 71.375 42.1875 C 70.492188 45.914062 74.058594 48.402344 73.5 52.9375 C 73.011719 56.921875 68.886719 58.386719 69.125 62.5625 C 69.175781 63.4375 69.507812 64.523438 69.75 65.375 Z M 71.1875 41.375 C 70.589844 42.382812 70.335938 43.785156 70.5 44.9375 C 70.5625 45.375 72.089844 48.664062 72.25 47.3125 C 70.859375 45.386719 70.722656 43.632812 71.1875 41.375 Z M 71.1875 41.375 "/>
<path style=" stroke:none;fill-rule:nonzero;fill:rgb(23.529412%,25.490198%,25.098041%);fill-opacity:1;" d="M 57.625 41 C 58.332031 41.710938 55.878906 41.625 55.625 41.9375 C 55.625 41.9375 58.3125 41.625 58.3125 41.625 C 58.695312 41.722656 58.648438 43.8125 58.5 44.25 C 58.480469 44.261719 58.550781 44.464844 58.4375 44.5 C 58.179688 44.582031 53.320312 44.582031 53.0625 44.5 C 52.441406 44.304688 52.304688 42.96875 52.9375 42.625 C 53.15625 42.503906 54.75 42.449219 54.75 42.3125 C 53.402344 42.046875 52.511719 40.441406 53.5625 39.25 C 53.5625 39.25 53.875 39.5625 53.875 39.5625 C 52.785156 42.351562 56.101562 41.207031 57.625 41 Z M 56.9375 42.5 C 55.914062 42.496094 53.832031 42.785156 53 43.1875 C 52.160156 44.738281 57.304688 43.707031 58.0625 44 C 58.21875 42.511719 58.359375 42.503906 56.9375 42.5 Z M 56.9375 42.5 "/>
<path style=" stroke:none;fill-rule:nonzero;fill:rgb(96.862745%,97.647059%,97.254902%);fill-opacity:1;" d="M 69.375 55.25 C 68.300781 56.683594 66.128906 58.183594 66 60.0625 C 65.886719 61.714844 67.339844 64.039062 67.375 65.75 C 66.851562 65.664062 65.921875 65.949219 65.5 65.5625 C 65.28125 65.363281 63.921875 61.519531 63.875 61.0625 C 63.582031 58.238281 64.597656 58.207031 66 56.375 C 68.398438 55.308594 69.597656 53.171875 68.875 50.5625 C 68.828125 50.394531 67.515625 47.542969 67.375 47.4375 C 67.183594 47.292969 66.738281 47.660156 66.625 47.5625 C 66.484375 47.4375 66.101562 45.167969 66.125 44.9375 C 66.210938 44.101562 66.65625 44.476562 66.75 44.3125 C 66.835938 44.160156 66.84375 42.390625 67 41.9375 C 67.210938 41.332031 68.386719 40.484375 68.25 39.625 C 68.667969 39.511719 68.898438 39.65625 69.3125 39.625 C 68.46875 41.671875 67.613281 42.980469 68 45.4375 C 68.332031 47.535156 70.1875 48.90625 70.375 51.0625 C 70.511719 52.632812 69.96875 53.859375 69.375 55.25 Z M 69.375 55.25 "/>
<path style=" stroke:none;fill-rule:nonzero;fill:rgb(92.156863%,92.941177%,92.941177%);fill-opacity:1;" d="M 68.25 39.625 C 68.386719 40.484375 67.210938 41.332031 67 41.9375 C 66.84375 42.390625 66.835938 44.160156 66.75 44.3125 C 66.65625 44.476562 66.210938 44.101562 66.125 44.9375 C 66.101562 45.167969 66.484375 47.4375 66.625 47.5625 C 66.738281 47.660156 67.183594 47.292969 67.375 47.4375 C 67.515625 47.542969 68.828125 50.394531 68.875 50.5625 C 69.597656 53.171875 68.398438 55.308594 66 56.375 C 66.75 55.394531 68.269531 53.917969 68.375 52.6875 C 68.578125 50.351562 65.925781 47.808594 65.75 45.4375 C 65.648438 44.070312 66.851562 40.007812 68.25 39.625 Z M 68.25 39.625 "/>
<path style=" stroke:none;fill-rule:nonzero;fill:rgb(90.980393%,92.156863%,92.54902%);fill-opacity:1;" d="M 65.625 54.625 C 65.984375 54.011719 66.523438 52.097656 66.25 51.4375 C 66.085938 51.046875 65.78125 51.140625 65.75 51.0625 C 64.585938 48.269531 63.007812 45.902344 64.125 42.8125 C 64.277344 42.386719 65.59375 40.589844 65.0625 40.375 C 64.679688 40.21875 62.933594 43.820312 62.875 44.3125 C 62.496094 47.488281 65.667969 50.871094 65.125 53.3125 C 65.066406 53.582031 64.160156 54.9375 64.125 53.875 C 65.515625 51.3125 62.535156 49.292969 62.25 46.9375 C 62.058594 45.367188 62.71875 42.742188 63.625 41.4375 C 63.925781 41.003906 65.234375 39.476562 65.8125 40.125 C 65.984375 40.320312 64.578125 43.355469 64.5 44.0625 C 64.066406 48.015625 68.203125 51.246094 65.625 54.625 Z M 65.625 54.625 "/>
<path style=" stroke:none;fill-rule:nonzero;fill:rgb(0.784314%,1.568628%,3.137255%);fill-opacity:1;" d="M 63 40.625 C 62.808594 40.78125 61.730469 40.320312 61.5 40.75 C 60.433594 40.648438 59.761719 42.453125 59.5 43.375 C 59.011719 43.007812 60.707031 40.878906 59.9375 41.25 C 59.457031 41.484375 59.289062 43.738281 58.5 44.25 C 58.648438 43.8125 58.695312 41.722656 58.3125 41.625 C 58.3125 41.625 55.625 41.9375 55.625 41.9375 C 55.878906 41.625 58.332031 41.710938 57.625 41 C 58.355469 40.898438 62.738281 40.019531 62.9375 40.25 C 63.023438 40.347656 63.023438 40.605469 63 40.625 Z M 63 40.625 "/>
<path style=" stroke:none;fill-rule:nonzero;fill:rgb(98.431373%,98.431373%,98.431373%);fill-opacity:1;" d="M 65.625 54.625 C 65.078125 55.5625 63.78125 56.507812 63.375 57.4375 C 62.332031 59.828125 63.773438 63.199219 64.25 65.625 C 63.847656 65.90625 62.304688 65.933594 62.375 65.125 C 62.511719 63.039062 61.117188 60.503906 61.375 58.3125 C 61.636719 56.082031 63.359375 55.285156 64.125 53.875 C 64.160156 54.9375 65.066406 53.582031 65.125 53.3125 C 65.667969 50.871094 62.496094 47.488281 62.875 44.3125 C 62.933594 43.820312 64.679688 40.21875 65.0625 40.375 C 65.59375 40.589844 64.277344 42.386719 64.125 42.8125 C 63.007812 45.902344 64.585938 48.269531 65.75 51.0625 C 65.78125 51.140625 66.085938 51.046875 66.25 51.4375 C 66.523438 52.097656 65.984375 54.011719 65.625 54.625 Z M 65.625 54.625 "/>
<path style=" stroke:none;fill-rule:nonzero;fill:rgb(97.647059%,98.039216%,98.039216%);fill-opacity:1;" d="M 61.5 40.75 C 62.644531 40.855469 61.414062 42.566406 61.25 43.4375 C 60.445312 47.769531 62.015625 47.636719 62.625 50.8125 C 63.285156 54.261719 60.183594 55.355469 59.875 58.3125 C 59.699219 60.015625 61.519531 65.160156 61.375 65.5625 C 61.285156 65.808594 59.996094 65.8125 59.8125 65.75 C 59.601562 65.679688 58.058594 62.0625 58 61.6875 C 57.238281 56.953125 61.105469 53.9375 60.75 51.1875 C 60.34375 48.074219 58.261719 47.730469 59.5 43.375 C 59.761719 42.453125 60.433594 40.648438 61.5 40.75 Z M 61.5 40.75 "/>
<path style=" stroke:none;fill-rule:nonzero;fill:rgb(91.764706%,92.941177%,92.54902%);fill-opacity:1;" d="M 71.1875 41.375 C 70.722656 43.632812 70.859375 45.386719 72.25 47.3125 C 72.089844 48.664062 70.5625 45.375 70.5 44.9375 C 70.335938 43.785156 70.589844 42.382812 71.1875 41.375 Z M 71.1875 41.375 "/>
<path style=" stroke:none;fill-rule:nonzero;fill:rgb(91.764706%,92.54902%,92.156863%);fill-opacity:1;" d="M 56.9375 42.5 C 58.359375 42.503906 58.21875 42.511719 58.0625 44 C 57.304688 43.707031 52.160156 44.738281 53 43.1875 C 53.832031 42.785156 55.914062 42.496094 56.9375 42.5 Z M 56.9375 42.5 "/>
<path style=" stroke:none;fill-rule:nonzero;fill:rgb(90.980393%,91.764706%,90.588236%);fill-opacity:1;" d="M 67.5 60 C 67.605469 59.121094 68.273438 58.4375 68.75 57.75 C 69.871094 56.128906 71.644531 54.621094 71.875 52.4375 C 72.132812 49.988281 70.820312 49.226562 70 47.375 C 70.289062 47.664062 70.601562 47.113281 70.625 47.1875 C 70.992188 48.300781 71.816406 48.964844 72.125 49.9375 C 72.816406 52.128906 72.089844 54.714844 70.875 56.5625 Z M 67.5 60 "/>
<path style=" stroke:none;fill-rule:nonzero;fill:rgb(38.039216%,38.431373%,31.37255%);fill-opacity:1;" d="M 45.75 56 C 41.941406 56.925781 38.253906 60.320312 37.125 64.125 C 36.304688 63.929688 37.367188 62.140625 37.625 61.6875 C 38.453125 60.226562 40.011719 58.722656 41.0625 57.875 C 42 57.121094 42.855469 56.308594 44.0625 55.875 C 44.625 55.671875 45.246094 55.574219 45.8125 55.375 Z M 45.75 56 "/>
<path style=" stroke:none;fill-rule:nonzero;fill:rgb(98.431373%,98.823529%,98.431373%);fill-opacity:1;" d="M 45.25 58.5 C 45.332031 57.851562 43.84375 58.980469 43.875 59.125 C 41.332031 60.332031 40.332031 61.675781 39.125 64.1875 C 38.722656 65.027344 38.898438 66.40625 37.0625 65.75 C 36.460938 65.535156 37.007812 64.519531 37.125 64.125 C 38.253906 60.320312 41.941406 56.925781 45.75 56 C 48.75 55.269531 51.386719 55.4375 54.3125 56.5 C 56.269531 57.210938 57.382812 57.449219 56.875 59.8125 C 56.734375 60.191406 54.675781 58.769531 54.3125 58.625 C 51.027344 57.308594 48.589844 57.359375 45.25 58.5 Z M 45.25 58.5 "/>
<path style=" stroke:none;fill-rule:nonzero;fill:rgb(92.54902%,93.725491%,93.725491%);fill-opacity:1;" d="M 87 64 C 87.574219 63.957031 87.9375 65.445312 88.0625 65.5 C 88.34375 65.628906 89.003906 64.875 89 64.5625 C 88.960938 60.128906 80.6875 55.929688 76.9375 56.5 C 75.398438 56.734375 73.515625 58.050781 72.5 59.1875 C 73.785156 59.058594 74.789062 57.957031 76.0625 57.625 C 76.386719 57.539062 78.699219 57.292969 78.8125 57.375 C 78.960938 57.480469 78.820312 57.878906 78.875 57.9375 C 78.9375 58.007812 80.570312 58.488281 80.6875 58.5 C 81.121094 58.539062 81.078125 58.136719 81.5625 58.125 C 81.667969 58.121094 83.355469 59.058594 83.4375 59.125 C 83.980469 59.558594 85.589844 61.507812 86 62.125 C 84.007812 60.648438 81.636719 58.53125 79.0625 58.25 C 75.414062 57.851562 72.554688 59.707031 70.25 62.3125 C 70.058594 60.765625 72.28125 58.5 73.4375 57.625 C 78.644531 53.6875 87.589844 58.101562 89.125 64.1875 C 89.269531 64.761719 89.589844 65.5625 88.9375 65.75 C 87.214844 66.25 87.492188 65.019531 87 64 Z M 87 64 "/>
<path style=" stroke:none;fill-rule:nonzero;fill:rgb(98.039216%,98.431373%,98.431373%);fill-opacity:1;" d="M 87 64 C 86.679688 63.339844 86.40625 62.742188 86 62.125 C 85.589844 61.507812 83.980469 59.558594 83.4375 59.125 C 83.355469 59.058594 81.667969 58.121094 81.5625 58.125 C 81.078125 58.136719 81.121094 58.539062 80.6875 58.5 C 80.570312 58.488281 78.9375 58.007812 78.875 57.9375 C 78.820312 57.878906 78.960938 57.480469 78.8125 57.375 C 78.699219 57.292969 76.386719 57.539062 76.0625 57.625 C 74.789062 57.957031 73.785156 59.058594 72.5 59.1875 C 73.515625 58.050781 75.398438 56.734375 76.9375 56.5 C 80.6875 55.929688 88.960938 60.128906 89 64.5625 C 89.003906 64.875 88.34375 65.628906 88.0625 65.5 C 87.9375 65.445312 87.574219 63.957031 87 64 Z M 87 64 "/>
<path style=" stroke:none;fill-rule:nonzero;fill:rgb(32.549021%,33.725491%,30.980393%);fill-opacity:1;" d="M 68.75 57.75 C 68.273438 58.4375 67.605469 59.121094 67.5 60 C 67.300781 61.640625 68.328125 63.929688 68.375 65.625 C 67.988281 65.589844 68.199219 66.082031 67.875 65.6875 C 68.089844 64.304688 67.238281 63.019531 67.125 61.6875 C 66.925781 59.351562 67.585938 58.851562 68.625 57 C 68.945312 57.261719 68.128906 57.773438 68.75 57.75 Z M 68.75 57.75 "/>
<path style=" stroke:none;fill-rule:nonzero;fill:rgb(54.901963%,58.039218%,53.333336%);fill-opacity:1;" d="M 45.25 58.5 C 44.824219 58.644531 44.292969 58.925781 43.875 59.125 C 43.84375 58.980469 45.332031 57.851562 45.25 58.5 Z M 45.25 58.5 "/>
<path style=" stroke:none;fill-rule:nonzero;fill:rgb(97.647059%,98.431373%,98.039216%);fill-opacity:1;" d="M 48.0625 58.875 C 51.347656 58.527344 54.949219 59.503906 56.625 62.5625 C 57 63.246094 58.464844 66.457031 56.5625 65.75 C 56.3125 65.65625 55.3125 62.660156 53.1875 61.75 C 49.492188 60.167969 45.492188 60.945312 42.875 63.9375 C 42.039062 64.890625 42.300781 66.136719 40.4375 65.75 C 39.957031 65.542969 41.019531 63.5625 41.25 63.1875 C 42.621094 60.953125 45.449219 59.152344 48.0625 58.875 Z M 48.0625 58.875 "/>
<path style=" stroke:none;fill-rule:nonzero;fill:rgb(86.274511%,87.843138%,87.843138%);fill-opacity:1;" d="M 73.5 61.375 C 73.078125 62.371094 71.289062 63.429688 71.125 64.5625 C 70.808594 66.753906 72.242188 63.851562 72.375 63.6875 C 75.429688 59.976562 79.527344 60 82.9375 63.125 C 83.675781 63.800781 84.058594 64.78125 84.9375 65.25 C 85.167969 64.355469 83.679688 62.644531 82.9375 62 C 81.125 60.421875 78.113281 59.707031 75.8125 60.375 C 75.484375 60.46875 74.425781 61.4375 74.125 60.875 C 77.761719 58.765625 81.9375 59.570312 84.5 62.9375 C 84.757812 63.273438 86.050781 65.503906 85.4375 65.75 C 84.027344 66.316406 82.703125 63.675781 81.6875 62.875 C 78.542969 60.394531 75.101562 61.386719 72.625 64.1875 C 72.058594 64.828125 71.882812 66.519531 70.625 65.4375 C 70.621094 63.367188 71.988281 62.425781 73.5 61.375 Z M 73.5 61.375 "/>
<path style=" stroke:none;fill-rule:nonzero;fill:rgb(98.823529%,99.215686%,99.215686%);fill-opacity:1;" d="M 73.5 61.375 C 73.6875 61.246094 73.789062 61.070312 74.125 60.875 C 74.425781 61.4375 75.484375 60.46875 75.8125 60.375 C 78.113281 59.707031 81.125 60.421875 82.9375 62 C 83.679688 62.644531 85.167969 64.355469 84.9375 65.25 C 84.058594 64.78125 83.675781 63.800781 82.9375 63.125 C 79.527344 60 75.429688 59.976562 72.375 63.6875 C 72.242188 63.851562 70.808594 66.753906 71.125 64.5625 C 71.289062 63.429688 73.078125 62.371094 73.5 61.375 Z M 73.5 61.375 "/>
<path style=" stroke:none;fill-rule:nonzero;fill:rgb(93.725491%,94.117647%,92.941177%);fill-opacity:1;" d="M 43.75 65.125 C 43.996094 65.125 45.039062 65.433594 45.1875 65.375 C 45.390625 65.292969 46.214844 64.304688 46.3125 64.25 C 47.601562 63.539062 49.835938 63.351562 51.1875 64 C 51.90625 64.34375 52.261719 65.296875 53.1875 65.375 C 53.335938 63.957031 51.4375 62.949219 50.0625 62.625 C 49.542969 62.503906 48.972656 62.820312 48.5 62.25 C 50.230469 62.066406 52.511719 62.429688 53.5 64.0625 C 53.703125 64.394531 54.183594 65.355469 53.8125 65.625 C 52.335938 66.691406 51 64.289062 49.5625 64.125 C 46.898438 63.820312 46.195312 66.242188 43.6875 65.75 C 43.28125 65.464844 43.660156 65.335938 43.75 65.125 Z M 43.75 65.125 "/>
<path style=" stroke:none;fill-rule:nonzero;fill:rgb(98.039216%,98.431373%,98.039216%);fill-opacity:1;" d="M 48.5 62.25 C 48.972656 62.820312 49.542969 62.503906 50.0625 62.625 C 51.4375 62.949219 53.335938 63.957031 53.1875 65.375 C 52.261719 65.296875 51.90625 64.34375 51.1875 64 C 49.835938 63.351562 47.601562 63.539062 46.3125 64.25 C 46.214844 64.304688 45.390625 65.292969 45.1875 65.375 C 45.039062 65.433594 43.996094 65.125 43.75 65.125 C 44.449219 63.46875 46.824219 62.429688 48.5 62.25 Z M 48.5 62.25 "/>
<path style=" stroke:none;fill-rule:nonzero;fill:rgb(89.019608%,89.803922%,89.019608%);fill-opacity:1;" d="M 77.5625 62.875 C 79.242188 62.816406 81.039062 63.996094 82.125 65.1875 C 80.175781 66.414062 80.175781 65.339844 78.8125 64.875 C 76.414062 64.054688 76.914062 65.191406 75.6875 65.625 C 75.15625 65.8125 73.824219 65.898438 73.875 65.1875 C 73.941406 64.265625 76.65625 62.90625 77.5625 62.875 Z M 77.5625 62.875 "/>
<path style=" stroke:none;fill-rule:nonzero;fill:rgb(0.784314%,0.784314%,2.352941%);fill-opacity:1;" d="M 90.25 66.375 C 90.433594 66.1875 90.664062 66.199219 90.875 66.3125 C 90.710938 66.457031 90.425781 66.328125 90.25 66.375 Z M 90.25 66.375 "/>
<path style=" stroke:none;fill-rule:nonzero;fill:rgb(98.431373%,98.823529%,99.607843%);fill-opacity:1;" d="M 94.25 67.25 C 97.371094 67.90625 95.613281 74.152344 95 76.3125 C 93.289062 82.320312 89.125 87.679688 84.1875 91.375 C 83.136719 92.160156 80.222656 93.402344 80 94.5625 C 79.570312 96.800781 80.878906 98.355469 77.8125 99.625 C 77.8125 99.625 47.6875 99.5 47.6875 99.5 C 44.746094 98.550781 46.378906 95.546875 45.5 93.9375 C 45.269531 93.515625 42.261719 91.902344 41.5625 91.375 C 38.71875 89.230469 35.78125 86.265625 33.875 83.25 C 32.019531 80.320312 30.367188 76 29.875 72.5625 C 29.605469 70.675781 29.054688 68.058594 31.3125 67.25 Z M 35.6875 71.875 C 36.695312 78.015625 39.699219 83.292969 44.8125 86.875 C 45.144531 87.109375 45.121094 87.546875 45.3125 87.625 C 45.621094 87.75 49.007812 87.414062 49.1875 87.25 C 49.046875 86.214844 47.941406 87.011719 47.0625 86.625 C 43.929688 85.25 39.933594 79.425781 38.625 76.3125 C 38.328125 75.605469 37.507812 72.242188 37.375 72.0625 C 37.101562 71.6875 36.101562 71.953125 35.6875 71.875 Z M 35.6875 71.875 "/>
<path style=" stroke:none;fill-rule:nonzero;fill:rgb(52.549022%,53.333336%,54.901963%);fill-opacity:1;" d="M 35.6875 71.875 C 36.101562 71.953125 37.101562 71.6875 37.375 72.0625 C 37.507812 72.242188 38.328125 75.605469 38.625 76.3125 C 39.933594 79.425781 43.929688 85.25 47.0625 86.625 C 47.941406 87.011719 49.046875 86.214844 49.1875 87.25 C 49.007812 87.414062 45.621094 87.75 45.3125 87.625 C 45.121094 87.546875 45.144531 87.109375 44.8125 86.875 C 39.699219 83.292969 36.695312 78.015625 35.6875 71.875 Z M 35.6875 71.875 "/>
</g>
</svg>
