<?xml version="1.0" encoding="UTF-8"?>
<svg xmlns="http://www.w3.org/2000/svg" xmlns:xlink="http://www.w3.org/1999/xlink" width="128" height="128" viewBox="0 0 128 128" version="1.1">
<g id="surface1">
<path style=" stroke:none;fill-rule:nonzero;fill:rgb(95.294118%,95.294118%,96.470588%);fill-opacity:1;" d="M 72 77.75 C 72 77.75 73.375 77.9375 73.375 77.9375 C 73.046875 77.9375 72.578125 78.097656 72.3125 78.125 C 71.183594 78.234375 63.605469 78.6875 63.0625 78.5 C 62.554688 78.320312 62.484375 77.261719 62.375 76.9375 C 62.304688 76.734375 62.046875 77.066406 62 76.9375 C 61.539062 75.640625 62.496094 71.800781 61.8125 70.25 C 61.8125 70.25 61.5625 78.625 61.5625 78.625 C 56.960938 78.894531 52.351562 78.707031 47.75 78.75 C 47.75 78.75 61.125 78.0625 61.125 78.0625 C 61.125 78.0625 61 26.9375 61 26.9375 C 61.441406 25.523438 62.773438 25.351562 63.625 26.5625 C 63.625 26.5625 63.625 78.0625 63.625 78.0625 C 66.414062 78.074219 69.214844 77.90625 72 77.75 Z M 62.5625 56.75 C 62.5625 56.75 62.8125 77.125 62.8125 77.125 C 63.386719 76.351562 62.964844 75.289062 63 74.4375 C 63.183594 69.910156 63.660156 63.589844 63.375 59.1875 C 63.335938 58.566406 63.421875 56.140625 62.5625 56.75 Z M 62.5625 56.75 "/>
<path style=" stroke:none;fill-rule:nonzero;fill:rgb(92.941177%,92.156863%,94.117647%);fill-opacity:1;" d="M 65.625 29.625 C 65.109375 30.480469 65.839844 30.429688 66 30.6875 C 66 30.6875 94.75 71.5625 94.75 71.5625 C 94.75 71.5625 66.1875 73.75 66.1875 73.75 C 66.1875 73.75 66.125 56.8125 66.125 56.8125 C 66.125 56.8125 66 61.0625 66 61.0625 C 65.839844 61.269531 65.648438 60.894531 65.625 60.8125 C 65.371094 59.945312 65.882812 53.886719 65.875 52.4375 C 65.871094 51.515625 65.695312 50.554688 65.6875 49.625 C 65.667969 54.125 65.421875 58.632812 65.375 63.125 C 65.375 63.125 65.375 29.3125 65.375 29.3125 Z M 65.625 29.625 "/>
<path style=" stroke:none;fill-rule:nonzero;fill:rgb(92.941177%,93.333334%,94.117647%);fill-opacity:1;" d="M 65.375 63.125 C 65.421875 58.632812 65.667969 54.125 65.6875 49.625 C 65.695312 50.554688 65.871094 51.515625 65.875 52.4375 C 65.882812 53.886719 65.371094 59.945312 65.625 60.8125 C 65.648438 60.894531 65.839844 61.269531 66 61.0625 C 66 61.0625 66.125 56.8125 66.125 56.8125 C 66.125 56.8125 66.1875 73.75 66.1875 73.75 C 66.1875 73.75 94.75 71.5625 94.75 71.5625 C 94.75 71.5625 66 30.6875 66 30.6875 C 65.839844 30.429688 65.109375 30.480469 65.625 29.625 C 65.625 29.625 95.75 72.0625 95.75 72.0625 C 87.960938 72.859375 80.101562 73.085938 72.3125 73.875 C 70.035156 74.105469 67.46875 74.40625 65.3125 75 C 65.457031 71.046875 65.332031 67.082031 65.375 63.125 Z M 65.375 63.125 "/>
<path style=" stroke:none;fill-rule:nonzero;fill:rgb(95.686275%,96.470588%,97.647059%);fill-opacity:1;" d="M 43.25 66.25 C 42.875 66.929688 42.609375 67.742188 42.25 68.4375 C 42.011719 68.902344 40.707031 70.15625 41.5 70.3125 C 41.261719 70.714844 39.828125 72.449219 40.4375 72.75 C 44.191406 72.90625 48.070312 72.550781 51.8125 72.875 C 52.003906 72.890625 51.695312 73.238281 51.8125 73.25 C 53 73.363281 54.265625 73.085938 55.4375 73.5 C 53.148438 73.289062 50.855469 73.421875 48.5625 73.375 C 48.507812 73.375 48.15625 72.847656 47.625 73.4375 C 47.625 73.4375 48.9375 73.625 48.9375 73.625 C 48.9375 73.625 48.5625 73.875 48.5625 73.875 C 48.5625 73.875 58.375 73.9375 58.375 73.9375 C 58.375 73.9375 58.3125 42.75 58.3125 42.75 C 58.3125 42.75 43.25 66.125 43.25 66.125 C 43.25 66.125 58.6875 41.875 58.6875 41.875 C 58.6875 41.875 58.75 74.4375 58.75 74.4375 C 58.75 74.4375 38.6875 73.875 38.6875 73.875 Z M 43.25 66.25 "/>
<path style=" stroke:none;fill-rule:nonzero;fill:rgb(92.156863%,91.37255%,93.333334%);fill-opacity:1;" d="M 43.25 66.25 C 43.269531 66.21875 43.230469 66.15625 43.25 66.125 C 43.25 66.125 58.3125 42.75 58.3125 42.75 C 58.3125 42.75 58.375 73.9375 58.375 73.9375 C 58.375 73.9375 48.5625 73.875 48.5625 73.875 C 48.5625 73.875 48.9375 73.625 48.9375 73.625 C 48.9375 73.625 47.625 73.4375 47.625 73.4375 C 48.15625 72.847656 48.507812 73.375 48.5625 73.375 C 50.855469 73.421875 53.148438 73.289062 55.4375 73.5 C 54.265625 73.085938 53 73.363281 51.8125 73.25 C 51.695312 73.238281 52.003906 72.890625 51.8125 72.875 C 48.070312 72.550781 44.191406 72.90625 40.4375 72.75 C 39.828125 72.449219 41.261719 70.714844 41.5 70.3125 C 40.707031 70.15625 42.011719 68.902344 42.25 68.4375 C 42.609375 67.742188 42.875 66.929688 43.25 66.25 Z M 43.25 66.25 "/>
<path style=" stroke:none;fill-rule:nonzero;fill:rgb(89.019608%,89.411765%,91.37255%);fill-opacity:1;" d="M 62.5625 56.75 C 63.421875 56.140625 63.335938 58.566406 63.375 59.1875 C 63.660156 63.589844 63.183594 69.910156 63 74.4375 C 62.964844 75.289062 63.386719 76.351562 62.8125 77.125 Z M 62.5625 56.75 "/>
<path style=" stroke:none;fill-rule:nonzero;fill:rgb(94.117647%,93.725491%,95.686275%);fill-opacity:1;" d="M 72 77.75 C 81.496094 77.21875 90.945312 76 100.4375 75.375 C 100.4375 75.375 100.75 75.8125 100.75 75.8125 C 100.75 75.8125 89.5625 87.75 89.5625 87.75 C 89.5625 87.75 85.5 88.125 85.5 88.125 C 83.984375 88.304688 83.875 88.445312 82.625 89.125 C 81.6875 89.636719 81.09375 90.328125 80.5625 90.625 C 78.953125 91.523438 78.695312 89.96875 77.6875 89.25 C 75.5 87.691406 72.75 87.921875 70.375 88.875 C 69.394531 89.269531 67.238281 90.9375 66.6875 91 C 65.683594 91.113281 64.5 90.109375 63.5 89.75 C 62.199219 89.285156 60.953125 89.089844 59.5625 89 C 51.691406 88.484375 43.242188 89.21875 35.3125 88.875 C 33.503906 85.925781 30.636719 83.074219 28.875 80.1875 C 28.699219 79.898438 28.203125 79.269531 28.4375 79 C 34.871094 78.851562 41.316406 78.808594 47.75 78.75 C 52.351562 78.707031 56.960938 78.894531 61.5625 78.625 C 61.5625 78.625 61.8125 70.25 61.8125 70.25 C 62.496094 71.800781 61.539062 75.640625 62 76.9375 C 62.046875 77.066406 62.304688 76.734375 62.375 76.9375 C 62.484375 77.261719 62.554688 78.320312 63.0625 78.5 C 63.605469 78.6875 71.183594 78.234375 72.3125 78.125 C 72.578125 78.097656 73.046875 77.9375 73.375 77.9375 Z M 72 77.75 "/>
<path style=" stroke:none;fill-rule:nonzero;fill:rgb(33.725491%,35.294119%,33.333334%);fill-opacity:1;" d="M 77 90.5 C 77.171875 90.417969 77.339844 90.324219 77.5 90.25 C 79.507812 92.082031 80.023438 91.789062 81.9375 90.125 C 82.160156 89.929688 82.804688 89.484375 82.625 89.125 C 83.875 88.445312 83.984375 88.304688 85.5 88.125 C 86.589844 87.996094 87.828125 88.164062 88.9375 88 C 88.359375 88.402344 88.882812 89.300781 88.75 89.4375 C 88.488281 89.707031 87 89.511719 86.4375 89.625 C 84.476562 90.015625 82.84375 92.851562 81.4375 93.125 C 81.398438 93.132812 80.953125 92.992188 80.6875 93 C 80.492188 93.003906 80.8125 93.046875 80.4375 93 C 79.347656 92.867188 76.894531 91.714844 77 90.5 Z M 77 90.5 "/>
<path style=" stroke:none;fill-rule:nonzero;fill:rgb(44.705883%,47.058824%,41.960785%);fill-opacity:1;" d="M 63.5 89.75 C 64.5 90.109375 65.683594 91.113281 66.6875 91 C 67.238281 90.9375 69.394531 89.269531 70.375 88.875 C 70.671875 88.777344 71.621094 89.976562 71.625 90.0625 C 71.648438 90.582031 70.734375 90.464844 70.6875 90.5 C 70.628906 90.542969 69.871094 91.507812 69.6875 91.625 C 69.503906 90.117188 69.125 91.265625 68.9375 91.25 C 68.78125 91.234375 68.820312 90.882812 68.5625 90.875 C 68.53125 90.875 68.195312 91.230469 68.0625 91.25 C 64.4375 91.726562 64.65625 90.09375 61.6875 89.625 C 60.375 89.417969 58.894531 89.542969 57.5625 89.5 C 59.558594 89.035156 61.523438 89.699219 63.5 89.75 Z M 63.5 89.75 "/>
<path style=" stroke:none;fill-rule:nonzero;fill:rgb(97.647059%,98.431373%,98.823529%);fill-opacity:1;" d="M 90.5 92.125 C 88.785156 91.609375 85.371094 90.660156 84.5 93.25 C 82.683594 95.550781 80.136719 95.644531 77.6875 94.25 C 76.304688 93.460938 75.21875 91.339844 73.4375 91.5 C 71.765625 91.648438 69.832031 95.082031 67.0625 95.375 C 63.871094 95.710938 62.507812 93.035156 60.0625 92.875 C 58.320312 92.761719 55.679688 93.925781 53.6875 94 C 50.996094 94.097656 48.910156 93.15625 46.4375 92.875 C 45.929688 92.816406 44.359375 93.066406 44.1875 93 C 43.300781 92.660156 44.050781 91.542969 44.9375 91.375 C 47.222656 90.945312 51.332031 92.574219 54.1875 92.375 C 56.210938 92.234375 58.253906 91.066406 60.3125 91.25 C 62.820312 91.476562 64.445312 94.210938 67.1875 93.75 C 70.027344 93.273438 70.898438 89.15625 74.5625 89.875 C 75.859375 90.128906 77.28125 92.347656 78.5625 93 C 82.988281 95.257812 83.171875 90.65625 86.1875 89.875 C 89.925781 88.90625 92.269531 92.460938 96.0625 91.125 C 97.210938 90.71875 98.84375 89.070312 99.9375 88.875 C 100.601562 88.757812 103.0625 88.671875 103.125 89.5625 C 103.191406 90.492188 100.980469 90.257812 100.1875 90.5 C 98.71875 90.949219 97.273438 92.65625 95.4375 93 C 93.257812 93.410156 92.410156 92.695312 90.5 92.125 Z M 90.5 92.125 "/>
<path style=" stroke:none;fill-rule:nonzero;fill:rgb(45.882353%,48.235294%,42.745098%);fill-opacity:1;" d="M 77.5 90.25 C 77.339844 90.324219 77.171875 90.417969 77 90.5 C 76.839844 90.574219 76.792969 90.878906 76.6875 90.875 C 76.617188 90.871094 75.957031 89.980469 75.625 89.9375 C 76.066406 89.058594 77.519531 89.738281 78.25 90.0625 C 78.058594 90.664062 78.039062 90 77.5 90.25 Z M 77.5 90.25 "/>
<path style=" stroke:none;fill-rule:nonzero;fill:rgb(96.078432%,96.862745%,98.039216%);fill-opacity:1;" d="M 52.25 97.25 C 51.011719 98.140625 48.960938 96.210938 47.5625 96 C 44.957031 95.605469 41.109375 96.898438 38.3125 96.375 C 38.3125 96.375 38.125 96.5625 38.125 96.5625 C 38.125 96.5625 38.75 96.9375 38.75 96.9375 C 38.066406 97.097656 36.785156 96.964844 37.1875 97.875 C 36.8125 98.082031 30.171875 97.449219 29.375 97.4375 C 29.074219 97.433594 28.953125 97.675781 29 97.125 C 30.195312 96.011719 35.792969 97.746094 37.375 96.3125 C 35.796875 94.210938 33.835938 92.234375 31.3125 91.375 C 31.152344 91.320312 27.511719 90.875 28.9375 90.25 C 30.25 89.675781 33.570312 91.152344 34.6875 92 C 35.566406 92.664062 37.726562 95.535156 38.4375 95.75 C 41.011719 96.527344 44.578125 95.152344 46.9375 95.375 C 48.632812 95.535156 50.554688 97.027344 52.25 97.25 Z M 52.25 97.25 "/>
<path style=" stroke:none;fill-rule:nonzero;fill:rgb(30.980393%,32.156864%,32.156864%);fill-opacity:1;" d="M 90.5 92.125 C 89.710938 92.523438 89.738281 91.882812 89.6875 91.875 C 88.746094 91.714844 86.757812 92.105469 85.9375 92.625 C 85.636719 92.816406 83.914062 95 84.5 93.25 C 85.371094 90.660156 88.785156 91.609375 90.5 92.125 Z M 90.5 92.125 "/>
<path style=" stroke:none;fill-rule:nonzero;fill:rgb(93.725491%,94.901961%,97.254902%);fill-opacity:1;" d="M 72.5 97.875 C 69.597656 98.71875 68.359375 100.238281 64.75 99.875 C 64.253906 99.824219 63.707031 99.6875 63.25 99.5 C 61.9375 98.964844 60.464844 97.292969 58.8125 97.125 C 57.132812 96.953125 56.519531 97.808594 55.25 98.25 C 52.578125 99.175781 52.46875 98.980469 49.875 98.125 C 49.082031 97.863281 48.117188 97.121094 47.1875 97 C 46.644531 96.929688 39.101562 97.15625 38.5 97.25 C 37.695312 97.375 37.980469 98.082031 37.4375 98.25 C 37.191406 98.328125 36.179688 98.25 35.8125 98.25 C 34.871094 98.25 29.773438 98.054688 29.1875 97.875 C 28.835938 97.765625 28.671875 97.429688 29 97.125 C 28.953125 97.675781 29.074219 97.433594 29.375 97.4375 C 30.171875 97.449219 36.8125 98.082031 37.1875 97.875 C 36.785156 96.964844 38.066406 97.097656 38.75 96.9375 C 38.75 96.9375 38.125 96.5625 38.125 96.5625 C 38.125 96.5625 38.3125 96.375 38.3125 96.375 C 41.109375 96.898438 44.957031 95.605469 47.5625 96 C 48.960938 96.210938 51.011719 98.140625 52.25 97.25 C 54.257812 97.515625 55.414062 95.96875 57.1875 95.625 C 61.226562 94.839844 62.773438 98.8125 66.8125 98.375 C 69.746094 98.058594 71.378906 95.65625 74.8125 96.125 C 76.398438 96.339844 78.191406 97.925781 79.6875 98.25 C 84.882812 99.375 84.539062 93.003906 90.3125 94.375 C 91.410156 94.636719 92.679688 96.003906 93.6875 96.25 C 96.472656 96.933594 99.632812 91.816406 102.75 94.1875 C 102.875 95.523438 100.960938 95.035156 99.8125 95.375 C 98.476562 95.769531 96.527344 97.671875 95.3125 97.875 C 92.289062 98.382812 90.933594 95.335938 87.9375 95.875 C 86.484375 96.136719 85.1875 98.371094 83.9375 99.125 C 79.082031 102.046875 76.5625 96.695312 72.5 97.875 Z M 72.5 97.875 "/>
<path style=" stroke:none;fill-rule:nonzero;fill:rgb(23.137255%,24.313726%,25.098041%);fill-opacity:1;" d="M 35.0625 94.75 C 39.691406 97.503906 31.722656 96.402344 30.125 96.4375 C 30.792969 95.40625 34.03125 96.390625 34.4375 96.25 C 34.519531 96.222656 34.972656 94.96875 35.0625 94.75 Z M 35.0625 94.75 "/>
<path style=" stroke:none;fill-rule:nonzero;fill:rgb(26.274511%,27.058825%,28.235295%);fill-opacity:1;" d="M 49.875 98.125 C 49.066406 98.503906 48.273438 97.601562 47.5625 97.5 C 46.4375 97.339844 45.160156 97.851562 44.3125 97.875 C 43.605469 97.894531 38.945312 97.984375 38.6875 97.875 C 38.347656 97.730469 38.539062 97.507812 38.5 97.25 C 39.101562 97.15625 46.644531 96.929688 47.1875 97 C 48.117188 97.121094 49.082031 97.863281 49.875 98.125 Z M 49.875 98.125 "/>
<path style=" stroke:none;fill-rule:nonzero;fill:rgb(24.313726%,25.098041%,25.882354%);fill-opacity:1;" d="M 63.25 99.5 C 62.734375 100.171875 62.042969 98.734375 61.6875 99.5 C 59.699219 97.65625 58.042969 98.296875 55.625 98.5625 C 55.320312 98.597656 55.246094 98.566406 55.25 98.25 C 56.519531 97.808594 57.132812 96.953125 58.8125 97.125 C 60.464844 97.292969 61.9375 98.964844 63.25 99.5 Z M 63.25 99.5 "/>
<path style=" stroke:none;fill-rule:nonzero;fill:rgb(19.607843%,20.392157%,21.960784%);fill-opacity:1;" d="M 72.5 97.875 C 72.5 97.875 72.9375 98.5 72.9375 98.5 C 70.457031 99.496094 67.828125 101.339844 65.0625 100.375 C 64.746094 100.265625 64.714844 100.210938 64.75 99.875 C 68.359375 100.238281 69.597656 98.71875 72.5 97.875 Z M 72.5 97.875 "/>
<path style=" stroke:none;fill-rule:nonzero;fill:rgb(20.392157%,21.568628%,23.921569%);fill-opacity:1;" d="M 29.8125 98.25 C 32.121094 97.921875 35.546875 98.644531 37.875 98.9375 C 37.105469 99.535156 35.417969 98.910156 34.4375 98.875 C 32.941406 98.820312 31.148438 99.113281 29.6875 98.875 C 29.503906 98.84375 28.878906 98.765625 29 98.4375 C 29.257812 98.4375 29.632812 98.277344 29.8125 98.25 Z M 29.8125 98.25 "/>
<path style=" stroke:none;fill-rule:nonzero;fill:rgb(16.078432%,14.901961%,14.509805%);fill-opacity:1;" d="M 127.875 127.75 C 127.875 127.75 127.875 127.875 127.875 127.875 C 127.875 127.875 -0.125 127.875 -0.125 127.875 C -0.125 127.875 -0.125 127.75 -0.125 127.75 Z M 127.875 127.75 "/>
</g>
</svg>
