<?xml version="1.0" encoding="UTF-8"?>
<svg xmlns="http://www.w3.org/2000/svg" xmlns:xlink="http://www.w3.org/1999/xlink" width="128" height="128" viewBox="0 0 128 128" version="1.1">
<g id="surface1">
<path style=" stroke:none;fill-rule:nonzero;fill:rgb(99.215686%,99.215686%,99.215686%);fill-opacity:1;" d="M 66.75 24.75 C 66.75 24.75 68.5625 25.875 68.5625 25.875 C 68.5625 25.875 89.25 46.6875 89.25 46.6875 C 89.25 46.6875 89.125 47.4375 89.125 47.4375 C 89.125 47.4375 77.4375 59 77.4375 59 C 77.4375 59 76.4375 59.125 76.4375 59.125 C 76.4375 59.125 51.375 34.1875 51.375 34.1875 C 51.375 34.1875 51.375 33.375 51.375 33.375 C 51.667969 32.832031 59.1875 25.582031 59.8125 25.25 C 61.804688 24.191406 64.617188 24.097656 66.75 24.75 Z M 66.75 24.75 "/>
<path style=" stroke:none;fill-rule:nonzero;fill:rgb(92.941177%,92.941177%,95.686275%);fill-opacity:1;" d="M 24.5 61.125 C 24.746094 60.519531 25.6875 59.109375 26.125 58.5625 C 31.699219 51.578125 40.519531 45.207031 46.5 38.375 C 46.5 38.375 47.4375 38.5 47.4375 38.5 C 47.4375 38.5 59.125 50.3125 59.125 50.3125 C 59.125 50.3125 59.125 51.3125 59.125 51.3125 C 59.125 51.3125 33.6875 76.375 33.6875 76.375 C 29.585938 72.121094 22.386719 68.085938 24.5 61.125 Z M 24.5 61.125 "/>
<path style=" stroke:none;fill-rule:nonzero;fill:rgb(88.235295%,88.627452%,91.764706%);fill-opacity:1;" d="M 103.25 61.75 C 103.652344 64.492188 103.308594 66.625 101.625 68.8125 C 101.625 68.8125 81.3125 89.125 81.3125 89.125 C 81.3125 89.125 80.5625 89.25 80.5625 89.25 C 80.5625 89.25 68.25 77.125 68.25 77.125 C 68.230469 76.980469 68.222656 76.632812 68.25 76.5 C 68.25 76.5 93.625 51.375 93.625 51.375 C 93.820312 51.40625 94.007812 51.402344 94.1875 51.5 C 95.664062 52.3125 102.664062 60.066406 103.25 61.75 Z M 103.25 61.75 "/>
<path style=" stroke:none;fill-rule:nonzero;fill:rgb(99.215686%,98.823529%,99.215686%);fill-opacity:1;" d="M 75.5 94.875 C 75.5 94.875 74.8125 93.625 74.8125 93.625 C 69.484375 98.457031 66.261719 105.308594 58.1875 100 C 57.757812 99.71875 57.3125 99.230469 56.9375 98.875 C 56.625 99.121094 57.003906 99.808594 57.125 100 C 55.253906 97.519531 38.191406 82.160156 38.125 80.8125 C 38.082031 79.921875 49.207031 69.84375 50.4375 68.25 C 50.4375 68.25 51.3125 68.375 51.3125 68.375 C 51.3125 68.375 76.25 93.5625 76.25 93.5625 C 76.480469 94.417969 75.800781 94.515625 75.5 94.875 Z M 50.4375 70.75 C 50.4375 70.75 40.5 80.8125 40.5 80.8125 C 40.5 80.8125 59.6875 99.875 59.6875 99.875 C 65.914062 103.75 69.882812 97.78125 73.75 93.8125 Z M 50.4375 70.75 "/>
<path style=" stroke:none;fill-rule:nonzero;fill:rgb(81.176472%,81.568629%,86.274511%);fill-opacity:1;" d="M 50.4375 70.75 C 50.4375 70.75 73.75 93.8125 73.75 93.8125 C 69.882812 97.78125 65.914062 103.75 59.6875 99.875 C 59.6875 99.875 40.5 80.8125 40.5 80.8125 Z M 50.4375 70.75 "/>
<path style=" stroke:none;fill-rule:nonzero;fill:rgb(80.000001%,80.392158%,83.529413%);fill-opacity:1;" d="M 75.5 94.875 C 73.613281 97.144531 68.566406 102.363281 65.8125 103 C 63.054688 103.636719 58.691406 102.515625 57.125 100 C 57.003906 99.808594 56.625 99.121094 56.9375 98.875 C 57.3125 99.230469 57.757812 99.71875 58.1875 100 C 66.261719 105.308594 69.484375 98.457031 74.8125 93.625 Z M 75.5 94.875 "/>
</g>
</svg>
