<?xml version="1.0" encoding="UTF-8"?>
<svg xmlns="http://www.w3.org/2000/svg" xmlns:xlink="http://www.w3.org/1999/xlink" width="128" height="128" viewBox="0 0 128 128" version="1.1">
<g id="surface1">
<path style=" stroke:none;fill-rule:nonzero;fill:rgb(98.431373%,98.431373%,98.431373%);fill-opacity:1;" d="M 42.125 61.125 C 43.828125 63.191406 59.644531 79.464844 60.9375 79.75 C 61.90625 79.960938 63.21875 79.730469 63.9375 79 C 63.9375 79 94.3125 48.5 94.3125 48.5 C 96.933594 51.210938 100.292969 53.347656 101.5 57 C 100.414062 58.308594 99.933594 56.183594 99.375 55.5625 C 97.886719 53.910156 95.976562 52.472656 94.3125 51 C 93.808594 51.308594 91.40625 54.191406 91.1875 54.25 C 91.15625 54.257812 90.652344 54.058594 90.5625 54 C 84.878906 60.1875 78.066406 65.824219 72.5 72.0625 C 72.246094 72.347656 70.640625 74.035156 71.1875 74.125 C 71.246094 74.132812 71.589844 73.527344 71.625 73.9375 C 69.792969 75.191406 65.960938 80.472656 64.1875 81.125 C 62.816406 81.632812 60.753906 81.34375 59.3125 81.125 C 59.3125 81.125 49.8125 71.5 49.8125 71.5 C 48.46875 72.675781 46.664062 72.871094 45.875 74.8125 C 45.792969 75.015625 45.125 77.65625 45.125 77.8125 C 45.128906 78.421875 46.015625 79.597656 45.75 80.3125 C 45.632812 80.625 45.257812 80.257812 45.25 80.4375 C 45.222656 81.058594 53.261719 87.980469 54 89.3125 C 54 89.3125 53.75 89.875 53.75 89.875 C 51.53125 87.636719 47.5625 82.902344 45.3125 81.25 C 45.273438 81.222656 44.9375 81.046875 45 81.3125 C 45 81.3125 48.5 84.9375 48.5 84.9375 C 48.5 84.9375 48 85.125 48 85.125 C 47.152344 84.292969 46.242188 83.445312 45.375 82.625 C 45.375 82.625 26.25 62.875 26.25 62.875 C 25.089844 59.632812 25.496094 56.746094 27.75 54.0625 C 36.480469 43.671875 49.035156 34.382812 57.9375 23.875 C 61.335938 21.019531 65.683594 20.738281 69.3125 23.375 C 69.3125 23.375 86.875 40.9375 86.875 40.9375 C 86.875 40.9375 61.9375 65.875 61.9375 65.875 C 61.9375 65.875 49.0625 53 49.0625 53 C 49.0625 53 41.5 60.5625 41.5 60.5625 C 41.5 60.660156 42.042969 61.027344 42.125 61.125 Z M 42.125 61.125 "/>
<path style=" stroke:none;fill-rule:nonzero;fill:rgb(100%,100%,100%);fill-opacity:1;" d="M 101.5 57 C 102.035156 58.613281 102.359375 59.625 102 61.625 C 101.804688 62.710938 101.046875 64.175781 100.375 65.0625 L 69.0625 96.375 C 66.058594 98.742188 61.28125 98.882812 58.5 96.125 C 61.898438 98.542969 65.070312 98.417969 68.5625 96.375 C 76.082031 88.324219 84.792969 81.023438 91.875 72.6875 C 92.691406 71.726562 93.691406 70.914062 94.375 69.8125 L 94.0625 69.75 L 69.0625 94.875 C 66.21875 96.203125 64.367188 97.257812 61.0625 96 C 60.734375 95.875 59.652344 94.988281 59.5625 95 C 59.425781 95.019531 59.359375 95.375 59.3125 95.375 C 59.0625 95.382812 56.082031 92.449219 55.625 92 C 55.039062 91.425781 54.371094 90.5 53.75 89.875 L 54 89.3125 C 53.261719 87.980469 45.222656 81.058594 45.25 80.4375 C 45.257812 80.257812 45.632812 80.625 45.75 80.3125 C 46.015625 79.597656 45.128906 78.421875 45.125 77.8125 C 45.125 77.65625 45.792969 75.015625 45.875 74.8125 C 46.664062 72.871094 48.46875 72.675781 49.8125 71.5 L 59.3125 81.125 C 60.753906 81.34375 62.816406 81.632812 64.1875 81.125 C 65.960938 80.472656 69.792969 75.191406 71.625 73.9375 C 71.589844 73.527344 71.246094 74.132812 71.1875 74.125 C 70.640625 74.035156 72.246094 72.347656 72.5 72.0625 C 78.066406 65.824219 84.878906 60.1875 90.5625 54 C 90.652344 54.058594 91.15625 54.257812 91.1875 54.25 C 91.40625 54.191406 93.808594 51.308594 94.3125 51 C 95.976562 52.472656 97.886719 53.910156 99.375 55.5625 C 99.933594 56.183594 100.414062 58.308594 101.5 57 Z M 101.5 57 "/>
<path style=" stroke:none;fill-rule:nonzero;fill:rgb(87.843138%,87.843138%,89.019608%);fill-opacity:1;" d="M 45.375 82.625 C 44.875 82.148438 44.167969 81.460938 43.5 81.25 C 38.746094 76.550781 31.628906 70.453125 27.625 65.4375 C 26.792969 64.394531 26.6875 64.101562 26.25 62.875 Z M 45.375 82.625 "/>
<path style=" stroke:none;fill-rule:nonzero;fill:rgb(73.725492%,74.901962%,77.254903%);fill-opacity:1;" d="M 58.5 96.125 C 54.28125 93.117188 47.550781 85.253906 43.5 81.25 C 44.167969 81.460938 44.875 82.148438 45.375 82.625 C 46.242188 83.445312 47.152344 84.292969 48 85.125 C 49.308594 86.410156 53.738281 91.503906 54.9375 92.125 C 54.96875 92.140625 55.570312 92.179688 55.625 92 C 56.082031 92.449219 59.0625 95.382812 59.3125 95.375 C 59.359375 95.375 59.425781 95.019531 59.5625 95 C 59.652344 94.988281 60.734375 95.875 61.0625 96 C 64.367188 97.257812 66.21875 96.203125 69.0625 94.875 C 69.0625 94.875 94.0625 69.75 94.0625 69.75 C 94.0625 69.75 94.375 69.8125 94.375 69.8125 C 93.691406 70.914062 92.691406 71.726562 91.875 72.6875 C 84.792969 81.023438 76.082031 88.324219 68.5625 96.375 C 65.070312 98.417969 61.898438 98.542969 58.5 96.125 Z M 58.5 96.125 "/>
<path style=" stroke:none;fill-rule:nonzero;fill:rgb(87.843138%,87.843138%,89.019608%);fill-opacity:1;" d="M 53.75 89.875 C 54.371094 90.5 55.039062 91.425781 55.625 92 C 55.570312 92.179688 54.96875 92.140625 54.9375 92.125 C 53.738281 91.503906 49.308594 86.410156 48 85.125 C 48 85.125 48.5 84.9375 48.5 84.9375 C 48.5 84.9375 45 81.3125 45 81.3125 C 44.9375 81.046875 45.273438 81.222656 45.3125 81.25 C 47.5625 82.902344 51.53125 87.636719 53.75 89.875 Z M 53.75 89.875 "/>
</g>
</svg>
