<?xml version="1.0" encoding="UTF-8"?>
<svg xmlns="http://www.w3.org/2000/svg" xmlns:xlink="http://www.w3.org/1999/xlink" width="128" height="128" viewBox="0 0 128 128" version="1.1">
<g id="surface1">
<path style=" stroke:none;fill-rule:nonzero;fill:rgb(98.823529%,99.215686%,99.215686%);fill-opacity:1;" d="M 61 74.625 C 61 74.625 61 54 61 54 C 60.976562 53.859375 61.015625 53.707031 61 53.5625 C 58.964844 52.472656 56.882812 51.660156 55.375 49.6875 C 47.835938 39.832031 62.316406 28.25 70.375 37.0625 C 75.457031 42.621094 72.878906 50.804688 65.9375 53.125 C 65.15625 53.386719 63.859375 52.996094 63.625 54.0625 C 63.625 54.0625 63.625 74.1875 63.625 74.1875 C 63.84375 75.011719 65.671875 74.960938 66.4375 75.25 C 73.644531 77.988281 75.414062 86.988281 69.3125 91.875 C 60.460938 98.964844 48.75 87.855469 55.125 78.8125 C 56.617188 76.695312 58.894531 75.769531 61 74.625 Z M 61 74.625 "/>
<path style=" stroke:none;fill-rule:nonzero;fill:rgb(98.823529%,99.215686%,99.215686%);fill-opacity:1;" d="M 102.105469 74.5625 C 102.105469 74.5625 102.105469 53.9375 102.105469 53.9375 C 102.082031 53.800781 102.117188 53.644531 102.105469 53.5 C 100.070312 52.410156 97.988281 51.597656 96.480469 49.625 C 88.9375 39.773438 103.421875 28.191406 111.480469 37 C 116.5625 42.558594 113.984375 50.742188 107.042969 53.0625 C 106.261719 53.324219 104.964844 52.933594 104.730469 54 C 104.730469 54 104.730469 74.125 104.730469 74.125 C 104.949219 74.949219 106.777344 74.898438 107.542969 75.1875 C 114.75 77.925781 116.519531 86.925781 110.417969 91.8125 C 101.566406 98.902344 89.855469 87.792969 96.230469 78.75 C 97.722656 76.632812 99.996094 75.707031 102.105469 74.5625 Z M 102.105469 74.5625 "/>
<path style=" stroke:none;fill-rule:nonzero;fill:rgb(98.823529%,99.215686%,99.215686%);fill-opacity:1;" d="M 24.234375 75.691406 C 24.234375 75.691406 24.234375 55.066406 24.234375 55.066406 C 24.210938 54.929688 24.25 54.773438 24.234375 54.628906 C 22.203125 53.539062 20.117188 52.726562 18.609375 50.753906 C 11.070312 40.902344 25.550781 29.320312 33.609375 38.128906 C 38.691406 43.6875 36.113281 51.871094 29.171875 54.191406 C 28.390625 54.453125 27.09375 54.066406 26.859375 55.128906 C 26.859375 55.128906 26.859375 75.253906 26.859375 75.253906 C 27.078125 76.082031 28.90625 76.027344 29.671875 76.316406 C 36.878906 79.054688 38.648438 88.054688 32.546875 92.941406 C 23.695312 100.03125 11.984375 88.921875 18.359375 79.878906 C 19.851562 77.761719 22.128906 76.835938 24.234375 75.691406 Z M 24.234375 75.691406 "/>
<path style=" stroke:none;fill-rule:nonzero;fill:rgb(98.823529%,98.823529%,99.215686%);fill-opacity:1;" d="M 61.183594 6.621094 C 75.792969 5.859375 74.433594 28.164062 60.308594 26.121094 C 48.832031 24.464844 49.816406 7.214844 61.183594 6.621094 Z M 61.183594 6.621094 "/>
<path style=" stroke:none;fill-rule:nonzero;fill:rgb(12.941177%,11.372549%,25.490198%);fill-opacity:1;" d="M 117.25 94.625 C 117.25 94.625 117.25 71.625 117.25 71.625 C 117.230469 79.285156 117.351562 86.964844 117.25 94.625 Z M 117.25 94.625 "/>
</g>
</svg>
