<?xml version="1.0" encoding="UTF-8"?>
<svg xmlns="http://www.w3.org/2000/svg" xmlns:xlink="http://www.w3.org/1999/xlink" width="128" height="128" viewBox="0 0 128 128" version="1.1">
<defs>
<linearGradient id="linear0" gradientUnits="userSpaceOnUse" x1="324.742004" y1="264.053986" x2="683.630005" y2="723.497986" gradientTransform="matrix(0.125,0,0,0.125,0,0)">
<stop offset="0.303602" style="stop-color:rgb(100%,100%,100%);stop-opacity:1;"/>
<stop offset="0.763293" style="stop-color:rgb(98.431373%,98.823529%,92.156863%);stop-opacity:1;"/>
<stop offset="1" style="stop-color:rgb(83.137256%,82.745099%,80.000001%);stop-opacity:1;"/>
</linearGradient>
<linearGradient id="linear1" gradientUnits="userSpaceOnUse" x1="539.239014" y1="675.750977" x2="572.278015" y2="795.268982" gradientTransform="matrix(0.125,0,0,0.125,0,0)">
<stop offset="0" style="stop-color:rgb(85.09804%,85.09804%,81.176472%);stop-opacity:1;"/>
<stop offset="1" style="stop-color:rgb(74.117649%,73.725492%,72.941178%);stop-opacity:1;"/>
</linearGradient>
</defs>
<g id="surface1">
<path style=" stroke:none;fill-rule:nonzero;fill:url(#linear0);" d="M 67.125 21.75 C 67.125 21.75 75.0625 23.625 75.0625 23.625 C 86.742188 27.929688 94.195312 37.0625 96.625 48.6875 C 96.652344 48.824219 96.996094 49.15625 97 49.1875 C 97.714844 53.003906 97.6875 56.839844 96.5 60.5625 C 96.367188 60.976562 94.773438 64.746094 94.4375 64.625 C 93.941406 61.847656 93.09375 58.347656 91.375 56.0625 C 91.25 55.894531 89.707031 54.015625 89.5 54.4375 C 90.058594 55.683594 90.066406 57.15625 90.375 58.4375 C 91.222656 61.964844 91.335938 64.714844 92 68.125 C 92.035156 68.308594 91.945312 68.703125 92 68.8125 C 92.085938 68.992188 93.382812 69.886719 93.625 70.1875 C 94.132812 70.816406 95.488281 72.351562 95.875 72.9375 C 96.476562 73.851562 96.765625 74.769531 96.625 75.75 C 96.570312 75.953125 96.5625 76.605469 96.5 76.75 C 96.113281 77.617188 91.089844 84.136719 90.3125 84.625 C 88.621094 85.6875 87.332031 84.980469 85.6875 84.5 C 85.445312 84.429688 84.898438 84.578125 84.6875 84.5 C 84.164062 84.304688 82.726562 83.039062 82.1875 83 C 81.679688 82.960938 81.652344 83.535156 81.125 83.5 C 81.996094 82.273438 81.855469 82.136719 83.3125 83.25 C 83.714844 83.3125 83.027344 82.761719 83.4375 82.875 C 83.53125 82.902344 84.089844 83.394531 84.3125 83.5 C 84.929688 83.789062 86.761719 84.664062 87.5625 84.75 C 88.632812 84.863281 89.730469 84.773438 90.5 83.9375 C 90.5 83.9375 83.125 81.375 83.125 81.375 C 80.601562 81.632812 78.300781 80.328125 75.75 80.5625 C 75.75 80.5625 75.75 99.875 75.75 99.875 C 71.796875 101.605469 67.417969 102.734375 63.0625 102.375 C 63.0625 102.375 64.5625 103.875 64.5625 103.875 C 63.925781 103.753906 63.03125 103.941406 62.4375 103.875 C 61.445312 103.765625 60.339844 103.277344 59.125 103.25 C 59.105469 103.246094 58.917969 103.164062 58.75 103.125 C 57.855469 102.914062 56.875 102.765625 56 102.5 C 53.839844 101.84375 49.554688 100.25 48 98.625 C 47.941406 98.335938 47.667969 97.980469 47.625 97.6875 C 47.113281 94.183594 48.671875 86.648438 46.375 84.0625 C 46.21875 83.886719 45.929688 83.628906 45.6875 83.625 C 44.824219 83.605469 42 85.386719 40.6875 85.5 C 39.84375 85.574219 38.539062 85.332031 37.8125 84.875 C 36.660156 84.148438 31.128906 76.300781 31 75 C 30.9375 72.585938 35.390625 70.367188 35.875 68.6875 C 36.148438 67.746094 35.9375 65.832031 36.125 64.75 C 36.5 62.578125 37.25 60.554688 37.75 58.4375 C 38.265625 56.253906 38.46875 53.917969 39.3125 51.875 C 33.28125 53.109375 33.6875 60.191406 33.375 65 C 32.734375 64.175781 31.839844 62.542969 31.5 61.5625 C 31.175781 60.632812 31.042969 58.691406 30.75 58.0625 C 30.566406 57.671875 30.542969 58.046875 30.25 58 C 30.214844 57.796875 30.140625 57.617188 30.125 57.5 C 29.871094 50.972656 30.871094 44.941406 34 39.1875 C 35.152344 37.070312 36.773438 35.304688 38 33.25 C 38.546875 32.636719 39.390625 31.84375 40 31.25 C 40 31.25 47.875 25.5 47.875 25.5 C 54.011719 22.390625 60.203125 21.195312 67.125 21.75 Z M 83.5 73 C 83.445312 73.804688 84.875 72.632812 85.0625 72.625 C 85.46875 72.605469 85.75 73.148438 86.1875 73 C 86.355469 72.941406 88.363281 70.367188 88.375 70.1875 C 88.472656 68.835938 87.246094 71.289062 86.75 70.875 C 89.078125 67.9375 88.558594 66.222656 87.625 62.9375 C 87.59375 62.824219 87.9375 63.1875 87.875 62.6875 C 87.867188 62.625 87.425781 61.660156 87.375 61.5625 C 83.191406 53.535156 67.851562 57.78125 68.875 66.3125 C 69.335938 70.152344 79.984375 73.90625 83.5 73 Z M 47.6875 57.375 C 37.148438 58.121094 36.644531 73.480469 46.8125 73.125 C 50.679688 72.988281 57.613281 70.171875 58.5 65.9375 C 58.613281 65.402344 58.367188 64.722656 58.375 64.3125 C 58.378906 64.171875 58.773438 64.449219 58.75 63.9375 C 58.691406 62.707031 56.898438 60.625 55.9375 59.875 C 53.839844 58.238281 50.320312 57.1875 47.6875 57.375 Z M 89.1875 67.625 C 89.089844 67.625 89.089844 68.5 89.1875 68.5 C 89.292969 68.386719 89.277344 67.625 89.1875 67.625 Z M 63.5625 67.875 C 62.34375 68.121094 59.671875 74.867188 59.25 76.1875 C 59.089844 76.6875 58.101562 79.980469 58.125 80.1875 C 58.148438 80.394531 59.0625 81.921875 59.3125 82 C 61.382812 82.644531 62.609375 80.917969 64.0625 81 C 65.402344 81.074219 67.238281 83.335938 68.75 81.6875 C 68.792969 81.640625 69.363281 80.625 69.375 80.5625 C 69.59375 79.324219 66.859375 72.058594 66.125 70.6875 C 65.800781 70.082031 64.339844 67.71875 63.5625 67.875 Z M 85 73.25 C 84.9375 73.289062 84.707031 73.183594 84.625 73.3125 C 84.804688 73.507812 84.894531 73.320312 85 73.25 C 85.097656 73.1875 85.421875 73.324219 85.1875 72.875 C 85.121094 72.945312 85.054688 73.210938 85 73.25 Z M 83.75 73.75 C 83.539062 73.792969 83.394531 73.871094 83.375 73.875 C 82.972656 73.929688 82.523438 73.785156 82.125 73.9375 C 82.5625 74.121094 82.957031 73.957031 83.375 73.875 C 83.582031 73.832031 83.554688 73.851562 83.75 73.75 C 83.824219 73.710938 84.042969 73.820312 84.125 73.6875 C 83.902344 73.464844 83.769531 73.746094 83.75 73.75 Z M 83.75 73.75 "/>
<path style=" stroke:none;fill-rule:nonzero;fill:rgb(63.921571%,65.490198%,69.411767%);fill-opacity:1;" d="M 92 68.125 C 91.335938 64.714844 91.222656 61.964844 90.375 58.4375 C 90.066406 57.15625 90.058594 55.683594 89.5 54.4375 C 89.707031 54.015625 91.25 55.894531 91.375 56.0625 C 93.09375 58.347656 93.941406 61.847656 94.4375 64.625 C 94.773438 64.746094 96.367188 60.976562 96.5 60.5625 C 97.6875 56.839844 97.714844 53.003906 97 49.1875 C 96.996094 49.15625 96.652344 48.824219 96.625 48.6875 C 94.195312 37.0625 86.742188 27.929688 75.0625 23.625 C 75.0625 23.625 67.125 21.75 67.125 21.75 C 76.84375 22.53125 85.929688 27.84375 91.625 35.6875 C 97.699219 44.054688 101.117188 58.195312 93.625 66.5625 Z M 92 68.125 "/>
<path style=" stroke:none;fill-rule:nonzero;fill:rgb(42.745098%,50.980395%,63.921571%);fill-opacity:1;" d="M 47.875 25.5 C 47.875 25.5 40 31.25 40 31.25 C 42.777344 28.539062 44.378906 27.273438 47.875 25.5 Z M 47.875 25.5 "/>
<path style=" stroke:none;fill-rule:nonzero;fill:rgb(51.764709%,57.647061%,67.058825%);fill-opacity:1;" d="M 30.125 57.5 C 28.8125 48.632812 32.082031 39.902344 38 33.25 C 36.773438 35.304688 35.152344 37.070312 34 39.1875 C 30.871094 44.941406 29.871094 50.972656 30.125 57.5 Z M 30.125 57.5 "/>
<path style=" stroke:none;fill-rule:nonzero;fill:rgb(80.392158%,82.352942%,86.666667%);fill-opacity:1;" d="M 36.125 64.75 C 35.566406 63.789062 34.964844 64.789062 34.0625 64.75 C 34.0625 64.75 34.0625 65.875 34.0625 65.875 C 33.746094 65.644531 33.601562 65.292969 33.375 65 C 33.6875 60.191406 33.28125 53.109375 39.3125 51.875 C 38.46875 53.917969 38.265625 56.253906 37.75 58.4375 C 37.25 60.554688 36.5 62.578125 36.125 64.75 Z M 36.125 64.75 "/>
<path style=" stroke:none;fill-rule:nonzero;fill:rgb(67.058825%,68.627453%,73.725492%);fill-opacity:1;" d="M 33.375 65 C 33.601562 65.292969 33.746094 65.644531 34.0625 65.875 C 34.0625 65.875 34.0625 64.75 34.0625 64.75 C 34.964844 64.789062 35.566406 63.789062 36.125 64.75 C 35.9375 65.832031 36.148438 67.746094 35.875 68.6875 C 35.390625 70.367188 30.9375 72.585938 31 75 C 30.929688 74.300781 31.050781 73.6875 31.375 73.0625 C 31.832031 72.175781 34.964844 69.53125 35.125 68.9375 C 35.371094 68.019531 33.28125 66.261719 32.75 65.4375 C 31.175781 62.996094 30.726562 60.777344 30.25 58 C 30.542969 58.046875 30.566406 57.671875 30.75 58.0625 C 31.042969 58.691406 31.175781 60.632812 31.5 61.5625 C 31.839844 62.542969 32.734375 64.175781 33.375 65 Z M 33.375 65 "/>
<path style=" stroke:none;fill-rule:nonzero;fill:rgb(98.431373%,98.431373%,97.647059%);fill-opacity:1;" d="M 89.1875 67.625 C 89.277344 67.625 89.292969 68.386719 89.1875 68.5 C 89.089844 68.5 89.089844 67.625 89.1875 67.625 Z M 89.1875 67.625 "/>
<path style=" stroke:none;fill-rule:nonzero;fill:rgb(8.235294%,8.235294%,9.411765%);fill-opacity:1;" d="M 93.625 69.75 C 93.449219 69.585938 92.921875 69.335938 93.0625 69 C 93.371094 69.191406 93.457031 69.46875 93.625 69.75 Z M 93.625 69.75 "/>
<path style=" stroke:none;fill-rule:nonzero;fill:rgb(98.431373%,98.431373%,97.647059%);fill-opacity:1;" d="M 83.5 73 C 84.796875 72.664062 85.9375 71.898438 86.75 70.875 C 87.246094 71.289062 88.472656 68.835938 88.375 70.1875 C 88.363281 70.367188 86.355469 72.941406 86.1875 73 C 85.75 73.148438 85.46875 72.605469 85.0625 72.625 C 84.875 72.632812 83.445312 73.804688 83.5 73 Z M 83.5 73 "/>
<path style=" stroke:none;fill-rule:nonzero;fill:rgb(98.431373%,98.431373%,97.647059%);fill-opacity:1;" d="M 85 73.25 C 85.054688 73.210938 85.121094 72.945312 85.1875 72.875 C 85.421875 73.324219 85.097656 73.1875 85 73.25 Z M 85 73.25 "/>
<path style=" stroke:none;fill-rule:nonzero;fill:rgb(98.431373%,98.431373%,97.647059%);fill-opacity:1;" d="M 85 73.25 C 84.894531 73.320312 84.804688 73.507812 84.625 73.3125 C 84.707031 73.183594 84.9375 73.289062 85 73.25 Z M 85 73.25 "/>
<path style=" stroke:none;fill-rule:nonzero;fill:rgb(98.431373%,98.431373%,97.647059%);fill-opacity:1;" d="M 83.75 73.75 C 83.769531 73.746094 83.902344 73.464844 84.125 73.6875 C 84.042969 73.820312 83.824219 73.710938 83.75 73.75 Z M 83.75 73.75 "/>
<path style=" stroke:none;fill-rule:nonzero;fill:rgb(98.431373%,98.431373%,97.647059%);fill-opacity:1;" d="M 83.75 73.75 C 83.554688 73.851562 83.582031 73.832031 83.375 73.875 C 83.394531 73.871094 83.539062 73.792969 83.75 73.75 Z M 83.75 73.75 "/>
<path style=" stroke:none;fill-rule:nonzero;fill:rgb(98.431373%,98.431373%,97.647059%);fill-opacity:1;" d="M 83.375 73.875 C 82.957031 73.957031 82.5625 74.121094 82.125 73.9375 C 82.523438 73.785156 82.972656 73.929688 83.375 73.875 Z M 83.375 73.875 "/>
<path style=" stroke:none;fill-rule:nonzero;fill:url(#linear1);" d="M 83.125 81.375 C 83.15625 82.429688 82.292969 81.679688 81.9375 81.75 C 81.117188 81.914062 79.597656 85.207031 79.375 86.0625 C 79.375 86.0625 79.75 91.5625 79.75 91.5625 C 79.851562 89.417969 79.585938 87.066406 80.25 85 C 80.25 85 80.125 97.5625 80.125 97.5625 C 79.902344 97.976562 79.835938 98.835938 79.4375 99.125 C 79.390625 99.160156 79 99.050781 78.4375 99.5 C 76.621094 100.945312 75.8125 101.210938 73.6875 102.25 C 73.554688 102.3125 73.449219 102.117188 73.4375 102.125 C 73.207031 102.238281 73.269531 102.492188 73.25 102.5 C 72.90625 102.015625 72.535156 102.804688 72.0625 103 C 68.519531 104.472656 62.917969 104.714844 58.8125 103.625 C 57.949219 103.394531 56.800781 102.925781 56 102.5 C 56.875 102.765625 57.855469 102.914062 58.75 103.125 C 58.757812 103.320312 58.980469 103.246094 59.125 103.25 C 63.917969 104.316406 65.792969 104.578125 70.5625 102.875 C 72.453125 102.199219 74.417969 101.648438 75.875 100.1875 C 75.875 100.1875 75.75 99.875 75.75 99.875 C 75.75 99.875 75.75 80.5625 75.75 80.5625 C 78.300781 80.328125 80.601562 81.632812 83.125 81.375 Z M 83.125 81.375 "/>
<path style=" stroke:none;fill-rule:nonzero;fill:rgb(68.235296%,68.235296%,68.627453%);fill-opacity:1;" d="M 81.125 83.5 C 80.800781 83.957031 80.421875 84.464844 80.25 85 C 79.585938 87.066406 79.851562 89.417969 79.75 91.5625 C 79.75 91.5625 79.375 86.0625 79.375 86.0625 C 79.597656 85.207031 81.117188 81.914062 81.9375 81.75 C 82.292969 81.679688 83.15625 82.429688 83.125 81.375 C 83.125 81.375 90.5 83.9375 90.5 83.9375 C 89.730469 84.773438 88.632812 84.863281 87.5625 84.75 C 86.761719 84.664062 84.929688 83.789062 84.3125 83.5 C 84.089844 83.394531 83.53125 82.902344 83.4375 82.875 C 83.027344 82.761719 83.714844 83.3125 83.3125 83.25 C 81.855469 82.136719 81.996094 82.273438 81.125 83.5 Z M 81.125 83.5 "/>
<path style=" stroke:none;fill-rule:nonzero;fill:rgb(57.647061%,58.039218%,60.000002%);fill-opacity:1;" d="M 59.125 103.25 C 60.339844 103.277344 61.445312 103.765625 62.4375 103.875 C 63.03125 103.941406 63.925781 103.753906 64.5625 103.875 C 64.5625 103.875 63.0625 102.375 63.0625 102.375 C 67.417969 102.734375 71.796875 101.605469 75.75 99.875 C 75.75 99.875 75.875 100.1875 75.875 100.1875 C 74.417969 101.648438 72.453125 102.199219 70.5625 102.875 C 65.792969 104.578125 63.917969 104.316406 59.125 103.25 Z M 59.125 103.25 "/>
<path style=" stroke:none;fill-rule:nonzero;fill:rgb(52.549022%,52.549022%,54.901963%);fill-opacity:1;" d="M 59.125 103.25 C 58.980469 103.246094 58.757812 103.320312 58.75 103.125 C 58.917969 103.164062 59.105469 103.246094 59.125 103.25 Z M 59.125 103.25 "/>
</g>
</svg>
