<?xml version="1.0" encoding="UTF-8"?>
<svg xmlns="http://www.w3.org/2000/svg" xmlns:xlink="http://www.w3.org/1999/xlink" width="128" height="128" viewBox="0 0 128 128" version="1.1">
<g id="surface1">
<path style=" stroke:none;fill-rule:nonzero;fill:rgb(99.607843%,99.607843%,99.607843%);fill-opacity:1;" d="M 95.875 68 C 93.429688 88.558594 72.253906 101.0625 52.8125 94.125 C 44.074219 91.007812 37.84375 84.195312 33.875 76.125 C 31.367188 69.0625 30.773438 61.539062 33 54.3125 C 44.207031 17.925781 100.609375 28.167969 95.875 68 Z M 87.875 71.75 C 87.875 71.75 88.5 72.1875 88.5 72.1875 C 88.453125 71.207031 90.550781 68.695312 89.125 68.5 C 90.746094 62.660156 90.292969 56.382812 88.125 50.75 C 88.851562 50.527344 87.875 48.578125 87.625 48.0625 C 87.222656 47.230469 86.367188 45.738281 85.5 45.625 C 77.695312 34.492188 61.582031 31.933594 49.75 37.8125 C 66.511719 31.394531 85.585938 42.011719 85.25 60.8125 C 85.039062 72.667969 75.566406 82.597656 63.3125 81.125 C 53.589844 79.957031 46.484375 70.46875 49.375 60.8125 C 51.84375 52.566406 63.53125 47.492188 69.25 55.5625 C 75.804688 64.8125 62.003906 74.769531 57.6875 63.625 C 56.214844 68.390625 60.367188 71.792969 64.9375 71.625 C 77.4375 71.164062 77.605469 49.699219 62.0625 48.25 C 42.429688 46.417969 37.507812 72.707031 53.1875 82.75 C 65.640625 90.726562 82.046875 84.992188 87.875 71.75 Z M 87.875 71.75 "/>
<path style=" stroke:none;fill-rule:nonzero;fill:rgb(76.862746%,78.823531%,81.176472%);fill-opacity:1;" d="M 88.125 50.75 C 87.5 49.128906 86.492188 47.039062 85.5 45.625 C 86.367188 45.738281 87.222656 47.230469 87.625 48.0625 C 87.875 48.578125 88.851562 50.527344 88.125 50.75 Z M 88.125 50.75 "/>
<path style=" stroke:none;fill-rule:nonzero;fill:rgb(79.215688%,81.568629%,83.529413%);fill-opacity:1;" d="M 87.875 71.75 C 88.328125 70.71875 88.824219 69.585938 89.125 68.5 C 90.550781 68.695312 88.453125 71.207031 88.5 72.1875 Z M 87.875 71.75 "/>
</g>
</svg>
