<?xml version="1.0" encoding="UTF-8"?>
<svg xmlns="http://www.w3.org/2000/svg" xmlns:xlink="http://www.w3.org/1999/xlink" width="128" height="128" viewBox="0 0 128 128" version="1.1">
<g id="surface1">
<path style=" stroke:none;fill-rule:nonzero;fill:rgb(98.431373%,98.431373%,98.431373%);fill-opacity:1;" d="M 66.75 53.625 C 66.320312 53.800781 66.039062 53.488281 66 54.125 C 64.964844 53.726562 65.046875 51.851562 65 50.9375 C 64.667969 44.410156 65.492188 37.398438 65.125 30.8125 C 66.089844 30.011719 65.390625 30.023438 64.5625 30.25 C 64.5625 30.25 64.875 50.9375 64.875 50.9375 C 63.382812 50.988281 63.804688 53.46875 64.8125 54.125 C 66.292969 55.089844 67.625 54.640625 68.9375 53.75 C 77.121094 48.199219 84.941406 39.558594 93.0625 33.625 C 93.933594 32.988281 95.355469 31.566406 96.25 32.9375 C 96.90625 33.945312 95.839844 34.625 95.375 35.4375 C 95.375 35.4375 77.125 54.6875 77.125 54.6875 C 77.214844 55.085938 77.628906 54.339844 77.6875 54.375 C 78.023438 54.566406 75.679688 56.824219 75.375 57.1875 C 75.359375 57.203125 75.539062 57.265625 75.25 57.625 C 74.066406 59.09375 71.085938 61.015625 73.9375 62.625 C 73.9375 62.625 95.5625 62.75 95.5625 62.75 C 96.78125 63.269531 96.652344 64.855469 95.3125 65.125 C 90.582031 66.074219 82.132812 64.160156 77.4375 65.125 C 76.667969 65.28125 75.929688 66.179688 76.8125 66.75 C 76.902344 66.738281 77.136719 65.636719 77.9375 65.5 C 78.027344 65.484375 79.6875 65.589844 79.75 65.875 C 78.644531 65.917969 76.945312 65.425781 77.375 67.0625 C 77.375 67.0625 96.875 83.0625 96.875 83.0625 C 97.585938 84.09375 96.242188 86.488281 95.1875 86.75 C 94.71875 86.867188 94.199219 86.671875 93.75 86.625 C 93.75 86.625 80.875 79.25 80.875 79.25 C 80.457031 78.832031 74.308594 75.132812 73.8125 75 C 73.300781 74.863281 72.84375 74.84375 72.5 75.3125 C 72.386719 75.703125 72.386719 75.925781 72.5 76.3125 C 72.84375 77.480469 75.996094 81.316406 76.75 82.8125 C 77.226562 83.761719 78.050781 85.175781 76.9375 86 C 76.65625 86.207031 75.667969 86.433594 75.3125 86.375 C 74.34375 86.214844 71.121094 80.667969 70.25 79.5625 C 69.089844 78.089844 67.382812 75.621094 65.875 78.3125 C 65.875 78.3125 65.875 96.9375 65.875 96.9375 C 65.308594 98.851562 62.726562 98.875 62 97.0625 C 62 97.0625 61.75 77.5625 61.75 77.5625 C 60.984375 76.707031 60.507812 76.855469 59.75 77.5625 C 58.390625 78.832031 55.277344 83.679688 54 85.5 C 53.707031 85.917969 53.457031 86.40625 53.25 86.875 C 53.25 86.875 46.625 96.375 46.625 96.375 C 46.175781 96.667969 45.691406 97.738281 45.1875 97.875 C 43.707031 98.277344 41.507812 96.570312 41.625 94.9375 C 41.6875 94.058594 42.675781 93.019531 43 92.375 C 43.335938 91.710938 43.796875 91.039062 44.125 90.375 C 44.125 90.375 44.875 90.1875 44.875 90.1875 C 46.84375 85.855469 49.566406 81.835938 51.625 77.5625 C 51.886719 77.019531 52.683594 75.441406 52.75 74.9375 C 52.757812 74.875 52.652344 74.472656 52.4375 74.625 C 52.214844 74.785156 50.121094 78.726562 49.75 79.375 C 49.820312 78.332031 54.039062 73.015625 51.8125 72.75 C 50.703125 72.617188 43.777344 78.707031 41.0625 78 C 40.625 77.886719 40.15625 77.160156 40 76.75 C 40.378906 77.382812 41.882812 77.847656 42.5625 77.75 C 43.28125 77.648438 47.894531 74.796875 48.8125 74.25 C 48.980469 74.148438 50.6875 73.238281 49.8125 73 C 49.347656 72.875 43.378906 77.804688 41.3125 77.25 C 40.300781 76.976562 40.371094 75.351562 40.375 74.625 C 40.375 74.625 51 67.3125 51 67.3125 C 50.855469 66.75 51.273438 65.488281 50.375 65.5625 C 50.503906 66.875 50.277344 65.910156 50 65.625 C 49.816406 65.433594 49.71875 65.234375 49.4375 65.125 C 49.4375 65.125 32.0625 65 32.0625 65 C 31.121094 64.296875 31.113281 63.308594 32.1875 62.75 C 32.1875 62.75 52.4375 62.75 52.4375 62.75 C 53.601562 62.238281 54.351562 61.511719 53.75 60.1875 C 53.566406 59.789062 48.648438 53.921875 48.125 53.4375 C 47.964844 53.289062 47.730469 52.835938 47.5 53.1875 C 47.5 53.1875 47.75 54.125 47.75 54.125 C 44.78125 50.574219 41.675781 47.109375 38.625 43.625 C 37.84375 42.667969 32.585938 36.660156 32.5 36.1875 C 32.261719 34.90625 34.210938 33.140625 35.3125 33.25 C 35.492188 33.269531 37.945312 34.984375 38.3125 35.25 C 43.359375 38.910156 48.4375 43.566406 53.375 47.5 C 52.949219 47.925781 52.050781 46.347656 51.6875 46.625 C 51.324219 46.898438 52.023438 47.449219 52.1875 47.625 C 52.742188 48.230469 59.554688 53.769531 60.0625 54 C 60.648438 54.265625 62.386719 54.390625 62.25 53.5625 C 62.246094 53.535156 61.777344 53.378906 61.75 53.375 C 61.75 53.375 62 30.3125 62 30.3125 C 62.730469 28.820312 65.097656 28.691406 65.875 30.1875 C 65.875 30.1875 66 52.9375 66 52.9375 Z M 60.1875 76.25 C 59.425781 76.40625 57.085938 79.753906 56.5 80.5625 C 56.113281 81.097656 53.546875 84.554688 53.5 84.8125 C 53.472656 84.96875 53.535156 85.199219 53.6875 85.25 C 54.203125 85.417969 59.140625 77.007812 60.3125 76.75 C 60.878906 76.625 61.320312 77.078125 61.75 76.8125 C 61.441406 76.199219 60.851562 76.113281 60.1875 76.25 Z M 60.1875 76.25 "/>
<path style=" stroke:none;fill-rule:nonzero;fill:rgb(93.333334%,93.333334%,93.333334%);fill-opacity:1;" d="M 66 54.125 C 66.226562 54.210938 66.8125 54.277344 67.0625 54.25 C 76.511719 47.542969 85.097656 39.40625 94.1875 32.125 C 96.265625 30.9375 98.449219 33.699219 96.1875 35.25 C 96.882812 35.554688 95.226562 36.085938 95.3125 36.875 C 95.457031 36.898438 97.324219 35.097656 97.5 34.875 C 97.5 34.875 74.125 59.875 74.125 59.875 C 74.164062 59.796875 73.992188 59.699219 74 59.6875 C 74.507812 58.832031 76.21875 57.558594 76.875 56.6875 C 76.875 56.6875 75.25 57.625 75.25 57.625 C 75.539062 57.265625 75.359375 57.203125 75.375 57.1875 C 75.679688 56.824219 78.023438 54.566406 77.6875 54.375 C 77.628906 54.339844 77.214844 55.085938 77.125 54.6875 C 77.125 54.6875 95.375 35.4375 95.375 35.4375 C 95.839844 34.625 96.90625 33.945312 96.25 32.9375 C 95.355469 31.566406 93.933594 32.988281 93.0625 33.625 C 84.941406 39.558594 77.121094 48.199219 68.9375 53.75 C 67.625 54.640625 66.292969 55.089844 64.8125 54.125 C 63.804688 53.46875 63.382812 50.988281 64.875 50.9375 C 64.875 50.9375 64.5625 30.25 64.5625 30.25 C 65.390625 30.023438 66.089844 30.011719 65.125 30.8125 C 65.492188 37.398438 64.667969 44.410156 65 50.9375 C 65.046875 51.851562 64.964844 53.726562 66 54.125 Z M 66 54.125 "/>
<path style=" stroke:none;fill-rule:nonzero;fill:rgb(67.843139%,69.803923%,71.372551%);fill-opacity:1;" d="M 97.5 34.875 C 97.324219 35.097656 95.457031 36.898438 95.3125 36.875 C 95.226562 36.085938 96.882812 35.554688 96.1875 35.25 C 98.449219 33.699219 96.265625 30.9375 94.1875 32.125 C 85.097656 39.40625 76.511719 47.542969 67.0625 54.25 C 66.8125 54.277344 66.226562 54.210938 66 54.125 C 66.039062 53.488281 66.320312 53.800781 66.75 53.625 C 66.894531 53.566406 67.148438 53.503906 67.3125 53.5 C 67.3125 53.5 94.0625 31.25 94.0625 31.25 C 96.21875 30.210938 99.230469 32.6875 97.5 34.875 Z M 97.5 34.875 "/>
<path style=" stroke:none;fill-rule:nonzero;fill:rgb(74.117649%,75.686276%,76.078433%);fill-opacity:1;" d="M 53.375 47.5 C 54.417969 48.332031 60.214844 53.308594 60.8125 53.5 C 61.144531 53.605469 61.664062 53.363281 61.75 53.375 C 61.777344 53.378906 62.246094 53.535156 62.25 53.5625 C 62.386719 54.390625 60.648438 54.265625 60.0625 54 C 59.554688 53.769531 52.742188 48.230469 52.1875 47.625 C 52.023438 47.449219 51.324219 46.898438 51.6875 46.625 C 52.050781 46.347656 52.949219 47.925781 53.375 47.5 Z M 53.375 47.5 "/>
<path style=" stroke:none;fill-rule:nonzero;fill:rgb(77.254903%,79.215688%,79.215688%);fill-opacity:1;" d="M 50 65.625 C 50 65.625 49.375 66 49.375 66 C 49.375 66 32.3125 65.875 32.3125 65.875 C 31.992188 65.746094 31.6875 65.644531 31.375 65.5 C 30.207031 64.398438 30.351562 62.792969 31.8125 62 C 31.8125 62 52.6875 61.875 52.6875 61.875 C 52.6875 61.875 53.25 61.1875 53.25 61.1875 C 53.292969 60.953125 53.203125 60.769531 53.125 60.5625 C 52.9375 60.0625 48.496094 55.019531 47.75 54.125 C 47.75 54.125 47.5 53.1875 47.5 53.1875 C 47.730469 52.835938 47.964844 53.289062 48.125 53.4375 C 48.648438 53.921875 53.566406 59.789062 53.75 60.1875 C 54.351562 61.511719 53.601562 62.238281 52.4375 62.75 C 52.4375 62.75 32.1875 62.75 32.1875 62.75 C 31.113281 63.308594 31.121094 64.296875 32.0625 65 C 32.0625 65 49.4375 65.125 49.4375 65.125 C 49.71875 65.234375 49.816406 65.433594 50 65.625 Z M 50 65.625 "/>
<path style=" stroke:none;fill-rule:nonzero;fill:rgb(71.372551%,72.941178%,73.725492%);fill-opacity:1;" d="M 74.125 59.875 C 73.839844 60.449219 73.109375 61.105469 74.0625 61.75 C 75.566406 62.769531 92.867188 61.488281 95.9375 62 C 97.589844 62.519531 97.800781 65.207031 96.0625 65.75 C 93.503906 66.546875 83.253906 65.742188 79.75 65.875 C 79.6875 65.589844 78.027344 65.484375 77.9375 65.5 C 77.136719 65.636719 76.902344 66.738281 76.8125 66.75 C 75.929688 66.179688 76.667969 65.28125 77.4375 65.125 C 82.132812 64.160156 90.582031 66.074219 95.3125 65.125 C 96.652344 64.855469 96.78125 63.269531 95.5625 62.75 C 95.5625 62.75 73.9375 62.625 73.9375 62.625 C 71.085938 61.015625 74.066406 59.09375 75.25 57.625 C 75.25 57.625 76.875 56.6875 76.875 56.6875 C 76.21875 57.558594 74.507812 58.832031 74 59.6875 C 73.992188 59.699219 74.164062 59.796875 74.125 59.875 Z M 74.125 59.875 "/>
<path style=" stroke:none;fill-rule:nonzero;fill:rgb(85.882354%,87.450981%,87.843138%);fill-opacity:1;" d="M 40.375 74.625 C 40.382812 73.625 40.074219 74.707031 40 74.125 C 40.867188 72.78125 46.371094 69.679688 48 68.5 C 48.125 68.410156 48.242188 68.351562 48.375 68.25 C 49.105469 67.6875 50.414062 67.066406 49.375 66 C 49.375 66 50 65.625 50 65.625 C 50.277344 65.910156 50.503906 66.875 50.375 65.5625 C 51.273438 65.488281 50.855469 66.75 51 67.3125 Z M 40.375 74.625 "/>
<path style=" stroke:none;fill-rule:nonzero;fill:rgb(74.901962%,76.47059%,77.254903%);fill-opacity:1;" d="M 40 76.75 C 39.492188 75.898438 39.5 74.898438 40 74.125 C 40.074219 74.707031 40.382812 73.625 40.375 74.625 C 40.371094 75.351562 40.300781 76.976562 41.3125 77.25 C 43.378906 77.804688 49.347656 72.875 49.8125 73 C 50.6875 73.238281 48.980469 74.148438 48.8125 74.25 C 47.894531 74.796875 43.28125 77.648438 42.5625 77.75 C 41.882812 77.847656 40.378906 77.382812 40 76.75 Z M 40 76.75 "/>
<path style=" stroke:none;fill-rule:nonzero;fill:rgb(70.19608%,72.156864%,72.941178%);fill-opacity:1;" d="M 44.125 90.375 C 45.964844 86.652344 47.675781 82.988281 49.75 79.375 C 50.121094 78.726562 52.214844 74.785156 52.4375 74.625 C 52.652344 74.472656 52.757812 74.875 52.75 74.9375 C 52.683594 75.441406 51.886719 77.019531 51.625 77.5625 C 49.566406 81.835938 46.84375 85.855469 44.875 90.1875 Z M 44.125 90.375 "/>
<path style=" stroke:none;fill-rule:nonzero;fill:rgb(70.19608%,70.980394%,70.19608%);fill-opacity:1;" d="M 60.1875 76.25 C 60.851562 76.113281 61.441406 76.199219 61.75 76.8125 C 61.320312 77.078125 60.878906 76.625 60.3125 76.75 C 59.140625 77.007812 54.203125 85.417969 53.6875 85.25 C 53.535156 85.199219 53.472656 84.96875 53.5 84.8125 C 53.546875 84.554688 56.113281 81.097656 56.5 80.5625 C 57.085938 79.753906 59.425781 76.40625 60.1875 76.25 Z M 60.1875 76.25 "/>
</g>
</svg>
