<?xml version="1.0" encoding="UTF-8"?>
<svg xmlns="http://www.w3.org/2000/svg" xmlns:xlink="http://www.w3.org/1999/xlink" width="128" height="128" viewBox="0 0 128 128" version="1.1">
<defs>
<linearGradient id="linear0" gradientUnits="userSpaceOnUse" x1="494.914001" y1="236.317993" x2="523.182983" y2="795.604004" gradientTransform="matrix(0.125,0,0,0.125,0,0)">
<stop offset="0.1625" style="stop-color:rgb(99.607843%,99.607843%,99.607843%);stop-opacity:1;"/>
<stop offset="0.657143" style="stop-color:rgb(87.058824%,95.686275%,96.862745%);stop-opacity:1;"/>
<stop offset="0.728571" style="stop-color:rgb(85.882354%,94.901961%,95.686275%);stop-opacity:1;"/>
<stop offset="1" style="stop-color:rgb(83.137256%,83.529413%,85.490197%);stop-opacity:1;"/>
</linearGradient>
</defs>
<g id="surface1">
<path style=" stroke:none;fill-rule:nonzero;fill:url(#linear0);" d="M 97.4375 25.875 C 97.535156 25.863281 97.726562 25.855469 97.8125 25.875 C 98.304688 25.988281 103.402344 32.195312 104 33.0625 C 104.828125 34.257812 105.714844 35.644531 106.375 36.9375 C 112.363281 48.699219 106.382812 53.496094 102.5 64.0625 C 98.90625 73.839844 96.761719 84.703125 95.625 95.0625 C 95.425781 96.886719 95.613281 100.285156 95.25 101.8125 C 94.921875 103.195312 91.050781 103.125 90.75 101.9375 C 90.75 101.9375 90.6875 61.25 90.6875 61.25 C 85.636719 63.105469 81.59375 68.871094 78.75 73.3125 C 71.84375 84.105469 69.574219 101.40625 53.9375 102.75 C 43.160156 103.675781 30.554688 102.355469 19.6875 102.375 C 17.84375 101.847656 17.898438 100.960938 18.25 99.1875 C 19.667969 92 35.394531 85.980469 40.8125 81.75 C 42.175781 81.5 42.308594 83.503906 42.875 84.4375 C 48.273438 93.308594 59.554688 79.328125 62.5 74.6875 C 71.375 60.710938 76.316406 47.253906 88 34.5625 C 89.050781 33.417969 96.601562 25.980469 97.4375 25.875 Z M 97.4375 25.875 "/>
</g>
</svg>
